%TF.GenerationSoftware,KiCad,Pcbnew,9.0.4*%
%TF.CreationDate,2026-04-07T22:58:52-04:00*%
%TF.ProjectId,Hand_System_Rev_1,48616e64-5f53-4797-9374-656d5f526576,rev?*%
%TF.SameCoordinates,Original*%
%TF.FileFunction,Copper,L3,Inr*%
%TF.FilePolarity,Positive*%
%FSLAX46Y46*%
G04 Gerber Fmt 4.6, Leading zero omitted, Abs format (unit mm)*
G04 Created by KiCad (PCBNEW 9.0.4) date 2026-04-07 22:58:52*
%MOMM*%
%LPD*%
G01*
G04 APERTURE LIST*
%TA.AperFunction,ComponentPad*%
%ADD10R,2.000000X1.905000*%
%TD*%
%TA.AperFunction,ComponentPad*%
%ADD11O,2.000000X1.905000*%
%TD*%
%TA.AperFunction,ComponentPad*%
%ADD12R,1.530000X1.530000*%
%TD*%
%TA.AperFunction,ComponentPad*%
%ADD13C,1.530000*%
%TD*%
%TA.AperFunction,ComponentPad*%
%ADD14C,1.700000*%
%TD*%
%TA.AperFunction,ComponentPad*%
%ADD15R,1.700000X1.700000*%
%TD*%
%TA.AperFunction,ComponentPad*%
%ADD16O,1.600000X1.600000*%
%TD*%
%TA.AperFunction,ComponentPad*%
%ADD17R,1.600000X1.600000*%
%TD*%
%TA.AperFunction,ComponentPad*%
%ADD18R,2.540000X2.540000*%
%TD*%
%TA.AperFunction,ComponentPad*%
%ADD19C,2.540000*%
%TD*%
%TA.AperFunction,ComponentPad*%
%ADD20R,2.020000X5.020000*%
%TD*%
%TA.AperFunction,ComponentPad*%
%ADD21O,2.020000X5.020000*%
%TD*%
%TA.AperFunction,Conductor*%
%ADD22C,0.200000*%
%TD*%
G04 APERTURE END LIST*
D10*
%TO.N,Net-(Q3-G)*%
%TO.C,Q3*%
X138750000Y-66548000D03*
D11*
%TO.N,Net-(Q3-D)*%
X138750000Y-69088000D03*
%TO.N,Net-(Q3-S)*%
X138750000Y-71628000D03*
%TD*%
D10*
%TO.N,Net-(Q1-G)*%
%TO.C,Q1*%
X138430000Y-87630000D03*
D11*
%TO.N,Net-(Q1-D)*%
X138430000Y-90170000D03*
%TO.N,Net-(Q1-S)*%
X138430000Y-92710000D03*
%TD*%
D12*
%TO.N,3.3V*%
%TO.C,U1*%
X239522000Y-67056000D03*
D13*
%TO.N,unconnected-(U1-EN-Pad2)*%
X236982000Y-67056000D03*
%TO.N,unconnected-(U1-VP-Pad3)*%
X234442000Y-67056000D03*
%TO.N,unconnected-(U1-VN-Pad4)*%
X231902000Y-67056000D03*
%TO.N,unconnected-(U1-34-Pad5)*%
X229362000Y-67056000D03*
%TO.N,unconnected-(U1-35-Pad6)*%
X226822000Y-67056000D03*
%TO.N,unconnected-(U1-32-Pad7)*%
X224282000Y-67056000D03*
%TO.N,unconnected-(U1-33-Pad8)*%
X221742000Y-67056000D03*
%TO.N,unconnected-(U1-25-Pad9)*%
X219202000Y-67056000D03*
%TO.N,unconnected-(U1-26-Pad10)*%
X216662000Y-67056000D03*
%TO.N,unconnected-(U1-27-Pad11)*%
X214122000Y-67056000D03*
%TO.N,/DT*%
X211582000Y-67056000D03*
%TO.N,/CW*%
X209042000Y-67056000D03*
%TO.N,GND*%
X206502000Y-67056000D03*
%TO.N,unconnected-(U1-13-Pad15)*%
X203962000Y-67056000D03*
%TO.N,/SERVO_VG*%
X201422000Y-67056000D03*
%TO.N,/STP_VG*%
X198882000Y-67056000D03*
%TO.N,unconnected-(U1-CMD-Pad18)*%
X196342000Y-67056000D03*
%TO.N,5V*%
X193802000Y-67056000D03*
%TO.N,GND*%
X193802000Y-92456000D03*
%TO.N,/DIR_PIN*%
X196342000Y-92456000D03*
%TO.N,/STEP_PIN*%
X198882000Y-92456000D03*
%TO.N,unconnected-(U1-TX-Pad23)*%
X201422000Y-92456000D03*
%TO.N,unconnected-(U1-RX-Pad24)*%
X203962000Y-92456000D03*
%TO.N,unconnected-(U1-21-Pad25)*%
X206502000Y-92456000D03*
%TO.N,GND*%
X209042000Y-92456000D03*
%TO.N,unconnected-(U1-19-Pad27)*%
X211582000Y-92456000D03*
%TO.N,unconnected-(U1-18-Pad28)*%
X214122000Y-92456000D03*
%TO.N,unconnected-(U1-5-Pad29)*%
X216662000Y-92456000D03*
%TO.N,unconnected-(U1-17-Pad30)*%
X219202000Y-92456000D03*
%TO.N,unconnected-(U1-16-Pad31)*%
X221742000Y-92456000D03*
%TO.N,unconnected-(U1-4-Pad32)*%
X224282000Y-92456000D03*
%TO.N,/SCL_SERV*%
X226822000Y-92456000D03*
%TO.N,/SDA_SERV*%
X229362000Y-92456000D03*
%TO.N,/SDA_SPL*%
X231902000Y-92456000D03*
%TO.N,/SCL_SPL*%
X234442000Y-92456000D03*
%TO.N,unconnected-(U1-D0-Pad37)*%
X236982000Y-92456000D03*
%TO.N,unconnected-(U1-CLK-Pad38)*%
X239522000Y-92456000D03*
%TD*%
D14*
%TO.N,/RING_1*%
%TO.C,M10*%
X228914000Y-117869500D03*
%TO.N,5V*%
X228914000Y-120409500D03*
D15*
%TO.N,Net-(M10-PWM)*%
X228914000Y-122949500D03*
%TD*%
D14*
%TO.N,/INDEX_1*%
%TO.C,M8*%
X217992000Y-117869500D03*
%TO.N,5V*%
X217992000Y-120409500D03*
D15*
%TO.N,Net-(M8-PWM)*%
X217992000Y-122949500D03*
%TD*%
D14*
%TO.N,/MIDDLE_1*%
%TO.C,M9*%
X223326000Y-117869500D03*
%TO.N,5V*%
X223326000Y-120409500D03*
D15*
%TO.N,Net-(M9-PWM)*%
X223326000Y-122949500D03*
%TD*%
D14*
%TO.N,/PINKIE_1*%
%TO.C,M11*%
X234756000Y-117869500D03*
%TO.N,5V*%
X234756000Y-120409500D03*
D15*
%TO.N,Net-(M11-PWM)*%
X234756000Y-122949500D03*
%TD*%
D16*
%TO.N,unconnected-(U3-MS3-Pad12)*%
%TO.C,U3*%
X161036000Y-113792000D03*
%TO.N,GND*%
X161036000Y-121412000D03*
%TO.N,/DIR_PIN*%
X161036000Y-103632000D03*
%TO.N,/STEP_PIN*%
X161036000Y-106172000D03*
%TO.N,unconnected-(U3-~{SLEEP}-Pad14)*%
X161036000Y-108712000D03*
%TO.N,unconnected-(U3-~{RESET}-Pad13)*%
X161036000Y-111252000D03*
%TO.N,unconnected-(U3-MS2-Pad11)*%
X161036000Y-116332000D03*
%TO.N,unconnected-(U3-MS1-Pad10)*%
X161036000Y-118872000D03*
%TO.N,STP_P*%
X148336000Y-121412000D03*
%TO.N,GND*%
X148336000Y-118872000D03*
%TO.N,Net-(U3-2B)*%
X148336000Y-116332000D03*
%TO.N,Net-(M7--)*%
X148336000Y-113792000D03*
%TO.N,Net-(U3-1A)*%
X148336000Y-111252000D03*
%TO.N,Net-(U3-1B)*%
X148336000Y-108712000D03*
%TO.N,5V*%
X148336000Y-106172000D03*
D17*
%TO.N,GND*%
X148336000Y-103632000D03*
%TD*%
D15*
%TO.N,Net-(M5--)*%
%TO.C,M5*%
X195326000Y-122682000D03*
D14*
%TO.N,MOTOR_P*%
X195326000Y-120142000D03*
%TO.N,/RING_2*%
X195326000Y-117602000D03*
%TD*%
D15*
%TO.N,Net-(U3-2B)*%
%TO.C,M7*%
X141214000Y-118364000D03*
D14*
%TO.N,Net-(M7--)*%
X141214000Y-115824000D03*
%TO.N,Net-(U3-1A)*%
X141214000Y-113284000D03*
%TO.N,Net-(U3-1B)*%
X141214000Y-110744000D03*
%TD*%
D15*
%TO.N,Net-(M1--)*%
%TO.C,M1*%
X212658000Y-122949500D03*
D14*
%TO.N,5V*%
X212658000Y-120409500D03*
%TO.N,/THUMB_1*%
X212658000Y-117869500D03*
%TD*%
D18*
%TO.N,15V*%
%TO.C,U2*%
X110744000Y-37338000D03*
D19*
%TO.N,GND*%
X110744000Y-55118000D03*
X151384000Y-55118000D03*
%TO.N,12V*%
X151384000Y-37338000D03*
%TD*%
D20*
%TO.N,15V*%
%TO.C,J1*%
X105150000Y-90932000D03*
D21*
%TO.N,GND*%
X99970000Y-90932000D03*
%TD*%
D15*
%TO.N,5V*%
%TO.C,U4*%
X204470000Y-63246000D03*
D14*
%TO.N,GND*%
X207010000Y-63246000D03*
%TO.N,/CW*%
X209550000Y-63246000D03*
%TO.N,/DT*%
X212090000Y-63246000D03*
%TD*%
D15*
%TO.N,Net-(M4--)*%
%TO.C,M4*%
X190246000Y-122682000D03*
D14*
%TO.N,MOTOR_P*%
X190246000Y-120142000D03*
%TO.N,/MIDDLE_2*%
X190246000Y-117602000D03*
%TD*%
D15*
%TO.N,Net-(M3--)*%
%TO.C,M3*%
X185420000Y-122682000D03*
D14*
%TO.N,MOTOR_P*%
X185420000Y-120142000D03*
%TO.N,/INDEX_2*%
X185420000Y-117602000D03*
%TD*%
D15*
%TO.N,Net-(M2--)*%
%TO.C,M2*%
X180340000Y-122682000D03*
D14*
%TO.N,MOTOR_P*%
X180340000Y-120142000D03*
%TO.N,/THUMB_2*%
X180340000Y-117602000D03*
%TD*%
D15*
%TO.N,Net-(M6--)*%
%TO.C,M6*%
X200152000Y-122682000D03*
D14*
%TO.N,MOTOR_P*%
X200152000Y-120142000D03*
%TO.N,/PINKIE_2*%
X200152000Y-117602000D03*
%TD*%
D18*
%TO.N,12V*%
%TO.C,U5*%
X177800000Y-36830000D03*
D19*
%TO.N,GND*%
X177800000Y-54610000D03*
X218440000Y-54610000D03*
%TO.N,7.2V*%
X218440000Y-36830000D03*
%TD*%
D18*
%TO.N,7.2V*%
%TO.C,U6*%
X92710000Y-106426000D03*
D19*
%TO.N,GND*%
X92710000Y-124206000D03*
X133350000Y-124206000D03*
%TO.N,5V*%
X133350000Y-106426000D03*
%TD*%
D22*
%TO.N,MOTOR_P*%
X200152000Y-120142000D02*
X180340000Y-120142000D01*
%TO.N,5V*%
X234756000Y-120409500D02*
X212658000Y-120409500D01*
X197612000Y-63246000D02*
X193802000Y-67056000D01*
X204470000Y-63246000D02*
X197612000Y-63246000D01*
X154432000Y-106426000D02*
X193802000Y-67056000D01*
X133350000Y-106426000D02*
X154432000Y-106426000D01*
%TO.N,7.2V*%
X94180000Y-106426000D02*
X92710000Y-106426000D01*
X161747000Y-38859000D02*
X94180000Y-106426000D01*
X216411000Y-38859000D02*
X161747000Y-38859000D01*
X218440000Y-36830000D02*
X216411000Y-38859000D01*
%TD*%
M02*
