%TF.GenerationSoftware,KiCad,Pcbnew,9.0.4*%
%TF.CreationDate,2026-04-07T22:58:52-04:00*%
%TF.ProjectId,Hand_System_Rev_1,48616e64-5f53-4797-9374-656d5f526576,rev?*%
%TF.SameCoordinates,Original*%
%TF.FileFunction,Legend,Top*%
%TF.FilePolarity,Positive*%
%FSLAX46Y46*%
G04 Gerber Fmt 4.6, Leading zero omitted, Abs format (unit mm)*
G04 Created by KiCad (PCBNEW 9.0.4) date 2026-04-07 22:58:52*
%MOMM*%
%LPD*%
G01*
G04 APERTURE LIST*
%ADD10C,0.100000*%
%ADD11C,0.150000*%
%ADD12C,0.120000*%
%ADD13C,0.127000*%
%ADD14C,0.200000*%
G04 APERTURE END LIST*
D10*
X202599027Y-134254419D02*
X203170455Y-134254419D01*
X202884741Y-135254419D02*
X202884741Y-134254419D01*
X203503789Y-135254419D02*
X203503789Y-134254419D01*
X203932360Y-135254419D02*
X203932360Y-134730609D01*
X203932360Y-134730609D02*
X203884741Y-134635371D01*
X203884741Y-134635371D02*
X203789503Y-134587752D01*
X203789503Y-134587752D02*
X203646646Y-134587752D01*
X203646646Y-134587752D02*
X203551408Y-134635371D01*
X203551408Y-134635371D02*
X203503789Y-134682990D01*
X204837122Y-134587752D02*
X204837122Y-135254419D01*
X204408551Y-134587752D02*
X204408551Y-135111561D01*
X204408551Y-135111561D02*
X204456170Y-135206800D01*
X204456170Y-135206800D02*
X204551408Y-135254419D01*
X204551408Y-135254419D02*
X204694265Y-135254419D01*
X204694265Y-135254419D02*
X204789503Y-135206800D01*
X204789503Y-135206800D02*
X204837122Y-135159180D01*
X205313313Y-135254419D02*
X205313313Y-134587752D01*
X205313313Y-134682990D02*
X205360932Y-134635371D01*
X205360932Y-134635371D02*
X205456170Y-134587752D01*
X205456170Y-134587752D02*
X205599027Y-134587752D01*
X205599027Y-134587752D02*
X205694265Y-134635371D01*
X205694265Y-134635371D02*
X205741884Y-134730609D01*
X205741884Y-134730609D02*
X205741884Y-135254419D01*
X205741884Y-134730609D02*
X205789503Y-134635371D01*
X205789503Y-134635371D02*
X205884741Y-134587752D01*
X205884741Y-134587752D02*
X206027598Y-134587752D01*
X206027598Y-134587752D02*
X206122837Y-134635371D01*
X206122837Y-134635371D02*
X206170456Y-134730609D01*
X206170456Y-134730609D02*
X206170456Y-135254419D01*
X206646646Y-135254419D02*
X206646646Y-134254419D01*
X206646646Y-134635371D02*
X206741884Y-134587752D01*
X206741884Y-134587752D02*
X206932360Y-134587752D01*
X206932360Y-134587752D02*
X207027598Y-134635371D01*
X207027598Y-134635371D02*
X207075217Y-134682990D01*
X207075217Y-134682990D02*
X207122836Y-134778228D01*
X207122836Y-134778228D02*
X207122836Y-135063942D01*
X207122836Y-135063942D02*
X207075217Y-135159180D01*
X207075217Y-135159180D02*
X207027598Y-135206800D01*
X207027598Y-135206800D02*
X206932360Y-135254419D01*
X206932360Y-135254419D02*
X206741884Y-135254419D01*
X206741884Y-135254419D02*
X206646646Y-135206800D01*
X207599027Y-135206800D02*
X207599027Y-135254419D01*
X207599027Y-135254419D02*
X207551408Y-135349657D01*
X207551408Y-135349657D02*
X207503789Y-135397276D01*
X208789503Y-135254419D02*
X208789503Y-134254419D01*
X209265693Y-134587752D02*
X209265693Y-135254419D01*
X209265693Y-134682990D02*
X209313312Y-134635371D01*
X209313312Y-134635371D02*
X209408550Y-134587752D01*
X209408550Y-134587752D02*
X209551407Y-134587752D01*
X209551407Y-134587752D02*
X209646645Y-134635371D01*
X209646645Y-134635371D02*
X209694264Y-134730609D01*
X209694264Y-134730609D02*
X209694264Y-135254419D01*
X210599026Y-135254419D02*
X210599026Y-134254419D01*
X210599026Y-135206800D02*
X210503788Y-135254419D01*
X210503788Y-135254419D02*
X210313312Y-135254419D01*
X210313312Y-135254419D02*
X210218074Y-135206800D01*
X210218074Y-135206800D02*
X210170455Y-135159180D01*
X210170455Y-135159180D02*
X210122836Y-135063942D01*
X210122836Y-135063942D02*
X210122836Y-134778228D01*
X210122836Y-134778228D02*
X210170455Y-134682990D01*
X210170455Y-134682990D02*
X210218074Y-134635371D01*
X210218074Y-134635371D02*
X210313312Y-134587752D01*
X210313312Y-134587752D02*
X210503788Y-134587752D01*
X210503788Y-134587752D02*
X210599026Y-134635371D01*
X211456169Y-135206800D02*
X211360931Y-135254419D01*
X211360931Y-135254419D02*
X211170455Y-135254419D01*
X211170455Y-135254419D02*
X211075217Y-135206800D01*
X211075217Y-135206800D02*
X211027598Y-135111561D01*
X211027598Y-135111561D02*
X211027598Y-134730609D01*
X211027598Y-134730609D02*
X211075217Y-134635371D01*
X211075217Y-134635371D02*
X211170455Y-134587752D01*
X211170455Y-134587752D02*
X211360931Y-134587752D01*
X211360931Y-134587752D02*
X211456169Y-134635371D01*
X211456169Y-134635371D02*
X211503788Y-134730609D01*
X211503788Y-134730609D02*
X211503788Y-134825847D01*
X211503788Y-134825847D02*
X211027598Y-134921085D01*
X211837122Y-135254419D02*
X212360931Y-134587752D01*
X211837122Y-134587752D02*
X212360931Y-135254419D01*
X212789503Y-135206800D02*
X212789503Y-135254419D01*
X212789503Y-135254419D02*
X212741884Y-135349657D01*
X212741884Y-135349657D02*
X212694265Y-135397276D01*
X213979979Y-135254419D02*
X213979979Y-134254419D01*
X213979979Y-134254419D02*
X214313312Y-134968704D01*
X214313312Y-134968704D02*
X214646645Y-134254419D01*
X214646645Y-134254419D02*
X214646645Y-135254419D01*
X215122836Y-135254419D02*
X215122836Y-134587752D01*
X215122836Y-134254419D02*
X215075217Y-134302038D01*
X215075217Y-134302038D02*
X215122836Y-134349657D01*
X215122836Y-134349657D02*
X215170455Y-134302038D01*
X215170455Y-134302038D02*
X215122836Y-134254419D01*
X215122836Y-134254419D02*
X215122836Y-134349657D01*
X216027597Y-135254419D02*
X216027597Y-134254419D01*
X216027597Y-135206800D02*
X215932359Y-135254419D01*
X215932359Y-135254419D02*
X215741883Y-135254419D01*
X215741883Y-135254419D02*
X215646645Y-135206800D01*
X215646645Y-135206800D02*
X215599026Y-135159180D01*
X215599026Y-135159180D02*
X215551407Y-135063942D01*
X215551407Y-135063942D02*
X215551407Y-134778228D01*
X215551407Y-134778228D02*
X215599026Y-134682990D01*
X215599026Y-134682990D02*
X215646645Y-134635371D01*
X215646645Y-134635371D02*
X215741883Y-134587752D01*
X215741883Y-134587752D02*
X215932359Y-134587752D01*
X215932359Y-134587752D02*
X216027597Y-134635371D01*
X216932359Y-135254419D02*
X216932359Y-134254419D01*
X216932359Y-135206800D02*
X216837121Y-135254419D01*
X216837121Y-135254419D02*
X216646645Y-135254419D01*
X216646645Y-135254419D02*
X216551407Y-135206800D01*
X216551407Y-135206800D02*
X216503788Y-135159180D01*
X216503788Y-135159180D02*
X216456169Y-135063942D01*
X216456169Y-135063942D02*
X216456169Y-134778228D01*
X216456169Y-134778228D02*
X216503788Y-134682990D01*
X216503788Y-134682990D02*
X216551407Y-134635371D01*
X216551407Y-134635371D02*
X216646645Y-134587752D01*
X216646645Y-134587752D02*
X216837121Y-134587752D01*
X216837121Y-134587752D02*
X216932359Y-134635371D01*
X217551407Y-135254419D02*
X217456169Y-135206800D01*
X217456169Y-135206800D02*
X217408550Y-135111561D01*
X217408550Y-135111561D02*
X217408550Y-134254419D01*
X218313312Y-135206800D02*
X218218074Y-135254419D01*
X218218074Y-135254419D02*
X218027598Y-135254419D01*
X218027598Y-135254419D02*
X217932360Y-135206800D01*
X217932360Y-135206800D02*
X217884741Y-135111561D01*
X217884741Y-135111561D02*
X217884741Y-134730609D01*
X217884741Y-134730609D02*
X217932360Y-134635371D01*
X217932360Y-134635371D02*
X218027598Y-134587752D01*
X218027598Y-134587752D02*
X218218074Y-134587752D01*
X218218074Y-134587752D02*
X218313312Y-134635371D01*
X218313312Y-134635371D02*
X218360931Y-134730609D01*
X218360931Y-134730609D02*
X218360931Y-134825847D01*
X218360931Y-134825847D02*
X217884741Y-134921085D01*
X218837122Y-135206800D02*
X218837122Y-135254419D01*
X218837122Y-135254419D02*
X218789503Y-135349657D01*
X218789503Y-135349657D02*
X218741884Y-135397276D01*
X220599026Y-135254419D02*
X220265693Y-134778228D01*
X220027598Y-135254419D02*
X220027598Y-134254419D01*
X220027598Y-134254419D02*
X220408550Y-134254419D01*
X220408550Y-134254419D02*
X220503788Y-134302038D01*
X220503788Y-134302038D02*
X220551407Y-134349657D01*
X220551407Y-134349657D02*
X220599026Y-134444895D01*
X220599026Y-134444895D02*
X220599026Y-134587752D01*
X220599026Y-134587752D02*
X220551407Y-134682990D01*
X220551407Y-134682990D02*
X220503788Y-134730609D01*
X220503788Y-134730609D02*
X220408550Y-134778228D01*
X220408550Y-134778228D02*
X220027598Y-134778228D01*
X221027598Y-135254419D02*
X221027598Y-134587752D01*
X221027598Y-134254419D02*
X220979979Y-134302038D01*
X220979979Y-134302038D02*
X221027598Y-134349657D01*
X221027598Y-134349657D02*
X221075217Y-134302038D01*
X221075217Y-134302038D02*
X221027598Y-134254419D01*
X221027598Y-134254419D02*
X221027598Y-134349657D01*
X221503788Y-134587752D02*
X221503788Y-135254419D01*
X221503788Y-134682990D02*
X221551407Y-134635371D01*
X221551407Y-134635371D02*
X221646645Y-134587752D01*
X221646645Y-134587752D02*
X221789502Y-134587752D01*
X221789502Y-134587752D02*
X221884740Y-134635371D01*
X221884740Y-134635371D02*
X221932359Y-134730609D01*
X221932359Y-134730609D02*
X221932359Y-135254419D01*
X222837121Y-134587752D02*
X222837121Y-135397276D01*
X222837121Y-135397276D02*
X222789502Y-135492514D01*
X222789502Y-135492514D02*
X222741883Y-135540133D01*
X222741883Y-135540133D02*
X222646645Y-135587752D01*
X222646645Y-135587752D02*
X222503788Y-135587752D01*
X222503788Y-135587752D02*
X222408550Y-135540133D01*
X222837121Y-135206800D02*
X222741883Y-135254419D01*
X222741883Y-135254419D02*
X222551407Y-135254419D01*
X222551407Y-135254419D02*
X222456169Y-135206800D01*
X222456169Y-135206800D02*
X222408550Y-135159180D01*
X222408550Y-135159180D02*
X222360931Y-135063942D01*
X222360931Y-135063942D02*
X222360931Y-134778228D01*
X222360931Y-134778228D02*
X222408550Y-134682990D01*
X222408550Y-134682990D02*
X222456169Y-134635371D01*
X222456169Y-134635371D02*
X222551407Y-134587752D01*
X222551407Y-134587752D02*
X222741883Y-134587752D01*
X222741883Y-134587752D02*
X222837121Y-134635371D01*
X223360931Y-135206800D02*
X223360931Y-135254419D01*
X223360931Y-135254419D02*
X223313312Y-135349657D01*
X223313312Y-135349657D02*
X223265693Y-135397276D01*
X224551407Y-135254419D02*
X224551407Y-134254419D01*
X224551407Y-134254419D02*
X224932359Y-134254419D01*
X224932359Y-134254419D02*
X225027597Y-134302038D01*
X225027597Y-134302038D02*
X225075216Y-134349657D01*
X225075216Y-134349657D02*
X225122835Y-134444895D01*
X225122835Y-134444895D02*
X225122835Y-134587752D01*
X225122835Y-134587752D02*
X225075216Y-134682990D01*
X225075216Y-134682990D02*
X225027597Y-134730609D01*
X225027597Y-134730609D02*
X224932359Y-134778228D01*
X224932359Y-134778228D02*
X224551407Y-134778228D01*
X225551407Y-135254419D02*
X225551407Y-134587752D01*
X225551407Y-134254419D02*
X225503788Y-134302038D01*
X225503788Y-134302038D02*
X225551407Y-134349657D01*
X225551407Y-134349657D02*
X225599026Y-134302038D01*
X225599026Y-134302038D02*
X225551407Y-134254419D01*
X225551407Y-134254419D02*
X225551407Y-134349657D01*
X226027597Y-134587752D02*
X226027597Y-135254419D01*
X226027597Y-134682990D02*
X226075216Y-134635371D01*
X226075216Y-134635371D02*
X226170454Y-134587752D01*
X226170454Y-134587752D02*
X226313311Y-134587752D01*
X226313311Y-134587752D02*
X226408549Y-134635371D01*
X226408549Y-134635371D02*
X226456168Y-134730609D01*
X226456168Y-134730609D02*
X226456168Y-135254419D01*
X226932359Y-135254419D02*
X226932359Y-134254419D01*
X227027597Y-134873466D02*
X227313311Y-135254419D01*
X227313311Y-134587752D02*
X226932359Y-134968704D01*
X227741883Y-135254419D02*
X227741883Y-134587752D01*
X227741883Y-134254419D02*
X227694264Y-134302038D01*
X227694264Y-134302038D02*
X227741883Y-134349657D01*
X227741883Y-134349657D02*
X227789502Y-134302038D01*
X227789502Y-134302038D02*
X227741883Y-134254419D01*
X227741883Y-134254419D02*
X227741883Y-134349657D01*
X228599025Y-135206800D02*
X228503787Y-135254419D01*
X228503787Y-135254419D02*
X228313311Y-135254419D01*
X228313311Y-135254419D02*
X228218073Y-135206800D01*
X228218073Y-135206800D02*
X228170454Y-135111561D01*
X228170454Y-135111561D02*
X228170454Y-134730609D01*
X228170454Y-134730609D02*
X228218073Y-134635371D01*
X228218073Y-134635371D02*
X228313311Y-134587752D01*
X228313311Y-134587752D02*
X228503787Y-134587752D01*
X228503787Y-134587752D02*
X228599025Y-134635371D01*
X228599025Y-134635371D02*
X228646644Y-134730609D01*
X228646644Y-134730609D02*
X228646644Y-134825847D01*
X228646644Y-134825847D02*
X228170454Y-134921085D01*
X171103027Y-134254419D02*
X171674455Y-134254419D01*
X171388741Y-135254419D02*
X171388741Y-134254419D01*
X172007789Y-135254419D02*
X172007789Y-134254419D01*
X172436360Y-135254419D02*
X172436360Y-134730609D01*
X172436360Y-134730609D02*
X172388741Y-134635371D01*
X172388741Y-134635371D02*
X172293503Y-134587752D01*
X172293503Y-134587752D02*
X172150646Y-134587752D01*
X172150646Y-134587752D02*
X172055408Y-134635371D01*
X172055408Y-134635371D02*
X172007789Y-134682990D01*
X173341122Y-134587752D02*
X173341122Y-135254419D01*
X172912551Y-134587752D02*
X172912551Y-135111561D01*
X172912551Y-135111561D02*
X172960170Y-135206800D01*
X172960170Y-135206800D02*
X173055408Y-135254419D01*
X173055408Y-135254419D02*
X173198265Y-135254419D01*
X173198265Y-135254419D02*
X173293503Y-135206800D01*
X173293503Y-135206800D02*
X173341122Y-135159180D01*
X173817313Y-135254419D02*
X173817313Y-134587752D01*
X173817313Y-134682990D02*
X173864932Y-134635371D01*
X173864932Y-134635371D02*
X173960170Y-134587752D01*
X173960170Y-134587752D02*
X174103027Y-134587752D01*
X174103027Y-134587752D02*
X174198265Y-134635371D01*
X174198265Y-134635371D02*
X174245884Y-134730609D01*
X174245884Y-134730609D02*
X174245884Y-135254419D01*
X174245884Y-134730609D02*
X174293503Y-134635371D01*
X174293503Y-134635371D02*
X174388741Y-134587752D01*
X174388741Y-134587752D02*
X174531598Y-134587752D01*
X174531598Y-134587752D02*
X174626837Y-134635371D01*
X174626837Y-134635371D02*
X174674456Y-134730609D01*
X174674456Y-134730609D02*
X174674456Y-135254419D01*
X175150646Y-135254419D02*
X175150646Y-134254419D01*
X175150646Y-134635371D02*
X175245884Y-134587752D01*
X175245884Y-134587752D02*
X175436360Y-134587752D01*
X175436360Y-134587752D02*
X175531598Y-134635371D01*
X175531598Y-134635371D02*
X175579217Y-134682990D01*
X175579217Y-134682990D02*
X175626836Y-134778228D01*
X175626836Y-134778228D02*
X175626836Y-135063942D01*
X175626836Y-135063942D02*
X175579217Y-135159180D01*
X175579217Y-135159180D02*
X175531598Y-135206800D01*
X175531598Y-135206800D02*
X175436360Y-135254419D01*
X175436360Y-135254419D02*
X175245884Y-135254419D01*
X175245884Y-135254419D02*
X175150646Y-135206800D01*
X176103027Y-135206800D02*
X176103027Y-135254419D01*
X176103027Y-135254419D02*
X176055408Y-135349657D01*
X176055408Y-135349657D02*
X176007789Y-135397276D01*
X177293503Y-135254419D02*
X177293503Y-134254419D01*
X177769693Y-134587752D02*
X177769693Y-135254419D01*
X177769693Y-134682990D02*
X177817312Y-134635371D01*
X177817312Y-134635371D02*
X177912550Y-134587752D01*
X177912550Y-134587752D02*
X178055407Y-134587752D01*
X178055407Y-134587752D02*
X178150645Y-134635371D01*
X178150645Y-134635371D02*
X178198264Y-134730609D01*
X178198264Y-134730609D02*
X178198264Y-135254419D01*
X179103026Y-135254419D02*
X179103026Y-134254419D01*
X179103026Y-135206800D02*
X179007788Y-135254419D01*
X179007788Y-135254419D02*
X178817312Y-135254419D01*
X178817312Y-135254419D02*
X178722074Y-135206800D01*
X178722074Y-135206800D02*
X178674455Y-135159180D01*
X178674455Y-135159180D02*
X178626836Y-135063942D01*
X178626836Y-135063942D02*
X178626836Y-134778228D01*
X178626836Y-134778228D02*
X178674455Y-134682990D01*
X178674455Y-134682990D02*
X178722074Y-134635371D01*
X178722074Y-134635371D02*
X178817312Y-134587752D01*
X178817312Y-134587752D02*
X179007788Y-134587752D01*
X179007788Y-134587752D02*
X179103026Y-134635371D01*
X179960169Y-135206800D02*
X179864931Y-135254419D01*
X179864931Y-135254419D02*
X179674455Y-135254419D01*
X179674455Y-135254419D02*
X179579217Y-135206800D01*
X179579217Y-135206800D02*
X179531598Y-135111561D01*
X179531598Y-135111561D02*
X179531598Y-134730609D01*
X179531598Y-134730609D02*
X179579217Y-134635371D01*
X179579217Y-134635371D02*
X179674455Y-134587752D01*
X179674455Y-134587752D02*
X179864931Y-134587752D01*
X179864931Y-134587752D02*
X179960169Y-134635371D01*
X179960169Y-134635371D02*
X180007788Y-134730609D01*
X180007788Y-134730609D02*
X180007788Y-134825847D01*
X180007788Y-134825847D02*
X179531598Y-134921085D01*
X180341122Y-135254419D02*
X180864931Y-134587752D01*
X180341122Y-134587752D02*
X180864931Y-135254419D01*
X181293503Y-135206800D02*
X181293503Y-135254419D01*
X181293503Y-135254419D02*
X181245884Y-135349657D01*
X181245884Y-135349657D02*
X181198265Y-135397276D01*
X182483979Y-135254419D02*
X182483979Y-134254419D01*
X182483979Y-134254419D02*
X182817312Y-134968704D01*
X182817312Y-134968704D02*
X183150645Y-134254419D01*
X183150645Y-134254419D02*
X183150645Y-135254419D01*
X183626836Y-135254419D02*
X183626836Y-134587752D01*
X183626836Y-134254419D02*
X183579217Y-134302038D01*
X183579217Y-134302038D02*
X183626836Y-134349657D01*
X183626836Y-134349657D02*
X183674455Y-134302038D01*
X183674455Y-134302038D02*
X183626836Y-134254419D01*
X183626836Y-134254419D02*
X183626836Y-134349657D01*
X184531597Y-135254419D02*
X184531597Y-134254419D01*
X184531597Y-135206800D02*
X184436359Y-135254419D01*
X184436359Y-135254419D02*
X184245883Y-135254419D01*
X184245883Y-135254419D02*
X184150645Y-135206800D01*
X184150645Y-135206800D02*
X184103026Y-135159180D01*
X184103026Y-135159180D02*
X184055407Y-135063942D01*
X184055407Y-135063942D02*
X184055407Y-134778228D01*
X184055407Y-134778228D02*
X184103026Y-134682990D01*
X184103026Y-134682990D02*
X184150645Y-134635371D01*
X184150645Y-134635371D02*
X184245883Y-134587752D01*
X184245883Y-134587752D02*
X184436359Y-134587752D01*
X184436359Y-134587752D02*
X184531597Y-134635371D01*
X185436359Y-135254419D02*
X185436359Y-134254419D01*
X185436359Y-135206800D02*
X185341121Y-135254419D01*
X185341121Y-135254419D02*
X185150645Y-135254419D01*
X185150645Y-135254419D02*
X185055407Y-135206800D01*
X185055407Y-135206800D02*
X185007788Y-135159180D01*
X185007788Y-135159180D02*
X184960169Y-135063942D01*
X184960169Y-135063942D02*
X184960169Y-134778228D01*
X184960169Y-134778228D02*
X185007788Y-134682990D01*
X185007788Y-134682990D02*
X185055407Y-134635371D01*
X185055407Y-134635371D02*
X185150645Y-134587752D01*
X185150645Y-134587752D02*
X185341121Y-134587752D01*
X185341121Y-134587752D02*
X185436359Y-134635371D01*
X186055407Y-135254419D02*
X185960169Y-135206800D01*
X185960169Y-135206800D02*
X185912550Y-135111561D01*
X185912550Y-135111561D02*
X185912550Y-134254419D01*
X186817312Y-135206800D02*
X186722074Y-135254419D01*
X186722074Y-135254419D02*
X186531598Y-135254419D01*
X186531598Y-135254419D02*
X186436360Y-135206800D01*
X186436360Y-135206800D02*
X186388741Y-135111561D01*
X186388741Y-135111561D02*
X186388741Y-134730609D01*
X186388741Y-134730609D02*
X186436360Y-134635371D01*
X186436360Y-134635371D02*
X186531598Y-134587752D01*
X186531598Y-134587752D02*
X186722074Y-134587752D01*
X186722074Y-134587752D02*
X186817312Y-134635371D01*
X186817312Y-134635371D02*
X186864931Y-134730609D01*
X186864931Y-134730609D02*
X186864931Y-134825847D01*
X186864931Y-134825847D02*
X186388741Y-134921085D01*
X187341122Y-135206800D02*
X187341122Y-135254419D01*
X187341122Y-135254419D02*
X187293503Y-135349657D01*
X187293503Y-135349657D02*
X187245884Y-135397276D01*
X189103026Y-135254419D02*
X188769693Y-134778228D01*
X188531598Y-135254419D02*
X188531598Y-134254419D01*
X188531598Y-134254419D02*
X188912550Y-134254419D01*
X188912550Y-134254419D02*
X189007788Y-134302038D01*
X189007788Y-134302038D02*
X189055407Y-134349657D01*
X189055407Y-134349657D02*
X189103026Y-134444895D01*
X189103026Y-134444895D02*
X189103026Y-134587752D01*
X189103026Y-134587752D02*
X189055407Y-134682990D01*
X189055407Y-134682990D02*
X189007788Y-134730609D01*
X189007788Y-134730609D02*
X188912550Y-134778228D01*
X188912550Y-134778228D02*
X188531598Y-134778228D01*
X189531598Y-135254419D02*
X189531598Y-134587752D01*
X189531598Y-134254419D02*
X189483979Y-134302038D01*
X189483979Y-134302038D02*
X189531598Y-134349657D01*
X189531598Y-134349657D02*
X189579217Y-134302038D01*
X189579217Y-134302038D02*
X189531598Y-134254419D01*
X189531598Y-134254419D02*
X189531598Y-134349657D01*
X190007788Y-134587752D02*
X190007788Y-135254419D01*
X190007788Y-134682990D02*
X190055407Y-134635371D01*
X190055407Y-134635371D02*
X190150645Y-134587752D01*
X190150645Y-134587752D02*
X190293502Y-134587752D01*
X190293502Y-134587752D02*
X190388740Y-134635371D01*
X190388740Y-134635371D02*
X190436359Y-134730609D01*
X190436359Y-134730609D02*
X190436359Y-135254419D01*
X191341121Y-134587752D02*
X191341121Y-135397276D01*
X191341121Y-135397276D02*
X191293502Y-135492514D01*
X191293502Y-135492514D02*
X191245883Y-135540133D01*
X191245883Y-135540133D02*
X191150645Y-135587752D01*
X191150645Y-135587752D02*
X191007788Y-135587752D01*
X191007788Y-135587752D02*
X190912550Y-135540133D01*
X191341121Y-135206800D02*
X191245883Y-135254419D01*
X191245883Y-135254419D02*
X191055407Y-135254419D01*
X191055407Y-135254419D02*
X190960169Y-135206800D01*
X190960169Y-135206800D02*
X190912550Y-135159180D01*
X190912550Y-135159180D02*
X190864931Y-135063942D01*
X190864931Y-135063942D02*
X190864931Y-134778228D01*
X190864931Y-134778228D02*
X190912550Y-134682990D01*
X190912550Y-134682990D02*
X190960169Y-134635371D01*
X190960169Y-134635371D02*
X191055407Y-134587752D01*
X191055407Y-134587752D02*
X191245883Y-134587752D01*
X191245883Y-134587752D02*
X191341121Y-134635371D01*
X191864931Y-135206800D02*
X191864931Y-135254419D01*
X191864931Y-135254419D02*
X191817312Y-135349657D01*
X191817312Y-135349657D02*
X191769693Y-135397276D01*
X193055407Y-135254419D02*
X193055407Y-134254419D01*
X193055407Y-134254419D02*
X193436359Y-134254419D01*
X193436359Y-134254419D02*
X193531597Y-134302038D01*
X193531597Y-134302038D02*
X193579216Y-134349657D01*
X193579216Y-134349657D02*
X193626835Y-134444895D01*
X193626835Y-134444895D02*
X193626835Y-134587752D01*
X193626835Y-134587752D02*
X193579216Y-134682990D01*
X193579216Y-134682990D02*
X193531597Y-134730609D01*
X193531597Y-134730609D02*
X193436359Y-134778228D01*
X193436359Y-134778228D02*
X193055407Y-134778228D01*
X194055407Y-135254419D02*
X194055407Y-134587752D01*
X194055407Y-134254419D02*
X194007788Y-134302038D01*
X194007788Y-134302038D02*
X194055407Y-134349657D01*
X194055407Y-134349657D02*
X194103026Y-134302038D01*
X194103026Y-134302038D02*
X194055407Y-134254419D01*
X194055407Y-134254419D02*
X194055407Y-134349657D01*
X194531597Y-134587752D02*
X194531597Y-135254419D01*
X194531597Y-134682990D02*
X194579216Y-134635371D01*
X194579216Y-134635371D02*
X194674454Y-134587752D01*
X194674454Y-134587752D02*
X194817311Y-134587752D01*
X194817311Y-134587752D02*
X194912549Y-134635371D01*
X194912549Y-134635371D02*
X194960168Y-134730609D01*
X194960168Y-134730609D02*
X194960168Y-135254419D01*
X195436359Y-135254419D02*
X195436359Y-134254419D01*
X195531597Y-134873466D02*
X195817311Y-135254419D01*
X195817311Y-134587752D02*
X195436359Y-134968704D01*
X196245883Y-135254419D02*
X196245883Y-134587752D01*
X196245883Y-134254419D02*
X196198264Y-134302038D01*
X196198264Y-134302038D02*
X196245883Y-134349657D01*
X196245883Y-134349657D02*
X196293502Y-134302038D01*
X196293502Y-134302038D02*
X196245883Y-134254419D01*
X196245883Y-134254419D02*
X196245883Y-134349657D01*
X197103025Y-135206800D02*
X197007787Y-135254419D01*
X197007787Y-135254419D02*
X196817311Y-135254419D01*
X196817311Y-135254419D02*
X196722073Y-135206800D01*
X196722073Y-135206800D02*
X196674454Y-135111561D01*
X196674454Y-135111561D02*
X196674454Y-134730609D01*
X196674454Y-134730609D02*
X196722073Y-134635371D01*
X196722073Y-134635371D02*
X196817311Y-134587752D01*
X196817311Y-134587752D02*
X197007787Y-134587752D01*
X197007787Y-134587752D02*
X197103025Y-134635371D01*
X197103025Y-134635371D02*
X197150644Y-134730609D01*
X197150644Y-134730609D02*
X197150644Y-134825847D01*
X197150644Y-134825847D02*
X196674454Y-134921085D01*
X216410265Y-114378800D02*
X216553122Y-114426419D01*
X216553122Y-114426419D02*
X216791217Y-114426419D01*
X216791217Y-114426419D02*
X216886455Y-114378800D01*
X216886455Y-114378800D02*
X216934074Y-114331180D01*
X216934074Y-114331180D02*
X216981693Y-114235942D01*
X216981693Y-114235942D02*
X216981693Y-114140704D01*
X216981693Y-114140704D02*
X216934074Y-114045466D01*
X216934074Y-114045466D02*
X216886455Y-113997847D01*
X216886455Y-113997847D02*
X216791217Y-113950228D01*
X216791217Y-113950228D02*
X216600741Y-113902609D01*
X216600741Y-113902609D02*
X216505503Y-113854990D01*
X216505503Y-113854990D02*
X216457884Y-113807371D01*
X216457884Y-113807371D02*
X216410265Y-113712133D01*
X216410265Y-113712133D02*
X216410265Y-113616895D01*
X216410265Y-113616895D02*
X216457884Y-113521657D01*
X216457884Y-113521657D02*
X216505503Y-113474038D01*
X216505503Y-113474038D02*
X216600741Y-113426419D01*
X216600741Y-113426419D02*
X216838836Y-113426419D01*
X216838836Y-113426419D02*
X216981693Y-113474038D01*
X217410265Y-113759752D02*
X217410265Y-114759752D01*
X217410265Y-113807371D02*
X217505503Y-113759752D01*
X217505503Y-113759752D02*
X217695979Y-113759752D01*
X217695979Y-113759752D02*
X217791217Y-113807371D01*
X217791217Y-113807371D02*
X217838836Y-113854990D01*
X217838836Y-113854990D02*
X217886455Y-113950228D01*
X217886455Y-113950228D02*
X217886455Y-114235942D01*
X217886455Y-114235942D02*
X217838836Y-114331180D01*
X217838836Y-114331180D02*
X217791217Y-114378800D01*
X217791217Y-114378800D02*
X217695979Y-114426419D01*
X217695979Y-114426419D02*
X217505503Y-114426419D01*
X217505503Y-114426419D02*
X217410265Y-114378800D01*
X218457884Y-114426419D02*
X218362646Y-114378800D01*
X218362646Y-114378800D02*
X218315027Y-114283561D01*
X218315027Y-114283561D02*
X218315027Y-113426419D01*
X219267408Y-114426419D02*
X219267408Y-113902609D01*
X219267408Y-113902609D02*
X219219789Y-113807371D01*
X219219789Y-113807371D02*
X219124551Y-113759752D01*
X219124551Y-113759752D02*
X218934075Y-113759752D01*
X218934075Y-113759752D02*
X218838837Y-113807371D01*
X219267408Y-114378800D02*
X219172170Y-114426419D01*
X219172170Y-114426419D02*
X218934075Y-114426419D01*
X218934075Y-114426419D02*
X218838837Y-114378800D01*
X218838837Y-114378800D02*
X218791218Y-114283561D01*
X218791218Y-114283561D02*
X218791218Y-114188323D01*
X218791218Y-114188323D02*
X218838837Y-114093085D01*
X218838837Y-114093085D02*
X218934075Y-114045466D01*
X218934075Y-114045466D02*
X219172170Y-114045466D01*
X219172170Y-114045466D02*
X219267408Y-113997847D01*
X219648361Y-113759752D02*
X219886456Y-114426419D01*
X220124551Y-113759752D02*
X219886456Y-114426419D01*
X219886456Y-114426419D02*
X219791218Y-114664514D01*
X219791218Y-114664514D02*
X219743599Y-114712133D01*
X219743599Y-114712133D02*
X219648361Y-114759752D01*
X221267409Y-114426419D02*
X221267409Y-113426419D01*
X221267409Y-113426419D02*
X221600742Y-114140704D01*
X221600742Y-114140704D02*
X221934075Y-113426419D01*
X221934075Y-113426419D02*
X221934075Y-114426419D01*
X222553123Y-114426419D02*
X222457885Y-114378800D01*
X222457885Y-114378800D02*
X222410266Y-114331180D01*
X222410266Y-114331180D02*
X222362647Y-114235942D01*
X222362647Y-114235942D02*
X222362647Y-113950228D01*
X222362647Y-113950228D02*
X222410266Y-113854990D01*
X222410266Y-113854990D02*
X222457885Y-113807371D01*
X222457885Y-113807371D02*
X222553123Y-113759752D01*
X222553123Y-113759752D02*
X222695980Y-113759752D01*
X222695980Y-113759752D02*
X222791218Y-113807371D01*
X222791218Y-113807371D02*
X222838837Y-113854990D01*
X222838837Y-113854990D02*
X222886456Y-113950228D01*
X222886456Y-113950228D02*
X222886456Y-114235942D01*
X222886456Y-114235942D02*
X222838837Y-114331180D01*
X222838837Y-114331180D02*
X222791218Y-114378800D01*
X222791218Y-114378800D02*
X222695980Y-114426419D01*
X222695980Y-114426419D02*
X222553123Y-114426419D01*
X223172171Y-113759752D02*
X223553123Y-113759752D01*
X223315028Y-113426419D02*
X223315028Y-114283561D01*
X223315028Y-114283561D02*
X223362647Y-114378800D01*
X223362647Y-114378800D02*
X223457885Y-114426419D01*
X223457885Y-114426419D02*
X223553123Y-114426419D01*
X224029314Y-114426419D02*
X223934076Y-114378800D01*
X223934076Y-114378800D02*
X223886457Y-114331180D01*
X223886457Y-114331180D02*
X223838838Y-114235942D01*
X223838838Y-114235942D02*
X223838838Y-113950228D01*
X223838838Y-113950228D02*
X223886457Y-113854990D01*
X223886457Y-113854990D02*
X223934076Y-113807371D01*
X223934076Y-113807371D02*
X224029314Y-113759752D01*
X224029314Y-113759752D02*
X224172171Y-113759752D01*
X224172171Y-113759752D02*
X224267409Y-113807371D01*
X224267409Y-113807371D02*
X224315028Y-113854990D01*
X224315028Y-113854990D02*
X224362647Y-113950228D01*
X224362647Y-113950228D02*
X224362647Y-114235942D01*
X224362647Y-114235942D02*
X224315028Y-114331180D01*
X224315028Y-114331180D02*
X224267409Y-114378800D01*
X224267409Y-114378800D02*
X224172171Y-114426419D01*
X224172171Y-114426419D02*
X224029314Y-114426419D01*
X224791219Y-114426419D02*
X224791219Y-113759752D01*
X224791219Y-113950228D02*
X224838838Y-113854990D01*
X224838838Y-113854990D02*
X224886457Y-113807371D01*
X224886457Y-113807371D02*
X224981695Y-113759752D01*
X224981695Y-113759752D02*
X225076933Y-113759752D01*
X225362648Y-114378800D02*
X225457886Y-114426419D01*
X225457886Y-114426419D02*
X225648362Y-114426419D01*
X225648362Y-114426419D02*
X225743600Y-114378800D01*
X225743600Y-114378800D02*
X225791219Y-114283561D01*
X225791219Y-114283561D02*
X225791219Y-114235942D01*
X225791219Y-114235942D02*
X225743600Y-114140704D01*
X225743600Y-114140704D02*
X225648362Y-114093085D01*
X225648362Y-114093085D02*
X225505505Y-114093085D01*
X225505505Y-114093085D02*
X225410267Y-114045466D01*
X225410267Y-114045466D02*
X225362648Y-113950228D01*
X225362648Y-113950228D02*
X225362648Y-113902609D01*
X225362648Y-113902609D02*
X225410267Y-113807371D01*
X225410267Y-113807371D02*
X225505505Y-113759752D01*
X225505505Y-113759752D02*
X225648362Y-113759752D01*
X225648362Y-113759752D02*
X225743600Y-113807371D01*
X173992265Y-114632800D02*
X174135122Y-114680419D01*
X174135122Y-114680419D02*
X174373217Y-114680419D01*
X174373217Y-114680419D02*
X174468455Y-114632800D01*
X174468455Y-114632800D02*
X174516074Y-114585180D01*
X174516074Y-114585180D02*
X174563693Y-114489942D01*
X174563693Y-114489942D02*
X174563693Y-114394704D01*
X174563693Y-114394704D02*
X174516074Y-114299466D01*
X174516074Y-114299466D02*
X174468455Y-114251847D01*
X174468455Y-114251847D02*
X174373217Y-114204228D01*
X174373217Y-114204228D02*
X174182741Y-114156609D01*
X174182741Y-114156609D02*
X174087503Y-114108990D01*
X174087503Y-114108990D02*
X174039884Y-114061371D01*
X174039884Y-114061371D02*
X173992265Y-113966133D01*
X173992265Y-113966133D02*
X173992265Y-113870895D01*
X173992265Y-113870895D02*
X174039884Y-113775657D01*
X174039884Y-113775657D02*
X174087503Y-113728038D01*
X174087503Y-113728038D02*
X174182741Y-113680419D01*
X174182741Y-113680419D02*
X174420836Y-113680419D01*
X174420836Y-113680419D02*
X174563693Y-113728038D01*
X175373217Y-114632800D02*
X175277979Y-114680419D01*
X175277979Y-114680419D02*
X175087503Y-114680419D01*
X175087503Y-114680419D02*
X174992265Y-114632800D01*
X174992265Y-114632800D02*
X174944646Y-114537561D01*
X174944646Y-114537561D02*
X174944646Y-114156609D01*
X174944646Y-114156609D02*
X174992265Y-114061371D01*
X174992265Y-114061371D02*
X175087503Y-114013752D01*
X175087503Y-114013752D02*
X175277979Y-114013752D01*
X175277979Y-114013752D02*
X175373217Y-114061371D01*
X175373217Y-114061371D02*
X175420836Y-114156609D01*
X175420836Y-114156609D02*
X175420836Y-114251847D01*
X175420836Y-114251847D02*
X174944646Y-114347085D01*
X175849408Y-114680419D02*
X175849408Y-114013752D01*
X175849408Y-114204228D02*
X175897027Y-114108990D01*
X175897027Y-114108990D02*
X175944646Y-114061371D01*
X175944646Y-114061371D02*
X176039884Y-114013752D01*
X176039884Y-114013752D02*
X176135122Y-114013752D01*
X176373218Y-114013752D02*
X176611313Y-114680419D01*
X176611313Y-114680419D02*
X176849408Y-114013752D01*
X177373218Y-114680419D02*
X177277980Y-114632800D01*
X177277980Y-114632800D02*
X177230361Y-114585180D01*
X177230361Y-114585180D02*
X177182742Y-114489942D01*
X177182742Y-114489942D02*
X177182742Y-114204228D01*
X177182742Y-114204228D02*
X177230361Y-114108990D01*
X177230361Y-114108990D02*
X177277980Y-114061371D01*
X177277980Y-114061371D02*
X177373218Y-114013752D01*
X177373218Y-114013752D02*
X177516075Y-114013752D01*
X177516075Y-114013752D02*
X177611313Y-114061371D01*
X177611313Y-114061371D02*
X177658932Y-114108990D01*
X177658932Y-114108990D02*
X177706551Y-114204228D01*
X177706551Y-114204228D02*
X177706551Y-114489942D01*
X177706551Y-114489942D02*
X177658932Y-114585180D01*
X177658932Y-114585180D02*
X177611313Y-114632800D01*
X177611313Y-114632800D02*
X177516075Y-114680419D01*
X177516075Y-114680419D02*
X177373218Y-114680419D01*
X178897028Y-114680419D02*
X178897028Y-113680419D01*
X178897028Y-113680419D02*
X179230361Y-114394704D01*
X179230361Y-114394704D02*
X179563694Y-113680419D01*
X179563694Y-113680419D02*
X179563694Y-114680419D01*
X180182742Y-114680419D02*
X180087504Y-114632800D01*
X180087504Y-114632800D02*
X180039885Y-114585180D01*
X180039885Y-114585180D02*
X179992266Y-114489942D01*
X179992266Y-114489942D02*
X179992266Y-114204228D01*
X179992266Y-114204228D02*
X180039885Y-114108990D01*
X180039885Y-114108990D02*
X180087504Y-114061371D01*
X180087504Y-114061371D02*
X180182742Y-114013752D01*
X180182742Y-114013752D02*
X180325599Y-114013752D01*
X180325599Y-114013752D02*
X180420837Y-114061371D01*
X180420837Y-114061371D02*
X180468456Y-114108990D01*
X180468456Y-114108990D02*
X180516075Y-114204228D01*
X180516075Y-114204228D02*
X180516075Y-114489942D01*
X180516075Y-114489942D02*
X180468456Y-114585180D01*
X180468456Y-114585180D02*
X180420837Y-114632800D01*
X180420837Y-114632800D02*
X180325599Y-114680419D01*
X180325599Y-114680419D02*
X180182742Y-114680419D01*
X180801790Y-114013752D02*
X181182742Y-114013752D01*
X180944647Y-113680419D02*
X180944647Y-114537561D01*
X180944647Y-114537561D02*
X180992266Y-114632800D01*
X180992266Y-114632800D02*
X181087504Y-114680419D01*
X181087504Y-114680419D02*
X181182742Y-114680419D01*
X181658933Y-114680419D02*
X181563695Y-114632800D01*
X181563695Y-114632800D02*
X181516076Y-114585180D01*
X181516076Y-114585180D02*
X181468457Y-114489942D01*
X181468457Y-114489942D02*
X181468457Y-114204228D01*
X181468457Y-114204228D02*
X181516076Y-114108990D01*
X181516076Y-114108990D02*
X181563695Y-114061371D01*
X181563695Y-114061371D02*
X181658933Y-114013752D01*
X181658933Y-114013752D02*
X181801790Y-114013752D01*
X181801790Y-114013752D02*
X181897028Y-114061371D01*
X181897028Y-114061371D02*
X181944647Y-114108990D01*
X181944647Y-114108990D02*
X181992266Y-114204228D01*
X181992266Y-114204228D02*
X181992266Y-114489942D01*
X181992266Y-114489942D02*
X181944647Y-114585180D01*
X181944647Y-114585180D02*
X181897028Y-114632800D01*
X181897028Y-114632800D02*
X181801790Y-114680419D01*
X181801790Y-114680419D02*
X181658933Y-114680419D01*
X182420838Y-114680419D02*
X182420838Y-114013752D01*
X182420838Y-114204228D02*
X182468457Y-114108990D01*
X182468457Y-114108990D02*
X182516076Y-114061371D01*
X182516076Y-114061371D02*
X182611314Y-114013752D01*
X182611314Y-114013752D02*
X182706552Y-114013752D01*
X182992267Y-114632800D02*
X183087505Y-114680419D01*
X183087505Y-114680419D02*
X183277981Y-114680419D01*
X183277981Y-114680419D02*
X183373219Y-114632800D01*
X183373219Y-114632800D02*
X183420838Y-114537561D01*
X183420838Y-114537561D02*
X183420838Y-114489942D01*
X183420838Y-114489942D02*
X183373219Y-114394704D01*
X183373219Y-114394704D02*
X183277981Y-114347085D01*
X183277981Y-114347085D02*
X183135124Y-114347085D01*
X183135124Y-114347085D02*
X183039886Y-114299466D01*
X183039886Y-114299466D02*
X182992267Y-114204228D01*
X182992267Y-114204228D02*
X182992267Y-114156609D01*
X182992267Y-114156609D02*
X183039886Y-114061371D01*
X183039886Y-114061371D02*
X183135124Y-114013752D01*
X183135124Y-114013752D02*
X183277981Y-114013752D01*
X183277981Y-114013752D02*
X183373219Y-114061371D01*
X141480265Y-97106800D02*
X141623122Y-97154419D01*
X141623122Y-97154419D02*
X141861217Y-97154419D01*
X141861217Y-97154419D02*
X141956455Y-97106800D01*
X141956455Y-97106800D02*
X142004074Y-97059180D01*
X142004074Y-97059180D02*
X142051693Y-96963942D01*
X142051693Y-96963942D02*
X142051693Y-96868704D01*
X142051693Y-96868704D02*
X142004074Y-96773466D01*
X142004074Y-96773466D02*
X141956455Y-96725847D01*
X141956455Y-96725847D02*
X141861217Y-96678228D01*
X141861217Y-96678228D02*
X141670741Y-96630609D01*
X141670741Y-96630609D02*
X141575503Y-96582990D01*
X141575503Y-96582990D02*
X141527884Y-96535371D01*
X141527884Y-96535371D02*
X141480265Y-96440133D01*
X141480265Y-96440133D02*
X141480265Y-96344895D01*
X141480265Y-96344895D02*
X141527884Y-96249657D01*
X141527884Y-96249657D02*
X141575503Y-96202038D01*
X141575503Y-96202038D02*
X141670741Y-96154419D01*
X141670741Y-96154419D02*
X141908836Y-96154419D01*
X141908836Y-96154419D02*
X142051693Y-96202038D01*
X142337408Y-96487752D02*
X142718360Y-96487752D01*
X142480265Y-96154419D02*
X142480265Y-97011561D01*
X142480265Y-97011561D02*
X142527884Y-97106800D01*
X142527884Y-97106800D02*
X142623122Y-97154419D01*
X142623122Y-97154419D02*
X142718360Y-97154419D01*
X143432646Y-97106800D02*
X143337408Y-97154419D01*
X143337408Y-97154419D02*
X143146932Y-97154419D01*
X143146932Y-97154419D02*
X143051694Y-97106800D01*
X143051694Y-97106800D02*
X143004075Y-97011561D01*
X143004075Y-97011561D02*
X143004075Y-96630609D01*
X143004075Y-96630609D02*
X143051694Y-96535371D01*
X143051694Y-96535371D02*
X143146932Y-96487752D01*
X143146932Y-96487752D02*
X143337408Y-96487752D01*
X143337408Y-96487752D02*
X143432646Y-96535371D01*
X143432646Y-96535371D02*
X143480265Y-96630609D01*
X143480265Y-96630609D02*
X143480265Y-96725847D01*
X143480265Y-96725847D02*
X143004075Y-96821085D01*
X143908837Y-96487752D02*
X143908837Y-97487752D01*
X143908837Y-96535371D02*
X144004075Y-96487752D01*
X144004075Y-96487752D02*
X144194551Y-96487752D01*
X144194551Y-96487752D02*
X144289789Y-96535371D01*
X144289789Y-96535371D02*
X144337408Y-96582990D01*
X144337408Y-96582990D02*
X144385027Y-96678228D01*
X144385027Y-96678228D02*
X144385027Y-96963942D01*
X144385027Y-96963942D02*
X144337408Y-97059180D01*
X144337408Y-97059180D02*
X144289789Y-97106800D01*
X144289789Y-97106800D02*
X144194551Y-97154419D01*
X144194551Y-97154419D02*
X144004075Y-97154419D01*
X144004075Y-97154419D02*
X143908837Y-97106800D01*
X144813599Y-96487752D02*
X144813599Y-97487752D01*
X144813599Y-96535371D02*
X144908837Y-96487752D01*
X144908837Y-96487752D02*
X145099313Y-96487752D01*
X145099313Y-96487752D02*
X145194551Y-96535371D01*
X145194551Y-96535371D02*
X145242170Y-96582990D01*
X145242170Y-96582990D02*
X145289789Y-96678228D01*
X145289789Y-96678228D02*
X145289789Y-96963942D01*
X145289789Y-96963942D02*
X145242170Y-97059180D01*
X145242170Y-97059180D02*
X145194551Y-97106800D01*
X145194551Y-97106800D02*
X145099313Y-97154419D01*
X145099313Y-97154419D02*
X144908837Y-97154419D01*
X144908837Y-97154419D02*
X144813599Y-97106800D01*
X146099313Y-97106800D02*
X146004075Y-97154419D01*
X146004075Y-97154419D02*
X145813599Y-97154419D01*
X145813599Y-97154419D02*
X145718361Y-97106800D01*
X145718361Y-97106800D02*
X145670742Y-97011561D01*
X145670742Y-97011561D02*
X145670742Y-96630609D01*
X145670742Y-96630609D02*
X145718361Y-96535371D01*
X145718361Y-96535371D02*
X145813599Y-96487752D01*
X145813599Y-96487752D02*
X146004075Y-96487752D01*
X146004075Y-96487752D02*
X146099313Y-96535371D01*
X146099313Y-96535371D02*
X146146932Y-96630609D01*
X146146932Y-96630609D02*
X146146932Y-96725847D01*
X146146932Y-96725847D02*
X145670742Y-96821085D01*
X146575504Y-97154419D02*
X146575504Y-96487752D01*
X146575504Y-96678228D02*
X146623123Y-96582990D01*
X146623123Y-96582990D02*
X146670742Y-96535371D01*
X146670742Y-96535371D02*
X146765980Y-96487752D01*
X146765980Y-96487752D02*
X146861218Y-96487752D01*
X147956457Y-97154419D02*
X147956457Y-96154419D01*
X147956457Y-96154419D02*
X148337409Y-96154419D01*
X148337409Y-96154419D02*
X148432647Y-96202038D01*
X148432647Y-96202038D02*
X148480266Y-96249657D01*
X148480266Y-96249657D02*
X148527885Y-96344895D01*
X148527885Y-96344895D02*
X148527885Y-96487752D01*
X148527885Y-96487752D02*
X148480266Y-96582990D01*
X148480266Y-96582990D02*
X148432647Y-96630609D01*
X148432647Y-96630609D02*
X148337409Y-96678228D01*
X148337409Y-96678228D02*
X147956457Y-96678228D01*
X149099314Y-97154419D02*
X149004076Y-97106800D01*
X149004076Y-97106800D02*
X148956457Y-97059180D01*
X148956457Y-97059180D02*
X148908838Y-96963942D01*
X148908838Y-96963942D02*
X148908838Y-96678228D01*
X148908838Y-96678228D02*
X148956457Y-96582990D01*
X148956457Y-96582990D02*
X149004076Y-96535371D01*
X149004076Y-96535371D02*
X149099314Y-96487752D01*
X149099314Y-96487752D02*
X149242171Y-96487752D01*
X149242171Y-96487752D02*
X149337409Y-96535371D01*
X149337409Y-96535371D02*
X149385028Y-96582990D01*
X149385028Y-96582990D02*
X149432647Y-96678228D01*
X149432647Y-96678228D02*
X149432647Y-96963942D01*
X149432647Y-96963942D02*
X149385028Y-97059180D01*
X149385028Y-97059180D02*
X149337409Y-97106800D01*
X149337409Y-97106800D02*
X149242171Y-97154419D01*
X149242171Y-97154419D02*
X149099314Y-97154419D01*
X149765981Y-96487752D02*
X149956457Y-97154419D01*
X149956457Y-97154419D02*
X150146933Y-96678228D01*
X150146933Y-96678228D02*
X150337409Y-97154419D01*
X150337409Y-97154419D02*
X150527885Y-96487752D01*
X151289790Y-97106800D02*
X151194552Y-97154419D01*
X151194552Y-97154419D02*
X151004076Y-97154419D01*
X151004076Y-97154419D02*
X150908838Y-97106800D01*
X150908838Y-97106800D02*
X150861219Y-97011561D01*
X150861219Y-97011561D02*
X150861219Y-96630609D01*
X150861219Y-96630609D02*
X150908838Y-96535371D01*
X150908838Y-96535371D02*
X151004076Y-96487752D01*
X151004076Y-96487752D02*
X151194552Y-96487752D01*
X151194552Y-96487752D02*
X151289790Y-96535371D01*
X151289790Y-96535371D02*
X151337409Y-96630609D01*
X151337409Y-96630609D02*
X151337409Y-96725847D01*
X151337409Y-96725847D02*
X150861219Y-96821085D01*
X151765981Y-97154419D02*
X151765981Y-96487752D01*
X151765981Y-96678228D02*
X151813600Y-96582990D01*
X151813600Y-96582990D02*
X151861219Y-96535371D01*
X151861219Y-96535371D02*
X151956457Y-96487752D01*
X151956457Y-96487752D02*
X152051695Y-96487752D01*
X153099315Y-97106800D02*
X153242172Y-97154419D01*
X153242172Y-97154419D02*
X153480267Y-97154419D01*
X153480267Y-97154419D02*
X153575505Y-97106800D01*
X153575505Y-97106800D02*
X153623124Y-97059180D01*
X153623124Y-97059180D02*
X153670743Y-96963942D01*
X153670743Y-96963942D02*
X153670743Y-96868704D01*
X153670743Y-96868704D02*
X153623124Y-96773466D01*
X153623124Y-96773466D02*
X153575505Y-96725847D01*
X153575505Y-96725847D02*
X153480267Y-96678228D01*
X153480267Y-96678228D02*
X153289791Y-96630609D01*
X153289791Y-96630609D02*
X153194553Y-96582990D01*
X153194553Y-96582990D02*
X153146934Y-96535371D01*
X153146934Y-96535371D02*
X153099315Y-96440133D01*
X153099315Y-96440133D02*
X153099315Y-96344895D01*
X153099315Y-96344895D02*
X153146934Y-96249657D01*
X153146934Y-96249657D02*
X153194553Y-96202038D01*
X153194553Y-96202038D02*
X153289791Y-96154419D01*
X153289791Y-96154419D02*
X153527886Y-96154419D01*
X153527886Y-96154419D02*
X153670743Y-96202038D01*
X154004077Y-96487752D02*
X154194553Y-97154419D01*
X154194553Y-97154419D02*
X154385029Y-96678228D01*
X154385029Y-96678228D02*
X154575505Y-97154419D01*
X154575505Y-97154419D02*
X154765981Y-96487752D01*
X155146934Y-97154419D02*
X155146934Y-96487752D01*
X155146934Y-96154419D02*
X155099315Y-96202038D01*
X155099315Y-96202038D02*
X155146934Y-96249657D01*
X155146934Y-96249657D02*
X155194553Y-96202038D01*
X155194553Y-96202038D02*
X155146934Y-96154419D01*
X155146934Y-96154419D02*
X155146934Y-96249657D01*
X155480267Y-96487752D02*
X155861219Y-96487752D01*
X155623124Y-96154419D02*
X155623124Y-97011561D01*
X155623124Y-97011561D02*
X155670743Y-97106800D01*
X155670743Y-97106800D02*
X155765981Y-97154419D01*
X155765981Y-97154419D02*
X155861219Y-97154419D01*
X156623124Y-97106800D02*
X156527886Y-97154419D01*
X156527886Y-97154419D02*
X156337410Y-97154419D01*
X156337410Y-97154419D02*
X156242172Y-97106800D01*
X156242172Y-97106800D02*
X156194553Y-97059180D01*
X156194553Y-97059180D02*
X156146934Y-96963942D01*
X156146934Y-96963942D02*
X156146934Y-96678228D01*
X156146934Y-96678228D02*
X156194553Y-96582990D01*
X156194553Y-96582990D02*
X156242172Y-96535371D01*
X156242172Y-96535371D02*
X156337410Y-96487752D01*
X156337410Y-96487752D02*
X156527886Y-96487752D01*
X156527886Y-96487752D02*
X156623124Y-96535371D01*
X157051696Y-97154419D02*
X157051696Y-96154419D01*
X157480267Y-97154419D02*
X157480267Y-96630609D01*
X157480267Y-96630609D02*
X157432648Y-96535371D01*
X157432648Y-96535371D02*
X157337410Y-96487752D01*
X157337410Y-96487752D02*
X157194553Y-96487752D01*
X157194553Y-96487752D02*
X157099315Y-96535371D01*
X157099315Y-96535371D02*
X157051696Y-96582990D01*
X138498800Y-119631734D02*
X138546419Y-119488877D01*
X138546419Y-119488877D02*
X138546419Y-119250782D01*
X138546419Y-119250782D02*
X138498800Y-119155544D01*
X138498800Y-119155544D02*
X138451180Y-119107925D01*
X138451180Y-119107925D02*
X138355942Y-119060306D01*
X138355942Y-119060306D02*
X138260704Y-119060306D01*
X138260704Y-119060306D02*
X138165466Y-119107925D01*
X138165466Y-119107925D02*
X138117847Y-119155544D01*
X138117847Y-119155544D02*
X138070228Y-119250782D01*
X138070228Y-119250782D02*
X138022609Y-119441258D01*
X138022609Y-119441258D02*
X137974990Y-119536496D01*
X137974990Y-119536496D02*
X137927371Y-119584115D01*
X137927371Y-119584115D02*
X137832133Y-119631734D01*
X137832133Y-119631734D02*
X137736895Y-119631734D01*
X137736895Y-119631734D02*
X137641657Y-119584115D01*
X137641657Y-119584115D02*
X137594038Y-119536496D01*
X137594038Y-119536496D02*
X137546419Y-119441258D01*
X137546419Y-119441258D02*
X137546419Y-119203163D01*
X137546419Y-119203163D02*
X137594038Y-119060306D01*
X137879752Y-118774591D02*
X137879752Y-118393639D01*
X137546419Y-118631734D02*
X138403561Y-118631734D01*
X138403561Y-118631734D02*
X138498800Y-118584115D01*
X138498800Y-118584115D02*
X138546419Y-118488877D01*
X138546419Y-118488877D02*
X138546419Y-118393639D01*
X138498800Y-117679353D02*
X138546419Y-117774591D01*
X138546419Y-117774591D02*
X138546419Y-117965067D01*
X138546419Y-117965067D02*
X138498800Y-118060305D01*
X138498800Y-118060305D02*
X138403561Y-118107924D01*
X138403561Y-118107924D02*
X138022609Y-118107924D01*
X138022609Y-118107924D02*
X137927371Y-118060305D01*
X137927371Y-118060305D02*
X137879752Y-117965067D01*
X137879752Y-117965067D02*
X137879752Y-117774591D01*
X137879752Y-117774591D02*
X137927371Y-117679353D01*
X137927371Y-117679353D02*
X138022609Y-117631734D01*
X138022609Y-117631734D02*
X138117847Y-117631734D01*
X138117847Y-117631734D02*
X138213085Y-118107924D01*
X137879752Y-117203162D02*
X138879752Y-117203162D01*
X137927371Y-117203162D02*
X137879752Y-117107924D01*
X137879752Y-117107924D02*
X137879752Y-116917448D01*
X137879752Y-116917448D02*
X137927371Y-116822210D01*
X137927371Y-116822210D02*
X137974990Y-116774591D01*
X137974990Y-116774591D02*
X138070228Y-116726972D01*
X138070228Y-116726972D02*
X138355942Y-116726972D01*
X138355942Y-116726972D02*
X138451180Y-116774591D01*
X138451180Y-116774591D02*
X138498800Y-116822210D01*
X138498800Y-116822210D02*
X138546419Y-116917448D01*
X138546419Y-116917448D02*
X138546419Y-117107924D01*
X138546419Y-117107924D02*
X138498800Y-117203162D01*
X137879752Y-116298400D02*
X138879752Y-116298400D01*
X137927371Y-116298400D02*
X137879752Y-116203162D01*
X137879752Y-116203162D02*
X137879752Y-116012686D01*
X137879752Y-116012686D02*
X137927371Y-115917448D01*
X137927371Y-115917448D02*
X137974990Y-115869829D01*
X137974990Y-115869829D02*
X138070228Y-115822210D01*
X138070228Y-115822210D02*
X138355942Y-115822210D01*
X138355942Y-115822210D02*
X138451180Y-115869829D01*
X138451180Y-115869829D02*
X138498800Y-115917448D01*
X138498800Y-115917448D02*
X138546419Y-116012686D01*
X138546419Y-116012686D02*
X138546419Y-116203162D01*
X138546419Y-116203162D02*
X138498800Y-116298400D01*
X138498800Y-115012686D02*
X138546419Y-115107924D01*
X138546419Y-115107924D02*
X138546419Y-115298400D01*
X138546419Y-115298400D02*
X138498800Y-115393638D01*
X138498800Y-115393638D02*
X138403561Y-115441257D01*
X138403561Y-115441257D02*
X138022609Y-115441257D01*
X138022609Y-115441257D02*
X137927371Y-115393638D01*
X137927371Y-115393638D02*
X137879752Y-115298400D01*
X137879752Y-115298400D02*
X137879752Y-115107924D01*
X137879752Y-115107924D02*
X137927371Y-115012686D01*
X137927371Y-115012686D02*
X138022609Y-114965067D01*
X138022609Y-114965067D02*
X138117847Y-114965067D01*
X138117847Y-114965067D02*
X138213085Y-115441257D01*
X138546419Y-114536495D02*
X137879752Y-114536495D01*
X138070228Y-114536495D02*
X137974990Y-114488876D01*
X137974990Y-114488876D02*
X137927371Y-114441257D01*
X137927371Y-114441257D02*
X137879752Y-114346019D01*
X137879752Y-114346019D02*
X137879752Y-114250781D01*
X138546419Y-113155542D02*
X137546419Y-113155542D01*
X137546419Y-113155542D02*
X138260704Y-112822209D01*
X138260704Y-112822209D02*
X137546419Y-112488876D01*
X137546419Y-112488876D02*
X138546419Y-112488876D01*
X138546419Y-111869828D02*
X138498800Y-111965066D01*
X138498800Y-111965066D02*
X138451180Y-112012685D01*
X138451180Y-112012685D02*
X138355942Y-112060304D01*
X138355942Y-112060304D02*
X138070228Y-112060304D01*
X138070228Y-112060304D02*
X137974990Y-112012685D01*
X137974990Y-112012685D02*
X137927371Y-111965066D01*
X137927371Y-111965066D02*
X137879752Y-111869828D01*
X137879752Y-111869828D02*
X137879752Y-111726971D01*
X137879752Y-111726971D02*
X137927371Y-111631733D01*
X137927371Y-111631733D02*
X137974990Y-111584114D01*
X137974990Y-111584114D02*
X138070228Y-111536495D01*
X138070228Y-111536495D02*
X138355942Y-111536495D01*
X138355942Y-111536495D02*
X138451180Y-111584114D01*
X138451180Y-111584114D02*
X138498800Y-111631733D01*
X138498800Y-111631733D02*
X138546419Y-111726971D01*
X138546419Y-111726971D02*
X138546419Y-111869828D01*
X137879752Y-111250780D02*
X137879752Y-110869828D01*
X137546419Y-111107923D02*
X138403561Y-111107923D01*
X138403561Y-111107923D02*
X138498800Y-111060304D01*
X138498800Y-111060304D02*
X138546419Y-110965066D01*
X138546419Y-110965066D02*
X138546419Y-110869828D01*
X138546419Y-110393637D02*
X138498800Y-110488875D01*
X138498800Y-110488875D02*
X138451180Y-110536494D01*
X138451180Y-110536494D02*
X138355942Y-110584113D01*
X138355942Y-110584113D02*
X138070228Y-110584113D01*
X138070228Y-110584113D02*
X137974990Y-110536494D01*
X137974990Y-110536494D02*
X137927371Y-110488875D01*
X137927371Y-110488875D02*
X137879752Y-110393637D01*
X137879752Y-110393637D02*
X137879752Y-110250780D01*
X137879752Y-110250780D02*
X137927371Y-110155542D01*
X137927371Y-110155542D02*
X137974990Y-110107923D01*
X137974990Y-110107923D02*
X138070228Y-110060304D01*
X138070228Y-110060304D02*
X138355942Y-110060304D01*
X138355942Y-110060304D02*
X138451180Y-110107923D01*
X138451180Y-110107923D02*
X138498800Y-110155542D01*
X138498800Y-110155542D02*
X138546419Y-110250780D01*
X138546419Y-110250780D02*
X138546419Y-110393637D01*
X138546419Y-109631732D02*
X137879752Y-109631732D01*
X138070228Y-109631732D02*
X137974990Y-109584113D01*
X137974990Y-109584113D02*
X137927371Y-109536494D01*
X137927371Y-109536494D02*
X137879752Y-109441256D01*
X137879752Y-109441256D02*
X137879752Y-109346018D01*
X238203800Y-57782734D02*
X238251419Y-57639877D01*
X238251419Y-57639877D02*
X238251419Y-57401782D01*
X238251419Y-57401782D02*
X238203800Y-57306544D01*
X238203800Y-57306544D02*
X238156180Y-57258925D01*
X238156180Y-57258925D02*
X238060942Y-57211306D01*
X238060942Y-57211306D02*
X237965704Y-57211306D01*
X237965704Y-57211306D02*
X237870466Y-57258925D01*
X237870466Y-57258925D02*
X237822847Y-57306544D01*
X237822847Y-57306544D02*
X237775228Y-57401782D01*
X237775228Y-57401782D02*
X237727609Y-57592258D01*
X237727609Y-57592258D02*
X237679990Y-57687496D01*
X237679990Y-57687496D02*
X237632371Y-57735115D01*
X237632371Y-57735115D02*
X237537133Y-57782734D01*
X237537133Y-57782734D02*
X237441895Y-57782734D01*
X237441895Y-57782734D02*
X237346657Y-57735115D01*
X237346657Y-57735115D02*
X237299038Y-57687496D01*
X237299038Y-57687496D02*
X237251419Y-57592258D01*
X237251419Y-57592258D02*
X237251419Y-57354163D01*
X237251419Y-57354163D02*
X237299038Y-57211306D01*
X237584752Y-56782734D02*
X238584752Y-56782734D01*
X237632371Y-56782734D02*
X237584752Y-56687496D01*
X237584752Y-56687496D02*
X237584752Y-56497020D01*
X237584752Y-56497020D02*
X237632371Y-56401782D01*
X237632371Y-56401782D02*
X237679990Y-56354163D01*
X237679990Y-56354163D02*
X237775228Y-56306544D01*
X237775228Y-56306544D02*
X238060942Y-56306544D01*
X238060942Y-56306544D02*
X238156180Y-56354163D01*
X238156180Y-56354163D02*
X238203800Y-56401782D01*
X238203800Y-56401782D02*
X238251419Y-56497020D01*
X238251419Y-56497020D02*
X238251419Y-56687496D01*
X238251419Y-56687496D02*
X238203800Y-56782734D01*
X238251419Y-55877972D02*
X237584752Y-55877972D01*
X237775228Y-55877972D02*
X237679990Y-55830353D01*
X237679990Y-55830353D02*
X237632371Y-55782734D01*
X237632371Y-55782734D02*
X237584752Y-55687496D01*
X237584752Y-55687496D02*
X237584752Y-55592258D01*
X238251419Y-55258924D02*
X237584752Y-55258924D01*
X237251419Y-55258924D02*
X237299038Y-55306543D01*
X237299038Y-55306543D02*
X237346657Y-55258924D01*
X237346657Y-55258924D02*
X237299038Y-55211305D01*
X237299038Y-55211305D02*
X237251419Y-55258924D01*
X237251419Y-55258924D02*
X237346657Y-55258924D01*
X237584752Y-54782734D02*
X238251419Y-54782734D01*
X237679990Y-54782734D02*
X237632371Y-54735115D01*
X237632371Y-54735115D02*
X237584752Y-54639877D01*
X237584752Y-54639877D02*
X237584752Y-54497020D01*
X237584752Y-54497020D02*
X237632371Y-54401782D01*
X237632371Y-54401782D02*
X237727609Y-54354163D01*
X237727609Y-54354163D02*
X238251419Y-54354163D01*
X237584752Y-53449401D02*
X238394276Y-53449401D01*
X238394276Y-53449401D02*
X238489514Y-53497020D01*
X238489514Y-53497020D02*
X238537133Y-53544639D01*
X238537133Y-53544639D02*
X238584752Y-53639877D01*
X238584752Y-53639877D02*
X238584752Y-53782734D01*
X238584752Y-53782734D02*
X238537133Y-53877972D01*
X238203800Y-53449401D02*
X238251419Y-53544639D01*
X238251419Y-53544639D02*
X238251419Y-53735115D01*
X238251419Y-53735115D02*
X238203800Y-53830353D01*
X238203800Y-53830353D02*
X238156180Y-53877972D01*
X238156180Y-53877972D02*
X238060942Y-53925591D01*
X238060942Y-53925591D02*
X237775228Y-53925591D01*
X237775228Y-53925591D02*
X237679990Y-53877972D01*
X237679990Y-53877972D02*
X237632371Y-53830353D01*
X237632371Y-53830353D02*
X237584752Y-53735115D01*
X237584752Y-53735115D02*
X237584752Y-53544639D01*
X237584752Y-53544639D02*
X237632371Y-53449401D01*
X237346657Y-52258924D02*
X237299038Y-52211305D01*
X237299038Y-52211305D02*
X237251419Y-52116067D01*
X237251419Y-52116067D02*
X237251419Y-51877972D01*
X237251419Y-51877972D02*
X237299038Y-51782734D01*
X237299038Y-51782734D02*
X237346657Y-51735115D01*
X237346657Y-51735115D02*
X237441895Y-51687496D01*
X237441895Y-51687496D02*
X237537133Y-51687496D01*
X237537133Y-51687496D02*
X237679990Y-51735115D01*
X237679990Y-51735115D02*
X238251419Y-52306543D01*
X238251419Y-52306543D02*
X238251419Y-51687496D01*
X237251419Y-51068448D02*
X237251419Y-50973210D01*
X237251419Y-50973210D02*
X237299038Y-50877972D01*
X237299038Y-50877972D02*
X237346657Y-50830353D01*
X237346657Y-50830353D02*
X237441895Y-50782734D01*
X237441895Y-50782734D02*
X237632371Y-50735115D01*
X237632371Y-50735115D02*
X237870466Y-50735115D01*
X237870466Y-50735115D02*
X238060942Y-50782734D01*
X238060942Y-50782734D02*
X238156180Y-50830353D01*
X238156180Y-50830353D02*
X238203800Y-50877972D01*
X238203800Y-50877972D02*
X238251419Y-50973210D01*
X238251419Y-50973210D02*
X238251419Y-51068448D01*
X238251419Y-51068448D02*
X238203800Y-51163686D01*
X238203800Y-51163686D02*
X238156180Y-51211305D01*
X238156180Y-51211305D02*
X238060942Y-51258924D01*
X238060942Y-51258924D02*
X237870466Y-51306543D01*
X237870466Y-51306543D02*
X237632371Y-51306543D01*
X237632371Y-51306543D02*
X237441895Y-51258924D01*
X237441895Y-51258924D02*
X237346657Y-51211305D01*
X237346657Y-51211305D02*
X237299038Y-51163686D01*
X237299038Y-51163686D02*
X237251419Y-51068448D01*
X237346657Y-50354162D02*
X237299038Y-50306543D01*
X237299038Y-50306543D02*
X237251419Y-50211305D01*
X237251419Y-50211305D02*
X237251419Y-49973210D01*
X237251419Y-49973210D02*
X237299038Y-49877972D01*
X237299038Y-49877972D02*
X237346657Y-49830353D01*
X237346657Y-49830353D02*
X237441895Y-49782734D01*
X237441895Y-49782734D02*
X237537133Y-49782734D01*
X237537133Y-49782734D02*
X237679990Y-49830353D01*
X237679990Y-49830353D02*
X238251419Y-50401781D01*
X238251419Y-50401781D02*
X238251419Y-49782734D01*
X237251419Y-48925591D02*
X237251419Y-49116067D01*
X237251419Y-49116067D02*
X237299038Y-49211305D01*
X237299038Y-49211305D02*
X237346657Y-49258924D01*
X237346657Y-49258924D02*
X237489514Y-49354162D01*
X237489514Y-49354162D02*
X237679990Y-49401781D01*
X237679990Y-49401781D02*
X238060942Y-49401781D01*
X238060942Y-49401781D02*
X238156180Y-49354162D01*
X238156180Y-49354162D02*
X238203800Y-49306543D01*
X238203800Y-49306543D02*
X238251419Y-49211305D01*
X238251419Y-49211305D02*
X238251419Y-49020829D01*
X238251419Y-49020829D02*
X238203800Y-48925591D01*
X238203800Y-48925591D02*
X238156180Y-48877972D01*
X238156180Y-48877972D02*
X238060942Y-48830353D01*
X238060942Y-48830353D02*
X237822847Y-48830353D01*
X237822847Y-48830353D02*
X237727609Y-48877972D01*
X237727609Y-48877972D02*
X237679990Y-48925591D01*
X237679990Y-48925591D02*
X237632371Y-49020829D01*
X237632371Y-49020829D02*
X237632371Y-49211305D01*
X237632371Y-49211305D02*
X237679990Y-49306543D01*
X237679990Y-49306543D02*
X237727609Y-49354162D01*
X237727609Y-49354162D02*
X237822847Y-49401781D01*
X237584752Y-47735114D02*
X238251419Y-47497019D01*
X238251419Y-47497019D02*
X237584752Y-47258924D01*
X238156180Y-46877971D02*
X238203800Y-46830352D01*
X238203800Y-46830352D02*
X238251419Y-46877971D01*
X238251419Y-46877971D02*
X238203800Y-46925590D01*
X238203800Y-46925590D02*
X238156180Y-46877971D01*
X238156180Y-46877971D02*
X238251419Y-46877971D01*
X238251419Y-45116067D02*
X238251419Y-45687495D01*
X238251419Y-45401781D02*
X237251419Y-45401781D01*
X237251419Y-45401781D02*
X237394276Y-45497019D01*
X237394276Y-45497019D02*
X237489514Y-45592257D01*
X237489514Y-45592257D02*
X237537133Y-45687495D01*
X194502693Y-61086419D02*
X193931265Y-61086419D01*
X194216979Y-61086419D02*
X194216979Y-60086419D01*
X194216979Y-60086419D02*
X194121741Y-60229276D01*
X194121741Y-60229276D02*
X194026503Y-60324514D01*
X194026503Y-60324514D02*
X193931265Y-60372133D01*
X194883646Y-60181657D02*
X194931265Y-60134038D01*
X194931265Y-60134038D02*
X195026503Y-60086419D01*
X195026503Y-60086419D02*
X195264598Y-60086419D01*
X195264598Y-60086419D02*
X195359836Y-60134038D01*
X195359836Y-60134038D02*
X195407455Y-60181657D01*
X195407455Y-60181657D02*
X195455074Y-60276895D01*
X195455074Y-60276895D02*
X195455074Y-60372133D01*
X195455074Y-60372133D02*
X195407455Y-60514990D01*
X195407455Y-60514990D02*
X194836027Y-61086419D01*
X194836027Y-61086419D02*
X195455074Y-61086419D01*
X195740789Y-60086419D02*
X196074122Y-61086419D01*
X196074122Y-61086419D02*
X196407455Y-60086419D01*
X197359837Y-60419752D02*
X197740789Y-60419752D01*
X197502694Y-60086419D02*
X197502694Y-60943561D01*
X197502694Y-60943561D02*
X197550313Y-61038800D01*
X197550313Y-61038800D02*
X197645551Y-61086419D01*
X197645551Y-61086419D02*
X197740789Y-61086419D01*
X198216980Y-61086419D02*
X198121742Y-61038800D01*
X198121742Y-61038800D02*
X198074123Y-60991180D01*
X198074123Y-60991180D02*
X198026504Y-60895942D01*
X198026504Y-60895942D02*
X198026504Y-60610228D01*
X198026504Y-60610228D02*
X198074123Y-60514990D01*
X198074123Y-60514990D02*
X198121742Y-60467371D01*
X198121742Y-60467371D02*
X198216980Y-60419752D01*
X198216980Y-60419752D02*
X198359837Y-60419752D01*
X198359837Y-60419752D02*
X198455075Y-60467371D01*
X198455075Y-60467371D02*
X198502694Y-60514990D01*
X198502694Y-60514990D02*
X198550313Y-60610228D01*
X198550313Y-60610228D02*
X198550313Y-60895942D01*
X198550313Y-60895942D02*
X198502694Y-60991180D01*
X198502694Y-60991180D02*
X198455075Y-61038800D01*
X198455075Y-61038800D02*
X198359837Y-61086419D01*
X198359837Y-61086419D02*
X198216980Y-61086419D01*
X199645552Y-60086419D02*
X200312218Y-60086419D01*
X200312218Y-60086419D02*
X199883647Y-61086419D01*
X200693171Y-60991180D02*
X200740790Y-61038800D01*
X200740790Y-61038800D02*
X200693171Y-61086419D01*
X200693171Y-61086419D02*
X200645552Y-61038800D01*
X200645552Y-61038800D02*
X200693171Y-60991180D01*
X200693171Y-60991180D02*
X200693171Y-61086419D01*
X201121742Y-60181657D02*
X201169361Y-60134038D01*
X201169361Y-60134038D02*
X201264599Y-60086419D01*
X201264599Y-60086419D02*
X201502694Y-60086419D01*
X201502694Y-60086419D02*
X201597932Y-60134038D01*
X201597932Y-60134038D02*
X201645551Y-60181657D01*
X201645551Y-60181657D02*
X201693170Y-60276895D01*
X201693170Y-60276895D02*
X201693170Y-60372133D01*
X201693170Y-60372133D02*
X201645551Y-60514990D01*
X201645551Y-60514990D02*
X201074123Y-61086419D01*
X201074123Y-61086419D02*
X201693170Y-61086419D01*
X201978885Y-60086419D02*
X202312218Y-61086419D01*
X202312218Y-61086419D02*
X202645551Y-60086419D01*
X143004265Y-64594800D02*
X143147122Y-64642419D01*
X143147122Y-64642419D02*
X143385217Y-64642419D01*
X143385217Y-64642419D02*
X143480455Y-64594800D01*
X143480455Y-64594800D02*
X143528074Y-64547180D01*
X143528074Y-64547180D02*
X143575693Y-64451942D01*
X143575693Y-64451942D02*
X143575693Y-64356704D01*
X143575693Y-64356704D02*
X143528074Y-64261466D01*
X143528074Y-64261466D02*
X143480455Y-64213847D01*
X143480455Y-64213847D02*
X143385217Y-64166228D01*
X143385217Y-64166228D02*
X143194741Y-64118609D01*
X143194741Y-64118609D02*
X143099503Y-64070990D01*
X143099503Y-64070990D02*
X143051884Y-64023371D01*
X143051884Y-64023371D02*
X143004265Y-63928133D01*
X143004265Y-63928133D02*
X143004265Y-63832895D01*
X143004265Y-63832895D02*
X143051884Y-63737657D01*
X143051884Y-63737657D02*
X143099503Y-63690038D01*
X143099503Y-63690038D02*
X143194741Y-63642419D01*
X143194741Y-63642419D02*
X143432836Y-63642419D01*
X143432836Y-63642419D02*
X143575693Y-63690038D01*
X144385217Y-64594800D02*
X144289979Y-64642419D01*
X144289979Y-64642419D02*
X144099503Y-64642419D01*
X144099503Y-64642419D02*
X144004265Y-64594800D01*
X144004265Y-64594800D02*
X143956646Y-64499561D01*
X143956646Y-64499561D02*
X143956646Y-64118609D01*
X143956646Y-64118609D02*
X144004265Y-64023371D01*
X144004265Y-64023371D02*
X144099503Y-63975752D01*
X144099503Y-63975752D02*
X144289979Y-63975752D01*
X144289979Y-63975752D02*
X144385217Y-64023371D01*
X144385217Y-64023371D02*
X144432836Y-64118609D01*
X144432836Y-64118609D02*
X144432836Y-64213847D01*
X144432836Y-64213847D02*
X143956646Y-64309085D01*
X144861408Y-64642419D02*
X144861408Y-63975752D01*
X144861408Y-64166228D02*
X144909027Y-64070990D01*
X144909027Y-64070990D02*
X144956646Y-64023371D01*
X144956646Y-64023371D02*
X145051884Y-63975752D01*
X145051884Y-63975752D02*
X145147122Y-63975752D01*
X145385218Y-63975752D02*
X145623313Y-64642419D01*
X145623313Y-64642419D02*
X145861408Y-63975752D01*
X146385218Y-64642419D02*
X146289980Y-64594800D01*
X146289980Y-64594800D02*
X146242361Y-64547180D01*
X146242361Y-64547180D02*
X146194742Y-64451942D01*
X146194742Y-64451942D02*
X146194742Y-64166228D01*
X146194742Y-64166228D02*
X146242361Y-64070990D01*
X146242361Y-64070990D02*
X146289980Y-64023371D01*
X146289980Y-64023371D02*
X146385218Y-63975752D01*
X146385218Y-63975752D02*
X146528075Y-63975752D01*
X146528075Y-63975752D02*
X146623313Y-64023371D01*
X146623313Y-64023371D02*
X146670932Y-64070990D01*
X146670932Y-64070990D02*
X146718551Y-64166228D01*
X146718551Y-64166228D02*
X146718551Y-64451942D01*
X146718551Y-64451942D02*
X146670932Y-64547180D01*
X146670932Y-64547180D02*
X146623313Y-64594800D01*
X146623313Y-64594800D02*
X146528075Y-64642419D01*
X146528075Y-64642419D02*
X146385218Y-64642419D01*
X147909028Y-64642419D02*
X147909028Y-63642419D01*
X147909028Y-63642419D02*
X148289980Y-63642419D01*
X148289980Y-63642419D02*
X148385218Y-63690038D01*
X148385218Y-63690038D02*
X148432837Y-63737657D01*
X148432837Y-63737657D02*
X148480456Y-63832895D01*
X148480456Y-63832895D02*
X148480456Y-63975752D01*
X148480456Y-63975752D02*
X148432837Y-64070990D01*
X148432837Y-64070990D02*
X148385218Y-64118609D01*
X148385218Y-64118609D02*
X148289980Y-64166228D01*
X148289980Y-64166228D02*
X147909028Y-64166228D01*
X149051885Y-64642419D02*
X148956647Y-64594800D01*
X148956647Y-64594800D02*
X148909028Y-64547180D01*
X148909028Y-64547180D02*
X148861409Y-64451942D01*
X148861409Y-64451942D02*
X148861409Y-64166228D01*
X148861409Y-64166228D02*
X148909028Y-64070990D01*
X148909028Y-64070990D02*
X148956647Y-64023371D01*
X148956647Y-64023371D02*
X149051885Y-63975752D01*
X149051885Y-63975752D02*
X149194742Y-63975752D01*
X149194742Y-63975752D02*
X149289980Y-64023371D01*
X149289980Y-64023371D02*
X149337599Y-64070990D01*
X149337599Y-64070990D02*
X149385218Y-64166228D01*
X149385218Y-64166228D02*
X149385218Y-64451942D01*
X149385218Y-64451942D02*
X149337599Y-64547180D01*
X149337599Y-64547180D02*
X149289980Y-64594800D01*
X149289980Y-64594800D02*
X149194742Y-64642419D01*
X149194742Y-64642419D02*
X149051885Y-64642419D01*
X149718552Y-63975752D02*
X149909028Y-64642419D01*
X149909028Y-64642419D02*
X150099504Y-64166228D01*
X150099504Y-64166228D02*
X150289980Y-64642419D01*
X150289980Y-64642419D02*
X150480456Y-63975752D01*
X151242361Y-64594800D02*
X151147123Y-64642419D01*
X151147123Y-64642419D02*
X150956647Y-64642419D01*
X150956647Y-64642419D02*
X150861409Y-64594800D01*
X150861409Y-64594800D02*
X150813790Y-64499561D01*
X150813790Y-64499561D02*
X150813790Y-64118609D01*
X150813790Y-64118609D02*
X150861409Y-64023371D01*
X150861409Y-64023371D02*
X150956647Y-63975752D01*
X150956647Y-63975752D02*
X151147123Y-63975752D01*
X151147123Y-63975752D02*
X151242361Y-64023371D01*
X151242361Y-64023371D02*
X151289980Y-64118609D01*
X151289980Y-64118609D02*
X151289980Y-64213847D01*
X151289980Y-64213847D02*
X150813790Y-64309085D01*
X151718552Y-64642419D02*
X151718552Y-63975752D01*
X151718552Y-64166228D02*
X151766171Y-64070990D01*
X151766171Y-64070990D02*
X151813790Y-64023371D01*
X151813790Y-64023371D02*
X151909028Y-63975752D01*
X151909028Y-63975752D02*
X152004266Y-63975752D01*
X153051886Y-64594800D02*
X153194743Y-64642419D01*
X153194743Y-64642419D02*
X153432838Y-64642419D01*
X153432838Y-64642419D02*
X153528076Y-64594800D01*
X153528076Y-64594800D02*
X153575695Y-64547180D01*
X153575695Y-64547180D02*
X153623314Y-64451942D01*
X153623314Y-64451942D02*
X153623314Y-64356704D01*
X153623314Y-64356704D02*
X153575695Y-64261466D01*
X153575695Y-64261466D02*
X153528076Y-64213847D01*
X153528076Y-64213847D02*
X153432838Y-64166228D01*
X153432838Y-64166228D02*
X153242362Y-64118609D01*
X153242362Y-64118609D02*
X153147124Y-64070990D01*
X153147124Y-64070990D02*
X153099505Y-64023371D01*
X153099505Y-64023371D02*
X153051886Y-63928133D01*
X153051886Y-63928133D02*
X153051886Y-63832895D01*
X153051886Y-63832895D02*
X153099505Y-63737657D01*
X153099505Y-63737657D02*
X153147124Y-63690038D01*
X153147124Y-63690038D02*
X153242362Y-63642419D01*
X153242362Y-63642419D02*
X153480457Y-63642419D01*
X153480457Y-63642419D02*
X153623314Y-63690038D01*
X153956648Y-63975752D02*
X154147124Y-64642419D01*
X154147124Y-64642419D02*
X154337600Y-64166228D01*
X154337600Y-64166228D02*
X154528076Y-64642419D01*
X154528076Y-64642419D02*
X154718552Y-63975752D01*
X155099505Y-64642419D02*
X155099505Y-63975752D01*
X155099505Y-63642419D02*
X155051886Y-63690038D01*
X155051886Y-63690038D02*
X155099505Y-63737657D01*
X155099505Y-63737657D02*
X155147124Y-63690038D01*
X155147124Y-63690038D02*
X155099505Y-63642419D01*
X155099505Y-63642419D02*
X155099505Y-63737657D01*
X155432838Y-63975752D02*
X155813790Y-63975752D01*
X155575695Y-63642419D02*
X155575695Y-64499561D01*
X155575695Y-64499561D02*
X155623314Y-64594800D01*
X155623314Y-64594800D02*
X155718552Y-64642419D01*
X155718552Y-64642419D02*
X155813790Y-64642419D01*
X156575695Y-64594800D02*
X156480457Y-64642419D01*
X156480457Y-64642419D02*
X156289981Y-64642419D01*
X156289981Y-64642419D02*
X156194743Y-64594800D01*
X156194743Y-64594800D02*
X156147124Y-64547180D01*
X156147124Y-64547180D02*
X156099505Y-64451942D01*
X156099505Y-64451942D02*
X156099505Y-64166228D01*
X156099505Y-64166228D02*
X156147124Y-64070990D01*
X156147124Y-64070990D02*
X156194743Y-64023371D01*
X156194743Y-64023371D02*
X156289981Y-63975752D01*
X156289981Y-63975752D02*
X156480457Y-63975752D01*
X156480457Y-63975752D02*
X156575695Y-64023371D01*
X157004267Y-64642419D02*
X157004267Y-63642419D01*
X157432838Y-64642419D02*
X157432838Y-64118609D01*
X157432838Y-64118609D02*
X157385219Y-64023371D01*
X157385219Y-64023371D02*
X157289981Y-63975752D01*
X157289981Y-63975752D02*
X157147124Y-63975752D01*
X157147124Y-63975752D02*
X157051886Y-64023371D01*
X157051886Y-64023371D02*
X157004267Y-64070990D01*
X236219419Y-61545115D02*
X235219419Y-61545115D01*
X235219419Y-61545115D02*
X235219419Y-61164163D01*
X235219419Y-61164163D02*
X235267038Y-61068925D01*
X235267038Y-61068925D02*
X235314657Y-61021306D01*
X235314657Y-61021306D02*
X235409895Y-60973687D01*
X235409895Y-60973687D02*
X235552752Y-60973687D01*
X235552752Y-60973687D02*
X235647990Y-61021306D01*
X235647990Y-61021306D02*
X235695609Y-61068925D01*
X235695609Y-61068925D02*
X235743228Y-61164163D01*
X235743228Y-61164163D02*
X235743228Y-61545115D01*
X235552752Y-60116544D02*
X236219419Y-60116544D01*
X235552752Y-60545115D02*
X236076561Y-60545115D01*
X236076561Y-60545115D02*
X236171800Y-60497496D01*
X236171800Y-60497496D02*
X236219419Y-60402258D01*
X236219419Y-60402258D02*
X236219419Y-60259401D01*
X236219419Y-60259401D02*
X236171800Y-60164163D01*
X236171800Y-60164163D02*
X236124180Y-60116544D01*
X236219419Y-59640353D02*
X235552752Y-59640353D01*
X235743228Y-59640353D02*
X235647990Y-59592734D01*
X235647990Y-59592734D02*
X235600371Y-59545115D01*
X235600371Y-59545115D02*
X235552752Y-59449877D01*
X235552752Y-59449877D02*
X235552752Y-59354639D01*
X236219419Y-58592734D02*
X235219419Y-58592734D01*
X236171800Y-58592734D02*
X236219419Y-58687972D01*
X236219419Y-58687972D02*
X236219419Y-58878448D01*
X236219419Y-58878448D02*
X236171800Y-58973686D01*
X236171800Y-58973686D02*
X236124180Y-59021305D01*
X236124180Y-59021305D02*
X236028942Y-59068924D01*
X236028942Y-59068924D02*
X235743228Y-59068924D01*
X235743228Y-59068924D02*
X235647990Y-59021305D01*
X235647990Y-59021305D02*
X235600371Y-58973686D01*
X235600371Y-58973686D02*
X235552752Y-58878448D01*
X235552752Y-58878448D02*
X235552752Y-58687972D01*
X235552752Y-58687972D02*
X235600371Y-58592734D01*
X235552752Y-57687972D02*
X236219419Y-57687972D01*
X235552752Y-58116543D02*
X236076561Y-58116543D01*
X236076561Y-58116543D02*
X236171800Y-58068924D01*
X236171800Y-58068924D02*
X236219419Y-57973686D01*
X236219419Y-57973686D02*
X236219419Y-57830829D01*
X236219419Y-57830829D02*
X236171800Y-57735591D01*
X236171800Y-57735591D02*
X236124180Y-57687972D01*
X236171800Y-56830829D02*
X236219419Y-56926067D01*
X236219419Y-56926067D02*
X236219419Y-57116543D01*
X236219419Y-57116543D02*
X236171800Y-57211781D01*
X236171800Y-57211781D02*
X236076561Y-57259400D01*
X236076561Y-57259400D02*
X235695609Y-57259400D01*
X235695609Y-57259400D02*
X235600371Y-57211781D01*
X235600371Y-57211781D02*
X235552752Y-57116543D01*
X235552752Y-57116543D02*
X235552752Y-56926067D01*
X235552752Y-56926067D02*
X235600371Y-56830829D01*
X235600371Y-56830829D02*
X235695609Y-56783210D01*
X235695609Y-56783210D02*
X235790847Y-56783210D01*
X235790847Y-56783210D02*
X235886085Y-57259400D01*
X235933704Y-55640352D02*
X235933704Y-55164162D01*
X236219419Y-55735590D02*
X235219419Y-55402257D01*
X235219419Y-55402257D02*
X236219419Y-55068924D01*
X236219419Y-54164162D02*
X235743228Y-54497495D01*
X236219419Y-54735590D02*
X235219419Y-54735590D01*
X235219419Y-54735590D02*
X235219419Y-54354638D01*
X235219419Y-54354638D02*
X235267038Y-54259400D01*
X235267038Y-54259400D02*
X235314657Y-54211781D01*
X235314657Y-54211781D02*
X235409895Y-54164162D01*
X235409895Y-54164162D02*
X235552752Y-54164162D01*
X235552752Y-54164162D02*
X235647990Y-54211781D01*
X235647990Y-54211781D02*
X235695609Y-54259400D01*
X235695609Y-54259400D02*
X235743228Y-54354638D01*
X235743228Y-54354638D02*
X235743228Y-54735590D01*
X236124180Y-53164162D02*
X236171800Y-53211781D01*
X236171800Y-53211781D02*
X236219419Y-53354638D01*
X236219419Y-53354638D02*
X236219419Y-53449876D01*
X236219419Y-53449876D02*
X236171800Y-53592733D01*
X236171800Y-53592733D02*
X236076561Y-53687971D01*
X236076561Y-53687971D02*
X235981323Y-53735590D01*
X235981323Y-53735590D02*
X235790847Y-53783209D01*
X235790847Y-53783209D02*
X235647990Y-53783209D01*
X235647990Y-53783209D02*
X235457514Y-53735590D01*
X235457514Y-53735590D02*
X235362276Y-53687971D01*
X235362276Y-53687971D02*
X235267038Y-53592733D01*
X235267038Y-53592733D02*
X235219419Y-53449876D01*
X235219419Y-53449876D02*
X235219419Y-53354638D01*
X235219419Y-53354638D02*
X235267038Y-53211781D01*
X235267038Y-53211781D02*
X235314657Y-53164162D01*
X236219419Y-51973685D02*
X235219419Y-51973685D01*
X235219419Y-51973685D02*
X235219419Y-51592733D01*
X235219419Y-51592733D02*
X235267038Y-51497495D01*
X235267038Y-51497495D02*
X235314657Y-51449876D01*
X235314657Y-51449876D02*
X235409895Y-51402257D01*
X235409895Y-51402257D02*
X235552752Y-51402257D01*
X235552752Y-51402257D02*
X235647990Y-51449876D01*
X235647990Y-51449876D02*
X235695609Y-51497495D01*
X235695609Y-51497495D02*
X235743228Y-51592733D01*
X235743228Y-51592733D02*
X235743228Y-51973685D01*
X236219419Y-50973685D02*
X235552752Y-50973685D01*
X235219419Y-50973685D02*
X235267038Y-51021304D01*
X235267038Y-51021304D02*
X235314657Y-50973685D01*
X235314657Y-50973685D02*
X235267038Y-50926066D01*
X235267038Y-50926066D02*
X235219419Y-50973685D01*
X235219419Y-50973685D02*
X235314657Y-50973685D01*
X236219419Y-50068924D02*
X235695609Y-50068924D01*
X235695609Y-50068924D02*
X235600371Y-50116543D01*
X235600371Y-50116543D02*
X235552752Y-50211781D01*
X235552752Y-50211781D02*
X235552752Y-50402257D01*
X235552752Y-50402257D02*
X235600371Y-50497495D01*
X236171800Y-50068924D02*
X236219419Y-50164162D01*
X236219419Y-50164162D02*
X236219419Y-50402257D01*
X236219419Y-50402257D02*
X236171800Y-50497495D01*
X236171800Y-50497495D02*
X236076561Y-50545114D01*
X236076561Y-50545114D02*
X235981323Y-50545114D01*
X235981323Y-50545114D02*
X235886085Y-50497495D01*
X235886085Y-50497495D02*
X235838466Y-50402257D01*
X235838466Y-50402257D02*
X235838466Y-50164162D01*
X235838466Y-50164162D02*
X235790847Y-50068924D01*
X235552752Y-49592733D02*
X236219419Y-49592733D01*
X235647990Y-49592733D02*
X235600371Y-49545114D01*
X235600371Y-49545114D02*
X235552752Y-49449876D01*
X235552752Y-49449876D02*
X235552752Y-49307019D01*
X235552752Y-49307019D02*
X235600371Y-49211781D01*
X235600371Y-49211781D02*
X235695609Y-49164162D01*
X235695609Y-49164162D02*
X236219419Y-49164162D01*
X236219419Y-48545114D02*
X236171800Y-48640352D01*
X236171800Y-48640352D02*
X236124180Y-48687971D01*
X236124180Y-48687971D02*
X236028942Y-48735590D01*
X236028942Y-48735590D02*
X235743228Y-48735590D01*
X235743228Y-48735590D02*
X235647990Y-48687971D01*
X235647990Y-48687971D02*
X235600371Y-48640352D01*
X235600371Y-48640352D02*
X235552752Y-48545114D01*
X235552752Y-48545114D02*
X235552752Y-48402257D01*
X235552752Y-48402257D02*
X235600371Y-48307019D01*
X235600371Y-48307019D02*
X235647990Y-48259400D01*
X235647990Y-48259400D02*
X235743228Y-48211781D01*
X235743228Y-48211781D02*
X236028942Y-48211781D01*
X236028942Y-48211781D02*
X236124180Y-48259400D01*
X236124180Y-48259400D02*
X236171800Y-48307019D01*
X236171800Y-48307019D02*
X236219419Y-48402257D01*
X236219419Y-48402257D02*
X236219419Y-48545114D01*
X236219419Y-47021304D02*
X235219419Y-47021304D01*
X235695609Y-47021304D02*
X235695609Y-46449876D01*
X236219419Y-46449876D02*
X235219419Y-46449876D01*
X236219419Y-45545114D02*
X235695609Y-45545114D01*
X235695609Y-45545114D02*
X235600371Y-45592733D01*
X235600371Y-45592733D02*
X235552752Y-45687971D01*
X235552752Y-45687971D02*
X235552752Y-45878447D01*
X235552752Y-45878447D02*
X235600371Y-45973685D01*
X236171800Y-45545114D02*
X236219419Y-45640352D01*
X236219419Y-45640352D02*
X236219419Y-45878447D01*
X236219419Y-45878447D02*
X236171800Y-45973685D01*
X236171800Y-45973685D02*
X236076561Y-46021304D01*
X236076561Y-46021304D02*
X235981323Y-46021304D01*
X235981323Y-46021304D02*
X235886085Y-45973685D01*
X235886085Y-45973685D02*
X235838466Y-45878447D01*
X235838466Y-45878447D02*
X235838466Y-45640352D01*
X235838466Y-45640352D02*
X235790847Y-45545114D01*
X235552752Y-45068923D02*
X236219419Y-45068923D01*
X235647990Y-45068923D02*
X235600371Y-45021304D01*
X235600371Y-45021304D02*
X235552752Y-44926066D01*
X235552752Y-44926066D02*
X235552752Y-44783209D01*
X235552752Y-44783209D02*
X235600371Y-44687971D01*
X235600371Y-44687971D02*
X235695609Y-44640352D01*
X235695609Y-44640352D02*
X236219419Y-44640352D01*
X236219419Y-43735590D02*
X235219419Y-43735590D01*
X236171800Y-43735590D02*
X236219419Y-43830828D01*
X236219419Y-43830828D02*
X236219419Y-44021304D01*
X236219419Y-44021304D02*
X236171800Y-44116542D01*
X236171800Y-44116542D02*
X236124180Y-44164161D01*
X236124180Y-44164161D02*
X236028942Y-44211780D01*
X236028942Y-44211780D02*
X235743228Y-44211780D01*
X235743228Y-44211780D02*
X235647990Y-44164161D01*
X235647990Y-44164161D02*
X235600371Y-44116542D01*
X235600371Y-44116542D02*
X235552752Y-44021304D01*
X235552752Y-44021304D02*
X235552752Y-43830828D01*
X235552752Y-43830828D02*
X235600371Y-43735590D01*
X218045312Y-63118419D02*
X217711979Y-62642228D01*
X217473884Y-63118419D02*
X217473884Y-62118419D01*
X217473884Y-62118419D02*
X217854836Y-62118419D01*
X217854836Y-62118419D02*
X217950074Y-62166038D01*
X217950074Y-62166038D02*
X217997693Y-62213657D01*
X217997693Y-62213657D02*
X218045312Y-62308895D01*
X218045312Y-62308895D02*
X218045312Y-62451752D01*
X218045312Y-62451752D02*
X217997693Y-62546990D01*
X217997693Y-62546990D02*
X217950074Y-62594609D01*
X217950074Y-62594609D02*
X217854836Y-62642228D01*
X217854836Y-62642228D02*
X217473884Y-62642228D01*
X218616741Y-63118419D02*
X218521503Y-63070800D01*
X218521503Y-63070800D02*
X218473884Y-63023180D01*
X218473884Y-63023180D02*
X218426265Y-62927942D01*
X218426265Y-62927942D02*
X218426265Y-62642228D01*
X218426265Y-62642228D02*
X218473884Y-62546990D01*
X218473884Y-62546990D02*
X218521503Y-62499371D01*
X218521503Y-62499371D02*
X218616741Y-62451752D01*
X218616741Y-62451752D02*
X218759598Y-62451752D01*
X218759598Y-62451752D02*
X218854836Y-62499371D01*
X218854836Y-62499371D02*
X218902455Y-62546990D01*
X218902455Y-62546990D02*
X218950074Y-62642228D01*
X218950074Y-62642228D02*
X218950074Y-62927942D01*
X218950074Y-62927942D02*
X218902455Y-63023180D01*
X218902455Y-63023180D02*
X218854836Y-63070800D01*
X218854836Y-63070800D02*
X218759598Y-63118419D01*
X218759598Y-63118419D02*
X218616741Y-63118419D01*
X219235789Y-62451752D02*
X219616741Y-62451752D01*
X219378646Y-62118419D02*
X219378646Y-62975561D01*
X219378646Y-62975561D02*
X219426265Y-63070800D01*
X219426265Y-63070800D02*
X219521503Y-63118419D01*
X219521503Y-63118419D02*
X219616741Y-63118419D01*
X220378646Y-63118419D02*
X220378646Y-62594609D01*
X220378646Y-62594609D02*
X220331027Y-62499371D01*
X220331027Y-62499371D02*
X220235789Y-62451752D01*
X220235789Y-62451752D02*
X220045313Y-62451752D01*
X220045313Y-62451752D02*
X219950075Y-62499371D01*
X220378646Y-63070800D02*
X220283408Y-63118419D01*
X220283408Y-63118419D02*
X220045313Y-63118419D01*
X220045313Y-63118419D02*
X219950075Y-63070800D01*
X219950075Y-63070800D02*
X219902456Y-62975561D01*
X219902456Y-62975561D02*
X219902456Y-62880323D01*
X219902456Y-62880323D02*
X219950075Y-62785085D01*
X219950075Y-62785085D02*
X220045313Y-62737466D01*
X220045313Y-62737466D02*
X220283408Y-62737466D01*
X220283408Y-62737466D02*
X220378646Y-62689847D01*
X220854837Y-63118419D02*
X220854837Y-62451752D01*
X220854837Y-62642228D02*
X220902456Y-62546990D01*
X220902456Y-62546990D02*
X220950075Y-62499371D01*
X220950075Y-62499371D02*
X221045313Y-62451752D01*
X221045313Y-62451752D02*
X221140551Y-62451752D01*
X221378647Y-62451752D02*
X221616742Y-63118419D01*
X221854837Y-62451752D02*
X221616742Y-63118419D01*
X221616742Y-63118419D02*
X221521504Y-63356514D01*
X221521504Y-63356514D02*
X221473885Y-63404133D01*
X221473885Y-63404133D02*
X221378647Y-63451752D01*
X222997695Y-62594609D02*
X223331028Y-62594609D01*
X223473885Y-63118419D02*
X222997695Y-63118419D01*
X222997695Y-63118419D02*
X222997695Y-62118419D01*
X222997695Y-62118419D02*
X223473885Y-62118419D01*
X223902457Y-62451752D02*
X223902457Y-63118419D01*
X223902457Y-62546990D02*
X223950076Y-62499371D01*
X223950076Y-62499371D02*
X224045314Y-62451752D01*
X224045314Y-62451752D02*
X224188171Y-62451752D01*
X224188171Y-62451752D02*
X224283409Y-62499371D01*
X224283409Y-62499371D02*
X224331028Y-62594609D01*
X224331028Y-62594609D02*
X224331028Y-63118419D01*
X225235790Y-63070800D02*
X225140552Y-63118419D01*
X225140552Y-63118419D02*
X224950076Y-63118419D01*
X224950076Y-63118419D02*
X224854838Y-63070800D01*
X224854838Y-63070800D02*
X224807219Y-63023180D01*
X224807219Y-63023180D02*
X224759600Y-62927942D01*
X224759600Y-62927942D02*
X224759600Y-62642228D01*
X224759600Y-62642228D02*
X224807219Y-62546990D01*
X224807219Y-62546990D02*
X224854838Y-62499371D01*
X224854838Y-62499371D02*
X224950076Y-62451752D01*
X224950076Y-62451752D02*
X225140552Y-62451752D01*
X225140552Y-62451752D02*
X225235790Y-62499371D01*
X225807219Y-63118419D02*
X225711981Y-63070800D01*
X225711981Y-63070800D02*
X225664362Y-63023180D01*
X225664362Y-63023180D02*
X225616743Y-62927942D01*
X225616743Y-62927942D02*
X225616743Y-62642228D01*
X225616743Y-62642228D02*
X225664362Y-62546990D01*
X225664362Y-62546990D02*
X225711981Y-62499371D01*
X225711981Y-62499371D02*
X225807219Y-62451752D01*
X225807219Y-62451752D02*
X225950076Y-62451752D01*
X225950076Y-62451752D02*
X226045314Y-62499371D01*
X226045314Y-62499371D02*
X226092933Y-62546990D01*
X226092933Y-62546990D02*
X226140552Y-62642228D01*
X226140552Y-62642228D02*
X226140552Y-62927942D01*
X226140552Y-62927942D02*
X226092933Y-63023180D01*
X226092933Y-63023180D02*
X226045314Y-63070800D01*
X226045314Y-63070800D02*
X225950076Y-63118419D01*
X225950076Y-63118419D02*
X225807219Y-63118419D01*
X226997695Y-63118419D02*
X226997695Y-62118419D01*
X226997695Y-63070800D02*
X226902457Y-63118419D01*
X226902457Y-63118419D02*
X226711981Y-63118419D01*
X226711981Y-63118419D02*
X226616743Y-63070800D01*
X226616743Y-63070800D02*
X226569124Y-63023180D01*
X226569124Y-63023180D02*
X226521505Y-62927942D01*
X226521505Y-62927942D02*
X226521505Y-62642228D01*
X226521505Y-62642228D02*
X226569124Y-62546990D01*
X226569124Y-62546990D02*
X226616743Y-62499371D01*
X226616743Y-62499371D02*
X226711981Y-62451752D01*
X226711981Y-62451752D02*
X226902457Y-62451752D01*
X226902457Y-62451752D02*
X226997695Y-62499371D01*
X227854838Y-63070800D02*
X227759600Y-63118419D01*
X227759600Y-63118419D02*
X227569124Y-63118419D01*
X227569124Y-63118419D02*
X227473886Y-63070800D01*
X227473886Y-63070800D02*
X227426267Y-62975561D01*
X227426267Y-62975561D02*
X227426267Y-62594609D01*
X227426267Y-62594609D02*
X227473886Y-62499371D01*
X227473886Y-62499371D02*
X227569124Y-62451752D01*
X227569124Y-62451752D02*
X227759600Y-62451752D01*
X227759600Y-62451752D02*
X227854838Y-62499371D01*
X227854838Y-62499371D02*
X227902457Y-62594609D01*
X227902457Y-62594609D02*
X227902457Y-62689847D01*
X227902457Y-62689847D02*
X227426267Y-62785085D01*
X228331029Y-63118419D02*
X228331029Y-62451752D01*
X228331029Y-62642228D02*
X228378648Y-62546990D01*
X228378648Y-62546990D02*
X228426267Y-62499371D01*
X228426267Y-62499371D02*
X228521505Y-62451752D01*
X228521505Y-62451752D02*
X228616743Y-62451752D01*
X117540693Y-60324419D02*
X116969265Y-60324419D01*
X117254979Y-60324419D02*
X117254979Y-59324419D01*
X117254979Y-59324419D02*
X117159741Y-59467276D01*
X117159741Y-59467276D02*
X117064503Y-59562514D01*
X117064503Y-59562514D02*
X116969265Y-59610133D01*
X118445455Y-59324419D02*
X117969265Y-59324419D01*
X117969265Y-59324419D02*
X117921646Y-59800609D01*
X117921646Y-59800609D02*
X117969265Y-59752990D01*
X117969265Y-59752990D02*
X118064503Y-59705371D01*
X118064503Y-59705371D02*
X118302598Y-59705371D01*
X118302598Y-59705371D02*
X118397836Y-59752990D01*
X118397836Y-59752990D02*
X118445455Y-59800609D01*
X118445455Y-59800609D02*
X118493074Y-59895847D01*
X118493074Y-59895847D02*
X118493074Y-60133942D01*
X118493074Y-60133942D02*
X118445455Y-60229180D01*
X118445455Y-60229180D02*
X118397836Y-60276800D01*
X118397836Y-60276800D02*
X118302598Y-60324419D01*
X118302598Y-60324419D02*
X118064503Y-60324419D01*
X118064503Y-60324419D02*
X117969265Y-60276800D01*
X117969265Y-60276800D02*
X117921646Y-60229180D01*
X118778789Y-59324419D02*
X119112122Y-60324419D01*
X119112122Y-60324419D02*
X119445455Y-59324419D01*
X120397837Y-59657752D02*
X120778789Y-59657752D01*
X120540694Y-59324419D02*
X120540694Y-60181561D01*
X120540694Y-60181561D02*
X120588313Y-60276800D01*
X120588313Y-60276800D02*
X120683551Y-60324419D01*
X120683551Y-60324419D02*
X120778789Y-60324419D01*
X121254980Y-60324419D02*
X121159742Y-60276800D01*
X121159742Y-60276800D02*
X121112123Y-60229180D01*
X121112123Y-60229180D02*
X121064504Y-60133942D01*
X121064504Y-60133942D02*
X121064504Y-59848228D01*
X121064504Y-59848228D02*
X121112123Y-59752990D01*
X121112123Y-59752990D02*
X121159742Y-59705371D01*
X121159742Y-59705371D02*
X121254980Y-59657752D01*
X121254980Y-59657752D02*
X121397837Y-59657752D01*
X121397837Y-59657752D02*
X121493075Y-59705371D01*
X121493075Y-59705371D02*
X121540694Y-59752990D01*
X121540694Y-59752990D02*
X121588313Y-59848228D01*
X121588313Y-59848228D02*
X121588313Y-60133942D01*
X121588313Y-60133942D02*
X121540694Y-60229180D01*
X121540694Y-60229180D02*
X121493075Y-60276800D01*
X121493075Y-60276800D02*
X121397837Y-60324419D01*
X121397837Y-60324419D02*
X121254980Y-60324419D01*
X123302599Y-60324419D02*
X122731171Y-60324419D01*
X123016885Y-60324419D02*
X123016885Y-59324419D01*
X123016885Y-59324419D02*
X122921647Y-59467276D01*
X122921647Y-59467276D02*
X122826409Y-59562514D01*
X122826409Y-59562514D02*
X122731171Y-59610133D01*
X123683552Y-59419657D02*
X123731171Y-59372038D01*
X123731171Y-59372038D02*
X123826409Y-59324419D01*
X123826409Y-59324419D02*
X124064504Y-59324419D01*
X124064504Y-59324419D02*
X124159742Y-59372038D01*
X124159742Y-59372038D02*
X124207361Y-59419657D01*
X124207361Y-59419657D02*
X124254980Y-59514895D01*
X124254980Y-59514895D02*
X124254980Y-59610133D01*
X124254980Y-59610133D02*
X124207361Y-59752990D01*
X124207361Y-59752990D02*
X123635933Y-60324419D01*
X123635933Y-60324419D02*
X124254980Y-60324419D01*
X124540695Y-59324419D02*
X124874028Y-60324419D01*
X124874028Y-60324419D02*
X125207361Y-59324419D01*
X109555646Y-129682419D02*
X110222312Y-129682419D01*
X110222312Y-129682419D02*
X109793741Y-130682419D01*
X110603265Y-130587180D02*
X110650884Y-130634800D01*
X110650884Y-130634800D02*
X110603265Y-130682419D01*
X110603265Y-130682419D02*
X110555646Y-130634800D01*
X110555646Y-130634800D02*
X110603265Y-130587180D01*
X110603265Y-130587180D02*
X110603265Y-130682419D01*
X111031836Y-129777657D02*
X111079455Y-129730038D01*
X111079455Y-129730038D02*
X111174693Y-129682419D01*
X111174693Y-129682419D02*
X111412788Y-129682419D01*
X111412788Y-129682419D02*
X111508026Y-129730038D01*
X111508026Y-129730038D02*
X111555645Y-129777657D01*
X111555645Y-129777657D02*
X111603264Y-129872895D01*
X111603264Y-129872895D02*
X111603264Y-129968133D01*
X111603264Y-129968133D02*
X111555645Y-130110990D01*
X111555645Y-130110990D02*
X110984217Y-130682419D01*
X110984217Y-130682419D02*
X111603264Y-130682419D01*
X111888979Y-129682419D02*
X112222312Y-130682419D01*
X112222312Y-130682419D02*
X112555645Y-129682419D01*
X113508027Y-130015752D02*
X113888979Y-130015752D01*
X113650884Y-129682419D02*
X113650884Y-130539561D01*
X113650884Y-130539561D02*
X113698503Y-130634800D01*
X113698503Y-130634800D02*
X113793741Y-130682419D01*
X113793741Y-130682419D02*
X113888979Y-130682419D01*
X114365170Y-130682419D02*
X114269932Y-130634800D01*
X114269932Y-130634800D02*
X114222313Y-130587180D01*
X114222313Y-130587180D02*
X114174694Y-130491942D01*
X114174694Y-130491942D02*
X114174694Y-130206228D01*
X114174694Y-130206228D02*
X114222313Y-130110990D01*
X114222313Y-130110990D02*
X114269932Y-130063371D01*
X114269932Y-130063371D02*
X114365170Y-130015752D01*
X114365170Y-130015752D02*
X114508027Y-130015752D01*
X114508027Y-130015752D02*
X114603265Y-130063371D01*
X114603265Y-130063371D02*
X114650884Y-130110990D01*
X114650884Y-130110990D02*
X114698503Y-130206228D01*
X114698503Y-130206228D02*
X114698503Y-130491942D01*
X114698503Y-130491942D02*
X114650884Y-130587180D01*
X114650884Y-130587180D02*
X114603265Y-130634800D01*
X114603265Y-130634800D02*
X114508027Y-130682419D01*
X114508027Y-130682419D02*
X114365170Y-130682419D01*
X116365170Y-129682419D02*
X115888980Y-129682419D01*
X115888980Y-129682419D02*
X115841361Y-130158609D01*
X115841361Y-130158609D02*
X115888980Y-130110990D01*
X115888980Y-130110990D02*
X115984218Y-130063371D01*
X115984218Y-130063371D02*
X116222313Y-130063371D01*
X116222313Y-130063371D02*
X116317551Y-130110990D01*
X116317551Y-130110990D02*
X116365170Y-130158609D01*
X116365170Y-130158609D02*
X116412789Y-130253847D01*
X116412789Y-130253847D02*
X116412789Y-130491942D01*
X116412789Y-130491942D02*
X116365170Y-130587180D01*
X116365170Y-130587180D02*
X116317551Y-130634800D01*
X116317551Y-130634800D02*
X116222313Y-130682419D01*
X116222313Y-130682419D02*
X115984218Y-130682419D01*
X115984218Y-130682419D02*
X115888980Y-130634800D01*
X115888980Y-130634800D02*
X115841361Y-130587180D01*
X116698504Y-129682419D02*
X117031837Y-130682419D01*
X117031837Y-130682419D02*
X117365170Y-129682419D01*
D11*
X140944333Y-127177580D02*
X140896714Y-127225200D01*
X140896714Y-127225200D02*
X140753857Y-127272819D01*
X140753857Y-127272819D02*
X140658619Y-127272819D01*
X140658619Y-127272819D02*
X140515762Y-127225200D01*
X140515762Y-127225200D02*
X140420524Y-127129961D01*
X140420524Y-127129961D02*
X140372905Y-127034723D01*
X140372905Y-127034723D02*
X140325286Y-126844247D01*
X140325286Y-126844247D02*
X140325286Y-126701390D01*
X140325286Y-126701390D02*
X140372905Y-126510914D01*
X140372905Y-126510914D02*
X140420524Y-126415676D01*
X140420524Y-126415676D02*
X140515762Y-126320438D01*
X140515762Y-126320438D02*
X140658619Y-126272819D01*
X140658619Y-126272819D02*
X140753857Y-126272819D01*
X140753857Y-126272819D02*
X140896714Y-126320438D01*
X140896714Y-126320438D02*
X140944333Y-126368057D01*
X141325286Y-126368057D02*
X141372905Y-126320438D01*
X141372905Y-126320438D02*
X141468143Y-126272819D01*
X141468143Y-126272819D02*
X141706238Y-126272819D01*
X141706238Y-126272819D02*
X141801476Y-126320438D01*
X141801476Y-126320438D02*
X141849095Y-126368057D01*
X141849095Y-126368057D02*
X141896714Y-126463295D01*
X141896714Y-126463295D02*
X141896714Y-126558533D01*
X141896714Y-126558533D02*
X141849095Y-126701390D01*
X141849095Y-126701390D02*
X141277667Y-127272819D01*
X141277667Y-127272819D02*
X141896714Y-127272819D01*
X143400057Y-69183238D02*
X143352438Y-69278476D01*
X143352438Y-69278476D02*
X143257200Y-69373714D01*
X143257200Y-69373714D02*
X143114342Y-69516571D01*
X143114342Y-69516571D02*
X143066723Y-69611809D01*
X143066723Y-69611809D02*
X143066723Y-69707047D01*
X143304819Y-69659428D02*
X143257200Y-69754666D01*
X143257200Y-69754666D02*
X143161961Y-69849904D01*
X143161961Y-69849904D02*
X142971485Y-69897523D01*
X142971485Y-69897523D02*
X142638152Y-69897523D01*
X142638152Y-69897523D02*
X142447676Y-69849904D01*
X142447676Y-69849904D02*
X142352438Y-69754666D01*
X142352438Y-69754666D02*
X142304819Y-69659428D01*
X142304819Y-69659428D02*
X142304819Y-69468952D01*
X142304819Y-69468952D02*
X142352438Y-69373714D01*
X142352438Y-69373714D02*
X142447676Y-69278476D01*
X142447676Y-69278476D02*
X142638152Y-69230857D01*
X142638152Y-69230857D02*
X142971485Y-69230857D01*
X142971485Y-69230857D02*
X143161961Y-69278476D01*
X143161961Y-69278476D02*
X143257200Y-69373714D01*
X143257200Y-69373714D02*
X143304819Y-69468952D01*
X143304819Y-69468952D02*
X143304819Y-69659428D01*
X142304819Y-68897523D02*
X142304819Y-68278476D01*
X142304819Y-68278476D02*
X142685771Y-68611809D01*
X142685771Y-68611809D02*
X142685771Y-68468952D01*
X142685771Y-68468952D02*
X142733390Y-68373714D01*
X142733390Y-68373714D02*
X142781009Y-68326095D01*
X142781009Y-68326095D02*
X142876247Y-68278476D01*
X142876247Y-68278476D02*
X143114342Y-68278476D01*
X143114342Y-68278476D02*
X143209580Y-68326095D01*
X143209580Y-68326095D02*
X143257200Y-68373714D01*
X143257200Y-68373714D02*
X143304819Y-68468952D01*
X143304819Y-68468952D02*
X143304819Y-68754666D01*
X143304819Y-68754666D02*
X143257200Y-68849904D01*
X143257200Y-68849904D02*
X143209580Y-68897523D01*
X143080057Y-90265238D02*
X143032438Y-90360476D01*
X143032438Y-90360476D02*
X142937200Y-90455714D01*
X142937200Y-90455714D02*
X142794342Y-90598571D01*
X142794342Y-90598571D02*
X142746723Y-90693809D01*
X142746723Y-90693809D02*
X142746723Y-90789047D01*
X142984819Y-90741428D02*
X142937200Y-90836666D01*
X142937200Y-90836666D02*
X142841961Y-90931904D01*
X142841961Y-90931904D02*
X142651485Y-90979523D01*
X142651485Y-90979523D02*
X142318152Y-90979523D01*
X142318152Y-90979523D02*
X142127676Y-90931904D01*
X142127676Y-90931904D02*
X142032438Y-90836666D01*
X142032438Y-90836666D02*
X141984819Y-90741428D01*
X141984819Y-90741428D02*
X141984819Y-90550952D01*
X141984819Y-90550952D02*
X142032438Y-90455714D01*
X142032438Y-90455714D02*
X142127676Y-90360476D01*
X142127676Y-90360476D02*
X142318152Y-90312857D01*
X142318152Y-90312857D02*
X142651485Y-90312857D01*
X142651485Y-90312857D02*
X142841961Y-90360476D01*
X142841961Y-90360476D02*
X142937200Y-90455714D01*
X142937200Y-90455714D02*
X142984819Y-90550952D01*
X142984819Y-90550952D02*
X142984819Y-90741428D01*
X142984819Y-89360476D02*
X142984819Y-89931904D01*
X142984819Y-89646190D02*
X141984819Y-89646190D01*
X141984819Y-89646190D02*
X142127676Y-89741428D01*
X142127676Y-89741428D02*
X142222914Y-89836666D01*
X142222914Y-89836666D02*
X142270533Y-89931904D01*
X233426095Y-30891819D02*
X233426095Y-29891819D01*
X233426095Y-30368009D02*
X233997523Y-30368009D01*
X233997523Y-30891819D02*
X233997523Y-29891819D01*
X234997523Y-30891819D02*
X234426095Y-30891819D01*
X234711809Y-30891819D02*
X234711809Y-29891819D01*
X234711809Y-29891819D02*
X234616571Y-30034676D01*
X234616571Y-30034676D02*
X234521333Y-30129914D01*
X234521333Y-30129914D02*
X234426095Y-30177533D01*
X92710095Y-30864055D02*
X92710095Y-29864055D01*
X92710095Y-30340245D02*
X93281523Y-30340245D01*
X93281523Y-30864055D02*
X93281523Y-29864055D01*
X93710095Y-29959293D02*
X93757714Y-29911674D01*
X93757714Y-29911674D02*
X93852952Y-29864055D01*
X93852952Y-29864055D02*
X94091047Y-29864055D01*
X94091047Y-29864055D02*
X94186285Y-29911674D01*
X94186285Y-29911674D02*
X94233904Y-29959293D01*
X94233904Y-29959293D02*
X94281523Y-30054531D01*
X94281523Y-30054531D02*
X94281523Y-30149769D01*
X94281523Y-30149769D02*
X94233904Y-30292626D01*
X94233904Y-30292626D02*
X93662476Y-30864055D01*
X93662476Y-30864055D02*
X94281523Y-30864055D01*
X233426095Y-130332819D02*
X233426095Y-129332819D01*
X233426095Y-129809009D02*
X233997523Y-129809009D01*
X233997523Y-130332819D02*
X233997523Y-129332819D01*
X234378476Y-129332819D02*
X234997523Y-129332819D01*
X234997523Y-129332819D02*
X234664190Y-129713771D01*
X234664190Y-129713771D02*
X234807047Y-129713771D01*
X234807047Y-129713771D02*
X234902285Y-129761390D01*
X234902285Y-129761390D02*
X234949904Y-129809009D01*
X234949904Y-129809009D02*
X234997523Y-129904247D01*
X234997523Y-129904247D02*
X234997523Y-130142342D01*
X234997523Y-130142342D02*
X234949904Y-130237580D01*
X234949904Y-130237580D02*
X234902285Y-130285200D01*
X234902285Y-130285200D02*
X234807047Y-130332819D01*
X234807047Y-130332819D02*
X234521333Y-130332819D01*
X234521333Y-130332819D02*
X234426095Y-130285200D01*
X234426095Y-130285200D02*
X234378476Y-130237580D01*
X92708941Y-130205819D02*
X92708941Y-129205819D01*
X92708941Y-129682009D02*
X93280369Y-129682009D01*
X93280369Y-130205819D02*
X93280369Y-129205819D01*
X94185131Y-129539152D02*
X94185131Y-130205819D01*
X93947036Y-129158200D02*
X93708941Y-129872485D01*
X93708941Y-129872485D02*
X94327988Y-129872485D01*
X218776819Y-80245404D02*
X219586342Y-80245404D01*
X219586342Y-80245404D02*
X219681580Y-80197785D01*
X219681580Y-80197785D02*
X219729200Y-80150166D01*
X219729200Y-80150166D02*
X219776819Y-80054928D01*
X219776819Y-80054928D02*
X219776819Y-79864452D01*
X219776819Y-79864452D02*
X219729200Y-79769214D01*
X219729200Y-79769214D02*
X219681580Y-79721595D01*
X219681580Y-79721595D02*
X219586342Y-79673976D01*
X219586342Y-79673976D02*
X218776819Y-79673976D01*
X219776819Y-78673976D02*
X219776819Y-79245404D01*
X219776819Y-78959690D02*
X218776819Y-78959690D01*
X218776819Y-78959690D02*
X218919676Y-79054928D01*
X218919676Y-79054928D02*
X219014914Y-79150166D01*
X219014914Y-79150166D02*
X219062533Y-79245404D01*
X185539142Y-113314255D02*
X185205809Y-112838064D01*
X184967714Y-113314255D02*
X184967714Y-112314255D01*
X184967714Y-112314255D02*
X185348666Y-112314255D01*
X185348666Y-112314255D02*
X185443904Y-112361874D01*
X185443904Y-112361874D02*
X185491523Y-112409493D01*
X185491523Y-112409493D02*
X185539142Y-112504731D01*
X185539142Y-112504731D02*
X185539142Y-112647588D01*
X185539142Y-112647588D02*
X185491523Y-112742826D01*
X185491523Y-112742826D02*
X185443904Y-112790445D01*
X185443904Y-112790445D02*
X185348666Y-112838064D01*
X185348666Y-112838064D02*
X184967714Y-112838064D01*
X185920095Y-112409493D02*
X185967714Y-112361874D01*
X185967714Y-112361874D02*
X186062952Y-112314255D01*
X186062952Y-112314255D02*
X186301047Y-112314255D01*
X186301047Y-112314255D02*
X186396285Y-112361874D01*
X186396285Y-112361874D02*
X186443904Y-112409493D01*
X186443904Y-112409493D02*
X186491523Y-112504731D01*
X186491523Y-112504731D02*
X186491523Y-112599969D01*
X186491523Y-112599969D02*
X186443904Y-112742826D01*
X186443904Y-112742826D02*
X185872476Y-113314255D01*
X185872476Y-113314255D02*
X186491523Y-113314255D01*
X187348666Y-112314255D02*
X187158190Y-112314255D01*
X187158190Y-112314255D02*
X187062952Y-112361874D01*
X187062952Y-112361874D02*
X187015333Y-112409493D01*
X187015333Y-112409493D02*
X186920095Y-112552350D01*
X186920095Y-112552350D02*
X186872476Y-112742826D01*
X186872476Y-112742826D02*
X186872476Y-113123778D01*
X186872476Y-113123778D02*
X186920095Y-113219016D01*
X186920095Y-113219016D02*
X186967714Y-113266636D01*
X186967714Y-113266636D02*
X187062952Y-113314255D01*
X187062952Y-113314255D02*
X187253428Y-113314255D01*
X187253428Y-113314255D02*
X187348666Y-113266636D01*
X187348666Y-113266636D02*
X187396285Y-113219016D01*
X187396285Y-113219016D02*
X187443904Y-113123778D01*
X187443904Y-113123778D02*
X187443904Y-112885683D01*
X187443904Y-112885683D02*
X187396285Y-112790445D01*
X187396285Y-112790445D02*
X187348666Y-112742826D01*
X187348666Y-112742826D02*
X187253428Y-112695207D01*
X187253428Y-112695207D02*
X187062952Y-112695207D01*
X187062952Y-112695207D02*
X186967714Y-112742826D01*
X186967714Y-112742826D02*
X186920095Y-112790445D01*
X186920095Y-112790445D02*
X186872476Y-112885683D01*
X185539142Y-110774255D02*
X185205809Y-110298064D01*
X184967714Y-110774255D02*
X184967714Y-109774255D01*
X184967714Y-109774255D02*
X185348666Y-109774255D01*
X185348666Y-109774255D02*
X185443904Y-109821874D01*
X185443904Y-109821874D02*
X185491523Y-109869493D01*
X185491523Y-109869493D02*
X185539142Y-109964731D01*
X185539142Y-109964731D02*
X185539142Y-110107588D01*
X185539142Y-110107588D02*
X185491523Y-110202826D01*
X185491523Y-110202826D02*
X185443904Y-110250445D01*
X185443904Y-110250445D02*
X185348666Y-110298064D01*
X185348666Y-110298064D02*
X184967714Y-110298064D01*
X185920095Y-109869493D02*
X185967714Y-109821874D01*
X185967714Y-109821874D02*
X186062952Y-109774255D01*
X186062952Y-109774255D02*
X186301047Y-109774255D01*
X186301047Y-109774255D02*
X186396285Y-109821874D01*
X186396285Y-109821874D02*
X186443904Y-109869493D01*
X186443904Y-109869493D02*
X186491523Y-109964731D01*
X186491523Y-109964731D02*
X186491523Y-110059969D01*
X186491523Y-110059969D02*
X186443904Y-110202826D01*
X186443904Y-110202826D02*
X185872476Y-110774255D01*
X185872476Y-110774255D02*
X186491523Y-110774255D01*
X187348666Y-110107588D02*
X187348666Y-110774255D01*
X187110571Y-109726636D02*
X186872476Y-110440921D01*
X186872476Y-110440921D02*
X187491523Y-110440921D01*
X185539142Y-114584255D02*
X185205809Y-114108064D01*
X184967714Y-114584255D02*
X184967714Y-113584255D01*
X184967714Y-113584255D02*
X185348666Y-113584255D01*
X185348666Y-113584255D02*
X185443904Y-113631874D01*
X185443904Y-113631874D02*
X185491523Y-113679493D01*
X185491523Y-113679493D02*
X185539142Y-113774731D01*
X185539142Y-113774731D02*
X185539142Y-113917588D01*
X185539142Y-113917588D02*
X185491523Y-114012826D01*
X185491523Y-114012826D02*
X185443904Y-114060445D01*
X185443904Y-114060445D02*
X185348666Y-114108064D01*
X185348666Y-114108064D02*
X184967714Y-114108064D01*
X185920095Y-113679493D02*
X185967714Y-113631874D01*
X185967714Y-113631874D02*
X186062952Y-113584255D01*
X186062952Y-113584255D02*
X186301047Y-113584255D01*
X186301047Y-113584255D02*
X186396285Y-113631874D01*
X186396285Y-113631874D02*
X186443904Y-113679493D01*
X186443904Y-113679493D02*
X186491523Y-113774731D01*
X186491523Y-113774731D02*
X186491523Y-113869969D01*
X186491523Y-113869969D02*
X186443904Y-114012826D01*
X186443904Y-114012826D02*
X185872476Y-114584255D01*
X185872476Y-114584255D02*
X186491523Y-114584255D01*
X186824857Y-113584255D02*
X187491523Y-113584255D01*
X187491523Y-113584255D02*
X187062952Y-114584255D01*
X185539142Y-112044255D02*
X185205809Y-111568064D01*
X184967714Y-112044255D02*
X184967714Y-111044255D01*
X184967714Y-111044255D02*
X185348666Y-111044255D01*
X185348666Y-111044255D02*
X185443904Y-111091874D01*
X185443904Y-111091874D02*
X185491523Y-111139493D01*
X185491523Y-111139493D02*
X185539142Y-111234731D01*
X185539142Y-111234731D02*
X185539142Y-111377588D01*
X185539142Y-111377588D02*
X185491523Y-111472826D01*
X185491523Y-111472826D02*
X185443904Y-111520445D01*
X185443904Y-111520445D02*
X185348666Y-111568064D01*
X185348666Y-111568064D02*
X184967714Y-111568064D01*
X185920095Y-111139493D02*
X185967714Y-111091874D01*
X185967714Y-111091874D02*
X186062952Y-111044255D01*
X186062952Y-111044255D02*
X186301047Y-111044255D01*
X186301047Y-111044255D02*
X186396285Y-111091874D01*
X186396285Y-111091874D02*
X186443904Y-111139493D01*
X186443904Y-111139493D02*
X186491523Y-111234731D01*
X186491523Y-111234731D02*
X186491523Y-111329969D01*
X186491523Y-111329969D02*
X186443904Y-111472826D01*
X186443904Y-111472826D02*
X185872476Y-112044255D01*
X185872476Y-112044255D02*
X186491523Y-112044255D01*
X187396285Y-111044255D02*
X186920095Y-111044255D01*
X186920095Y-111044255D02*
X186872476Y-111520445D01*
X186872476Y-111520445D02*
X186920095Y-111472826D01*
X186920095Y-111472826D02*
X187015333Y-111425207D01*
X187015333Y-111425207D02*
X187253428Y-111425207D01*
X187253428Y-111425207D02*
X187348666Y-111472826D01*
X187348666Y-111472826D02*
X187396285Y-111520445D01*
X187396285Y-111520445D02*
X187443904Y-111615683D01*
X187443904Y-111615683D02*
X187443904Y-111853778D01*
X187443904Y-111853778D02*
X187396285Y-111949016D01*
X187396285Y-111949016D02*
X187348666Y-111996636D01*
X187348666Y-111996636D02*
X187253428Y-112044255D01*
X187253428Y-112044255D02*
X187015333Y-112044255D01*
X187015333Y-112044255D02*
X186920095Y-111996636D01*
X186920095Y-111996636D02*
X186872476Y-111949016D01*
X185539142Y-109250255D02*
X185205809Y-108774064D01*
X184967714Y-109250255D02*
X184967714Y-108250255D01*
X184967714Y-108250255D02*
X185348666Y-108250255D01*
X185348666Y-108250255D02*
X185443904Y-108297874D01*
X185443904Y-108297874D02*
X185491523Y-108345493D01*
X185491523Y-108345493D02*
X185539142Y-108440731D01*
X185539142Y-108440731D02*
X185539142Y-108583588D01*
X185539142Y-108583588D02*
X185491523Y-108678826D01*
X185491523Y-108678826D02*
X185443904Y-108726445D01*
X185443904Y-108726445D02*
X185348666Y-108774064D01*
X185348666Y-108774064D02*
X184967714Y-108774064D01*
X185920095Y-108345493D02*
X185967714Y-108297874D01*
X185967714Y-108297874D02*
X186062952Y-108250255D01*
X186062952Y-108250255D02*
X186301047Y-108250255D01*
X186301047Y-108250255D02*
X186396285Y-108297874D01*
X186396285Y-108297874D02*
X186443904Y-108345493D01*
X186443904Y-108345493D02*
X186491523Y-108440731D01*
X186491523Y-108440731D02*
X186491523Y-108535969D01*
X186491523Y-108535969D02*
X186443904Y-108678826D01*
X186443904Y-108678826D02*
X185872476Y-109250255D01*
X185872476Y-109250255D02*
X186491523Y-109250255D01*
X186824857Y-108250255D02*
X187443904Y-108250255D01*
X187443904Y-108250255D02*
X187110571Y-108631207D01*
X187110571Y-108631207D02*
X187253428Y-108631207D01*
X187253428Y-108631207D02*
X187348666Y-108678826D01*
X187348666Y-108678826D02*
X187396285Y-108726445D01*
X187396285Y-108726445D02*
X187443904Y-108821683D01*
X187443904Y-108821683D02*
X187443904Y-109059778D01*
X187443904Y-109059778D02*
X187396285Y-109155016D01*
X187396285Y-109155016D02*
X187348666Y-109202636D01*
X187348666Y-109202636D02*
X187253428Y-109250255D01*
X187253428Y-109250255D02*
X186967714Y-109250255D01*
X186967714Y-109250255D02*
X186872476Y-109202636D01*
X186872476Y-109202636D02*
X186824857Y-109155016D01*
X227628286Y-125676819D02*
X227628286Y-124676819D01*
X227628286Y-124676819D02*
X227961619Y-125391104D01*
X227961619Y-125391104D02*
X228294952Y-124676819D01*
X228294952Y-124676819D02*
X228294952Y-125676819D01*
X229294952Y-125676819D02*
X228723524Y-125676819D01*
X229009238Y-125676819D02*
X229009238Y-124676819D01*
X229009238Y-124676819D02*
X228914000Y-124819676D01*
X228914000Y-124819676D02*
X228818762Y-124914914D01*
X228818762Y-124914914D02*
X228723524Y-124962533D01*
X229914000Y-124676819D02*
X230009238Y-124676819D01*
X230009238Y-124676819D02*
X230104476Y-124724438D01*
X230104476Y-124724438D02*
X230152095Y-124772057D01*
X230152095Y-124772057D02*
X230199714Y-124867295D01*
X230199714Y-124867295D02*
X230247333Y-125057771D01*
X230247333Y-125057771D02*
X230247333Y-125295866D01*
X230247333Y-125295866D02*
X230199714Y-125486342D01*
X230199714Y-125486342D02*
X230152095Y-125581580D01*
X230152095Y-125581580D02*
X230104476Y-125629200D01*
X230104476Y-125629200D02*
X230009238Y-125676819D01*
X230009238Y-125676819D02*
X229914000Y-125676819D01*
X229914000Y-125676819D02*
X229818762Y-125629200D01*
X229818762Y-125629200D02*
X229771143Y-125581580D01*
X229771143Y-125581580D02*
X229723524Y-125486342D01*
X229723524Y-125486342D02*
X229675905Y-125295866D01*
X229675905Y-125295866D02*
X229675905Y-125057771D01*
X229675905Y-125057771D02*
X229723524Y-124867295D01*
X229723524Y-124867295D02*
X229771143Y-124772057D01*
X229771143Y-124772057D02*
X229818762Y-124724438D01*
X229818762Y-124724438D02*
X229914000Y-124676819D01*
X223358819Y-107119404D02*
X224168342Y-107119404D01*
X224168342Y-107119404D02*
X224263580Y-107071785D01*
X224263580Y-107071785D02*
X224311200Y-107024166D01*
X224311200Y-107024166D02*
X224358819Y-106928928D01*
X224358819Y-106928928D02*
X224358819Y-106738452D01*
X224358819Y-106738452D02*
X224311200Y-106643214D01*
X224311200Y-106643214D02*
X224263580Y-106595595D01*
X224263580Y-106595595D02*
X224168342Y-106547976D01*
X224168342Y-106547976D02*
X223358819Y-106547976D01*
X223787390Y-105928928D02*
X223739771Y-106024166D01*
X223739771Y-106024166D02*
X223692152Y-106071785D01*
X223692152Y-106071785D02*
X223596914Y-106119404D01*
X223596914Y-106119404D02*
X223549295Y-106119404D01*
X223549295Y-106119404D02*
X223454057Y-106071785D01*
X223454057Y-106071785D02*
X223406438Y-106024166D01*
X223406438Y-106024166D02*
X223358819Y-105928928D01*
X223358819Y-105928928D02*
X223358819Y-105738452D01*
X223358819Y-105738452D02*
X223406438Y-105643214D01*
X223406438Y-105643214D02*
X223454057Y-105595595D01*
X223454057Y-105595595D02*
X223549295Y-105547976D01*
X223549295Y-105547976D02*
X223596914Y-105547976D01*
X223596914Y-105547976D02*
X223692152Y-105595595D01*
X223692152Y-105595595D02*
X223739771Y-105643214D01*
X223739771Y-105643214D02*
X223787390Y-105738452D01*
X223787390Y-105738452D02*
X223787390Y-105928928D01*
X223787390Y-105928928D02*
X223835009Y-106024166D01*
X223835009Y-106024166D02*
X223882628Y-106071785D01*
X223882628Y-106071785D02*
X223977866Y-106119404D01*
X223977866Y-106119404D02*
X224168342Y-106119404D01*
X224168342Y-106119404D02*
X224263580Y-106071785D01*
X224263580Y-106071785D02*
X224311200Y-106024166D01*
X224311200Y-106024166D02*
X224358819Y-105928928D01*
X224358819Y-105928928D02*
X224358819Y-105738452D01*
X224358819Y-105738452D02*
X224311200Y-105643214D01*
X224311200Y-105643214D02*
X224263580Y-105595595D01*
X224263580Y-105595595D02*
X224168342Y-105547976D01*
X224168342Y-105547976D02*
X223977866Y-105547976D01*
X223977866Y-105547976D02*
X223882628Y-105595595D01*
X223882628Y-105595595D02*
X223835009Y-105643214D01*
X223835009Y-105643214D02*
X223787390Y-105738452D01*
X217182476Y-125784319D02*
X217182476Y-124784319D01*
X217182476Y-124784319D02*
X217515809Y-125498604D01*
X217515809Y-125498604D02*
X217849142Y-124784319D01*
X217849142Y-124784319D02*
X217849142Y-125784319D01*
X218468190Y-125212890D02*
X218372952Y-125165271D01*
X218372952Y-125165271D02*
X218325333Y-125117652D01*
X218325333Y-125117652D02*
X218277714Y-125022414D01*
X218277714Y-125022414D02*
X218277714Y-124974795D01*
X218277714Y-124974795D02*
X218325333Y-124879557D01*
X218325333Y-124879557D02*
X218372952Y-124831938D01*
X218372952Y-124831938D02*
X218468190Y-124784319D01*
X218468190Y-124784319D02*
X218658666Y-124784319D01*
X218658666Y-124784319D02*
X218753904Y-124831938D01*
X218753904Y-124831938D02*
X218801523Y-124879557D01*
X218801523Y-124879557D02*
X218849142Y-124974795D01*
X218849142Y-124974795D02*
X218849142Y-125022414D01*
X218849142Y-125022414D02*
X218801523Y-125117652D01*
X218801523Y-125117652D02*
X218753904Y-125165271D01*
X218753904Y-125165271D02*
X218658666Y-125212890D01*
X218658666Y-125212890D02*
X218468190Y-125212890D01*
X218468190Y-125212890D02*
X218372952Y-125260509D01*
X218372952Y-125260509D02*
X218325333Y-125308128D01*
X218325333Y-125308128D02*
X218277714Y-125403366D01*
X218277714Y-125403366D02*
X218277714Y-125593842D01*
X218277714Y-125593842D02*
X218325333Y-125689080D01*
X218325333Y-125689080D02*
X218372952Y-125736700D01*
X218372952Y-125736700D02*
X218468190Y-125784319D01*
X218468190Y-125784319D02*
X218658666Y-125784319D01*
X218658666Y-125784319D02*
X218753904Y-125736700D01*
X218753904Y-125736700D02*
X218801523Y-125689080D01*
X218801523Y-125689080D02*
X218849142Y-125593842D01*
X218849142Y-125593842D02*
X218849142Y-125403366D01*
X218849142Y-125403366D02*
X218801523Y-125308128D01*
X218801523Y-125308128D02*
X218753904Y-125260509D01*
X218753904Y-125260509D02*
X218658666Y-125212890D01*
X222516476Y-125784319D02*
X222516476Y-124784319D01*
X222516476Y-124784319D02*
X222849809Y-125498604D01*
X222849809Y-125498604D02*
X223183142Y-124784319D01*
X223183142Y-124784319D02*
X223183142Y-125784319D01*
X223706952Y-125784319D02*
X223897428Y-125784319D01*
X223897428Y-125784319D02*
X223992666Y-125736700D01*
X223992666Y-125736700D02*
X224040285Y-125689080D01*
X224040285Y-125689080D02*
X224135523Y-125546223D01*
X224135523Y-125546223D02*
X224183142Y-125355747D01*
X224183142Y-125355747D02*
X224183142Y-124974795D01*
X224183142Y-124974795D02*
X224135523Y-124879557D01*
X224135523Y-124879557D02*
X224087904Y-124831938D01*
X224087904Y-124831938D02*
X223992666Y-124784319D01*
X223992666Y-124784319D02*
X223802190Y-124784319D01*
X223802190Y-124784319D02*
X223706952Y-124831938D01*
X223706952Y-124831938D02*
X223659333Y-124879557D01*
X223659333Y-124879557D02*
X223611714Y-124974795D01*
X223611714Y-124974795D02*
X223611714Y-125212890D01*
X223611714Y-125212890D02*
X223659333Y-125308128D01*
X223659333Y-125308128D02*
X223706952Y-125355747D01*
X223706952Y-125355747D02*
X223802190Y-125403366D01*
X223802190Y-125403366D02*
X223992666Y-125403366D01*
X223992666Y-125403366D02*
X224087904Y-125355747D01*
X224087904Y-125355747D02*
X224135523Y-125308128D01*
X224135523Y-125308128D02*
X224183142Y-125212890D01*
X233470286Y-125784319D02*
X233470286Y-124784319D01*
X233470286Y-124784319D02*
X233803619Y-125498604D01*
X233803619Y-125498604D02*
X234136952Y-124784319D01*
X234136952Y-124784319D02*
X234136952Y-125784319D01*
X235136952Y-125784319D02*
X234565524Y-125784319D01*
X234851238Y-125784319D02*
X234851238Y-124784319D01*
X234851238Y-124784319D02*
X234756000Y-124927176D01*
X234756000Y-124927176D02*
X234660762Y-125022414D01*
X234660762Y-125022414D02*
X234565524Y-125070033D01*
X236089333Y-125784319D02*
X235517905Y-125784319D01*
X235803619Y-125784319D02*
X235803619Y-124784319D01*
X235803619Y-124784319D02*
X235708381Y-124927176D01*
X235708381Y-124927176D02*
X235613143Y-125022414D01*
X235613143Y-125022414D02*
X235517905Y-125070033D01*
X215987333Y-133296819D02*
X215654000Y-132820628D01*
X215415905Y-133296819D02*
X215415905Y-132296819D01*
X215415905Y-132296819D02*
X215796857Y-132296819D01*
X215796857Y-132296819D02*
X215892095Y-132344438D01*
X215892095Y-132344438D02*
X215939714Y-132392057D01*
X215939714Y-132392057D02*
X215987333Y-132487295D01*
X215987333Y-132487295D02*
X215987333Y-132630152D01*
X215987333Y-132630152D02*
X215939714Y-132725390D01*
X215939714Y-132725390D02*
X215892095Y-132773009D01*
X215892095Y-132773009D02*
X215796857Y-132820628D01*
X215796857Y-132820628D02*
X215415905Y-132820628D01*
X216463524Y-133296819D02*
X216654000Y-133296819D01*
X216654000Y-133296819D02*
X216749238Y-133249200D01*
X216749238Y-133249200D02*
X216796857Y-133201580D01*
X216796857Y-133201580D02*
X216892095Y-133058723D01*
X216892095Y-133058723D02*
X216939714Y-132868247D01*
X216939714Y-132868247D02*
X216939714Y-132487295D01*
X216939714Y-132487295D02*
X216892095Y-132392057D01*
X216892095Y-132392057D02*
X216844476Y-132344438D01*
X216844476Y-132344438D02*
X216749238Y-132296819D01*
X216749238Y-132296819D02*
X216558762Y-132296819D01*
X216558762Y-132296819D02*
X216463524Y-132344438D01*
X216463524Y-132344438D02*
X216415905Y-132392057D01*
X216415905Y-132392057D02*
X216368286Y-132487295D01*
X216368286Y-132487295D02*
X216368286Y-132725390D01*
X216368286Y-132725390D02*
X216415905Y-132820628D01*
X216415905Y-132820628D02*
X216463524Y-132868247D01*
X216463524Y-132868247D02*
X216558762Y-132915866D01*
X216558762Y-132915866D02*
X216749238Y-132915866D01*
X216749238Y-132915866D02*
X216844476Y-132868247D01*
X216844476Y-132868247D02*
X216892095Y-132820628D01*
X216892095Y-132820628D02*
X216939714Y-132725390D01*
X193663819Y-107002404D02*
X194473342Y-107002404D01*
X194473342Y-107002404D02*
X194568580Y-106954785D01*
X194568580Y-106954785D02*
X194616200Y-106907166D01*
X194616200Y-106907166D02*
X194663819Y-106811928D01*
X194663819Y-106811928D02*
X194663819Y-106621452D01*
X194663819Y-106621452D02*
X194616200Y-106526214D01*
X194616200Y-106526214D02*
X194568580Y-106478595D01*
X194568580Y-106478595D02*
X194473342Y-106430976D01*
X194473342Y-106430976D02*
X193663819Y-106430976D01*
X193663819Y-106050023D02*
X193663819Y-105383357D01*
X193663819Y-105383357D02*
X194663819Y-105811928D01*
X193801142Y-101047819D02*
X193467809Y-100571628D01*
X193229714Y-101047819D02*
X193229714Y-100047819D01*
X193229714Y-100047819D02*
X193610666Y-100047819D01*
X193610666Y-100047819D02*
X193705904Y-100095438D01*
X193705904Y-100095438D02*
X193753523Y-100143057D01*
X193753523Y-100143057D02*
X193801142Y-100238295D01*
X193801142Y-100238295D02*
X193801142Y-100381152D01*
X193801142Y-100381152D02*
X193753523Y-100476390D01*
X193753523Y-100476390D02*
X193705904Y-100524009D01*
X193705904Y-100524009D02*
X193610666Y-100571628D01*
X193610666Y-100571628D02*
X193229714Y-100571628D01*
X194182095Y-100143057D02*
X194229714Y-100095438D01*
X194229714Y-100095438D02*
X194324952Y-100047819D01*
X194324952Y-100047819D02*
X194563047Y-100047819D01*
X194563047Y-100047819D02*
X194658285Y-100095438D01*
X194658285Y-100095438D02*
X194705904Y-100143057D01*
X194705904Y-100143057D02*
X194753523Y-100238295D01*
X194753523Y-100238295D02*
X194753523Y-100333533D01*
X194753523Y-100333533D02*
X194705904Y-100476390D01*
X194705904Y-100476390D02*
X194134476Y-101047819D01*
X194134476Y-101047819D02*
X194753523Y-101047819D01*
X195324952Y-100476390D02*
X195229714Y-100428771D01*
X195229714Y-100428771D02*
X195182095Y-100381152D01*
X195182095Y-100381152D02*
X195134476Y-100285914D01*
X195134476Y-100285914D02*
X195134476Y-100238295D01*
X195134476Y-100238295D02*
X195182095Y-100143057D01*
X195182095Y-100143057D02*
X195229714Y-100095438D01*
X195229714Y-100095438D02*
X195324952Y-100047819D01*
X195324952Y-100047819D02*
X195515428Y-100047819D01*
X195515428Y-100047819D02*
X195610666Y-100095438D01*
X195610666Y-100095438D02*
X195658285Y-100143057D01*
X195658285Y-100143057D02*
X195705904Y-100238295D01*
X195705904Y-100238295D02*
X195705904Y-100285914D01*
X195705904Y-100285914D02*
X195658285Y-100381152D01*
X195658285Y-100381152D02*
X195610666Y-100428771D01*
X195610666Y-100428771D02*
X195515428Y-100476390D01*
X195515428Y-100476390D02*
X195324952Y-100476390D01*
X195324952Y-100476390D02*
X195229714Y-100524009D01*
X195229714Y-100524009D02*
X195182095Y-100571628D01*
X195182095Y-100571628D02*
X195134476Y-100666866D01*
X195134476Y-100666866D02*
X195134476Y-100857342D01*
X195134476Y-100857342D02*
X195182095Y-100952580D01*
X195182095Y-100952580D02*
X195229714Y-101000200D01*
X195229714Y-101000200D02*
X195324952Y-101047819D01*
X195324952Y-101047819D02*
X195515428Y-101047819D01*
X195515428Y-101047819D02*
X195610666Y-101000200D01*
X195610666Y-101000200D02*
X195658285Y-100952580D01*
X195658285Y-100952580D02*
X195705904Y-100857342D01*
X195705904Y-100857342D02*
X195705904Y-100666866D01*
X195705904Y-100666866D02*
X195658285Y-100571628D01*
X195658285Y-100571628D02*
X195610666Y-100524009D01*
X195610666Y-100524009D02*
X195515428Y-100476390D01*
X190655333Y-100982580D02*
X190607714Y-101030200D01*
X190607714Y-101030200D02*
X190464857Y-101077819D01*
X190464857Y-101077819D02*
X190369619Y-101077819D01*
X190369619Y-101077819D02*
X190226762Y-101030200D01*
X190226762Y-101030200D02*
X190131524Y-100934961D01*
X190131524Y-100934961D02*
X190083905Y-100839723D01*
X190083905Y-100839723D02*
X190036286Y-100649247D01*
X190036286Y-100649247D02*
X190036286Y-100506390D01*
X190036286Y-100506390D02*
X190083905Y-100315914D01*
X190083905Y-100315914D02*
X190131524Y-100220676D01*
X190131524Y-100220676D02*
X190226762Y-100125438D01*
X190226762Y-100125438D02*
X190369619Y-100077819D01*
X190369619Y-100077819D02*
X190464857Y-100077819D01*
X190464857Y-100077819D02*
X190607714Y-100125438D01*
X190607714Y-100125438D02*
X190655333Y-100173057D01*
X190988667Y-100077819D02*
X191607714Y-100077819D01*
X191607714Y-100077819D02*
X191274381Y-100458771D01*
X191274381Y-100458771D02*
X191417238Y-100458771D01*
X191417238Y-100458771D02*
X191512476Y-100506390D01*
X191512476Y-100506390D02*
X191560095Y-100554009D01*
X191560095Y-100554009D02*
X191607714Y-100649247D01*
X191607714Y-100649247D02*
X191607714Y-100887342D01*
X191607714Y-100887342D02*
X191560095Y-100982580D01*
X191560095Y-100982580D02*
X191512476Y-101030200D01*
X191512476Y-101030200D02*
X191417238Y-101077819D01*
X191417238Y-101077819D02*
X191131524Y-101077819D01*
X191131524Y-101077819D02*
X191036286Y-101030200D01*
X191036286Y-101030200D02*
X190988667Y-100982580D01*
X229377642Y-100910819D02*
X229044309Y-100434628D01*
X228806214Y-100910819D02*
X228806214Y-99910819D01*
X228806214Y-99910819D02*
X229187166Y-99910819D01*
X229187166Y-99910819D02*
X229282404Y-99958438D01*
X229282404Y-99958438D02*
X229330023Y-100006057D01*
X229330023Y-100006057D02*
X229377642Y-100101295D01*
X229377642Y-100101295D02*
X229377642Y-100244152D01*
X229377642Y-100244152D02*
X229330023Y-100339390D01*
X229330023Y-100339390D02*
X229282404Y-100387009D01*
X229282404Y-100387009D02*
X229187166Y-100434628D01*
X229187166Y-100434628D02*
X228806214Y-100434628D01*
X229710976Y-99910819D02*
X230330023Y-99910819D01*
X230330023Y-99910819D02*
X229996690Y-100291771D01*
X229996690Y-100291771D02*
X230139547Y-100291771D01*
X230139547Y-100291771D02*
X230234785Y-100339390D01*
X230234785Y-100339390D02*
X230282404Y-100387009D01*
X230282404Y-100387009D02*
X230330023Y-100482247D01*
X230330023Y-100482247D02*
X230330023Y-100720342D01*
X230330023Y-100720342D02*
X230282404Y-100815580D01*
X230282404Y-100815580D02*
X230234785Y-100863200D01*
X230234785Y-100863200D02*
X230139547Y-100910819D01*
X230139547Y-100910819D02*
X229853833Y-100910819D01*
X229853833Y-100910819D02*
X229758595Y-100863200D01*
X229758595Y-100863200D02*
X229710976Y-100815580D01*
X231234785Y-99910819D02*
X230758595Y-99910819D01*
X230758595Y-99910819D02*
X230710976Y-100387009D01*
X230710976Y-100387009D02*
X230758595Y-100339390D01*
X230758595Y-100339390D02*
X230853833Y-100291771D01*
X230853833Y-100291771D02*
X231091928Y-100291771D01*
X231091928Y-100291771D02*
X231187166Y-100339390D01*
X231187166Y-100339390D02*
X231234785Y-100387009D01*
X231234785Y-100387009D02*
X231282404Y-100482247D01*
X231282404Y-100482247D02*
X231282404Y-100720342D01*
X231282404Y-100720342D02*
X231234785Y-100815580D01*
X231234785Y-100815580D02*
X231187166Y-100863200D01*
X231187166Y-100863200D02*
X231091928Y-100910819D01*
X231091928Y-100910819D02*
X230853833Y-100910819D01*
X230853833Y-100910819D02*
X230758595Y-100863200D01*
X230758595Y-100863200D02*
X230710976Y-100815580D01*
X226260333Y-100845580D02*
X226212714Y-100893200D01*
X226212714Y-100893200D02*
X226069857Y-100940819D01*
X226069857Y-100940819D02*
X225974619Y-100940819D01*
X225974619Y-100940819D02*
X225831762Y-100893200D01*
X225831762Y-100893200D02*
X225736524Y-100797961D01*
X225736524Y-100797961D02*
X225688905Y-100702723D01*
X225688905Y-100702723D02*
X225641286Y-100512247D01*
X225641286Y-100512247D02*
X225641286Y-100369390D01*
X225641286Y-100369390D02*
X225688905Y-100178914D01*
X225688905Y-100178914D02*
X225736524Y-100083676D01*
X225736524Y-100083676D02*
X225831762Y-99988438D01*
X225831762Y-99988438D02*
X225974619Y-99940819D01*
X225974619Y-99940819D02*
X226069857Y-99940819D01*
X226069857Y-99940819D02*
X226212714Y-99988438D01*
X226212714Y-99988438D02*
X226260333Y-100036057D01*
X227117476Y-100274152D02*
X227117476Y-100940819D01*
X226879381Y-99893200D02*
X226641286Y-100607485D01*
X226641286Y-100607485D02*
X227260333Y-100607485D01*
X194516476Y-125422819D02*
X194516476Y-124422819D01*
X194516476Y-124422819D02*
X194849809Y-125137104D01*
X194849809Y-125137104D02*
X195183142Y-124422819D01*
X195183142Y-124422819D02*
X195183142Y-125422819D01*
X196135523Y-124422819D02*
X195659333Y-124422819D01*
X195659333Y-124422819D02*
X195611714Y-124899009D01*
X195611714Y-124899009D02*
X195659333Y-124851390D01*
X195659333Y-124851390D02*
X195754571Y-124803771D01*
X195754571Y-124803771D02*
X195992666Y-124803771D01*
X195992666Y-124803771D02*
X196087904Y-124851390D01*
X196087904Y-124851390D02*
X196135523Y-124899009D01*
X196135523Y-124899009D02*
X196183142Y-124994247D01*
X196183142Y-124994247D02*
X196183142Y-125232342D01*
X196183142Y-125232342D02*
X196135523Y-125327580D01*
X196135523Y-125327580D02*
X196087904Y-125375200D01*
X196087904Y-125375200D02*
X195992666Y-125422819D01*
X195992666Y-125422819D02*
X195754571Y-125422819D01*
X195754571Y-125422819D02*
X195659333Y-125375200D01*
X195659333Y-125375200D02*
X195611714Y-125327580D01*
X182713333Y-132788819D02*
X182380000Y-132312628D01*
X182141905Y-132788819D02*
X182141905Y-131788819D01*
X182141905Y-131788819D02*
X182522857Y-131788819D01*
X182522857Y-131788819D02*
X182618095Y-131836438D01*
X182618095Y-131836438D02*
X182665714Y-131884057D01*
X182665714Y-131884057D02*
X182713333Y-131979295D01*
X182713333Y-131979295D02*
X182713333Y-132122152D01*
X182713333Y-132122152D02*
X182665714Y-132217390D01*
X182665714Y-132217390D02*
X182618095Y-132265009D01*
X182618095Y-132265009D02*
X182522857Y-132312628D01*
X182522857Y-132312628D02*
X182141905Y-132312628D01*
X183570476Y-131788819D02*
X183380000Y-131788819D01*
X183380000Y-131788819D02*
X183284762Y-131836438D01*
X183284762Y-131836438D02*
X183237143Y-131884057D01*
X183237143Y-131884057D02*
X183141905Y-132026914D01*
X183141905Y-132026914D02*
X183094286Y-132217390D01*
X183094286Y-132217390D02*
X183094286Y-132598342D01*
X183094286Y-132598342D02*
X183141905Y-132693580D01*
X183141905Y-132693580D02*
X183189524Y-132741200D01*
X183189524Y-132741200D02*
X183284762Y-132788819D01*
X183284762Y-132788819D02*
X183475238Y-132788819D01*
X183475238Y-132788819D02*
X183570476Y-132741200D01*
X183570476Y-132741200D02*
X183618095Y-132693580D01*
X183618095Y-132693580D02*
X183665714Y-132598342D01*
X183665714Y-132598342D02*
X183665714Y-132360247D01*
X183665714Y-132360247D02*
X183618095Y-132265009D01*
X183618095Y-132265009D02*
X183570476Y-132217390D01*
X183570476Y-132217390D02*
X183475238Y-132169771D01*
X183475238Y-132169771D02*
X183284762Y-132169771D01*
X183284762Y-132169771D02*
X183189524Y-132217390D01*
X183189524Y-132217390D02*
X183141905Y-132265009D01*
X183141905Y-132265009D02*
X183094286Y-132360247D01*
X171904819Y-122562857D02*
X171428628Y-122896190D01*
X171904819Y-123134285D02*
X170904819Y-123134285D01*
X170904819Y-123134285D02*
X170904819Y-122753333D01*
X170904819Y-122753333D02*
X170952438Y-122658095D01*
X170952438Y-122658095D02*
X171000057Y-122610476D01*
X171000057Y-122610476D02*
X171095295Y-122562857D01*
X171095295Y-122562857D02*
X171238152Y-122562857D01*
X171238152Y-122562857D02*
X171333390Y-122610476D01*
X171333390Y-122610476D02*
X171381009Y-122658095D01*
X171381009Y-122658095D02*
X171428628Y-122753333D01*
X171428628Y-122753333D02*
X171428628Y-123134285D01*
X171904819Y-121610476D02*
X171904819Y-122181904D01*
X171904819Y-121896190D02*
X170904819Y-121896190D01*
X170904819Y-121896190D02*
X171047676Y-121991428D01*
X171047676Y-121991428D02*
X171142914Y-122086666D01*
X171142914Y-122086666D02*
X171190533Y-122181904D01*
X170904819Y-121277142D02*
X170904819Y-120658095D01*
X170904819Y-120658095D02*
X171285771Y-120991428D01*
X171285771Y-120991428D02*
X171285771Y-120848571D01*
X171285771Y-120848571D02*
X171333390Y-120753333D01*
X171333390Y-120753333D02*
X171381009Y-120705714D01*
X171381009Y-120705714D02*
X171476247Y-120658095D01*
X171476247Y-120658095D02*
X171714342Y-120658095D01*
X171714342Y-120658095D02*
X171809580Y-120705714D01*
X171809580Y-120705714D02*
X171857200Y-120753333D01*
X171857200Y-120753333D02*
X171904819Y-120848571D01*
X171904819Y-120848571D02*
X171904819Y-121134285D01*
X171904819Y-121134285D02*
X171857200Y-121229523D01*
X171857200Y-121229523D02*
X171809580Y-121277142D01*
X132177319Y-90455357D02*
X131701128Y-90788690D01*
X132177319Y-91026785D02*
X131177319Y-91026785D01*
X131177319Y-91026785D02*
X131177319Y-90645833D01*
X131177319Y-90645833D02*
X131224938Y-90550595D01*
X131224938Y-90550595D02*
X131272557Y-90502976D01*
X131272557Y-90502976D02*
X131367795Y-90455357D01*
X131367795Y-90455357D02*
X131510652Y-90455357D01*
X131510652Y-90455357D02*
X131605890Y-90502976D01*
X131605890Y-90502976D02*
X131653509Y-90550595D01*
X131653509Y-90550595D02*
X131701128Y-90645833D01*
X131701128Y-90645833D02*
X131701128Y-91026785D01*
X132177319Y-89502976D02*
X132177319Y-90074404D01*
X132177319Y-89788690D02*
X131177319Y-89788690D01*
X131177319Y-89788690D02*
X131320176Y-89883928D01*
X131320176Y-89883928D02*
X131415414Y-89979166D01*
X131415414Y-89979166D02*
X131463033Y-90074404D01*
X131510652Y-88645833D02*
X132177319Y-88645833D01*
X131129700Y-88883928D02*
X131843985Y-89122023D01*
X131843985Y-89122023D02*
X131843985Y-88502976D01*
X140404476Y-121198819D02*
X140404476Y-120198819D01*
X140404476Y-120198819D02*
X140737809Y-120913104D01*
X140737809Y-120913104D02*
X141071142Y-120198819D01*
X141071142Y-120198819D02*
X141071142Y-121198819D01*
X141452095Y-120198819D02*
X142118761Y-120198819D01*
X142118761Y-120198819D02*
X141690190Y-121198819D01*
X134186819Y-70549166D02*
X133710628Y-70882499D01*
X134186819Y-71120594D02*
X133186819Y-71120594D01*
X133186819Y-71120594D02*
X133186819Y-70739642D01*
X133186819Y-70739642D02*
X133234438Y-70644404D01*
X133234438Y-70644404D02*
X133282057Y-70596785D01*
X133282057Y-70596785D02*
X133377295Y-70549166D01*
X133377295Y-70549166D02*
X133520152Y-70549166D01*
X133520152Y-70549166D02*
X133615390Y-70596785D01*
X133615390Y-70596785D02*
X133663009Y-70644404D01*
X133663009Y-70644404D02*
X133710628Y-70739642D01*
X133710628Y-70739642D02*
X133710628Y-71120594D01*
X134186819Y-69596785D02*
X134186819Y-70168213D01*
X134186819Y-69882499D02*
X133186819Y-69882499D01*
X133186819Y-69882499D02*
X133329676Y-69977737D01*
X133329676Y-69977737D02*
X133424914Y-70072975D01*
X133424914Y-70072975D02*
X133472533Y-70168213D01*
X211848476Y-125784319D02*
X211848476Y-124784319D01*
X211848476Y-124784319D02*
X212181809Y-125498604D01*
X212181809Y-125498604D02*
X212515142Y-124784319D01*
X212515142Y-124784319D02*
X212515142Y-125784319D01*
X213515142Y-125784319D02*
X212943714Y-125784319D01*
X213229428Y-125784319D02*
X213229428Y-124784319D01*
X213229428Y-124784319D02*
X213134190Y-124927176D01*
X213134190Y-124927176D02*
X213038952Y-125022414D01*
X213038952Y-125022414D02*
X212943714Y-125070033D01*
X180173333Y-132788819D02*
X179840000Y-132312628D01*
X179601905Y-132788819D02*
X179601905Y-131788819D01*
X179601905Y-131788819D02*
X179982857Y-131788819D01*
X179982857Y-131788819D02*
X180078095Y-131836438D01*
X180078095Y-131836438D02*
X180125714Y-131884057D01*
X180125714Y-131884057D02*
X180173333Y-131979295D01*
X180173333Y-131979295D02*
X180173333Y-132122152D01*
X180173333Y-132122152D02*
X180125714Y-132217390D01*
X180125714Y-132217390D02*
X180078095Y-132265009D01*
X180078095Y-132265009D02*
X179982857Y-132312628D01*
X179982857Y-132312628D02*
X179601905Y-132312628D01*
X180506667Y-131788819D02*
X181173333Y-131788819D01*
X181173333Y-131788819D02*
X180744762Y-132788819D01*
X144613333Y-68146819D02*
X144280000Y-67670628D01*
X144041905Y-68146819D02*
X144041905Y-67146819D01*
X144041905Y-67146819D02*
X144422857Y-67146819D01*
X144422857Y-67146819D02*
X144518095Y-67194438D01*
X144518095Y-67194438D02*
X144565714Y-67242057D01*
X144565714Y-67242057D02*
X144613333Y-67337295D01*
X144613333Y-67337295D02*
X144613333Y-67480152D01*
X144613333Y-67480152D02*
X144565714Y-67575390D01*
X144565714Y-67575390D02*
X144518095Y-67623009D01*
X144518095Y-67623009D02*
X144422857Y-67670628D01*
X144422857Y-67670628D02*
X144041905Y-67670628D01*
X144994286Y-67242057D02*
X145041905Y-67194438D01*
X145041905Y-67194438D02*
X145137143Y-67146819D01*
X145137143Y-67146819D02*
X145375238Y-67146819D01*
X145375238Y-67146819D02*
X145470476Y-67194438D01*
X145470476Y-67194438D02*
X145518095Y-67242057D01*
X145518095Y-67242057D02*
X145565714Y-67337295D01*
X145565714Y-67337295D02*
X145565714Y-67432533D01*
X145565714Y-67432533D02*
X145518095Y-67575390D01*
X145518095Y-67575390D02*
X144946667Y-68146819D01*
X144946667Y-68146819D02*
X145565714Y-68146819D01*
X131572095Y-32982819D02*
X131572095Y-33792342D01*
X131572095Y-33792342D02*
X131619714Y-33887580D01*
X131619714Y-33887580D02*
X131667333Y-33935200D01*
X131667333Y-33935200D02*
X131762571Y-33982819D01*
X131762571Y-33982819D02*
X131953047Y-33982819D01*
X131953047Y-33982819D02*
X132048285Y-33935200D01*
X132048285Y-33935200D02*
X132095904Y-33887580D01*
X132095904Y-33887580D02*
X132143523Y-33792342D01*
X132143523Y-33792342D02*
X132143523Y-32982819D01*
X132572095Y-33078057D02*
X132619714Y-33030438D01*
X132619714Y-33030438D02*
X132714952Y-32982819D01*
X132714952Y-32982819D02*
X132953047Y-32982819D01*
X132953047Y-32982819D02*
X133048285Y-33030438D01*
X133048285Y-33030438D02*
X133095904Y-33078057D01*
X133095904Y-33078057D02*
X133143523Y-33173295D01*
X133143523Y-33173295D02*
X133143523Y-33268533D01*
X133143523Y-33268533D02*
X133095904Y-33411390D01*
X133095904Y-33411390D02*
X132524476Y-33982819D01*
X132524476Y-33982819D02*
X133143523Y-33982819D01*
X185253333Y-132788819D02*
X184920000Y-132312628D01*
X184681905Y-132788819D02*
X184681905Y-131788819D01*
X184681905Y-131788819D02*
X185062857Y-131788819D01*
X185062857Y-131788819D02*
X185158095Y-131836438D01*
X185158095Y-131836438D02*
X185205714Y-131884057D01*
X185205714Y-131884057D02*
X185253333Y-131979295D01*
X185253333Y-131979295D02*
X185253333Y-132122152D01*
X185253333Y-132122152D02*
X185205714Y-132217390D01*
X185205714Y-132217390D02*
X185158095Y-132265009D01*
X185158095Y-132265009D02*
X185062857Y-132312628D01*
X185062857Y-132312628D02*
X184681905Y-132312628D01*
X185586667Y-131788819D02*
X186205714Y-131788819D01*
X186205714Y-131788819D02*
X185872381Y-132169771D01*
X185872381Y-132169771D02*
X186015238Y-132169771D01*
X186015238Y-132169771D02*
X186110476Y-132217390D01*
X186110476Y-132217390D02*
X186158095Y-132265009D01*
X186158095Y-132265009D02*
X186205714Y-132360247D01*
X186205714Y-132360247D02*
X186205714Y-132598342D01*
X186205714Y-132598342D02*
X186158095Y-132693580D01*
X186158095Y-132693580D02*
X186110476Y-132741200D01*
X186110476Y-132741200D02*
X186015238Y-132788819D01*
X186015238Y-132788819D02*
X185729524Y-132788819D01*
X185729524Y-132788819D02*
X185634286Y-132741200D01*
X185634286Y-132741200D02*
X185586667Y-132693580D01*
X224147142Y-133296819D02*
X223813809Y-132820628D01*
X223575714Y-133296819D02*
X223575714Y-132296819D01*
X223575714Y-132296819D02*
X223956666Y-132296819D01*
X223956666Y-132296819D02*
X224051904Y-132344438D01*
X224051904Y-132344438D02*
X224099523Y-132392057D01*
X224099523Y-132392057D02*
X224147142Y-132487295D01*
X224147142Y-132487295D02*
X224147142Y-132630152D01*
X224147142Y-132630152D02*
X224099523Y-132725390D01*
X224099523Y-132725390D02*
X224051904Y-132773009D01*
X224051904Y-132773009D02*
X223956666Y-132820628D01*
X223956666Y-132820628D02*
X223575714Y-132820628D01*
X225099523Y-133296819D02*
X224528095Y-133296819D01*
X224813809Y-133296819D02*
X224813809Y-132296819D01*
X224813809Y-132296819D02*
X224718571Y-132439676D01*
X224718571Y-132439676D02*
X224623333Y-132534914D01*
X224623333Y-132534914D02*
X224528095Y-132582533D01*
X225480476Y-132392057D02*
X225528095Y-132344438D01*
X225528095Y-132344438D02*
X225623333Y-132296819D01*
X225623333Y-132296819D02*
X225861428Y-132296819D01*
X225861428Y-132296819D02*
X225956666Y-132344438D01*
X225956666Y-132344438D02*
X226004285Y-132392057D01*
X226004285Y-132392057D02*
X226051904Y-132487295D01*
X226051904Y-132487295D02*
X226051904Y-132582533D01*
X226051904Y-132582533D02*
X226004285Y-132725390D01*
X226004285Y-132725390D02*
X225432857Y-133296819D01*
X225432857Y-133296819D02*
X226051904Y-133296819D01*
X94016666Y-83386819D02*
X94016666Y-84101104D01*
X94016666Y-84101104D02*
X93969047Y-84243961D01*
X93969047Y-84243961D02*
X93873809Y-84339200D01*
X93873809Y-84339200D02*
X93730952Y-84386819D01*
X93730952Y-84386819D02*
X93635714Y-84386819D01*
X95016666Y-84386819D02*
X94445238Y-84386819D01*
X94730952Y-84386819D02*
X94730952Y-83386819D01*
X94730952Y-83386819D02*
X94635714Y-83529676D01*
X94635714Y-83529676D02*
X94540476Y-83624914D01*
X94540476Y-83624914D02*
X94445238Y-83672533D01*
X201544819Y-64007904D02*
X202354342Y-64007904D01*
X202354342Y-64007904D02*
X202449580Y-63960285D01*
X202449580Y-63960285D02*
X202497200Y-63912666D01*
X202497200Y-63912666D02*
X202544819Y-63817428D01*
X202544819Y-63817428D02*
X202544819Y-63626952D01*
X202544819Y-63626952D02*
X202497200Y-63531714D01*
X202497200Y-63531714D02*
X202449580Y-63484095D01*
X202449580Y-63484095D02*
X202354342Y-63436476D01*
X202354342Y-63436476D02*
X201544819Y-63436476D01*
X201878152Y-62531714D02*
X202544819Y-62531714D01*
X201497200Y-62769809D02*
X202211485Y-63007904D01*
X202211485Y-63007904D02*
X202211485Y-62388857D01*
X137025142Y-123136819D02*
X136691809Y-122660628D01*
X136453714Y-123136819D02*
X136453714Y-122136819D01*
X136453714Y-122136819D02*
X136834666Y-122136819D01*
X136834666Y-122136819D02*
X136929904Y-122184438D01*
X136929904Y-122184438D02*
X136977523Y-122232057D01*
X136977523Y-122232057D02*
X137025142Y-122327295D01*
X137025142Y-122327295D02*
X137025142Y-122470152D01*
X137025142Y-122470152D02*
X136977523Y-122565390D01*
X136977523Y-122565390D02*
X136929904Y-122613009D01*
X136929904Y-122613009D02*
X136834666Y-122660628D01*
X136834666Y-122660628D02*
X136453714Y-122660628D01*
X137977523Y-123136819D02*
X137406095Y-123136819D01*
X137691809Y-123136819D02*
X137691809Y-122136819D01*
X137691809Y-122136819D02*
X137596571Y-122279676D01*
X137596571Y-122279676D02*
X137501333Y-122374914D01*
X137501333Y-122374914D02*
X137406095Y-122422533D01*
X138834666Y-122136819D02*
X138644190Y-122136819D01*
X138644190Y-122136819D02*
X138548952Y-122184438D01*
X138548952Y-122184438D02*
X138501333Y-122232057D01*
X138501333Y-122232057D02*
X138406095Y-122374914D01*
X138406095Y-122374914D02*
X138358476Y-122565390D01*
X138358476Y-122565390D02*
X138358476Y-122946342D01*
X138358476Y-122946342D02*
X138406095Y-123041580D01*
X138406095Y-123041580D02*
X138453714Y-123089200D01*
X138453714Y-123089200D02*
X138548952Y-123136819D01*
X138548952Y-123136819D02*
X138739428Y-123136819D01*
X138739428Y-123136819D02*
X138834666Y-123089200D01*
X138834666Y-123089200D02*
X138882285Y-123041580D01*
X138882285Y-123041580D02*
X138929904Y-122946342D01*
X138929904Y-122946342D02*
X138929904Y-122708247D01*
X138929904Y-122708247D02*
X138882285Y-122613009D01*
X138882285Y-122613009D02*
X138834666Y-122565390D01*
X138834666Y-122565390D02*
X138739428Y-122517771D01*
X138739428Y-122517771D02*
X138548952Y-122517771D01*
X138548952Y-122517771D02*
X138453714Y-122565390D01*
X138453714Y-122565390D02*
X138406095Y-122613009D01*
X138406095Y-122613009D02*
X138358476Y-122708247D01*
X213193333Y-133296819D02*
X212860000Y-132820628D01*
X212621905Y-133296819D02*
X212621905Y-132296819D01*
X212621905Y-132296819D02*
X213002857Y-132296819D01*
X213002857Y-132296819D02*
X213098095Y-132344438D01*
X213098095Y-132344438D02*
X213145714Y-132392057D01*
X213145714Y-132392057D02*
X213193333Y-132487295D01*
X213193333Y-132487295D02*
X213193333Y-132630152D01*
X213193333Y-132630152D02*
X213145714Y-132725390D01*
X213145714Y-132725390D02*
X213098095Y-132773009D01*
X213098095Y-132773009D02*
X213002857Y-132820628D01*
X213002857Y-132820628D02*
X212621905Y-132820628D01*
X213764762Y-132725390D02*
X213669524Y-132677771D01*
X213669524Y-132677771D02*
X213621905Y-132630152D01*
X213621905Y-132630152D02*
X213574286Y-132534914D01*
X213574286Y-132534914D02*
X213574286Y-132487295D01*
X213574286Y-132487295D02*
X213621905Y-132392057D01*
X213621905Y-132392057D02*
X213669524Y-132344438D01*
X213669524Y-132344438D02*
X213764762Y-132296819D01*
X213764762Y-132296819D02*
X213955238Y-132296819D01*
X213955238Y-132296819D02*
X214050476Y-132344438D01*
X214050476Y-132344438D02*
X214098095Y-132392057D01*
X214098095Y-132392057D02*
X214145714Y-132487295D01*
X214145714Y-132487295D02*
X214145714Y-132534914D01*
X214145714Y-132534914D02*
X214098095Y-132630152D01*
X214098095Y-132630152D02*
X214050476Y-132677771D01*
X214050476Y-132677771D02*
X213955238Y-132725390D01*
X213955238Y-132725390D02*
X213764762Y-132725390D01*
X213764762Y-132725390D02*
X213669524Y-132773009D01*
X213669524Y-132773009D02*
X213621905Y-132820628D01*
X213621905Y-132820628D02*
X213574286Y-132915866D01*
X213574286Y-132915866D02*
X213574286Y-133106342D01*
X213574286Y-133106342D02*
X213621905Y-133201580D01*
X213621905Y-133201580D02*
X213669524Y-133249200D01*
X213669524Y-133249200D02*
X213764762Y-133296819D01*
X213764762Y-133296819D02*
X213955238Y-133296819D01*
X213955238Y-133296819D02*
X214050476Y-133249200D01*
X214050476Y-133249200D02*
X214098095Y-133201580D01*
X214098095Y-133201580D02*
X214145714Y-133106342D01*
X214145714Y-133106342D02*
X214145714Y-132915866D01*
X214145714Y-132915866D02*
X214098095Y-132820628D01*
X214098095Y-132820628D02*
X214050476Y-132773009D01*
X214050476Y-132773009D02*
X213955238Y-132725390D01*
X189436476Y-125516819D02*
X189436476Y-124516819D01*
X189436476Y-124516819D02*
X189769809Y-125231104D01*
X189769809Y-125231104D02*
X190103142Y-124516819D01*
X190103142Y-124516819D02*
X190103142Y-125516819D01*
X191007904Y-124850152D02*
X191007904Y-125516819D01*
X190769809Y-124469200D02*
X190531714Y-125183485D01*
X190531714Y-125183485D02*
X191150761Y-125183485D01*
X190587333Y-132788819D02*
X190254000Y-132312628D01*
X190015905Y-132788819D02*
X190015905Y-131788819D01*
X190015905Y-131788819D02*
X190396857Y-131788819D01*
X190396857Y-131788819D02*
X190492095Y-131836438D01*
X190492095Y-131836438D02*
X190539714Y-131884057D01*
X190539714Y-131884057D02*
X190587333Y-131979295D01*
X190587333Y-131979295D02*
X190587333Y-132122152D01*
X190587333Y-132122152D02*
X190539714Y-132217390D01*
X190539714Y-132217390D02*
X190492095Y-132265009D01*
X190492095Y-132265009D02*
X190396857Y-132312628D01*
X190396857Y-132312628D02*
X190015905Y-132312628D01*
X191492095Y-131788819D02*
X191015905Y-131788819D01*
X191015905Y-131788819D02*
X190968286Y-132265009D01*
X190968286Y-132265009D02*
X191015905Y-132217390D01*
X191015905Y-132217390D02*
X191111143Y-132169771D01*
X191111143Y-132169771D02*
X191349238Y-132169771D01*
X191349238Y-132169771D02*
X191444476Y-132217390D01*
X191444476Y-132217390D02*
X191492095Y-132265009D01*
X191492095Y-132265009D02*
X191539714Y-132360247D01*
X191539714Y-132360247D02*
X191539714Y-132598342D01*
X191539714Y-132598342D02*
X191492095Y-132693580D01*
X191492095Y-132693580D02*
X191444476Y-132741200D01*
X191444476Y-132741200D02*
X191349238Y-132788819D01*
X191349238Y-132788819D02*
X191111143Y-132788819D01*
X191111143Y-132788819D02*
X191015905Y-132741200D01*
X191015905Y-132741200D02*
X190968286Y-132693580D01*
X187793333Y-132788819D02*
X187460000Y-132312628D01*
X187221905Y-132788819D02*
X187221905Y-131788819D01*
X187221905Y-131788819D02*
X187602857Y-131788819D01*
X187602857Y-131788819D02*
X187698095Y-131836438D01*
X187698095Y-131836438D02*
X187745714Y-131884057D01*
X187745714Y-131884057D02*
X187793333Y-131979295D01*
X187793333Y-131979295D02*
X187793333Y-132122152D01*
X187793333Y-132122152D02*
X187745714Y-132217390D01*
X187745714Y-132217390D02*
X187698095Y-132265009D01*
X187698095Y-132265009D02*
X187602857Y-132312628D01*
X187602857Y-132312628D02*
X187221905Y-132312628D01*
X188650476Y-132122152D02*
X188650476Y-132788819D01*
X188412381Y-131741200D02*
X188174286Y-132455485D01*
X188174286Y-132455485D02*
X188793333Y-132455485D01*
X112289333Y-89103580D02*
X112241714Y-89151200D01*
X112241714Y-89151200D02*
X112098857Y-89198819D01*
X112098857Y-89198819D02*
X112003619Y-89198819D01*
X112003619Y-89198819D02*
X111860762Y-89151200D01*
X111860762Y-89151200D02*
X111765524Y-89055961D01*
X111765524Y-89055961D02*
X111717905Y-88960723D01*
X111717905Y-88960723D02*
X111670286Y-88770247D01*
X111670286Y-88770247D02*
X111670286Y-88627390D01*
X111670286Y-88627390D02*
X111717905Y-88436914D01*
X111717905Y-88436914D02*
X111765524Y-88341676D01*
X111765524Y-88341676D02*
X111860762Y-88246438D01*
X111860762Y-88246438D02*
X112003619Y-88198819D01*
X112003619Y-88198819D02*
X112098857Y-88198819D01*
X112098857Y-88198819D02*
X112241714Y-88246438D01*
X112241714Y-88246438D02*
X112289333Y-88294057D01*
X113241714Y-89198819D02*
X112670286Y-89198819D01*
X112956000Y-89198819D02*
X112956000Y-88198819D01*
X112956000Y-88198819D02*
X112860762Y-88341676D01*
X112860762Y-88341676D02*
X112765524Y-88436914D01*
X112765524Y-88436914D02*
X112670286Y-88484533D01*
X184610476Y-125516819D02*
X184610476Y-124516819D01*
X184610476Y-124516819D02*
X184943809Y-125231104D01*
X184943809Y-125231104D02*
X185277142Y-124516819D01*
X185277142Y-124516819D02*
X185277142Y-125516819D01*
X185658095Y-124516819D02*
X186277142Y-124516819D01*
X186277142Y-124516819D02*
X185943809Y-124897771D01*
X185943809Y-124897771D02*
X186086666Y-124897771D01*
X186086666Y-124897771D02*
X186181904Y-124945390D01*
X186181904Y-124945390D02*
X186229523Y-124993009D01*
X186229523Y-124993009D02*
X186277142Y-125088247D01*
X186277142Y-125088247D02*
X186277142Y-125326342D01*
X186277142Y-125326342D02*
X186229523Y-125421580D01*
X186229523Y-125421580D02*
X186181904Y-125469200D01*
X186181904Y-125469200D02*
X186086666Y-125516819D01*
X186086666Y-125516819D02*
X185800952Y-125516819D01*
X185800952Y-125516819D02*
X185705714Y-125469200D01*
X185705714Y-125469200D02*
X185658095Y-125421580D01*
X179530476Y-125516819D02*
X179530476Y-124516819D01*
X179530476Y-124516819D02*
X179863809Y-125231104D01*
X179863809Y-125231104D02*
X180197142Y-124516819D01*
X180197142Y-124516819D02*
X180197142Y-125516819D01*
X180625714Y-124612057D02*
X180673333Y-124564438D01*
X180673333Y-124564438D02*
X180768571Y-124516819D01*
X180768571Y-124516819D02*
X181006666Y-124516819D01*
X181006666Y-124516819D02*
X181101904Y-124564438D01*
X181101904Y-124564438D02*
X181149523Y-124612057D01*
X181149523Y-124612057D02*
X181197142Y-124707295D01*
X181197142Y-124707295D02*
X181197142Y-124802533D01*
X181197142Y-124802533D02*
X181149523Y-124945390D01*
X181149523Y-124945390D02*
X180578095Y-125516819D01*
X180578095Y-125516819D02*
X181197142Y-125516819D01*
X199342476Y-125516819D02*
X199342476Y-124516819D01*
X199342476Y-124516819D02*
X199675809Y-125231104D01*
X199675809Y-125231104D02*
X200009142Y-124516819D01*
X200009142Y-124516819D02*
X200009142Y-125516819D01*
X200913904Y-124516819D02*
X200723428Y-124516819D01*
X200723428Y-124516819D02*
X200628190Y-124564438D01*
X200628190Y-124564438D02*
X200580571Y-124612057D01*
X200580571Y-124612057D02*
X200485333Y-124754914D01*
X200485333Y-124754914D02*
X200437714Y-124945390D01*
X200437714Y-124945390D02*
X200437714Y-125326342D01*
X200437714Y-125326342D02*
X200485333Y-125421580D01*
X200485333Y-125421580D02*
X200532952Y-125469200D01*
X200532952Y-125469200D02*
X200628190Y-125516819D01*
X200628190Y-125516819D02*
X200818666Y-125516819D01*
X200818666Y-125516819D02*
X200913904Y-125469200D01*
X200913904Y-125469200D02*
X200961523Y-125421580D01*
X200961523Y-125421580D02*
X201009142Y-125326342D01*
X201009142Y-125326342D02*
X201009142Y-125088247D01*
X201009142Y-125088247D02*
X200961523Y-124993009D01*
X200961523Y-124993009D02*
X200913904Y-124945390D01*
X200913904Y-124945390D02*
X200818666Y-124897771D01*
X200818666Y-124897771D02*
X200628190Y-124897771D01*
X200628190Y-124897771D02*
X200532952Y-124945390D01*
X200532952Y-124945390D02*
X200485333Y-124993009D01*
X200485333Y-124993009D02*
X200437714Y-125088247D01*
X198628095Y-32474819D02*
X198628095Y-33284342D01*
X198628095Y-33284342D02*
X198675714Y-33379580D01*
X198675714Y-33379580D02*
X198723333Y-33427200D01*
X198723333Y-33427200D02*
X198818571Y-33474819D01*
X198818571Y-33474819D02*
X199009047Y-33474819D01*
X199009047Y-33474819D02*
X199104285Y-33427200D01*
X199104285Y-33427200D02*
X199151904Y-33379580D01*
X199151904Y-33379580D02*
X199199523Y-33284342D01*
X199199523Y-33284342D02*
X199199523Y-32474819D01*
X200151904Y-32474819D02*
X199675714Y-32474819D01*
X199675714Y-32474819D02*
X199628095Y-32951009D01*
X199628095Y-32951009D02*
X199675714Y-32903390D01*
X199675714Y-32903390D02*
X199770952Y-32855771D01*
X199770952Y-32855771D02*
X200009047Y-32855771D01*
X200009047Y-32855771D02*
X200104285Y-32903390D01*
X200104285Y-32903390D02*
X200151904Y-32951009D01*
X200151904Y-32951009D02*
X200199523Y-33046247D01*
X200199523Y-33046247D02*
X200199523Y-33284342D01*
X200199523Y-33284342D02*
X200151904Y-33379580D01*
X200151904Y-33379580D02*
X200104285Y-33427200D01*
X200104285Y-33427200D02*
X200009047Y-33474819D01*
X200009047Y-33474819D02*
X199770952Y-33474819D01*
X199770952Y-33474819D02*
X199675714Y-33427200D01*
X199675714Y-33427200D02*
X199628095Y-33379580D01*
X143713642Y-84782819D02*
X143380309Y-84306628D01*
X143142214Y-84782819D02*
X143142214Y-83782819D01*
X143142214Y-83782819D02*
X143523166Y-83782819D01*
X143523166Y-83782819D02*
X143618404Y-83830438D01*
X143618404Y-83830438D02*
X143666023Y-83878057D01*
X143666023Y-83878057D02*
X143713642Y-83973295D01*
X143713642Y-83973295D02*
X143713642Y-84116152D01*
X143713642Y-84116152D02*
X143666023Y-84211390D01*
X143666023Y-84211390D02*
X143618404Y-84259009D01*
X143618404Y-84259009D02*
X143523166Y-84306628D01*
X143523166Y-84306628D02*
X143142214Y-84306628D01*
X144666023Y-84782819D02*
X144094595Y-84782819D01*
X144380309Y-84782819D02*
X144380309Y-83782819D01*
X144380309Y-83782819D02*
X144285071Y-83925676D01*
X144285071Y-83925676D02*
X144189833Y-84020914D01*
X144189833Y-84020914D02*
X144094595Y-84068533D01*
X145570785Y-83782819D02*
X145094595Y-83782819D01*
X145094595Y-83782819D02*
X145046976Y-84259009D01*
X145046976Y-84259009D02*
X145094595Y-84211390D01*
X145094595Y-84211390D02*
X145189833Y-84163771D01*
X145189833Y-84163771D02*
X145427928Y-84163771D01*
X145427928Y-84163771D02*
X145523166Y-84211390D01*
X145523166Y-84211390D02*
X145570785Y-84259009D01*
X145570785Y-84259009D02*
X145618404Y-84354247D01*
X145618404Y-84354247D02*
X145618404Y-84592342D01*
X145618404Y-84592342D02*
X145570785Y-84687580D01*
X145570785Y-84687580D02*
X145523166Y-84735200D01*
X145523166Y-84735200D02*
X145427928Y-84782819D01*
X145427928Y-84782819D02*
X145189833Y-84782819D01*
X145189833Y-84782819D02*
X145094595Y-84735200D01*
X145094595Y-84735200D02*
X145046976Y-84687580D01*
X218305142Y-133296819D02*
X217971809Y-132820628D01*
X217733714Y-133296819D02*
X217733714Y-132296819D01*
X217733714Y-132296819D02*
X218114666Y-132296819D01*
X218114666Y-132296819D02*
X218209904Y-132344438D01*
X218209904Y-132344438D02*
X218257523Y-132392057D01*
X218257523Y-132392057D02*
X218305142Y-132487295D01*
X218305142Y-132487295D02*
X218305142Y-132630152D01*
X218305142Y-132630152D02*
X218257523Y-132725390D01*
X218257523Y-132725390D02*
X218209904Y-132773009D01*
X218209904Y-132773009D02*
X218114666Y-132820628D01*
X218114666Y-132820628D02*
X217733714Y-132820628D01*
X219257523Y-133296819D02*
X218686095Y-133296819D01*
X218971809Y-133296819D02*
X218971809Y-132296819D01*
X218971809Y-132296819D02*
X218876571Y-132439676D01*
X218876571Y-132439676D02*
X218781333Y-132534914D01*
X218781333Y-132534914D02*
X218686095Y-132582533D01*
X219876571Y-132296819D02*
X219971809Y-132296819D01*
X219971809Y-132296819D02*
X220067047Y-132344438D01*
X220067047Y-132344438D02*
X220114666Y-132392057D01*
X220114666Y-132392057D02*
X220162285Y-132487295D01*
X220162285Y-132487295D02*
X220209904Y-132677771D01*
X220209904Y-132677771D02*
X220209904Y-132915866D01*
X220209904Y-132915866D02*
X220162285Y-133106342D01*
X220162285Y-133106342D02*
X220114666Y-133201580D01*
X220114666Y-133201580D02*
X220067047Y-133249200D01*
X220067047Y-133249200D02*
X219971809Y-133296819D01*
X219971809Y-133296819D02*
X219876571Y-133296819D01*
X219876571Y-133296819D02*
X219781333Y-133249200D01*
X219781333Y-133249200D02*
X219733714Y-133201580D01*
X219733714Y-133201580D02*
X219686095Y-133106342D01*
X219686095Y-133106342D02*
X219638476Y-132915866D01*
X219638476Y-132915866D02*
X219638476Y-132677771D01*
X219638476Y-132677771D02*
X219686095Y-132487295D01*
X219686095Y-132487295D02*
X219733714Y-132392057D01*
X219733714Y-132392057D02*
X219781333Y-132344438D01*
X219781333Y-132344438D02*
X219876571Y-132296819D01*
X221353142Y-133296819D02*
X221019809Y-132820628D01*
X220781714Y-133296819D02*
X220781714Y-132296819D01*
X220781714Y-132296819D02*
X221162666Y-132296819D01*
X221162666Y-132296819D02*
X221257904Y-132344438D01*
X221257904Y-132344438D02*
X221305523Y-132392057D01*
X221305523Y-132392057D02*
X221353142Y-132487295D01*
X221353142Y-132487295D02*
X221353142Y-132630152D01*
X221353142Y-132630152D02*
X221305523Y-132725390D01*
X221305523Y-132725390D02*
X221257904Y-132773009D01*
X221257904Y-132773009D02*
X221162666Y-132820628D01*
X221162666Y-132820628D02*
X220781714Y-132820628D01*
X222305523Y-133296819D02*
X221734095Y-133296819D01*
X222019809Y-133296819D02*
X222019809Y-132296819D01*
X222019809Y-132296819D02*
X221924571Y-132439676D01*
X221924571Y-132439676D02*
X221829333Y-132534914D01*
X221829333Y-132534914D02*
X221734095Y-132582533D01*
X223257904Y-133296819D02*
X222686476Y-133296819D01*
X222972190Y-133296819D02*
X222972190Y-132296819D01*
X222972190Y-132296819D02*
X222876952Y-132439676D01*
X222876952Y-132439676D02*
X222781714Y-132534914D01*
X222781714Y-132534914D02*
X222686476Y-132582533D01*
D12*
%TO.C,C2*%
X141822252Y-125878000D02*
X140399748Y-125878000D01*
X141822252Y-124058000D02*
X140399748Y-124058000D01*
%TO.C,Q3*%
X142010000Y-63978000D02*
X142010000Y-74198000D01*
X140630000Y-63978000D02*
X140630000Y-74198000D01*
X137390000Y-63978000D02*
X142010000Y-63978000D01*
X142010000Y-67238000D02*
X140630000Y-67238000D01*
X142010000Y-70938000D02*
X140630000Y-70938000D01*
X142010000Y-74198000D02*
X137390000Y-74198000D01*
X137390000Y-74198000D02*
X137390000Y-63978000D01*
%TO.C,Q1*%
X141690000Y-85060000D02*
X141690000Y-95280000D01*
X140310000Y-85060000D02*
X140310000Y-95280000D01*
X137070000Y-85060000D02*
X141690000Y-85060000D01*
X141690000Y-88320000D02*
X140310000Y-88320000D01*
X141690000Y-92020000D02*
X140310000Y-92020000D01*
X141690000Y-95280000D02*
X137070000Y-95280000D01*
X137070000Y-95280000D02*
X137070000Y-85060000D01*
D13*
%TO.C,U1*%
X191672000Y-75686000D02*
X191672000Y-83816000D01*
X191672000Y-83816000D02*
X192572000Y-83816000D01*
X192572000Y-65806000D02*
X192572000Y-75686000D01*
X192572000Y-75686000D02*
X191672000Y-75686000D01*
X192572000Y-83816000D02*
X192572000Y-93706000D01*
X192572000Y-93706000D02*
X240772000Y-93706000D01*
X240772000Y-65806000D02*
X192572000Y-65806000D01*
X240772000Y-70756000D02*
X240772000Y-65806000D01*
X240772000Y-70756000D02*
X246972000Y-70756000D01*
X240772000Y-93706000D02*
X240772000Y-88756000D01*
X246972000Y-70756000D02*
X246972000Y-88756000D01*
X246972000Y-88756000D02*
X240772000Y-88756000D01*
D14*
X239742000Y-65186000D02*
G75*
G02*
X239542000Y-65186000I-100000J0D01*
G01*
X239542000Y-65186000D02*
G75*
G02*
X239742000Y-65186000I100000J0D01*
G01*
D12*
%TO.C,R36*%
X227404000Y-113614564D02*
X227404000Y-113160436D01*
X228874000Y-113614564D02*
X228874000Y-113160436D01*
%TO.C,R37*%
X229436000Y-113614564D02*
X229436000Y-113160436D01*
X230906000Y-113614564D02*
X230906000Y-113160436D01*
%TO.C,R38*%
X231468000Y-113614564D02*
X231468000Y-113160436D01*
X232938000Y-113614564D02*
X232938000Y-113160436D01*
%TO.C,R39*%
X233500000Y-113614564D02*
X233500000Y-113160436D01*
X234970000Y-113614564D02*
X234970000Y-113160436D01*
%TO.C,R40*%
X235737000Y-113683064D02*
X235737000Y-113228936D01*
X237207000Y-113683064D02*
X237207000Y-113228936D01*
%TO.C,R26*%
X198655000Y-113313564D02*
X198655000Y-112859436D01*
X200125000Y-113313564D02*
X200125000Y-112859436D01*
%TO.C,R24*%
X194591000Y-113313564D02*
X194591000Y-112859436D01*
X196061000Y-113313564D02*
X196061000Y-112859436D01*
%TO.C,R27*%
X200687000Y-113360564D02*
X200687000Y-112906436D01*
X202157000Y-113360564D02*
X202157000Y-112906436D01*
%TO.C,R25*%
X196623000Y-113313564D02*
X196623000Y-112859436D01*
X198093000Y-113313564D02*
X198093000Y-112859436D01*
%TO.C,R23*%
X192559000Y-113313564D02*
X192559000Y-112859436D01*
X194029000Y-113313564D02*
X194029000Y-112859436D01*
%TO.C,M10*%
X230294000Y-124329500D02*
X228914000Y-124329500D01*
X230294000Y-122949500D02*
X230294000Y-124329500D01*
X230294000Y-121679500D02*
X230294000Y-116489500D01*
X230294000Y-121679500D02*
X227534000Y-121679500D01*
X230294000Y-116489500D02*
X227534000Y-116489500D01*
X227534000Y-121679500D02*
X227534000Y-116489500D01*
%TO.C,U8*%
X225019000Y-109257500D02*
X224689000Y-109497500D01*
X224689000Y-109017500D01*
X225019000Y-109257500D01*
G36*
X225019000Y-109257500D02*
G01*
X224689000Y-109497500D01*
X224689000Y-109017500D01*
X225019000Y-109257500D01*
G37*
X234664000Y-104047500D02*
X234389000Y-104047500D01*
X224744000Y-104047500D02*
X225019000Y-104047500D01*
X234664000Y-106357500D02*
X234664000Y-104047500D01*
X234664000Y-106357500D02*
X234664000Y-108667500D01*
X224744000Y-106357500D02*
X224744000Y-104047500D01*
X224744000Y-106357500D02*
X224744000Y-108667500D01*
X234664000Y-108667500D02*
X234389000Y-108667500D01*
X224744000Y-108667500D02*
X225019000Y-108667500D01*
%TO.C,M8*%
X219372000Y-124329500D02*
X217992000Y-124329500D01*
X219372000Y-122949500D02*
X219372000Y-124329500D01*
X219372000Y-121679500D02*
X219372000Y-116489500D01*
X219372000Y-121679500D02*
X216612000Y-121679500D01*
X219372000Y-116489500D02*
X216612000Y-116489500D01*
X216612000Y-121679500D02*
X216612000Y-116489500D01*
%TO.C,M9*%
X224706000Y-124329500D02*
X223326000Y-124329500D01*
X224706000Y-122949500D02*
X224706000Y-124329500D01*
X224706000Y-121679500D02*
X224706000Y-116489500D01*
X224706000Y-121679500D02*
X221946000Y-121679500D01*
X224706000Y-116489500D02*
X221946000Y-116489500D01*
X221946000Y-121679500D02*
X221946000Y-116489500D01*
%TO.C,M11*%
X236136000Y-124329500D02*
X234756000Y-124329500D01*
X236136000Y-122949500D02*
X236136000Y-124329500D01*
X236136000Y-121679500D02*
X236136000Y-116489500D01*
X236136000Y-121679500D02*
X233376000Y-121679500D01*
X236136000Y-116489500D02*
X233376000Y-116489500D01*
X233376000Y-121679500D02*
X233376000Y-116489500D01*
%TO.C,R9*%
X216949000Y-130693064D02*
X216949000Y-130238936D01*
X215479000Y-130693064D02*
X215479000Y-130238936D01*
%TO.C,U7*%
X189524000Y-109140500D02*
X189194000Y-109380500D01*
X189194000Y-108900500D01*
X189524000Y-109140500D01*
G36*
X189524000Y-109140500D02*
G01*
X189194000Y-109380500D01*
X189194000Y-108900500D01*
X189524000Y-109140500D01*
G37*
X199169000Y-103930500D02*
X198894000Y-103930500D01*
X189249000Y-103930500D02*
X189524000Y-103930500D01*
X199169000Y-106240500D02*
X199169000Y-103930500D01*
X199169000Y-106240500D02*
X199169000Y-108550500D01*
X189249000Y-106240500D02*
X189249000Y-103930500D01*
X189249000Y-106240500D02*
X189249000Y-108550500D01*
X199169000Y-108550500D02*
X198894000Y-108550500D01*
X189249000Y-108550500D02*
X189524000Y-108550500D01*
%TO.C,R28*%
X194671064Y-98208000D02*
X194216936Y-98208000D01*
X194671064Y-99678000D02*
X194216936Y-99678000D01*
%TO.C,C3*%
X191083252Y-98208000D02*
X190560748Y-98208000D01*
X191083252Y-99678000D02*
X190560748Y-99678000D01*
%TO.C,R35*%
X230247564Y-99541000D02*
X229793436Y-99541000D01*
X230247564Y-98071000D02*
X229793436Y-98071000D01*
%TO.C,C4*%
X226688252Y-99541000D02*
X226165748Y-99541000D01*
X226688252Y-98071000D02*
X226165748Y-98071000D01*
%TO.C,U3*%
X162436000Y-122812000D02*
X162436000Y-102232000D01*
X162436000Y-102232000D02*
X149606000Y-102232000D01*
X159766000Y-102232000D02*
X159766000Y-122812000D01*
X149606000Y-104902000D02*
X149606000Y-122812000D01*
X149606000Y-104902000D02*
X146936000Y-104902000D01*
X149606000Y-102232000D02*
X149606000Y-104902000D01*
X148336000Y-102232000D02*
X146936000Y-102232000D01*
X146936000Y-122812000D02*
X162436000Y-122812000D01*
X146936000Y-104902000D02*
X146936000Y-122812000D01*
X146936000Y-102232000D02*
X146936000Y-103632000D01*
%TO.C,M5*%
X193946000Y-121412000D02*
X193946000Y-116222000D01*
X196706000Y-116222000D02*
X193946000Y-116222000D01*
X196706000Y-121412000D02*
X193946000Y-121412000D01*
X196706000Y-121412000D02*
X196706000Y-116222000D01*
X196706000Y-122682000D02*
X196706000Y-124062000D01*
X196706000Y-124062000D02*
X195326000Y-124062000D01*
%TO.C,R6*%
X182145000Y-130171564D02*
X182145000Y-129717436D01*
X183615000Y-130171564D02*
X183615000Y-129717436D01*
%TO.C,R13*%
X173963000Y-121796436D02*
X173963000Y-122250564D01*
X172493000Y-121796436D02*
X172493000Y-122250564D01*
%TO.C,R14*%
X133123000Y-90039564D02*
X133123000Y-89585436D01*
X134593000Y-90039564D02*
X134593000Y-89585436D01*
%TO.C,M7*%
X139834000Y-117094000D02*
X139834000Y-109364000D01*
X142594000Y-109364000D02*
X139834000Y-109364000D01*
X142594000Y-117094000D02*
X139834000Y-117094000D01*
X142594000Y-117094000D02*
X142594000Y-109364000D01*
X142594000Y-118364000D02*
X142594000Y-119744000D01*
X142594000Y-119744000D02*
X141214000Y-119744000D01*
%TO.C,R1*%
X134647000Y-70609564D02*
X134647000Y-70155436D01*
X136117000Y-70609564D02*
X136117000Y-70155436D01*
%TO.C,M1*%
X211278000Y-121679500D02*
X211278000Y-116489500D01*
X214038000Y-116489500D02*
X211278000Y-116489500D01*
X214038000Y-121679500D02*
X211278000Y-121679500D01*
X214038000Y-121679500D02*
X214038000Y-116489500D01*
X214038000Y-122949500D02*
X214038000Y-124329500D01*
X214038000Y-124329500D02*
X212658000Y-124329500D01*
%TO.C,R7*%
X179605000Y-130171564D02*
X179605000Y-129717436D01*
X181075000Y-130171564D02*
X181075000Y-129717436D01*
%TO.C,R2*%
X145261000Y-70459064D02*
X145261000Y-70004936D01*
X143791000Y-70459064D02*
X143791000Y-70004936D01*
%TO.C,U2*%
X109189000Y-35503000D02*
X109189000Y-56953000D01*
X109189000Y-56953000D02*
X152939000Y-56953000D01*
X109194000Y-35758000D02*
X110494000Y-35758000D01*
X109194000Y-38913000D02*
X112324000Y-38918000D01*
X109194000Y-53538000D02*
X112324000Y-53538000D01*
X109194000Y-56698000D02*
X112324000Y-56698000D01*
X112324000Y-38608000D02*
X112324000Y-38918000D01*
X112324000Y-53538000D02*
X112324000Y-56698000D01*
X119493233Y-38342149D02*
X119493233Y-38503687D01*
X119494233Y-36975610D02*
X121144233Y-36684671D01*
X119494233Y-46327106D02*
X119494233Y-36975610D01*
X119494233Y-46327106D02*
X119571797Y-46404670D01*
X119571797Y-46404670D02*
X129576670Y-46404670D01*
X119775636Y-53896217D02*
X120225636Y-53896217D01*
X119775636Y-55646217D02*
X119775636Y-53896217D01*
X120225636Y-55646217D02*
X119775636Y-55646217D01*
X120225636Y-55921217D02*
X120225636Y-53621217D01*
X120325636Y-53521217D02*
X123925636Y-53521217D01*
X120754233Y-51034670D02*
X120754233Y-46404670D01*
X120754233Y-51034670D02*
X121594233Y-51034670D01*
X121144233Y-36684671D02*
X128004233Y-36684671D01*
X121594233Y-51034670D02*
X121594233Y-46404670D01*
X122454233Y-51034670D02*
X122454233Y-46404670D01*
X122454233Y-51034670D02*
X123294233Y-51034670D01*
X123155358Y-53621217D02*
X123155358Y-55921217D01*
X123294233Y-51034670D02*
X123294233Y-46404670D01*
X123925636Y-56021217D02*
X120325636Y-56021217D01*
X124025636Y-53621217D02*
X124025636Y-55921217D01*
X124025636Y-53896217D02*
X124475636Y-53896217D01*
X124026636Y-54132696D02*
X124026636Y-54038144D01*
X124154233Y-51034670D02*
X124154233Y-46404670D01*
X124154233Y-51034670D02*
X124994233Y-51034670D01*
X124475636Y-53896217D02*
X124475636Y-55646217D01*
X124475636Y-55646217D02*
X124025636Y-55646217D01*
X124994233Y-51034670D02*
X124994233Y-46404670D01*
X125854233Y-51034670D02*
X125854233Y-46404670D01*
X125854233Y-51034670D02*
X126694233Y-51034670D01*
X126694233Y-51034670D02*
X126694233Y-46404670D01*
X127554233Y-51034670D02*
X127554233Y-46404670D01*
X127554233Y-51034670D02*
X128394233Y-51034670D01*
X128004233Y-36684671D02*
X129654233Y-36975610D01*
X128394233Y-51034670D02*
X128394233Y-46404670D01*
X129576670Y-46404670D02*
X129654233Y-46327106D01*
X129654233Y-37764670D02*
X119494233Y-37764670D01*
X129654233Y-46327106D02*
X129654233Y-36975610D01*
X131211397Y-44923796D02*
X131211397Y-54623796D01*
X132711397Y-56123796D02*
X142411397Y-56123796D01*
X134043783Y-40920294D02*
X134043783Y-36020295D01*
X134093783Y-35970295D02*
X143993783Y-35970295D01*
X135080385Y-37288900D02*
X135104553Y-37320295D01*
X135092594Y-37345294D02*
X135068147Y-37340062D01*
X135092594Y-37345294D02*
X135099764Y-37314075D01*
X135092594Y-37345294D02*
X135104553Y-37320295D01*
X135104553Y-37820294D02*
X137183014Y-37820294D01*
X137183014Y-37320295D02*
X135104553Y-37320295D01*
X142411397Y-43423796D02*
X132711397Y-43423796D01*
X142602978Y-35969295D02*
X142558106Y-35969295D01*
X142686312Y-35969295D02*
X142652357Y-35969295D01*
X143911397Y-54623796D02*
X143911397Y-44923796D01*
X143993783Y-40970294D02*
X134093783Y-40970294D01*
X144043783Y-36020295D02*
X144043783Y-40920294D01*
X147392681Y-37038296D02*
X148192681Y-37038296D01*
X147392681Y-38318295D02*
X147392681Y-36718296D01*
X148192681Y-36718296D02*
X147392681Y-36718296D01*
X148192681Y-36718296D02*
X148192681Y-38318295D01*
X148192681Y-37998295D02*
X147392681Y-37998295D01*
X148192681Y-38318295D02*
X147392681Y-38318295D01*
X149804000Y-35758000D02*
X152919000Y-35758000D01*
X149804000Y-38918000D02*
X149804000Y-35758000D01*
X149804000Y-38918000D02*
X152964000Y-38918000D01*
X149804000Y-53538000D02*
X152919000Y-53538000D01*
X149804000Y-56698000D02*
X149804000Y-53538000D01*
X149804000Y-56698000D02*
X152919000Y-56698000D01*
X152939000Y-35503000D02*
X109189000Y-35503000D01*
X152939000Y-56953000D02*
X152939000Y-35503000D01*
X120225636Y-53621217D02*
G75*
G02*
X120325636Y-53521236I99964J17D01*
G01*
X120325636Y-56021217D02*
G75*
G02*
X120225583Y-55921217I-36J100017D01*
G01*
X123925636Y-53521217D02*
G75*
G02*
X124025583Y-53621217I-36J-99983D01*
G01*
X124025636Y-55921217D02*
G75*
G02*
X123925636Y-56021236I-100036J17D01*
G01*
X131211397Y-44923796D02*
G75*
G02*
X132711397Y-43423797I1500003J-4D01*
G01*
X132525131Y-46804010D02*
G75*
G02*
X132559249Y-46938200I-52931J-84890D01*
G01*
X132525132Y-46804011D02*
G75*
G02*
X134591611Y-44737531I793628J1272851D01*
G01*
X132559217Y-52609409D02*
G75*
G02*
X132525118Y-52743560I-87017J-49291D01*
G01*
X132559218Y-52609410D02*
G75*
G02*
X132559221Y-46938185I5002182J2835610D01*
G01*
X132711397Y-56123796D02*
G75*
G02*
X131211404Y-54623796I3J1499996D01*
G01*
X134043783Y-36020295D02*
G75*
G02*
X134093783Y-35970283I50017J-5D01*
G01*
X134093783Y-40970294D02*
G75*
G02*
X134043806Y-40920294I17J49994D01*
G01*
X134591611Y-54810062D02*
G75*
G02*
X132525137Y-52743590I-1272811J793662D01*
G01*
X134591611Y-54810062D02*
G75*
G02*
X134725799Y-54775947I84889J-52938D01*
G01*
X134725783Y-44771617D02*
G75*
G02*
X134591641Y-44737512I-49283J87017D01*
G01*
X134725784Y-44771617D02*
G75*
G02*
X140397011Y-44771617I2835614J-5002178D01*
G01*
X135068148Y-37800527D02*
G75*
G02*
X135080385Y-37851690I1075652J230227D01*
G01*
X140397011Y-54775976D02*
G75*
G02*
X134725783Y-54775976I-2835614J5002180D01*
G01*
X140397011Y-54775976D02*
G75*
G02*
X140531162Y-54810075I49289J-87024D01*
G01*
X140531183Y-44737531D02*
G75*
G02*
X140396998Y-44771641I-84883J52931D01*
G01*
X140531183Y-44737531D02*
G75*
G02*
X142597667Y-46804018I1272817J-793669D01*
G01*
X142411397Y-43423796D02*
G75*
G02*
X143911404Y-44923796I3J-1500004D01*
G01*
X142563576Y-46938183D02*
G75*
G02*
X142563579Y-52609412I-5002176J-2835617D01*
G01*
X142563577Y-46938184D02*
G75*
G02*
X142597680Y-46804039I87023J49284D01*
G01*
X142597662Y-52743582D02*
G75*
G02*
X140531182Y-54810062I-793622J-1272858D01*
G01*
X142597663Y-52743583D02*
G75*
G02*
X142563555Y-52609398I52937J84883D01*
G01*
X143911397Y-54623796D02*
G75*
G02*
X142411397Y-56123797I-1499997J-4D01*
G01*
X143993783Y-35970295D02*
G75*
G02*
X144043805Y-36020295I17J-50005D01*
G01*
X144043783Y-40920294D02*
G75*
G02*
X143993783Y-40970283I-49983J-6D01*
G01*
X117390666Y-46295418D02*
G75*
G02*
X109390666Y-46295418I-4000000J0D01*
G01*
X109390666Y-46295418D02*
G75*
G02*
X117390666Y-46295418I4000000J0D01*
G01*
X117422999Y-37973000D02*
G75*
G02*
X114225001Y-37973000I-1598999J0D01*
G01*
X114225001Y-37973000D02*
G75*
G02*
X117422999Y-37973000I1598999J0D01*
G01*
X120792179Y-45492594D02*
G75*
G02*
X120042179Y-45492594I-375000J0D01*
G01*
X120042179Y-45492594D02*
G75*
G02*
X120792179Y-45492594I375000J0D01*
G01*
X142811397Y-49773796D02*
G75*
G02*
X132311397Y-49773796I-5250000J0D01*
G01*
X132311397Y-49773796D02*
G75*
G02*
X142811397Y-49773796I5250000J0D01*
G01*
X147903000Y-54483000D02*
G75*
G02*
X144705000Y-54483000I-1599000J0D01*
G01*
X144705000Y-54483000D02*
G75*
G02*
X147903000Y-54483000I1599000J0D01*
G01*
X152773307Y-46793206D02*
G75*
G02*
X144773307Y-46793206I-4000000J0D01*
G01*
X144773307Y-46793206D02*
G75*
G02*
X152773307Y-46793206I4000000J0D01*
G01*
%TO.C,R3*%
X184685000Y-130124564D02*
X184685000Y-129670436D01*
X186155000Y-130124564D02*
X186155000Y-129670436D01*
%TO.C,R12*%
X223861000Y-130693064D02*
X223861000Y-130238936D01*
X225331000Y-130693064D02*
X225331000Y-130238936D01*
%TO.C,J1*%
X86600000Y-95877000D02*
X100600000Y-95877000D01*
X100600000Y-85987000D02*
X86600000Y-85987000D01*
X100600000Y-87192000D02*
X100600000Y-85987000D01*
X100600000Y-94672000D02*
X106370000Y-94672000D01*
X100600000Y-95877000D02*
X100600000Y-94672000D01*
X106370000Y-87192000D02*
X100600000Y-87192000D01*
X106370000Y-94672000D02*
X106370000Y-87192000D01*
%TO.C,U4*%
X203090000Y-64626000D02*
X203090000Y-63246000D01*
X204470000Y-64626000D02*
X203090000Y-64626000D01*
X205740000Y-61866000D02*
X213470000Y-61866000D01*
X205740000Y-64626000D02*
X205740000Y-61866000D01*
X205740000Y-64626000D02*
X213470000Y-64626000D01*
X213470000Y-64626000D02*
X213470000Y-61866000D01*
%TO.C,R16*%
X140836436Y-121947000D02*
X141290564Y-121947000D01*
X140836436Y-123417000D02*
X141290564Y-123417000D01*
%TO.C,R8*%
X212558000Y-130693064D02*
X212558000Y-130238936D01*
X214028000Y-130693064D02*
X214028000Y-130238936D01*
%TO.C,M4*%
X188866000Y-121412000D02*
X188866000Y-116222000D01*
X191626000Y-116222000D02*
X188866000Y-116222000D01*
X191626000Y-121412000D02*
X188866000Y-121412000D01*
X191626000Y-121412000D02*
X191626000Y-116222000D01*
X191626000Y-122682000D02*
X191626000Y-124062000D01*
X191626000Y-124062000D02*
X190246000Y-124062000D01*
%TO.C,R5*%
X190019000Y-130171564D02*
X190019000Y-129717436D01*
X191489000Y-130171564D02*
X191489000Y-129717436D01*
%TO.C,R4*%
X187225000Y-130171564D02*
X187225000Y-129717436D01*
X188695000Y-130171564D02*
X188695000Y-129717436D01*
%TO.C,C1*%
X112194748Y-89689000D02*
X112717252Y-89689000D01*
X112194748Y-91159000D02*
X112717252Y-91159000D01*
%TO.C,M3*%
X184040000Y-121412000D02*
X184040000Y-116222000D01*
X186800000Y-116222000D02*
X184040000Y-116222000D01*
X186800000Y-121412000D02*
X184040000Y-121412000D01*
X186800000Y-121412000D02*
X186800000Y-116222000D01*
X186800000Y-122682000D02*
X186800000Y-124062000D01*
X186800000Y-124062000D02*
X185420000Y-124062000D01*
%TO.C,M2*%
X178960000Y-121412000D02*
X178960000Y-116222000D01*
X181720000Y-116222000D02*
X178960000Y-116222000D01*
X181720000Y-121412000D02*
X178960000Y-121412000D01*
X181720000Y-121412000D02*
X181720000Y-116222000D01*
X181720000Y-122682000D02*
X181720000Y-124062000D01*
X181720000Y-124062000D02*
X180340000Y-124062000D01*
%TO.C,M6*%
X198772000Y-121412000D02*
X198772000Y-116222000D01*
X201532000Y-116222000D02*
X198772000Y-116222000D01*
X201532000Y-121412000D02*
X198772000Y-121412000D01*
X201532000Y-121412000D02*
X201532000Y-116222000D01*
X201532000Y-122682000D02*
X201532000Y-124062000D01*
X201532000Y-124062000D02*
X200152000Y-124062000D01*
%TO.C,U5*%
X176245000Y-34995000D02*
X176245000Y-56445000D01*
X176245000Y-56445000D02*
X219995000Y-56445000D01*
X176250000Y-35250000D02*
X177550000Y-35250000D01*
X176250000Y-38405000D02*
X179380000Y-38410000D01*
X176250000Y-53030000D02*
X179380000Y-53030000D01*
X176250000Y-56190000D02*
X179380000Y-56190000D01*
X179380000Y-38100000D02*
X179380000Y-38410000D01*
X179380000Y-53030000D02*
X179380000Y-56190000D01*
X186549233Y-37834149D02*
X186549233Y-37995687D01*
X186550233Y-36467610D02*
X188200233Y-36176671D01*
X186550233Y-45819106D02*
X186550233Y-36467610D01*
X186550233Y-45819106D02*
X186627797Y-45896670D01*
X186627797Y-45896670D02*
X196632670Y-45896670D01*
X186831636Y-53388217D02*
X187281636Y-53388217D01*
X186831636Y-55138217D02*
X186831636Y-53388217D01*
X187281636Y-55138217D02*
X186831636Y-55138217D01*
X187281636Y-55413217D02*
X187281636Y-53113217D01*
X187381636Y-53013217D02*
X190981636Y-53013217D01*
X187810233Y-50526670D02*
X187810233Y-45896670D01*
X187810233Y-50526670D02*
X188650233Y-50526670D01*
X188200233Y-36176671D02*
X195060233Y-36176671D01*
X188650233Y-50526670D02*
X188650233Y-45896670D01*
X189510233Y-50526670D02*
X189510233Y-45896670D01*
X189510233Y-50526670D02*
X190350233Y-50526670D01*
X190211358Y-53113217D02*
X190211358Y-55413217D01*
X190350233Y-50526670D02*
X190350233Y-45896670D01*
X190981636Y-55513217D02*
X187381636Y-55513217D01*
X191081636Y-53113217D02*
X191081636Y-55413217D01*
X191081636Y-53388217D02*
X191531636Y-53388217D01*
X191082636Y-53624696D02*
X191082636Y-53530144D01*
X191210233Y-50526670D02*
X191210233Y-45896670D01*
X191210233Y-50526670D02*
X192050233Y-50526670D01*
X191531636Y-53388217D02*
X191531636Y-55138217D01*
X191531636Y-55138217D02*
X191081636Y-55138217D01*
X192050233Y-50526670D02*
X192050233Y-45896670D01*
X192910233Y-50526670D02*
X192910233Y-45896670D01*
X192910233Y-50526670D02*
X193750233Y-50526670D01*
X193750233Y-50526670D02*
X193750233Y-45896670D01*
X194610233Y-50526670D02*
X194610233Y-45896670D01*
X194610233Y-50526670D02*
X195450233Y-50526670D01*
X195060233Y-36176671D02*
X196710233Y-36467610D01*
X195450233Y-50526670D02*
X195450233Y-45896670D01*
X196632670Y-45896670D02*
X196710233Y-45819106D01*
X196710233Y-37256670D02*
X186550233Y-37256670D01*
X196710233Y-45819106D02*
X196710233Y-36467610D01*
X198267397Y-44415796D02*
X198267397Y-54115796D01*
X199767397Y-55615796D02*
X209467397Y-55615796D01*
X201099783Y-40412294D02*
X201099783Y-35512295D01*
X201149783Y-35462295D02*
X211049783Y-35462295D01*
X202136385Y-36780900D02*
X202160553Y-36812295D01*
X202148594Y-36837294D02*
X202124147Y-36832062D01*
X202148594Y-36837294D02*
X202155764Y-36806075D01*
X202148594Y-36837294D02*
X202160553Y-36812295D01*
X202160553Y-37312294D02*
X204239014Y-37312294D01*
X204239014Y-36812295D02*
X202160553Y-36812295D01*
X209467397Y-42915796D02*
X199767397Y-42915796D01*
X209658978Y-35461295D02*
X209614106Y-35461295D01*
X209742312Y-35461295D02*
X209708357Y-35461295D01*
X210967397Y-54115796D02*
X210967397Y-44415796D01*
X211049783Y-40462294D02*
X201149783Y-40462294D01*
X211099783Y-35512295D02*
X211099783Y-40412294D01*
X214448681Y-36530296D02*
X215248681Y-36530296D01*
X214448681Y-37810295D02*
X214448681Y-36210296D01*
X215248681Y-36210296D02*
X214448681Y-36210296D01*
X215248681Y-36210296D02*
X215248681Y-37810295D01*
X215248681Y-37490295D02*
X214448681Y-37490295D01*
X215248681Y-37810295D02*
X214448681Y-37810295D01*
X216860000Y-35250000D02*
X219975000Y-35250000D01*
X216860000Y-38410000D02*
X216860000Y-35250000D01*
X216860000Y-38410000D02*
X220020000Y-38410000D01*
X216860000Y-53030000D02*
X219975000Y-53030000D01*
X216860000Y-56190000D02*
X216860000Y-53030000D01*
X216860000Y-56190000D02*
X219975000Y-56190000D01*
X219995000Y-34995000D02*
X176245000Y-34995000D01*
X219995000Y-56445000D02*
X219995000Y-34995000D01*
X187281636Y-53113217D02*
G75*
G02*
X187381636Y-53013236I99964J17D01*
G01*
X187381636Y-55513217D02*
G75*
G02*
X187281583Y-55413217I-36J100017D01*
G01*
X190981636Y-53013217D02*
G75*
G02*
X191081583Y-53113217I-36J-99983D01*
G01*
X191081636Y-55413217D02*
G75*
G02*
X190981636Y-55513236I-100036J17D01*
G01*
X198267397Y-44415796D02*
G75*
G02*
X199767397Y-42915797I1500003J-4D01*
G01*
X199581131Y-46296010D02*
G75*
G02*
X199615249Y-46430200I-52931J-84890D01*
G01*
X199581132Y-46296011D02*
G75*
G02*
X201647611Y-44229531I793628J1272851D01*
G01*
X199615217Y-52101409D02*
G75*
G02*
X199581118Y-52235560I-87017J-49291D01*
G01*
X199615218Y-52101410D02*
G75*
G02*
X199615221Y-46430185I5002182J2835610D01*
G01*
X199767397Y-55615796D02*
G75*
G02*
X198267404Y-54115796I3J1499996D01*
G01*
X201099783Y-35512295D02*
G75*
G02*
X201149783Y-35462283I50017J-5D01*
G01*
X201149783Y-40462294D02*
G75*
G02*
X201099806Y-40412294I17J49994D01*
G01*
X201647611Y-54302062D02*
G75*
G02*
X199581137Y-52235590I-1272811J793662D01*
G01*
X201647611Y-54302062D02*
G75*
G02*
X201781799Y-54267947I84889J-52938D01*
G01*
X201781783Y-44263617D02*
G75*
G02*
X201647641Y-44229512I-49283J87017D01*
G01*
X201781784Y-44263617D02*
G75*
G02*
X207453011Y-44263617I2835614J-5002178D01*
G01*
X202124148Y-37292527D02*
G75*
G02*
X202136385Y-37343690I1075652J230227D01*
G01*
X207453011Y-54267976D02*
G75*
G02*
X201781783Y-54267976I-2835614J5002180D01*
G01*
X207453011Y-54267976D02*
G75*
G02*
X207587162Y-54302075I49289J-87024D01*
G01*
X207587183Y-44229531D02*
G75*
G02*
X207452998Y-44263641I-84883J52931D01*
G01*
X207587183Y-44229531D02*
G75*
G02*
X209653667Y-46296018I1272817J-793669D01*
G01*
X209467397Y-42915796D02*
G75*
G02*
X210967404Y-44415796I3J-1500004D01*
G01*
X209619576Y-46430183D02*
G75*
G02*
X209619579Y-52101412I-5002176J-2835617D01*
G01*
X209619577Y-46430184D02*
G75*
G02*
X209653680Y-46296039I87023J49284D01*
G01*
X209653662Y-52235582D02*
G75*
G02*
X207587182Y-54302062I-793622J-1272858D01*
G01*
X209653663Y-52235583D02*
G75*
G02*
X209619555Y-52101398I52937J84883D01*
G01*
X210967397Y-54115796D02*
G75*
G02*
X209467397Y-55615797I-1499997J-4D01*
G01*
X211049783Y-35462295D02*
G75*
G02*
X211099805Y-35512295I17J-50005D01*
G01*
X211099783Y-40412294D02*
G75*
G02*
X211049783Y-40462283I-49983J-6D01*
G01*
X184446666Y-45787418D02*
G75*
G02*
X176446666Y-45787418I-4000000J0D01*
G01*
X176446666Y-45787418D02*
G75*
G02*
X184446666Y-45787418I4000000J0D01*
G01*
X184478999Y-37465000D02*
G75*
G02*
X181281001Y-37465000I-1598999J0D01*
G01*
X181281001Y-37465000D02*
G75*
G02*
X184478999Y-37465000I1598999J0D01*
G01*
X187848179Y-44984594D02*
G75*
G02*
X187098179Y-44984594I-375000J0D01*
G01*
X187098179Y-44984594D02*
G75*
G02*
X187848179Y-44984594I375000J0D01*
G01*
X209867397Y-49265796D02*
G75*
G02*
X199367397Y-49265796I-5250000J0D01*
G01*
X199367397Y-49265796D02*
G75*
G02*
X209867397Y-49265796I5250000J0D01*
G01*
X214959000Y-53975000D02*
G75*
G02*
X211761000Y-53975000I-1599000J0D01*
G01*
X211761000Y-53975000D02*
G75*
G02*
X214959000Y-53975000I1599000J0D01*
G01*
X219829307Y-46285206D02*
G75*
G02*
X211829307Y-46285206I-4000000J0D01*
G01*
X211829307Y-46285206D02*
G75*
G02*
X219829307Y-46285206I4000000J0D01*
G01*
%TO.C,R15*%
X145091500Y-87245564D02*
X145091500Y-86791436D01*
X143621500Y-87245564D02*
X143621500Y-86791436D01*
%TO.C,R10*%
X218273000Y-130693064D02*
X218273000Y-130238936D01*
X219743000Y-130693064D02*
X219743000Y-130238936D01*
%TO.C,R11*%
X221067000Y-130693064D02*
X221067000Y-130238936D01*
X222537000Y-130693064D02*
X222537000Y-130238936D01*
%TO.C,U6*%
X91155000Y-104591000D02*
X91155000Y-126041000D01*
X91155000Y-126041000D02*
X134905000Y-126041000D01*
X91160000Y-104846000D02*
X92460000Y-104846000D01*
X91160000Y-108001000D02*
X94290000Y-108006000D01*
X91160000Y-122626000D02*
X94290000Y-122626000D01*
X91160000Y-125786000D02*
X94290000Y-125786000D01*
X94290000Y-107696000D02*
X94290000Y-108006000D01*
X94290000Y-122626000D02*
X94290000Y-125786000D01*
X101459233Y-107430149D02*
X101459233Y-107591687D01*
X101460233Y-106063610D02*
X103110233Y-105772671D01*
X101460233Y-115415106D02*
X101460233Y-106063610D01*
X101460233Y-115415106D02*
X101537797Y-115492670D01*
X101537797Y-115492670D02*
X111542670Y-115492670D01*
X101741636Y-122984217D02*
X102191636Y-122984217D01*
X101741636Y-124734217D02*
X101741636Y-122984217D01*
X102191636Y-124734217D02*
X101741636Y-124734217D01*
X102191636Y-125009217D02*
X102191636Y-122709217D01*
X102291636Y-122609217D02*
X105891636Y-122609217D01*
X102720233Y-120122670D02*
X102720233Y-115492670D01*
X102720233Y-120122670D02*
X103560233Y-120122670D01*
X103110233Y-105772671D02*
X109970233Y-105772671D01*
X103560233Y-120122670D02*
X103560233Y-115492670D01*
X104420233Y-120122670D02*
X104420233Y-115492670D01*
X104420233Y-120122670D02*
X105260233Y-120122670D01*
X105121358Y-122709217D02*
X105121358Y-125009217D01*
X105260233Y-120122670D02*
X105260233Y-115492670D01*
X105891636Y-125109217D02*
X102291636Y-125109217D01*
X105991636Y-122709217D02*
X105991636Y-125009217D01*
X105991636Y-122984217D02*
X106441636Y-122984217D01*
X105992636Y-123220696D02*
X105992636Y-123126144D01*
X106120233Y-120122670D02*
X106120233Y-115492670D01*
X106120233Y-120122670D02*
X106960233Y-120122670D01*
X106441636Y-122984217D02*
X106441636Y-124734217D01*
X106441636Y-124734217D02*
X105991636Y-124734217D01*
X106960233Y-120122670D02*
X106960233Y-115492670D01*
X107820233Y-120122670D02*
X107820233Y-115492670D01*
X107820233Y-120122670D02*
X108660233Y-120122670D01*
X108660233Y-120122670D02*
X108660233Y-115492670D01*
X109520233Y-120122670D02*
X109520233Y-115492670D01*
X109520233Y-120122670D02*
X110360233Y-120122670D01*
X109970233Y-105772671D02*
X111620233Y-106063610D01*
X110360233Y-120122670D02*
X110360233Y-115492670D01*
X111542670Y-115492670D02*
X111620233Y-115415106D01*
X111620233Y-106852670D02*
X101460233Y-106852670D01*
X111620233Y-115415106D02*
X111620233Y-106063610D01*
X113177397Y-114011796D02*
X113177397Y-123711796D01*
X114677397Y-125211796D02*
X124377397Y-125211796D01*
X116009783Y-110008294D02*
X116009783Y-105108295D01*
X116059783Y-105058295D02*
X125959783Y-105058295D01*
X117046385Y-106376900D02*
X117070553Y-106408295D01*
X117058594Y-106433294D02*
X117034147Y-106428062D01*
X117058594Y-106433294D02*
X117065764Y-106402075D01*
X117058594Y-106433294D02*
X117070553Y-106408295D01*
X117070553Y-106908294D02*
X119149014Y-106908294D01*
X119149014Y-106408295D02*
X117070553Y-106408295D01*
X124377397Y-112511796D02*
X114677397Y-112511796D01*
X124568978Y-105057295D02*
X124524106Y-105057295D01*
X124652312Y-105057295D02*
X124618357Y-105057295D01*
X125877397Y-123711796D02*
X125877397Y-114011796D01*
X125959783Y-110058294D02*
X116059783Y-110058294D01*
X126009783Y-105108295D02*
X126009783Y-110008294D01*
X129358681Y-106126296D02*
X130158681Y-106126296D01*
X129358681Y-107406295D02*
X129358681Y-105806296D01*
X130158681Y-105806296D02*
X129358681Y-105806296D01*
X130158681Y-105806296D02*
X130158681Y-107406295D01*
X130158681Y-107086295D02*
X129358681Y-107086295D01*
X130158681Y-107406295D02*
X129358681Y-107406295D01*
X131770000Y-104846000D02*
X134885000Y-104846000D01*
X131770000Y-108006000D02*
X131770000Y-104846000D01*
X131770000Y-108006000D02*
X134930000Y-108006000D01*
X131770000Y-122626000D02*
X134885000Y-122626000D01*
X131770000Y-125786000D02*
X131770000Y-122626000D01*
X131770000Y-125786000D02*
X134885000Y-125786000D01*
X134905000Y-104591000D02*
X91155000Y-104591000D01*
X134905000Y-126041000D02*
X134905000Y-104591000D01*
X102191636Y-122709217D02*
G75*
G02*
X102291636Y-122609236I99964J17D01*
G01*
X102291636Y-125109217D02*
G75*
G02*
X102191583Y-125009217I-36J100017D01*
G01*
X105891636Y-122609217D02*
G75*
G02*
X105991583Y-122709217I-36J-99983D01*
G01*
X105991636Y-125009217D02*
G75*
G02*
X105891636Y-125109236I-100036J17D01*
G01*
X113177397Y-114011796D02*
G75*
G02*
X114677397Y-112511797I1500003J-4D01*
G01*
X114491131Y-115892010D02*
G75*
G02*
X114525249Y-116026200I-52931J-84890D01*
G01*
X114491132Y-115892011D02*
G75*
G02*
X116557611Y-113825531I793628J1272851D01*
G01*
X114525217Y-121697409D02*
G75*
G02*
X114491118Y-121831560I-87017J-49291D01*
G01*
X114525218Y-121697410D02*
G75*
G02*
X114525221Y-116026185I5002182J2835610D01*
G01*
X114677397Y-125211796D02*
G75*
G02*
X113177404Y-123711796I3J1499996D01*
G01*
X116009783Y-105108295D02*
G75*
G02*
X116059783Y-105058283I50017J-5D01*
G01*
X116059783Y-110058294D02*
G75*
G02*
X116009806Y-110008294I17J49994D01*
G01*
X116557611Y-123898062D02*
G75*
G02*
X114491137Y-121831590I-1272811J793662D01*
G01*
X116557611Y-123898062D02*
G75*
G02*
X116691799Y-123863947I84889J-52938D01*
G01*
X116691783Y-113859617D02*
G75*
G02*
X116557641Y-113825512I-49283J87017D01*
G01*
X116691784Y-113859617D02*
G75*
G02*
X122363011Y-113859617I2835614J-5002178D01*
G01*
X117034148Y-106888527D02*
G75*
G02*
X117046385Y-106939690I1075652J230227D01*
G01*
X122363011Y-123863976D02*
G75*
G02*
X116691783Y-123863976I-2835614J5002180D01*
G01*
X122363011Y-123863976D02*
G75*
G02*
X122497162Y-123898075I49289J-87024D01*
G01*
X122497183Y-113825531D02*
G75*
G02*
X122362998Y-113859641I-84883J52931D01*
G01*
X122497183Y-113825531D02*
G75*
G02*
X124563667Y-115892018I1272817J-793669D01*
G01*
X124377397Y-112511796D02*
G75*
G02*
X125877404Y-114011796I3J-1500004D01*
G01*
X124529576Y-116026183D02*
G75*
G02*
X124529579Y-121697412I-5002176J-2835617D01*
G01*
X124529577Y-116026184D02*
G75*
G02*
X124563680Y-115892039I87023J49284D01*
G01*
X124563662Y-121831582D02*
G75*
G02*
X122497182Y-123898062I-793622J-1272858D01*
G01*
X124563663Y-121831583D02*
G75*
G02*
X124529555Y-121697398I52937J84883D01*
G01*
X125877397Y-123711796D02*
G75*
G02*
X124377397Y-125211797I-1499997J-4D01*
G01*
X125959783Y-105058295D02*
G75*
G02*
X126009805Y-105108295I17J-50005D01*
G01*
X126009783Y-110008294D02*
G75*
G02*
X125959783Y-110058283I-49983J-6D01*
G01*
X99356666Y-115383418D02*
G75*
G02*
X91356666Y-115383418I-4000000J0D01*
G01*
X91356666Y-115383418D02*
G75*
G02*
X99356666Y-115383418I4000000J0D01*
G01*
X99388999Y-107061000D02*
G75*
G02*
X96191001Y-107061000I-1598999J0D01*
G01*
X96191001Y-107061000D02*
G75*
G02*
X99388999Y-107061000I1598999J0D01*
G01*
X102758179Y-114580594D02*
G75*
G02*
X102008179Y-114580594I-375000J0D01*
G01*
X102008179Y-114580594D02*
G75*
G02*
X102758179Y-114580594I375000J0D01*
G01*
X124777397Y-118861796D02*
G75*
G02*
X114277397Y-118861796I-5250000J0D01*
G01*
X114277397Y-118861796D02*
G75*
G02*
X124777397Y-118861796I5250000J0D01*
G01*
X129869000Y-123571000D02*
G75*
G02*
X126671000Y-123571000I-1599000J0D01*
G01*
X126671000Y-123571000D02*
G75*
G02*
X129869000Y-123571000I1599000J0D01*
G01*
X134739307Y-115881206D02*
G75*
G02*
X126739307Y-115881206I-4000000J0D01*
G01*
X126739307Y-115881206D02*
G75*
G02*
X134739307Y-115881206I4000000J0D01*
G01*
%TD*%
M02*
