%TF.GenerationSoftware,KiCad,Pcbnew,9.0.4*%
%TF.CreationDate,2026-04-07T22:58:52-04:00*%
%TF.ProjectId,Hand_System_Rev_1,48616e64-5f53-4797-9374-656d5f526576,rev?*%
%TF.SameCoordinates,Original*%
%TF.FileFunction,Copper,L4,Bot*%
%TF.FilePolarity,Positive*%
%FSLAX46Y46*%
G04 Gerber Fmt 4.6, Leading zero omitted, Abs format (unit mm)*
G04 Created by KiCad (PCBNEW 9.0.4) date 2026-04-07 22:58:52*
%MOMM*%
%LPD*%
G01*
G04 APERTURE LIST*
%TA.AperFunction,ComponentPad*%
%ADD10R,2.000000X1.905000*%
%TD*%
%TA.AperFunction,ComponentPad*%
%ADD11O,2.000000X1.905000*%
%TD*%
%TA.AperFunction,ComponentPad*%
%ADD12R,1.530000X1.530000*%
%TD*%
%TA.AperFunction,ComponentPad*%
%ADD13C,1.530000*%
%TD*%
%TA.AperFunction,ComponentPad*%
%ADD14C,1.700000*%
%TD*%
%TA.AperFunction,ComponentPad*%
%ADD15R,1.700000X1.700000*%
%TD*%
%TA.AperFunction,ComponentPad*%
%ADD16O,1.600000X1.600000*%
%TD*%
%TA.AperFunction,ComponentPad*%
%ADD17R,1.600000X1.600000*%
%TD*%
%TA.AperFunction,ComponentPad*%
%ADD18R,2.540000X2.540000*%
%TD*%
%TA.AperFunction,ComponentPad*%
%ADD19C,2.540000*%
%TD*%
%TA.AperFunction,ComponentPad*%
%ADD20R,2.020000X5.020000*%
%TD*%
%TA.AperFunction,ComponentPad*%
%ADD21O,2.020000X5.020000*%
%TD*%
%TA.AperFunction,Conductor*%
%ADD22C,0.200000*%
%TD*%
G04 APERTURE END LIST*
D10*
%TO.P,Q3,1,G*%
%TO.N,Net-(Q3-G)*%
X138750000Y-66548000D03*
D11*
%TO.P,Q3,2,D*%
%TO.N,Net-(Q3-D)*%
X138750000Y-69088000D03*
%TO.P,Q3,3,S*%
%TO.N,Net-(Q3-S)*%
X138750000Y-71628000D03*
%TD*%
D10*
%TO.P,Q1,1,G*%
%TO.N,Net-(Q1-G)*%
X138430000Y-87630000D03*
D11*
%TO.P,Q1,2,D*%
%TO.N,Net-(Q1-D)*%
X138430000Y-90170000D03*
%TO.P,Q1,3,S*%
%TO.N,Net-(Q1-S)*%
X138430000Y-92710000D03*
%TD*%
D12*
%TO.P,U1,1,3V3*%
%TO.N,3.3V*%
X239522000Y-67056000D03*
D13*
%TO.P,U1,2,EN*%
%TO.N,unconnected-(U1-EN-Pad2)*%
X236982000Y-67056000D03*
%TO.P,U1,3,VP*%
%TO.N,unconnected-(U1-VP-Pad3)*%
X234442000Y-67056000D03*
%TO.P,U1,4,VN*%
%TO.N,unconnected-(U1-VN-Pad4)*%
X231902000Y-67056000D03*
%TO.P,U1,5,34*%
%TO.N,unconnected-(U1-34-Pad5)*%
X229362000Y-67056000D03*
%TO.P,U1,6,35*%
%TO.N,unconnected-(U1-35-Pad6)*%
X226822000Y-67056000D03*
%TO.P,U1,7,32*%
%TO.N,unconnected-(U1-32-Pad7)*%
X224282000Y-67056000D03*
%TO.P,U1,8,33*%
%TO.N,unconnected-(U1-33-Pad8)*%
X221742000Y-67056000D03*
%TO.P,U1,9,25*%
%TO.N,unconnected-(U1-25-Pad9)*%
X219202000Y-67056000D03*
%TO.P,U1,10,26*%
%TO.N,unconnected-(U1-26-Pad10)*%
X216662000Y-67056000D03*
%TO.P,U1,11,27*%
%TO.N,unconnected-(U1-27-Pad11)*%
X214122000Y-67056000D03*
%TO.P,U1,12,14*%
%TO.N,/DT*%
X211582000Y-67056000D03*
%TO.P,U1,13,12*%
%TO.N,/CW*%
X209042000Y-67056000D03*
%TO.P,U1,14,GND*%
%TO.N,GND*%
X206502000Y-67056000D03*
%TO.P,U1,15,13*%
%TO.N,unconnected-(U1-13-Pad15)*%
X203962000Y-67056000D03*
%TO.P,U1,16,D2*%
%TO.N,/SERVO_VG*%
X201422000Y-67056000D03*
%TO.P,U1,17,D3*%
%TO.N,/STP_VG*%
X198882000Y-67056000D03*
%TO.P,U1,18,CMD*%
%TO.N,unconnected-(U1-CMD-Pad18)*%
X196342000Y-67056000D03*
%TO.P,U1,19,5V*%
%TO.N,5V*%
X193802000Y-67056000D03*
%TO.P,U1,20,GND__1*%
%TO.N,GND*%
X193802000Y-92456000D03*
%TO.P,U1,21,23*%
%TO.N,/DIR_PIN*%
X196342000Y-92456000D03*
%TO.P,U1,22,22*%
%TO.N,/STEP_PIN*%
X198882000Y-92456000D03*
%TO.P,U1,23,TX*%
%TO.N,unconnected-(U1-TX-Pad23)*%
X201422000Y-92456000D03*
%TO.P,U1,24,RX*%
%TO.N,unconnected-(U1-RX-Pad24)*%
X203962000Y-92456000D03*
%TO.P,U1,25,21*%
%TO.N,unconnected-(U1-21-Pad25)*%
X206502000Y-92456000D03*
%TO.P,U1,26,GND__2*%
%TO.N,GND*%
X209042000Y-92456000D03*
%TO.P,U1,27,19*%
%TO.N,unconnected-(U1-19-Pad27)*%
X211582000Y-92456000D03*
%TO.P,U1,28,18*%
%TO.N,unconnected-(U1-18-Pad28)*%
X214122000Y-92456000D03*
%TO.P,U1,29,5*%
%TO.N,unconnected-(U1-5-Pad29)*%
X216662000Y-92456000D03*
%TO.P,U1,30,17*%
%TO.N,unconnected-(U1-17-Pad30)*%
X219202000Y-92456000D03*
%TO.P,U1,31,16*%
%TO.N,unconnected-(U1-16-Pad31)*%
X221742000Y-92456000D03*
%TO.P,U1,32,4*%
%TO.N,unconnected-(U1-4-Pad32)*%
X224282000Y-92456000D03*
%TO.P,U1,33,0*%
%TO.N,/SCL_SERV*%
X226822000Y-92456000D03*
%TO.P,U1,34,2*%
%TO.N,/SDA_SERV*%
X229362000Y-92456000D03*
%TO.P,U1,35,15*%
%TO.N,/SDA_SPL*%
X231902000Y-92456000D03*
%TO.P,U1,36,D1*%
%TO.N,/SCL_SPL*%
X234442000Y-92456000D03*
%TO.P,U1,37,D0*%
%TO.N,unconnected-(U1-D0-Pad37)*%
X236982000Y-92456000D03*
%TO.P,U1,38,CLK*%
%TO.N,unconnected-(U1-CLK-Pad38)*%
X239522000Y-92456000D03*
%TD*%
D14*
%TO.P,M10,3,-*%
%TO.N,/RING_1*%
X228914000Y-117869500D03*
%TO.P,M10,2,+*%
%TO.N,5V*%
X228914000Y-120409500D03*
D15*
%TO.P,M10,1,PWM*%
%TO.N,Net-(M10-PWM)*%
X228914000Y-122949500D03*
%TD*%
D14*
%TO.P,M8,3,-*%
%TO.N,/INDEX_1*%
X217992000Y-117869500D03*
%TO.P,M8,2,+*%
%TO.N,5V*%
X217992000Y-120409500D03*
D15*
%TO.P,M8,1,PWM*%
%TO.N,Net-(M8-PWM)*%
X217992000Y-122949500D03*
%TD*%
D14*
%TO.P,M9,3,-*%
%TO.N,/MIDDLE_1*%
X223326000Y-117869500D03*
%TO.P,M9,2,+*%
%TO.N,5V*%
X223326000Y-120409500D03*
D15*
%TO.P,M9,1,PWM*%
%TO.N,Net-(M9-PWM)*%
X223326000Y-122949500D03*
%TD*%
D14*
%TO.P,M11,3,-*%
%TO.N,/PINKIE_1*%
X234756000Y-117869500D03*
%TO.P,M11,2,+*%
%TO.N,5V*%
X234756000Y-120409500D03*
D15*
%TO.P,M11,1,PWM*%
%TO.N,Net-(M11-PWM)*%
X234756000Y-122949500D03*
%TD*%
D16*
%TO.P,U3,12,MS3*%
%TO.N,unconnected-(U3-MS3-Pad12)*%
X161036000Y-113792000D03*
%TO.P,U3,9,~{ENABLE}*%
%TO.N,GND*%
X161036000Y-121412000D03*
%TO.P,U3,16,DIR*%
%TO.N,/DIR_PIN*%
X161036000Y-103632000D03*
%TO.P,U3,15,STEP*%
%TO.N,/STEP_PIN*%
X161036000Y-106172000D03*
%TO.P,U3,14,~{SLEEP}*%
%TO.N,unconnected-(U3-~{SLEEP}-Pad14)*%
X161036000Y-108712000D03*
%TO.P,U3,13,~{RESET}*%
%TO.N,unconnected-(U3-~{RESET}-Pad13)*%
X161036000Y-111252000D03*
%TO.P,U3,11,MS2*%
%TO.N,unconnected-(U3-MS2-Pad11)*%
X161036000Y-116332000D03*
%TO.P,U3,10,MS1*%
%TO.N,unconnected-(U3-MS1-Pad10)*%
X161036000Y-118872000D03*
%TO.P,U3,8,VMOT*%
%TO.N,STP_P*%
X148336000Y-121412000D03*
%TO.P,U3,7,GND*%
%TO.N,GND*%
X148336000Y-118872000D03*
%TO.P,U3,6,2B*%
%TO.N,Net-(U3-2B)*%
X148336000Y-116332000D03*
%TO.P,U3,5,2A*%
%TO.N,Net-(M7--)*%
X148336000Y-113792000D03*
%TO.P,U3,4,1A*%
%TO.N,Net-(U3-1A)*%
X148336000Y-111252000D03*
%TO.P,U3,3,1B*%
%TO.N,Net-(U3-1B)*%
X148336000Y-108712000D03*
%TO.P,U3,2,VDD*%
%TO.N,5V*%
X148336000Y-106172000D03*
D17*
%TO.P,U3,1,GND*%
%TO.N,GND*%
X148336000Y-103632000D03*
%TD*%
D15*
%TO.P,M5,1,-*%
%TO.N,Net-(M5--)*%
X195326000Y-122682000D03*
D14*
%TO.P,M5,2,+*%
%TO.N,MOTOR_P*%
X195326000Y-120142000D03*
%TO.P,M5,3,PWM*%
%TO.N,/RING_2*%
X195326000Y-117602000D03*
%TD*%
D15*
%TO.P,M7,1*%
%TO.N,Net-(U3-2B)*%
X141214000Y-118364000D03*
D14*
%TO.P,M7,2,-*%
%TO.N,Net-(M7--)*%
X141214000Y-115824000D03*
%TO.P,M7,3*%
%TO.N,Net-(U3-1A)*%
X141214000Y-113284000D03*
%TO.P,M7,4*%
%TO.N,Net-(U3-1B)*%
X141214000Y-110744000D03*
%TD*%
D15*
%TO.P,M1,1,-*%
%TO.N,Net-(M1--)*%
X212658000Y-122949500D03*
D14*
%TO.P,M1,2,+*%
%TO.N,5V*%
X212658000Y-120409500D03*
%TO.P,M1,3,PWM*%
%TO.N,/THUMB_1*%
X212658000Y-117869500D03*
%TD*%
D18*
%TO.P,U2,1,Vin*%
%TO.N,15V*%
X110744000Y-37338000D03*
D19*
%TO.P,U2,2,GND*%
%TO.N,GND*%
X110744000Y-55118000D03*
%TO.P,U2,3,GND*%
X151384000Y-55118000D03*
%TO.P,U2,4,Vout*%
%TO.N,12V*%
X151384000Y-37338000D03*
%TD*%
D20*
%TO.P,J1,1*%
%TO.N,15V*%
X105150000Y-90932000D03*
D21*
%TO.P,J1,2*%
%TO.N,GND*%
X99970000Y-90932000D03*
%TD*%
D15*
%TO.P,U4,1,VCC*%
%TO.N,5V*%
X204470000Y-63246000D03*
D14*
%TO.P,U4,2,GND*%
%TO.N,GND*%
X207010000Y-63246000D03*
%TO.P,U4,3,CW*%
%TO.N,/CW*%
X209550000Y-63246000D03*
%TO.P,U4,4,DT*%
%TO.N,/DT*%
X212090000Y-63246000D03*
%TD*%
D15*
%TO.P,M4,1,-*%
%TO.N,Net-(M4--)*%
X190246000Y-122682000D03*
D14*
%TO.P,M4,2,+*%
%TO.N,MOTOR_P*%
X190246000Y-120142000D03*
%TO.P,M4,3,PWM*%
%TO.N,/MIDDLE_2*%
X190246000Y-117602000D03*
%TD*%
D15*
%TO.P,M3,1,-*%
%TO.N,Net-(M3--)*%
X185420000Y-122682000D03*
D14*
%TO.P,M3,2,+*%
%TO.N,MOTOR_P*%
X185420000Y-120142000D03*
%TO.P,M3,3,PWM*%
%TO.N,/INDEX_2*%
X185420000Y-117602000D03*
%TD*%
D15*
%TO.P,M2,1,-*%
%TO.N,Net-(M2--)*%
X180340000Y-122682000D03*
D14*
%TO.P,M2,2,+*%
%TO.N,MOTOR_P*%
X180340000Y-120142000D03*
%TO.P,M2,3,PWM*%
%TO.N,/THUMB_2*%
X180340000Y-117602000D03*
%TD*%
D15*
%TO.P,M6,1,-*%
%TO.N,Net-(M6--)*%
X200152000Y-122682000D03*
D14*
%TO.P,M6,2,+*%
%TO.N,MOTOR_P*%
X200152000Y-120142000D03*
%TO.P,M6,3,PWM*%
%TO.N,/PINKIE_2*%
X200152000Y-117602000D03*
%TD*%
D18*
%TO.P,U5,1,Vin*%
%TO.N,12V*%
X177800000Y-36830000D03*
D19*
%TO.P,U5,2,GND*%
%TO.N,GND*%
X177800000Y-54610000D03*
%TO.P,U5,3,GND*%
X218440000Y-54610000D03*
%TO.P,U5,4,Vout*%
%TO.N,7.2V*%
X218440000Y-36830000D03*
%TD*%
D18*
%TO.P,U6,1,Vin*%
%TO.N,7.2V*%
X92710000Y-106426000D03*
D19*
%TO.P,U6,2,GND*%
%TO.N,GND*%
X92710000Y-124206000D03*
%TO.P,U6,3,GND*%
X133350000Y-124206000D03*
%TO.P,U6,4,Vout*%
%TO.N,5V*%
X133350000Y-106426000D03*
%TD*%
D22*
%TO.N,Net-(U3-2B)*%
X143246000Y-116332000D02*
X141214000Y-118364000D01*
X148336000Y-116332000D02*
X143246000Y-116332000D01*
%TO.N,Net-(M7--)*%
X143246000Y-113792000D02*
X141214000Y-115824000D01*
X148336000Y-113792000D02*
X143246000Y-113792000D01*
%TO.N,Net-(U3-1A)*%
X143246000Y-111252000D02*
X141214000Y-113284000D01*
X148336000Y-111252000D02*
X143246000Y-111252000D01*
%TO.N,Net-(U3-1B)*%
X143246000Y-108712000D02*
X141214000Y-110744000D01*
X148336000Y-108712000D02*
X143246000Y-108712000D01*
%TO.N,/STEP_PIN*%
X185166000Y-106172000D02*
X198882000Y-92456000D01*
X161036000Y-106172000D02*
X185166000Y-106172000D01*
%TO.N,/DIR_PIN*%
X185166000Y-103632000D02*
X196342000Y-92456000D01*
X161036000Y-103632000D02*
X185166000Y-103632000D01*
%TD*%
%TA.AperFunction,Conductor*%
%TO.N,GND*%
G36*
X234190245Y-28776427D02*
G01*
X234682219Y-28794201D01*
X234691143Y-28794846D01*
X235178353Y-28847838D01*
X235187184Y-28849122D01*
X235669318Y-28937138D01*
X235678018Y-28939054D01*
X236152528Y-29061628D01*
X236161104Y-29064177D01*
X236625527Y-29220672D01*
X236633876Y-29223825D01*
X237085808Y-29413433D01*
X237093903Y-29417178D01*
X237530956Y-29638895D01*
X237538784Y-29643228D01*
X237958694Y-29895904D01*
X237966195Y-29900795D01*
X238366766Y-30183108D01*
X238373894Y-30188527D01*
X238543273Y-30327228D01*
X238753067Y-30499024D01*
X238759771Y-30504931D01*
X239115534Y-30841968D01*
X239121800Y-30848349D01*
X239452324Y-31210192D01*
X239458120Y-31217016D01*
X239761658Y-31601751D01*
X239766947Y-31608977D01*
X240041934Y-32014619D01*
X240046687Y-32022207D01*
X240291676Y-32446622D01*
X240295870Y-32454533D01*
X240509606Y-32895547D01*
X240513217Y-32903740D01*
X240694564Y-33359008D01*
X240697575Y-33367441D01*
X240845594Y-33834608D01*
X240847989Y-33843236D01*
X240961913Y-34319874D01*
X240963679Y-34328653D01*
X241042910Y-34812279D01*
X241044037Y-34821162D01*
X241088159Y-35309219D01*
X241088643Y-35318159D01*
X241097471Y-35810377D01*
X241097491Y-35812576D01*
X241097491Y-35813770D01*
X241097067Y-35837155D01*
X241097496Y-35837768D01*
X241097500Y-35857044D01*
X241097497Y-35857052D01*
X241097500Y-35857069D01*
X241097500Y-135125785D01*
X241097421Y-135130211D01*
X241080053Y-135616485D01*
X241079422Y-135625314D01*
X241027644Y-136106923D01*
X241026384Y-136115685D01*
X240940381Y-136592368D01*
X240938499Y-136601017D01*
X240818711Y-137070342D01*
X240816217Y-137078835D01*
X240663254Y-137538414D01*
X240660161Y-137546708D01*
X240474795Y-137994221D01*
X240471118Y-138002272D01*
X240254309Y-138435402D01*
X240250067Y-138443172D01*
X240002896Y-138859756D01*
X239998110Y-138867202D01*
X239721868Y-139265066D01*
X239716564Y-139272152D01*
X239412630Y-139649312D01*
X239406833Y-139656002D01*
X239076771Y-140010512D01*
X239070512Y-140016771D01*
X238716002Y-140346833D01*
X238709312Y-140352630D01*
X238332152Y-140656564D01*
X238325066Y-140661868D01*
X237927202Y-140938110D01*
X237919756Y-140942896D01*
X237503172Y-141190067D01*
X237495402Y-141194309D01*
X237062272Y-141411118D01*
X237054221Y-141414795D01*
X236606708Y-141600161D01*
X236598414Y-141603254D01*
X236138835Y-141756217D01*
X236130342Y-141758711D01*
X235661017Y-141878499D01*
X235652368Y-141880381D01*
X235175685Y-141966384D01*
X235166923Y-141967644D01*
X234685314Y-142019422D01*
X234676485Y-142020053D01*
X234190212Y-142037421D01*
X234185786Y-142037500D01*
X93474214Y-142037500D01*
X93469788Y-142037421D01*
X92983514Y-142020053D01*
X92974685Y-142019422D01*
X92493076Y-141967644D01*
X92484314Y-141966384D01*
X92007631Y-141880381D01*
X91998982Y-141878499D01*
X91529657Y-141758711D01*
X91521164Y-141756217D01*
X91061585Y-141603254D01*
X91053291Y-141600161D01*
X90605778Y-141414795D01*
X90597727Y-141411118D01*
X90164597Y-141194309D01*
X90156827Y-141190067D01*
X89740243Y-140942896D01*
X89732797Y-140938110D01*
X89334933Y-140661868D01*
X89327847Y-140656564D01*
X88950687Y-140352630D01*
X88943997Y-140346833D01*
X88589487Y-140016771D01*
X88583228Y-140010512D01*
X88253166Y-139656002D01*
X88247369Y-139649312D01*
X87943435Y-139272152D01*
X87938131Y-139265066D01*
X87661889Y-138867202D01*
X87657103Y-138859756D01*
X87409932Y-138443172D01*
X87405690Y-138435402D01*
X87333115Y-138290416D01*
X87188878Y-138002266D01*
X87185204Y-137994221D01*
X86999838Y-137546708D01*
X86996745Y-137538414D01*
X86983398Y-137498312D01*
X86843780Y-137078829D01*
X86841288Y-137070342D01*
X86803103Y-136920734D01*
X86721495Y-136600997D01*
X86719622Y-136592389D01*
X86633611Y-136115662D01*
X86632358Y-136106946D01*
X86580575Y-135625296D01*
X86579947Y-135616503D01*
X86562579Y-135130211D01*
X86562500Y-135125812D01*
X86562500Y-135125785D01*
X86562500Y-135103469D01*
X86562495Y-135103462D01*
X86562448Y-134866186D01*
X91070346Y-134866186D01*
X91070346Y-135135813D01*
X91100532Y-135403719D01*
X91100534Y-135403731D01*
X91160530Y-135666594D01*
X91160533Y-135666602D01*
X91249580Y-135921082D01*
X91366560Y-136163994D01*
X91366562Y-136163997D01*
X91510008Y-136392289D01*
X91678112Y-136603085D01*
X91868761Y-136793734D01*
X92079557Y-136961838D01*
X92307849Y-137105284D01*
X92550767Y-137222267D01*
X92741895Y-137289145D01*
X92805243Y-137311312D01*
X92805251Y-137311315D01*
X92805254Y-137311315D01*
X92805255Y-137311316D01*
X93068114Y-137371312D01*
X93336033Y-137401499D01*
X93336034Y-137401500D01*
X93336037Y-137401500D01*
X93605658Y-137401500D01*
X93605658Y-137401499D01*
X93873578Y-137371312D01*
X94136437Y-137311316D01*
X94390925Y-137222267D01*
X94633843Y-137105284D01*
X94862135Y-136961838D01*
X95072931Y-136793734D01*
X95263580Y-136603085D01*
X95431684Y-136392289D01*
X95575130Y-136163997D01*
X95692113Y-135921079D01*
X95781162Y-135666591D01*
X95841158Y-135403732D01*
X95871346Y-135135809D01*
X95871346Y-134993186D01*
X231787500Y-134993186D01*
X231787500Y-135262813D01*
X231817686Y-135530719D01*
X231817688Y-135530731D01*
X231877684Y-135793594D01*
X231877687Y-135793602D01*
X231966734Y-136048082D01*
X232083714Y-136290994D01*
X232083716Y-136290997D01*
X232227162Y-136519289D01*
X232395266Y-136730085D01*
X232585915Y-136920734D01*
X232796711Y-137088838D01*
X233025003Y-137232284D01*
X233267921Y-137349267D01*
X233417192Y-137401499D01*
X233522397Y-137438312D01*
X233522405Y-137438315D01*
X233522408Y-137438315D01*
X233522409Y-137438316D01*
X233785268Y-137498312D01*
X234053187Y-137528499D01*
X234053188Y-137528500D01*
X234053191Y-137528500D01*
X234322812Y-137528500D01*
X234322812Y-137528499D01*
X234590732Y-137498312D01*
X234853591Y-137438316D01*
X235108079Y-137349267D01*
X235350997Y-137232284D01*
X235579289Y-137088838D01*
X235790085Y-136920734D01*
X235980734Y-136730085D01*
X236148838Y-136519289D01*
X236292284Y-136290997D01*
X236409267Y-136048079D01*
X236498316Y-135793591D01*
X236558312Y-135530732D01*
X236588500Y-135262809D01*
X236588500Y-134993191D01*
X236558312Y-134725268D01*
X236498316Y-134462409D01*
X236409267Y-134207921D01*
X236292284Y-133965003D01*
X236148838Y-133736711D01*
X235980734Y-133525915D01*
X235790085Y-133335266D01*
X235579289Y-133167162D01*
X235350997Y-133023716D01*
X235350994Y-133023714D01*
X235108082Y-132906734D01*
X234853602Y-132817687D01*
X234853594Y-132817684D01*
X234656446Y-132772687D01*
X234590732Y-132757688D01*
X234590728Y-132757687D01*
X234590719Y-132757686D01*
X234322813Y-132727500D01*
X234322809Y-132727500D01*
X234053191Y-132727500D01*
X234053186Y-132727500D01*
X233785280Y-132757686D01*
X233785268Y-132757688D01*
X233522405Y-132817684D01*
X233522397Y-132817687D01*
X233267917Y-132906734D01*
X233025005Y-133023714D01*
X232796712Y-133167161D01*
X232585915Y-133335265D01*
X232395265Y-133525915D01*
X232227161Y-133736712D01*
X232083714Y-133965005D01*
X231966734Y-134207917D01*
X231877687Y-134462397D01*
X231877684Y-134462405D01*
X231817688Y-134725268D01*
X231817686Y-134725280D01*
X231787500Y-134993186D01*
X95871346Y-134993186D01*
X95871346Y-134866191D01*
X95841158Y-134598268D01*
X95781162Y-134335409D01*
X95692113Y-134080921D01*
X95575130Y-133838003D01*
X95431684Y-133609711D01*
X95263580Y-133398915D01*
X95072931Y-133208266D01*
X94862135Y-133040162D01*
X94704459Y-132941087D01*
X94633840Y-132896714D01*
X94390928Y-132779734D01*
X94136448Y-132690687D01*
X94136440Y-132690684D01*
X93939292Y-132645687D01*
X93873578Y-132630688D01*
X93873574Y-132630687D01*
X93873565Y-132630686D01*
X93605659Y-132600500D01*
X93605655Y-132600500D01*
X93336037Y-132600500D01*
X93336032Y-132600500D01*
X93068126Y-132630686D01*
X93068114Y-132630688D01*
X92805251Y-132690684D01*
X92805243Y-132690687D01*
X92550763Y-132779734D01*
X92307851Y-132896714D01*
X92079558Y-133040161D01*
X91868761Y-133208265D01*
X91678111Y-133398915D01*
X91510007Y-133609712D01*
X91366560Y-133838005D01*
X91249580Y-134080917D01*
X91160533Y-134335397D01*
X91160530Y-134335405D01*
X91100534Y-134598268D01*
X91100532Y-134598280D01*
X91070346Y-134866186D01*
X86562448Y-134866186D01*
X86560621Y-125680855D01*
X86560600Y-125573954D01*
X86560305Y-124089994D01*
X90940000Y-124089994D01*
X90940000Y-124322005D01*
X90940001Y-124322022D01*
X90970283Y-124552040D01*
X90970286Y-124552053D01*
X91030336Y-124776167D01*
X91119124Y-124990521D01*
X91119132Y-124990538D01*
X91235136Y-125191461D01*
X91235142Y-125191469D01*
X91294117Y-125268327D01*
X92227037Y-124335408D01*
X92244075Y-124398993D01*
X92309901Y-124513007D01*
X92402993Y-124606099D01*
X92517007Y-124671925D01*
X92580591Y-124688962D01*
X91647671Y-125621881D01*
X91724530Y-125680857D01*
X91724538Y-125680863D01*
X91925461Y-125796867D01*
X91925478Y-125796875D01*
X92139832Y-125885663D01*
X92363946Y-125945713D01*
X92363959Y-125945716D01*
X92593977Y-125975998D01*
X92593995Y-125976000D01*
X92826005Y-125976000D01*
X92826022Y-125975998D01*
X93056040Y-125945716D01*
X93056053Y-125945713D01*
X93280167Y-125885663D01*
X93494521Y-125796875D01*
X93494538Y-125796867D01*
X93695475Y-125680855D01*
X93772327Y-125621883D01*
X93772327Y-125621880D01*
X92839408Y-124688962D01*
X92902993Y-124671925D01*
X93017007Y-124606099D01*
X93110099Y-124513007D01*
X93175925Y-124398993D01*
X93192962Y-124335408D01*
X94125880Y-125268327D01*
X94125883Y-125268327D01*
X94184855Y-125191475D01*
X94300867Y-124990538D01*
X94300875Y-124990521D01*
X94389663Y-124776167D01*
X94449713Y-124552053D01*
X94449716Y-124552040D01*
X94479998Y-124322022D01*
X94480000Y-124322005D01*
X94480000Y-124089994D01*
X131580000Y-124089994D01*
X131580000Y-124322005D01*
X131580001Y-124322022D01*
X131610283Y-124552040D01*
X131610286Y-124552053D01*
X131670336Y-124776167D01*
X131759124Y-124990521D01*
X131759132Y-124990538D01*
X131875136Y-125191461D01*
X131875142Y-125191469D01*
X131934117Y-125268327D01*
X132867037Y-124335408D01*
X132884075Y-124398993D01*
X132949901Y-124513007D01*
X133042993Y-124606099D01*
X133157007Y-124671925D01*
X133220591Y-124688962D01*
X132287671Y-125621881D01*
X132364530Y-125680857D01*
X132364538Y-125680863D01*
X132565461Y-125796867D01*
X132565478Y-125796875D01*
X132779832Y-125885663D01*
X133003946Y-125945713D01*
X133003959Y-125945716D01*
X133233977Y-125975998D01*
X133233995Y-125976000D01*
X133466005Y-125976000D01*
X133466022Y-125975998D01*
X133696040Y-125945716D01*
X133696053Y-125945713D01*
X133920167Y-125885663D01*
X134134521Y-125796875D01*
X134134538Y-125796867D01*
X134335475Y-125680855D01*
X134412327Y-125621883D01*
X134412327Y-125621880D01*
X133479408Y-124688962D01*
X133542993Y-124671925D01*
X133657007Y-124606099D01*
X133750099Y-124513007D01*
X133815925Y-124398993D01*
X133832962Y-124335409D01*
X134765880Y-125268327D01*
X134765883Y-125268327D01*
X134824855Y-125191475D01*
X134940867Y-124990538D01*
X134940875Y-124990521D01*
X135029663Y-124776167D01*
X135089713Y-124552053D01*
X135089716Y-124552040D01*
X135119998Y-124322022D01*
X135120000Y-124322005D01*
X135120000Y-124089994D01*
X135119998Y-124089977D01*
X135089716Y-123859959D01*
X135089713Y-123859946D01*
X135029663Y-123635832D01*
X134940875Y-123421478D01*
X134940867Y-123421461D01*
X134824863Y-123220538D01*
X134824857Y-123220530D01*
X134765881Y-123143671D01*
X133832962Y-124076590D01*
X133815925Y-124013007D01*
X133750099Y-123898993D01*
X133657007Y-123805901D01*
X133542993Y-123740075D01*
X133479409Y-123723037D01*
X134412327Y-122790117D01*
X134335469Y-122731142D01*
X134335461Y-122731136D01*
X134134538Y-122615132D01*
X134134521Y-122615124D01*
X133920167Y-122526336D01*
X133696053Y-122466286D01*
X133696040Y-122466283D01*
X133466022Y-122436001D01*
X133466005Y-122436000D01*
X133233995Y-122436000D01*
X133233977Y-122436001D01*
X133003959Y-122466283D01*
X133003946Y-122466286D01*
X132779832Y-122526336D01*
X132565478Y-122615124D01*
X132565461Y-122615132D01*
X132364541Y-122731134D01*
X132364533Y-122731140D01*
X132287671Y-122790116D01*
X132287671Y-122790117D01*
X133220591Y-123723037D01*
X133157007Y-123740075D01*
X133042993Y-123805901D01*
X132949901Y-123898993D01*
X132884075Y-124013007D01*
X132867037Y-124076590D01*
X131934117Y-123143671D01*
X131934116Y-123143671D01*
X131875140Y-123220533D01*
X131875134Y-123220541D01*
X131759132Y-123421461D01*
X131759124Y-123421478D01*
X131670336Y-123635832D01*
X131610286Y-123859946D01*
X131610283Y-123859959D01*
X131580001Y-124089977D01*
X131580000Y-124089994D01*
X94480000Y-124089994D01*
X94479998Y-124089977D01*
X94449716Y-123859959D01*
X94449713Y-123859946D01*
X94389663Y-123635832D01*
X94300875Y-123421478D01*
X94300867Y-123421461D01*
X94184863Y-123220538D01*
X94184857Y-123220530D01*
X94125881Y-123143671D01*
X93192962Y-124076590D01*
X93175925Y-124013007D01*
X93110099Y-123898993D01*
X93017007Y-123805901D01*
X92902993Y-123740075D01*
X92839409Y-123723037D01*
X93772327Y-122790117D01*
X93695469Y-122731142D01*
X93695461Y-122731136D01*
X93494538Y-122615132D01*
X93494521Y-122615124D01*
X93280167Y-122526336D01*
X93056053Y-122466286D01*
X93056040Y-122466283D01*
X92826022Y-122436001D01*
X92826005Y-122436000D01*
X92593995Y-122436000D01*
X92593977Y-122436001D01*
X92363959Y-122466283D01*
X92363946Y-122466286D01*
X92139832Y-122526336D01*
X91925478Y-122615124D01*
X91925461Y-122615132D01*
X91724541Y-122731134D01*
X91724533Y-122731140D01*
X91647671Y-122790116D01*
X91647671Y-122790117D01*
X92580591Y-123723037D01*
X92517007Y-123740075D01*
X92402993Y-123805901D01*
X92309901Y-123898993D01*
X92244075Y-124013007D01*
X92227037Y-124076591D01*
X91294117Y-123143671D01*
X91294116Y-123143671D01*
X91235140Y-123220533D01*
X91235134Y-123220541D01*
X91119132Y-123421461D01*
X91119124Y-123421478D01*
X91030336Y-123635832D01*
X90970286Y-123859946D01*
X90970283Y-123859959D01*
X90940001Y-124089977D01*
X90940000Y-124089994D01*
X86560305Y-124089994D01*
X86560304Y-124085954D01*
X86560056Y-122838095D01*
X86559751Y-121304801D01*
X86558380Y-114412185D01*
X86557629Y-110637713D01*
X139863500Y-110637713D01*
X139863500Y-110850287D01*
X139896754Y-111060243D01*
X139924321Y-111145086D01*
X139962444Y-111262414D01*
X140058951Y-111451820D01*
X140183890Y-111623786D01*
X140334213Y-111774109D01*
X140506182Y-111899050D01*
X140514946Y-111903516D01*
X140565742Y-111951491D01*
X140582536Y-112019312D01*
X140559998Y-112085447D01*
X140514946Y-112124484D01*
X140506182Y-112128949D01*
X140334213Y-112253890D01*
X140183890Y-112404213D01*
X140058951Y-112576179D01*
X139962444Y-112765585D01*
X139896753Y-112967760D01*
X139874163Y-113110390D01*
X139863500Y-113177713D01*
X139863500Y-113390287D01*
X139896754Y-113600243D01*
X139924321Y-113685086D01*
X139962444Y-113802414D01*
X140058951Y-113991820D01*
X140183890Y-114163786D01*
X140334213Y-114314109D01*
X140506182Y-114439050D01*
X140514946Y-114443516D01*
X140565742Y-114491491D01*
X140582536Y-114559312D01*
X140559998Y-114625447D01*
X140514946Y-114664484D01*
X140506182Y-114668949D01*
X140334213Y-114793890D01*
X140183890Y-114944213D01*
X140058951Y-115116179D01*
X139962444Y-115305585D01*
X139896753Y-115507760D01*
X139874163Y-115650390D01*
X139863500Y-115717713D01*
X139863500Y-115930287D01*
X139896754Y-116140243D01*
X139943708Y-116284753D01*
X139962444Y-116342414D01*
X140058951Y-116531820D01*
X140183890Y-116703786D01*
X140297430Y-116817326D01*
X140330915Y-116878649D01*
X140325931Y-116948341D01*
X140284059Y-117004274D01*
X140253083Y-117021189D01*
X140121669Y-117070203D01*
X140121664Y-117070206D01*
X140006455Y-117156452D01*
X140006452Y-117156455D01*
X139920206Y-117271664D01*
X139920202Y-117271671D01*
X139869908Y-117406517D01*
X139863501Y-117466116D01*
X139863500Y-117466135D01*
X139863500Y-119261870D01*
X139863501Y-119261876D01*
X139869908Y-119321483D01*
X139920202Y-119456328D01*
X139920206Y-119456335D01*
X140006452Y-119571544D01*
X140006455Y-119571547D01*
X140121664Y-119657793D01*
X140121671Y-119657797D01*
X140256517Y-119708091D01*
X140256516Y-119708091D01*
X140263444Y-119708835D01*
X140316127Y-119714500D01*
X142111872Y-119714499D01*
X142171483Y-119708091D01*
X142306331Y-119657796D01*
X142421546Y-119571546D01*
X142507796Y-119456331D01*
X142558091Y-119321483D01*
X142564500Y-119261873D01*
X142564499Y-117914096D01*
X142584184Y-117847058D01*
X142600818Y-117826416D01*
X143458416Y-116968819D01*
X143519739Y-116935334D01*
X143546097Y-116932500D01*
X147106398Y-116932500D01*
X147173437Y-116952185D01*
X147216883Y-117000205D01*
X147223715Y-117013614D01*
X147344028Y-117179213D01*
X147488786Y-117323971D01*
X147643749Y-117436556D01*
X147654390Y-117444287D01*
X147726424Y-117480990D01*
X147747629Y-117491795D01*
X147798425Y-117539770D01*
X147815220Y-117607591D01*
X147792682Y-117673726D01*
X147747629Y-117712765D01*
X147654650Y-117760140D01*
X147489105Y-117880417D01*
X147489104Y-117880417D01*
X147344417Y-118025104D01*
X147344417Y-118025105D01*
X147224140Y-118190650D01*
X147131244Y-118372970D01*
X147068009Y-118567586D01*
X147059391Y-118622000D01*
X147902988Y-118622000D01*
X147870075Y-118679007D01*
X147836000Y-118806174D01*
X147836000Y-118937826D01*
X147870075Y-119064993D01*
X147902988Y-119122000D01*
X147059391Y-119122000D01*
X147068009Y-119176413D01*
X147131244Y-119371029D01*
X147224140Y-119553349D01*
X147344417Y-119718894D01*
X147344417Y-119718895D01*
X147489104Y-119863582D01*
X147654652Y-119983861D01*
X147747628Y-120031234D01*
X147798425Y-120079208D01*
X147815220Y-120147029D01*
X147792683Y-120213164D01*
X147747630Y-120252203D01*
X147654388Y-120299713D01*
X147488786Y-120420028D01*
X147344028Y-120564786D01*
X147223715Y-120730386D01*
X147130781Y-120912776D01*
X147067522Y-121107465D01*
X147035500Y-121309648D01*
X147035500Y-121514351D01*
X147067522Y-121716534D01*
X147130781Y-121911223D01*
X147223715Y-122093613D01*
X147344028Y-122259213D01*
X147488786Y-122403971D01*
X147643749Y-122516556D01*
X147654390Y-122524287D01*
X147770607Y-122583503D01*
X147836776Y-122617218D01*
X147836778Y-122617218D01*
X147836781Y-122617220D01*
X147941137Y-122651127D01*
X148031465Y-122680477D01*
X148132557Y-122696488D01*
X148233648Y-122712500D01*
X148233649Y-122712500D01*
X148438351Y-122712500D01*
X148438352Y-122712500D01*
X148640534Y-122680477D01*
X148835219Y-122617220D01*
X149017610Y-122524287D01*
X149110590Y-122456732D01*
X149183213Y-122403971D01*
X149183215Y-122403968D01*
X149183219Y-122403966D01*
X149327966Y-122259219D01*
X149327968Y-122259215D01*
X149327971Y-122259213D01*
X149380732Y-122186590D01*
X149448287Y-122093610D01*
X149541220Y-121911219D01*
X149604477Y-121716534D01*
X149636500Y-121514352D01*
X149636500Y-121309648D01*
X149624178Y-121231853D01*
X149604477Y-121107465D01*
X149541218Y-120912776D01*
X149448419Y-120730650D01*
X149448287Y-120730390D01*
X149397447Y-120660414D01*
X149327971Y-120564786D01*
X149183213Y-120420028D01*
X149017611Y-120299713D01*
X148924369Y-120252203D01*
X148873574Y-120204229D01*
X148856779Y-120136407D01*
X148879317Y-120070273D01*
X148924371Y-120031234D01*
X149017347Y-119983861D01*
X149182894Y-119863582D01*
X149182895Y-119863582D01*
X149327582Y-119718895D01*
X149327582Y-119718894D01*
X149447859Y-119553349D01*
X149540755Y-119371029D01*
X149603990Y-119176413D01*
X149612609Y-119122000D01*
X148769012Y-119122000D01*
X148801925Y-119064993D01*
X148836000Y-118937826D01*
X148836000Y-118806174D01*
X148801925Y-118679007D01*
X148769012Y-118622000D01*
X149612609Y-118622000D01*
X149603990Y-118567586D01*
X149540755Y-118372970D01*
X149447859Y-118190650D01*
X149327582Y-118025105D01*
X149327582Y-118025104D01*
X149182895Y-117880417D01*
X149017349Y-117760140D01*
X148924370Y-117712765D01*
X148873574Y-117664790D01*
X148856779Y-117596969D01*
X148879316Y-117530835D01*
X148924370Y-117491795D01*
X148924920Y-117491515D01*
X149017610Y-117444287D01*
X149038770Y-117428913D01*
X149183213Y-117323971D01*
X149183215Y-117323968D01*
X149183219Y-117323966D01*
X149327966Y-117179219D01*
X149327968Y-117179215D01*
X149327971Y-117179213D01*
X149397445Y-117083588D01*
X149448287Y-117013610D01*
X149541220Y-116831219D01*
X149604477Y-116636534D01*
X149636500Y-116434352D01*
X149636500Y-116229648D01*
X149604477Y-116027466D01*
X149541220Y-115832781D01*
X149541218Y-115832778D01*
X149541218Y-115832776D01*
X149507503Y-115766607D01*
X149448287Y-115650390D01*
X149440556Y-115639749D01*
X149327971Y-115484786D01*
X149183213Y-115340028D01*
X149017614Y-115219715D01*
X149011006Y-115216348D01*
X148924917Y-115172483D01*
X148874123Y-115124511D01*
X148857328Y-115056690D01*
X148879865Y-114990555D01*
X148924917Y-114951516D01*
X149017610Y-114904287D01*
X149038770Y-114888913D01*
X149183213Y-114783971D01*
X149183215Y-114783968D01*
X149183219Y-114783966D01*
X149327966Y-114639219D01*
X149327968Y-114639215D01*
X149327971Y-114639213D01*
X149403280Y-114535557D01*
X149448287Y-114473610D01*
X149541220Y-114291219D01*
X149604477Y-114096534D01*
X149636500Y-113894352D01*
X149636500Y-113689648D01*
X149604477Y-113487466D01*
X149541220Y-113292781D01*
X149541218Y-113292778D01*
X149541218Y-113292776D01*
X149507503Y-113226607D01*
X149448287Y-113110390D01*
X149440556Y-113099749D01*
X149327971Y-112944786D01*
X149183213Y-112800028D01*
X149017614Y-112679715D01*
X149011006Y-112676348D01*
X148924917Y-112632483D01*
X148874123Y-112584511D01*
X148857328Y-112516690D01*
X148879865Y-112450555D01*
X148924917Y-112411516D01*
X149017610Y-112364287D01*
X149038770Y-112348913D01*
X149183213Y-112243971D01*
X149183215Y-112243968D01*
X149183219Y-112243966D01*
X149327966Y-112099219D01*
X149327968Y-112099215D01*
X149327971Y-112099213D01*
X149403280Y-111995557D01*
X149448287Y-111933610D01*
X149541220Y-111751219D01*
X149604477Y-111556534D01*
X149636500Y-111354352D01*
X149636500Y-111149648D01*
X149604477Y-110947466D01*
X149541220Y-110752781D01*
X149541218Y-110752778D01*
X149541218Y-110752776D01*
X149507503Y-110686607D01*
X149448287Y-110570390D01*
X149440556Y-110559749D01*
X149327971Y-110404786D01*
X149183213Y-110260028D01*
X149017614Y-110139715D01*
X149011006Y-110136348D01*
X148924917Y-110092483D01*
X148874123Y-110044511D01*
X148857328Y-109976690D01*
X148879865Y-109910555D01*
X148924917Y-109871516D01*
X149017610Y-109824287D01*
X149038770Y-109808913D01*
X149183213Y-109703971D01*
X149183215Y-109703968D01*
X149183219Y-109703966D01*
X149327966Y-109559219D01*
X149327968Y-109559215D01*
X149327971Y-109559213D01*
X149414226Y-109440491D01*
X149448287Y-109393610D01*
X149541220Y-109211219D01*
X149604477Y-109016534D01*
X149636500Y-108814352D01*
X149636500Y-108609648D01*
X149604477Y-108407466D01*
X149541220Y-108212781D01*
X149541218Y-108212778D01*
X149541218Y-108212776D01*
X149504031Y-108139793D01*
X149448287Y-108030390D01*
X149381401Y-107938328D01*
X149327971Y-107864786D01*
X149183213Y-107720028D01*
X149017614Y-107599715D01*
X149010078Y-107595875D01*
X148924917Y-107552483D01*
X148874123Y-107504511D01*
X148857328Y-107436690D01*
X148879865Y-107370555D01*
X148924917Y-107331516D01*
X149017610Y-107284287D01*
X149038770Y-107268913D01*
X149183213Y-107163971D01*
X149183215Y-107163968D01*
X149183219Y-107163966D01*
X149327966Y-107019219D01*
X149327968Y-107019215D01*
X149327971Y-107019213D01*
X149380732Y-106946590D01*
X149448287Y-106853610D01*
X149541220Y-106671219D01*
X149604477Y-106476534D01*
X149636500Y-106274352D01*
X149636500Y-106069648D01*
X149604477Y-105867466D01*
X149600644Y-105855670D01*
X149541218Y-105672776D01*
X149507503Y-105606607D01*
X149448287Y-105490390D01*
X149411863Y-105440256D01*
X149327971Y-105324786D01*
X149183217Y-105180032D01*
X149183212Y-105180028D01*
X149146325Y-105153228D01*
X149103659Y-105097898D01*
X149097680Y-105028285D01*
X149130286Y-104966490D01*
X149191124Y-104932133D01*
X149205956Y-104929620D01*
X149243379Y-104925596D01*
X149378086Y-104875354D01*
X149378093Y-104875350D01*
X149493187Y-104789190D01*
X149493190Y-104789187D01*
X149579350Y-104674093D01*
X149579354Y-104674086D01*
X149629596Y-104539379D01*
X149629598Y-104539372D01*
X149635999Y-104479844D01*
X149636000Y-104479827D01*
X149636000Y-103882000D01*
X148769012Y-103882000D01*
X148801925Y-103824993D01*
X148836000Y-103697826D01*
X148836000Y-103566174D01*
X148826213Y-103529648D01*
X159735500Y-103529648D01*
X159735500Y-103734351D01*
X159767522Y-103936534D01*
X159830781Y-104131223D01*
X159923715Y-104313613D01*
X160044028Y-104479213D01*
X160188786Y-104623971D01*
X160310228Y-104712202D01*
X160354390Y-104744287D01*
X160442511Y-104789187D01*
X160447080Y-104791515D01*
X160497876Y-104839490D01*
X160514671Y-104907311D01*
X160492134Y-104973446D01*
X160447080Y-105012485D01*
X160354386Y-105059715D01*
X160188786Y-105180028D01*
X160044028Y-105324786D01*
X159923715Y-105490386D01*
X159830781Y-105672776D01*
X159767522Y-105867465D01*
X159735500Y-106069648D01*
X159735500Y-106274351D01*
X159767522Y-106476534D01*
X159830781Y-106671223D01*
X159923715Y-106853613D01*
X160044028Y-107019213D01*
X160188786Y-107163971D01*
X160343749Y-107276556D01*
X160354390Y-107284287D01*
X160445840Y-107330883D01*
X160447080Y-107331515D01*
X160497876Y-107379490D01*
X160514671Y-107447311D01*
X160492134Y-107513446D01*
X160447080Y-107552485D01*
X160354386Y-107599715D01*
X160188786Y-107720028D01*
X160044028Y-107864786D01*
X159923715Y-108030386D01*
X159830781Y-108212776D01*
X159767522Y-108407465D01*
X159735500Y-108609648D01*
X159735500Y-108814351D01*
X159767522Y-109016534D01*
X159830781Y-109211223D01*
X159923715Y-109393613D01*
X160044028Y-109559213D01*
X160188786Y-109703971D01*
X160343749Y-109816556D01*
X160354390Y-109824287D01*
X160432749Y-109864213D01*
X160447080Y-109871515D01*
X160497876Y-109919490D01*
X160514671Y-109987311D01*
X160492134Y-110053446D01*
X160447080Y-110092485D01*
X160354386Y-110139715D01*
X160188786Y-110260028D01*
X160044028Y-110404786D01*
X159923715Y-110570386D01*
X159830781Y-110752776D01*
X159767522Y-110947465D01*
X159735500Y-111149648D01*
X159735500Y-111354351D01*
X159767522Y-111556534D01*
X159830781Y-111751223D01*
X159892415Y-111872185D01*
X159908379Y-111903516D01*
X159923715Y-111933613D01*
X160044028Y-112099213D01*
X160188786Y-112243971D01*
X160343749Y-112356556D01*
X160354390Y-112364287D01*
X160432749Y-112404213D01*
X160447080Y-112411515D01*
X160497876Y-112459490D01*
X160514671Y-112527311D01*
X160492134Y-112593446D01*
X160447080Y-112632485D01*
X160354386Y-112679715D01*
X160188786Y-112800028D01*
X160044028Y-112944786D01*
X159923715Y-113110386D01*
X159830781Y-113292776D01*
X159767522Y-113487465D01*
X159735500Y-113689648D01*
X159735500Y-113894351D01*
X159767522Y-114096534D01*
X159830781Y-114291223D01*
X159882385Y-114392500D01*
X159908379Y-114443516D01*
X159923715Y-114473613D01*
X160044028Y-114639213D01*
X160188786Y-114783971D01*
X160343749Y-114896556D01*
X160354390Y-114904287D01*
X160432749Y-114944213D01*
X160447080Y-114951515D01*
X160497876Y-114999490D01*
X160514671Y-115067311D01*
X160492134Y-115133446D01*
X160447080Y-115172485D01*
X160354386Y-115219715D01*
X160188786Y-115340028D01*
X160044028Y-115484786D01*
X159923715Y-115650386D01*
X159830781Y-115832776D01*
X159767522Y-116027465D01*
X159735500Y-116229648D01*
X159735500Y-116434351D01*
X159767522Y-116636534D01*
X159830781Y-116831223D01*
X159862862Y-116894184D01*
X159923657Y-117013501D01*
X159923715Y-117013613D01*
X160044028Y-117179213D01*
X160188786Y-117323971D01*
X160343749Y-117436556D01*
X160354390Y-117444287D01*
X160445840Y-117490883D01*
X160447080Y-117491515D01*
X160497876Y-117539490D01*
X160514671Y-117607311D01*
X160492134Y-117673446D01*
X160447080Y-117712485D01*
X160354386Y-117759715D01*
X160188786Y-117880028D01*
X160044028Y-118024786D01*
X159923715Y-118190386D01*
X159830781Y-118372776D01*
X159767522Y-118567465D01*
X159735500Y-118769648D01*
X159735500Y-118974351D01*
X159767522Y-119176534D01*
X159830781Y-119371223D01*
X159874149Y-119456335D01*
X159911534Y-119529708D01*
X159923715Y-119553613D01*
X160044028Y-119719213D01*
X160188786Y-119863971D01*
X160343749Y-119976556D01*
X160354390Y-119984287D01*
X160426424Y-120020990D01*
X160447629Y-120031795D01*
X160498425Y-120079770D01*
X160515220Y-120147591D01*
X160492682Y-120213726D01*
X160447629Y-120252765D01*
X160354650Y-120300140D01*
X160189105Y-120420417D01*
X160189104Y-120420417D01*
X160044417Y-120565104D01*
X160044417Y-120565105D01*
X159924140Y-120730650D01*
X159831244Y-120912970D01*
X159768009Y-121107586D01*
X159759391Y-121162000D01*
X160720314Y-121162000D01*
X160715920Y-121166394D01*
X160663259Y-121257606D01*
X160636000Y-121359339D01*
X160636000Y-121464661D01*
X160663259Y-121566394D01*
X160715920Y-121657606D01*
X160720314Y-121662000D01*
X159759391Y-121662000D01*
X159768009Y-121716413D01*
X159831244Y-121911029D01*
X159924140Y-122093349D01*
X160044417Y-122258894D01*
X160044417Y-122258895D01*
X160189104Y-122403582D01*
X160354650Y-122523859D01*
X160536968Y-122616754D01*
X160731578Y-122679988D01*
X160786000Y-122688607D01*
X160786000Y-121727686D01*
X160790394Y-121732080D01*
X160881606Y-121784741D01*
X160983339Y-121812000D01*
X161088661Y-121812000D01*
X161190394Y-121784741D01*
X161281606Y-121732080D01*
X161286000Y-121727686D01*
X161286000Y-122688606D01*
X161340421Y-122679988D01*
X161535031Y-122616754D01*
X161717349Y-122523859D01*
X161882894Y-122403582D01*
X161882895Y-122403582D01*
X162027582Y-122258895D01*
X162027582Y-122258894D01*
X162147859Y-122093349D01*
X162240755Y-121911029D01*
X162303990Y-121716413D01*
X162312609Y-121662000D01*
X161351686Y-121662000D01*
X161356080Y-121657606D01*
X161408741Y-121566394D01*
X161436000Y-121464661D01*
X161436000Y-121359339D01*
X161408741Y-121257606D01*
X161356080Y-121166394D01*
X161351686Y-121162000D01*
X162312609Y-121162000D01*
X162303990Y-121107586D01*
X162240755Y-120912970D01*
X162147859Y-120730650D01*
X162027582Y-120565105D01*
X162027582Y-120565104D01*
X161882895Y-120420417D01*
X161717349Y-120300140D01*
X161624370Y-120252765D01*
X161573574Y-120204790D01*
X161556779Y-120136969D01*
X161579316Y-120070835D01*
X161624370Y-120031795D01*
X161625471Y-120031234D01*
X161717610Y-119984287D01*
X161738770Y-119968913D01*
X161883213Y-119863971D01*
X161883215Y-119863968D01*
X161883219Y-119863966D01*
X162027966Y-119719219D01*
X162027968Y-119719215D01*
X162027971Y-119719213D01*
X162097445Y-119623588D01*
X162148287Y-119553610D01*
X162241220Y-119371219D01*
X162304477Y-119176534D01*
X162336500Y-118974352D01*
X162336500Y-118769648D01*
X162314715Y-118632104D01*
X162304477Y-118567465D01*
X162241218Y-118372776D01*
X162148419Y-118190650D01*
X162148287Y-118190390D01*
X162097447Y-118120414D01*
X162027971Y-118024786D01*
X161883213Y-117880028D01*
X161717614Y-117759715D01*
X161711006Y-117756348D01*
X161624917Y-117712483D01*
X161619100Y-117706989D01*
X161611483Y-117704536D01*
X161594068Y-117683348D01*
X161574123Y-117664511D01*
X161572198Y-117656740D01*
X161567118Y-117650559D01*
X161563922Y-117623318D01*
X161557328Y-117596690D01*
X161559909Y-117589114D01*
X161558977Y-117581165D01*
X161571017Y-117556518D01*
X161579865Y-117530555D01*
X161586916Y-117523972D01*
X161589646Y-117518386D01*
X161607357Y-117504893D01*
X161616911Y-117495976D01*
X161617344Y-117495713D01*
X178989500Y-117495713D01*
X178989500Y-117708287D01*
X178999534Y-117771644D01*
X179022753Y-117918239D01*
X179022753Y-117918241D01*
X179022754Y-117918243D01*
X179057475Y-118025104D01*
X179088444Y-118120414D01*
X179184951Y-118309820D01*
X179309890Y-118481786D01*
X179460213Y-118632109D01*
X179632182Y-118757050D01*
X179640946Y-118761516D01*
X179691742Y-118809491D01*
X179708536Y-118877312D01*
X179685998Y-118943447D01*
X179640946Y-118982484D01*
X179632182Y-118986949D01*
X179460213Y-119111890D01*
X179309890Y-119262213D01*
X179184951Y-119434179D01*
X179088444Y-119623585D01*
X179022753Y-119825760D01*
X178997645Y-119984287D01*
X178989500Y-120035713D01*
X178989500Y-120248287D01*
X179022754Y-120458243D01*
X179057475Y-120565104D01*
X179088444Y-120660414D01*
X179184951Y-120849820D01*
X179309890Y-121021786D01*
X179423430Y-121135326D01*
X179456915Y-121196649D01*
X179451931Y-121266341D01*
X179410059Y-121322274D01*
X179379083Y-121339189D01*
X179247669Y-121388203D01*
X179247664Y-121388206D01*
X179132455Y-121474452D01*
X179132452Y-121474455D01*
X179046206Y-121589664D01*
X179046202Y-121589671D01*
X178995908Y-121724517D01*
X178989501Y-121784116D01*
X178989501Y-121784123D01*
X178989500Y-121784135D01*
X178989500Y-123579870D01*
X178989501Y-123579876D01*
X178995908Y-123639483D01*
X179046202Y-123774328D01*
X179046206Y-123774335D01*
X179132452Y-123889544D01*
X179132455Y-123889547D01*
X179247664Y-123975793D01*
X179247671Y-123975797D01*
X179382517Y-124026091D01*
X179382516Y-124026091D01*
X179389444Y-124026835D01*
X179442127Y-124032500D01*
X181237872Y-124032499D01*
X181297483Y-124026091D01*
X181432331Y-123975796D01*
X181547546Y-123889546D01*
X181633796Y-123774331D01*
X181684091Y-123639483D01*
X181690500Y-123579873D01*
X181690499Y-121784128D01*
X181684091Y-121724517D01*
X181681068Y-121716413D01*
X181633797Y-121589671D01*
X181633793Y-121589664D01*
X181547547Y-121474455D01*
X181547544Y-121474452D01*
X181432335Y-121388206D01*
X181432328Y-121388202D01*
X181300917Y-121339189D01*
X181244983Y-121297318D01*
X181220566Y-121231853D01*
X181235418Y-121163580D01*
X181256563Y-121135332D01*
X181370104Y-121021792D01*
X181495051Y-120849816D01*
X181591557Y-120660412D01*
X181657246Y-120458243D01*
X181690500Y-120248287D01*
X181690500Y-120035713D01*
X181657246Y-119825757D01*
X181591557Y-119623588D01*
X181495051Y-119434184D01*
X181495049Y-119434181D01*
X181495048Y-119434179D01*
X181370109Y-119262213D01*
X181219786Y-119111890D01*
X181047820Y-118986951D01*
X181047115Y-118986591D01*
X181039054Y-118982485D01*
X180988259Y-118934512D01*
X180971463Y-118866692D01*
X180993999Y-118800556D01*
X181039054Y-118761515D01*
X181047816Y-118757051D01*
X181069789Y-118741086D01*
X181219786Y-118632109D01*
X181219788Y-118632106D01*
X181219792Y-118632104D01*
X181370104Y-118481792D01*
X181370106Y-118481788D01*
X181370109Y-118481786D01*
X181495048Y-118309820D01*
X181495047Y-118309820D01*
X181495051Y-118309816D01*
X181591557Y-118120412D01*
X181657246Y-117918243D01*
X181690500Y-117708287D01*
X181690500Y-117495713D01*
X184069500Y-117495713D01*
X184069500Y-117708287D01*
X184079534Y-117771644D01*
X184102753Y-117918239D01*
X184102753Y-117918241D01*
X184102754Y-117918243D01*
X184137475Y-118025104D01*
X184168444Y-118120414D01*
X184264951Y-118309820D01*
X184389890Y-118481786D01*
X184540213Y-118632109D01*
X184712182Y-118757050D01*
X184720946Y-118761516D01*
X184771742Y-118809491D01*
X184788536Y-118877312D01*
X184765998Y-118943447D01*
X184720946Y-118982484D01*
X184712182Y-118986949D01*
X184540213Y-119111890D01*
X184389890Y-119262213D01*
X184264951Y-119434179D01*
X184168444Y-119623585D01*
X184102753Y-119825760D01*
X184077645Y-119984287D01*
X184069500Y-120035713D01*
X184069500Y-120248287D01*
X184102754Y-120458243D01*
X184137475Y-120565104D01*
X184168444Y-120660414D01*
X184264951Y-120849820D01*
X184389890Y-121021786D01*
X184503430Y-121135326D01*
X184536915Y-121196649D01*
X184531931Y-121266341D01*
X184490059Y-121322274D01*
X184459083Y-121339189D01*
X184327669Y-121388203D01*
X184327664Y-121388206D01*
X184212455Y-121474452D01*
X184212452Y-121474455D01*
X184126206Y-121589664D01*
X184126202Y-121589671D01*
X184075908Y-121724517D01*
X184069501Y-121784116D01*
X184069501Y-121784123D01*
X184069500Y-121784135D01*
X184069500Y-123579870D01*
X184069501Y-123579876D01*
X184075908Y-123639483D01*
X184126202Y-123774328D01*
X184126206Y-123774335D01*
X184212452Y-123889544D01*
X184212455Y-123889547D01*
X184327664Y-123975793D01*
X184327671Y-123975797D01*
X184462517Y-124026091D01*
X184462516Y-124026091D01*
X184469444Y-124026835D01*
X184522127Y-124032500D01*
X186317872Y-124032499D01*
X186377483Y-124026091D01*
X186512331Y-123975796D01*
X186627546Y-123889546D01*
X186713796Y-123774331D01*
X186764091Y-123639483D01*
X186770500Y-123579873D01*
X186770499Y-121784128D01*
X186764091Y-121724517D01*
X186761068Y-121716413D01*
X186713797Y-121589671D01*
X186713793Y-121589664D01*
X186627547Y-121474455D01*
X186627544Y-121474452D01*
X186512335Y-121388206D01*
X186512328Y-121388202D01*
X186380917Y-121339189D01*
X186324983Y-121297318D01*
X186300566Y-121231853D01*
X186315418Y-121163580D01*
X186336563Y-121135332D01*
X186450104Y-121021792D01*
X186575051Y-120849816D01*
X186671557Y-120660412D01*
X186737246Y-120458243D01*
X186770500Y-120248287D01*
X186770500Y-120035713D01*
X186737246Y-119825757D01*
X186671557Y-119623588D01*
X186575051Y-119434184D01*
X186575049Y-119434181D01*
X186575048Y-119434179D01*
X186450109Y-119262213D01*
X186299786Y-119111890D01*
X186127820Y-118986951D01*
X186127115Y-118986591D01*
X186119054Y-118982485D01*
X186068259Y-118934512D01*
X186051463Y-118866692D01*
X186073999Y-118800556D01*
X186119054Y-118761515D01*
X186127816Y-118757051D01*
X186149789Y-118741086D01*
X186299786Y-118632109D01*
X186299788Y-118632106D01*
X186299792Y-118632104D01*
X186450104Y-118481792D01*
X186450106Y-118481788D01*
X186450109Y-118481786D01*
X186575048Y-118309820D01*
X186575047Y-118309820D01*
X186575051Y-118309816D01*
X186671557Y-118120412D01*
X186737246Y-117918243D01*
X186770500Y-117708287D01*
X186770500Y-117495713D01*
X188895500Y-117495713D01*
X188895500Y-117708287D01*
X188905534Y-117771644D01*
X188928753Y-117918239D01*
X188928753Y-117918241D01*
X188928754Y-117918243D01*
X188963475Y-118025104D01*
X188994444Y-118120414D01*
X189090951Y-118309820D01*
X189215890Y-118481786D01*
X189366213Y-118632109D01*
X189538182Y-118757050D01*
X189546946Y-118761516D01*
X189597742Y-118809491D01*
X189614536Y-118877312D01*
X189591998Y-118943447D01*
X189546946Y-118982484D01*
X189538182Y-118986949D01*
X189366213Y-119111890D01*
X189215890Y-119262213D01*
X189090951Y-119434179D01*
X188994444Y-119623585D01*
X188928753Y-119825760D01*
X188903645Y-119984287D01*
X188895500Y-120035713D01*
X188895500Y-120248287D01*
X188928754Y-120458243D01*
X188963475Y-120565104D01*
X188994444Y-120660414D01*
X189090951Y-120849820D01*
X189215890Y-121021786D01*
X189329430Y-121135326D01*
X189362915Y-121196649D01*
X189357931Y-121266341D01*
X189316059Y-121322274D01*
X189285083Y-121339189D01*
X189153669Y-121388203D01*
X189153664Y-121388206D01*
X189038455Y-121474452D01*
X189038452Y-121474455D01*
X188952206Y-121589664D01*
X188952202Y-121589671D01*
X188901908Y-121724517D01*
X188895501Y-121784116D01*
X188895501Y-121784123D01*
X188895500Y-121784135D01*
X188895500Y-123579870D01*
X188895501Y-123579876D01*
X188901908Y-123639483D01*
X188952202Y-123774328D01*
X188952206Y-123774335D01*
X189038452Y-123889544D01*
X189038455Y-123889547D01*
X189153664Y-123975793D01*
X189153671Y-123975797D01*
X189288517Y-124026091D01*
X189288516Y-124026091D01*
X189295444Y-124026835D01*
X189348127Y-124032500D01*
X191143872Y-124032499D01*
X191203483Y-124026091D01*
X191338331Y-123975796D01*
X191453546Y-123889546D01*
X191539796Y-123774331D01*
X191590091Y-123639483D01*
X191596500Y-123579873D01*
X191596499Y-121784128D01*
X191590091Y-121724517D01*
X191587068Y-121716413D01*
X191539797Y-121589671D01*
X191539793Y-121589664D01*
X191453547Y-121474455D01*
X191453544Y-121474452D01*
X191338335Y-121388206D01*
X191338328Y-121388202D01*
X191206917Y-121339189D01*
X191150983Y-121297318D01*
X191126566Y-121231853D01*
X191141418Y-121163580D01*
X191162563Y-121135332D01*
X191276104Y-121021792D01*
X191401051Y-120849816D01*
X191497557Y-120660412D01*
X191563246Y-120458243D01*
X191596500Y-120248287D01*
X191596500Y-120035713D01*
X191563246Y-119825757D01*
X191497557Y-119623588D01*
X191401051Y-119434184D01*
X191401049Y-119434181D01*
X191401048Y-119434179D01*
X191276109Y-119262213D01*
X191125786Y-119111890D01*
X190953820Y-118986951D01*
X190953115Y-118986591D01*
X190945054Y-118982485D01*
X190894259Y-118934512D01*
X190877463Y-118866692D01*
X190899999Y-118800556D01*
X190945054Y-118761515D01*
X190953816Y-118757051D01*
X190975789Y-118741086D01*
X191125786Y-118632109D01*
X191125788Y-118632106D01*
X191125792Y-118632104D01*
X191276104Y-118481792D01*
X191276106Y-118481788D01*
X191276109Y-118481786D01*
X191401048Y-118309820D01*
X191401047Y-118309820D01*
X191401051Y-118309816D01*
X191497557Y-118120412D01*
X191563246Y-117918243D01*
X191596500Y-117708287D01*
X191596500Y-117495713D01*
X193975500Y-117495713D01*
X193975500Y-117708287D01*
X193985534Y-117771644D01*
X194008753Y-117918239D01*
X194008753Y-117918241D01*
X194008754Y-117918243D01*
X194043475Y-118025104D01*
X194074444Y-118120414D01*
X194170951Y-118309820D01*
X194295890Y-118481786D01*
X194446213Y-118632109D01*
X194618182Y-118757050D01*
X194626946Y-118761516D01*
X194677742Y-118809491D01*
X194694536Y-118877312D01*
X194671998Y-118943447D01*
X194626946Y-118982484D01*
X194618182Y-118986949D01*
X194446213Y-119111890D01*
X194295890Y-119262213D01*
X194170951Y-119434179D01*
X194074444Y-119623585D01*
X194008753Y-119825760D01*
X193983645Y-119984287D01*
X193975500Y-120035713D01*
X193975500Y-120248287D01*
X194008754Y-120458243D01*
X194043475Y-120565104D01*
X194074444Y-120660414D01*
X194170951Y-120849820D01*
X194295890Y-121021786D01*
X194409430Y-121135326D01*
X194442915Y-121196649D01*
X194437931Y-121266341D01*
X194396059Y-121322274D01*
X194365083Y-121339189D01*
X194233669Y-121388203D01*
X194233664Y-121388206D01*
X194118455Y-121474452D01*
X194118452Y-121474455D01*
X194032206Y-121589664D01*
X194032202Y-121589671D01*
X193981908Y-121724517D01*
X193975501Y-121784116D01*
X193975501Y-121784123D01*
X193975500Y-121784135D01*
X193975500Y-123579870D01*
X193975501Y-123579876D01*
X193981908Y-123639483D01*
X194032202Y-123774328D01*
X194032206Y-123774335D01*
X194118452Y-123889544D01*
X194118455Y-123889547D01*
X194233664Y-123975793D01*
X194233671Y-123975797D01*
X194368517Y-124026091D01*
X194368516Y-124026091D01*
X194375444Y-124026835D01*
X194428127Y-124032500D01*
X196223872Y-124032499D01*
X196283483Y-124026091D01*
X196418331Y-123975796D01*
X196533546Y-123889546D01*
X196619796Y-123774331D01*
X196670091Y-123639483D01*
X196676500Y-123579873D01*
X196676499Y-121784128D01*
X196670091Y-121724517D01*
X196667068Y-121716413D01*
X196619797Y-121589671D01*
X196619793Y-121589664D01*
X196533547Y-121474455D01*
X196533544Y-121474452D01*
X196418335Y-121388206D01*
X196418328Y-121388202D01*
X196286917Y-121339189D01*
X196230983Y-121297318D01*
X196206566Y-121231853D01*
X196221418Y-121163580D01*
X196242563Y-121135332D01*
X196356104Y-121021792D01*
X196481051Y-120849816D01*
X196577557Y-120660412D01*
X196643246Y-120458243D01*
X196676500Y-120248287D01*
X196676500Y-120035713D01*
X196643246Y-119825757D01*
X196577557Y-119623588D01*
X196481051Y-119434184D01*
X196481049Y-119434181D01*
X196481048Y-119434179D01*
X196356109Y-119262213D01*
X196205786Y-119111890D01*
X196033820Y-118986951D01*
X196033115Y-118986591D01*
X196025054Y-118982485D01*
X195974259Y-118934512D01*
X195957463Y-118866692D01*
X195979999Y-118800556D01*
X196025054Y-118761515D01*
X196033816Y-118757051D01*
X196055789Y-118741086D01*
X196205786Y-118632109D01*
X196205788Y-118632106D01*
X196205792Y-118632104D01*
X196356104Y-118481792D01*
X196356106Y-118481788D01*
X196356109Y-118481786D01*
X196481048Y-118309820D01*
X196481047Y-118309820D01*
X196481051Y-118309816D01*
X196577557Y-118120412D01*
X196643246Y-117918243D01*
X196676500Y-117708287D01*
X196676500Y-117495713D01*
X198801500Y-117495713D01*
X198801500Y-117708287D01*
X198811534Y-117771644D01*
X198834753Y-117918239D01*
X198834753Y-117918241D01*
X198834754Y-117918243D01*
X198869475Y-118025104D01*
X198900444Y-118120414D01*
X198996951Y-118309820D01*
X199121890Y-118481786D01*
X199272213Y-118632109D01*
X199444182Y-118757050D01*
X199452946Y-118761516D01*
X199503742Y-118809491D01*
X199520536Y-118877312D01*
X199497998Y-118943447D01*
X199452946Y-118982484D01*
X199444182Y-118986949D01*
X199272213Y-119111890D01*
X199121890Y-119262213D01*
X198996951Y-119434179D01*
X198900444Y-119623585D01*
X198834753Y-119825760D01*
X198809645Y-119984287D01*
X198801500Y-120035713D01*
X198801500Y-120248287D01*
X198834754Y-120458243D01*
X198869475Y-120565104D01*
X198900444Y-120660414D01*
X198996951Y-120849820D01*
X199121890Y-121021786D01*
X199235430Y-121135326D01*
X199268915Y-121196649D01*
X199263931Y-121266341D01*
X199222059Y-121322274D01*
X199191083Y-121339189D01*
X199059669Y-121388203D01*
X199059664Y-121388206D01*
X198944455Y-121474452D01*
X198944452Y-121474455D01*
X198858206Y-121589664D01*
X198858202Y-121589671D01*
X198807908Y-121724517D01*
X198801501Y-121784116D01*
X198801501Y-121784123D01*
X198801500Y-121784135D01*
X198801500Y-123579870D01*
X198801501Y-123579876D01*
X198807908Y-123639483D01*
X198858202Y-123774328D01*
X198858206Y-123774335D01*
X198944452Y-123889544D01*
X198944455Y-123889547D01*
X199059664Y-123975793D01*
X199059671Y-123975797D01*
X199194517Y-124026091D01*
X199194516Y-124026091D01*
X199201444Y-124026835D01*
X199254127Y-124032500D01*
X201049872Y-124032499D01*
X201109483Y-124026091D01*
X201244331Y-123975796D01*
X201359546Y-123889546D01*
X201445796Y-123774331D01*
X201496091Y-123639483D01*
X201502500Y-123579873D01*
X201502499Y-121784128D01*
X201496091Y-121724517D01*
X201493068Y-121716413D01*
X201445797Y-121589671D01*
X201445793Y-121589664D01*
X201359547Y-121474455D01*
X201359544Y-121474452D01*
X201244335Y-121388206D01*
X201244328Y-121388202D01*
X201112917Y-121339189D01*
X201056983Y-121297318D01*
X201032566Y-121231853D01*
X201047418Y-121163580D01*
X201068563Y-121135332D01*
X201182104Y-121021792D01*
X201307051Y-120849816D01*
X201403557Y-120660412D01*
X201469246Y-120458243D01*
X201502500Y-120248287D01*
X201502500Y-120035713D01*
X201469246Y-119825757D01*
X201403557Y-119623588D01*
X201307051Y-119434184D01*
X201307049Y-119434181D01*
X201307048Y-119434179D01*
X201182109Y-119262213D01*
X201031786Y-119111890D01*
X200859820Y-118986951D01*
X200859115Y-118986591D01*
X200851054Y-118982485D01*
X200800259Y-118934512D01*
X200783463Y-118866692D01*
X200805999Y-118800556D01*
X200851054Y-118761515D01*
X200859816Y-118757051D01*
X200881789Y-118741086D01*
X201031786Y-118632109D01*
X201031788Y-118632106D01*
X201031792Y-118632104D01*
X201182104Y-118481792D01*
X201182106Y-118481788D01*
X201182109Y-118481786D01*
X201307048Y-118309820D01*
X201307047Y-118309820D01*
X201307051Y-118309816D01*
X201403557Y-118120412D01*
X201469246Y-117918243D01*
X201493801Y-117763213D01*
X211307500Y-117763213D01*
X211307500Y-117975786D01*
X211330406Y-118120412D01*
X211340754Y-118185743D01*
X211381069Y-118309820D01*
X211406444Y-118387914D01*
X211502951Y-118577320D01*
X211627890Y-118749286D01*
X211778213Y-118899609D01*
X211950182Y-119024550D01*
X211958946Y-119029016D01*
X212009742Y-119076991D01*
X212026536Y-119144812D01*
X212003998Y-119210947D01*
X211958946Y-119249984D01*
X211950182Y-119254449D01*
X211778213Y-119379390D01*
X211627890Y-119529713D01*
X211502951Y-119701679D01*
X211406444Y-119891085D01*
X211340753Y-120093260D01*
X211307500Y-120303213D01*
X211307500Y-120515786D01*
X211330406Y-120660412D01*
X211340754Y-120725743D01*
X211381069Y-120849820D01*
X211406444Y-120927914D01*
X211502951Y-121117320D01*
X211627890Y-121289286D01*
X211741430Y-121402826D01*
X211774915Y-121464149D01*
X211769931Y-121533841D01*
X211728059Y-121589774D01*
X211697083Y-121606689D01*
X211565669Y-121655703D01*
X211565664Y-121655706D01*
X211450455Y-121741952D01*
X211450452Y-121741955D01*
X211364206Y-121857164D01*
X211364202Y-121857171D01*
X211313908Y-121992017D01*
X211307501Y-122051616D01*
X211307501Y-122051623D01*
X211307500Y-122051635D01*
X211307500Y-123847370D01*
X211307501Y-123847376D01*
X211313908Y-123906983D01*
X211364202Y-124041828D01*
X211364206Y-124041835D01*
X211450452Y-124157044D01*
X211450455Y-124157047D01*
X211565664Y-124243293D01*
X211565671Y-124243297D01*
X211700517Y-124293591D01*
X211700516Y-124293591D01*
X211707444Y-124294335D01*
X211760127Y-124300000D01*
X213555872Y-124299999D01*
X213615483Y-124293591D01*
X213750331Y-124243296D01*
X213865546Y-124157046D01*
X213951796Y-124041831D01*
X214002091Y-123906983D01*
X214008500Y-123847373D01*
X214008499Y-122051628D01*
X214002091Y-121992017D01*
X213971955Y-121911219D01*
X213951797Y-121857171D01*
X213951793Y-121857164D01*
X213865547Y-121741955D01*
X213865544Y-121741952D01*
X213750335Y-121655706D01*
X213750328Y-121655702D01*
X213618917Y-121606689D01*
X213562983Y-121564818D01*
X213538566Y-121499353D01*
X213553418Y-121431080D01*
X213574563Y-121402832D01*
X213688104Y-121289292D01*
X213813051Y-121117316D01*
X213909557Y-120927912D01*
X213975246Y-120725743D01*
X214008500Y-120515787D01*
X214008500Y-120303213D01*
X213975246Y-120093257D01*
X213909557Y-119891088D01*
X213813051Y-119701684D01*
X213813049Y-119701681D01*
X213813048Y-119701679D01*
X213688109Y-119529713D01*
X213537786Y-119379390D01*
X213365820Y-119254451D01*
X213365115Y-119254091D01*
X213357054Y-119249985D01*
X213306259Y-119202012D01*
X213289463Y-119134192D01*
X213311999Y-119068056D01*
X213357054Y-119029015D01*
X213365816Y-119024551D01*
X213423717Y-118982484D01*
X213537786Y-118899609D01*
X213537788Y-118899606D01*
X213537792Y-118899604D01*
X213688104Y-118749292D01*
X213688106Y-118749288D01*
X213688109Y-118749286D01*
X213813048Y-118577320D01*
X213813047Y-118577320D01*
X213813051Y-118577316D01*
X213909557Y-118387912D01*
X213975246Y-118185743D01*
X214008500Y-117975787D01*
X214008500Y-117763213D01*
X216641500Y-117763213D01*
X216641500Y-117975786D01*
X216664406Y-118120412D01*
X216674754Y-118185743D01*
X216715069Y-118309820D01*
X216740444Y-118387914D01*
X216836951Y-118577320D01*
X216961890Y-118749286D01*
X217112213Y-118899609D01*
X217284182Y-119024550D01*
X217292946Y-119029016D01*
X217343742Y-119076991D01*
X217360536Y-119144812D01*
X217337998Y-119210947D01*
X217292946Y-119249984D01*
X217284182Y-119254449D01*
X217112213Y-119379390D01*
X216961890Y-119529713D01*
X216836951Y-119701679D01*
X216740444Y-119891085D01*
X216674753Y-120093260D01*
X216641500Y-120303213D01*
X216641500Y-120515786D01*
X216664406Y-120660412D01*
X216674754Y-120725743D01*
X216715069Y-120849820D01*
X216740444Y-120927914D01*
X216836951Y-121117320D01*
X216961890Y-121289286D01*
X217075430Y-121402826D01*
X217108915Y-121464149D01*
X217103931Y-121533841D01*
X217062059Y-121589774D01*
X217031083Y-121606689D01*
X216899669Y-121655703D01*
X216899664Y-121655706D01*
X216784455Y-121741952D01*
X216784452Y-121741955D01*
X216698206Y-121857164D01*
X216698202Y-121857171D01*
X216647908Y-121992017D01*
X216641501Y-122051616D01*
X216641501Y-122051623D01*
X216641500Y-122051635D01*
X216641500Y-123847370D01*
X216641501Y-123847376D01*
X216647908Y-123906983D01*
X216698202Y-124041828D01*
X216698206Y-124041835D01*
X216784452Y-124157044D01*
X216784455Y-124157047D01*
X216899664Y-124243293D01*
X216899671Y-124243297D01*
X217034517Y-124293591D01*
X217034516Y-124293591D01*
X217041444Y-124294335D01*
X217094127Y-124300000D01*
X218889872Y-124299999D01*
X218949483Y-124293591D01*
X219084331Y-124243296D01*
X219199546Y-124157046D01*
X219285796Y-124041831D01*
X219336091Y-123906983D01*
X219342500Y-123847373D01*
X219342499Y-122051628D01*
X219336091Y-121992017D01*
X219305955Y-121911219D01*
X219285797Y-121857171D01*
X219285793Y-121857164D01*
X219199547Y-121741955D01*
X219199544Y-121741952D01*
X219084335Y-121655706D01*
X219084328Y-121655702D01*
X218952917Y-121606689D01*
X218896983Y-121564818D01*
X218872566Y-121499353D01*
X218887418Y-121431080D01*
X218908563Y-121402832D01*
X219022104Y-121289292D01*
X219147051Y-121117316D01*
X219243557Y-120927912D01*
X219309246Y-120725743D01*
X219342500Y-120515787D01*
X219342500Y-120303213D01*
X219309246Y-120093257D01*
X219243557Y-119891088D01*
X219147051Y-119701684D01*
X219147049Y-119701681D01*
X219147048Y-119701679D01*
X219022109Y-119529713D01*
X218871786Y-119379390D01*
X218699820Y-119254451D01*
X218699115Y-119254091D01*
X218691054Y-119249985D01*
X218640259Y-119202012D01*
X218623463Y-119134192D01*
X218645999Y-119068056D01*
X218691054Y-119029015D01*
X218699816Y-119024551D01*
X218757717Y-118982484D01*
X218871786Y-118899609D01*
X218871788Y-118899606D01*
X218871792Y-118899604D01*
X219022104Y-118749292D01*
X219022106Y-118749288D01*
X219022109Y-118749286D01*
X219147048Y-118577320D01*
X219147047Y-118577320D01*
X219147051Y-118577316D01*
X219243557Y-118387912D01*
X219309246Y-118185743D01*
X219342500Y-117975787D01*
X219342500Y-117763213D01*
X221975500Y-117763213D01*
X221975500Y-117975786D01*
X221998406Y-118120412D01*
X222008754Y-118185743D01*
X222049069Y-118309820D01*
X222074444Y-118387914D01*
X222170951Y-118577320D01*
X222295890Y-118749286D01*
X222446213Y-118899609D01*
X222618182Y-119024550D01*
X222626946Y-119029016D01*
X222677742Y-119076991D01*
X222694536Y-119144812D01*
X222671998Y-119210947D01*
X222626946Y-119249984D01*
X222618182Y-119254449D01*
X222446213Y-119379390D01*
X222295890Y-119529713D01*
X222170951Y-119701679D01*
X222074444Y-119891085D01*
X222008753Y-120093260D01*
X221975500Y-120303213D01*
X221975500Y-120515786D01*
X221998406Y-120660412D01*
X222008754Y-120725743D01*
X222049069Y-120849820D01*
X222074444Y-120927914D01*
X222170951Y-121117320D01*
X222295890Y-121289286D01*
X222409430Y-121402826D01*
X222442915Y-121464149D01*
X222437931Y-121533841D01*
X222396059Y-121589774D01*
X222365083Y-121606689D01*
X222233669Y-121655703D01*
X222233664Y-121655706D01*
X222118455Y-121741952D01*
X222118452Y-121741955D01*
X222032206Y-121857164D01*
X222032202Y-121857171D01*
X221981908Y-121992017D01*
X221975501Y-122051616D01*
X221975501Y-122051623D01*
X221975500Y-122051635D01*
X221975500Y-123847370D01*
X221975501Y-123847376D01*
X221981908Y-123906983D01*
X222032202Y-124041828D01*
X222032206Y-124041835D01*
X222118452Y-124157044D01*
X222118455Y-124157047D01*
X222233664Y-124243293D01*
X222233671Y-124243297D01*
X222368517Y-124293591D01*
X222368516Y-124293591D01*
X222375444Y-124294335D01*
X222428127Y-124300000D01*
X224223872Y-124299999D01*
X224283483Y-124293591D01*
X224418331Y-124243296D01*
X224533546Y-124157046D01*
X224619796Y-124041831D01*
X224670091Y-123906983D01*
X224676500Y-123847373D01*
X224676499Y-122051628D01*
X224670091Y-121992017D01*
X224639955Y-121911219D01*
X224619797Y-121857171D01*
X224619793Y-121857164D01*
X224533547Y-121741955D01*
X224533544Y-121741952D01*
X224418335Y-121655706D01*
X224418328Y-121655702D01*
X224286917Y-121606689D01*
X224230983Y-121564818D01*
X224206566Y-121499353D01*
X224221418Y-121431080D01*
X224242563Y-121402832D01*
X224356104Y-121289292D01*
X224481051Y-121117316D01*
X224577557Y-120927912D01*
X224643246Y-120725743D01*
X224676500Y-120515787D01*
X224676500Y-120303213D01*
X224643246Y-120093257D01*
X224577557Y-119891088D01*
X224481051Y-119701684D01*
X224481049Y-119701681D01*
X224481048Y-119701679D01*
X224356109Y-119529713D01*
X224205786Y-119379390D01*
X224033820Y-119254451D01*
X224033115Y-119254091D01*
X224025054Y-119249985D01*
X223974259Y-119202012D01*
X223957463Y-119134192D01*
X223979999Y-119068056D01*
X224025054Y-119029015D01*
X224033816Y-119024551D01*
X224091717Y-118982484D01*
X224205786Y-118899609D01*
X224205788Y-118899606D01*
X224205792Y-118899604D01*
X224356104Y-118749292D01*
X224356106Y-118749288D01*
X224356109Y-118749286D01*
X224481048Y-118577320D01*
X224481047Y-118577320D01*
X224481051Y-118577316D01*
X224577557Y-118387912D01*
X224643246Y-118185743D01*
X224676500Y-117975787D01*
X224676500Y-117763213D01*
X227563500Y-117763213D01*
X227563500Y-117975786D01*
X227586406Y-118120412D01*
X227596754Y-118185743D01*
X227637069Y-118309820D01*
X227662444Y-118387914D01*
X227758951Y-118577320D01*
X227883890Y-118749286D01*
X228034213Y-118899609D01*
X228206182Y-119024550D01*
X228214946Y-119029016D01*
X228265742Y-119076991D01*
X228282536Y-119144812D01*
X228259998Y-119210947D01*
X228214946Y-119249984D01*
X228206182Y-119254449D01*
X228034213Y-119379390D01*
X227883890Y-119529713D01*
X227758951Y-119701679D01*
X227662444Y-119891085D01*
X227596753Y-120093260D01*
X227563500Y-120303213D01*
X227563500Y-120515786D01*
X227586406Y-120660412D01*
X227596754Y-120725743D01*
X227637069Y-120849820D01*
X227662444Y-120927914D01*
X227758951Y-121117320D01*
X227883890Y-121289286D01*
X227997430Y-121402826D01*
X228030915Y-121464149D01*
X228025931Y-121533841D01*
X227984059Y-121589774D01*
X227953083Y-121606689D01*
X227821669Y-121655703D01*
X227821664Y-121655706D01*
X227706455Y-121741952D01*
X227706452Y-121741955D01*
X227620206Y-121857164D01*
X227620202Y-121857171D01*
X227569908Y-121992017D01*
X227563501Y-122051616D01*
X227563501Y-122051623D01*
X227563500Y-122051635D01*
X227563500Y-123847370D01*
X227563501Y-123847376D01*
X227569908Y-123906983D01*
X227620202Y-124041828D01*
X227620206Y-124041835D01*
X227706452Y-124157044D01*
X227706455Y-124157047D01*
X227821664Y-124243293D01*
X227821671Y-124243297D01*
X227956517Y-124293591D01*
X227956516Y-124293591D01*
X227963444Y-124294335D01*
X228016127Y-124300000D01*
X229811872Y-124299999D01*
X229871483Y-124293591D01*
X230006331Y-124243296D01*
X230121546Y-124157046D01*
X230207796Y-124041831D01*
X230258091Y-123906983D01*
X230264500Y-123847373D01*
X230264499Y-122051628D01*
X230258091Y-121992017D01*
X230227955Y-121911219D01*
X230207797Y-121857171D01*
X230207793Y-121857164D01*
X230121547Y-121741955D01*
X230121544Y-121741952D01*
X230006335Y-121655706D01*
X230006328Y-121655702D01*
X229874917Y-121606689D01*
X229818983Y-121564818D01*
X229794566Y-121499353D01*
X229809418Y-121431080D01*
X229830563Y-121402832D01*
X229944104Y-121289292D01*
X230069051Y-121117316D01*
X230165557Y-120927912D01*
X230231246Y-120725743D01*
X230264500Y-120515787D01*
X230264500Y-120303213D01*
X230231246Y-120093257D01*
X230165557Y-119891088D01*
X230069051Y-119701684D01*
X230069049Y-119701681D01*
X230069048Y-119701679D01*
X229944109Y-119529713D01*
X229793786Y-119379390D01*
X229621820Y-119254451D01*
X229621115Y-119254091D01*
X229613054Y-119249985D01*
X229562259Y-119202012D01*
X229545463Y-119134192D01*
X229567999Y-119068056D01*
X229613054Y-119029015D01*
X229621816Y-119024551D01*
X229679717Y-118982484D01*
X229793786Y-118899609D01*
X229793788Y-118899606D01*
X229793792Y-118899604D01*
X229944104Y-118749292D01*
X229944106Y-118749288D01*
X229944109Y-118749286D01*
X230069048Y-118577320D01*
X230069047Y-118577320D01*
X230069051Y-118577316D01*
X230165557Y-118387912D01*
X230231246Y-118185743D01*
X230264500Y-117975787D01*
X230264500Y-117763213D01*
X233405500Y-117763213D01*
X233405500Y-117975786D01*
X233428406Y-118120412D01*
X233438754Y-118185743D01*
X233479069Y-118309820D01*
X233504444Y-118387914D01*
X233600951Y-118577320D01*
X233725890Y-118749286D01*
X233876213Y-118899609D01*
X234048182Y-119024550D01*
X234056946Y-119029016D01*
X234107742Y-119076991D01*
X234124536Y-119144812D01*
X234101998Y-119210947D01*
X234056946Y-119249984D01*
X234048182Y-119254449D01*
X233876213Y-119379390D01*
X233725890Y-119529713D01*
X233600951Y-119701679D01*
X233504444Y-119891085D01*
X233438753Y-120093260D01*
X233405500Y-120303213D01*
X233405500Y-120515786D01*
X233428406Y-120660412D01*
X233438754Y-120725743D01*
X233479069Y-120849820D01*
X233504444Y-120927914D01*
X233600951Y-121117320D01*
X233725890Y-121289286D01*
X233839430Y-121402826D01*
X233872915Y-121464149D01*
X233867931Y-121533841D01*
X233826059Y-121589774D01*
X233795083Y-121606689D01*
X233663669Y-121655703D01*
X233663664Y-121655706D01*
X233548455Y-121741952D01*
X233548452Y-121741955D01*
X233462206Y-121857164D01*
X233462202Y-121857171D01*
X233411908Y-121992017D01*
X233405501Y-122051616D01*
X233405501Y-122051623D01*
X233405500Y-122051635D01*
X233405500Y-123847370D01*
X233405501Y-123847376D01*
X233411908Y-123906983D01*
X233462202Y-124041828D01*
X233462206Y-124041835D01*
X233548452Y-124157044D01*
X233548455Y-124157047D01*
X233663664Y-124243293D01*
X233663671Y-124243297D01*
X233798517Y-124293591D01*
X233798516Y-124293591D01*
X233805444Y-124294335D01*
X233858127Y-124300000D01*
X235653872Y-124299999D01*
X235713483Y-124293591D01*
X235848331Y-124243296D01*
X235963546Y-124157046D01*
X236049796Y-124041831D01*
X236100091Y-123906983D01*
X236106500Y-123847373D01*
X236106499Y-122051628D01*
X236100091Y-121992017D01*
X236069955Y-121911219D01*
X236049797Y-121857171D01*
X236049793Y-121857164D01*
X235963547Y-121741955D01*
X235963544Y-121741952D01*
X235848335Y-121655706D01*
X235848328Y-121655702D01*
X235716917Y-121606689D01*
X235660983Y-121564818D01*
X235636566Y-121499353D01*
X235651418Y-121431080D01*
X235672563Y-121402832D01*
X235786104Y-121289292D01*
X235911051Y-121117316D01*
X236007557Y-120927912D01*
X236073246Y-120725743D01*
X236106500Y-120515787D01*
X236106500Y-120303213D01*
X236073246Y-120093257D01*
X236007557Y-119891088D01*
X235911051Y-119701684D01*
X235911049Y-119701681D01*
X235911048Y-119701679D01*
X235786109Y-119529713D01*
X235635786Y-119379390D01*
X235463820Y-119254451D01*
X235463115Y-119254091D01*
X235455054Y-119249985D01*
X235404259Y-119202012D01*
X235387463Y-119134192D01*
X235409999Y-119068056D01*
X235455054Y-119029015D01*
X235463816Y-119024551D01*
X235521717Y-118982484D01*
X235635786Y-118899609D01*
X235635788Y-118899606D01*
X235635792Y-118899604D01*
X235786104Y-118749292D01*
X235786106Y-118749288D01*
X235786109Y-118749286D01*
X235911048Y-118577320D01*
X235911047Y-118577320D01*
X235911051Y-118577316D01*
X236007557Y-118387912D01*
X236073246Y-118185743D01*
X236106500Y-117975787D01*
X236106500Y-117763213D01*
X236073246Y-117553257D01*
X236007557Y-117351088D01*
X235911051Y-117161684D01*
X235911049Y-117161681D01*
X235911048Y-117161679D01*
X235786109Y-116989713D01*
X235635786Y-116839390D01*
X235463820Y-116714451D01*
X235274414Y-116617944D01*
X235274413Y-116617943D01*
X235274412Y-116617943D01*
X235072243Y-116552254D01*
X235072241Y-116552253D01*
X235072240Y-116552253D01*
X234910957Y-116526708D01*
X234862287Y-116519000D01*
X234649713Y-116519000D01*
X234601042Y-116526708D01*
X234439760Y-116552253D01*
X234237585Y-116617944D01*
X234048179Y-116714451D01*
X233876213Y-116839390D01*
X233725890Y-116989713D01*
X233600951Y-117161679D01*
X233504444Y-117351085D01*
X233438753Y-117553260D01*
X233405500Y-117763213D01*
X230264500Y-117763213D01*
X230231246Y-117553257D01*
X230165557Y-117351088D01*
X230069051Y-117161684D01*
X230069049Y-117161681D01*
X230069048Y-117161679D01*
X229944109Y-116989713D01*
X229793786Y-116839390D01*
X229621820Y-116714451D01*
X229432414Y-116617944D01*
X229432413Y-116617943D01*
X229432412Y-116617943D01*
X229230243Y-116552254D01*
X229230241Y-116552253D01*
X229230240Y-116552253D01*
X229068957Y-116526708D01*
X229020287Y-116519000D01*
X228807713Y-116519000D01*
X228759042Y-116526708D01*
X228597760Y-116552253D01*
X228395585Y-116617944D01*
X228206179Y-116714451D01*
X228034213Y-116839390D01*
X227883890Y-116989713D01*
X227758951Y-117161679D01*
X227662444Y-117351085D01*
X227596753Y-117553260D01*
X227563500Y-117763213D01*
X224676500Y-117763213D01*
X224643246Y-117553257D01*
X224577557Y-117351088D01*
X224481051Y-117161684D01*
X224481049Y-117161681D01*
X224481048Y-117161679D01*
X224356109Y-116989713D01*
X224205786Y-116839390D01*
X224033820Y-116714451D01*
X223844414Y-116617944D01*
X223844413Y-116617943D01*
X223844412Y-116617943D01*
X223642243Y-116552254D01*
X223642241Y-116552253D01*
X223642240Y-116552253D01*
X223480957Y-116526708D01*
X223432287Y-116519000D01*
X223219713Y-116519000D01*
X223171042Y-116526708D01*
X223009760Y-116552253D01*
X222807585Y-116617944D01*
X222618179Y-116714451D01*
X222446213Y-116839390D01*
X222295890Y-116989713D01*
X222170951Y-117161679D01*
X222074444Y-117351085D01*
X222008753Y-117553260D01*
X221975500Y-117763213D01*
X219342500Y-117763213D01*
X219309246Y-117553257D01*
X219243557Y-117351088D01*
X219147051Y-117161684D01*
X219147049Y-117161681D01*
X219147048Y-117161679D01*
X219022109Y-116989713D01*
X218871786Y-116839390D01*
X218699820Y-116714451D01*
X218510414Y-116617944D01*
X218510413Y-116617943D01*
X218510412Y-116617943D01*
X218308243Y-116552254D01*
X218308241Y-116552253D01*
X218308240Y-116552253D01*
X218146957Y-116526708D01*
X218098287Y-116519000D01*
X217885713Y-116519000D01*
X217837042Y-116526708D01*
X217675760Y-116552253D01*
X217473585Y-116617944D01*
X217284179Y-116714451D01*
X217112213Y-116839390D01*
X216961890Y-116989713D01*
X216836951Y-117161679D01*
X216740444Y-117351085D01*
X216674753Y-117553260D01*
X216641500Y-117763213D01*
X214008500Y-117763213D01*
X213975246Y-117553257D01*
X213909557Y-117351088D01*
X213813051Y-117161684D01*
X213813049Y-117161681D01*
X213813048Y-117161679D01*
X213688109Y-116989713D01*
X213537786Y-116839390D01*
X213365820Y-116714451D01*
X213176414Y-116617944D01*
X213176413Y-116617943D01*
X213176412Y-116617943D01*
X212974243Y-116552254D01*
X212974241Y-116552253D01*
X212974240Y-116552253D01*
X212812957Y-116526708D01*
X212764287Y-116519000D01*
X212551713Y-116519000D01*
X212503042Y-116526708D01*
X212341760Y-116552253D01*
X212139585Y-116617944D01*
X211950179Y-116714451D01*
X211778213Y-116839390D01*
X211627890Y-116989713D01*
X211502951Y-117161679D01*
X211406444Y-117351085D01*
X211340753Y-117553260D01*
X211307500Y-117763213D01*
X201493801Y-117763213D01*
X201502500Y-117708287D01*
X201502500Y-117495713D01*
X201469246Y-117285757D01*
X201403557Y-117083588D01*
X201307051Y-116894184D01*
X201307049Y-116894181D01*
X201307048Y-116894179D01*
X201182109Y-116722213D01*
X201031786Y-116571890D01*
X200859820Y-116446951D01*
X200670414Y-116350444D01*
X200670413Y-116350443D01*
X200670412Y-116350443D01*
X200468243Y-116284754D01*
X200468241Y-116284753D01*
X200468240Y-116284753D01*
X200306957Y-116259208D01*
X200258287Y-116251500D01*
X200045713Y-116251500D01*
X199997042Y-116259208D01*
X199835760Y-116284753D01*
X199633585Y-116350444D01*
X199444179Y-116446951D01*
X199272213Y-116571890D01*
X199121890Y-116722213D01*
X198996951Y-116894179D01*
X198900444Y-117083585D01*
X198834753Y-117285760D01*
X198809645Y-117444287D01*
X198801500Y-117495713D01*
X196676500Y-117495713D01*
X196643246Y-117285757D01*
X196577557Y-117083588D01*
X196481051Y-116894184D01*
X196481049Y-116894181D01*
X196481048Y-116894179D01*
X196356109Y-116722213D01*
X196205786Y-116571890D01*
X196033820Y-116446951D01*
X195844414Y-116350444D01*
X195844413Y-116350443D01*
X195844412Y-116350443D01*
X195642243Y-116284754D01*
X195642241Y-116284753D01*
X195642240Y-116284753D01*
X195480957Y-116259208D01*
X195432287Y-116251500D01*
X195219713Y-116251500D01*
X195171042Y-116259208D01*
X195009760Y-116284753D01*
X194807585Y-116350444D01*
X194618179Y-116446951D01*
X194446213Y-116571890D01*
X194295890Y-116722213D01*
X194170951Y-116894179D01*
X194074444Y-117083585D01*
X194008753Y-117285760D01*
X193983645Y-117444287D01*
X193975500Y-117495713D01*
X191596500Y-117495713D01*
X191563246Y-117285757D01*
X191497557Y-117083588D01*
X191401051Y-116894184D01*
X191401049Y-116894181D01*
X191401048Y-116894179D01*
X191276109Y-116722213D01*
X191125786Y-116571890D01*
X190953820Y-116446951D01*
X190764414Y-116350444D01*
X190764413Y-116350443D01*
X190764412Y-116350443D01*
X190562243Y-116284754D01*
X190562241Y-116284753D01*
X190562240Y-116284753D01*
X190400957Y-116259208D01*
X190352287Y-116251500D01*
X190139713Y-116251500D01*
X190091042Y-116259208D01*
X189929760Y-116284753D01*
X189727585Y-116350444D01*
X189538179Y-116446951D01*
X189366213Y-116571890D01*
X189215890Y-116722213D01*
X189090951Y-116894179D01*
X188994444Y-117083585D01*
X188928753Y-117285760D01*
X188903645Y-117444287D01*
X188895500Y-117495713D01*
X186770500Y-117495713D01*
X186737246Y-117285757D01*
X186671557Y-117083588D01*
X186575051Y-116894184D01*
X186575049Y-116894181D01*
X186575048Y-116894179D01*
X186450109Y-116722213D01*
X186299786Y-116571890D01*
X186127820Y-116446951D01*
X185938414Y-116350444D01*
X185938413Y-116350443D01*
X185938412Y-116350443D01*
X185736243Y-116284754D01*
X185736241Y-116284753D01*
X185736240Y-116284753D01*
X185574957Y-116259208D01*
X185526287Y-116251500D01*
X185313713Y-116251500D01*
X185265042Y-116259208D01*
X185103760Y-116284753D01*
X184901585Y-116350444D01*
X184712179Y-116446951D01*
X184540213Y-116571890D01*
X184389890Y-116722213D01*
X184264951Y-116894179D01*
X184168444Y-117083585D01*
X184102753Y-117285760D01*
X184077645Y-117444287D01*
X184069500Y-117495713D01*
X181690500Y-117495713D01*
X181657246Y-117285757D01*
X181591557Y-117083588D01*
X181495051Y-116894184D01*
X181495049Y-116894181D01*
X181495048Y-116894179D01*
X181370109Y-116722213D01*
X181219786Y-116571890D01*
X181047820Y-116446951D01*
X180858414Y-116350444D01*
X180858413Y-116350443D01*
X180858412Y-116350443D01*
X180656243Y-116284754D01*
X180656241Y-116284753D01*
X180656240Y-116284753D01*
X180494957Y-116259208D01*
X180446287Y-116251500D01*
X180233713Y-116251500D01*
X180185042Y-116259208D01*
X180023760Y-116284753D01*
X179821585Y-116350444D01*
X179632179Y-116446951D01*
X179460213Y-116571890D01*
X179309890Y-116722213D01*
X179184951Y-116894179D01*
X179088444Y-117083585D01*
X179022753Y-117285760D01*
X178997645Y-117444287D01*
X178989500Y-117495713D01*
X161617344Y-117495713D01*
X161620832Y-117493597D01*
X161717610Y-117444287D01*
X161795779Y-117387493D01*
X161795786Y-117387490D01*
X161883212Y-117323971D01*
X161883210Y-117323971D01*
X161883219Y-117323966D01*
X162027966Y-117179219D01*
X162027968Y-117179215D01*
X162027971Y-117179213D01*
X162097445Y-117083588D01*
X162148287Y-117013610D01*
X162241220Y-116831219D01*
X162304477Y-116636534D01*
X162336500Y-116434352D01*
X162336500Y-116229648D01*
X162304477Y-116027466D01*
X162241220Y-115832781D01*
X162241218Y-115832778D01*
X162241218Y-115832776D01*
X162207503Y-115766607D01*
X162148287Y-115650390D01*
X162140556Y-115639749D01*
X162027971Y-115484786D01*
X161883213Y-115340028D01*
X161717614Y-115219715D01*
X161711006Y-115216348D01*
X161624917Y-115172483D01*
X161574123Y-115124511D01*
X161557328Y-115056690D01*
X161579865Y-114990555D01*
X161624917Y-114951516D01*
X161717610Y-114904287D01*
X161738770Y-114888913D01*
X161883213Y-114783971D01*
X161883215Y-114783968D01*
X161883219Y-114783966D01*
X162027966Y-114639219D01*
X162027968Y-114639215D01*
X162027971Y-114639213D01*
X162103280Y-114535557D01*
X162148287Y-114473610D01*
X162241220Y-114291219D01*
X162304477Y-114096534D01*
X162336500Y-113894352D01*
X162336500Y-113689648D01*
X162304477Y-113487466D01*
X162241220Y-113292781D01*
X162241218Y-113292778D01*
X162241218Y-113292776D01*
X162207503Y-113226607D01*
X162148287Y-113110390D01*
X162140556Y-113099749D01*
X162027971Y-112944786D01*
X161883213Y-112800028D01*
X161717614Y-112679715D01*
X161711006Y-112676348D01*
X161624917Y-112632483D01*
X161574123Y-112584511D01*
X161557328Y-112516690D01*
X161579865Y-112450555D01*
X161624917Y-112411516D01*
X161717610Y-112364287D01*
X161738770Y-112348913D01*
X161883213Y-112243971D01*
X161883215Y-112243968D01*
X161883219Y-112243966D01*
X162027966Y-112099219D01*
X162027968Y-112099215D01*
X162027971Y-112099213D01*
X162103280Y-111995557D01*
X162148287Y-111933610D01*
X162241220Y-111751219D01*
X162304477Y-111556534D01*
X162336500Y-111354352D01*
X162336500Y-111149648D01*
X162304477Y-110947466D01*
X162241220Y-110752781D01*
X162241218Y-110752778D01*
X162241218Y-110752776D01*
X162207503Y-110686607D01*
X162148287Y-110570390D01*
X162140556Y-110559749D01*
X162027971Y-110404786D01*
X161883213Y-110260028D01*
X161717614Y-110139715D01*
X161711006Y-110136348D01*
X161624917Y-110092483D01*
X161574123Y-110044511D01*
X161557328Y-109976690D01*
X161579865Y-109910555D01*
X161624917Y-109871516D01*
X161717610Y-109824287D01*
X161738770Y-109808913D01*
X161883213Y-109703971D01*
X161883215Y-109703968D01*
X161883219Y-109703966D01*
X162027966Y-109559219D01*
X162027968Y-109559215D01*
X162027971Y-109559213D01*
X162114226Y-109440491D01*
X162148287Y-109393610D01*
X162241220Y-109211219D01*
X162304477Y-109016534D01*
X162336500Y-108814352D01*
X162336500Y-108609648D01*
X162304477Y-108407466D01*
X162241220Y-108212781D01*
X162241218Y-108212778D01*
X162241218Y-108212776D01*
X162204031Y-108139793D01*
X162148287Y-108030390D01*
X162081401Y-107938328D01*
X162027971Y-107864786D01*
X161883213Y-107720028D01*
X161717614Y-107599715D01*
X161710078Y-107595875D01*
X161624917Y-107552483D01*
X161574123Y-107504511D01*
X161557328Y-107436690D01*
X161579865Y-107370555D01*
X161624917Y-107331516D01*
X161717610Y-107284287D01*
X161738770Y-107268913D01*
X161883213Y-107163971D01*
X161883215Y-107163968D01*
X161883219Y-107163966D01*
X162027966Y-107019219D01*
X162027968Y-107019215D01*
X162027971Y-107019213D01*
X162148284Y-106853614D01*
X162148285Y-106853613D01*
X162148287Y-106853610D01*
X162155117Y-106840204D01*
X162203091Y-106789409D01*
X162265602Y-106772500D01*
X185079331Y-106772500D01*
X185079347Y-106772501D01*
X185086943Y-106772501D01*
X185245054Y-106772501D01*
X185245057Y-106772501D01*
X185397785Y-106731577D01*
X185447904Y-106702639D01*
X185534716Y-106652520D01*
X185646520Y-106540716D01*
X185646520Y-106540714D01*
X185656728Y-106530507D01*
X185656730Y-106530504D01*
X198464978Y-93722255D01*
X198526299Y-93688772D01*
X198581614Y-93689366D01*
X198585644Y-93690333D01*
X198585661Y-93690339D01*
X198782403Y-93721500D01*
X198782404Y-93721500D01*
X198981596Y-93721500D01*
X198981597Y-93721500D01*
X199178339Y-93690339D01*
X199178342Y-93690338D01*
X199178343Y-93690338D01*
X199367780Y-93628786D01*
X199367780Y-93628785D01*
X199367783Y-93628785D01*
X199545266Y-93538353D01*
X199706418Y-93421269D01*
X199847269Y-93280418D01*
X199964353Y-93119266D01*
X200041515Y-92967827D01*
X200089490Y-92917031D01*
X200157311Y-92900236D01*
X200223446Y-92922773D01*
X200262485Y-92967827D01*
X200339647Y-93119266D01*
X200456731Y-93280418D01*
X200597582Y-93421269D01*
X200758734Y-93538353D01*
X200870572Y-93595337D01*
X200936219Y-93628786D01*
X201125657Y-93690338D01*
X201125658Y-93690338D01*
X201125661Y-93690339D01*
X201322403Y-93721500D01*
X201322404Y-93721500D01*
X201521596Y-93721500D01*
X201521597Y-93721500D01*
X201718339Y-93690339D01*
X201718342Y-93690338D01*
X201718343Y-93690338D01*
X201907780Y-93628786D01*
X201907780Y-93628785D01*
X201907783Y-93628785D01*
X202085266Y-93538353D01*
X202246418Y-93421269D01*
X202387269Y-93280418D01*
X202504353Y-93119266D01*
X202581515Y-92967827D01*
X202629490Y-92917031D01*
X202697311Y-92900236D01*
X202763446Y-92922773D01*
X202802485Y-92967827D01*
X202879647Y-93119266D01*
X202996731Y-93280418D01*
X203137582Y-93421269D01*
X203298734Y-93538353D01*
X203410572Y-93595337D01*
X203476219Y-93628786D01*
X203665657Y-93690338D01*
X203665658Y-93690338D01*
X203665661Y-93690339D01*
X203862403Y-93721500D01*
X203862404Y-93721500D01*
X204061596Y-93721500D01*
X204061597Y-93721500D01*
X204258339Y-93690339D01*
X204258342Y-93690338D01*
X204258343Y-93690338D01*
X204447780Y-93628786D01*
X204447780Y-93628785D01*
X204447783Y-93628785D01*
X204625266Y-93538353D01*
X204786418Y-93421269D01*
X204927269Y-93280418D01*
X205044353Y-93119266D01*
X205121515Y-92967827D01*
X205169490Y-92917031D01*
X205237311Y-92900236D01*
X205303446Y-92922773D01*
X205342485Y-92967827D01*
X205419647Y-93119266D01*
X205536731Y-93280418D01*
X205677582Y-93421269D01*
X205838734Y-93538353D01*
X205950572Y-93595337D01*
X206016219Y-93628786D01*
X206205657Y-93690338D01*
X206205658Y-93690338D01*
X206205661Y-93690339D01*
X206402403Y-93721500D01*
X206402404Y-93721500D01*
X206601596Y-93721500D01*
X206601597Y-93721500D01*
X206798339Y-93690339D01*
X206798342Y-93690338D01*
X206798343Y-93690338D01*
X206987780Y-93628786D01*
X206987780Y-93628785D01*
X206987783Y-93628785D01*
X207165266Y-93538353D01*
X207326418Y-93421269D01*
X207467269Y-93280418D01*
X207584353Y-93119266D01*
X207661795Y-92967276D01*
X207709769Y-92916481D01*
X207777590Y-92899686D01*
X207843725Y-92922223D01*
X207882765Y-92967277D01*
X207960077Y-93119008D01*
X207987580Y-93156863D01*
X207987581Y-93156864D01*
X208550871Y-92593574D01*
X208566755Y-92652853D01*
X208633898Y-92769147D01*
X208728853Y-92864102D01*
X208845147Y-92931245D01*
X208904425Y-92947128D01*
X208341134Y-93510417D01*
X208378994Y-93537924D01*
X208556405Y-93628320D01*
X208745777Y-93689852D01*
X208942437Y-93721000D01*
X209141563Y-93721000D01*
X209338222Y-93689852D01*
X209527594Y-93628320D01*
X209705005Y-93537924D01*
X209742863Y-93510418D01*
X209742863Y-93510417D01*
X209179574Y-92947128D01*
X209238853Y-92931245D01*
X209355147Y-92864102D01*
X209450102Y-92769147D01*
X209517245Y-92652853D01*
X209533128Y-92593574D01*
X210096417Y-93156863D01*
X210096418Y-93156863D01*
X210123924Y-93119005D01*
X210201234Y-92967277D01*
X210249208Y-92916481D01*
X210317029Y-92899686D01*
X210383164Y-92922223D01*
X210422204Y-92967277D01*
X210464481Y-93050249D01*
X210499647Y-93119266D01*
X210616731Y-93280418D01*
X210757582Y-93421269D01*
X210918734Y-93538353D01*
X211030572Y-93595337D01*
X211096219Y-93628786D01*
X211285657Y-93690338D01*
X211285658Y-93690338D01*
X211285661Y-93690339D01*
X211482403Y-93721500D01*
X211482404Y-93721500D01*
X211681596Y-93721500D01*
X211681597Y-93721500D01*
X211878339Y-93690339D01*
X211878342Y-93690338D01*
X211878343Y-93690338D01*
X212067780Y-93628786D01*
X212067780Y-93628785D01*
X212067783Y-93628785D01*
X212245266Y-93538353D01*
X212406418Y-93421269D01*
X212547269Y-93280418D01*
X212664353Y-93119266D01*
X212741515Y-92967827D01*
X212789490Y-92917031D01*
X212857311Y-92900236D01*
X212923446Y-92922773D01*
X212962485Y-92967827D01*
X213039647Y-93119266D01*
X213156731Y-93280418D01*
X213297582Y-93421269D01*
X213458734Y-93538353D01*
X213570572Y-93595337D01*
X213636219Y-93628786D01*
X213825657Y-93690338D01*
X213825658Y-93690338D01*
X213825661Y-93690339D01*
X214022403Y-93721500D01*
X214022404Y-93721500D01*
X214221596Y-93721500D01*
X214221597Y-93721500D01*
X214418339Y-93690339D01*
X214418342Y-93690338D01*
X214418343Y-93690338D01*
X214607780Y-93628786D01*
X214607780Y-93628785D01*
X214607783Y-93628785D01*
X214785266Y-93538353D01*
X214946418Y-93421269D01*
X215087269Y-93280418D01*
X215204353Y-93119266D01*
X215281515Y-92967827D01*
X215329490Y-92917031D01*
X215397311Y-92900236D01*
X215463446Y-92922773D01*
X215502485Y-92967827D01*
X215579647Y-93119266D01*
X215696731Y-93280418D01*
X215837582Y-93421269D01*
X215998734Y-93538353D01*
X216110572Y-93595337D01*
X216176219Y-93628786D01*
X216365657Y-93690338D01*
X216365658Y-93690338D01*
X216365661Y-93690339D01*
X216562403Y-93721500D01*
X216562404Y-93721500D01*
X216761596Y-93721500D01*
X216761597Y-93721500D01*
X216958339Y-93690339D01*
X216958342Y-93690338D01*
X216958343Y-93690338D01*
X217147780Y-93628786D01*
X217147780Y-93628785D01*
X217147783Y-93628785D01*
X217325266Y-93538353D01*
X217486418Y-93421269D01*
X217627269Y-93280418D01*
X217744353Y-93119266D01*
X217821515Y-92967827D01*
X217869490Y-92917031D01*
X217937311Y-92900236D01*
X218003446Y-92922773D01*
X218042485Y-92967827D01*
X218119647Y-93119266D01*
X218236731Y-93280418D01*
X218377582Y-93421269D01*
X218538734Y-93538353D01*
X218650572Y-93595337D01*
X218716219Y-93628786D01*
X218905657Y-93690338D01*
X218905658Y-93690338D01*
X218905661Y-93690339D01*
X219102403Y-93721500D01*
X219102404Y-93721500D01*
X219301596Y-93721500D01*
X219301597Y-93721500D01*
X219498339Y-93690339D01*
X219498342Y-93690338D01*
X219498343Y-93690338D01*
X219687780Y-93628786D01*
X219687780Y-93628785D01*
X219687783Y-93628785D01*
X219865266Y-93538353D01*
X220026418Y-93421269D01*
X220167269Y-93280418D01*
X220284353Y-93119266D01*
X220361515Y-92967827D01*
X220409490Y-92917031D01*
X220477311Y-92900236D01*
X220543446Y-92922773D01*
X220582485Y-92967827D01*
X220659647Y-93119266D01*
X220776731Y-93280418D01*
X220917582Y-93421269D01*
X221078734Y-93538353D01*
X221190572Y-93595337D01*
X221256219Y-93628786D01*
X221445657Y-93690338D01*
X221445658Y-93690338D01*
X221445661Y-93690339D01*
X221642403Y-93721500D01*
X221642404Y-93721500D01*
X221841596Y-93721500D01*
X221841597Y-93721500D01*
X222038339Y-93690339D01*
X222038342Y-93690338D01*
X222038343Y-93690338D01*
X222227780Y-93628786D01*
X222227780Y-93628785D01*
X222227783Y-93628785D01*
X222405266Y-93538353D01*
X222566418Y-93421269D01*
X222707269Y-93280418D01*
X222824353Y-93119266D01*
X222901515Y-92967827D01*
X222949490Y-92917031D01*
X223017311Y-92900236D01*
X223083446Y-92922773D01*
X223122485Y-92967827D01*
X223199647Y-93119266D01*
X223316731Y-93280418D01*
X223457582Y-93421269D01*
X223618734Y-93538353D01*
X223730572Y-93595337D01*
X223796219Y-93628786D01*
X223985657Y-93690338D01*
X223985658Y-93690338D01*
X223985661Y-93690339D01*
X224182403Y-93721500D01*
X224182404Y-93721500D01*
X224381596Y-93721500D01*
X224381597Y-93721500D01*
X224578339Y-93690339D01*
X224578342Y-93690338D01*
X224578343Y-93690338D01*
X224767780Y-93628786D01*
X224767780Y-93628785D01*
X224767783Y-93628785D01*
X224945266Y-93538353D01*
X225106418Y-93421269D01*
X225247269Y-93280418D01*
X225364353Y-93119266D01*
X225441515Y-92967827D01*
X225489490Y-92917031D01*
X225557311Y-92900236D01*
X225623446Y-92922773D01*
X225662485Y-92967827D01*
X225739647Y-93119266D01*
X225856731Y-93280418D01*
X225997582Y-93421269D01*
X226158734Y-93538353D01*
X226270572Y-93595337D01*
X226336219Y-93628786D01*
X226525657Y-93690338D01*
X226525658Y-93690338D01*
X226525661Y-93690339D01*
X226722403Y-93721500D01*
X226722404Y-93721500D01*
X226921596Y-93721500D01*
X226921597Y-93721500D01*
X227118339Y-93690339D01*
X227118342Y-93690338D01*
X227118343Y-93690338D01*
X227307780Y-93628786D01*
X227307780Y-93628785D01*
X227307783Y-93628785D01*
X227485266Y-93538353D01*
X227646418Y-93421269D01*
X227787269Y-93280418D01*
X227904353Y-93119266D01*
X227981515Y-92967827D01*
X228029490Y-92917031D01*
X228097311Y-92900236D01*
X228163446Y-92922773D01*
X228202485Y-92967827D01*
X228279647Y-93119266D01*
X228396731Y-93280418D01*
X228537582Y-93421269D01*
X228698734Y-93538353D01*
X228810572Y-93595337D01*
X228876219Y-93628786D01*
X229065657Y-93690338D01*
X229065658Y-93690338D01*
X229065661Y-93690339D01*
X229262403Y-93721500D01*
X229262404Y-93721500D01*
X229461596Y-93721500D01*
X229461597Y-93721500D01*
X229658339Y-93690339D01*
X229658342Y-93690338D01*
X229658343Y-93690338D01*
X229847780Y-93628786D01*
X229847780Y-93628785D01*
X229847783Y-93628785D01*
X230025266Y-93538353D01*
X230186418Y-93421269D01*
X230327269Y-93280418D01*
X230444353Y-93119266D01*
X230521515Y-92967827D01*
X230569490Y-92917031D01*
X230637311Y-92900236D01*
X230703446Y-92922773D01*
X230742485Y-92967827D01*
X230819647Y-93119266D01*
X230936731Y-93280418D01*
X231077582Y-93421269D01*
X231238734Y-93538353D01*
X231350572Y-93595337D01*
X231416219Y-93628786D01*
X231605657Y-93690338D01*
X231605658Y-93690338D01*
X231605661Y-93690339D01*
X231802403Y-93721500D01*
X231802404Y-93721500D01*
X232001596Y-93721500D01*
X232001597Y-93721500D01*
X232198339Y-93690339D01*
X232198342Y-93690338D01*
X232198343Y-93690338D01*
X232387780Y-93628786D01*
X232387780Y-93628785D01*
X232387783Y-93628785D01*
X232565266Y-93538353D01*
X232726418Y-93421269D01*
X232867269Y-93280418D01*
X232984353Y-93119266D01*
X233061515Y-92967827D01*
X233109490Y-92917031D01*
X233177311Y-92900236D01*
X233243446Y-92922773D01*
X233282485Y-92967827D01*
X233359647Y-93119266D01*
X233476731Y-93280418D01*
X233617582Y-93421269D01*
X233778734Y-93538353D01*
X233890572Y-93595337D01*
X233956219Y-93628786D01*
X234145657Y-93690338D01*
X234145658Y-93690338D01*
X234145661Y-93690339D01*
X234342403Y-93721500D01*
X234342404Y-93721500D01*
X234541596Y-93721500D01*
X234541597Y-93721500D01*
X234738339Y-93690339D01*
X234738342Y-93690338D01*
X234738343Y-93690338D01*
X234927780Y-93628786D01*
X234927780Y-93628785D01*
X234927783Y-93628785D01*
X235105266Y-93538353D01*
X235266418Y-93421269D01*
X235407269Y-93280418D01*
X235524353Y-93119266D01*
X235601515Y-92967827D01*
X235649490Y-92917031D01*
X235717311Y-92900236D01*
X235783446Y-92922773D01*
X235822485Y-92967827D01*
X235899647Y-93119266D01*
X236016731Y-93280418D01*
X236157582Y-93421269D01*
X236318734Y-93538353D01*
X236430572Y-93595337D01*
X236496219Y-93628786D01*
X236685657Y-93690338D01*
X236685658Y-93690338D01*
X236685661Y-93690339D01*
X236882403Y-93721500D01*
X236882404Y-93721500D01*
X237081596Y-93721500D01*
X237081597Y-93721500D01*
X237278339Y-93690339D01*
X237278342Y-93690338D01*
X237278343Y-93690338D01*
X237467780Y-93628786D01*
X237467780Y-93628785D01*
X237467783Y-93628785D01*
X237645266Y-93538353D01*
X237806418Y-93421269D01*
X237947269Y-93280418D01*
X238064353Y-93119266D01*
X238141515Y-92967827D01*
X238189490Y-92917031D01*
X238257311Y-92900236D01*
X238323446Y-92922773D01*
X238362485Y-92967827D01*
X238439647Y-93119266D01*
X238556731Y-93280418D01*
X238697582Y-93421269D01*
X238858734Y-93538353D01*
X238970572Y-93595337D01*
X239036219Y-93628786D01*
X239225657Y-93690338D01*
X239225658Y-93690338D01*
X239225661Y-93690339D01*
X239422403Y-93721500D01*
X239422404Y-93721500D01*
X239621596Y-93721500D01*
X239621597Y-93721500D01*
X239818339Y-93690339D01*
X239818342Y-93690338D01*
X239818343Y-93690338D01*
X240007780Y-93628786D01*
X240007780Y-93628785D01*
X240007783Y-93628785D01*
X240185266Y-93538353D01*
X240346418Y-93421269D01*
X240487269Y-93280418D01*
X240604353Y-93119266D01*
X240694785Y-92941783D01*
X240706007Y-92907245D01*
X240756338Y-92752343D01*
X240756338Y-92752342D01*
X240756339Y-92752339D01*
X240787500Y-92555597D01*
X240787500Y-92356403D01*
X240756339Y-92159661D01*
X240756338Y-92159657D01*
X240756338Y-92159656D01*
X240694786Y-91970219D01*
X240604485Y-91792994D01*
X240604353Y-91792734D01*
X240487269Y-91631582D01*
X240346418Y-91490731D01*
X240185266Y-91373647D01*
X240118606Y-91339682D01*
X240007780Y-91283213D01*
X239818342Y-91221661D01*
X239670782Y-91198290D01*
X239621597Y-91190500D01*
X239422403Y-91190500D01*
X239356822Y-91200887D01*
X239225659Y-91221661D01*
X239225656Y-91221661D01*
X239036219Y-91283213D01*
X238858733Y-91373647D01*
X238767407Y-91440000D01*
X238697582Y-91490731D01*
X238697580Y-91490733D01*
X238697579Y-91490733D01*
X238556733Y-91631579D01*
X238556733Y-91631580D01*
X238556731Y-91631582D01*
X238506447Y-91700790D01*
X238439647Y-91792733D01*
X238362485Y-91944172D01*
X238314510Y-91994968D01*
X238246689Y-92011763D01*
X238180554Y-91989225D01*
X238141515Y-91944172D01*
X238064485Y-91792994D01*
X238064353Y-91792734D01*
X237947269Y-91631582D01*
X237806418Y-91490731D01*
X237645266Y-91373647D01*
X237578606Y-91339682D01*
X237467780Y-91283213D01*
X237278342Y-91221661D01*
X237130782Y-91198290D01*
X237081597Y-91190500D01*
X236882403Y-91190500D01*
X236816822Y-91200887D01*
X236685659Y-91221661D01*
X236685656Y-91221661D01*
X236496219Y-91283213D01*
X236318733Y-91373647D01*
X236227407Y-91440000D01*
X236157582Y-91490731D01*
X236157580Y-91490733D01*
X236157579Y-91490733D01*
X236016733Y-91631579D01*
X236016733Y-91631580D01*
X236016731Y-91631582D01*
X235966447Y-91700790D01*
X235899647Y-91792733D01*
X235822485Y-91944172D01*
X235774510Y-91994968D01*
X235706689Y-92011763D01*
X235640554Y-91989225D01*
X235601515Y-91944172D01*
X235524485Y-91792994D01*
X235524353Y-91792734D01*
X235407269Y-91631582D01*
X235266418Y-91490731D01*
X235105266Y-91373647D01*
X235038606Y-91339682D01*
X234927780Y-91283213D01*
X234738342Y-91221661D01*
X234590782Y-91198290D01*
X234541597Y-91190500D01*
X234342403Y-91190500D01*
X234276822Y-91200887D01*
X234145659Y-91221661D01*
X234145656Y-91221661D01*
X233956219Y-91283213D01*
X233778733Y-91373647D01*
X233687407Y-91440000D01*
X233617582Y-91490731D01*
X233617580Y-91490733D01*
X233617579Y-91490733D01*
X233476733Y-91631579D01*
X233476733Y-91631580D01*
X233476731Y-91631582D01*
X233426447Y-91700790D01*
X233359647Y-91792733D01*
X233282485Y-91944172D01*
X233234510Y-91994968D01*
X233166689Y-92011763D01*
X233100554Y-91989225D01*
X233061515Y-91944172D01*
X232984485Y-91792994D01*
X232984353Y-91792734D01*
X232867269Y-91631582D01*
X232726418Y-91490731D01*
X232565266Y-91373647D01*
X232498606Y-91339682D01*
X232387780Y-91283213D01*
X232198342Y-91221661D01*
X232050782Y-91198290D01*
X232001597Y-91190500D01*
X231802403Y-91190500D01*
X231736822Y-91200887D01*
X231605659Y-91221661D01*
X231605656Y-91221661D01*
X231416219Y-91283213D01*
X231238733Y-91373647D01*
X231147407Y-91440000D01*
X231077582Y-91490731D01*
X231077580Y-91490733D01*
X231077579Y-91490733D01*
X230936733Y-91631579D01*
X230936733Y-91631580D01*
X230936731Y-91631582D01*
X230886447Y-91700790D01*
X230819647Y-91792733D01*
X230742485Y-91944172D01*
X230694510Y-91994968D01*
X230626689Y-92011763D01*
X230560554Y-91989225D01*
X230521515Y-91944172D01*
X230444485Y-91792994D01*
X230444353Y-91792734D01*
X230327269Y-91631582D01*
X230186418Y-91490731D01*
X230025266Y-91373647D01*
X229958606Y-91339682D01*
X229847780Y-91283213D01*
X229658342Y-91221661D01*
X229510782Y-91198290D01*
X229461597Y-91190500D01*
X229262403Y-91190500D01*
X229196822Y-91200887D01*
X229065659Y-91221661D01*
X229065656Y-91221661D01*
X228876219Y-91283213D01*
X228698733Y-91373647D01*
X228607407Y-91440000D01*
X228537582Y-91490731D01*
X228537580Y-91490733D01*
X228537579Y-91490733D01*
X228396733Y-91631579D01*
X228396733Y-91631580D01*
X228396731Y-91631582D01*
X228346447Y-91700790D01*
X228279647Y-91792733D01*
X228202485Y-91944172D01*
X228154510Y-91994968D01*
X228086689Y-92011763D01*
X228020554Y-91989225D01*
X227981515Y-91944172D01*
X227904485Y-91792994D01*
X227904353Y-91792734D01*
X227787269Y-91631582D01*
X227646418Y-91490731D01*
X227485266Y-91373647D01*
X227418606Y-91339682D01*
X227307780Y-91283213D01*
X227118342Y-91221661D01*
X226970782Y-91198290D01*
X226921597Y-91190500D01*
X226722403Y-91190500D01*
X226656822Y-91200887D01*
X226525659Y-91221661D01*
X226525656Y-91221661D01*
X226336219Y-91283213D01*
X226158733Y-91373647D01*
X226067407Y-91440000D01*
X225997582Y-91490731D01*
X225997580Y-91490733D01*
X225997579Y-91490733D01*
X225856733Y-91631579D01*
X225856733Y-91631580D01*
X225856731Y-91631582D01*
X225806447Y-91700790D01*
X225739647Y-91792733D01*
X225662485Y-91944172D01*
X225614510Y-91994968D01*
X225546689Y-92011763D01*
X225480554Y-91989225D01*
X225441515Y-91944172D01*
X225364485Y-91792994D01*
X225364353Y-91792734D01*
X225247269Y-91631582D01*
X225106418Y-91490731D01*
X224945266Y-91373647D01*
X224878606Y-91339682D01*
X224767780Y-91283213D01*
X224578342Y-91221661D01*
X224430782Y-91198290D01*
X224381597Y-91190500D01*
X224182403Y-91190500D01*
X224116822Y-91200887D01*
X223985659Y-91221661D01*
X223985656Y-91221661D01*
X223796219Y-91283213D01*
X223618733Y-91373647D01*
X223527407Y-91440000D01*
X223457582Y-91490731D01*
X223457580Y-91490733D01*
X223457579Y-91490733D01*
X223316733Y-91631579D01*
X223316733Y-91631580D01*
X223316731Y-91631582D01*
X223266447Y-91700790D01*
X223199647Y-91792733D01*
X223122485Y-91944172D01*
X223074510Y-91994968D01*
X223006689Y-92011763D01*
X222940554Y-91989225D01*
X222901515Y-91944172D01*
X222824485Y-91792994D01*
X222824353Y-91792734D01*
X222707269Y-91631582D01*
X222566418Y-91490731D01*
X222405266Y-91373647D01*
X222338606Y-91339682D01*
X222227780Y-91283213D01*
X222038342Y-91221661D01*
X221890782Y-91198290D01*
X221841597Y-91190500D01*
X221642403Y-91190500D01*
X221576822Y-91200887D01*
X221445659Y-91221661D01*
X221445656Y-91221661D01*
X221256219Y-91283213D01*
X221078733Y-91373647D01*
X220987407Y-91440000D01*
X220917582Y-91490731D01*
X220917580Y-91490733D01*
X220917579Y-91490733D01*
X220776733Y-91631579D01*
X220776733Y-91631580D01*
X220776731Y-91631582D01*
X220726447Y-91700790D01*
X220659647Y-91792733D01*
X220582485Y-91944172D01*
X220534510Y-91994968D01*
X220466689Y-92011763D01*
X220400554Y-91989225D01*
X220361515Y-91944172D01*
X220284485Y-91792994D01*
X220284353Y-91792734D01*
X220167269Y-91631582D01*
X220026418Y-91490731D01*
X219865266Y-91373647D01*
X219798606Y-91339682D01*
X219687780Y-91283213D01*
X219498342Y-91221661D01*
X219350782Y-91198290D01*
X219301597Y-91190500D01*
X219102403Y-91190500D01*
X219036822Y-91200887D01*
X218905659Y-91221661D01*
X218905656Y-91221661D01*
X218716219Y-91283213D01*
X218538733Y-91373647D01*
X218447407Y-91440000D01*
X218377582Y-91490731D01*
X218377580Y-91490733D01*
X218377579Y-91490733D01*
X218236733Y-91631579D01*
X218236733Y-91631580D01*
X218236731Y-91631582D01*
X218186447Y-91700790D01*
X218119647Y-91792733D01*
X218042485Y-91944172D01*
X217994510Y-91994968D01*
X217926689Y-92011763D01*
X217860554Y-91989225D01*
X217821515Y-91944172D01*
X217744485Y-91792994D01*
X217744353Y-91792734D01*
X217627269Y-91631582D01*
X217486418Y-91490731D01*
X217325266Y-91373647D01*
X217258606Y-91339682D01*
X217147780Y-91283213D01*
X216958342Y-91221661D01*
X216810782Y-91198290D01*
X216761597Y-91190500D01*
X216562403Y-91190500D01*
X216496822Y-91200887D01*
X216365659Y-91221661D01*
X216365656Y-91221661D01*
X216176219Y-91283213D01*
X215998733Y-91373647D01*
X215907407Y-91440000D01*
X215837582Y-91490731D01*
X215837580Y-91490733D01*
X215837579Y-91490733D01*
X215696733Y-91631579D01*
X215696733Y-91631580D01*
X215696731Y-91631582D01*
X215646447Y-91700790D01*
X215579647Y-91792733D01*
X215502485Y-91944172D01*
X215454510Y-91994968D01*
X215386689Y-92011763D01*
X215320554Y-91989225D01*
X215281515Y-91944172D01*
X215204485Y-91792994D01*
X215204353Y-91792734D01*
X215087269Y-91631582D01*
X214946418Y-91490731D01*
X214785266Y-91373647D01*
X214718606Y-91339682D01*
X214607780Y-91283213D01*
X214418342Y-91221661D01*
X214270782Y-91198290D01*
X214221597Y-91190500D01*
X214022403Y-91190500D01*
X213956822Y-91200887D01*
X213825659Y-91221661D01*
X213825656Y-91221661D01*
X213636219Y-91283213D01*
X213458733Y-91373647D01*
X213367407Y-91440000D01*
X213297582Y-91490731D01*
X213297580Y-91490733D01*
X213297579Y-91490733D01*
X213156733Y-91631579D01*
X213156733Y-91631580D01*
X213156731Y-91631582D01*
X213106447Y-91700790D01*
X213039647Y-91792733D01*
X212962485Y-91944172D01*
X212914510Y-91994968D01*
X212846689Y-92011763D01*
X212780554Y-91989225D01*
X212741515Y-91944172D01*
X212664485Y-91792994D01*
X212664353Y-91792734D01*
X212547269Y-91631582D01*
X212406418Y-91490731D01*
X212245266Y-91373647D01*
X212178606Y-91339682D01*
X212067780Y-91283213D01*
X211878342Y-91221661D01*
X211730782Y-91198290D01*
X211681597Y-91190500D01*
X211482403Y-91190500D01*
X211416822Y-91200887D01*
X211285659Y-91221661D01*
X211285656Y-91221661D01*
X211096219Y-91283213D01*
X210918733Y-91373647D01*
X210827407Y-91440000D01*
X210757582Y-91490731D01*
X210757580Y-91490733D01*
X210757579Y-91490733D01*
X210616733Y-91631579D01*
X210616733Y-91631580D01*
X210616731Y-91631582D01*
X210581555Y-91679997D01*
X210499645Y-91792735D01*
X210422203Y-91944723D01*
X210374229Y-91995518D01*
X210306408Y-92012313D01*
X210240273Y-91989775D01*
X210201234Y-91944722D01*
X210123924Y-91792994D01*
X210096417Y-91755135D01*
X210096417Y-91755134D01*
X209533128Y-92318424D01*
X209517245Y-92259147D01*
X209450102Y-92142853D01*
X209355147Y-92047898D01*
X209238853Y-91980755D01*
X209179574Y-91964871D01*
X209742864Y-91401581D01*
X209742863Y-91401580D01*
X209705008Y-91374077D01*
X209527594Y-91283679D01*
X209338222Y-91222147D01*
X209141563Y-91191000D01*
X208942437Y-91191000D01*
X208745777Y-91222147D01*
X208556405Y-91283679D01*
X208378990Y-91374077D01*
X208341135Y-91401580D01*
X208341135Y-91401581D01*
X208904425Y-91964871D01*
X208845147Y-91980755D01*
X208728853Y-92047898D01*
X208633898Y-92142853D01*
X208566755Y-92259147D01*
X208550871Y-92318425D01*
X207987581Y-91755135D01*
X207987580Y-91755135D01*
X207960075Y-91792993D01*
X207882764Y-91944723D01*
X207834790Y-91995518D01*
X207766969Y-92012313D01*
X207700834Y-91989775D01*
X207661795Y-91944722D01*
X207584485Y-91792994D01*
X207584353Y-91792734D01*
X207467269Y-91631582D01*
X207326418Y-91490731D01*
X207165266Y-91373647D01*
X207098606Y-91339682D01*
X206987780Y-91283213D01*
X206798342Y-91221661D01*
X206650782Y-91198290D01*
X206601597Y-91190500D01*
X206402403Y-91190500D01*
X206336822Y-91200887D01*
X206205659Y-91221661D01*
X206205656Y-91221661D01*
X206016219Y-91283213D01*
X205838733Y-91373647D01*
X205747407Y-91440000D01*
X205677582Y-91490731D01*
X205677580Y-91490733D01*
X205677579Y-91490733D01*
X205536733Y-91631579D01*
X205536733Y-91631580D01*
X205536731Y-91631582D01*
X205486447Y-91700790D01*
X205419647Y-91792733D01*
X205342485Y-91944172D01*
X205294510Y-91994968D01*
X205226689Y-92011763D01*
X205160554Y-91989225D01*
X205121515Y-91944172D01*
X205044485Y-91792994D01*
X205044353Y-91792734D01*
X204927269Y-91631582D01*
X204786418Y-91490731D01*
X204625266Y-91373647D01*
X204558606Y-91339682D01*
X204447780Y-91283213D01*
X204258342Y-91221661D01*
X204110782Y-91198290D01*
X204061597Y-91190500D01*
X203862403Y-91190500D01*
X203796822Y-91200887D01*
X203665659Y-91221661D01*
X203665656Y-91221661D01*
X203476219Y-91283213D01*
X203298733Y-91373647D01*
X203207407Y-91440000D01*
X203137582Y-91490731D01*
X203137580Y-91490733D01*
X203137579Y-91490733D01*
X202996733Y-91631579D01*
X202996733Y-91631580D01*
X202996731Y-91631582D01*
X202946447Y-91700790D01*
X202879647Y-91792733D01*
X202802485Y-91944172D01*
X202754510Y-91994968D01*
X202686689Y-92011763D01*
X202620554Y-91989225D01*
X202581515Y-91944172D01*
X202504485Y-91792994D01*
X202504353Y-91792734D01*
X202387269Y-91631582D01*
X202246418Y-91490731D01*
X202085266Y-91373647D01*
X202018606Y-91339682D01*
X201907780Y-91283213D01*
X201718342Y-91221661D01*
X201570782Y-91198290D01*
X201521597Y-91190500D01*
X201322403Y-91190500D01*
X201256822Y-91200887D01*
X201125659Y-91221661D01*
X201125656Y-91221661D01*
X200936219Y-91283213D01*
X200758733Y-91373647D01*
X200667407Y-91440000D01*
X200597582Y-91490731D01*
X200597580Y-91490733D01*
X200597579Y-91490733D01*
X200456733Y-91631579D01*
X200456733Y-91631580D01*
X200456731Y-91631582D01*
X200406447Y-91700790D01*
X200339647Y-91792733D01*
X200262485Y-91944172D01*
X200214510Y-91994968D01*
X200146689Y-92011763D01*
X200080554Y-91989225D01*
X200041515Y-91944172D01*
X199964485Y-91792994D01*
X199964353Y-91792734D01*
X199847269Y-91631582D01*
X199706418Y-91490731D01*
X199545266Y-91373647D01*
X199478606Y-91339682D01*
X199367780Y-91283213D01*
X199178342Y-91221661D01*
X199030782Y-91198290D01*
X198981597Y-91190500D01*
X198782403Y-91190500D01*
X198716822Y-91200887D01*
X198585659Y-91221661D01*
X198585656Y-91221661D01*
X198396219Y-91283213D01*
X198218733Y-91373647D01*
X198127407Y-91440000D01*
X198057582Y-91490731D01*
X198057580Y-91490733D01*
X198057579Y-91490733D01*
X197916733Y-91631579D01*
X197916733Y-91631580D01*
X197916731Y-91631582D01*
X197866447Y-91700790D01*
X197799647Y-91792733D01*
X197722485Y-91944172D01*
X197674510Y-91994968D01*
X197606689Y-92011763D01*
X197540554Y-91989225D01*
X197501515Y-91944172D01*
X197424485Y-91792994D01*
X197424353Y-91792734D01*
X197307269Y-91631582D01*
X197166418Y-91490731D01*
X197005266Y-91373647D01*
X196938606Y-91339682D01*
X196827780Y-91283213D01*
X196638342Y-91221661D01*
X196490782Y-91198290D01*
X196441597Y-91190500D01*
X196242403Y-91190500D01*
X196176822Y-91200887D01*
X196045659Y-91221661D01*
X196045656Y-91221661D01*
X195856219Y-91283213D01*
X195678733Y-91373647D01*
X195587407Y-91440000D01*
X195517582Y-91490731D01*
X195517580Y-91490733D01*
X195517579Y-91490733D01*
X195376733Y-91631579D01*
X195376733Y-91631580D01*
X195376731Y-91631582D01*
X195341555Y-91679997D01*
X195259645Y-91792735D01*
X195182203Y-91944723D01*
X195134229Y-91995518D01*
X195066408Y-92012313D01*
X195000273Y-91989775D01*
X194961234Y-91944722D01*
X194883924Y-91792994D01*
X194856417Y-91755135D01*
X194856417Y-91755134D01*
X194293128Y-92318424D01*
X194277245Y-92259147D01*
X194210102Y-92142853D01*
X194115147Y-92047898D01*
X193998853Y-91980755D01*
X193939574Y-91964871D01*
X194502864Y-91401581D01*
X194502863Y-91401580D01*
X194465008Y-91374077D01*
X194287594Y-91283679D01*
X194098222Y-91222147D01*
X193901563Y-91191000D01*
X193702437Y-91191000D01*
X193505777Y-91222147D01*
X193316405Y-91283679D01*
X193138990Y-91374077D01*
X193101135Y-91401580D01*
X193101135Y-91401581D01*
X193664425Y-91964871D01*
X193605147Y-91980755D01*
X193488853Y-92047898D01*
X193393898Y-92142853D01*
X193326755Y-92259147D01*
X193310871Y-92318425D01*
X192747581Y-91755135D01*
X192747580Y-91755135D01*
X192720077Y-91792990D01*
X192629679Y-91970405D01*
X192568147Y-92159777D01*
X192537000Y-92356436D01*
X192537000Y-92555563D01*
X192568147Y-92752222D01*
X192629679Y-92941594D01*
X192720077Y-93119008D01*
X192747580Y-93156863D01*
X192747581Y-93156864D01*
X193310871Y-92593574D01*
X193326755Y-92652853D01*
X193393898Y-92769147D01*
X193488853Y-92864102D01*
X193605147Y-92931245D01*
X193664424Y-92947128D01*
X193101134Y-93510417D01*
X193138994Y-93537924D01*
X193316405Y-93628320D01*
X193505777Y-93689852D01*
X193702437Y-93721000D01*
X193901562Y-93721000D01*
X193912210Y-93719313D01*
X193981504Y-93728264D01*
X194034958Y-93773258D01*
X194055601Y-93840008D01*
X194036879Y-93907323D01*
X194019295Y-93929466D01*
X184953584Y-102995181D01*
X184892261Y-103028666D01*
X184865903Y-103031500D01*
X162265602Y-103031500D01*
X162198563Y-103011815D01*
X162155117Y-102963795D01*
X162148284Y-102950385D01*
X162027971Y-102784786D01*
X161883213Y-102640028D01*
X161717613Y-102519715D01*
X161717612Y-102519714D01*
X161717610Y-102519713D01*
X161629487Y-102474812D01*
X161535223Y-102426781D01*
X161340534Y-102363522D01*
X161165995Y-102335878D01*
X161138352Y-102331500D01*
X160933648Y-102331500D01*
X160909329Y-102335351D01*
X160731465Y-102363522D01*
X160536776Y-102426781D01*
X160354386Y-102519715D01*
X160188786Y-102640028D01*
X160044028Y-102784786D01*
X159923715Y-102950386D01*
X159830781Y-103132776D01*
X159767522Y-103327465D01*
X159735500Y-103529648D01*
X148826213Y-103529648D01*
X148801925Y-103439007D01*
X148769012Y-103382000D01*
X149636000Y-103382000D01*
X149636000Y-102784172D01*
X149635999Y-102784155D01*
X149629598Y-102724627D01*
X149629596Y-102724620D01*
X149579354Y-102589913D01*
X149579350Y-102589906D01*
X149493190Y-102474812D01*
X149493187Y-102474809D01*
X149378093Y-102388649D01*
X149378086Y-102388645D01*
X149243379Y-102338403D01*
X149243372Y-102338401D01*
X149183844Y-102332000D01*
X148586000Y-102332000D01*
X148586000Y-103198988D01*
X148528993Y-103166075D01*
X148401826Y-103132000D01*
X148270174Y-103132000D01*
X148143007Y-103166075D01*
X148086000Y-103198988D01*
X148086000Y-102332000D01*
X147488155Y-102332000D01*
X147428627Y-102338401D01*
X147428620Y-102338403D01*
X147293913Y-102388645D01*
X147293906Y-102388649D01*
X147178812Y-102474809D01*
X147178809Y-102474812D01*
X147092649Y-102589906D01*
X147092645Y-102589913D01*
X147042403Y-102724620D01*
X147042401Y-102724627D01*
X147036000Y-102784155D01*
X147036000Y-103382000D01*
X147902988Y-103382000D01*
X147870075Y-103439007D01*
X147836000Y-103566174D01*
X147836000Y-103697826D01*
X147870075Y-103824993D01*
X147902988Y-103882000D01*
X147036000Y-103882000D01*
X147036000Y-104479844D01*
X147042401Y-104539372D01*
X147042403Y-104539379D01*
X147092645Y-104674086D01*
X147092649Y-104674093D01*
X147178809Y-104789187D01*
X147178812Y-104789190D01*
X147293906Y-104875350D01*
X147293913Y-104875354D01*
X147428620Y-104925596D01*
X147466043Y-104929620D01*
X147530595Y-104956358D01*
X147570443Y-105013750D01*
X147572937Y-105083576D01*
X147537285Y-105143665D01*
X147525675Y-105153227D01*
X147488789Y-105180026D01*
X147488782Y-105180032D01*
X147344028Y-105324786D01*
X147223715Y-105490386D01*
X147130781Y-105672776D01*
X147067522Y-105867465D01*
X147035500Y-106069648D01*
X147035500Y-106274351D01*
X147067522Y-106476534D01*
X147130781Y-106671223D01*
X147223715Y-106853613D01*
X147344028Y-107019213D01*
X147488786Y-107163971D01*
X147643749Y-107276556D01*
X147654390Y-107284287D01*
X147745840Y-107330883D01*
X147747080Y-107331515D01*
X147797876Y-107379490D01*
X147814671Y-107447311D01*
X147792134Y-107513446D01*
X147747080Y-107552485D01*
X147654386Y-107599715D01*
X147488786Y-107720028D01*
X147344028Y-107864786D01*
X147223715Y-108030385D01*
X147216883Y-108043795D01*
X147168909Y-108094591D01*
X147106398Y-108111500D01*
X143332669Y-108111500D01*
X143332653Y-108111499D01*
X143325057Y-108111499D01*
X143166943Y-108111499D01*
X143061350Y-108139793D01*
X143014210Y-108152424D01*
X143014209Y-108152425D01*
X142964096Y-108181359D01*
X142964095Y-108181360D01*
X142937872Y-108196500D01*
X142877285Y-108231479D01*
X142877282Y-108231481D01*
X142765478Y-108343286D01*
X141698522Y-109410241D01*
X141637199Y-109443726D01*
X141572523Y-109440491D01*
X141530245Y-109426754D01*
X141390272Y-109404584D01*
X141320287Y-109393500D01*
X141107713Y-109393500D01*
X141059042Y-109401208D01*
X140897760Y-109426753D01*
X140695585Y-109492444D01*
X140506179Y-109588951D01*
X140334213Y-109713890D01*
X140183890Y-109864213D01*
X140058951Y-110036179D01*
X139962444Y-110225585D01*
X139896753Y-110427760D01*
X139874163Y-110570390D01*
X139863500Y-110637713D01*
X86557629Y-110637713D01*
X86557078Y-107864781D01*
X86556530Y-105108135D01*
X90939500Y-105108135D01*
X90939500Y-107743870D01*
X90939501Y-107743876D01*
X90945908Y-107803483D01*
X90996202Y-107938328D01*
X90996206Y-107938335D01*
X91082452Y-108053544D01*
X91082455Y-108053547D01*
X91197664Y-108139793D01*
X91197671Y-108139797D01*
X91332517Y-108190091D01*
X91332516Y-108190091D01*
X91339444Y-108190835D01*
X91392127Y-108196500D01*
X94027872Y-108196499D01*
X94087483Y-108190091D01*
X94222331Y-108139796D01*
X94337546Y-108053546D01*
X94423796Y-107938331D01*
X94474091Y-107803483D01*
X94480500Y-107743873D01*
X94480499Y-106309947D01*
X131579500Y-106309947D01*
X131579500Y-106542052D01*
X131606007Y-106743386D01*
X131609794Y-106772149D01*
X131614419Y-106789409D01*
X131669862Y-106996328D01*
X131758677Y-107210745D01*
X131758685Y-107210762D01*
X131874720Y-107411743D01*
X131874721Y-107411745D01*
X132016009Y-107595875D01*
X132016015Y-107595882D01*
X132180117Y-107759984D01*
X132180124Y-107759990D01*
X132364254Y-107901278D01*
X132364256Y-107901279D01*
X132565237Y-108017314D01*
X132565240Y-108017315D01*
X132565248Y-108017320D01*
X132779670Y-108106137D01*
X133003851Y-108166206D01*
X133222318Y-108194968D01*
X133233939Y-108196498D01*
X133233955Y-108196500D01*
X133233962Y-108196500D01*
X133466038Y-108196500D01*
X133466045Y-108196500D01*
X133696149Y-108166206D01*
X133920330Y-108106137D01*
X134134752Y-108017320D01*
X134335748Y-107901276D01*
X134519877Y-107759989D01*
X134683989Y-107595877D01*
X134825276Y-107411748D01*
X134941320Y-107210752D01*
X135030137Y-106996330D01*
X135090206Y-106772149D01*
X135120500Y-106542045D01*
X135120500Y-106309955D01*
X135090206Y-106079851D01*
X135030137Y-105855670D01*
X134941320Y-105641248D01*
X134941314Y-105641237D01*
X134825279Y-105440256D01*
X134825278Y-105440254D01*
X134683990Y-105256124D01*
X134683984Y-105256117D01*
X134519882Y-105092015D01*
X134519875Y-105092009D01*
X134335745Y-104950721D01*
X134335743Y-104950720D01*
X134134762Y-104834685D01*
X134134754Y-104834681D01*
X134134752Y-104834680D01*
X134134745Y-104834677D01*
X133920328Y-104745862D01*
X133778203Y-104707780D01*
X133696149Y-104685794D01*
X133667386Y-104682007D01*
X133466052Y-104655500D01*
X133466045Y-104655500D01*
X133233955Y-104655500D01*
X133233947Y-104655500D01*
X133003851Y-104685794D01*
X132779671Y-104745862D01*
X132565254Y-104834677D01*
X132565237Y-104834685D01*
X132364256Y-104950720D01*
X132364254Y-104950721D01*
X132180124Y-105092009D01*
X132180117Y-105092015D01*
X132016015Y-105256117D01*
X132016009Y-105256124D01*
X131874721Y-105440254D01*
X131874720Y-105440256D01*
X131758685Y-105641237D01*
X131758677Y-105641254D01*
X131669862Y-105855671D01*
X131609794Y-106079851D01*
X131579500Y-106309947D01*
X94480499Y-106309947D01*
X94480499Y-105108128D01*
X94474091Y-105048517D01*
X94446091Y-104973446D01*
X94423797Y-104913671D01*
X94423793Y-104913664D01*
X94337547Y-104798455D01*
X94337544Y-104798452D01*
X94222335Y-104712206D01*
X94222328Y-104712202D01*
X94087482Y-104661908D01*
X94087483Y-104661908D01*
X94027883Y-104655501D01*
X94027881Y-104655500D01*
X94027873Y-104655500D01*
X94027864Y-104655500D01*
X91392129Y-104655500D01*
X91392123Y-104655501D01*
X91332516Y-104661908D01*
X91197671Y-104712202D01*
X91197664Y-104712206D01*
X91082455Y-104798452D01*
X91082452Y-104798455D01*
X90996206Y-104913664D01*
X90996202Y-104913671D01*
X90945908Y-105048517D01*
X90939854Y-105104831D01*
X90939501Y-105108123D01*
X90939500Y-105108135D01*
X86556530Y-105108135D01*
X86556529Y-105104831D01*
X86556215Y-103524801D01*
X86556067Y-102780876D01*
X86555500Y-99932050D01*
X86555500Y-89313154D01*
X98460000Y-89313154D01*
X98460000Y-90682000D01*
X99460000Y-90682000D01*
X99460000Y-91182000D01*
X98460000Y-91182000D01*
X98460000Y-92550845D01*
X98497181Y-92785593D01*
X98497181Y-92785596D01*
X98570629Y-93011641D01*
X98678532Y-93223412D01*
X98818239Y-93415700D01*
X98818239Y-93415701D01*
X98986298Y-93583760D01*
X99178587Y-93723467D01*
X99390358Y-93831370D01*
X99616406Y-93904818D01*
X99720000Y-93921226D01*
X99720000Y-92876560D01*
X99773147Y-92907245D01*
X99902857Y-92942000D01*
X100037143Y-92942000D01*
X100166853Y-92907245D01*
X100220000Y-92876560D01*
X100220000Y-93921225D01*
X100323593Y-93904818D01*
X100549641Y-93831370D01*
X100761412Y-93723467D01*
X100953700Y-93583760D01*
X100953701Y-93583760D01*
X101121760Y-93415701D01*
X101121760Y-93415700D01*
X101261467Y-93223412D01*
X101369370Y-93011641D01*
X101442818Y-92785596D01*
X101442818Y-92785593D01*
X101480000Y-92550845D01*
X101480000Y-91182000D01*
X100480000Y-91182000D01*
X100480000Y-90682000D01*
X101480000Y-90682000D01*
X101480000Y-89313154D01*
X101442818Y-89078406D01*
X101442818Y-89078403D01*
X101369370Y-88852358D01*
X101261467Y-88640587D01*
X101121764Y-88448304D01*
X101121755Y-88448293D01*
X101047597Y-88374135D01*
X103639500Y-88374135D01*
X103639500Y-93489870D01*
X103639501Y-93489876D01*
X103645908Y-93549483D01*
X103696202Y-93684328D01*
X103696206Y-93684335D01*
X103782452Y-93799544D01*
X103782455Y-93799547D01*
X103897664Y-93885793D01*
X103897671Y-93885797D01*
X104032517Y-93936091D01*
X104032516Y-93936091D01*
X104039444Y-93936835D01*
X104092127Y-93942500D01*
X106207872Y-93942499D01*
X106267483Y-93936091D01*
X106402331Y-93885796D01*
X106517546Y-93799546D01*
X106603796Y-93684331D01*
X106654091Y-93549483D01*
X106660500Y-93489873D01*
X106660499Y-88374128D01*
X106654091Y-88314517D01*
X106603796Y-88179669D01*
X106603795Y-88179668D01*
X106603793Y-88179664D01*
X106517547Y-88064455D01*
X106517544Y-88064452D01*
X106402335Y-87978206D01*
X106402328Y-87978202D01*
X106267482Y-87927908D01*
X106267483Y-87927908D01*
X106207883Y-87921501D01*
X106207881Y-87921500D01*
X106207873Y-87921500D01*
X106207864Y-87921500D01*
X104092129Y-87921500D01*
X104092123Y-87921501D01*
X104032516Y-87927908D01*
X103897671Y-87978202D01*
X103897664Y-87978206D01*
X103782455Y-88064452D01*
X103782452Y-88064455D01*
X103696206Y-88179664D01*
X103696202Y-88179671D01*
X103645908Y-88314517D01*
X103639501Y-88374116D01*
X103639501Y-88374123D01*
X103639500Y-88374135D01*
X101047597Y-88374135D01*
X100953701Y-88280239D01*
X100761412Y-88140532D01*
X100549641Y-88032629D01*
X100323589Y-87959180D01*
X100323590Y-87959180D01*
X100220000Y-87942773D01*
X100220000Y-88987439D01*
X100166853Y-88956755D01*
X100037143Y-88922000D01*
X99902857Y-88922000D01*
X99773147Y-88956755D01*
X99720000Y-88987439D01*
X99720000Y-87942773D01*
X99616410Y-87959180D01*
X99390358Y-88032629D01*
X99178587Y-88140532D01*
X98986299Y-88280239D01*
X98986298Y-88280239D01*
X98818239Y-88448298D01*
X98818239Y-88448299D01*
X98678532Y-88640587D01*
X98570629Y-88852358D01*
X98497181Y-89078403D01*
X98497181Y-89078406D01*
X98460000Y-89313154D01*
X86555500Y-89313154D01*
X86555500Y-86629635D01*
X136929500Y-86629635D01*
X136929500Y-88630370D01*
X136929501Y-88630376D01*
X136935908Y-88689983D01*
X136986202Y-88824828D01*
X136986206Y-88824835D01*
X137072452Y-88940044D01*
X137072455Y-88940047D01*
X137187664Y-89026293D01*
X137187669Y-89026296D01*
X137215539Y-89036690D01*
X137271473Y-89078561D01*
X137295891Y-89144024D01*
X137281040Y-89212298D01*
X137272525Y-89225759D01*
X137139783Y-89408461D01*
X137035950Y-89612244D01*
X136965278Y-89829750D01*
X136965278Y-89829753D01*
X136929500Y-90055646D01*
X136929500Y-90284353D01*
X136965278Y-90510246D01*
X136965278Y-90510249D01*
X137035950Y-90727755D01*
X137035952Y-90727758D01*
X137139783Y-90931538D01*
X137274214Y-91116566D01*
X137435934Y-91278286D01*
X137443357Y-91283679D01*
X137520438Y-91339682D01*
X137563103Y-91395013D01*
X137569082Y-91464626D01*
X137536476Y-91526421D01*
X137520438Y-91540318D01*
X137435932Y-91601715D01*
X137274216Y-91763431D01*
X137274216Y-91763432D01*
X137274214Y-91763434D01*
X137216480Y-91842896D01*
X137139783Y-91948461D01*
X137035950Y-92152244D01*
X136965278Y-92369750D01*
X136965278Y-92369753D01*
X136929500Y-92595646D01*
X136929500Y-92824353D01*
X136965278Y-93050246D01*
X136965278Y-93050249D01*
X137035950Y-93267755D01*
X137111332Y-93415700D01*
X137139783Y-93471538D01*
X137274214Y-93656566D01*
X137435934Y-93818286D01*
X137620962Y-93952717D01*
X137824742Y-94056548D01*
X137824744Y-94056549D01*
X138042251Y-94127221D01*
X138042252Y-94127221D01*
X138042255Y-94127222D01*
X138268146Y-94163000D01*
X138268147Y-94163000D01*
X138591853Y-94163000D01*
X138591854Y-94163000D01*
X138817745Y-94127222D01*
X138817748Y-94127221D01*
X138817749Y-94127221D01*
X139035255Y-94056549D01*
X139035255Y-94056548D01*
X139035258Y-94056548D01*
X139239038Y-93952717D01*
X139424066Y-93818286D01*
X139585786Y-93656566D01*
X139720217Y-93471538D01*
X139824048Y-93267758D01*
X139894722Y-93050245D01*
X139930500Y-92824354D01*
X139930500Y-92595646D01*
X139894722Y-92369755D01*
X139885814Y-92342339D01*
X139824049Y-92152244D01*
X139770882Y-92047898D01*
X139720217Y-91948462D01*
X139585786Y-91763434D01*
X139424066Y-91601714D01*
X139339562Y-91540318D01*
X139339561Y-91540317D01*
X139296895Y-91484987D01*
X139290917Y-91415374D01*
X139323523Y-91353579D01*
X139339556Y-91339685D01*
X139424066Y-91278286D01*
X139585786Y-91116566D01*
X139720217Y-90931538D01*
X139824048Y-90727758D01*
X139894722Y-90510245D01*
X139930500Y-90284354D01*
X139930500Y-90055646D01*
X139894722Y-89829755D01*
X139894721Y-89829751D01*
X139894721Y-89829750D01*
X139824049Y-89612244D01*
X139720216Y-89408461D01*
X139688536Y-89364857D01*
X139587472Y-89225755D01*
X139563994Y-89159953D01*
X139579819Y-89091899D01*
X139629925Y-89043204D01*
X139644455Y-89036692D01*
X139672331Y-89026296D01*
X139787546Y-88940046D01*
X139873796Y-88824831D01*
X139924091Y-88689983D01*
X139930500Y-88630373D01*
X139930499Y-86629628D01*
X139924091Y-86570017D01*
X139873796Y-86435169D01*
X139873795Y-86435168D01*
X139873793Y-86435164D01*
X139787547Y-86319955D01*
X139787544Y-86319952D01*
X139672335Y-86233706D01*
X139672328Y-86233702D01*
X139537482Y-86183408D01*
X139537483Y-86183408D01*
X139477883Y-86177001D01*
X139477881Y-86177000D01*
X139477873Y-86177000D01*
X139477864Y-86177000D01*
X137382129Y-86177000D01*
X137382123Y-86177001D01*
X137322516Y-86183408D01*
X137187671Y-86233702D01*
X137187664Y-86233706D01*
X137072455Y-86319952D01*
X137072452Y-86319955D01*
X136986206Y-86435164D01*
X136986202Y-86435171D01*
X136935908Y-86570017D01*
X136929501Y-86629616D01*
X136929501Y-86629623D01*
X136929500Y-86629635D01*
X86555500Y-86629635D01*
X86555500Y-81933815D01*
X86556856Y-72974548D01*
X86557980Y-65547635D01*
X137249500Y-65547635D01*
X137249500Y-67548370D01*
X137249501Y-67548376D01*
X137255908Y-67607983D01*
X137306202Y-67742828D01*
X137306206Y-67742835D01*
X137392452Y-67858044D01*
X137392455Y-67858047D01*
X137507664Y-67944293D01*
X137507669Y-67944296D01*
X137535539Y-67954690D01*
X137591473Y-67996561D01*
X137615891Y-68062024D01*
X137601040Y-68130298D01*
X137592526Y-68143756D01*
X137567250Y-68178547D01*
X137459783Y-68326461D01*
X137355950Y-68530244D01*
X137285278Y-68747750D01*
X137285278Y-68747753D01*
X137249500Y-68973646D01*
X137249500Y-69202353D01*
X137285278Y-69428246D01*
X137285278Y-69428249D01*
X137355950Y-69645755D01*
X137355952Y-69645758D01*
X137459783Y-69849538D01*
X137594214Y-70034566D01*
X137755934Y-70196286D01*
X137825423Y-70246773D01*
X137840438Y-70257682D01*
X137883103Y-70313013D01*
X137889082Y-70382626D01*
X137856476Y-70444421D01*
X137840438Y-70458318D01*
X137755932Y-70519715D01*
X137594216Y-70681431D01*
X137594216Y-70681432D01*
X137594214Y-70681434D01*
X137536480Y-70760896D01*
X137459783Y-70866461D01*
X137355950Y-71070244D01*
X137285278Y-71287750D01*
X137285278Y-71287753D01*
X137249500Y-71513646D01*
X137249500Y-71742353D01*
X137285278Y-71968246D01*
X137285278Y-71968249D01*
X137355950Y-72185755D01*
X137355952Y-72185758D01*
X137459783Y-72389538D01*
X137594214Y-72574566D01*
X137755934Y-72736286D01*
X137940962Y-72870717D01*
X138144742Y-72974548D01*
X138144744Y-72974549D01*
X138362251Y-73045221D01*
X138362252Y-73045221D01*
X138362255Y-73045222D01*
X138588146Y-73081000D01*
X138588147Y-73081000D01*
X138911853Y-73081000D01*
X138911854Y-73081000D01*
X139137745Y-73045222D01*
X139137748Y-73045221D01*
X139137749Y-73045221D01*
X139355255Y-72974549D01*
X139355255Y-72974548D01*
X139355258Y-72974548D01*
X139559038Y-72870717D01*
X139744066Y-72736286D01*
X139905786Y-72574566D01*
X140040217Y-72389538D01*
X140144048Y-72185758D01*
X140214722Y-71968245D01*
X140250500Y-71742354D01*
X140250500Y-71513646D01*
X140214722Y-71287755D01*
X140214721Y-71287751D01*
X140214721Y-71287750D01*
X140144049Y-71070244D01*
X140040216Y-70866461D01*
X139905786Y-70681434D01*
X139744066Y-70519714D01*
X139659559Y-70458316D01*
X139616896Y-70402988D01*
X139610917Y-70333375D01*
X139643523Y-70271580D01*
X139659556Y-70257685D01*
X139744066Y-70196286D01*
X139905786Y-70034566D01*
X140040217Y-69849538D01*
X140144048Y-69645758D01*
X140214722Y-69428245D01*
X140250500Y-69202354D01*
X140250500Y-68973646D01*
X140214722Y-68747755D01*
X140214721Y-68747751D01*
X140214721Y-68747750D01*
X140144049Y-68530244D01*
X140040216Y-68326461D01*
X140036610Y-68321498D01*
X139907472Y-68143755D01*
X139883994Y-68077953D01*
X139899819Y-68009899D01*
X139949925Y-67961204D01*
X139964455Y-67954692D01*
X139992331Y-67944296D01*
X140107546Y-67858046D01*
X140193796Y-67742831D01*
X140244091Y-67607983D01*
X140250500Y-67548373D01*
X140250499Y-66956403D01*
X192536500Y-66956403D01*
X192536500Y-67155596D01*
X192567661Y-67352340D01*
X192567661Y-67352343D01*
X192629213Y-67541780D01*
X192717422Y-67714899D01*
X192719647Y-67719266D01*
X192836731Y-67880418D01*
X192977582Y-68021269D01*
X193138734Y-68138353D01*
X193315304Y-68228320D01*
X193316219Y-68228786D01*
X193505657Y-68290338D01*
X193505658Y-68290338D01*
X193505661Y-68290339D01*
X193702403Y-68321500D01*
X193702404Y-68321500D01*
X193901596Y-68321500D01*
X193901597Y-68321500D01*
X194098339Y-68290339D01*
X194098342Y-68290338D01*
X194098343Y-68290338D01*
X194287780Y-68228786D01*
X194287780Y-68228785D01*
X194287783Y-68228785D01*
X194465266Y-68138353D01*
X194626418Y-68021269D01*
X194767269Y-67880418D01*
X194884353Y-67719266D01*
X194961515Y-67567827D01*
X195009490Y-67517031D01*
X195077311Y-67500236D01*
X195143446Y-67522773D01*
X195182485Y-67567827D01*
X195257422Y-67714899D01*
X195259647Y-67719266D01*
X195376731Y-67880418D01*
X195517582Y-68021269D01*
X195678734Y-68138353D01*
X195855304Y-68228320D01*
X195856219Y-68228786D01*
X196045657Y-68290338D01*
X196045658Y-68290338D01*
X196045661Y-68290339D01*
X196242403Y-68321500D01*
X196242404Y-68321500D01*
X196441596Y-68321500D01*
X196441597Y-68321500D01*
X196638339Y-68290339D01*
X196638342Y-68290338D01*
X196638343Y-68290338D01*
X196827780Y-68228786D01*
X196827780Y-68228785D01*
X196827783Y-68228785D01*
X197005266Y-68138353D01*
X197166418Y-68021269D01*
X197307269Y-67880418D01*
X197424353Y-67719266D01*
X197501515Y-67567827D01*
X197549490Y-67517031D01*
X197617311Y-67500236D01*
X197683446Y-67522773D01*
X197722485Y-67567827D01*
X197797422Y-67714899D01*
X197799647Y-67719266D01*
X197916731Y-67880418D01*
X198057582Y-68021269D01*
X198218734Y-68138353D01*
X198395304Y-68228320D01*
X198396219Y-68228786D01*
X198585657Y-68290338D01*
X198585658Y-68290338D01*
X198585661Y-68290339D01*
X198782403Y-68321500D01*
X198782404Y-68321500D01*
X198981596Y-68321500D01*
X198981597Y-68321500D01*
X199178339Y-68290339D01*
X199178342Y-68290338D01*
X199178343Y-68290338D01*
X199367780Y-68228786D01*
X199367780Y-68228785D01*
X199367783Y-68228785D01*
X199545266Y-68138353D01*
X199706418Y-68021269D01*
X199847269Y-67880418D01*
X199964353Y-67719266D01*
X200041515Y-67567827D01*
X200089490Y-67517031D01*
X200157311Y-67500236D01*
X200223446Y-67522773D01*
X200262485Y-67567827D01*
X200337422Y-67714899D01*
X200339647Y-67719266D01*
X200456731Y-67880418D01*
X200597582Y-68021269D01*
X200758734Y-68138353D01*
X200935304Y-68228320D01*
X200936219Y-68228786D01*
X201125657Y-68290338D01*
X201125658Y-68290338D01*
X201125661Y-68290339D01*
X201322403Y-68321500D01*
X201322404Y-68321500D01*
X201521596Y-68321500D01*
X201521597Y-68321500D01*
X201718339Y-68290339D01*
X201718342Y-68290338D01*
X201718343Y-68290338D01*
X201907780Y-68228786D01*
X201907780Y-68228785D01*
X201907783Y-68228785D01*
X202085266Y-68138353D01*
X202246418Y-68021269D01*
X202387269Y-67880418D01*
X202504353Y-67719266D01*
X202581515Y-67567827D01*
X202629490Y-67517031D01*
X202697311Y-67500236D01*
X202763446Y-67522773D01*
X202802485Y-67567827D01*
X202877422Y-67714899D01*
X202879647Y-67719266D01*
X202996731Y-67880418D01*
X203137582Y-68021269D01*
X203298734Y-68138353D01*
X203475304Y-68228320D01*
X203476219Y-68228786D01*
X203665657Y-68290338D01*
X203665658Y-68290338D01*
X203665661Y-68290339D01*
X203862403Y-68321500D01*
X203862404Y-68321500D01*
X204061596Y-68321500D01*
X204061597Y-68321500D01*
X204258339Y-68290339D01*
X204258342Y-68290338D01*
X204258343Y-68290338D01*
X204447780Y-68228786D01*
X204447780Y-68228785D01*
X204447783Y-68228785D01*
X204625266Y-68138353D01*
X204786418Y-68021269D01*
X204927269Y-67880418D01*
X205044353Y-67719266D01*
X205121795Y-67567276D01*
X205169769Y-67516481D01*
X205237590Y-67499686D01*
X205303725Y-67522223D01*
X205342765Y-67567277D01*
X205420077Y-67719008D01*
X205447580Y-67756863D01*
X205447581Y-67756864D01*
X206010871Y-67193574D01*
X206026755Y-67252853D01*
X206093898Y-67369147D01*
X206188853Y-67464102D01*
X206305147Y-67531245D01*
X206364425Y-67547128D01*
X205801134Y-68110417D01*
X205838994Y-68137924D01*
X206016405Y-68228320D01*
X206205777Y-68289852D01*
X206402437Y-68321000D01*
X206601563Y-68321000D01*
X206798222Y-68289852D01*
X206987594Y-68228320D01*
X207165005Y-68137924D01*
X207202863Y-68110418D01*
X207202863Y-68110417D01*
X206639574Y-67547128D01*
X206698853Y-67531245D01*
X206815147Y-67464102D01*
X206910102Y-67369147D01*
X206977245Y-67252853D01*
X206993128Y-67193574D01*
X207556417Y-67756863D01*
X207556418Y-67756863D01*
X207583924Y-67719005D01*
X207661234Y-67567277D01*
X207709208Y-67516481D01*
X207777029Y-67499686D01*
X207843164Y-67522223D01*
X207882204Y-67567277D01*
X207957422Y-67714899D01*
X207959647Y-67719266D01*
X208076731Y-67880418D01*
X208217582Y-68021269D01*
X208378734Y-68138353D01*
X208555304Y-68228320D01*
X208556219Y-68228786D01*
X208745657Y-68290338D01*
X208745658Y-68290338D01*
X208745661Y-68290339D01*
X208942403Y-68321500D01*
X208942404Y-68321500D01*
X209141596Y-68321500D01*
X209141597Y-68321500D01*
X209338339Y-68290339D01*
X209338342Y-68290338D01*
X209338343Y-68290338D01*
X209527780Y-68228786D01*
X209527780Y-68228785D01*
X209527783Y-68228785D01*
X209705266Y-68138353D01*
X209866418Y-68021269D01*
X210007269Y-67880418D01*
X210124353Y-67719266D01*
X210201515Y-67567827D01*
X210249490Y-67517031D01*
X210317311Y-67500236D01*
X210383446Y-67522773D01*
X210422485Y-67567827D01*
X210497422Y-67714899D01*
X210499647Y-67719266D01*
X210616731Y-67880418D01*
X210757582Y-68021269D01*
X210918734Y-68138353D01*
X211095304Y-68228320D01*
X211096219Y-68228786D01*
X211285657Y-68290338D01*
X211285658Y-68290338D01*
X211285661Y-68290339D01*
X211482403Y-68321500D01*
X211482404Y-68321500D01*
X211681596Y-68321500D01*
X211681597Y-68321500D01*
X211878339Y-68290339D01*
X211878342Y-68290338D01*
X211878343Y-68290338D01*
X212067780Y-68228786D01*
X212067780Y-68228785D01*
X212067783Y-68228785D01*
X212245266Y-68138353D01*
X212406418Y-68021269D01*
X212547269Y-67880418D01*
X212664353Y-67719266D01*
X212741515Y-67567827D01*
X212789490Y-67517031D01*
X212857311Y-67500236D01*
X212923446Y-67522773D01*
X212962485Y-67567827D01*
X213037422Y-67714899D01*
X213039647Y-67719266D01*
X213156731Y-67880418D01*
X213297582Y-68021269D01*
X213458734Y-68138353D01*
X213635304Y-68228320D01*
X213636219Y-68228786D01*
X213825657Y-68290338D01*
X213825658Y-68290338D01*
X213825661Y-68290339D01*
X214022403Y-68321500D01*
X214022404Y-68321500D01*
X214221596Y-68321500D01*
X214221597Y-68321500D01*
X214418339Y-68290339D01*
X214418342Y-68290338D01*
X214418343Y-68290338D01*
X214607780Y-68228786D01*
X214607780Y-68228785D01*
X214607783Y-68228785D01*
X214785266Y-68138353D01*
X214946418Y-68021269D01*
X215087269Y-67880418D01*
X215204353Y-67719266D01*
X215281515Y-67567827D01*
X215329490Y-67517031D01*
X215397311Y-67500236D01*
X215463446Y-67522773D01*
X215502485Y-67567827D01*
X215577422Y-67714899D01*
X215579647Y-67719266D01*
X215696731Y-67880418D01*
X215837582Y-68021269D01*
X215998734Y-68138353D01*
X216175304Y-68228320D01*
X216176219Y-68228786D01*
X216365657Y-68290338D01*
X216365658Y-68290338D01*
X216365661Y-68290339D01*
X216562403Y-68321500D01*
X216562404Y-68321500D01*
X216761596Y-68321500D01*
X216761597Y-68321500D01*
X216958339Y-68290339D01*
X216958342Y-68290338D01*
X216958343Y-68290338D01*
X217147780Y-68228786D01*
X217147780Y-68228785D01*
X217147783Y-68228785D01*
X217325266Y-68138353D01*
X217486418Y-68021269D01*
X217627269Y-67880418D01*
X217744353Y-67719266D01*
X217821515Y-67567827D01*
X217869490Y-67517031D01*
X217937311Y-67500236D01*
X218003446Y-67522773D01*
X218042485Y-67567827D01*
X218117422Y-67714899D01*
X218119647Y-67719266D01*
X218236731Y-67880418D01*
X218377582Y-68021269D01*
X218538734Y-68138353D01*
X218715304Y-68228320D01*
X218716219Y-68228786D01*
X218905657Y-68290338D01*
X218905658Y-68290338D01*
X218905661Y-68290339D01*
X219102403Y-68321500D01*
X219102404Y-68321500D01*
X219301596Y-68321500D01*
X219301597Y-68321500D01*
X219498339Y-68290339D01*
X219498342Y-68290338D01*
X219498343Y-68290338D01*
X219687780Y-68228786D01*
X219687780Y-68228785D01*
X219687783Y-68228785D01*
X219865266Y-68138353D01*
X220026418Y-68021269D01*
X220167269Y-67880418D01*
X220284353Y-67719266D01*
X220361515Y-67567827D01*
X220409490Y-67517031D01*
X220477311Y-67500236D01*
X220543446Y-67522773D01*
X220582485Y-67567827D01*
X220657422Y-67714899D01*
X220659647Y-67719266D01*
X220776731Y-67880418D01*
X220917582Y-68021269D01*
X221078734Y-68138353D01*
X221255304Y-68228320D01*
X221256219Y-68228786D01*
X221445657Y-68290338D01*
X221445658Y-68290338D01*
X221445661Y-68290339D01*
X221642403Y-68321500D01*
X221642404Y-68321500D01*
X221841596Y-68321500D01*
X221841597Y-68321500D01*
X222038339Y-68290339D01*
X222038342Y-68290338D01*
X222038343Y-68290338D01*
X222227780Y-68228786D01*
X222227780Y-68228785D01*
X222227783Y-68228785D01*
X222405266Y-68138353D01*
X222566418Y-68021269D01*
X222707269Y-67880418D01*
X222824353Y-67719266D01*
X222901515Y-67567827D01*
X222949490Y-67517031D01*
X223017311Y-67500236D01*
X223083446Y-67522773D01*
X223122485Y-67567827D01*
X223197422Y-67714899D01*
X223199647Y-67719266D01*
X223316731Y-67880418D01*
X223457582Y-68021269D01*
X223618734Y-68138353D01*
X223795304Y-68228320D01*
X223796219Y-68228786D01*
X223985657Y-68290338D01*
X223985658Y-68290338D01*
X223985661Y-68290339D01*
X224182403Y-68321500D01*
X224182404Y-68321500D01*
X224381596Y-68321500D01*
X224381597Y-68321500D01*
X224578339Y-68290339D01*
X224578342Y-68290338D01*
X224578343Y-68290338D01*
X224767780Y-68228786D01*
X224767780Y-68228785D01*
X224767783Y-68228785D01*
X224945266Y-68138353D01*
X225106418Y-68021269D01*
X225247269Y-67880418D01*
X225364353Y-67719266D01*
X225441515Y-67567827D01*
X225489490Y-67517031D01*
X225557311Y-67500236D01*
X225623446Y-67522773D01*
X225662485Y-67567827D01*
X225737422Y-67714899D01*
X225739647Y-67719266D01*
X225856731Y-67880418D01*
X225997582Y-68021269D01*
X226158734Y-68138353D01*
X226335304Y-68228320D01*
X226336219Y-68228786D01*
X226525657Y-68290338D01*
X226525658Y-68290338D01*
X226525661Y-68290339D01*
X226722403Y-68321500D01*
X226722404Y-68321500D01*
X226921596Y-68321500D01*
X226921597Y-68321500D01*
X227118339Y-68290339D01*
X227118342Y-68290338D01*
X227118343Y-68290338D01*
X227307780Y-68228786D01*
X227307780Y-68228785D01*
X227307783Y-68228785D01*
X227485266Y-68138353D01*
X227646418Y-68021269D01*
X227787269Y-67880418D01*
X227904353Y-67719266D01*
X227981515Y-67567827D01*
X228029490Y-67517031D01*
X228097311Y-67500236D01*
X228163446Y-67522773D01*
X228202485Y-67567827D01*
X228277422Y-67714899D01*
X228279647Y-67719266D01*
X228396731Y-67880418D01*
X228537582Y-68021269D01*
X228698734Y-68138353D01*
X228875304Y-68228320D01*
X228876219Y-68228786D01*
X229065657Y-68290338D01*
X229065658Y-68290338D01*
X229065661Y-68290339D01*
X229262403Y-68321500D01*
X229262404Y-68321500D01*
X229461596Y-68321500D01*
X229461597Y-68321500D01*
X229658339Y-68290339D01*
X229658342Y-68290338D01*
X229658343Y-68290338D01*
X229847780Y-68228786D01*
X229847780Y-68228785D01*
X229847783Y-68228785D01*
X230025266Y-68138353D01*
X230186418Y-68021269D01*
X230327269Y-67880418D01*
X230444353Y-67719266D01*
X230521515Y-67567827D01*
X230569490Y-67517031D01*
X230637311Y-67500236D01*
X230703446Y-67522773D01*
X230742485Y-67567827D01*
X230817422Y-67714899D01*
X230819647Y-67719266D01*
X230936731Y-67880418D01*
X231077582Y-68021269D01*
X231238734Y-68138353D01*
X231415304Y-68228320D01*
X231416219Y-68228786D01*
X231605657Y-68290338D01*
X231605658Y-68290338D01*
X231605661Y-68290339D01*
X231802403Y-68321500D01*
X231802404Y-68321500D01*
X232001596Y-68321500D01*
X232001597Y-68321500D01*
X232198339Y-68290339D01*
X232198342Y-68290338D01*
X232198343Y-68290338D01*
X232387780Y-68228786D01*
X232387780Y-68228785D01*
X232387783Y-68228785D01*
X232565266Y-68138353D01*
X232726418Y-68021269D01*
X232867269Y-67880418D01*
X232984353Y-67719266D01*
X233061515Y-67567827D01*
X233109490Y-67517031D01*
X233177311Y-67500236D01*
X233243446Y-67522773D01*
X233282485Y-67567827D01*
X233357422Y-67714899D01*
X233359647Y-67719266D01*
X233476731Y-67880418D01*
X233617582Y-68021269D01*
X233778734Y-68138353D01*
X233955304Y-68228320D01*
X233956219Y-68228786D01*
X234145657Y-68290338D01*
X234145658Y-68290338D01*
X234145661Y-68290339D01*
X234342403Y-68321500D01*
X234342404Y-68321500D01*
X234541596Y-68321500D01*
X234541597Y-68321500D01*
X234738339Y-68290339D01*
X234738342Y-68290338D01*
X234738343Y-68290338D01*
X234927780Y-68228786D01*
X234927780Y-68228785D01*
X234927783Y-68228785D01*
X235105266Y-68138353D01*
X235266418Y-68021269D01*
X235407269Y-67880418D01*
X235524353Y-67719266D01*
X235601515Y-67567827D01*
X235649490Y-67517031D01*
X235717311Y-67500236D01*
X235783446Y-67522773D01*
X235822485Y-67567827D01*
X235897422Y-67714899D01*
X235899647Y-67719266D01*
X236016731Y-67880418D01*
X236157582Y-68021269D01*
X236318734Y-68138353D01*
X236495304Y-68228320D01*
X236496219Y-68228786D01*
X236685657Y-68290338D01*
X236685658Y-68290338D01*
X236685661Y-68290339D01*
X236882403Y-68321500D01*
X236882404Y-68321500D01*
X237081596Y-68321500D01*
X237081597Y-68321500D01*
X237278339Y-68290339D01*
X237278342Y-68290338D01*
X237278343Y-68290338D01*
X237467780Y-68228786D01*
X237467780Y-68228785D01*
X237467783Y-68228785D01*
X237645266Y-68138353D01*
X237806418Y-68021269D01*
X237947269Y-67880418D01*
X238032184Y-67763542D01*
X238087511Y-67720878D01*
X238157125Y-67714899D01*
X238218920Y-67747504D01*
X238253277Y-67808343D01*
X238256500Y-67836426D01*
X238256500Y-67868868D01*
X238256501Y-67868876D01*
X238262908Y-67928483D01*
X238313202Y-68063328D01*
X238313206Y-68063335D01*
X238399452Y-68178544D01*
X238399455Y-68178547D01*
X238514664Y-68264793D01*
X238514671Y-68264797D01*
X238649517Y-68315091D01*
X238649516Y-68315091D01*
X238656444Y-68315835D01*
X238709127Y-68321500D01*
X240334872Y-68321499D01*
X240394483Y-68315091D01*
X240529331Y-68264796D01*
X240644546Y-68178546D01*
X240730796Y-68063331D01*
X240781091Y-67928483D01*
X240787500Y-67868873D01*
X240787499Y-66243128D01*
X240781091Y-66183517D01*
X240730796Y-66048669D01*
X240730795Y-66048668D01*
X240730793Y-66048664D01*
X240644547Y-65933455D01*
X240644544Y-65933452D01*
X240529335Y-65847206D01*
X240529328Y-65847202D01*
X240394482Y-65796908D01*
X240394483Y-65796908D01*
X240334883Y-65790501D01*
X240334881Y-65790500D01*
X240334873Y-65790500D01*
X240334864Y-65790500D01*
X238709129Y-65790500D01*
X238709123Y-65790501D01*
X238649516Y-65796908D01*
X238514671Y-65847202D01*
X238514664Y-65847206D01*
X238399455Y-65933452D01*
X238399452Y-65933455D01*
X238313206Y-66048664D01*
X238313202Y-66048671D01*
X238262908Y-66183517D01*
X238257741Y-66231580D01*
X238256501Y-66243123D01*
X238256500Y-66243135D01*
X238256500Y-66275568D01*
X238236815Y-66342607D01*
X238184011Y-66388362D01*
X238114853Y-66398306D01*
X238051297Y-66369281D01*
X238032182Y-66348454D01*
X237979227Y-66275568D01*
X237947269Y-66231582D01*
X237806418Y-66090731D01*
X237645266Y-65973647D01*
X237566379Y-65933452D01*
X237467780Y-65883213D01*
X237278342Y-65821661D01*
X237130782Y-65798290D01*
X237081597Y-65790500D01*
X236882403Y-65790500D01*
X236816822Y-65800887D01*
X236685659Y-65821661D01*
X236685656Y-65821661D01*
X236496219Y-65883213D01*
X236318733Y-65973647D01*
X236280286Y-66001581D01*
X236157582Y-66090731D01*
X236157580Y-66090733D01*
X236157579Y-66090733D01*
X236016733Y-66231579D01*
X236016733Y-66231580D01*
X236016731Y-66231582D01*
X235984773Y-66275568D01*
X235899647Y-66392733D01*
X235822485Y-66544172D01*
X235774510Y-66594968D01*
X235706689Y-66611763D01*
X235640554Y-66589225D01*
X235601515Y-66544172D01*
X235524485Y-66392994D01*
X235524353Y-66392734D01*
X235407269Y-66231582D01*
X235266418Y-66090731D01*
X235105266Y-65973647D01*
X235026379Y-65933452D01*
X234927780Y-65883213D01*
X234738342Y-65821661D01*
X234590782Y-65798290D01*
X234541597Y-65790500D01*
X234342403Y-65790500D01*
X234276822Y-65800887D01*
X234145659Y-65821661D01*
X234145656Y-65821661D01*
X233956219Y-65883213D01*
X233778733Y-65973647D01*
X233740286Y-66001581D01*
X233617582Y-66090731D01*
X233617580Y-66090733D01*
X233617579Y-66090733D01*
X233476733Y-66231579D01*
X233476733Y-66231580D01*
X233476731Y-66231582D01*
X233444773Y-66275568D01*
X233359647Y-66392733D01*
X233282485Y-66544172D01*
X233234510Y-66594968D01*
X233166689Y-66611763D01*
X233100554Y-66589225D01*
X233061515Y-66544172D01*
X232984485Y-66392994D01*
X232984353Y-66392734D01*
X232867269Y-66231582D01*
X232726418Y-66090731D01*
X232565266Y-65973647D01*
X232486379Y-65933452D01*
X232387780Y-65883213D01*
X232198342Y-65821661D01*
X232050782Y-65798290D01*
X232001597Y-65790500D01*
X231802403Y-65790500D01*
X231736822Y-65800887D01*
X231605659Y-65821661D01*
X231605656Y-65821661D01*
X231416219Y-65883213D01*
X231238733Y-65973647D01*
X231200286Y-66001581D01*
X231077582Y-66090731D01*
X231077580Y-66090733D01*
X231077579Y-66090733D01*
X230936733Y-66231579D01*
X230936733Y-66231580D01*
X230936731Y-66231582D01*
X230904773Y-66275568D01*
X230819647Y-66392733D01*
X230742485Y-66544172D01*
X230694510Y-66594968D01*
X230626689Y-66611763D01*
X230560554Y-66589225D01*
X230521515Y-66544172D01*
X230444485Y-66392994D01*
X230444353Y-66392734D01*
X230327269Y-66231582D01*
X230186418Y-66090731D01*
X230025266Y-65973647D01*
X229946379Y-65933452D01*
X229847780Y-65883213D01*
X229658342Y-65821661D01*
X229510782Y-65798290D01*
X229461597Y-65790500D01*
X229262403Y-65790500D01*
X229196822Y-65800887D01*
X229065659Y-65821661D01*
X229065656Y-65821661D01*
X228876219Y-65883213D01*
X228698733Y-65973647D01*
X228660286Y-66001581D01*
X228537582Y-66090731D01*
X228537580Y-66090733D01*
X228537579Y-66090733D01*
X228396733Y-66231579D01*
X228396733Y-66231580D01*
X228396731Y-66231582D01*
X228364773Y-66275568D01*
X228279647Y-66392733D01*
X228202485Y-66544172D01*
X228154510Y-66594968D01*
X228086689Y-66611763D01*
X228020554Y-66589225D01*
X227981515Y-66544172D01*
X227904485Y-66392994D01*
X227904353Y-66392734D01*
X227787269Y-66231582D01*
X227646418Y-66090731D01*
X227485266Y-65973647D01*
X227406379Y-65933452D01*
X227307780Y-65883213D01*
X227118342Y-65821661D01*
X226970782Y-65798290D01*
X226921597Y-65790500D01*
X226722403Y-65790500D01*
X226656822Y-65800887D01*
X226525659Y-65821661D01*
X226525656Y-65821661D01*
X226336219Y-65883213D01*
X226158733Y-65973647D01*
X226120286Y-66001581D01*
X225997582Y-66090731D01*
X225997580Y-66090733D01*
X225997579Y-66090733D01*
X225856733Y-66231579D01*
X225856733Y-66231580D01*
X225856731Y-66231582D01*
X225824773Y-66275568D01*
X225739647Y-66392733D01*
X225662485Y-66544172D01*
X225614510Y-66594968D01*
X225546689Y-66611763D01*
X225480554Y-66589225D01*
X225441515Y-66544172D01*
X225364485Y-66392994D01*
X225364353Y-66392734D01*
X225247269Y-66231582D01*
X225106418Y-66090731D01*
X224945266Y-65973647D01*
X224866379Y-65933452D01*
X224767780Y-65883213D01*
X224578342Y-65821661D01*
X224430782Y-65798290D01*
X224381597Y-65790500D01*
X224182403Y-65790500D01*
X224116822Y-65800887D01*
X223985659Y-65821661D01*
X223985656Y-65821661D01*
X223796219Y-65883213D01*
X223618733Y-65973647D01*
X223580286Y-66001581D01*
X223457582Y-66090731D01*
X223457580Y-66090733D01*
X223457579Y-66090733D01*
X223316733Y-66231579D01*
X223316733Y-66231580D01*
X223316731Y-66231582D01*
X223284773Y-66275568D01*
X223199647Y-66392733D01*
X223122485Y-66544172D01*
X223074510Y-66594968D01*
X223006689Y-66611763D01*
X222940554Y-66589225D01*
X222901515Y-66544172D01*
X222824485Y-66392994D01*
X222824353Y-66392734D01*
X222707269Y-66231582D01*
X222566418Y-66090731D01*
X222405266Y-65973647D01*
X222326379Y-65933452D01*
X222227780Y-65883213D01*
X222038342Y-65821661D01*
X221890782Y-65798290D01*
X221841597Y-65790500D01*
X221642403Y-65790500D01*
X221576822Y-65800887D01*
X221445659Y-65821661D01*
X221445656Y-65821661D01*
X221256219Y-65883213D01*
X221078733Y-65973647D01*
X221040286Y-66001581D01*
X220917582Y-66090731D01*
X220917580Y-66090733D01*
X220917579Y-66090733D01*
X220776733Y-66231579D01*
X220776733Y-66231580D01*
X220776731Y-66231582D01*
X220744773Y-66275568D01*
X220659647Y-66392733D01*
X220582485Y-66544172D01*
X220534510Y-66594968D01*
X220466689Y-66611763D01*
X220400554Y-66589225D01*
X220361515Y-66544172D01*
X220284485Y-66392994D01*
X220284353Y-66392734D01*
X220167269Y-66231582D01*
X220026418Y-66090731D01*
X219865266Y-65973647D01*
X219786379Y-65933452D01*
X219687780Y-65883213D01*
X219498342Y-65821661D01*
X219350782Y-65798290D01*
X219301597Y-65790500D01*
X219102403Y-65790500D01*
X219036822Y-65800887D01*
X218905659Y-65821661D01*
X218905656Y-65821661D01*
X218716219Y-65883213D01*
X218538733Y-65973647D01*
X218500286Y-66001581D01*
X218377582Y-66090731D01*
X218377580Y-66090733D01*
X218377579Y-66090733D01*
X218236733Y-66231579D01*
X218236733Y-66231580D01*
X218236731Y-66231582D01*
X218204773Y-66275568D01*
X218119647Y-66392733D01*
X218042485Y-66544172D01*
X217994510Y-66594968D01*
X217926689Y-66611763D01*
X217860554Y-66589225D01*
X217821515Y-66544172D01*
X217744485Y-66392994D01*
X217744353Y-66392734D01*
X217627269Y-66231582D01*
X217486418Y-66090731D01*
X217325266Y-65973647D01*
X217246379Y-65933452D01*
X217147780Y-65883213D01*
X216958342Y-65821661D01*
X216810782Y-65798290D01*
X216761597Y-65790500D01*
X216562403Y-65790500D01*
X216496822Y-65800887D01*
X216365659Y-65821661D01*
X216365656Y-65821661D01*
X216176219Y-65883213D01*
X215998733Y-65973647D01*
X215960286Y-66001581D01*
X215837582Y-66090731D01*
X215837580Y-66090733D01*
X215837579Y-66090733D01*
X215696733Y-66231579D01*
X215696733Y-66231580D01*
X215696731Y-66231582D01*
X215664773Y-66275568D01*
X215579647Y-66392733D01*
X215502485Y-66544172D01*
X215454510Y-66594968D01*
X215386689Y-66611763D01*
X215320554Y-66589225D01*
X215281515Y-66544172D01*
X215204485Y-66392994D01*
X215204353Y-66392734D01*
X215087269Y-66231582D01*
X214946418Y-66090731D01*
X214785266Y-65973647D01*
X214706379Y-65933452D01*
X214607780Y-65883213D01*
X214418342Y-65821661D01*
X214270782Y-65798290D01*
X214221597Y-65790500D01*
X214022403Y-65790500D01*
X213956822Y-65800887D01*
X213825659Y-65821661D01*
X213825656Y-65821661D01*
X213636219Y-65883213D01*
X213458733Y-65973647D01*
X213420286Y-66001581D01*
X213297582Y-66090731D01*
X213297580Y-66090733D01*
X213297579Y-66090733D01*
X213156733Y-66231579D01*
X213156733Y-66231580D01*
X213156731Y-66231582D01*
X213124773Y-66275568D01*
X213039647Y-66392733D01*
X212962485Y-66544172D01*
X212914510Y-66594968D01*
X212846689Y-66611763D01*
X212780554Y-66589225D01*
X212741515Y-66544172D01*
X212664485Y-66392994D01*
X212664353Y-66392734D01*
X212547269Y-66231582D01*
X212406418Y-66090731D01*
X212245266Y-65973647D01*
X212166379Y-65933452D01*
X212067780Y-65883213D01*
X211878342Y-65821661D01*
X211730782Y-65798290D01*
X211681597Y-65790500D01*
X211482403Y-65790500D01*
X211416822Y-65800887D01*
X211285659Y-65821661D01*
X211285656Y-65821661D01*
X211096219Y-65883213D01*
X210918733Y-65973647D01*
X210880286Y-66001581D01*
X210757582Y-66090731D01*
X210757580Y-66090733D01*
X210757579Y-66090733D01*
X210616733Y-66231579D01*
X210616733Y-66231580D01*
X210616731Y-66231582D01*
X210584773Y-66275568D01*
X210499647Y-66392733D01*
X210422485Y-66544172D01*
X210374510Y-66594968D01*
X210306689Y-66611763D01*
X210240554Y-66589225D01*
X210201515Y-66544172D01*
X210124485Y-66392994D01*
X210124353Y-66392734D01*
X210007269Y-66231582D01*
X209866418Y-66090731D01*
X209705266Y-65973647D01*
X209626379Y-65933452D01*
X209527780Y-65883213D01*
X209338342Y-65821661D01*
X209190782Y-65798290D01*
X209141597Y-65790500D01*
X208942403Y-65790500D01*
X208876822Y-65800887D01*
X208745659Y-65821661D01*
X208745656Y-65821661D01*
X208556219Y-65883213D01*
X208378733Y-65973647D01*
X208340286Y-66001581D01*
X208217582Y-66090731D01*
X208217580Y-66090733D01*
X208217579Y-66090733D01*
X208076733Y-66231579D01*
X208076733Y-66231580D01*
X208076731Y-66231582D01*
X208044773Y-66275568D01*
X207959645Y-66392735D01*
X207882203Y-66544723D01*
X207834229Y-66595518D01*
X207766408Y-66612313D01*
X207700273Y-66589775D01*
X207661234Y-66544722D01*
X207583924Y-66392994D01*
X207556417Y-66355135D01*
X207556417Y-66355134D01*
X206993128Y-66918424D01*
X206977245Y-66859147D01*
X206910102Y-66742853D01*
X206815147Y-66647898D01*
X206698853Y-66580755D01*
X206639574Y-66564871D01*
X207202864Y-66001581D01*
X207202863Y-66001580D01*
X207165008Y-65974077D01*
X206987594Y-65883679D01*
X206798222Y-65822147D01*
X206601563Y-65791000D01*
X206402437Y-65791000D01*
X206205777Y-65822147D01*
X206016405Y-65883679D01*
X205838990Y-65974077D01*
X205801135Y-66001580D01*
X205801135Y-66001581D01*
X206364425Y-66564871D01*
X206305147Y-66580755D01*
X206188853Y-66647898D01*
X206093898Y-66742853D01*
X206026755Y-66859147D01*
X206010871Y-66918425D01*
X205447581Y-66355135D01*
X205447580Y-66355135D01*
X205420075Y-66392993D01*
X205342764Y-66544723D01*
X205294790Y-66595518D01*
X205226969Y-66612313D01*
X205160834Y-66589775D01*
X205121795Y-66544722D01*
X205044485Y-66392994D01*
X205044353Y-66392734D01*
X204927269Y-66231582D01*
X204786418Y-66090731D01*
X204625266Y-65973647D01*
X204546379Y-65933452D01*
X204447780Y-65883213D01*
X204258342Y-65821661D01*
X204110782Y-65798290D01*
X204061597Y-65790500D01*
X203862403Y-65790500D01*
X203796822Y-65800887D01*
X203665659Y-65821661D01*
X203665656Y-65821661D01*
X203476219Y-65883213D01*
X203298733Y-65973647D01*
X203260286Y-66001581D01*
X203137582Y-66090731D01*
X203137580Y-66090733D01*
X203137579Y-66090733D01*
X202996733Y-66231579D01*
X202996733Y-66231580D01*
X202996731Y-66231582D01*
X202964773Y-66275568D01*
X202879647Y-66392733D01*
X202802485Y-66544172D01*
X202754510Y-66594968D01*
X202686689Y-66611763D01*
X202620554Y-66589225D01*
X202581515Y-66544172D01*
X202504485Y-66392994D01*
X202504353Y-66392734D01*
X202387269Y-66231582D01*
X202246418Y-66090731D01*
X202085266Y-65973647D01*
X202006379Y-65933452D01*
X201907780Y-65883213D01*
X201718342Y-65821661D01*
X201570782Y-65798290D01*
X201521597Y-65790500D01*
X201322403Y-65790500D01*
X201256822Y-65800887D01*
X201125659Y-65821661D01*
X201125656Y-65821661D01*
X200936219Y-65883213D01*
X200758733Y-65973647D01*
X200720286Y-66001581D01*
X200597582Y-66090731D01*
X200597580Y-66090733D01*
X200597579Y-66090733D01*
X200456733Y-66231579D01*
X200456733Y-66231580D01*
X200456731Y-66231582D01*
X200424773Y-66275568D01*
X200339647Y-66392733D01*
X200262485Y-66544172D01*
X200214510Y-66594968D01*
X200146689Y-66611763D01*
X200080554Y-66589225D01*
X200041515Y-66544172D01*
X199964485Y-66392994D01*
X199964353Y-66392734D01*
X199847269Y-66231582D01*
X199706418Y-66090731D01*
X199545266Y-65973647D01*
X199466379Y-65933452D01*
X199367780Y-65883213D01*
X199178342Y-65821661D01*
X199030782Y-65798290D01*
X198981597Y-65790500D01*
X198782403Y-65790500D01*
X198716822Y-65800887D01*
X198585659Y-65821661D01*
X198585656Y-65821661D01*
X198396219Y-65883213D01*
X198218733Y-65973647D01*
X198180286Y-66001581D01*
X198057582Y-66090731D01*
X198057580Y-66090733D01*
X198057579Y-66090733D01*
X197916733Y-66231579D01*
X197916733Y-66231580D01*
X197916731Y-66231582D01*
X197884773Y-66275568D01*
X197799647Y-66392733D01*
X197722485Y-66544172D01*
X197674510Y-66594968D01*
X197606689Y-66611763D01*
X197540554Y-66589225D01*
X197501515Y-66544172D01*
X197424485Y-66392994D01*
X197424353Y-66392734D01*
X197307269Y-66231582D01*
X197166418Y-66090731D01*
X197005266Y-65973647D01*
X196926379Y-65933452D01*
X196827780Y-65883213D01*
X196638342Y-65821661D01*
X196490782Y-65798290D01*
X196441597Y-65790500D01*
X196242403Y-65790500D01*
X196176822Y-65800887D01*
X196045659Y-65821661D01*
X196045656Y-65821661D01*
X195856219Y-65883213D01*
X195678733Y-65973647D01*
X195640286Y-66001581D01*
X195517582Y-66090731D01*
X195517580Y-66090733D01*
X195517579Y-66090733D01*
X195376733Y-66231579D01*
X195376733Y-66231580D01*
X195376731Y-66231582D01*
X195344773Y-66275568D01*
X195259647Y-66392733D01*
X195182485Y-66544172D01*
X195134510Y-66594968D01*
X195066689Y-66611763D01*
X195000554Y-66589225D01*
X194961515Y-66544172D01*
X194884485Y-66392994D01*
X194884353Y-66392734D01*
X194767269Y-66231582D01*
X194626418Y-66090731D01*
X194465266Y-65973647D01*
X194386379Y-65933452D01*
X194287780Y-65883213D01*
X194098342Y-65821661D01*
X193950782Y-65798290D01*
X193901597Y-65790500D01*
X193702403Y-65790500D01*
X193636822Y-65800887D01*
X193505659Y-65821661D01*
X193505656Y-65821661D01*
X193316219Y-65883213D01*
X193138733Y-65973647D01*
X193100286Y-66001581D01*
X192977582Y-66090731D01*
X192977580Y-66090733D01*
X192977579Y-66090733D01*
X192836733Y-66231579D01*
X192836733Y-66231580D01*
X192836731Y-66231582D01*
X192804773Y-66275568D01*
X192719647Y-66392733D01*
X192629213Y-66570219D01*
X192567661Y-66759656D01*
X192567661Y-66759659D01*
X192536500Y-66956403D01*
X140250499Y-66956403D01*
X140250499Y-66546000D01*
X140250499Y-65547629D01*
X140250498Y-65547623D01*
X140250497Y-65547616D01*
X140244091Y-65488017D01*
X140193796Y-65353169D01*
X140193795Y-65353168D01*
X140193793Y-65353164D01*
X140107547Y-65237955D01*
X140107544Y-65237952D01*
X139992335Y-65151706D01*
X139992328Y-65151702D01*
X139857482Y-65101408D01*
X139857483Y-65101408D01*
X139797883Y-65095001D01*
X139797881Y-65095000D01*
X139797873Y-65095000D01*
X139797864Y-65095000D01*
X137702129Y-65095000D01*
X137702123Y-65095001D01*
X137642516Y-65101408D01*
X137507671Y-65151702D01*
X137507664Y-65151706D01*
X137392455Y-65237952D01*
X137392452Y-65237955D01*
X137306206Y-65353164D01*
X137306202Y-65353171D01*
X137255908Y-65488017D01*
X137249859Y-65544287D01*
X137249501Y-65547623D01*
X137249500Y-65547635D01*
X86557980Y-65547635D01*
X86558464Y-62348135D01*
X203119500Y-62348135D01*
X203119500Y-64143870D01*
X203119501Y-64143876D01*
X203125908Y-64203483D01*
X203176202Y-64338328D01*
X203176206Y-64338335D01*
X203262452Y-64453544D01*
X203262455Y-64453547D01*
X203377664Y-64539793D01*
X203377671Y-64539797D01*
X203512517Y-64590091D01*
X203512516Y-64590091D01*
X203519444Y-64590835D01*
X203572127Y-64596500D01*
X205367872Y-64596499D01*
X205427483Y-64590091D01*
X205562331Y-64539796D01*
X205677546Y-64453546D01*
X205763796Y-64338331D01*
X205814091Y-64203483D01*
X205820500Y-64143873D01*
X205820499Y-64119979D01*
X205823330Y-64106963D01*
X205833940Y-64087525D01*
X205840179Y-64066275D01*
X205856803Y-64045643D01*
X205856808Y-64045636D01*
X205856811Y-64045634D01*
X205856818Y-64045626D01*
X206527037Y-63375408D01*
X206544075Y-63438993D01*
X206609901Y-63553007D01*
X206702993Y-63646099D01*
X206817007Y-63711925D01*
X206880590Y-63728962D01*
X206248282Y-64361269D01*
X206248282Y-64361270D01*
X206302449Y-64400624D01*
X206491782Y-64497095D01*
X206693870Y-64562757D01*
X206903754Y-64596000D01*
X207116246Y-64596000D01*
X207326127Y-64562757D01*
X207326130Y-64562757D01*
X207528217Y-64497095D01*
X207717554Y-64400622D01*
X207771716Y-64361270D01*
X207771717Y-64361270D01*
X207139408Y-63728962D01*
X207202993Y-63711925D01*
X207317007Y-63646099D01*
X207410099Y-63553007D01*
X207475925Y-63438993D01*
X207492962Y-63375408D01*
X208125270Y-64007717D01*
X208125270Y-64007716D01*
X208164622Y-63953555D01*
X208169232Y-63944507D01*
X208217205Y-63893709D01*
X208285025Y-63876912D01*
X208351161Y-63899447D01*
X208390204Y-63944504D01*
X208394949Y-63953817D01*
X208519890Y-64125786D01*
X208670213Y-64276109D01*
X208842179Y-64401048D01*
X208842181Y-64401049D01*
X208842184Y-64401051D01*
X209031588Y-64497557D01*
X209233757Y-64563246D01*
X209443713Y-64596500D01*
X209443714Y-64596500D01*
X209656286Y-64596500D01*
X209656287Y-64596500D01*
X209866243Y-64563246D01*
X210068412Y-64497557D01*
X210257816Y-64401051D01*
X210344138Y-64338335D01*
X210429786Y-64276109D01*
X210429788Y-64276106D01*
X210429792Y-64276104D01*
X210580104Y-64125792D01*
X210580106Y-64125788D01*
X210580109Y-64125786D01*
X210705048Y-63953820D01*
X210705050Y-63953817D01*
X210705051Y-63953816D01*
X210709514Y-63945054D01*
X210757488Y-63894259D01*
X210825308Y-63877463D01*
X210891444Y-63899999D01*
X210930486Y-63945056D01*
X210934951Y-63953820D01*
X211059890Y-64125786D01*
X211210213Y-64276109D01*
X211382179Y-64401048D01*
X211382181Y-64401049D01*
X211382184Y-64401051D01*
X211571588Y-64497557D01*
X211773757Y-64563246D01*
X211983713Y-64596500D01*
X211983714Y-64596500D01*
X212196286Y-64596500D01*
X212196287Y-64596500D01*
X212406243Y-64563246D01*
X212608412Y-64497557D01*
X212797816Y-64401051D01*
X212884138Y-64338335D01*
X212969786Y-64276109D01*
X212969788Y-64276106D01*
X212969792Y-64276104D01*
X213120104Y-64125792D01*
X213120106Y-64125788D01*
X213120109Y-64125786D01*
X213245048Y-63953820D01*
X213245050Y-63953817D01*
X213245051Y-63953816D01*
X213341557Y-63764412D01*
X213407246Y-63562243D01*
X213440500Y-63352287D01*
X213440500Y-63139713D01*
X213407246Y-62929757D01*
X213341557Y-62727588D01*
X213245051Y-62538184D01*
X213245049Y-62538181D01*
X213245048Y-62538179D01*
X213120109Y-62366213D01*
X212969786Y-62215890D01*
X212797820Y-62090951D01*
X212608414Y-61994444D01*
X212608413Y-61994443D01*
X212608412Y-61994443D01*
X212406243Y-61928754D01*
X212406241Y-61928753D01*
X212406240Y-61928753D01*
X212244957Y-61903208D01*
X212196287Y-61895500D01*
X211983713Y-61895500D01*
X211935042Y-61903208D01*
X211773760Y-61928753D01*
X211571585Y-61994444D01*
X211382179Y-62090951D01*
X211210213Y-62215890D01*
X211059890Y-62366213D01*
X210934949Y-62538182D01*
X210930484Y-62546946D01*
X210882509Y-62597742D01*
X210814688Y-62614536D01*
X210748553Y-62591998D01*
X210709516Y-62546946D01*
X210705050Y-62538182D01*
X210580109Y-62366213D01*
X210429786Y-62215890D01*
X210257820Y-62090951D01*
X210068414Y-61994444D01*
X210068413Y-61994443D01*
X210068412Y-61994443D01*
X209866243Y-61928754D01*
X209866241Y-61928753D01*
X209866240Y-61928753D01*
X209704957Y-61903208D01*
X209656287Y-61895500D01*
X209443713Y-61895500D01*
X209395042Y-61903208D01*
X209233760Y-61928753D01*
X209031585Y-61994444D01*
X208842179Y-62090951D01*
X208670213Y-62215890D01*
X208519890Y-62366213D01*
X208394949Y-62538182D01*
X208390202Y-62547499D01*
X208342227Y-62598293D01*
X208274405Y-62615087D01*
X208208271Y-62592548D01*
X208169234Y-62547495D01*
X208164626Y-62538452D01*
X208125270Y-62484282D01*
X208125269Y-62484282D01*
X207492962Y-63116590D01*
X207475925Y-63053007D01*
X207410099Y-62938993D01*
X207317007Y-62845901D01*
X207202993Y-62780075D01*
X207139409Y-62763037D01*
X207771716Y-62130728D01*
X207717550Y-62091375D01*
X207528217Y-61994904D01*
X207326129Y-61929242D01*
X207116246Y-61896000D01*
X206903754Y-61896000D01*
X206693872Y-61929242D01*
X206693869Y-61929242D01*
X206491782Y-61994904D01*
X206302439Y-62091380D01*
X206248282Y-62130727D01*
X206248282Y-62130728D01*
X206880591Y-62763037D01*
X206817007Y-62780075D01*
X206702993Y-62845901D01*
X206609901Y-62938993D01*
X206544075Y-63053007D01*
X206527037Y-63116590D01*
X205856818Y-62446371D01*
X205823333Y-62385048D01*
X205823330Y-62385035D01*
X205820499Y-62372014D01*
X205820499Y-62348128D01*
X205814091Y-62288517D01*
X205785926Y-62213002D01*
X205763798Y-62153673D01*
X205763793Y-62153664D01*
X205677547Y-62038455D01*
X205677544Y-62038452D01*
X205562335Y-61952206D01*
X205562328Y-61952202D01*
X205427482Y-61901908D01*
X205427483Y-61901908D01*
X205367883Y-61895501D01*
X205367881Y-61895500D01*
X205367873Y-61895500D01*
X205367864Y-61895500D01*
X203572129Y-61895500D01*
X203572123Y-61895501D01*
X203512516Y-61901908D01*
X203377671Y-61952202D01*
X203377664Y-61952206D01*
X203262455Y-62038452D01*
X203262452Y-62038455D01*
X203176206Y-62153664D01*
X203176202Y-62153671D01*
X203125908Y-62288517D01*
X203119501Y-62348116D01*
X203119500Y-62348135D01*
X86558464Y-62348135D01*
X86559576Y-55001994D01*
X108974000Y-55001994D01*
X108974000Y-55234005D01*
X108974001Y-55234022D01*
X109004283Y-55464040D01*
X109004286Y-55464053D01*
X109064336Y-55688167D01*
X109153124Y-55902521D01*
X109153132Y-55902538D01*
X109269136Y-56103461D01*
X109269142Y-56103469D01*
X109328117Y-56180327D01*
X110261037Y-55247408D01*
X110278075Y-55310993D01*
X110343901Y-55425007D01*
X110436993Y-55518099D01*
X110551007Y-55583925D01*
X110614591Y-55600962D01*
X109681671Y-56533881D01*
X109758530Y-56592857D01*
X109758538Y-56592863D01*
X109959461Y-56708867D01*
X109959478Y-56708875D01*
X110173832Y-56797663D01*
X110397946Y-56857713D01*
X110397959Y-56857716D01*
X110627977Y-56887998D01*
X110627995Y-56888000D01*
X110860005Y-56888000D01*
X110860022Y-56887998D01*
X111090040Y-56857716D01*
X111090053Y-56857713D01*
X111314167Y-56797663D01*
X111528521Y-56708875D01*
X111528538Y-56708867D01*
X111729475Y-56592855D01*
X111806327Y-56533883D01*
X111806327Y-56533880D01*
X110873408Y-55600962D01*
X110936993Y-55583925D01*
X111051007Y-55518099D01*
X111144099Y-55425007D01*
X111209925Y-55310993D01*
X111226962Y-55247409D01*
X112159880Y-56180327D01*
X112159883Y-56180327D01*
X112218855Y-56103475D01*
X112334867Y-55902538D01*
X112334875Y-55902521D01*
X112423663Y-55688167D01*
X112483713Y-55464053D01*
X112483716Y-55464040D01*
X112513998Y-55234022D01*
X112514000Y-55234005D01*
X112514000Y-55001994D01*
X149614000Y-55001994D01*
X149614000Y-55234005D01*
X149614001Y-55234022D01*
X149644283Y-55464040D01*
X149644286Y-55464053D01*
X149704336Y-55688167D01*
X149793124Y-55902521D01*
X149793132Y-55902538D01*
X149909136Y-56103461D01*
X149909142Y-56103469D01*
X149968117Y-56180327D01*
X150901037Y-55247408D01*
X150918075Y-55310993D01*
X150983901Y-55425007D01*
X151076993Y-55518099D01*
X151191007Y-55583925D01*
X151254591Y-55600962D01*
X150321671Y-56533881D01*
X150398530Y-56592857D01*
X150398538Y-56592863D01*
X150599461Y-56708867D01*
X150599478Y-56708875D01*
X150813832Y-56797663D01*
X151037946Y-56857713D01*
X151037959Y-56857716D01*
X151267977Y-56887998D01*
X151267995Y-56888000D01*
X151500005Y-56888000D01*
X151500022Y-56887998D01*
X151730040Y-56857716D01*
X151730053Y-56857713D01*
X151954167Y-56797663D01*
X152168521Y-56708875D01*
X152168538Y-56708867D01*
X152369475Y-56592855D01*
X152446327Y-56533883D01*
X152446327Y-56533880D01*
X151513408Y-55600962D01*
X151576993Y-55583925D01*
X151691007Y-55518099D01*
X151784099Y-55425007D01*
X151849925Y-55310993D01*
X151866962Y-55247409D01*
X152799880Y-56180327D01*
X152799883Y-56180327D01*
X152858855Y-56103475D01*
X152967136Y-55915929D01*
X152967136Y-55915928D01*
X152974865Y-55902542D01*
X152974875Y-55902521D01*
X153063663Y-55688167D01*
X153123713Y-55464053D01*
X153123716Y-55464040D01*
X153153998Y-55234022D01*
X153154000Y-55234005D01*
X153154000Y-55001994D01*
X153153998Y-55001977D01*
X153123716Y-54771959D01*
X153123713Y-54771946D01*
X153063664Y-54547838D01*
X153059334Y-54537383D01*
X153059333Y-54537380D01*
X153041362Y-54493994D01*
X176030000Y-54493994D01*
X176030000Y-54726005D01*
X176030001Y-54726022D01*
X176060283Y-54956040D01*
X176060286Y-54956053D01*
X176120336Y-55180167D01*
X176209124Y-55394521D01*
X176209132Y-55394538D01*
X176325136Y-55595461D01*
X176325142Y-55595469D01*
X176384117Y-55672327D01*
X177317037Y-54739408D01*
X177334075Y-54802993D01*
X177399901Y-54917007D01*
X177492993Y-55010099D01*
X177607007Y-55075925D01*
X177670591Y-55092962D01*
X176737671Y-56025881D01*
X176814530Y-56084857D01*
X176814538Y-56084863D01*
X177015461Y-56200867D01*
X177015478Y-56200875D01*
X177229832Y-56289663D01*
X177453946Y-56349713D01*
X177453959Y-56349716D01*
X177683977Y-56379998D01*
X177683995Y-56380000D01*
X177916005Y-56380000D01*
X177916022Y-56379998D01*
X178146040Y-56349716D01*
X178146053Y-56349713D01*
X178370167Y-56289663D01*
X178584521Y-56200875D01*
X178584538Y-56200867D01*
X178785475Y-56084855D01*
X178862327Y-56025883D01*
X178862327Y-56025880D01*
X177929408Y-55092962D01*
X177992993Y-55075925D01*
X178107007Y-55010099D01*
X178200099Y-54917007D01*
X178265925Y-54802993D01*
X178282962Y-54739409D01*
X179215880Y-55672327D01*
X179215883Y-55672327D01*
X179274855Y-55595475D01*
X179390867Y-55394538D01*
X179390875Y-55394521D01*
X179479663Y-55180167D01*
X179539713Y-54956053D01*
X179539716Y-54956040D01*
X179569998Y-54726022D01*
X179570000Y-54726005D01*
X179570000Y-54493994D01*
X216670000Y-54493994D01*
X216670000Y-54726005D01*
X216670001Y-54726022D01*
X216700283Y-54956040D01*
X216700286Y-54956053D01*
X216760336Y-55180167D01*
X216849124Y-55394521D01*
X216849132Y-55394538D01*
X216965136Y-55595461D01*
X216965142Y-55595469D01*
X217024117Y-55672327D01*
X217957037Y-54739408D01*
X217974075Y-54802993D01*
X218039901Y-54917007D01*
X218132993Y-55010099D01*
X218247007Y-55075925D01*
X218310591Y-55092962D01*
X217377671Y-56025881D01*
X217454530Y-56084857D01*
X217454538Y-56084863D01*
X217655461Y-56200867D01*
X217655478Y-56200875D01*
X217869832Y-56289663D01*
X218093946Y-56349713D01*
X218093959Y-56349716D01*
X218323977Y-56379998D01*
X218323995Y-56380000D01*
X218556005Y-56380000D01*
X218556022Y-56379998D01*
X218786040Y-56349716D01*
X218786053Y-56349713D01*
X219010167Y-56289663D01*
X219224521Y-56200875D01*
X219224538Y-56200867D01*
X219425475Y-56084855D01*
X219502327Y-56025883D01*
X219502327Y-56025880D01*
X218569408Y-55092962D01*
X218632993Y-55075925D01*
X218747007Y-55010099D01*
X218840099Y-54917007D01*
X218905925Y-54802993D01*
X218922962Y-54739409D01*
X219855880Y-55672327D01*
X219855883Y-55672327D01*
X219914855Y-55595475D01*
X220030867Y-55394538D01*
X220030875Y-55394521D01*
X220119663Y-55180167D01*
X220179713Y-54956053D01*
X220179716Y-54956040D01*
X220209998Y-54726022D01*
X220210000Y-54726005D01*
X220210000Y-54493994D01*
X220209998Y-54493977D01*
X220179716Y-54263959D01*
X220179713Y-54263946D01*
X220119663Y-54039832D01*
X220030875Y-53825478D01*
X220030867Y-53825461D01*
X219914863Y-53624538D01*
X219914857Y-53624530D01*
X219855881Y-53547671D01*
X218922962Y-54480590D01*
X218905925Y-54417007D01*
X218840099Y-54302993D01*
X218747007Y-54209901D01*
X218632993Y-54144075D01*
X218569409Y-54127037D01*
X219502327Y-53194117D01*
X219425469Y-53135142D01*
X219425461Y-53135136D01*
X219224538Y-53019132D01*
X219224521Y-53019124D01*
X219010167Y-52930336D01*
X218786053Y-52870286D01*
X218786040Y-52870283D01*
X218556022Y-52840001D01*
X218556005Y-52840000D01*
X218323995Y-52840000D01*
X218323977Y-52840001D01*
X218093959Y-52870283D01*
X218093946Y-52870286D01*
X217869832Y-52930336D01*
X217655478Y-53019124D01*
X217655461Y-53019132D01*
X217454541Y-53135134D01*
X217454533Y-53135140D01*
X217377671Y-53194116D01*
X217377671Y-53194117D01*
X218310591Y-54127037D01*
X218247007Y-54144075D01*
X218132993Y-54209901D01*
X218039901Y-54302993D01*
X217974075Y-54417007D01*
X217957037Y-54480591D01*
X217024117Y-53547671D01*
X217024116Y-53547671D01*
X216965140Y-53624533D01*
X216965134Y-53624541D01*
X216849132Y-53825461D01*
X216849124Y-53825478D01*
X216760336Y-54039832D01*
X216700286Y-54263946D01*
X216700283Y-54263959D01*
X216670001Y-54493977D01*
X216670000Y-54493994D01*
X179570000Y-54493994D01*
X179569998Y-54493977D01*
X179539716Y-54263959D01*
X179539713Y-54263946D01*
X179479663Y-54039832D01*
X179390875Y-53825478D01*
X179390867Y-53825461D01*
X179274863Y-53624538D01*
X179274857Y-53624530D01*
X179215881Y-53547671D01*
X178282962Y-54480590D01*
X178265925Y-54417007D01*
X178200099Y-54302993D01*
X178107007Y-54209901D01*
X177992993Y-54144075D01*
X177929409Y-54127037D01*
X178862327Y-53194117D01*
X178785469Y-53135142D01*
X178785461Y-53135136D01*
X178584538Y-53019132D01*
X178584521Y-53019124D01*
X178370167Y-52930336D01*
X178146053Y-52870286D01*
X178146040Y-52870283D01*
X177916022Y-52840001D01*
X177916005Y-52840000D01*
X177683995Y-52840000D01*
X177683977Y-52840001D01*
X177453959Y-52870283D01*
X177453946Y-52870286D01*
X177229832Y-52930336D01*
X177015478Y-53019124D01*
X177015461Y-53019132D01*
X176814541Y-53135134D01*
X176814533Y-53135140D01*
X176737671Y-53194116D01*
X176737671Y-53194117D01*
X177670591Y-54127037D01*
X177607007Y-54144075D01*
X177492993Y-54209901D01*
X177399901Y-54302993D01*
X177334075Y-54417007D01*
X177317037Y-54480591D01*
X176384117Y-53547671D01*
X176384116Y-53547671D01*
X176325140Y-53624533D01*
X176325134Y-53624541D01*
X176209132Y-53825461D01*
X176209124Y-53825478D01*
X176120336Y-54039832D01*
X176060286Y-54263946D01*
X176060283Y-54263959D01*
X176030001Y-54493977D01*
X176030000Y-54493994D01*
X153041362Y-54493994D01*
X152974875Y-54333477D01*
X152974867Y-54333461D01*
X152858863Y-54132538D01*
X152858857Y-54132530D01*
X152799881Y-54055671D01*
X151866962Y-54988590D01*
X151849925Y-54925007D01*
X151784099Y-54810993D01*
X151691007Y-54717901D01*
X151576993Y-54652075D01*
X151513409Y-54635037D01*
X152446327Y-53702117D01*
X152369469Y-53643142D01*
X152369461Y-53643136D01*
X152168538Y-53527132D01*
X152168521Y-53527124D01*
X151954167Y-53438336D01*
X151730053Y-53378286D01*
X151730040Y-53378283D01*
X151629209Y-53365009D01*
X151500021Y-53348001D01*
X151500005Y-53348000D01*
X151267995Y-53348000D01*
X151267977Y-53348001D01*
X151037959Y-53378283D01*
X151037946Y-53378286D01*
X150813832Y-53438336D01*
X150599478Y-53527124D01*
X150599461Y-53527132D01*
X150398541Y-53643134D01*
X150398533Y-53643140D01*
X150321671Y-53702116D01*
X150321671Y-53702117D01*
X151254591Y-54635037D01*
X151191007Y-54652075D01*
X151076993Y-54717901D01*
X150983901Y-54810993D01*
X150918075Y-54925007D01*
X150901037Y-54988590D01*
X149968117Y-54055671D01*
X149968116Y-54055671D01*
X149909140Y-54132533D01*
X149909134Y-54132541D01*
X149793132Y-54333461D01*
X149793124Y-54333478D01*
X149704336Y-54547832D01*
X149644286Y-54771946D01*
X149644283Y-54771959D01*
X149614001Y-55001977D01*
X149614000Y-55001994D01*
X112514000Y-55001994D01*
X112513998Y-55001977D01*
X112483716Y-54771959D01*
X112483713Y-54771946D01*
X112423663Y-54547832D01*
X112334875Y-54333478D01*
X112334867Y-54333461D01*
X112218863Y-54132538D01*
X112218857Y-54132530D01*
X112159881Y-54055671D01*
X111226962Y-54988590D01*
X111209925Y-54925007D01*
X111144099Y-54810993D01*
X111051007Y-54717901D01*
X110936993Y-54652075D01*
X110873409Y-54635037D01*
X111806327Y-53702117D01*
X111729469Y-53643142D01*
X111729461Y-53643136D01*
X111528538Y-53527132D01*
X111528521Y-53527124D01*
X111314167Y-53438336D01*
X111090053Y-53378286D01*
X111090040Y-53378283D01*
X110860022Y-53348001D01*
X110860005Y-53348000D01*
X110627995Y-53348000D01*
X110627977Y-53348001D01*
X110397959Y-53378283D01*
X110397946Y-53378286D01*
X110173832Y-53438336D01*
X109959478Y-53527124D01*
X109959461Y-53527132D01*
X109758541Y-53643134D01*
X109758533Y-53643140D01*
X109681671Y-53702116D01*
X109681671Y-53702117D01*
X110614591Y-54635037D01*
X110551007Y-54652075D01*
X110436993Y-54717901D01*
X110343901Y-54810993D01*
X110278075Y-54925007D01*
X110261037Y-54988590D01*
X109328117Y-54055671D01*
X109328116Y-54055671D01*
X109269140Y-54132533D01*
X109269134Y-54132541D01*
X109153132Y-54333461D01*
X109153124Y-54333478D01*
X109064336Y-54547832D01*
X109004286Y-54771946D01*
X109004283Y-54771959D01*
X108974001Y-55001977D01*
X108974000Y-55001994D01*
X86559576Y-55001994D01*
X86562496Y-35711536D01*
X86562500Y-35711531D01*
X86562500Y-35689189D01*
X86562579Y-35684788D01*
X86568307Y-35524422D01*
X91071500Y-35524422D01*
X91071500Y-35794049D01*
X91101686Y-36061955D01*
X91101688Y-36061967D01*
X91161684Y-36324830D01*
X91161687Y-36324838D01*
X91250734Y-36579318D01*
X91367714Y-36822230D01*
X91367716Y-36822233D01*
X91511162Y-37050525D01*
X91679266Y-37261321D01*
X91869915Y-37451970D01*
X92080711Y-37620074D01*
X92309003Y-37763520D01*
X92551921Y-37880503D01*
X92743049Y-37947381D01*
X92806397Y-37969548D01*
X92806405Y-37969551D01*
X92806408Y-37969551D01*
X92806409Y-37969552D01*
X93069268Y-38029548D01*
X93337187Y-38059735D01*
X93337188Y-38059736D01*
X93337191Y-38059736D01*
X93606812Y-38059736D01*
X93606812Y-38059735D01*
X93874732Y-38029548D01*
X94137591Y-37969552D01*
X94392079Y-37880503D01*
X94634997Y-37763520D01*
X94863289Y-37620074D01*
X95074085Y-37451970D01*
X95264734Y-37261321D01*
X95432838Y-37050525D01*
X95576284Y-36822233D01*
X95693267Y-36579315D01*
X95782316Y-36324827D01*
X95842312Y-36061968D01*
X95842313Y-36061957D01*
X95842314Y-36061954D01*
X95847026Y-36020135D01*
X108973500Y-36020135D01*
X108973500Y-38655870D01*
X108973501Y-38655876D01*
X108979908Y-38715483D01*
X109030202Y-38850328D01*
X109030206Y-38850335D01*
X109116452Y-38965544D01*
X109116455Y-38965547D01*
X109231664Y-39051793D01*
X109231671Y-39051797D01*
X109366517Y-39102091D01*
X109366516Y-39102091D01*
X109373444Y-39102835D01*
X109426127Y-39108500D01*
X112061872Y-39108499D01*
X112121483Y-39102091D01*
X112256331Y-39051796D01*
X112371546Y-38965546D01*
X112457796Y-38850331D01*
X112508091Y-38715483D01*
X112514500Y-38655873D01*
X112514499Y-37221947D01*
X149613500Y-37221947D01*
X149613500Y-37454052D01*
X149643794Y-37684148D01*
X149703862Y-37908328D01*
X149792677Y-38122745D01*
X149792685Y-38122762D01*
X149908720Y-38323743D01*
X149908721Y-38323745D01*
X150050009Y-38507875D01*
X150050015Y-38507882D01*
X150214117Y-38671984D01*
X150214124Y-38671990D01*
X150398254Y-38813278D01*
X150398256Y-38813279D01*
X150599237Y-38929314D01*
X150599240Y-38929315D01*
X150599248Y-38929320D01*
X150813670Y-39018137D01*
X151037851Y-39078206D01*
X151256318Y-39106968D01*
X151267939Y-39108498D01*
X151267955Y-39108500D01*
X151267962Y-39108500D01*
X151500038Y-39108500D01*
X151500045Y-39108500D01*
X151730149Y-39078206D01*
X151954330Y-39018137D01*
X152168752Y-38929320D01*
X152369748Y-38813276D01*
X152553877Y-38671989D01*
X152717989Y-38507877D01*
X152859276Y-38323748D01*
X152975320Y-38122752D01*
X153064137Y-37908330D01*
X153124206Y-37684149D01*
X153154500Y-37454045D01*
X153154500Y-37221955D01*
X153124206Y-36991851D01*
X153064137Y-36767670D01*
X152975320Y-36553248D01*
X152935254Y-36483851D01*
X152859279Y-36352256D01*
X152859278Y-36352254D01*
X152717990Y-36168124D01*
X152717984Y-36168117D01*
X152553882Y-36004015D01*
X152553875Y-36004009D01*
X152369745Y-35862721D01*
X152369743Y-35862720D01*
X152168762Y-35746685D01*
X152168754Y-35746681D01*
X152168752Y-35746680D01*
X152134871Y-35732646D01*
X151954328Y-35657862D01*
X151881689Y-35638399D01*
X151730149Y-35597794D01*
X151701386Y-35594007D01*
X151500052Y-35567500D01*
X151500045Y-35567500D01*
X151267955Y-35567500D01*
X151267947Y-35567500D01*
X151037851Y-35597794D01*
X150813671Y-35657862D01*
X150599254Y-35746677D01*
X150599237Y-35746685D01*
X150398256Y-35862720D01*
X150398254Y-35862721D01*
X150214124Y-36004009D01*
X150214117Y-36004015D01*
X150050015Y-36168117D01*
X150050009Y-36168124D01*
X149908721Y-36352254D01*
X149908720Y-36352256D01*
X149792685Y-36553237D01*
X149792677Y-36553254D01*
X149703862Y-36767671D01*
X149643794Y-36991851D01*
X149613500Y-37221947D01*
X112514499Y-37221947D01*
X112514499Y-36020128D01*
X112508091Y-35960517D01*
X112471615Y-35862721D01*
X112457797Y-35825671D01*
X112457793Y-35825664D01*
X112371547Y-35710455D01*
X112371544Y-35710452D01*
X112256335Y-35624206D01*
X112256328Y-35624202D01*
X112121482Y-35573908D01*
X112121483Y-35573908D01*
X112061883Y-35567501D01*
X112061881Y-35567500D01*
X112061873Y-35567500D01*
X112061864Y-35567500D01*
X109426129Y-35567500D01*
X109426123Y-35567501D01*
X109366516Y-35573908D01*
X109231671Y-35624202D01*
X109231664Y-35624206D01*
X109116455Y-35710452D01*
X109116452Y-35710455D01*
X109030206Y-35825664D01*
X109030202Y-35825671D01*
X108979908Y-35960517D01*
X108975232Y-36004015D01*
X108973501Y-36020123D01*
X108973500Y-36020135D01*
X95847026Y-36020135D01*
X95848965Y-36002923D01*
X95848965Y-36002922D01*
X95853743Y-35960516D01*
X95872500Y-35794045D01*
X95872500Y-35524427D01*
X95871115Y-35512135D01*
X176029500Y-35512135D01*
X176029500Y-38147870D01*
X176029501Y-38147876D01*
X176035908Y-38207483D01*
X176086202Y-38342328D01*
X176086206Y-38342335D01*
X176172452Y-38457544D01*
X176172455Y-38457547D01*
X176287664Y-38543793D01*
X176287671Y-38543797D01*
X176422517Y-38594091D01*
X176422516Y-38594091D01*
X176429444Y-38594835D01*
X176482127Y-38600500D01*
X179117872Y-38600499D01*
X179177483Y-38594091D01*
X179312331Y-38543796D01*
X179427546Y-38457546D01*
X179513796Y-38342331D01*
X179564091Y-38207483D01*
X179570500Y-38147873D01*
X179570499Y-36713947D01*
X216669500Y-36713947D01*
X216669500Y-36946052D01*
X216699794Y-37176148D01*
X216759862Y-37400328D01*
X216848677Y-37614745D01*
X216848685Y-37614762D01*
X216964720Y-37815743D01*
X216964721Y-37815745D01*
X217106009Y-37999875D01*
X217106015Y-37999882D01*
X217270117Y-38163984D01*
X217270124Y-38163990D01*
X217454254Y-38305278D01*
X217454256Y-38305279D01*
X217655237Y-38421314D01*
X217655240Y-38421315D01*
X217655248Y-38421320D01*
X217869670Y-38510137D01*
X218093851Y-38570206D01*
X218312318Y-38598968D01*
X218323939Y-38600498D01*
X218323955Y-38600500D01*
X218323962Y-38600500D01*
X218556038Y-38600500D01*
X218556045Y-38600500D01*
X218786149Y-38570206D01*
X219010330Y-38510137D01*
X219224752Y-38421320D01*
X219393753Y-38323748D01*
X219425743Y-38305279D01*
X219425745Y-38305278D01*
X219553194Y-38207483D01*
X219609877Y-38163989D01*
X219773989Y-37999877D01*
X219915276Y-37815748D01*
X220031320Y-37614752D01*
X220120137Y-37400330D01*
X220180206Y-37176149D01*
X220210500Y-36946045D01*
X220210500Y-36713955D01*
X220180206Y-36483851D01*
X220120137Y-36259670D01*
X220031320Y-36045248D01*
X220031314Y-36045237D01*
X219915279Y-35844256D01*
X219915278Y-35844254D01*
X219773990Y-35660124D01*
X219773984Y-35660117D01*
X219666053Y-35552186D01*
X231787500Y-35552186D01*
X231787500Y-35821813D01*
X231817686Y-36089719D01*
X231817688Y-36089731D01*
X231877684Y-36352594D01*
X231877687Y-36352602D01*
X231966734Y-36607082D01*
X232083714Y-36849994D01*
X232083716Y-36849997D01*
X232227162Y-37078289D01*
X232395266Y-37289085D01*
X232585915Y-37479734D01*
X232796711Y-37647838D01*
X233025003Y-37791284D01*
X233267921Y-37908267D01*
X233443061Y-37969551D01*
X233522397Y-37997312D01*
X233522405Y-37997315D01*
X233522408Y-37997315D01*
X233522409Y-37997316D01*
X233785268Y-38057312D01*
X234053187Y-38087499D01*
X234053188Y-38087500D01*
X234053191Y-38087500D01*
X234322812Y-38087500D01*
X234322812Y-38087499D01*
X234590732Y-38057312D01*
X234853591Y-37997316D01*
X235108079Y-37908267D01*
X235350997Y-37791284D01*
X235579289Y-37647838D01*
X235790085Y-37479734D01*
X235980734Y-37289085D01*
X236148838Y-37078289D01*
X236292284Y-36849997D01*
X236409267Y-36607079D01*
X236498316Y-36352591D01*
X236558312Y-36089732D01*
X236588500Y-35821809D01*
X236588500Y-35552191D01*
X236558312Y-35284268D01*
X236498316Y-35021409D01*
X236409267Y-34766921D01*
X236292284Y-34524003D01*
X236148838Y-34295711D01*
X235980734Y-34084915D01*
X235790085Y-33894266D01*
X235579289Y-33726162D01*
X235350997Y-33582716D01*
X235350994Y-33582714D01*
X235108082Y-33465734D01*
X234853602Y-33376687D01*
X234853594Y-33376684D01*
X234656446Y-33331687D01*
X234590732Y-33316688D01*
X234590728Y-33316687D01*
X234590719Y-33316686D01*
X234322813Y-33286500D01*
X234322809Y-33286500D01*
X234053191Y-33286500D01*
X234053186Y-33286500D01*
X233785280Y-33316686D01*
X233785268Y-33316688D01*
X233522405Y-33376684D01*
X233522397Y-33376687D01*
X233267917Y-33465734D01*
X233025005Y-33582714D01*
X232796712Y-33726161D01*
X232585915Y-33894265D01*
X232395265Y-34084915D01*
X232227161Y-34295712D01*
X232083714Y-34524005D01*
X231966734Y-34766917D01*
X231877687Y-35021397D01*
X231877684Y-35021405D01*
X231817688Y-35284268D01*
X231817686Y-35284280D01*
X231787500Y-35552186D01*
X219666053Y-35552186D01*
X219609882Y-35496015D01*
X219609875Y-35496009D01*
X219425745Y-35354721D01*
X219425743Y-35354720D01*
X219224762Y-35238685D01*
X219224754Y-35238681D01*
X219224752Y-35238680D01*
X219137298Y-35202455D01*
X219010328Y-35149862D01*
X218868203Y-35111780D01*
X218786149Y-35089794D01*
X218757386Y-35086007D01*
X218556052Y-35059500D01*
X218556045Y-35059500D01*
X218323955Y-35059500D01*
X218323947Y-35059500D01*
X218093851Y-35089794D01*
X217869671Y-35149862D01*
X217655254Y-35238677D01*
X217655237Y-35238685D01*
X217454256Y-35354720D01*
X217454254Y-35354721D01*
X217270124Y-35496009D01*
X217270117Y-35496015D01*
X217106015Y-35660117D01*
X217106009Y-35660124D01*
X216964721Y-35844254D01*
X216964720Y-35844256D01*
X216848685Y-36045237D01*
X216848677Y-36045254D01*
X216759862Y-36259671D01*
X216699794Y-36483851D01*
X216669500Y-36713947D01*
X179570499Y-36713947D01*
X179570499Y-35512128D01*
X179564091Y-35452517D01*
X179527615Y-35354721D01*
X179513797Y-35317671D01*
X179513793Y-35317664D01*
X179427547Y-35202455D01*
X179427544Y-35202452D01*
X179312335Y-35116206D01*
X179312328Y-35116202D01*
X179177482Y-35065908D01*
X179177483Y-35065908D01*
X179117883Y-35059501D01*
X179117881Y-35059500D01*
X179117873Y-35059500D01*
X179117864Y-35059500D01*
X176482129Y-35059500D01*
X176482123Y-35059501D01*
X176422516Y-35065908D01*
X176287671Y-35116202D01*
X176287664Y-35116206D01*
X176172455Y-35202452D01*
X176172452Y-35202455D01*
X176086206Y-35317664D01*
X176086202Y-35317671D01*
X176035908Y-35452517D01*
X176031232Y-35496015D01*
X176029501Y-35512123D01*
X176029500Y-35512135D01*
X95871115Y-35512135D01*
X95842312Y-35256504D01*
X95782316Y-34993645D01*
X95693267Y-34739157D01*
X95576284Y-34496239D01*
X95432838Y-34267947D01*
X95264734Y-34057151D01*
X95074085Y-33866502D01*
X94863289Y-33698398D01*
X94634997Y-33554952D01*
X94634994Y-33554950D01*
X94392082Y-33437970D01*
X94137602Y-33348923D01*
X94137594Y-33348920D01*
X93940446Y-33303923D01*
X93874732Y-33288924D01*
X93874728Y-33288923D01*
X93874719Y-33288922D01*
X93606813Y-33258736D01*
X93606809Y-33258736D01*
X93337191Y-33258736D01*
X93337186Y-33258736D01*
X93069280Y-33288922D01*
X93069268Y-33288924D01*
X92806405Y-33348920D01*
X92806397Y-33348923D01*
X92551917Y-33437970D01*
X92309005Y-33554950D01*
X92080712Y-33698397D01*
X91869915Y-33866501D01*
X91679265Y-34057151D01*
X91511161Y-34267948D01*
X91367714Y-34496241D01*
X91250734Y-34739153D01*
X91161687Y-34993633D01*
X91161684Y-34993641D01*
X91101688Y-35256504D01*
X91101686Y-35256516D01*
X91071500Y-35524422D01*
X86568307Y-35524422D01*
X86568589Y-35516522D01*
X86571506Y-35434834D01*
X86579947Y-35198494D01*
X86580575Y-35189705D01*
X86632358Y-34708049D01*
X86633611Y-34699341D01*
X86719623Y-34222604D01*
X86721494Y-34214008D01*
X86841292Y-33744642D01*
X86843777Y-33736178D01*
X86996749Y-33276574D01*
X86999838Y-33268291D01*
X87003796Y-33258736D01*
X87185211Y-32820761D01*
X87188873Y-32812743D01*
X87405699Y-32379580D01*
X87409922Y-32371844D01*
X87657112Y-31955227D01*
X87661879Y-31947811D01*
X87938135Y-31549927D01*
X87943435Y-31542847D01*
X88247386Y-31165666D01*
X88253147Y-31159017D01*
X88583235Y-30804479D01*
X88589479Y-30798235D01*
X88944017Y-30468147D01*
X88950666Y-30462386D01*
X89327853Y-30158430D01*
X89334933Y-30153131D01*
X89732811Y-29876879D01*
X89740227Y-29872112D01*
X90156844Y-29624922D01*
X90164580Y-29620699D01*
X90597743Y-29403873D01*
X90605761Y-29400211D01*
X91053302Y-29214833D01*
X91061574Y-29211749D01*
X91521178Y-29058777D01*
X91529642Y-29056292D01*
X91999008Y-28936494D01*
X92007604Y-28934623D01*
X92484341Y-28848611D01*
X92493049Y-28847358D01*
X92974705Y-28795575D01*
X92983494Y-28794947D01*
X93469788Y-28777578D01*
X93474211Y-28777500D01*
X93496531Y-28777500D01*
X93496531Y-28777499D01*
X93517330Y-28777498D01*
X234185768Y-28776346D01*
X234190245Y-28776427D01*
G37*
%TD.AperFunction*%
%TD*%
M02*
