%TF.GenerationSoftware,KiCad,Pcbnew,9.0.4*%
%TF.CreationDate,2026-04-07T22:59:04-04:00*%
%TF.ProjectId,Hand_System_Rev_1,48616e64-5f53-4797-9374-656d5f526576,rev?*%
%TF.SameCoordinates,Original*%
%TF.FileFunction,Plated,1,4,PTH,Mixed*%
%TF.FilePolarity,Positive*%
%FSLAX46Y46*%
G04 Gerber Fmt 4.6, Leading zero omitted, Abs format (unit mm)*
G04 Created by KiCad (PCBNEW 9.0.4) date 2026-04-07 22:59:04*
%MOMM*%
%LPD*%
G01*
G04 APERTURE LIST*
%TA.AperFunction,ComponentDrill*%
%ADD10C,0.800000*%
%TD*%
%TA.AperFunction,ComponentDrill*%
%ADD11C,1.000000*%
%TD*%
G04 aperture for slot hole*
%TA.AperFunction,ComponentDrill*%
%ADD12C,1.020000*%
%TD*%
%TA.AperFunction,ComponentDrill*%
%ADD13C,1.020000*%
%TD*%
%TA.AperFunction,ComponentDrill*%
%ADD14C,1.100000*%
%TD*%
G04 APERTURE END LIST*
D10*
%TO.C,U3*%
X161036000Y-121412000D03*
D11*
%TO.C,U6*%
X92710000Y-106426000D03*
X92710000Y-124206000D03*
%TO.C,U2*%
X110744000Y-37338000D03*
X110744000Y-55118000D03*
%TO.C,U6*%
X133350000Y-106426000D03*
X133350000Y-124206000D03*
%TO.C,M7*%
X141214000Y-110744000D03*
X141214000Y-113284000D03*
X141214000Y-115824000D03*
X141214000Y-118364000D03*
%TO.C,U3*%
X148336000Y-103632000D03*
X148336000Y-106172000D03*
X148336000Y-108712000D03*
X148336000Y-111252000D03*
X148336000Y-113792000D03*
X148336000Y-116332000D03*
X148336000Y-118872000D03*
X148336000Y-121412000D03*
%TO.C,U2*%
X151384000Y-37338000D03*
X151384000Y-55118000D03*
%TO.C,U3*%
X161036000Y-103632000D03*
X161036000Y-106172000D03*
X161036000Y-108712000D03*
X161036000Y-111252000D03*
X161036000Y-113792000D03*
X161036000Y-116332000D03*
X161036000Y-118872000D03*
%TO.C,U5*%
X177800000Y-36830000D03*
X177800000Y-54610000D03*
%TO.C,M2*%
X180340000Y-117602000D03*
X180340000Y-120142000D03*
X180340000Y-122682000D03*
%TO.C,M3*%
X185420000Y-117602000D03*
X185420000Y-120142000D03*
X185420000Y-122682000D03*
%TO.C,M4*%
X190246000Y-117602000D03*
X190246000Y-120142000D03*
X190246000Y-122682000D03*
%TO.C,M5*%
X195326000Y-117602000D03*
X195326000Y-120142000D03*
X195326000Y-122682000D03*
%TO.C,M6*%
X200152000Y-117602000D03*
X200152000Y-120142000D03*
X200152000Y-122682000D03*
%TO.C,U4*%
X204470000Y-63246000D03*
X207010000Y-63246000D03*
X209550000Y-63246000D03*
X212090000Y-63246000D03*
%TO.C,M1*%
X212658000Y-117869500D03*
X212658000Y-120409500D03*
X212658000Y-122949500D03*
%TO.C,M8*%
X217992000Y-117869500D03*
X217992000Y-120409500D03*
X217992000Y-122949500D03*
%TO.C,U5*%
X218440000Y-36830000D03*
X218440000Y-54610000D03*
%TO.C,M9*%
X223326000Y-117869500D03*
X223326000Y-120409500D03*
X223326000Y-122949500D03*
%TO.C,M10*%
X228914000Y-117869500D03*
X228914000Y-120409500D03*
X228914000Y-122949500D03*
%TO.C,M11*%
X234756000Y-117869500D03*
X234756000Y-120409500D03*
X234756000Y-122949500D03*
D12*
%TO.C,J1*%
X99970000Y-92432000D02*
X99970000Y-89432000D01*
X105150000Y-92432000D02*
X105150000Y-89432000D01*
D13*
%TO.C,U1*%
X193802000Y-67056000D03*
X193802000Y-92456000D03*
X196342000Y-67056000D03*
X196342000Y-92456000D03*
X198882000Y-67056000D03*
X198882000Y-92456000D03*
X201422000Y-67056000D03*
X201422000Y-92456000D03*
X203962000Y-67056000D03*
X203962000Y-92456000D03*
X206502000Y-67056000D03*
X206502000Y-92456000D03*
X209042000Y-67056000D03*
X209042000Y-92456000D03*
X211582000Y-67056000D03*
X211582000Y-92456000D03*
X214122000Y-67056000D03*
X214122000Y-92456000D03*
X216662000Y-67056000D03*
X216662000Y-92456000D03*
X219202000Y-67056000D03*
X219202000Y-92456000D03*
X221742000Y-67056000D03*
X221742000Y-92456000D03*
X224282000Y-67056000D03*
X224282000Y-92456000D03*
X226822000Y-67056000D03*
X226822000Y-92456000D03*
X229362000Y-67056000D03*
X229362000Y-92456000D03*
X231902000Y-67056000D03*
X231902000Y-92456000D03*
X234442000Y-67056000D03*
X234442000Y-92456000D03*
X236982000Y-67056000D03*
X236982000Y-92456000D03*
X239522000Y-67056000D03*
X239522000Y-92456000D03*
D14*
%TO.C,Q1*%
X138430000Y-87630000D03*
X138430000Y-90170000D03*
X138430000Y-92710000D03*
%TO.C,Q3*%
X138750000Y-66548000D03*
X138750000Y-69088000D03*
X138750000Y-71628000D03*
M02*
