%TF.GenerationSoftware,KiCad,Pcbnew,9.0.4*%
%TF.CreationDate,2026-04-07T22:58:52-04:00*%
%TF.ProjectId,Hand_System_Rev_1,48616e64-5f53-4797-9374-656d5f526576,rev?*%
%TF.SameCoordinates,Original*%
%TF.FileFunction,Copper,L1,Top*%
%TF.FilePolarity,Positive*%
%FSLAX46Y46*%
G04 Gerber Fmt 4.6, Leading zero omitted, Abs format (unit mm)*
G04 Created by KiCad (PCBNEW 9.0.4) date 2026-04-07 22:58:52*
%MOMM*%
%LPD*%
G01*
G04 APERTURE LIST*
G04 Aperture macros list*
%AMRoundRect*
0 Rectangle with rounded corners*
0 $1 Rounding radius*
0 $2 $3 $4 $5 $6 $7 $8 $9 X,Y pos of 4 corners*
0 Add a 4 corners polygon primitive as box body*
4,1,4,$2,$3,$4,$5,$6,$7,$8,$9,$2,$3,0*
0 Add four circle primitives for the rounded corners*
1,1,$1+$1,$2,$3*
1,1,$1+$1,$4,$5*
1,1,$1+$1,$6,$7*
1,1,$1+$1,$8,$9*
0 Add four rect primitives between the rounded corners*
20,1,$1+$1,$2,$3,$4,$5,0*
20,1,$1+$1,$4,$5,$6,$7,0*
20,1,$1+$1,$6,$7,$8,$9,0*
20,1,$1+$1,$8,$9,$2,$3,0*%
G04 Aperture macros list end*
%TA.AperFunction,SMDPad,CuDef*%
%ADD10RoundRect,0.250000X0.325000X0.650000X-0.325000X0.650000X-0.325000X-0.650000X0.325000X-0.650000X0*%
%TD*%
%TA.AperFunction,ComponentPad*%
%ADD11R,2.000000X1.905000*%
%TD*%
%TA.AperFunction,ComponentPad*%
%ADD12O,2.000000X1.905000*%
%TD*%
%TA.AperFunction,ComponentPad*%
%ADD13R,1.530000X1.530000*%
%TD*%
%TA.AperFunction,ComponentPad*%
%ADD14C,1.530000*%
%TD*%
%TA.AperFunction,SMDPad,CuDef*%
%ADD15RoundRect,0.250000X0.450000X-0.262500X0.450000X0.262500X-0.450000X0.262500X-0.450000X-0.262500X0*%
%TD*%
%TA.AperFunction,ComponentPad*%
%ADD16C,1.700000*%
%TD*%
%TA.AperFunction,ComponentPad*%
%ADD17R,1.700000X1.700000*%
%TD*%
%TA.AperFunction,SMDPad,CuDef*%
%ADD18RoundRect,0.100000X0.100000X-0.637500X0.100000X0.637500X-0.100000X0.637500X-0.100000X-0.637500X0*%
%TD*%
%TA.AperFunction,SMDPad,CuDef*%
%ADD19RoundRect,0.250000X0.262500X0.450000X-0.262500X0.450000X-0.262500X-0.450000X0.262500X-0.450000X0*%
%TD*%
%TA.AperFunction,SMDPad,CuDef*%
%ADD20RoundRect,0.250000X0.250000X0.475000X-0.250000X0.475000X-0.250000X-0.475000X0.250000X-0.475000X0*%
%TD*%
%TA.AperFunction,ComponentPad*%
%ADD21O,1.600000X1.600000*%
%TD*%
%TA.AperFunction,ComponentPad*%
%ADD22R,1.600000X1.600000*%
%TD*%
%TA.AperFunction,SMDPad,CuDef*%
%ADD23RoundRect,0.250000X-0.450000X0.262500X-0.450000X-0.262500X0.450000X-0.262500X0.450000X0.262500X0*%
%TD*%
%TA.AperFunction,ComponentPad*%
%ADD24R,2.540000X2.540000*%
%TD*%
%TA.AperFunction,ComponentPad*%
%ADD25C,2.540000*%
%TD*%
%TA.AperFunction,ComponentPad*%
%ADD26R,2.020000X5.020000*%
%TD*%
%TA.AperFunction,ComponentPad*%
%ADD27O,2.020000X5.020000*%
%TD*%
%TA.AperFunction,SMDPad,CuDef*%
%ADD28RoundRect,0.250000X-0.262500X-0.450000X0.262500X-0.450000X0.262500X0.450000X-0.262500X0.450000X0*%
%TD*%
%TA.AperFunction,SMDPad,CuDef*%
%ADD29RoundRect,0.250000X-0.250000X-0.475000X0.250000X-0.475000X0.250000X0.475000X-0.250000X0.475000X0*%
%TD*%
%TA.AperFunction,Conductor*%
%ADD30C,0.200000*%
%TD*%
G04 APERTURE END LIST*
D10*
%TO.P,C2,1*%
%TO.N,STP_P*%
X142586000Y-124968000D03*
%TO.P,C2,2*%
%TO.N,GND*%
X139636000Y-124968000D03*
%TD*%
D11*
%TO.P,Q3,1,G*%
%TO.N,Net-(Q3-G)*%
X138750000Y-66548000D03*
D12*
%TO.P,Q3,2,D*%
%TO.N,Net-(Q3-D)*%
X138750000Y-69088000D03*
%TO.P,Q3,3,S*%
%TO.N,Net-(Q3-S)*%
X138750000Y-71628000D03*
%TD*%
D11*
%TO.P,Q1,1,G*%
%TO.N,Net-(Q1-G)*%
X138430000Y-87630000D03*
D12*
%TO.P,Q1,2,D*%
%TO.N,Net-(Q1-D)*%
X138430000Y-90170000D03*
%TO.P,Q1,3,S*%
%TO.N,Net-(Q1-S)*%
X138430000Y-92710000D03*
%TD*%
D13*
%TO.P,U1,1,3V3*%
%TO.N,3.3V*%
X239522000Y-67056000D03*
D14*
%TO.P,U1,2,EN*%
%TO.N,unconnected-(U1-EN-Pad2)*%
X236982000Y-67056000D03*
%TO.P,U1,3,VP*%
%TO.N,unconnected-(U1-VP-Pad3)*%
X234442000Y-67056000D03*
%TO.P,U1,4,VN*%
%TO.N,unconnected-(U1-VN-Pad4)*%
X231902000Y-67056000D03*
%TO.P,U1,5,34*%
%TO.N,unconnected-(U1-34-Pad5)*%
X229362000Y-67056000D03*
%TO.P,U1,6,35*%
%TO.N,unconnected-(U1-35-Pad6)*%
X226822000Y-67056000D03*
%TO.P,U1,7,32*%
%TO.N,unconnected-(U1-32-Pad7)*%
X224282000Y-67056000D03*
%TO.P,U1,8,33*%
%TO.N,unconnected-(U1-33-Pad8)*%
X221742000Y-67056000D03*
%TO.P,U1,9,25*%
%TO.N,unconnected-(U1-25-Pad9)*%
X219202000Y-67056000D03*
%TO.P,U1,10,26*%
%TO.N,unconnected-(U1-26-Pad10)*%
X216662000Y-67056000D03*
%TO.P,U1,11,27*%
%TO.N,unconnected-(U1-27-Pad11)*%
X214122000Y-67056000D03*
%TO.P,U1,12,14*%
%TO.N,/DT*%
X211582000Y-67056000D03*
%TO.P,U1,13,12*%
%TO.N,/CW*%
X209042000Y-67056000D03*
%TO.P,U1,14,GND*%
%TO.N,GND*%
X206502000Y-67056000D03*
%TO.P,U1,15,13*%
%TO.N,unconnected-(U1-13-Pad15)*%
X203962000Y-67056000D03*
%TO.P,U1,16,D2*%
%TO.N,/SERVO_VG*%
X201422000Y-67056000D03*
%TO.P,U1,17,D3*%
%TO.N,/STP_VG*%
X198882000Y-67056000D03*
%TO.P,U1,18,CMD*%
%TO.N,unconnected-(U1-CMD-Pad18)*%
X196342000Y-67056000D03*
%TO.P,U1,19,5V*%
%TO.N,5V*%
X193802000Y-67056000D03*
%TO.P,U1,20,GND__1*%
%TO.N,GND*%
X193802000Y-92456000D03*
%TO.P,U1,21,23*%
%TO.N,/DIR_PIN*%
X196342000Y-92456000D03*
%TO.P,U1,22,22*%
%TO.N,/STEP_PIN*%
X198882000Y-92456000D03*
%TO.P,U1,23,TX*%
%TO.N,unconnected-(U1-TX-Pad23)*%
X201422000Y-92456000D03*
%TO.P,U1,24,RX*%
%TO.N,unconnected-(U1-RX-Pad24)*%
X203962000Y-92456000D03*
%TO.P,U1,25,21*%
%TO.N,unconnected-(U1-21-Pad25)*%
X206502000Y-92456000D03*
%TO.P,U1,26,GND__2*%
%TO.N,GND*%
X209042000Y-92456000D03*
%TO.P,U1,27,19*%
%TO.N,unconnected-(U1-19-Pad27)*%
X211582000Y-92456000D03*
%TO.P,U1,28,18*%
%TO.N,unconnected-(U1-18-Pad28)*%
X214122000Y-92456000D03*
%TO.P,U1,29,5*%
%TO.N,unconnected-(U1-5-Pad29)*%
X216662000Y-92456000D03*
%TO.P,U1,30,17*%
%TO.N,unconnected-(U1-17-Pad30)*%
X219202000Y-92456000D03*
%TO.P,U1,31,16*%
%TO.N,unconnected-(U1-16-Pad31)*%
X221742000Y-92456000D03*
%TO.P,U1,32,4*%
%TO.N,unconnected-(U1-4-Pad32)*%
X224282000Y-92456000D03*
%TO.P,U1,33,0*%
%TO.N,/SCL_SERV*%
X226822000Y-92456000D03*
%TO.P,U1,34,2*%
%TO.N,/SDA_SERV*%
X229362000Y-92456000D03*
%TO.P,U1,35,15*%
%TO.N,/SDA_SPL*%
X231902000Y-92456000D03*
%TO.P,U1,36,D1*%
%TO.N,/SCL_SPL*%
X234442000Y-92456000D03*
%TO.P,U1,37,D0*%
%TO.N,unconnected-(U1-D0-Pad37)*%
X236982000Y-92456000D03*
%TO.P,U1,38,CLK*%
%TO.N,unconnected-(U1-CLK-Pad38)*%
X239522000Y-92456000D03*
%TD*%
D15*
%TO.P,R36,1*%
%TO.N,/THUMB_1*%
X228139000Y-114300000D03*
%TO.P,R36,2*%
%TO.N,Net-(U8-LED0)*%
X228139000Y-112475000D03*
%TD*%
%TO.P,R37,1*%
%TO.N,/INDEX_1*%
X230171000Y-114300000D03*
%TO.P,R37,2*%
%TO.N,Net-(U8-LED1)*%
X230171000Y-112475000D03*
%TD*%
%TO.P,R38,1*%
%TO.N,/MIDDLE_1*%
X232203000Y-114300000D03*
%TO.P,R38,2*%
%TO.N,Net-(U8-LED2)*%
X232203000Y-112475000D03*
%TD*%
%TO.P,R39,1*%
%TO.N,/RING_1*%
X234235000Y-114300000D03*
%TO.P,R39,2*%
%TO.N,Net-(U8-LED3)*%
X234235000Y-112475000D03*
%TD*%
%TO.P,R40,1*%
%TO.N,/PINKIE_1*%
X236472000Y-114368500D03*
%TO.P,R40,2*%
%TO.N,Net-(U8-LED4)*%
X236472000Y-112543500D03*
%TD*%
%TO.P,R26,1*%
%TO.N,/RING_2*%
X199390000Y-113999000D03*
%TO.P,R26,2*%
%TO.N,Net-(U7-LED3)*%
X199390000Y-112174000D03*
%TD*%
%TO.P,R24,1*%
%TO.N,/INDEX_2*%
X195326000Y-113999000D03*
%TO.P,R24,2*%
%TO.N,Net-(U7-LED1)*%
X195326000Y-112174000D03*
%TD*%
%TO.P,R27,1*%
%TO.N,/PINKIE_2*%
X201422000Y-114046000D03*
%TO.P,R27,2*%
%TO.N,Net-(U7-LED4)*%
X201422000Y-112221000D03*
%TD*%
%TO.P,R25,1*%
%TO.N,/MIDDLE_2*%
X197358000Y-113999000D03*
%TO.P,R25,2*%
%TO.N,Net-(U7-LED2)*%
X197358000Y-112174000D03*
%TD*%
%TO.P,R23,1*%
%TO.N,/THUMB_2*%
X193294000Y-113999000D03*
%TO.P,R23,2*%
%TO.N,Net-(U7-LED0)*%
X193294000Y-112174000D03*
%TD*%
D16*
%TO.P,M10,3,-*%
%TO.N,/RING_1*%
X228914000Y-117869500D03*
%TO.P,M10,2,+*%
%TO.N,5V*%
X228914000Y-120409500D03*
D17*
%TO.P,M10,1,PWM*%
%TO.N,Net-(M10-PWM)*%
X228914000Y-122949500D03*
%TD*%
D18*
%TO.P,U8,28,VDD*%
%TO.N,5V*%
X225479000Y-103495000D03*
%TO.P,U8,27,SDA*%
%TO.N,/SDA_SPL*%
X226129000Y-103495000D03*
%TO.P,U8,26,SCL*%
%TO.N,/SCL_SPL*%
X226779000Y-103495000D03*
%TO.P,U8,25,EXTCLK*%
%TO.N,GND*%
X227429000Y-103495000D03*
%TO.P,U8,24,A5*%
%TO.N,unconnected-(U8-A5-Pad24)*%
X228079000Y-103495000D03*
%TO.P,U8,23,~{OE}*%
%TO.N,Net-(U8-~{OE})*%
X228729000Y-103495000D03*
%TO.P,U8,22,LED15*%
%TO.N,unconnected-(U8-LED15-Pad22)*%
X229379000Y-103495000D03*
%TO.P,U8,21,LED14*%
%TO.N,unconnected-(U8-LED14-Pad21)*%
X230029000Y-103495000D03*
%TO.P,U8,20,LED13*%
%TO.N,unconnected-(U8-LED13-Pad20)*%
X230679000Y-103495000D03*
%TO.P,U8,19,LED12*%
%TO.N,unconnected-(U8-LED12-Pad19)*%
X231329000Y-103495000D03*
%TO.P,U8,18,LED11*%
%TO.N,unconnected-(U8-LED11-Pad18)*%
X231979000Y-103495000D03*
%TO.P,U8,17,LED10*%
%TO.N,unconnected-(U8-LED10-Pad17)*%
X232629000Y-103495000D03*
%TO.P,U8,16,LED9*%
%TO.N,unconnected-(U8-LED9-Pad16)*%
X233279000Y-103495000D03*
%TO.P,U8,15,LED8*%
%TO.N,unconnected-(U8-LED8-Pad15)*%
X233929000Y-103495000D03*
%TO.P,U8,14,VSS*%
%TO.N,GND*%
X233929000Y-109220000D03*
%TO.P,U8,13,LED7*%
%TO.N,unconnected-(U8-LED7-Pad13)*%
X233279000Y-109220000D03*
%TO.P,U8,12,LED6*%
%TO.N,unconnected-(U8-LED6-Pad12)*%
X232629000Y-109220000D03*
%TO.P,U8,11,LED5*%
%TO.N,unconnected-(U8-LED5-Pad11)*%
X231979000Y-109220000D03*
%TO.P,U8,10,LED4*%
%TO.N,Net-(U8-LED4)*%
X231329000Y-109220000D03*
%TO.P,U8,9,LED3*%
%TO.N,Net-(U8-LED3)*%
X230679000Y-109220000D03*
%TO.P,U8,8,LED2*%
%TO.N,Net-(U8-LED2)*%
X230029000Y-109220000D03*
%TO.P,U8,7,LED1*%
%TO.N,Net-(U8-LED1)*%
X229379000Y-109220000D03*
%TO.P,U8,6,LED0*%
%TO.N,Net-(U8-LED0)*%
X228729000Y-109220000D03*
%TO.P,U8,5,A4*%
%TO.N,unconnected-(U8-A4-Pad5)*%
X228079000Y-109220000D03*
%TO.P,U8,4,A3*%
%TO.N,unconnected-(U8-A3-Pad4)*%
X227429000Y-109220000D03*
%TO.P,U8,3,A2*%
%TO.N,unconnected-(U8-A2-Pad3)*%
X226779000Y-109220000D03*
%TO.P,U8,2,A1*%
%TO.N,unconnected-(U8-A1-Pad2)*%
X226129000Y-109220000D03*
%TO.P,U8,1,A0*%
%TO.N,unconnected-(U8-A0-Pad1)*%
X225479000Y-109220000D03*
%TD*%
D16*
%TO.P,M8,3,-*%
%TO.N,/INDEX_1*%
X217992000Y-117869500D03*
%TO.P,M8,2,+*%
%TO.N,5V*%
X217992000Y-120409500D03*
D17*
%TO.P,M8,1,PWM*%
%TO.N,Net-(M8-PWM)*%
X217992000Y-122949500D03*
%TD*%
D16*
%TO.P,M9,3,-*%
%TO.N,/MIDDLE_1*%
X223326000Y-117869500D03*
%TO.P,M9,2,+*%
%TO.N,5V*%
X223326000Y-120409500D03*
D17*
%TO.P,M9,1,PWM*%
%TO.N,Net-(M9-PWM)*%
X223326000Y-122949500D03*
%TD*%
D16*
%TO.P,M11,3,-*%
%TO.N,/PINKIE_1*%
X234756000Y-117869500D03*
%TO.P,M11,2,+*%
%TO.N,5V*%
X234756000Y-120409500D03*
D17*
%TO.P,M11,1,PWM*%
%TO.N,Net-(M11-PWM)*%
X234756000Y-122949500D03*
%TD*%
D15*
%TO.P,R9,2*%
%TO.N,Net-(M8-PWM)*%
X216214000Y-129553500D03*
%TO.P,R9,1*%
%TO.N,GND*%
X216214000Y-131378500D03*
%TD*%
D18*
%TO.P,U7,28,VDD*%
%TO.N,5V*%
X189984000Y-103378000D03*
%TO.P,U7,27,SDA*%
%TO.N,/SDA_SERV*%
X190634000Y-103378000D03*
%TO.P,U7,26,SCL*%
%TO.N,/SCL_SERV*%
X191284000Y-103378000D03*
%TO.P,U7,25,EXTCLK*%
%TO.N,GND*%
X191934000Y-103378000D03*
%TO.P,U7,24,A5*%
%TO.N,unconnected-(U7-A5-Pad24)*%
X192584000Y-103378000D03*
%TO.P,U7,23,~{OE}*%
%TO.N,Net-(U7-~{OE})*%
X193234000Y-103378000D03*
%TO.P,U7,22,LED15*%
%TO.N,unconnected-(U7-LED15-Pad22)*%
X193884000Y-103378000D03*
%TO.P,U7,21,LED14*%
%TO.N,unconnected-(U7-LED14-Pad21)*%
X194534000Y-103378000D03*
%TO.P,U7,20,LED13*%
%TO.N,unconnected-(U7-LED13-Pad20)*%
X195184000Y-103378000D03*
%TO.P,U7,19,LED12*%
%TO.N,unconnected-(U7-LED12-Pad19)*%
X195834000Y-103378000D03*
%TO.P,U7,18,LED11*%
%TO.N,unconnected-(U7-LED11-Pad18)*%
X196484000Y-103378000D03*
%TO.P,U7,17,LED10*%
%TO.N,unconnected-(U7-LED10-Pad17)*%
X197134000Y-103378000D03*
%TO.P,U7,16,LED9*%
%TO.N,unconnected-(U7-LED9-Pad16)*%
X197784000Y-103378000D03*
%TO.P,U7,15,LED8*%
%TO.N,unconnected-(U7-LED8-Pad15)*%
X198434000Y-103378000D03*
%TO.P,U7,14,VSS*%
%TO.N,GND*%
X198434000Y-109103000D03*
%TO.P,U7,13,LED7*%
%TO.N,unconnected-(U7-LED7-Pad13)*%
X197784000Y-109103000D03*
%TO.P,U7,12,LED6*%
%TO.N,unconnected-(U7-LED6-Pad12)*%
X197134000Y-109103000D03*
%TO.P,U7,11,LED5*%
%TO.N,unconnected-(U7-LED5-Pad11)*%
X196484000Y-109103000D03*
%TO.P,U7,10,LED4*%
%TO.N,Net-(U7-LED4)*%
X195834000Y-109103000D03*
%TO.P,U7,9,LED3*%
%TO.N,Net-(U7-LED3)*%
X195184000Y-109103000D03*
%TO.P,U7,8,LED2*%
%TO.N,Net-(U7-LED2)*%
X194534000Y-109103000D03*
%TO.P,U7,7,LED1*%
%TO.N,Net-(U7-LED1)*%
X193884000Y-109103000D03*
%TO.P,U7,6,LED0*%
%TO.N,Net-(U7-LED0)*%
X193234000Y-109103000D03*
%TO.P,U7,5,A4*%
%TO.N,unconnected-(U7-A4-Pad5)*%
X192584000Y-109103000D03*
%TO.P,U7,4,A3*%
%TO.N,unconnected-(U7-A3-Pad4)*%
X191934000Y-109103000D03*
%TO.P,U7,3,A2*%
%TO.N,unconnected-(U7-A2-Pad3)*%
X191284000Y-109103000D03*
%TO.P,U7,2,A1*%
%TO.N,unconnected-(U7-A1-Pad2)*%
X190634000Y-109103000D03*
%TO.P,U7,1,A0*%
%TO.N,unconnected-(U7-A0-Pad1)*%
X189984000Y-109103000D03*
%TD*%
D19*
%TO.P,R28,2*%
%TO.N,GND*%
X193531500Y-98943000D03*
%TO.P,R28,1*%
%TO.N,Net-(U7-~{OE})*%
X195356500Y-98943000D03*
%TD*%
D20*
%TO.P,C3,2*%
%TO.N,5V*%
X189872000Y-98943000D03*
%TO.P,C3,1*%
%TO.N,GND*%
X191772000Y-98943000D03*
%TD*%
D19*
%TO.P,R35,1*%
%TO.N,Net-(U8-~{OE})*%
X230933000Y-98806000D03*
%TO.P,R35,2*%
%TO.N,GND*%
X229108000Y-98806000D03*
%TD*%
D20*
%TO.P,C4,1*%
%TO.N,GND*%
X227377000Y-98806000D03*
%TO.P,C4,2*%
%TO.N,5V*%
X225477000Y-98806000D03*
%TD*%
D21*
%TO.P,U3,12,MS3*%
%TO.N,unconnected-(U3-MS3-Pad12)*%
X161036000Y-113792000D03*
%TO.P,U3,9,~{ENABLE}*%
%TO.N,GND*%
X161036000Y-121412000D03*
%TO.P,U3,16,DIR*%
%TO.N,/DIR_PIN*%
X161036000Y-103632000D03*
%TO.P,U3,15,STEP*%
%TO.N,/STEP_PIN*%
X161036000Y-106172000D03*
%TO.P,U3,14,~{SLEEP}*%
%TO.N,unconnected-(U3-~{SLEEP}-Pad14)*%
X161036000Y-108712000D03*
%TO.P,U3,13,~{RESET}*%
%TO.N,unconnected-(U3-~{RESET}-Pad13)*%
X161036000Y-111252000D03*
%TO.P,U3,11,MS2*%
%TO.N,unconnected-(U3-MS2-Pad11)*%
X161036000Y-116332000D03*
%TO.P,U3,10,MS1*%
%TO.N,unconnected-(U3-MS1-Pad10)*%
X161036000Y-118872000D03*
%TO.P,U3,8,VMOT*%
%TO.N,STP_P*%
X148336000Y-121412000D03*
%TO.P,U3,7,GND*%
%TO.N,GND*%
X148336000Y-118872000D03*
%TO.P,U3,6,2B*%
%TO.N,Net-(U3-2B)*%
X148336000Y-116332000D03*
%TO.P,U3,5,2A*%
%TO.N,Net-(M7--)*%
X148336000Y-113792000D03*
%TO.P,U3,4,1A*%
%TO.N,Net-(U3-1A)*%
X148336000Y-111252000D03*
%TO.P,U3,3,1B*%
%TO.N,Net-(U3-1B)*%
X148336000Y-108712000D03*
%TO.P,U3,2,VDD*%
%TO.N,5V*%
X148336000Y-106172000D03*
D22*
%TO.P,U3,1,GND*%
%TO.N,GND*%
X148336000Y-103632000D03*
%TD*%
D17*
%TO.P,M5,1,-*%
%TO.N,Net-(M5--)*%
X195326000Y-122682000D03*
D16*
%TO.P,M5,2,+*%
%TO.N,MOTOR_P*%
X195326000Y-120142000D03*
%TO.P,M5,3,PWM*%
%TO.N,/RING_2*%
X195326000Y-117602000D03*
%TD*%
D15*
%TO.P,R6,1*%
%TO.N,GND*%
X182880000Y-130857000D03*
%TO.P,R6,2*%
%TO.N,Net-(M3--)*%
X182880000Y-129032000D03*
%TD*%
D23*
%TO.P,R13,1*%
%TO.N,Net-(Q3-S)*%
X173228000Y-121111000D03*
%TO.P,R13,2*%
%TO.N,MOTOR_P*%
X173228000Y-122936000D03*
%TD*%
D15*
%TO.P,R14,1*%
%TO.N,Net-(Q1-D)*%
X133858000Y-90725000D03*
%TO.P,R14,2*%
%TO.N,12V*%
X133858000Y-88900000D03*
%TD*%
D17*
%TO.P,M7,1*%
%TO.N,Net-(U3-2B)*%
X141214000Y-118364000D03*
D16*
%TO.P,M7,2,-*%
%TO.N,Net-(M7--)*%
X141214000Y-115824000D03*
%TO.P,M7,3*%
%TO.N,Net-(U3-1A)*%
X141214000Y-113284000D03*
%TO.P,M7,4*%
%TO.N,Net-(U3-1B)*%
X141214000Y-110744000D03*
%TD*%
D15*
%TO.P,R1,1*%
%TO.N,7.2V*%
X135382000Y-71295000D03*
%TO.P,R1,2*%
%TO.N,Net-(Q3-D)*%
X135382000Y-69470000D03*
%TD*%
D17*
%TO.P,M1,1,-*%
%TO.N,Net-(M1--)*%
X212658000Y-122949500D03*
D16*
%TO.P,M1,2,+*%
%TO.N,5V*%
X212658000Y-120409500D03*
%TO.P,M1,3,PWM*%
%TO.N,/THUMB_1*%
X212658000Y-117869500D03*
%TD*%
D15*
%TO.P,R7,1*%
%TO.N,GND*%
X180340000Y-130857000D03*
%TO.P,R7,2*%
%TO.N,Net-(M2--)*%
X180340000Y-129032000D03*
%TD*%
%TO.P,R2,1*%
%TO.N,/SERVO_VG*%
X144526000Y-71144500D03*
%TO.P,R2,2*%
%TO.N,Net-(Q3-G)*%
X144526000Y-69319500D03*
%TD*%
D24*
%TO.P,U2,1,Vin*%
%TO.N,15V*%
X110744000Y-37338000D03*
D25*
%TO.P,U2,2,GND*%
%TO.N,GND*%
X110744000Y-55118000D03*
%TO.P,U2,3,GND*%
X151384000Y-55118000D03*
%TO.P,U2,4,Vout*%
%TO.N,12V*%
X151384000Y-37338000D03*
%TD*%
D15*
%TO.P,R3,1*%
%TO.N,GND*%
X185420000Y-130810000D03*
%TO.P,R3,2*%
%TO.N,Net-(M4--)*%
X185420000Y-128985000D03*
%TD*%
%TO.P,R12,1*%
%TO.N,GND*%
X224596000Y-131378500D03*
%TO.P,R12,2*%
%TO.N,Net-(M11-PWM)*%
X224596000Y-129553500D03*
%TD*%
D26*
%TO.P,J1,1*%
%TO.N,15V*%
X105150000Y-90932000D03*
D27*
%TO.P,J1,2*%
%TO.N,GND*%
X99970000Y-90932000D03*
%TD*%
D17*
%TO.P,U4,1,VCC*%
%TO.N,5V*%
X204470000Y-63246000D03*
D16*
%TO.P,U4,2,GND*%
%TO.N,GND*%
X207010000Y-63246000D03*
%TO.P,U4,3,CW*%
%TO.N,/CW*%
X209550000Y-63246000D03*
%TO.P,U4,4,DT*%
%TO.N,/DT*%
X212090000Y-63246000D03*
%TD*%
D28*
%TO.P,R16,1*%
%TO.N,Net-(Q1-S)*%
X140151000Y-122682000D03*
%TO.P,R16,2*%
%TO.N,STP_P*%
X141976000Y-122682000D03*
%TD*%
D15*
%TO.P,R8,1*%
%TO.N,GND*%
X213293000Y-131378500D03*
%TO.P,R8,2*%
%TO.N,Net-(M1--)*%
X213293000Y-129553500D03*
%TD*%
D17*
%TO.P,M4,1,-*%
%TO.N,Net-(M4--)*%
X190246000Y-122682000D03*
D16*
%TO.P,M4,2,+*%
%TO.N,MOTOR_P*%
X190246000Y-120142000D03*
%TO.P,M4,3,PWM*%
%TO.N,/MIDDLE_2*%
X190246000Y-117602000D03*
%TD*%
D15*
%TO.P,R5,1*%
%TO.N,GND*%
X190754000Y-130857000D03*
%TO.P,R5,2*%
%TO.N,Net-(M6--)*%
X190754000Y-129032000D03*
%TD*%
%TO.P,R4,1*%
%TO.N,GND*%
X187960000Y-130857000D03*
%TO.P,R4,2*%
%TO.N,Net-(M5--)*%
X187960000Y-129032000D03*
%TD*%
D29*
%TO.P,C1,1*%
%TO.N,15V*%
X111506000Y-90424000D03*
%TO.P,C1,2*%
%TO.N,GND*%
X113406000Y-90424000D03*
%TD*%
D17*
%TO.P,M3,1,-*%
%TO.N,Net-(M3--)*%
X185420000Y-122682000D03*
D16*
%TO.P,M3,2,+*%
%TO.N,MOTOR_P*%
X185420000Y-120142000D03*
%TO.P,M3,3,PWM*%
%TO.N,/INDEX_2*%
X185420000Y-117602000D03*
%TD*%
D17*
%TO.P,M2,1,-*%
%TO.N,Net-(M2--)*%
X180340000Y-122682000D03*
D16*
%TO.P,M2,2,+*%
%TO.N,MOTOR_P*%
X180340000Y-120142000D03*
%TO.P,M2,3,PWM*%
%TO.N,/THUMB_2*%
X180340000Y-117602000D03*
%TD*%
D17*
%TO.P,M6,1,-*%
%TO.N,Net-(M6--)*%
X200152000Y-122682000D03*
D16*
%TO.P,M6,2,+*%
%TO.N,MOTOR_P*%
X200152000Y-120142000D03*
%TO.P,M6,3,PWM*%
%TO.N,/PINKIE_2*%
X200152000Y-117602000D03*
%TD*%
D24*
%TO.P,U5,1,Vin*%
%TO.N,12V*%
X177800000Y-36830000D03*
D25*
%TO.P,U5,2,GND*%
%TO.N,GND*%
X177800000Y-54610000D03*
%TO.P,U5,3,GND*%
X218440000Y-54610000D03*
%TO.P,U5,4,Vout*%
%TO.N,7.2V*%
X218440000Y-36830000D03*
%TD*%
D15*
%TO.P,R15,1*%
%TO.N,/STP_VG*%
X144356500Y-87931000D03*
%TO.P,R15,2*%
%TO.N,Net-(Q1-G)*%
X144356500Y-86106000D03*
%TD*%
%TO.P,R10,1*%
%TO.N,GND*%
X219008000Y-131378500D03*
%TO.P,R10,2*%
%TO.N,Net-(M9-PWM)*%
X219008000Y-129553500D03*
%TD*%
%TO.P,R11,1*%
%TO.N,GND*%
X221802000Y-131378500D03*
%TO.P,R11,2*%
%TO.N,Net-(M10-PWM)*%
X221802000Y-129553500D03*
%TD*%
D24*
%TO.P,U6,1,Vin*%
%TO.N,7.2V*%
X92710000Y-106426000D03*
D25*
%TO.P,U6,2,GND*%
%TO.N,GND*%
X92710000Y-124206000D03*
%TO.P,U6,3,GND*%
X133350000Y-124206000D03*
%TO.P,U6,4,Vout*%
%TO.N,5V*%
X133350000Y-106426000D03*
%TD*%
D30*
%TO.N,GND*%
X138874000Y-124206000D02*
X133350000Y-124206000D01*
X139636000Y-124968000D02*
X138874000Y-124206000D01*
%TO.N,STP_P*%
X142586000Y-123292000D02*
X141976000Y-122682000D01*
X142586000Y-124968000D02*
X142586000Y-123292000D01*
%TO.N,GND*%
X133858000Y-124714000D02*
X133350000Y-124206000D01*
%TO.N,Net-(Q1-S)*%
X138430000Y-120961000D02*
X140151000Y-122682000D01*
X138430000Y-92710000D02*
X138430000Y-120961000D01*
%TO.N,Net-(Q1-D)*%
X134413000Y-90170000D02*
X133858000Y-90725000D01*
X138430000Y-90170000D02*
X134413000Y-90170000D01*
%TO.N,12V*%
X133729000Y-88771000D02*
X133858000Y-88900000D01*
X133729000Y-54993000D02*
X133729000Y-88771000D01*
X151384000Y-37338000D02*
X133729000Y-54993000D01*
%TO.N,/STP_VG*%
X145307500Y-86980000D02*
X144356500Y-87931000D01*
X145307500Y-85629052D02*
X145307500Y-86980000D01*
X137179000Y-77500552D02*
X145307500Y-85629052D01*
X137179000Y-71449494D02*
X137179000Y-77500552D01*
X138203994Y-70424500D02*
X137179000Y-71449494D01*
X139296006Y-70424500D02*
X138203994Y-70424500D01*
X141126006Y-72254500D02*
X139296006Y-70424500D01*
X151147000Y-72254500D02*
X141126006Y-72254500D01*
X157361500Y-66040000D02*
X151147000Y-72254500D01*
%TO.N,Net-(Q3-S)*%
X138750000Y-74018500D02*
X173228000Y-108496500D01*
X138750000Y-71628000D02*
X138750000Y-74018500D01*
%TO.N,Net-(Q1-G)*%
X139954000Y-86106000D02*
X138430000Y-87630000D01*
X144356500Y-86106000D02*
X139954000Y-86106000D01*
X144356500Y-86106000D02*
X144356500Y-85593500D01*
%TO.N,Net-(Q3-S)*%
X173228000Y-108496500D02*
X173228000Y-121111000D01*
%TO.N,7.2V*%
X134080000Y-69993000D02*
X135382000Y-71295000D01*
X134080000Y-68847664D02*
X134080000Y-69993000D01*
%TO.N,Net-(Q3-D)*%
X135764000Y-69088000D02*
X135382000Y-69470000D01*
X138750000Y-69088000D02*
X135764000Y-69088000D01*
%TO.N,Net-(Q3-G)*%
X141521500Y-69319500D02*
X138750000Y-66548000D01*
X144526000Y-69319500D02*
X141521500Y-69319500D01*
%TO.N,/SERVO_VG*%
X149981500Y-65689000D02*
X144526000Y-71144500D01*
%TO.N,/CW*%
X209550000Y-66548000D02*
X209042000Y-67056000D01*
X209550000Y-63246000D02*
X209550000Y-66548000D01*
%TO.N,/DT*%
X212090000Y-66548000D02*
X211582000Y-67056000D01*
X212090000Y-63246000D02*
X212090000Y-66548000D01*
%TO.N,Net-(M6--)*%
X193802000Y-129032000D02*
X190754000Y-129032000D01*
X200152000Y-122682000D02*
X193802000Y-129032000D01*
%TO.N,Net-(M5--)*%
X188976000Y-129032000D02*
X187960000Y-129032000D01*
X195326000Y-122682000D02*
X188976000Y-129032000D01*
%TO.N,Net-(M4--)*%
X190246000Y-124159000D02*
X185420000Y-128985000D01*
X190246000Y-122682000D02*
X190246000Y-124159000D01*
%TO.N,Net-(M3--)*%
X185420000Y-126492000D02*
X182880000Y-129032000D01*
X185420000Y-122682000D02*
X185420000Y-126492000D01*
%TO.N,Net-(M2--)*%
X180340000Y-122682000D02*
X180340000Y-129032000D01*
%TO.N,/SCL_SERV*%
X191535001Y-104366500D02*
X214911500Y-104366500D01*
%TO.N,GND*%
X227377000Y-103443000D02*
X227429000Y-103495000D01*
X227377000Y-98806000D02*
X227377000Y-103443000D01*
%TO.N,/SDA_SPL*%
X230820127Y-92456000D02*
X231902000Y-92456000D01*
X226228000Y-97048127D02*
X230820127Y-92456000D01*
X226228000Y-103396000D02*
X226228000Y-97048127D01*
X226129000Y-103495000D02*
X226228000Y-103396000D01*
%TO.N,/SCL_SPL*%
X233426000Y-93472000D02*
X234442000Y-92456000D01*
X231270552Y-93472000D02*
X233426000Y-93472000D01*
X226626000Y-98116552D02*
X231270552Y-93472000D01*
X226626000Y-103342000D02*
X226626000Y-98116552D01*
X226779000Y-103495000D02*
X226626000Y-103342000D01*
%TO.N,GND*%
X233929000Y-108633340D02*
X233929000Y-109220000D01*
X233527160Y-108231500D02*
X233929000Y-108633340D01*
X227429000Y-104232499D02*
X231428001Y-108231500D01*
X227429000Y-103495000D02*
X227429000Y-104232499D01*
X231428001Y-108231500D02*
X233527160Y-108231500D01*
%TO.N,/STP_VG*%
X197866000Y-66040000D02*
X157361500Y-66040000D01*
%TO.N,GND*%
X193531500Y-92726500D02*
X193802000Y-92456000D01*
%TO.N,Net-(U8-~{OE})*%
X228729000Y-101010000D02*
X228729000Y-103495000D01*
X230933000Y-98806000D02*
X228729000Y-101010000D01*
%TO.N,Net-(U7-~{OE})*%
X193234000Y-101065500D02*
X195356500Y-98943000D01*
X193234000Y-103378000D02*
X193234000Y-101065500D01*
%TO.N,5V*%
X200363000Y-108114500D02*
X193983001Y-108114500D01*
X189984000Y-104115499D02*
X189984000Y-103378000D01*
X212658000Y-120409500D02*
X200363000Y-108114500D01*
X193983001Y-108114500D02*
X189984000Y-104115499D01*
X211557000Y-117217001D02*
X225279001Y-103495000D01*
%TO.N,GND*%
X228529000Y-131378500D02*
X224596000Y-131378500D01*
X237423000Y-112066552D02*
X237423000Y-122484500D01*
X237423000Y-122484500D02*
X228529000Y-131378500D01*
X234576448Y-109220000D02*
X237423000Y-112066552D01*
X233929000Y-109220000D02*
X234576448Y-109220000D01*
X202438000Y-111809052D02*
X202438000Y-124761000D01*
X199731948Y-109103000D02*
X202438000Y-111809052D01*
X198434000Y-109103000D02*
X199731948Y-109103000D01*
X196342000Y-130857000D02*
X212771500Y-130857000D01*
X202438000Y-124761000D02*
X196342000Y-130857000D01*
%TO.N,5V*%
X225279001Y-103495000D02*
X225479000Y-103495000D01*
X211557000Y-119308500D02*
X211557000Y-117217001D01*
X212658000Y-120409500D02*
X211557000Y-119308500D01*
%TO.N,Net-(M11-PWM)*%
X228152000Y-129553500D02*
X234756000Y-122949500D01*
X224596000Y-129553500D02*
X228152000Y-129553500D01*
%TO.N,Net-(M10-PWM)*%
X222310000Y-129553500D02*
X228914000Y-122949500D01*
X221802000Y-129553500D02*
X222310000Y-129553500D01*
%TO.N,Net-(M9-PWM)*%
X219008000Y-127267500D02*
X223326000Y-122949500D01*
X219008000Y-129553500D02*
X219008000Y-127267500D01*
%TO.N,Net-(M8-PWM)*%
X216214000Y-124727500D02*
X217992000Y-122949500D01*
X216214000Y-129553500D02*
X216214000Y-124727500D01*
%TO.N,Net-(M1--)*%
X213293000Y-123584500D02*
X212658000Y-122949500D01*
X213293000Y-129553500D02*
X213293000Y-123584500D01*
%TO.N,GND*%
X224596000Y-131378500D02*
X213293000Y-131378500D01*
X212771500Y-130857000D02*
X213293000Y-131378500D01*
X190754000Y-130857000D02*
X196342000Y-130857000D01*
X180340000Y-130857000D02*
X190754000Y-130857000D01*
X170481000Y-130857000D02*
X180340000Y-130857000D01*
X161036000Y-121412000D02*
X170481000Y-130857000D01*
%TO.N,MOTOR_P*%
X177546000Y-122936000D02*
X180340000Y-120142000D01*
X173228000Y-122936000D02*
X177546000Y-122936000D01*
%TO.N,Net-(U7-LED0)*%
X193294000Y-109163000D02*
X193234000Y-109103000D01*
X193294000Y-112174000D02*
X193294000Y-109163000D01*
%TO.N,Net-(U7-LED1)*%
X193884000Y-110732000D02*
X193884000Y-109103000D01*
X195326000Y-112174000D02*
X193884000Y-110732000D01*
%TO.N,Net-(U7-LED2)*%
X194534000Y-109840499D02*
X194534000Y-109103000D01*
X196867501Y-112174000D02*
X194534000Y-109840499D01*
X197358000Y-112174000D02*
X196867501Y-112174000D01*
%TO.N,Net-(U7-LED3)*%
X195184000Y-109689660D02*
X195184000Y-109103000D01*
X195936840Y-110442500D02*
X195184000Y-109689660D01*
X197658500Y-110442500D02*
X195936840Y-110442500D01*
X199390000Y-112174000D02*
X197658500Y-110442500D01*
%TO.N,Net-(U7-LED4)*%
X195834000Y-109840499D02*
X195834000Y-109103000D01*
X196085001Y-110091500D02*
X195834000Y-109840499D01*
X199292500Y-110091500D02*
X196085001Y-110091500D01*
X201422000Y-112221000D02*
X199292500Y-110091500D01*
%TO.N,Net-(U8-LED0)*%
X228729000Y-111885000D02*
X228729000Y-109220000D01*
X228139000Y-112475000D02*
X228729000Y-111885000D01*
%TO.N,Net-(U8-LED1)*%
X229379000Y-111683000D02*
X229379000Y-109220000D01*
X230171000Y-112475000D02*
X229379000Y-111683000D01*
%TO.N,Net-(U8-LED2)*%
X230029000Y-110301000D02*
X230029000Y-109220000D01*
X232203000Y-112475000D02*
X230029000Y-110301000D01*
%TO.N,Net-(U8-LED3)*%
X230679000Y-109806660D02*
X230679000Y-109220000D01*
X231431840Y-110559500D02*
X230679000Y-109806660D01*
X232319500Y-110559500D02*
X231431840Y-110559500D01*
X234235000Y-112475000D02*
X232319500Y-110559500D01*
%TO.N,Net-(U8-LED4)*%
X231329000Y-109957499D02*
X231329000Y-109220000D01*
X231580001Y-110208500D02*
X231329000Y-109957499D01*
X236472000Y-112543500D02*
X234137000Y-110208500D01*
X234137000Y-110208500D02*
X231580001Y-110208500D01*
%TO.N,5V*%
X225477000Y-103493000D02*
X225479000Y-103495000D01*
X225477000Y-98806000D02*
X225477000Y-103493000D01*
%TO.N,/SDA_SPL*%
X226129000Y-103495000D02*
X226129000Y-104232499D01*
%TO.N,GND*%
X227377000Y-99267000D02*
X227429000Y-99319000D01*
X227377000Y-98806000D02*
X227377000Y-99267000D01*
X227377000Y-98806000D02*
X229108000Y-98806000D01*
X191772000Y-98943000D02*
X193531500Y-98943000D01*
X191772000Y-103216000D02*
X191934000Y-103378000D01*
X191772000Y-98943000D02*
X191772000Y-103216000D01*
%TO.N,5V*%
X189984000Y-99560000D02*
X189984000Y-103378000D01*
X189872000Y-99448000D02*
X189984000Y-99560000D01*
X189872000Y-98943000D02*
X189872000Y-99448000D01*
X189872000Y-70986000D02*
X189872000Y-98943000D01*
X193802000Y-67056000D02*
X189872000Y-70986000D01*
%TO.N,/THUMB_1*%
X226615000Y-115824000D02*
X228139000Y-114300000D01*
X214703500Y-115824000D02*
X226615000Y-115824000D01*
X212658000Y-117869500D02*
X214703500Y-115824000D01*
%TO.N,/INDEX_1*%
X228053500Y-116417500D02*
X230171000Y-114300000D01*
X219444000Y-116417500D02*
X228053500Y-116417500D01*
X217992000Y-117869500D02*
X219444000Y-116417500D01*
%TO.N,/MIDDLE_1*%
X229734500Y-116768500D02*
X232203000Y-114300000D01*
X224427000Y-116768500D02*
X229734500Y-116768500D01*
X223326000Y-117869500D02*
X224427000Y-116768500D01*
%TO.N,/RING_1*%
X228914000Y-117869500D02*
X230665500Y-117869500D01*
X230665500Y-117869500D02*
X234235000Y-114300000D01*
%TO.N,/PINKIE_1*%
X236472000Y-116153500D02*
X236472000Y-114368500D01*
X234756000Y-117869500D02*
X236472000Y-116153500D01*
%TO.N,/THUMB_2*%
X193294000Y-114300000D02*
X193294000Y-113999000D01*
X192024000Y-115570000D02*
X193294000Y-114300000D01*
X182372000Y-115570000D02*
X192024000Y-115570000D01*
X180340000Y-117602000D02*
X182372000Y-115570000D01*
%TO.N,/INDEX_2*%
X186521000Y-116501000D02*
X192824000Y-116501000D01*
X185420000Y-117602000D02*
X186521000Y-116501000D01*
X192824000Y-116501000D02*
X195326000Y-113999000D01*
%TO.N,/MIDDLE_2*%
X197358000Y-113999000D02*
X193755000Y-117602000D01*
X193755000Y-117602000D02*
X190246000Y-117602000D01*
%TO.N,/RING_2*%
X198882000Y-115570000D02*
X199390000Y-115062000D01*
X197358000Y-115570000D02*
X198882000Y-115570000D01*
X195326000Y-117602000D02*
X197358000Y-115570000D01*
X199390000Y-115062000D02*
X199390000Y-113999000D01*
%TO.N,/PINKIE_2*%
X201422000Y-116332000D02*
X201422000Y-114046000D01*
X200152000Y-117602000D02*
X201422000Y-116332000D01*
%TO.N,STP_P*%
X143764000Y-121412000D02*
X148336000Y-121412000D01*
X142494000Y-122682000D02*
X143764000Y-121412000D01*
X141976000Y-122682000D02*
X142494000Y-122682000D01*
%TO.N,7.2V*%
X146288664Y-56639000D02*
X134080000Y-68847664D01*
X198631000Y-56639000D02*
X146288664Y-56639000D01*
X218440000Y-36830000D02*
X198631000Y-56639000D01*
%TO.N,12V*%
X151892000Y-36830000D02*
X151384000Y-37338000D01*
X177800000Y-36830000D02*
X151892000Y-36830000D01*
%TO.N,/SERVO_VG*%
X200055000Y-65689000D02*
X201422000Y-67056000D01*
X149981500Y-65689000D02*
X200055000Y-65689000D01*
%TO.N,/STP_VG*%
X198882000Y-67056000D02*
X197866000Y-66040000D01*
%TO.N,15V*%
X105150000Y-42932000D02*
X110744000Y-37338000D01*
X105150000Y-90932000D02*
X105150000Y-42932000D01*
X110744000Y-90932000D02*
X105150000Y-90932000D01*
X111506000Y-90424000D02*
X111252000Y-90424000D01*
X111252000Y-90424000D02*
X110744000Y-90932000D01*
%TO.N,GND*%
X102731000Y-93693000D02*
X99970000Y-90932000D01*
X110137000Y-93693000D02*
X102731000Y-93693000D01*
X113406000Y-90424000D02*
X110137000Y-93693000D01*
%TO.N,/SDA_SERV*%
X190634000Y-103378000D02*
X190634000Y-103964660D01*
%TO.N,/SCL_SERV*%
X191284000Y-103378000D02*
X191284000Y-104115499D01*
X191284000Y-104115499D02*
X191535001Y-104366500D01*
%TO.N,/SDA_SERV*%
X190634000Y-103964660D02*
X191386840Y-104717500D01*
%TO.N,GND*%
X193531500Y-98943000D02*
X193531500Y-92726500D01*
%TO.N,/SDA_SERV*%
X191386840Y-104717500D02*
X217100500Y-104717500D01*
%TO.N,/SCL_SERV*%
X214911500Y-104366500D02*
X226822000Y-92456000D01*
%TO.N,/SDA_SERV*%
X217100500Y-104717500D02*
X229362000Y-92456000D01*
%TD*%
M02*
