%TF.GenerationSoftware,KiCad,Pcbnew,9.0.4*%
%TF.CreationDate,2026-04-07T22:58:52-04:00*%
%TF.ProjectId,Hand_System_Rev_1,48616e64-5f53-4797-9374-656d5f526576,rev?*%
%TF.SameCoordinates,Original*%
%TF.FileFunction,Soldermask,Bot*%
%TF.FilePolarity,Negative*%
%FSLAX46Y46*%
G04 Gerber Fmt 4.6, Leading zero omitted, Abs format (unit mm)*
G04 Created by KiCad (PCBNEW 9.0.4) date 2026-04-07 22:58:52*
%MOMM*%
%LPD*%
G01*
G04 APERTURE LIST*
G04 Aperture macros list*
%AMRoundRect*
0 Rectangle with rounded corners*
0 $1 Rounding radius*
0 $2 $3 $4 $5 $6 $7 $8 $9 X,Y pos of 4 corners*
0 Add a 4 corners polygon primitive as box body*
4,1,4,$2,$3,$4,$5,$6,$7,$8,$9,$2,$3,0*
0 Add four circle primitives for the rounded corners*
1,1,$1+$1,$2,$3*
1,1,$1+$1,$4,$5*
1,1,$1+$1,$6,$7*
1,1,$1+$1,$8,$9*
0 Add four rect primitives between the rounded corners*
20,1,$1+$1,$2,$3,$4,$5,0*
20,1,$1+$1,$4,$5,$6,$7,0*
20,1,$1+$1,$6,$7,$8,$9,0*
20,1,$1+$1,$8,$9,$2,$3,0*%
G04 Aperture macros list end*
%ADD10R,2.000000X1.905000*%
%ADD11O,2.000000X1.905000*%
%ADD12C,4.300000*%
%ADD13RoundRect,0.102000X-0.765000X0.765000X-0.765000X-0.765000X0.765000X-0.765000X0.765000X0.765000X0*%
%ADD14C,1.734000*%
%ADD15C,1.700000*%
%ADD16R,1.700000X1.700000*%
%ADD17O,1.600000X1.600000*%
%ADD18R,1.600000X1.600000*%
%ADD19R,2.540000X2.540000*%
%ADD20C,2.540000*%
%ADD21R,2.020000X5.020000*%
%ADD22O,2.020000X5.020000*%
G04 APERTURE END LIST*
D10*
%TO.C,Q3*%
X138750000Y-66548000D03*
D11*
X138750000Y-69088000D03*
X138750000Y-71628000D03*
%TD*%
D10*
%TO.C,Q1*%
X138430000Y-87630000D03*
D11*
X138430000Y-90170000D03*
X138430000Y-92710000D03*
%TD*%
D12*
%TO.C,H1*%
X234188000Y-35687000D03*
%TD*%
%TO.C,H2*%
X93472000Y-35659236D03*
%TD*%
%TO.C,H3*%
X234188000Y-135128000D03*
%TD*%
%TO.C,H4*%
X93470846Y-135001000D03*
%TD*%
D13*
%TO.C,U1*%
X239522000Y-67056000D03*
D14*
X236982000Y-67056000D03*
X234442000Y-67056000D03*
X231902000Y-67056000D03*
X229362000Y-67056000D03*
X226822000Y-67056000D03*
X224282000Y-67056000D03*
X221742000Y-67056000D03*
X219202000Y-67056000D03*
X216662000Y-67056000D03*
X214122000Y-67056000D03*
X211582000Y-67056000D03*
X209042000Y-67056000D03*
X206502000Y-67056000D03*
X203962000Y-67056000D03*
X201422000Y-67056000D03*
X198882000Y-67056000D03*
X196342000Y-67056000D03*
X193802000Y-67056000D03*
X193802000Y-92456000D03*
X196342000Y-92456000D03*
X198882000Y-92456000D03*
X201422000Y-92456000D03*
X203962000Y-92456000D03*
X206502000Y-92456000D03*
X209042000Y-92456000D03*
X211582000Y-92456000D03*
X214122000Y-92456000D03*
X216662000Y-92456000D03*
X219202000Y-92456000D03*
X221742000Y-92456000D03*
X224282000Y-92456000D03*
X226822000Y-92456000D03*
X229362000Y-92456000D03*
X231902000Y-92456000D03*
X234442000Y-92456000D03*
X236982000Y-92456000D03*
X239522000Y-92456000D03*
%TD*%
D15*
%TO.C,M10*%
X228914000Y-117869500D03*
X228914000Y-120409500D03*
D16*
X228914000Y-122949500D03*
%TD*%
D15*
%TO.C,M8*%
X217992000Y-117869500D03*
X217992000Y-120409500D03*
D16*
X217992000Y-122949500D03*
%TD*%
D15*
%TO.C,M9*%
X223326000Y-117869500D03*
X223326000Y-120409500D03*
D16*
X223326000Y-122949500D03*
%TD*%
D15*
%TO.C,M11*%
X234756000Y-117869500D03*
X234756000Y-120409500D03*
D16*
X234756000Y-122949500D03*
%TD*%
D17*
%TO.C,U3*%
X161036000Y-113792000D03*
X161036000Y-121412000D03*
X161036000Y-103632000D03*
X161036000Y-106172000D03*
X161036000Y-108712000D03*
X161036000Y-111252000D03*
X161036000Y-116332000D03*
X161036000Y-118872000D03*
X148336000Y-121412000D03*
X148336000Y-118872000D03*
X148336000Y-116332000D03*
X148336000Y-113792000D03*
X148336000Y-111252000D03*
X148336000Y-108712000D03*
X148336000Y-106172000D03*
D18*
X148336000Y-103632000D03*
%TD*%
D16*
%TO.C,M5*%
X195326000Y-122682000D03*
D15*
X195326000Y-120142000D03*
X195326000Y-117602000D03*
%TD*%
D16*
%TO.C,M7*%
X141214000Y-118364000D03*
D15*
X141214000Y-115824000D03*
X141214000Y-113284000D03*
X141214000Y-110744000D03*
%TD*%
D16*
%TO.C,M1*%
X212658000Y-122949500D03*
D15*
X212658000Y-120409500D03*
X212658000Y-117869500D03*
%TD*%
D19*
%TO.C,U2*%
X110744000Y-37338000D03*
D20*
X110744000Y-55118000D03*
X151384000Y-55118000D03*
X151384000Y-37338000D03*
%TD*%
D21*
%TO.C,J1*%
X105150000Y-90932000D03*
D22*
X99970000Y-90932000D03*
%TD*%
D16*
%TO.C,U4*%
X204470000Y-63246000D03*
D15*
X207010000Y-63246000D03*
X209550000Y-63246000D03*
X212090000Y-63246000D03*
%TD*%
D16*
%TO.C,M4*%
X190246000Y-122682000D03*
D15*
X190246000Y-120142000D03*
X190246000Y-117602000D03*
%TD*%
D16*
%TO.C,M3*%
X185420000Y-122682000D03*
D15*
X185420000Y-120142000D03*
X185420000Y-117602000D03*
%TD*%
D16*
%TO.C,M2*%
X180340000Y-122682000D03*
D15*
X180340000Y-120142000D03*
X180340000Y-117602000D03*
%TD*%
D16*
%TO.C,M6*%
X200152000Y-122682000D03*
D15*
X200152000Y-120142000D03*
X200152000Y-117602000D03*
%TD*%
D19*
%TO.C,U5*%
X177800000Y-36830000D03*
D20*
X177800000Y-54610000D03*
X218440000Y-54610000D03*
X218440000Y-36830000D03*
%TD*%
D19*
%TO.C,U6*%
X92710000Y-106426000D03*
D20*
X92710000Y-124206000D03*
X133350000Y-124206000D03*
X133350000Y-106426000D03*
%TD*%
M02*
