%TF.GenerationSoftware,KiCad,Pcbnew,9.0.4*%
%TF.CreationDate,2026-04-07T22:58:52-04:00*%
%TF.ProjectId,Hand_System_Rev_1,48616e64-5f53-4797-9374-656d5f526576,rev?*%
%TF.SameCoordinates,Original*%
%TF.FileFunction,Paste,Top*%
%TF.FilePolarity,Positive*%
%FSLAX46Y46*%
G04 Gerber Fmt 4.6, Leading zero omitted, Abs format (unit mm)*
G04 Created by KiCad (PCBNEW 9.0.4) date 2026-04-07 22:58:52*
%MOMM*%
%LPD*%
G01*
G04 APERTURE LIST*
G04 Aperture macros list*
%AMRoundRect*
0 Rectangle with rounded corners*
0 $1 Rounding radius*
0 $2 $3 $4 $5 $6 $7 $8 $9 X,Y pos of 4 corners*
0 Add a 4 corners polygon primitive as box body*
4,1,4,$2,$3,$4,$5,$6,$7,$8,$9,$2,$3,0*
0 Add four circle primitives for the rounded corners*
1,1,$1+$1,$2,$3*
1,1,$1+$1,$4,$5*
1,1,$1+$1,$6,$7*
1,1,$1+$1,$8,$9*
0 Add four rect primitives between the rounded corners*
20,1,$1+$1,$2,$3,$4,$5,0*
20,1,$1+$1,$4,$5,$6,$7,0*
20,1,$1+$1,$6,$7,$8,$9,0*
20,1,$1+$1,$8,$9,$2,$3,0*%
G04 Aperture macros list end*
%ADD10RoundRect,0.250000X0.325000X0.650000X-0.325000X0.650000X-0.325000X-0.650000X0.325000X-0.650000X0*%
%ADD11RoundRect,0.250000X0.450000X-0.262500X0.450000X0.262500X-0.450000X0.262500X-0.450000X-0.262500X0*%
%ADD12RoundRect,0.100000X0.100000X-0.637500X0.100000X0.637500X-0.100000X0.637500X-0.100000X-0.637500X0*%
%ADD13RoundRect,0.250000X0.262500X0.450000X-0.262500X0.450000X-0.262500X-0.450000X0.262500X-0.450000X0*%
%ADD14RoundRect,0.250000X0.250000X0.475000X-0.250000X0.475000X-0.250000X-0.475000X0.250000X-0.475000X0*%
%ADD15RoundRect,0.250000X-0.450000X0.262500X-0.450000X-0.262500X0.450000X-0.262500X0.450000X0.262500X0*%
%ADD16RoundRect,0.250000X-0.262500X-0.450000X0.262500X-0.450000X0.262500X0.450000X-0.262500X0.450000X0*%
%ADD17RoundRect,0.250000X-0.250000X-0.475000X0.250000X-0.475000X0.250000X0.475000X-0.250000X0.475000X0*%
G04 APERTURE END LIST*
D10*
%TO.C,C2*%
X142586000Y-124968000D03*
X139636000Y-124968000D03*
%TD*%
D11*
%TO.C,R36*%
X228139000Y-114300000D03*
X228139000Y-112475000D03*
%TD*%
%TO.C,R37*%
X230171000Y-114300000D03*
X230171000Y-112475000D03*
%TD*%
%TO.C,R38*%
X232203000Y-114300000D03*
X232203000Y-112475000D03*
%TD*%
%TO.C,R39*%
X234235000Y-114300000D03*
X234235000Y-112475000D03*
%TD*%
%TO.C,R40*%
X236472000Y-114368500D03*
X236472000Y-112543500D03*
%TD*%
%TO.C,R26*%
X199390000Y-113999000D03*
X199390000Y-112174000D03*
%TD*%
%TO.C,R24*%
X195326000Y-113999000D03*
X195326000Y-112174000D03*
%TD*%
%TO.C,R27*%
X201422000Y-114046000D03*
X201422000Y-112221000D03*
%TD*%
%TO.C,R25*%
X197358000Y-113999000D03*
X197358000Y-112174000D03*
%TD*%
%TO.C,R23*%
X193294000Y-113999000D03*
X193294000Y-112174000D03*
%TD*%
D12*
%TO.C,U8*%
X225479000Y-103495000D03*
X226129000Y-103495000D03*
X226779000Y-103495000D03*
X227429000Y-103495000D03*
X228079000Y-103495000D03*
X228729000Y-103495000D03*
X229379000Y-103495000D03*
X230029000Y-103495000D03*
X230679000Y-103495000D03*
X231329000Y-103495000D03*
X231979000Y-103495000D03*
X232629000Y-103495000D03*
X233279000Y-103495000D03*
X233929000Y-103495000D03*
X233929000Y-109220000D03*
X233279000Y-109220000D03*
X232629000Y-109220000D03*
X231979000Y-109220000D03*
X231329000Y-109220000D03*
X230679000Y-109220000D03*
X230029000Y-109220000D03*
X229379000Y-109220000D03*
X228729000Y-109220000D03*
X228079000Y-109220000D03*
X227429000Y-109220000D03*
X226779000Y-109220000D03*
X226129000Y-109220000D03*
X225479000Y-109220000D03*
%TD*%
D11*
%TO.C,R9*%
X216214000Y-129553500D03*
X216214000Y-131378500D03*
%TD*%
D12*
%TO.C,U7*%
X189984000Y-103378000D03*
X190634000Y-103378000D03*
X191284000Y-103378000D03*
X191934000Y-103378000D03*
X192584000Y-103378000D03*
X193234000Y-103378000D03*
X193884000Y-103378000D03*
X194534000Y-103378000D03*
X195184000Y-103378000D03*
X195834000Y-103378000D03*
X196484000Y-103378000D03*
X197134000Y-103378000D03*
X197784000Y-103378000D03*
X198434000Y-103378000D03*
X198434000Y-109103000D03*
X197784000Y-109103000D03*
X197134000Y-109103000D03*
X196484000Y-109103000D03*
X195834000Y-109103000D03*
X195184000Y-109103000D03*
X194534000Y-109103000D03*
X193884000Y-109103000D03*
X193234000Y-109103000D03*
X192584000Y-109103000D03*
X191934000Y-109103000D03*
X191284000Y-109103000D03*
X190634000Y-109103000D03*
X189984000Y-109103000D03*
%TD*%
D13*
%TO.C,R28*%
X193531500Y-98943000D03*
X195356500Y-98943000D03*
%TD*%
D14*
%TO.C,C3*%
X189872000Y-98943000D03*
X191772000Y-98943000D03*
%TD*%
D13*
%TO.C,R35*%
X230933000Y-98806000D03*
X229108000Y-98806000D03*
%TD*%
D14*
%TO.C,C4*%
X227377000Y-98806000D03*
X225477000Y-98806000D03*
%TD*%
D11*
%TO.C,R6*%
X182880000Y-130857000D03*
X182880000Y-129032000D03*
%TD*%
D15*
%TO.C,R13*%
X173228000Y-121111000D03*
X173228000Y-122936000D03*
%TD*%
D11*
%TO.C,R14*%
X133858000Y-90725000D03*
X133858000Y-88900000D03*
%TD*%
%TO.C,R1*%
X135382000Y-71295000D03*
X135382000Y-69470000D03*
%TD*%
%TO.C,R7*%
X180340000Y-130857000D03*
X180340000Y-129032000D03*
%TD*%
%TO.C,R2*%
X144526000Y-71144500D03*
X144526000Y-69319500D03*
%TD*%
%TO.C,R3*%
X185420000Y-130810000D03*
X185420000Y-128985000D03*
%TD*%
%TO.C,R12*%
X224596000Y-131378500D03*
X224596000Y-129553500D03*
%TD*%
D16*
%TO.C,R16*%
X140151000Y-122682000D03*
X141976000Y-122682000D03*
%TD*%
D11*
%TO.C,R8*%
X213293000Y-131378500D03*
X213293000Y-129553500D03*
%TD*%
%TO.C,R5*%
X190754000Y-130857000D03*
X190754000Y-129032000D03*
%TD*%
%TO.C,R4*%
X187960000Y-130857000D03*
X187960000Y-129032000D03*
%TD*%
D17*
%TO.C,C1*%
X111506000Y-90424000D03*
X113406000Y-90424000D03*
%TD*%
D11*
%TO.C,R15*%
X144356500Y-87931000D03*
X144356500Y-86106000D03*
%TD*%
%TO.C,R10*%
X219008000Y-131378500D03*
X219008000Y-129553500D03*
%TD*%
%TO.C,R11*%
X221802000Y-131378500D03*
X221802000Y-129553500D03*
%TD*%
M02*
