%TF.GenerationSoftware,KiCad,Pcbnew,9.0.4*%
%TF.CreationDate,2026-03-06T19:29:04-05:00*%
%TF.ProjectId,Hand_System_Rev_1,48616e64-5f53-4797-9374-656d5f526576,rev?*%
%TF.SameCoordinates,Original*%
%TF.FileFunction,Copper,L1,Top*%
%TF.FilePolarity,Positive*%
%FSLAX46Y46*%
G04 Gerber Fmt 4.6, Leading zero omitted, Abs format (unit mm)*
G04 Created by KiCad (PCBNEW 9.0.4) date 2026-03-06 19:29:04*
%MOMM*%
%LPD*%
G01*
G04 APERTURE LIST*
G04 Aperture macros list*
%AMRoundRect*
0 Rectangle with rounded corners*
0 $1 Rounding radius*
0 $2 $3 $4 $5 $6 $7 $8 $9 X,Y pos of 4 corners*
0 Add a 4 corners polygon primitive as box body*
4,1,4,$2,$3,$4,$5,$6,$7,$8,$9,$2,$3,0*
0 Add four circle primitives for the rounded corners*
1,1,$1+$1,$2,$3*
1,1,$1+$1,$4,$5*
1,1,$1+$1,$6,$7*
1,1,$1+$1,$8,$9*
0 Add four rect primitives between the rounded corners*
20,1,$1+$1,$2,$3,$4,$5,0*
20,1,$1+$1,$4,$5,$6,$7,0*
20,1,$1+$1,$6,$7,$8,$9,0*
20,1,$1+$1,$8,$9,$2,$3,0*%
G04 Aperture macros list end*
%TA.AperFunction,SMDPad,CuDef*%
%ADD10RoundRect,0.250000X0.450000X-0.262500X0.450000X0.262500X-0.450000X0.262500X-0.450000X-0.262500X0*%
%TD*%
%TA.AperFunction,ComponentPad*%
%ADD11R,1.700000X1.700000*%
%TD*%
%TA.AperFunction,ComponentPad*%
%ADD12C,1.700000*%
%TD*%
%TA.AperFunction,SMDPad,CuDef*%
%ADD13RoundRect,0.250000X-0.262500X-0.450000X0.262500X-0.450000X0.262500X0.450000X-0.262500X0.450000X0*%
%TD*%
%TA.AperFunction,ComponentPad*%
%ADD14R,2.020000X5.020000*%
%TD*%
%TA.AperFunction,ComponentPad*%
%ADD15O,2.020000X5.020000*%
%TD*%
%TA.AperFunction,ComponentPad*%
%ADD16R,1.600000X1.600000*%
%TD*%
%TA.AperFunction,ComponentPad*%
%ADD17O,1.600000X1.600000*%
%TD*%
%TA.AperFunction,SMDPad,CuDef*%
%ADD18RoundRect,0.250000X0.262500X0.450000X-0.262500X0.450000X-0.262500X-0.450000X0.262500X-0.450000X0*%
%TD*%
%TA.AperFunction,SMDPad,CuDef*%
%ADD19R,0.900000X1.250000*%
%TD*%
%TA.AperFunction,SMDPad,CuDef*%
%ADD20R,0.650000X0.650000*%
%TD*%
%TA.AperFunction,SMDPad,CuDef*%
%ADD21R,0.820000X0.600000*%
%TD*%
%TA.AperFunction,ComponentPad*%
%ADD22R,1.530000X1.530000*%
%TD*%
%TA.AperFunction,ComponentPad*%
%ADD23C,1.530000*%
%TD*%
%TA.AperFunction,ComponentPad*%
%ADD24R,2.540000X2.540000*%
%TD*%
%TA.AperFunction,ComponentPad*%
%ADD25C,2.540000*%
%TD*%
%TA.AperFunction,SMDPad,CuDef*%
%ADD26RoundRect,0.250000X-0.250000X-0.475000X0.250000X-0.475000X0.250000X0.475000X-0.250000X0.475000X0*%
%TD*%
%TA.AperFunction,Conductor*%
%ADD27C,0.200000*%
%TD*%
G04 APERTURE END LIST*
D10*
%TO.P,R6,1*%
%TO.N,GND*%
X195707000Y-126031000D03*
%TO.P,R6,2*%
%TO.N,Net-(M3--)*%
X195707000Y-124206000D03*
%TD*%
%TO.P,R4,1*%
%TO.N,GND*%
X220853000Y-126031000D03*
%TO.P,R4,2*%
%TO.N,Net-(M5--)*%
X220853000Y-124206000D03*
%TD*%
%TO.P,R5,1*%
%TO.N,GND*%
X233045000Y-126031000D03*
%TO.P,R5,2*%
%TO.N,Net-(M6--)*%
X233045000Y-124206000D03*
%TD*%
D11*
%TO.P,M11,1,PWM*%
%TO.N,Net-(M11-PWM)*%
X227457000Y-117856000D03*
D12*
%TO.P,M11,2,+*%
%TO.N,MOTOR_P*%
X227457000Y-115316000D03*
%TO.P,M11,3,-*%
%TO.N,/PINKIE_1*%
X227457000Y-112776000D03*
%TD*%
D13*
%TO.P,R16,1*%
%TO.N,Net-(Q2-S)*%
X142494000Y-128270000D03*
%TO.P,R16,2*%
%TO.N,STP_P*%
X144319000Y-128270000D03*
%TD*%
D14*
%TO.P,J1,1*%
%TO.N,15V*%
X105150000Y-90932000D03*
D15*
%TO.P,J1,2*%
%TO.N,GND*%
X99970000Y-90932000D03*
%TD*%
D10*
%TO.P,R12,1*%
%TO.N,GND*%
X227203000Y-126031000D03*
%TO.P,R12,2*%
%TO.N,Net-(M11-PWM)*%
X227203000Y-124206000D03*
%TD*%
D16*
%TO.P,U3,1,GND*%
%TO.N,GND*%
X153426000Y-105664000D03*
D17*
%TO.P,U3,2,VDD*%
%TO.N,5V*%
X153426000Y-108204000D03*
%TO.P,U3,3,1B*%
%TO.N,Net-(U3-1B)*%
X153426000Y-110744000D03*
%TO.P,U3,4,1A*%
%TO.N,Net-(U3-1A)*%
X153426000Y-113284000D03*
%TO.P,U3,5,2A*%
%TO.N,Net-(M7--)*%
X153426000Y-115824000D03*
%TO.P,U3,6,2B*%
%TO.N,Net-(U3-2B)*%
X153426000Y-118364000D03*
%TO.P,U3,7,GND*%
%TO.N,GND*%
X153426000Y-120904000D03*
%TO.P,U3,8,VMOT*%
%TO.N,STP_P*%
X153426000Y-123444000D03*
%TO.P,U3,9,~{ENABLE}*%
%TO.N,GND*%
X166126000Y-123444000D03*
%TO.P,U3,10,MS1*%
%TO.N,unconnected-(U3-MS1-Pad10)*%
X166126000Y-120904000D03*
%TO.P,U3,11,MS2*%
%TO.N,unconnected-(U3-MS2-Pad11)*%
X166126000Y-118364000D03*
%TO.P,U3,12,MS3*%
%TO.N,unconnected-(U3-MS3-Pad12)*%
X166126000Y-115824000D03*
%TO.P,U3,13,~{RESET}*%
%TO.N,unconnected-(U3-~{RESET}-Pad13)*%
X166126000Y-113284000D03*
%TO.P,U3,14,~{SLEEP}*%
%TO.N,unconnected-(U3-~{SLEEP}-Pad14)*%
X166126000Y-110744000D03*
%TO.P,U3,15,STEP*%
%TO.N,/STEP_PIN*%
X166126000Y-108204000D03*
%TO.P,U3,16,DIR*%
%TO.N,/DIR_PIN*%
X166126000Y-105664000D03*
%TD*%
D10*
%TO.P,R8,1*%
%TO.N,GND*%
X178181000Y-126031000D03*
%TO.P,R8,2*%
%TO.N,Net-(M1--)*%
X178181000Y-124206000D03*
%TD*%
%TO.P,R3,1*%
%TO.N,GND*%
X208407000Y-126031000D03*
%TO.P,R3,2*%
%TO.N,Net-(M4--)*%
X208407000Y-124206000D03*
%TD*%
D11*
%TO.P,U4,1,VCC*%
%TO.N,5V*%
X194564000Y-73660000D03*
D12*
%TO.P,U4,2,GND*%
%TO.N,GND*%
X197104000Y-73660000D03*
%TO.P,U4,3,CW*%
%TO.N,/CW*%
X199644000Y-73660000D03*
%TO.P,U4,4,DT*%
%TO.N,/DT*%
X202184000Y-73660000D03*
%TD*%
D11*
%TO.P,M4,1,-*%
%TO.N,Net-(M4--)*%
X208407000Y-117856000D03*
D12*
%TO.P,M4,2,+*%
%TO.N,MOTOR_P*%
X208407000Y-115316000D03*
%TO.P,M4,3,PWM*%
%TO.N,/MIDDLE_2*%
X208407000Y-112776000D03*
%TD*%
D11*
%TO.P,M10,1,PWM*%
%TO.N,Net-(M10-PWM)*%
X215265000Y-117856000D03*
D12*
%TO.P,M10,2,+*%
%TO.N,MOTOR_P*%
X215265000Y-115316000D03*
%TO.P,M10,3,-*%
%TO.N,/RING_1*%
X215265000Y-112776000D03*
%TD*%
D13*
%TO.P,R13,1*%
%TO.N,Net-(Q1-S)*%
X169752000Y-115570000D03*
%TO.P,R13,2*%
%TO.N,MOTOR_P*%
X171577000Y-115570000D03*
%TD*%
D10*
%TO.P,R10,1*%
%TO.N,GND*%
X202819000Y-126031000D03*
%TO.P,R10,2*%
%TO.N,Net-(M9-PWM)*%
X202819000Y-124206000D03*
%TD*%
D18*
%TO.P,R15,1*%
%TO.N,/STP_VG*%
X160424500Y-79502000D03*
%TO.P,R15,2*%
%TO.N,Net-(Q2-G)*%
X158599500Y-79502000D03*
%TD*%
D11*
%TO.P,M6,1,-*%
%TO.N,Net-(M6--)*%
X233045000Y-117856000D03*
D12*
%TO.P,M6,2,+*%
%TO.N,MOTOR_P*%
X233045000Y-115316000D03*
%TO.P,M6,3,PWM*%
%TO.N,/PINKIE_2*%
X233045000Y-112776000D03*
%TD*%
D19*
%TO.P,Q1,1,D*%
%TO.N,Net-(Q1-D)*%
X150622000Y-66040000D03*
X150622000Y-67690000D03*
X155532000Y-66040000D03*
X155532000Y-67690000D03*
D20*
%TO.P,Q1,2,G*%
%TO.N,Net-(Q1-G)*%
X152312000Y-66865000D03*
D21*
%TO.P,Q1,3,S*%
%TO.N,Net-(Q1-S)*%
X153702000Y-66450000D03*
X153702000Y-67280000D03*
%TD*%
D22*
%TO.P,U1,1,3V3*%
%TO.N,3.3V*%
X230258000Y-78250500D03*
D23*
%TO.P,U1,2,EN*%
%TO.N,unconnected-(U1-EN-Pad2)*%
X227718000Y-78250500D03*
%TO.P,U1,3,VP*%
%TO.N,unconnected-(U1-VP-Pad3)*%
X225178000Y-78250500D03*
%TO.P,U1,4,VN*%
%TO.N,unconnected-(U1-VN-Pad4)*%
X222638000Y-78250500D03*
%TO.P,U1,5,34*%
%TO.N,unconnected-(U1-34-Pad5)*%
X220098000Y-78250500D03*
%TO.P,U1,6,35*%
%TO.N,unconnected-(U1-35-Pad6)*%
X217558000Y-78250500D03*
%TO.P,U1,7,32*%
%TO.N,unconnected-(U1-32-Pad7)*%
X215018000Y-78250500D03*
%TO.P,U1,8,33*%
%TO.N,unconnected-(U1-33-Pad8)*%
X212478000Y-78250500D03*
%TO.P,U1,9,25*%
%TO.N,unconnected-(U1-25-Pad9)*%
X209938000Y-78250500D03*
%TO.P,U1,10,26*%
%TO.N,unconnected-(U1-26-Pad10)*%
X207398000Y-78250500D03*
%TO.P,U1,11,27*%
%TO.N,unconnected-(U1-27-Pad11)*%
X204858000Y-78250500D03*
%TO.P,U1,12,14*%
%TO.N,/DT*%
X202318000Y-78250500D03*
%TO.P,U1,13,12*%
%TO.N,/CW*%
X199778000Y-78250500D03*
%TO.P,U1,14,GND*%
%TO.N,GND*%
X197238000Y-78250500D03*
%TO.P,U1,15,13*%
%TO.N,/STP_VG*%
X194698000Y-78250500D03*
%TO.P,U1,16,D2*%
%TO.N,/SERVO_VG*%
X192158000Y-78250500D03*
%TO.P,U1,17,D3*%
%TO.N,unconnected-(U1-D3-Pad17)*%
X189618000Y-78250500D03*
%TO.P,U1,18,CMD*%
%TO.N,unconnected-(U1-CMD-Pad18)*%
X187078000Y-78250500D03*
%TO.P,U1,19,5V*%
%TO.N,5V*%
X184538000Y-78250500D03*
%TO.P,U1,20,GND__1*%
%TO.N,GND*%
X184538000Y-103650500D03*
%TO.P,U1,21,23*%
%TO.N,/DIR_PIN*%
X187078000Y-103650500D03*
%TO.P,U1,22,22*%
%TO.N,/STEP_PIN*%
X189618000Y-103650500D03*
%TO.P,U1,23,TX*%
%TO.N,/THUMB_1*%
X192158000Y-103650500D03*
%TO.P,U1,24,RX*%
%TO.N,/THUMB_2*%
X194698000Y-103650500D03*
%TO.P,U1,25,21*%
%TO.N,/INDEX_1*%
X197238000Y-103650500D03*
%TO.P,U1,26,GND__2*%
%TO.N,GND*%
X199778000Y-103650500D03*
%TO.P,U1,27,19*%
%TO.N,/INDEX_2*%
X202318000Y-103650500D03*
%TO.P,U1,28,18*%
%TO.N,/MIDDLE_1*%
X204858000Y-103650500D03*
%TO.P,U1,29,5*%
%TO.N,/MIDDLE_2*%
X207398000Y-103650500D03*
%TO.P,U1,30,17*%
%TO.N,/RING_1*%
X209938000Y-103650500D03*
%TO.P,U1,31,16*%
%TO.N,/RING_2*%
X212478000Y-103650500D03*
%TO.P,U1,32,4*%
%TO.N,/PINKIE_1*%
X215018000Y-103650500D03*
%TO.P,U1,33,0*%
%TO.N,/PINKIE_2*%
X217558000Y-103650500D03*
%TO.P,U1,34,2*%
%TO.N,unconnected-(U1-2-Pad34)*%
X220098000Y-103650500D03*
%TO.P,U1,35,15*%
%TO.N,unconnected-(U1-15-Pad35)*%
X222638000Y-103650500D03*
%TO.P,U1,36,D1*%
%TO.N,unconnected-(U1-D1-Pad36)*%
X225178000Y-103650500D03*
%TO.P,U1,37,D0*%
%TO.N,unconnected-(U1-D0-Pad37)*%
X227718000Y-103650500D03*
%TO.P,U1,38,CLK*%
%TO.N,unconnected-(U1-CLK-Pad38)*%
X230258000Y-103650500D03*
%TD*%
D11*
%TO.P,M2,1,-*%
%TO.N,Net-(M2--)*%
X183515000Y-117856000D03*
D12*
%TO.P,M2,2,+*%
%TO.N,MOTOR_P*%
X183515000Y-115316000D03*
%TO.P,M2,3,PWM*%
%TO.N,/THUMB_2*%
X183515000Y-112776000D03*
%TD*%
D11*
%TO.P,M5,1,-*%
%TO.N,Net-(M5--)*%
X220853000Y-117856000D03*
D12*
%TO.P,M5,2,+*%
%TO.N,MOTOR_P*%
X220853000Y-115316000D03*
%TO.P,M5,3,PWM*%
%TO.N,/RING_2*%
X220853000Y-112776000D03*
%TD*%
D11*
%TO.P,M3,1,-*%
%TO.N,Net-(M3--)*%
X195707000Y-117856000D03*
D12*
%TO.P,M3,2,+*%
%TO.N,MOTOR_P*%
X195707000Y-115316000D03*
%TO.P,M3,3,PWM*%
%TO.N,/INDEX_2*%
X195707000Y-112776000D03*
%TD*%
D19*
%TO.P,Q2,1,D*%
%TO.N,Net-(Q2-D)*%
X148439500Y-78360000D03*
X148439500Y-80010000D03*
X153349500Y-78360000D03*
X153349500Y-80010000D03*
D20*
%TO.P,Q2,2,G*%
%TO.N,Net-(Q2-G)*%
X150129500Y-79185000D03*
D21*
%TO.P,Q2,3,S*%
%TO.N,Net-(Q2-S)*%
X151519500Y-78770000D03*
X151519500Y-79600000D03*
%TD*%
D24*
%TO.P,U5,1,Vin*%
%TO.N,12V*%
X177800000Y-36830000D03*
D25*
%TO.P,U5,2,GND*%
%TO.N,GND*%
X177800000Y-54610000D03*
%TO.P,U5,3,GND*%
X218440000Y-54610000D03*
%TO.P,U5,4,Vout*%
%TO.N,7.2V*%
X218440000Y-36830000D03*
%TD*%
D11*
%TO.P,M9,1,PWM*%
%TO.N,Net-(M9-PWM)*%
X202819000Y-117856000D03*
D12*
%TO.P,M9,2,+*%
%TO.N,MOTOR_P*%
X202819000Y-115316000D03*
%TO.P,M9,3,-*%
%TO.N,/MIDDLE_1*%
X202819000Y-112776000D03*
%TD*%
D24*
%TO.P,U2,1,Vin*%
%TO.N,15V*%
X100584000Y-36322000D03*
D25*
%TO.P,U2,2,GND*%
%TO.N,GND*%
X100584000Y-54102000D03*
%TO.P,U2,3,GND*%
X141224000Y-54102000D03*
%TO.P,U2,4,Vout*%
%TO.N,12V*%
X141224000Y-36322000D03*
%TD*%
D18*
%TO.P,R2,1*%
%TO.N,/SERVO_VG*%
X161591000Y-66294000D03*
%TO.P,R2,2*%
%TO.N,Net-(Q1-G)*%
X159766000Y-66294000D03*
%TD*%
D10*
%TO.P,R11,1*%
%TO.N,GND*%
X215265000Y-126031000D03*
%TO.P,R11,2*%
%TO.N,Net-(M10-PWM)*%
X215265000Y-124206000D03*
%TD*%
D11*
%TO.P,M8,1,PWM*%
%TO.N,Net-(M8-PWM)*%
X190119000Y-117856000D03*
D12*
%TO.P,M8,2,+*%
%TO.N,MOTOR_P*%
X190119000Y-115316000D03*
%TO.P,M8,3,-*%
%TO.N,/INDEX_1*%
X190119000Y-112776000D03*
%TD*%
D10*
%TO.P,R7,1*%
%TO.N,GND*%
X183515000Y-126031000D03*
%TO.P,R7,2*%
%TO.N,Net-(M2--)*%
X183515000Y-124206000D03*
%TD*%
D11*
%TO.P,M1,1,-*%
%TO.N,Net-(M1--)*%
X178181000Y-117856000D03*
D12*
%TO.P,M1,2,+*%
%TO.N,MOTOR_P*%
X178181000Y-115316000D03*
%TO.P,M1,3,PWM*%
%TO.N,/THUMB_1*%
X178181000Y-112776000D03*
%TD*%
D13*
%TO.P,R1,1*%
%TO.N,7.2V*%
X147066000Y-66294000D03*
%TO.P,R1,2*%
%TO.N,Net-(Q1-D)*%
X148891000Y-66294000D03*
%TD*%
D11*
%TO.P,M7,1*%
%TO.N,Net-(U3-2B)*%
X148082000Y-118872000D03*
D12*
%TO.P,M7,2,-*%
%TO.N,Net-(M7--)*%
X148082000Y-116332000D03*
%TO.P,M7,3*%
%TO.N,Net-(U3-1A)*%
X148082000Y-113792000D03*
%TO.P,M7,4*%
%TO.N,Net-(U3-1B)*%
X148082000Y-111252000D03*
%TD*%
D10*
%TO.P,R14,1*%
%TO.N,Net-(Q2-D)*%
X144629500Y-79906500D03*
%TO.P,R14,2*%
%TO.N,12V*%
X144629500Y-78081500D03*
%TD*%
%TO.P,R9,1*%
%TO.N,GND*%
X190119000Y-126031000D03*
%TO.P,R9,2*%
%TO.N,Net-(M8-PWM)*%
X190119000Y-124206000D03*
%TD*%
D26*
%TO.P,C2,1*%
%TO.N,STP_P*%
X144404000Y-133096000D03*
%TO.P,C2,2*%
%TO.N,GND*%
X146304000Y-133096000D03*
%TD*%
%TO.P,C1,1*%
%TO.N,15V*%
X111506000Y-90424000D03*
%TO.P,C1,2*%
%TO.N,GND*%
X113406000Y-90424000D03*
%TD*%
D24*
%TO.P,U6,1,Vin*%
%TO.N,7.2V*%
X92710000Y-106426000D03*
D25*
%TO.P,U6,2,GND*%
%TO.N,GND*%
X92710000Y-124206000D03*
%TO.P,U6,3,GND*%
X133350000Y-124206000D03*
%TO.P,U6,4,Vout*%
%TO.N,5V*%
X133350000Y-106426000D03*
%TD*%
D27*
%TO.N,Net-(Q2-S)*%
X149553500Y-79761000D02*
X151358500Y-79761000D01*
X149479000Y-79686500D02*
X149553500Y-79761000D01*
X149239000Y-77484000D02*
X149479000Y-77724000D01*
X149479000Y-77724000D02*
X149479000Y-79686500D01*
X146952948Y-77484000D02*
X149239000Y-77484000D01*
X151358500Y-79761000D02*
X151519500Y-79600000D01*
%TO.N,GND*%
X215265000Y-126031000D02*
X220853000Y-126031000D01*
%TO.N,Net-(Q1-S)*%
X153702000Y-66450000D02*
X153702000Y-67280000D01*
%TO.N,GND*%
X233045000Y-126031000D02*
X227203000Y-126031000D01*
X227203000Y-126031000D02*
X220853000Y-126031000D01*
X215265000Y-126031000D02*
X208407000Y-126031000D01*
X208407000Y-126031000D02*
X202819000Y-126031000D01*
X202819000Y-126031000D02*
X195707000Y-126031000D01*
X195707000Y-126031000D02*
X190119000Y-126031000D01*
X183515000Y-126031000D02*
X190119000Y-126031000D01*
X178181000Y-126031000D02*
X183515000Y-126031000D01*
%TO.N,12V*%
X177292000Y-36322000D02*
X177800000Y-36830000D01*
X141224000Y-36322000D02*
X177292000Y-36322000D01*
X144629500Y-39727500D02*
X141224000Y-36322000D01*
X144629500Y-78081500D02*
X144629500Y-39727500D01*
%TO.N,7.2V*%
X147066000Y-66294000D02*
X175009000Y-38351000D01*
%TO.N,Net-(Q1-D)*%
X149828611Y-64813000D02*
X151935000Y-64813000D01*
X151935000Y-64813000D02*
X152908000Y-65786000D01*
X152908000Y-65786000D02*
X152908000Y-68326000D01*
X148891000Y-66294000D02*
X148891000Y-65750611D01*
X152908000Y-68326000D02*
X154896000Y-68326000D01*
X148891000Y-65750611D02*
X149828611Y-64813000D01*
%TO.N,Net-(Q1-G)*%
X156718000Y-69342000D02*
X159766000Y-66294000D01*
X150114000Y-69342000D02*
X156718000Y-69342000D01*
X149606000Y-68834000D02*
X150114000Y-69342000D01*
X149654500Y-68785500D02*
X149606000Y-68834000D01*
X149606000Y-65532000D02*
X149654500Y-65580500D01*
X152312000Y-66153000D02*
X151323000Y-65164000D01*
X149654500Y-65580500D02*
X149654500Y-68785500D01*
X149974000Y-65164000D02*
X149606000Y-65532000D01*
X151323000Y-65164000D02*
X149974000Y-65164000D01*
X152312000Y-66865000D02*
X152312000Y-66153000D01*
%TO.N,Net-(Q1-D)*%
X151258000Y-68326000D02*
X152908000Y-68326000D01*
X150368000Y-66294000D02*
X150622000Y-66040000D01*
X155532000Y-67690000D02*
X155532000Y-66040000D01*
X150622000Y-67690000D02*
X151258000Y-68326000D01*
X154896000Y-68326000D02*
X155532000Y-67690000D01*
X150622000Y-66040000D02*
X150622000Y-67690000D01*
%TO.N,/STP_VG*%
X192158000Y-80790500D02*
X194698000Y-78250500D01*
X160424500Y-79502000D02*
X161713000Y-80790500D01*
X161713000Y-80790500D02*
X192158000Y-80790500D01*
%TO.N,Net-(Q2-S)*%
X143678500Y-123410481D02*
X143678500Y-79429552D01*
X142494000Y-124594981D02*
X143678500Y-123410481D01*
%TO.N,STP_P*%
X148600000Y-128270000D02*
X153426000Y-123444000D01*
X144319000Y-128270000D02*
X148600000Y-128270000D01*
%TO.N,GND*%
X145328000Y-134072000D02*
X146304000Y-133096000D01*
X143216000Y-134072000D02*
X145328000Y-134072000D01*
X133350000Y-124206000D02*
X143216000Y-134072000D01*
%TO.N,15V*%
X105150000Y-56516981D02*
X100584000Y-51950981D01*
X105150000Y-90932000D02*
X105150000Y-56516981D01*
%TO.N,GND*%
X110137000Y-93693000D02*
X113406000Y-90424000D01*
X99970000Y-90932000D02*
X102731000Y-93693000D01*
X102731000Y-93693000D02*
X110137000Y-93693000D01*
%TO.N,15V*%
X110998000Y-90932000D02*
X111506000Y-90424000D01*
X105150000Y-90932000D02*
X110998000Y-90932000D01*
%TO.N,Net-(Q1-S)*%
X154488000Y-65164000D02*
X153702000Y-65950000D01*
X183048341Y-65164000D02*
X154488000Y-65164000D01*
X195714000Y-89608000D02*
X195714000Y-77829659D01*
X153702000Y-65950000D02*
X153702000Y-66450000D01*
X169752000Y-115570000D02*
X195714000Y-89608000D01*
X195714000Y-77829659D02*
X183048341Y-65164000D01*
%TO.N,/SERVO_VG*%
X180201500Y-66294000D02*
X192158000Y-78250500D01*
X161591000Y-66294000D02*
X180201500Y-66294000D01*
%TO.N,STP_P*%
X144319000Y-133011000D02*
X144404000Y-133096000D01*
X144319000Y-128270000D02*
X144319000Y-133011000D01*
%TO.N,Net-(Q2-S)*%
X142494000Y-124594981D02*
X142494000Y-128270000D01*
X143965052Y-79143000D02*
X143678500Y-79429552D01*
X145293948Y-79143000D02*
X143965052Y-79143000D01*
X146952948Y-77484000D02*
X145293948Y-79143000D01*
X151519500Y-79600000D02*
X151319500Y-79800000D01*
%TO.N,Net-(Q2-D)*%
X153349500Y-80010000D02*
X153349500Y-78360000D01*
X153208500Y-80151000D02*
X153349500Y-80010000D01*
X148580500Y-80151000D02*
X153208500Y-80151000D01*
X148439500Y-80010000D02*
X148580500Y-80151000D01*
X148336000Y-79906500D02*
X148439500Y-80010000D01*
X144629500Y-79906500D02*
X148336000Y-79906500D01*
X148439500Y-78360000D02*
X148439500Y-80010000D01*
%TO.N,Net-(Q2-S)*%
X151519500Y-78770000D02*
X151519500Y-79600000D01*
%TO.N,Net-(Q2-G)*%
X151593500Y-77484000D02*
X156581500Y-77484000D01*
X156581500Y-77484000D02*
X158599500Y-79502000D01*
X150129500Y-79185000D02*
X150129500Y-78948000D01*
X150129500Y-78948000D02*
X151593500Y-77484000D01*
%TO.N,7.2V*%
X218440000Y-36830000D02*
X216919000Y-38351000D01*
X216919000Y-38351000D02*
X175009000Y-38351000D01*
%TO.N,15V*%
X100584000Y-51950981D02*
X100584000Y-36322000D01*
%TO.N,MOTOR_P*%
X232791000Y-115570000D02*
X233045000Y-115316000D01*
X171577000Y-115570000D02*
X232791000Y-115570000D01*
%TO.N,GND*%
X168713000Y-126031000D02*
X166126000Y-123444000D01*
X178181000Y-126031000D02*
X168713000Y-126031000D01*
%TO.N,Net-(M1--)*%
X178181000Y-117856000D02*
X178181000Y-124206000D01*
%TO.N,Net-(M2--)*%
X183515000Y-117856000D02*
X183515000Y-124206000D01*
%TO.N,Net-(M8-PWM)*%
X190119000Y-117856000D02*
X190119000Y-124206000D01*
%TO.N,Net-(M3--)*%
X195707000Y-117856000D02*
X195707000Y-124206000D01*
%TO.N,Net-(M9-PWM)*%
X202819000Y-117856000D02*
X202819000Y-124206000D01*
%TO.N,Net-(M4--)*%
X208407000Y-117856000D02*
X208407000Y-124206000D01*
%TO.N,Net-(M10-PWM)*%
X215265000Y-117856000D02*
X215265000Y-124206000D01*
%TO.N,Net-(M5--)*%
X220853000Y-117856000D02*
X220853000Y-124206000D01*
%TO.N,Net-(M11-PWM)*%
X227203000Y-118110000D02*
X227457000Y-117856000D01*
X227203000Y-124206000D02*
X227203000Y-118110000D01*
%TO.N,Net-(M6--)*%
X233045000Y-124206000D02*
X233045000Y-117856000D01*
%TD*%
M02*
