%TF.GenerationSoftware,KiCad,Pcbnew,9.0.4*%
%TF.CreationDate,2026-03-06T19:29:05-05:00*%
%TF.ProjectId,Hand_System_Rev_1,48616e64-5f53-4797-9374-656d5f526576,rev?*%
%TF.SameCoordinates,Original*%
%TF.FileFunction,Paste,Top*%
%TF.FilePolarity,Positive*%
%FSLAX46Y46*%
G04 Gerber Fmt 4.6, Leading zero omitted, Abs format (unit mm)*
G04 Created by KiCad (PCBNEW 9.0.4) date 2026-03-06 19:29:05*
%MOMM*%
%LPD*%
G01*
G04 APERTURE LIST*
G04 Aperture macros list*
%AMRoundRect*
0 Rectangle with rounded corners*
0 $1 Rounding radius*
0 $2 $3 $4 $5 $6 $7 $8 $9 X,Y pos of 4 corners*
0 Add a 4 corners polygon primitive as box body*
4,1,4,$2,$3,$4,$5,$6,$7,$8,$9,$2,$3,0*
0 Add four circle primitives for the rounded corners*
1,1,$1+$1,$2,$3*
1,1,$1+$1,$4,$5*
1,1,$1+$1,$6,$7*
1,1,$1+$1,$8,$9*
0 Add four rect primitives between the rounded corners*
20,1,$1+$1,$2,$3,$4,$5,0*
20,1,$1+$1,$4,$5,$6,$7,0*
20,1,$1+$1,$6,$7,$8,$9,0*
20,1,$1+$1,$8,$9,$2,$3,0*%
G04 Aperture macros list end*
%ADD10RoundRect,0.250000X0.450000X-0.262500X0.450000X0.262500X-0.450000X0.262500X-0.450000X-0.262500X0*%
%ADD11RoundRect,0.250000X-0.262500X-0.450000X0.262500X-0.450000X0.262500X0.450000X-0.262500X0.450000X0*%
%ADD12RoundRect,0.250000X0.262500X0.450000X-0.262500X0.450000X-0.262500X-0.450000X0.262500X-0.450000X0*%
%ADD13R,0.900000X1.250000*%
%ADD14R,0.650000X0.650000*%
%ADD15R,0.820000X0.600000*%
%ADD16RoundRect,0.250000X-0.250000X-0.475000X0.250000X-0.475000X0.250000X0.475000X-0.250000X0.475000X0*%
G04 APERTURE END LIST*
D10*
%TO.C,R6*%
X195707000Y-126031000D03*
X195707000Y-124206000D03*
%TD*%
%TO.C,R4*%
X220853000Y-126031000D03*
X220853000Y-124206000D03*
%TD*%
%TO.C,R5*%
X233045000Y-126031000D03*
X233045000Y-124206000D03*
%TD*%
D11*
%TO.C,R16*%
X142494000Y-128270000D03*
X144319000Y-128270000D03*
%TD*%
D10*
%TO.C,R12*%
X227203000Y-126031000D03*
X227203000Y-124206000D03*
%TD*%
%TO.C,R8*%
X178181000Y-126031000D03*
X178181000Y-124206000D03*
%TD*%
%TO.C,R3*%
X208407000Y-126031000D03*
X208407000Y-124206000D03*
%TD*%
D11*
%TO.C,R13*%
X169752000Y-115570000D03*
X171577000Y-115570000D03*
%TD*%
D10*
%TO.C,R10*%
X202819000Y-126031000D03*
X202819000Y-124206000D03*
%TD*%
D12*
%TO.C,R15*%
X160424500Y-79502000D03*
X158599500Y-79502000D03*
%TD*%
D13*
%TO.C,Q1*%
X150622000Y-66040000D03*
X150622000Y-67690000D03*
X155532000Y-66040000D03*
X155532000Y-67690000D03*
D14*
X152312000Y-66865000D03*
D15*
X153702000Y-66450000D03*
X153702000Y-67280000D03*
%TD*%
D13*
%TO.C,Q2*%
X148439500Y-78360000D03*
X148439500Y-80010000D03*
X153349500Y-78360000D03*
X153349500Y-80010000D03*
D14*
X150129500Y-79185000D03*
D15*
X151519500Y-78770000D03*
X151519500Y-79600000D03*
%TD*%
D12*
%TO.C,R2*%
X161591000Y-66294000D03*
X159766000Y-66294000D03*
%TD*%
D10*
%TO.C,R11*%
X215265000Y-126031000D03*
X215265000Y-124206000D03*
%TD*%
%TO.C,R7*%
X183515000Y-126031000D03*
X183515000Y-124206000D03*
%TD*%
D11*
%TO.C,R1*%
X147066000Y-66294000D03*
X148891000Y-66294000D03*
%TD*%
D10*
%TO.C,R14*%
X144629500Y-79906500D03*
X144629500Y-78081500D03*
%TD*%
%TO.C,R9*%
X190119000Y-126031000D03*
X190119000Y-124206000D03*
%TD*%
D16*
%TO.C,C2*%
X144404000Y-133096000D03*
X146304000Y-133096000D03*
%TD*%
%TO.C,C1*%
X111506000Y-90424000D03*
X113406000Y-90424000D03*
%TD*%
M02*
