%TF.GenerationSoftware,KiCad,Pcbnew,9.0.4*%
%TF.CreationDate,2026-03-06T19:29:05-05:00*%
%TF.ProjectId,Hand_System_Rev_1,48616e64-5f53-4797-9374-656d5f526576,rev?*%
%TF.SameCoordinates,Original*%
%TF.FileFunction,Copper,L4,Bot*%
%TF.FilePolarity,Positive*%
%FSLAX46Y46*%
G04 Gerber Fmt 4.6, Leading zero omitted, Abs format (unit mm)*
G04 Created by KiCad (PCBNEW 9.0.4) date 2026-03-06 19:29:05*
%MOMM*%
%LPD*%
G01*
G04 APERTURE LIST*
%TA.AperFunction,ComponentPad*%
%ADD10R,1.700000X1.700000*%
%TD*%
%TA.AperFunction,ComponentPad*%
%ADD11C,1.700000*%
%TD*%
%TA.AperFunction,ComponentPad*%
%ADD12R,2.020000X5.020000*%
%TD*%
%TA.AperFunction,ComponentPad*%
%ADD13O,2.020000X5.020000*%
%TD*%
%TA.AperFunction,ComponentPad*%
%ADD14R,1.600000X1.600000*%
%TD*%
%TA.AperFunction,ComponentPad*%
%ADD15O,1.600000X1.600000*%
%TD*%
%TA.AperFunction,ComponentPad*%
%ADD16R,1.530000X1.530000*%
%TD*%
%TA.AperFunction,ComponentPad*%
%ADD17C,1.530000*%
%TD*%
%TA.AperFunction,ComponentPad*%
%ADD18R,2.540000X2.540000*%
%TD*%
%TA.AperFunction,ComponentPad*%
%ADD19C,2.540000*%
%TD*%
%TA.AperFunction,Conductor*%
%ADD20C,0.200000*%
%TD*%
G04 APERTURE END LIST*
D10*
%TO.P,M11,1,PWM*%
%TO.N,Net-(M11-PWM)*%
X227457000Y-117856000D03*
D11*
%TO.P,M11,2,+*%
%TO.N,MOTOR_P*%
X227457000Y-115316000D03*
%TO.P,M11,3,-*%
%TO.N,/PINKIE_1*%
X227457000Y-112776000D03*
%TD*%
D12*
%TO.P,J1,1*%
%TO.N,15V*%
X105150000Y-90932000D03*
D13*
%TO.P,J1,2*%
%TO.N,GND*%
X99970000Y-90932000D03*
%TD*%
D14*
%TO.P,U3,1,GND*%
%TO.N,GND*%
X153426000Y-105664000D03*
D15*
%TO.P,U3,2,VDD*%
%TO.N,5V*%
X153426000Y-108204000D03*
%TO.P,U3,3,1B*%
%TO.N,Net-(U3-1B)*%
X153426000Y-110744000D03*
%TO.P,U3,4,1A*%
%TO.N,Net-(U3-1A)*%
X153426000Y-113284000D03*
%TO.P,U3,5,2A*%
%TO.N,Net-(M7--)*%
X153426000Y-115824000D03*
%TO.P,U3,6,2B*%
%TO.N,Net-(U3-2B)*%
X153426000Y-118364000D03*
%TO.P,U3,7,GND*%
%TO.N,GND*%
X153426000Y-120904000D03*
%TO.P,U3,8,VMOT*%
%TO.N,STP_P*%
X153426000Y-123444000D03*
%TO.P,U3,9,~{ENABLE}*%
%TO.N,GND*%
X166126000Y-123444000D03*
%TO.P,U3,10,MS1*%
%TO.N,unconnected-(U3-MS1-Pad10)*%
X166126000Y-120904000D03*
%TO.P,U3,11,MS2*%
%TO.N,unconnected-(U3-MS2-Pad11)*%
X166126000Y-118364000D03*
%TO.P,U3,12,MS3*%
%TO.N,unconnected-(U3-MS3-Pad12)*%
X166126000Y-115824000D03*
%TO.P,U3,13,~{RESET}*%
%TO.N,unconnected-(U3-~{RESET}-Pad13)*%
X166126000Y-113284000D03*
%TO.P,U3,14,~{SLEEP}*%
%TO.N,unconnected-(U3-~{SLEEP}-Pad14)*%
X166126000Y-110744000D03*
%TO.P,U3,15,STEP*%
%TO.N,/STEP_PIN*%
X166126000Y-108204000D03*
%TO.P,U3,16,DIR*%
%TO.N,/DIR_PIN*%
X166126000Y-105664000D03*
%TD*%
D10*
%TO.P,U4,1,VCC*%
%TO.N,5V*%
X194564000Y-73660000D03*
D11*
%TO.P,U4,2,GND*%
%TO.N,GND*%
X197104000Y-73660000D03*
%TO.P,U4,3,CW*%
%TO.N,/CW*%
X199644000Y-73660000D03*
%TO.P,U4,4,DT*%
%TO.N,/DT*%
X202184000Y-73660000D03*
%TD*%
D10*
%TO.P,M4,1,-*%
%TO.N,Net-(M4--)*%
X208407000Y-117856000D03*
D11*
%TO.P,M4,2,+*%
%TO.N,MOTOR_P*%
X208407000Y-115316000D03*
%TO.P,M4,3,PWM*%
%TO.N,/MIDDLE_2*%
X208407000Y-112776000D03*
%TD*%
D10*
%TO.P,M10,1,PWM*%
%TO.N,Net-(M10-PWM)*%
X215265000Y-117856000D03*
D11*
%TO.P,M10,2,+*%
%TO.N,MOTOR_P*%
X215265000Y-115316000D03*
%TO.P,M10,3,-*%
%TO.N,/RING_1*%
X215265000Y-112776000D03*
%TD*%
D10*
%TO.P,M6,1,-*%
%TO.N,Net-(M6--)*%
X233045000Y-117856000D03*
D11*
%TO.P,M6,2,+*%
%TO.N,MOTOR_P*%
X233045000Y-115316000D03*
%TO.P,M6,3,PWM*%
%TO.N,/PINKIE_2*%
X233045000Y-112776000D03*
%TD*%
D16*
%TO.P,U1,1,3V3*%
%TO.N,3.3V*%
X230258000Y-78250500D03*
D17*
%TO.P,U1,2,EN*%
%TO.N,unconnected-(U1-EN-Pad2)*%
X227718000Y-78250500D03*
%TO.P,U1,3,VP*%
%TO.N,unconnected-(U1-VP-Pad3)*%
X225178000Y-78250500D03*
%TO.P,U1,4,VN*%
%TO.N,unconnected-(U1-VN-Pad4)*%
X222638000Y-78250500D03*
%TO.P,U1,5,34*%
%TO.N,unconnected-(U1-34-Pad5)*%
X220098000Y-78250500D03*
%TO.P,U1,6,35*%
%TO.N,unconnected-(U1-35-Pad6)*%
X217558000Y-78250500D03*
%TO.P,U1,7,32*%
%TO.N,unconnected-(U1-32-Pad7)*%
X215018000Y-78250500D03*
%TO.P,U1,8,33*%
%TO.N,unconnected-(U1-33-Pad8)*%
X212478000Y-78250500D03*
%TO.P,U1,9,25*%
%TO.N,unconnected-(U1-25-Pad9)*%
X209938000Y-78250500D03*
%TO.P,U1,10,26*%
%TO.N,unconnected-(U1-26-Pad10)*%
X207398000Y-78250500D03*
%TO.P,U1,11,27*%
%TO.N,unconnected-(U1-27-Pad11)*%
X204858000Y-78250500D03*
%TO.P,U1,12,14*%
%TO.N,/DT*%
X202318000Y-78250500D03*
%TO.P,U1,13,12*%
%TO.N,/CW*%
X199778000Y-78250500D03*
%TO.P,U1,14,GND*%
%TO.N,GND*%
X197238000Y-78250500D03*
%TO.P,U1,15,13*%
%TO.N,/STP_VG*%
X194698000Y-78250500D03*
%TO.P,U1,16,D2*%
%TO.N,/SERVO_VG*%
X192158000Y-78250500D03*
%TO.P,U1,17,D3*%
%TO.N,unconnected-(U1-D3-Pad17)*%
X189618000Y-78250500D03*
%TO.P,U1,18,CMD*%
%TO.N,unconnected-(U1-CMD-Pad18)*%
X187078000Y-78250500D03*
%TO.P,U1,19,5V*%
%TO.N,5V*%
X184538000Y-78250500D03*
%TO.P,U1,20,GND__1*%
%TO.N,GND*%
X184538000Y-103650500D03*
%TO.P,U1,21,23*%
%TO.N,/DIR_PIN*%
X187078000Y-103650500D03*
%TO.P,U1,22,22*%
%TO.N,/STEP_PIN*%
X189618000Y-103650500D03*
%TO.P,U1,23,TX*%
%TO.N,/THUMB_1*%
X192158000Y-103650500D03*
%TO.P,U1,24,RX*%
%TO.N,/THUMB_2*%
X194698000Y-103650500D03*
%TO.P,U1,25,21*%
%TO.N,/INDEX_1*%
X197238000Y-103650500D03*
%TO.P,U1,26,GND__2*%
%TO.N,GND*%
X199778000Y-103650500D03*
%TO.P,U1,27,19*%
%TO.N,/INDEX_2*%
X202318000Y-103650500D03*
%TO.P,U1,28,18*%
%TO.N,/MIDDLE_1*%
X204858000Y-103650500D03*
%TO.P,U1,29,5*%
%TO.N,/MIDDLE_2*%
X207398000Y-103650500D03*
%TO.P,U1,30,17*%
%TO.N,/RING_1*%
X209938000Y-103650500D03*
%TO.P,U1,31,16*%
%TO.N,/RING_2*%
X212478000Y-103650500D03*
%TO.P,U1,32,4*%
%TO.N,/PINKIE_1*%
X215018000Y-103650500D03*
%TO.P,U1,33,0*%
%TO.N,/PINKIE_2*%
X217558000Y-103650500D03*
%TO.P,U1,34,2*%
%TO.N,unconnected-(U1-2-Pad34)*%
X220098000Y-103650500D03*
%TO.P,U1,35,15*%
%TO.N,unconnected-(U1-15-Pad35)*%
X222638000Y-103650500D03*
%TO.P,U1,36,D1*%
%TO.N,unconnected-(U1-D1-Pad36)*%
X225178000Y-103650500D03*
%TO.P,U1,37,D0*%
%TO.N,unconnected-(U1-D0-Pad37)*%
X227718000Y-103650500D03*
%TO.P,U1,38,CLK*%
%TO.N,unconnected-(U1-CLK-Pad38)*%
X230258000Y-103650500D03*
%TD*%
D10*
%TO.P,M2,1,-*%
%TO.N,Net-(M2--)*%
X183515000Y-117856000D03*
D11*
%TO.P,M2,2,+*%
%TO.N,MOTOR_P*%
X183515000Y-115316000D03*
%TO.P,M2,3,PWM*%
%TO.N,/THUMB_2*%
X183515000Y-112776000D03*
%TD*%
D10*
%TO.P,M5,1,-*%
%TO.N,Net-(M5--)*%
X220853000Y-117856000D03*
D11*
%TO.P,M5,2,+*%
%TO.N,MOTOR_P*%
X220853000Y-115316000D03*
%TO.P,M5,3,PWM*%
%TO.N,/RING_2*%
X220853000Y-112776000D03*
%TD*%
D10*
%TO.P,M3,1,-*%
%TO.N,Net-(M3--)*%
X195707000Y-117856000D03*
D11*
%TO.P,M3,2,+*%
%TO.N,MOTOR_P*%
X195707000Y-115316000D03*
%TO.P,M3,3,PWM*%
%TO.N,/INDEX_2*%
X195707000Y-112776000D03*
%TD*%
D18*
%TO.P,U5,1,Vin*%
%TO.N,12V*%
X177800000Y-36830000D03*
D19*
%TO.P,U5,2,GND*%
%TO.N,GND*%
X177800000Y-54610000D03*
%TO.P,U5,3,GND*%
X218440000Y-54610000D03*
%TO.P,U5,4,Vout*%
%TO.N,7.2V*%
X218440000Y-36830000D03*
%TD*%
D10*
%TO.P,M9,1,PWM*%
%TO.N,Net-(M9-PWM)*%
X202819000Y-117856000D03*
D11*
%TO.P,M9,2,+*%
%TO.N,MOTOR_P*%
X202819000Y-115316000D03*
%TO.P,M9,3,-*%
%TO.N,/MIDDLE_1*%
X202819000Y-112776000D03*
%TD*%
D18*
%TO.P,U2,1,Vin*%
%TO.N,15V*%
X100584000Y-36322000D03*
D19*
%TO.P,U2,2,GND*%
%TO.N,GND*%
X100584000Y-54102000D03*
%TO.P,U2,3,GND*%
X141224000Y-54102000D03*
%TO.P,U2,4,Vout*%
%TO.N,12V*%
X141224000Y-36322000D03*
%TD*%
D10*
%TO.P,M8,1,PWM*%
%TO.N,Net-(M8-PWM)*%
X190119000Y-117856000D03*
D11*
%TO.P,M8,2,+*%
%TO.N,MOTOR_P*%
X190119000Y-115316000D03*
%TO.P,M8,3,-*%
%TO.N,/INDEX_1*%
X190119000Y-112776000D03*
%TD*%
D10*
%TO.P,M1,1,-*%
%TO.N,Net-(M1--)*%
X178181000Y-117856000D03*
D11*
%TO.P,M1,2,+*%
%TO.N,MOTOR_P*%
X178181000Y-115316000D03*
%TO.P,M1,3,PWM*%
%TO.N,/THUMB_1*%
X178181000Y-112776000D03*
%TD*%
D10*
%TO.P,M7,1*%
%TO.N,Net-(U3-2B)*%
X148082000Y-118872000D03*
D11*
%TO.P,M7,2,-*%
%TO.N,Net-(M7--)*%
X148082000Y-116332000D03*
%TO.P,M7,3*%
%TO.N,Net-(U3-1A)*%
X148082000Y-113792000D03*
%TO.P,M7,4*%
%TO.N,Net-(U3-1B)*%
X148082000Y-111252000D03*
%TD*%
D18*
%TO.P,U6,1,Vin*%
%TO.N,7.2V*%
X92710000Y-106426000D03*
D19*
%TO.P,U6,2,GND*%
%TO.N,GND*%
X92710000Y-124206000D03*
%TO.P,U6,3,GND*%
X133350000Y-124206000D03*
%TO.P,U6,4,Vout*%
%TO.N,5V*%
X133350000Y-106426000D03*
%TD*%
D20*
%TO.N,Net-(U3-2B)*%
X148590000Y-118364000D02*
X148082000Y-118872000D01*
X153426000Y-118364000D02*
X148590000Y-118364000D01*
%TO.N,Net-(M7--)*%
X152908000Y-115824000D02*
X152400000Y-116332000D01*
X152400000Y-116332000D02*
X148082000Y-116332000D01*
X153426000Y-115824000D02*
X152908000Y-115824000D01*
%TO.N,Net-(U3-1A)*%
X148590000Y-113284000D02*
X148082000Y-113792000D01*
X153426000Y-113284000D02*
X148590000Y-113284000D01*
%TO.N,Net-(U3-1B)*%
X148590000Y-110744000D02*
X148082000Y-111252000D01*
X153426000Y-110744000D02*
X148590000Y-110744000D01*
%TO.N,/STEP_PIN*%
X188251000Y-102283500D02*
X189618000Y-103650500D01*
X165075000Y-105228661D02*
X168020161Y-102283500D01*
X165075000Y-107153000D02*
X165075000Y-105228661D01*
X168020161Y-102283500D02*
X188251000Y-102283500D01*
X166126000Y-108204000D02*
X165075000Y-107153000D01*
%TO.N,/DIR_PIN*%
X169155500Y-102634500D02*
X186062000Y-102634500D01*
X166126000Y-105664000D02*
X169155500Y-102634500D01*
X186062000Y-102634500D02*
X187078000Y-103650500D01*
%TO.N,Net-(U3-2B)*%
X152918000Y-118872000D02*
X153426000Y-118364000D01*
%TO.N,Net-(M7--)*%
X152918000Y-116332000D02*
X153426000Y-115824000D01*
%TO.N,Net-(U3-1A)*%
X152918000Y-113792000D02*
X153426000Y-113284000D01*
%TO.N,Net-(U3-1B)*%
X152918000Y-111252000D02*
X153426000Y-110744000D01*
%TO.N,/DT*%
X202184000Y-78116500D02*
X202318000Y-78250500D01*
X202184000Y-73660000D02*
X202184000Y-78116500D01*
%TO.N,/CW*%
X199644000Y-73660000D02*
X199644000Y-78116500D01*
X199644000Y-78116500D02*
X199778000Y-78250500D01*
%TO.N,GND*%
X197104000Y-78116500D02*
X197238000Y-78250500D01*
%TO.N,/PINKIE_2*%
X224935500Y-104666500D02*
X233045000Y-112776000D01*
X218574000Y-104666500D02*
X224935500Y-104666500D01*
X217558000Y-103650500D02*
X218574000Y-104666500D01*
%TO.N,/PINKIE_1*%
X224143500Y-112776000D02*
X227457000Y-112776000D01*
X215018000Y-103650500D02*
X224143500Y-112776000D01*
%TO.N,/RING_2*%
X220853000Y-112025500D02*
X220853000Y-112776000D01*
X212478000Y-103650500D02*
X220853000Y-112025500D01*
%TO.N,/RING_1*%
X209938000Y-107449000D02*
X215265000Y-112776000D01*
X209938000Y-103650500D02*
X209938000Y-107449000D01*
%TO.N,/MIDDLE_2*%
X207398000Y-111767000D02*
X208407000Y-112776000D01*
X207398000Y-103650500D02*
X207398000Y-111767000D01*
%TO.N,/MIDDLE_1*%
X204858000Y-103650500D02*
X204858000Y-110737000D01*
X204858000Y-110737000D02*
X202819000Y-112776000D01*
%TO.N,/THUMB_1*%
X191142000Y-104666500D02*
X192158000Y-103650500D01*
X186290500Y-104666500D02*
X191142000Y-104666500D01*
X178181000Y-112776000D02*
X186290500Y-104666500D01*
%TO.N,/THUMB_2*%
X185572500Y-112776000D02*
X194698000Y-103650500D01*
X183515000Y-112776000D02*
X185572500Y-112776000D01*
%TO.N,/INDEX_1*%
X197238000Y-105657000D02*
X197238000Y-103650500D01*
X190119000Y-112776000D02*
X197238000Y-105657000D01*
%TO.N,/INDEX_2*%
X202318000Y-106165000D02*
X202318000Y-103650500D01*
X195707000Y-112776000D02*
X202318000Y-106165000D01*
%TD*%
%TA.AperFunction,Conductor*%
%TO.N,GND*%
G36*
X234190245Y-28776427D02*
G01*
X234682219Y-28794201D01*
X234691143Y-28794846D01*
X235178353Y-28847838D01*
X235187184Y-28849122D01*
X235669318Y-28937138D01*
X235678018Y-28939054D01*
X236152528Y-29061628D01*
X236161104Y-29064177D01*
X236625527Y-29220672D01*
X236633876Y-29223825D01*
X237085808Y-29413433D01*
X237093903Y-29417178D01*
X237530956Y-29638895D01*
X237538784Y-29643228D01*
X237958694Y-29895904D01*
X237966195Y-29900795D01*
X238366766Y-30183108D01*
X238373894Y-30188527D01*
X238543273Y-30327228D01*
X238753067Y-30499024D01*
X238759771Y-30504931D01*
X239115534Y-30841968D01*
X239121800Y-30848349D01*
X239452324Y-31210192D01*
X239458120Y-31217016D01*
X239761658Y-31601751D01*
X239766947Y-31608977D01*
X240041934Y-32014619D01*
X240046687Y-32022207D01*
X240291676Y-32446622D01*
X240295870Y-32454533D01*
X240509606Y-32895547D01*
X240513217Y-32903740D01*
X240694564Y-33359008D01*
X240697575Y-33367441D01*
X240845594Y-33834608D01*
X240847989Y-33843236D01*
X240961913Y-34319874D01*
X240963679Y-34328653D01*
X241042910Y-34812279D01*
X241044037Y-34821162D01*
X241088159Y-35309219D01*
X241088643Y-35318159D01*
X241097471Y-35810377D01*
X241097491Y-35812576D01*
X241097491Y-35813770D01*
X241097067Y-35837155D01*
X241097496Y-35837768D01*
X241097500Y-35857044D01*
X241097497Y-35857052D01*
X241097500Y-35857069D01*
X241097500Y-135125785D01*
X241097421Y-135130211D01*
X241080053Y-135616485D01*
X241079422Y-135625314D01*
X241027644Y-136106923D01*
X241026384Y-136115685D01*
X240940381Y-136592368D01*
X240938499Y-136601017D01*
X240818711Y-137070342D01*
X240816217Y-137078835D01*
X240663254Y-137538414D01*
X240660161Y-137546708D01*
X240474795Y-137994221D01*
X240471118Y-138002272D01*
X240254309Y-138435402D01*
X240250067Y-138443172D01*
X240002896Y-138859756D01*
X239998110Y-138867202D01*
X239721868Y-139265066D01*
X239716564Y-139272152D01*
X239412630Y-139649312D01*
X239406833Y-139656002D01*
X239076771Y-140010512D01*
X239070512Y-140016771D01*
X238716002Y-140346833D01*
X238709312Y-140352630D01*
X238332152Y-140656564D01*
X238325066Y-140661868D01*
X237927202Y-140938110D01*
X237919756Y-140942896D01*
X237503172Y-141190067D01*
X237495402Y-141194309D01*
X237062272Y-141411118D01*
X237054221Y-141414795D01*
X236606708Y-141600161D01*
X236598414Y-141603254D01*
X236138835Y-141756217D01*
X236130342Y-141758711D01*
X235661017Y-141878499D01*
X235652368Y-141880381D01*
X235175685Y-141966384D01*
X235166923Y-141967644D01*
X234685314Y-142019422D01*
X234676485Y-142020053D01*
X234190212Y-142037421D01*
X234185786Y-142037500D01*
X93474214Y-142037500D01*
X93469788Y-142037421D01*
X92983514Y-142020053D01*
X92974685Y-142019422D01*
X92493076Y-141967644D01*
X92484314Y-141966384D01*
X92007631Y-141880381D01*
X91998982Y-141878499D01*
X91529657Y-141758711D01*
X91521164Y-141756217D01*
X91061585Y-141603254D01*
X91053291Y-141600161D01*
X90605778Y-141414795D01*
X90597727Y-141411118D01*
X90164597Y-141194309D01*
X90156827Y-141190067D01*
X89740243Y-140942896D01*
X89732797Y-140938110D01*
X89334933Y-140661868D01*
X89327847Y-140656564D01*
X88950687Y-140352630D01*
X88943997Y-140346833D01*
X88589487Y-140016771D01*
X88583228Y-140010512D01*
X88253166Y-139656002D01*
X88247369Y-139649312D01*
X87943435Y-139272152D01*
X87938131Y-139265066D01*
X87661889Y-138867202D01*
X87657103Y-138859756D01*
X87409932Y-138443172D01*
X87405690Y-138435402D01*
X87333115Y-138290416D01*
X87188878Y-138002266D01*
X87185204Y-137994221D01*
X86999838Y-137546708D01*
X86996745Y-137538414D01*
X86983398Y-137498312D01*
X86843780Y-137078829D01*
X86841288Y-137070342D01*
X86803103Y-136920734D01*
X86721495Y-136600997D01*
X86719622Y-136592389D01*
X86633611Y-136115662D01*
X86632358Y-136106946D01*
X86580575Y-135625296D01*
X86579947Y-135616503D01*
X86562579Y-135130211D01*
X86562500Y-135125812D01*
X86562500Y-135125785D01*
X86562500Y-135103469D01*
X86562495Y-135103462D01*
X86562448Y-134866186D01*
X91070346Y-134866186D01*
X91070346Y-135135813D01*
X91100532Y-135403719D01*
X91100534Y-135403731D01*
X91160530Y-135666594D01*
X91160533Y-135666602D01*
X91249580Y-135921082D01*
X91366560Y-136163994D01*
X91366562Y-136163997D01*
X91510008Y-136392289D01*
X91678112Y-136603085D01*
X91868761Y-136793734D01*
X92079557Y-136961838D01*
X92307849Y-137105284D01*
X92550767Y-137222267D01*
X92741895Y-137289145D01*
X92805243Y-137311312D01*
X92805251Y-137311315D01*
X92805254Y-137311315D01*
X92805255Y-137311316D01*
X93068114Y-137371312D01*
X93336033Y-137401499D01*
X93336034Y-137401500D01*
X93336037Y-137401500D01*
X93605658Y-137401500D01*
X93605658Y-137401499D01*
X93873578Y-137371312D01*
X94136437Y-137311316D01*
X94390925Y-137222267D01*
X94633843Y-137105284D01*
X94862135Y-136961838D01*
X95072931Y-136793734D01*
X95263580Y-136603085D01*
X95431684Y-136392289D01*
X95575130Y-136163997D01*
X95692113Y-135921079D01*
X95781162Y-135666591D01*
X95841158Y-135403732D01*
X95871346Y-135135809D01*
X95871346Y-134993186D01*
X231787500Y-134993186D01*
X231787500Y-135262813D01*
X231817686Y-135530719D01*
X231817688Y-135530731D01*
X231877684Y-135793594D01*
X231877687Y-135793602D01*
X231966734Y-136048082D01*
X232083714Y-136290994D01*
X232083716Y-136290997D01*
X232227162Y-136519289D01*
X232395266Y-136730085D01*
X232585915Y-136920734D01*
X232796711Y-137088838D01*
X233025003Y-137232284D01*
X233267921Y-137349267D01*
X233417192Y-137401499D01*
X233522397Y-137438312D01*
X233522405Y-137438315D01*
X233522408Y-137438315D01*
X233522409Y-137438316D01*
X233785268Y-137498312D01*
X234053187Y-137528499D01*
X234053188Y-137528500D01*
X234053191Y-137528500D01*
X234322812Y-137528500D01*
X234322812Y-137528499D01*
X234590732Y-137498312D01*
X234853591Y-137438316D01*
X235108079Y-137349267D01*
X235350997Y-137232284D01*
X235579289Y-137088838D01*
X235790085Y-136920734D01*
X235980734Y-136730085D01*
X236148838Y-136519289D01*
X236292284Y-136290997D01*
X236409267Y-136048079D01*
X236498316Y-135793591D01*
X236558312Y-135530732D01*
X236588500Y-135262809D01*
X236588500Y-134993191D01*
X236558312Y-134725268D01*
X236498316Y-134462409D01*
X236409267Y-134207921D01*
X236292284Y-133965003D01*
X236148838Y-133736711D01*
X235980734Y-133525915D01*
X235790085Y-133335266D01*
X235579289Y-133167162D01*
X235350997Y-133023716D01*
X235350994Y-133023714D01*
X235108082Y-132906734D01*
X234853602Y-132817687D01*
X234853594Y-132817684D01*
X234656446Y-132772687D01*
X234590732Y-132757688D01*
X234590728Y-132757687D01*
X234590719Y-132757686D01*
X234322813Y-132727500D01*
X234322809Y-132727500D01*
X234053191Y-132727500D01*
X234053186Y-132727500D01*
X233785280Y-132757686D01*
X233785268Y-132757688D01*
X233522405Y-132817684D01*
X233522397Y-132817687D01*
X233267917Y-132906734D01*
X233025005Y-133023714D01*
X232796712Y-133167161D01*
X232585915Y-133335265D01*
X232395265Y-133525915D01*
X232227161Y-133736712D01*
X232083714Y-133965005D01*
X231966734Y-134207917D01*
X231877687Y-134462397D01*
X231877684Y-134462405D01*
X231817688Y-134725268D01*
X231817686Y-134725280D01*
X231787500Y-134993186D01*
X95871346Y-134993186D01*
X95871346Y-134866191D01*
X95841158Y-134598268D01*
X95781162Y-134335409D01*
X95692113Y-134080921D01*
X95575130Y-133838003D01*
X95431684Y-133609711D01*
X95263580Y-133398915D01*
X95072931Y-133208266D01*
X94862135Y-133040162D01*
X94704459Y-132941087D01*
X94633840Y-132896714D01*
X94390928Y-132779734D01*
X94136448Y-132690687D01*
X94136440Y-132690684D01*
X93939292Y-132645687D01*
X93873578Y-132630688D01*
X93873574Y-132630687D01*
X93873565Y-132630686D01*
X93605659Y-132600500D01*
X93605655Y-132600500D01*
X93336037Y-132600500D01*
X93336032Y-132600500D01*
X93068126Y-132630686D01*
X93068114Y-132630688D01*
X92805251Y-132690684D01*
X92805243Y-132690687D01*
X92550763Y-132779734D01*
X92307851Y-132896714D01*
X92079558Y-133040161D01*
X91868761Y-133208265D01*
X91678111Y-133398915D01*
X91510007Y-133609712D01*
X91366560Y-133838005D01*
X91249580Y-134080917D01*
X91160533Y-134335397D01*
X91160530Y-134335405D01*
X91100534Y-134598268D01*
X91100532Y-134598280D01*
X91070346Y-134866186D01*
X86562448Y-134866186D01*
X86560621Y-125680855D01*
X86560600Y-125573954D01*
X86560305Y-124089994D01*
X90940000Y-124089994D01*
X90940000Y-124322005D01*
X90940001Y-124322022D01*
X90970283Y-124552040D01*
X90970286Y-124552053D01*
X91030336Y-124776167D01*
X91119124Y-124990521D01*
X91119132Y-124990538D01*
X91235136Y-125191461D01*
X91235142Y-125191469D01*
X91294117Y-125268327D01*
X92227037Y-124335408D01*
X92244075Y-124398993D01*
X92309901Y-124513007D01*
X92402993Y-124606099D01*
X92517007Y-124671925D01*
X92580591Y-124688962D01*
X91647671Y-125621881D01*
X91724530Y-125680857D01*
X91724538Y-125680863D01*
X91925461Y-125796867D01*
X91925478Y-125796875D01*
X92139832Y-125885663D01*
X92363946Y-125945713D01*
X92363959Y-125945716D01*
X92593977Y-125975998D01*
X92593995Y-125976000D01*
X92826005Y-125976000D01*
X92826022Y-125975998D01*
X93056040Y-125945716D01*
X93056053Y-125945713D01*
X93280167Y-125885663D01*
X93494521Y-125796875D01*
X93494538Y-125796867D01*
X93695475Y-125680855D01*
X93772327Y-125621883D01*
X93772327Y-125621880D01*
X92839408Y-124688962D01*
X92902993Y-124671925D01*
X93017007Y-124606099D01*
X93110099Y-124513007D01*
X93175925Y-124398993D01*
X93192962Y-124335408D01*
X94125880Y-125268327D01*
X94125883Y-125268327D01*
X94184855Y-125191475D01*
X94300867Y-124990538D01*
X94300875Y-124990521D01*
X94389663Y-124776167D01*
X94449713Y-124552053D01*
X94449716Y-124552040D01*
X94479998Y-124322022D01*
X94480000Y-124322005D01*
X94480000Y-124089994D01*
X131580000Y-124089994D01*
X131580000Y-124322005D01*
X131580001Y-124322022D01*
X131610283Y-124552040D01*
X131610286Y-124552053D01*
X131670336Y-124776167D01*
X131759124Y-124990521D01*
X131759132Y-124990538D01*
X131875136Y-125191461D01*
X131875142Y-125191469D01*
X131934117Y-125268327D01*
X132867037Y-124335408D01*
X132884075Y-124398993D01*
X132949901Y-124513007D01*
X133042993Y-124606099D01*
X133157007Y-124671925D01*
X133220591Y-124688962D01*
X132287671Y-125621881D01*
X132364530Y-125680857D01*
X132364538Y-125680863D01*
X132565461Y-125796867D01*
X132565478Y-125796875D01*
X132779832Y-125885663D01*
X133003946Y-125945713D01*
X133003959Y-125945716D01*
X133233977Y-125975998D01*
X133233995Y-125976000D01*
X133466005Y-125976000D01*
X133466022Y-125975998D01*
X133696040Y-125945716D01*
X133696053Y-125945713D01*
X133920167Y-125885663D01*
X134134521Y-125796875D01*
X134134538Y-125796867D01*
X134335475Y-125680855D01*
X134412327Y-125621883D01*
X134412327Y-125621880D01*
X133479408Y-124688962D01*
X133542993Y-124671925D01*
X133657007Y-124606099D01*
X133750099Y-124513007D01*
X133815925Y-124398993D01*
X133832962Y-124335409D01*
X134765880Y-125268327D01*
X134765883Y-125268327D01*
X134824855Y-125191475D01*
X134940867Y-124990538D01*
X134940875Y-124990521D01*
X135029663Y-124776167D01*
X135089713Y-124552053D01*
X135089716Y-124552040D01*
X135119998Y-124322022D01*
X135120000Y-124322005D01*
X135120000Y-124089994D01*
X135119998Y-124089977D01*
X135089716Y-123859959D01*
X135089713Y-123859946D01*
X135029663Y-123635832D01*
X134940875Y-123421478D01*
X134940863Y-123421454D01*
X134927772Y-123398780D01*
X134927770Y-123398777D01*
X134824858Y-123220531D01*
X134824857Y-123220530D01*
X134765881Y-123143671D01*
X133832962Y-124076590D01*
X133815925Y-124013007D01*
X133750099Y-123898993D01*
X133657007Y-123805901D01*
X133542993Y-123740075D01*
X133479409Y-123723037D01*
X134412327Y-122790117D01*
X134335469Y-122731142D01*
X134335461Y-122731136D01*
X134134538Y-122615132D01*
X134134521Y-122615124D01*
X133920167Y-122526336D01*
X133696053Y-122466286D01*
X133696040Y-122466283D01*
X133466022Y-122436001D01*
X133466005Y-122436000D01*
X133233995Y-122436000D01*
X133233977Y-122436001D01*
X133003959Y-122466283D01*
X133003946Y-122466286D01*
X132779832Y-122526336D01*
X132565478Y-122615124D01*
X132565461Y-122615132D01*
X132364541Y-122731134D01*
X132364533Y-122731140D01*
X132287671Y-122790116D01*
X132287671Y-122790117D01*
X133220591Y-123723037D01*
X133157007Y-123740075D01*
X133042993Y-123805901D01*
X132949901Y-123898993D01*
X132884075Y-124013007D01*
X132867037Y-124076590D01*
X131934117Y-123143671D01*
X131934116Y-123143671D01*
X131875140Y-123220533D01*
X131875134Y-123220541D01*
X131759132Y-123421461D01*
X131759124Y-123421478D01*
X131670336Y-123635832D01*
X131610286Y-123859946D01*
X131610283Y-123859959D01*
X131580001Y-124089977D01*
X131580000Y-124089994D01*
X94480000Y-124089994D01*
X94479998Y-124089977D01*
X94449716Y-123859959D01*
X94449713Y-123859946D01*
X94389663Y-123635832D01*
X94300875Y-123421478D01*
X94300867Y-123421461D01*
X94184863Y-123220538D01*
X94184857Y-123220530D01*
X94125881Y-123143671D01*
X93192962Y-124076590D01*
X93175925Y-124013007D01*
X93110099Y-123898993D01*
X93017007Y-123805901D01*
X92902993Y-123740075D01*
X92839409Y-123723037D01*
X93772327Y-122790117D01*
X93695469Y-122731142D01*
X93695461Y-122731136D01*
X93494538Y-122615132D01*
X93494521Y-122615124D01*
X93280167Y-122526336D01*
X93056053Y-122466286D01*
X93056040Y-122466283D01*
X92826022Y-122436001D01*
X92826005Y-122436000D01*
X92593995Y-122436000D01*
X92593977Y-122436001D01*
X92363959Y-122466283D01*
X92363946Y-122466286D01*
X92139832Y-122526336D01*
X91925478Y-122615124D01*
X91925461Y-122615132D01*
X91724541Y-122731134D01*
X91724533Y-122731140D01*
X91647671Y-122790116D01*
X91647671Y-122790117D01*
X92580591Y-123723037D01*
X92517007Y-123740075D01*
X92402993Y-123805901D01*
X92309901Y-123898993D01*
X92244075Y-124013007D01*
X92227037Y-124076591D01*
X91294117Y-123143671D01*
X91294116Y-123143671D01*
X91235140Y-123220533D01*
X91235134Y-123220541D01*
X91119132Y-123421461D01*
X91119124Y-123421478D01*
X91030336Y-123635832D01*
X90970286Y-123859946D01*
X90970283Y-123859959D01*
X90940001Y-124089977D01*
X90940000Y-124089994D01*
X86560305Y-124089994D01*
X86560304Y-124085954D01*
X86560056Y-122838095D01*
X86557731Y-111145713D01*
X146731500Y-111145713D01*
X146731500Y-111358287D01*
X146735884Y-111385968D01*
X146764753Y-111568239D01*
X146764753Y-111568241D01*
X146764754Y-111568243D01*
X146822477Y-111745896D01*
X146830444Y-111770414D01*
X146926951Y-111959820D01*
X147051890Y-112131786D01*
X147202213Y-112282109D01*
X147374182Y-112407050D01*
X147382946Y-112411516D01*
X147433742Y-112459491D01*
X147450536Y-112527312D01*
X147427998Y-112593447D01*
X147382946Y-112632484D01*
X147374182Y-112636949D01*
X147202213Y-112761890D01*
X147051890Y-112912213D01*
X146926951Y-113084179D01*
X146830444Y-113273585D01*
X146764753Y-113475760D01*
X146746892Y-113588534D01*
X146731500Y-113685713D01*
X146731500Y-113898287D01*
X146735884Y-113925968D01*
X146764753Y-114108239D01*
X146764753Y-114108241D01*
X146764754Y-114108243D01*
X146822477Y-114285896D01*
X146830444Y-114310414D01*
X146926951Y-114499820D01*
X147051890Y-114671786D01*
X147202213Y-114822109D01*
X147374182Y-114947050D01*
X147382946Y-114951516D01*
X147433742Y-114999491D01*
X147450536Y-115067312D01*
X147427998Y-115133447D01*
X147382946Y-115172484D01*
X147374182Y-115176949D01*
X147202213Y-115301890D01*
X147051890Y-115452213D01*
X146926951Y-115624179D01*
X146830444Y-115813585D01*
X146764753Y-116015760D01*
X146731500Y-116225713D01*
X146731500Y-116438286D01*
X146751126Y-116562203D01*
X146764754Y-116648243D01*
X146819252Y-116815971D01*
X146830444Y-116850414D01*
X146926951Y-117039820D01*
X147051890Y-117211786D01*
X147165430Y-117325326D01*
X147198915Y-117386649D01*
X147193931Y-117456341D01*
X147152059Y-117512274D01*
X147121083Y-117529189D01*
X146989669Y-117578203D01*
X146989664Y-117578206D01*
X146874455Y-117664452D01*
X146874452Y-117664455D01*
X146788206Y-117779664D01*
X146788202Y-117779671D01*
X146737908Y-117914517D01*
X146731501Y-117974116D01*
X146731500Y-117974135D01*
X146731500Y-119769870D01*
X146731501Y-119769876D01*
X146737908Y-119829483D01*
X146788202Y-119964328D01*
X146788206Y-119964335D01*
X146874452Y-120079544D01*
X146874455Y-120079547D01*
X146989664Y-120165793D01*
X146989671Y-120165797D01*
X147124517Y-120216091D01*
X147124516Y-120216091D01*
X147131444Y-120216835D01*
X147184127Y-120222500D01*
X148979872Y-120222499D01*
X149039483Y-120216091D01*
X149174331Y-120165796D01*
X149289546Y-120079546D01*
X149375796Y-119964331D01*
X149426091Y-119829483D01*
X149432500Y-119769873D01*
X149432500Y-119088500D01*
X149452185Y-119021461D01*
X149504989Y-118975706D01*
X149556500Y-118964500D01*
X152196398Y-118964500D01*
X152203600Y-118966614D01*
X152211001Y-118965363D01*
X152236665Y-118976323D01*
X152263437Y-118984185D01*
X152269951Y-118990539D01*
X152275255Y-118992805D01*
X152286019Y-119006214D01*
X152299021Y-119018898D01*
X152303368Y-119025308D01*
X152313713Y-119045610D01*
X152365225Y-119116512D01*
X152366362Y-119118188D01*
X152366530Y-119118713D01*
X152371125Y-119125788D01*
X152412059Y-119196685D01*
X152437481Y-119240716D01*
X152549284Y-119352519D01*
X152664252Y-119418897D01*
X152666239Y-119420070D01*
X152670791Y-119422815D01*
X152744390Y-119476287D01*
X152841567Y-119525801D01*
X152845369Y-119528094D01*
X152866113Y-119550697D01*
X152888425Y-119571770D01*
X152889523Y-119576205D01*
X152892612Y-119579571D01*
X152897843Y-119609801D01*
X152905220Y-119639591D01*
X152903746Y-119643915D01*
X152904525Y-119648417D01*
X152892580Y-119676679D01*
X152882682Y-119705726D01*
X152878931Y-119708975D01*
X152877326Y-119712775D01*
X152864149Y-119721784D01*
X152837629Y-119744765D01*
X152744650Y-119792140D01*
X152579105Y-119912417D01*
X152579104Y-119912417D01*
X152434417Y-120057104D01*
X152434417Y-120057105D01*
X152314140Y-120222650D01*
X152221244Y-120404970D01*
X152158009Y-120599586D01*
X152149391Y-120654000D01*
X153110314Y-120654000D01*
X153105920Y-120658394D01*
X153053259Y-120749606D01*
X153026000Y-120851339D01*
X153026000Y-120956661D01*
X153053259Y-121058394D01*
X153105920Y-121149606D01*
X153110314Y-121154000D01*
X152149391Y-121154000D01*
X152158009Y-121208413D01*
X152221244Y-121403029D01*
X152314140Y-121585349D01*
X152434417Y-121750894D01*
X152434417Y-121750895D01*
X152579104Y-121895582D01*
X152744652Y-122015861D01*
X152837628Y-122063234D01*
X152888425Y-122111208D01*
X152905220Y-122179029D01*
X152882683Y-122245164D01*
X152837630Y-122284203D01*
X152744388Y-122331713D01*
X152578786Y-122452028D01*
X152434028Y-122596786D01*
X152313715Y-122762386D01*
X152220781Y-122944776D01*
X152157522Y-123139465D01*
X152125500Y-123341648D01*
X152125500Y-123546351D01*
X152157522Y-123748534D01*
X152220781Y-123943223D01*
X152313715Y-124125613D01*
X152434028Y-124291213D01*
X152578786Y-124435971D01*
X152733749Y-124548556D01*
X152744390Y-124556287D01*
X152860607Y-124615503D01*
X152926776Y-124649218D01*
X152926778Y-124649218D01*
X152926781Y-124649220D01*
X152996660Y-124671925D01*
X153121465Y-124712477D01*
X153222557Y-124728488D01*
X153323648Y-124744500D01*
X153323649Y-124744500D01*
X153528351Y-124744500D01*
X153528352Y-124744500D01*
X153730534Y-124712477D01*
X153925219Y-124649220D01*
X154107610Y-124556287D01*
X154200590Y-124488732D01*
X154273213Y-124435971D01*
X154273215Y-124435968D01*
X154273219Y-124435966D01*
X154417966Y-124291219D01*
X154417968Y-124291215D01*
X154417971Y-124291213D01*
X154479881Y-124205999D01*
X154538287Y-124125610D01*
X154631220Y-123943219D01*
X154694477Y-123748534D01*
X154726500Y-123546352D01*
X154726500Y-123341648D01*
X154707317Y-123220531D01*
X154694477Y-123139465D01*
X154631218Y-122944776D01*
X154597503Y-122878607D01*
X154538287Y-122762390D01*
X154515580Y-122731136D01*
X154417971Y-122596786D01*
X154273213Y-122452028D01*
X154107611Y-122331713D01*
X154014369Y-122284203D01*
X153963574Y-122236229D01*
X153946779Y-122168407D01*
X153969317Y-122102273D01*
X154014371Y-122063234D01*
X154107347Y-122015861D01*
X154272894Y-121895582D01*
X154272895Y-121895582D01*
X154417582Y-121750895D01*
X154417582Y-121750894D01*
X154537859Y-121585349D01*
X154630755Y-121403029D01*
X154693990Y-121208413D01*
X154702609Y-121154000D01*
X153741686Y-121154000D01*
X153746080Y-121149606D01*
X153798741Y-121058394D01*
X153826000Y-120956661D01*
X153826000Y-120851339D01*
X153798741Y-120749606D01*
X153746080Y-120658394D01*
X153741686Y-120654000D01*
X154702609Y-120654000D01*
X154693990Y-120599586D01*
X154630755Y-120404970D01*
X154537859Y-120222650D01*
X154417582Y-120057105D01*
X154417582Y-120057104D01*
X154272895Y-119912417D01*
X154107349Y-119792140D01*
X154014370Y-119744765D01*
X153963574Y-119696790D01*
X153946779Y-119628969D01*
X153969316Y-119562835D01*
X154014370Y-119523795D01*
X154014920Y-119523515D01*
X154107610Y-119476287D01*
X154128770Y-119460913D01*
X154273213Y-119355971D01*
X154273215Y-119355968D01*
X154273219Y-119355966D01*
X154417966Y-119211219D01*
X154417968Y-119211215D01*
X154417971Y-119211213D01*
X154485556Y-119118188D01*
X154538287Y-119045610D01*
X154631220Y-118863219D01*
X154694477Y-118668534D01*
X154726500Y-118466352D01*
X154726500Y-118261648D01*
X154694477Y-118059466D01*
X154631220Y-117864781D01*
X154631218Y-117864778D01*
X154631218Y-117864776D01*
X154587853Y-117779669D01*
X154538287Y-117682390D01*
X154462594Y-117578206D01*
X154417971Y-117516786D01*
X154273213Y-117372028D01*
X154107614Y-117251715D01*
X154101006Y-117248348D01*
X154014917Y-117204483D01*
X153964123Y-117156511D01*
X153947328Y-117088690D01*
X153969865Y-117022555D01*
X154014917Y-116983516D01*
X154107610Y-116936287D01*
X154159550Y-116898551D01*
X154273213Y-116815971D01*
X154273215Y-116815968D01*
X154273219Y-116815966D01*
X154417966Y-116671219D01*
X154417968Y-116671215D01*
X154417971Y-116671213D01*
X154497171Y-116562202D01*
X154538287Y-116505610D01*
X154631220Y-116323219D01*
X154694477Y-116128534D01*
X154726500Y-115926352D01*
X154726500Y-115721648D01*
X154694477Y-115519466D01*
X154631220Y-115324781D01*
X154631218Y-115324778D01*
X154631218Y-115324776D01*
X154597503Y-115258607D01*
X154538287Y-115142390D01*
X154525298Y-115124512D01*
X154417971Y-114976786D01*
X154273213Y-114832028D01*
X154107614Y-114711715D01*
X154101006Y-114708348D01*
X154014917Y-114664483D01*
X153964123Y-114616511D01*
X153947328Y-114548690D01*
X153969865Y-114482555D01*
X154014917Y-114443516D01*
X154107610Y-114396287D01*
X154128770Y-114380913D01*
X154273213Y-114275971D01*
X154273215Y-114275968D01*
X154273219Y-114275966D01*
X154417966Y-114131219D01*
X154417968Y-114131215D01*
X154417971Y-114131213D01*
X154521219Y-113989102D01*
X154538287Y-113965610D01*
X154631220Y-113783219D01*
X154694477Y-113588534D01*
X154726500Y-113386352D01*
X154726500Y-113181648D01*
X154720650Y-113144713D01*
X154694477Y-112979465D01*
X154631218Y-112784776D01*
X154597503Y-112718607D01*
X154538287Y-112602390D01*
X154516312Y-112572144D01*
X154417971Y-112436786D01*
X154273213Y-112292028D01*
X154107614Y-112171715D01*
X154101006Y-112168348D01*
X154014917Y-112124483D01*
X153964123Y-112076511D01*
X153947328Y-112008690D01*
X153969865Y-111942555D01*
X154014917Y-111903516D01*
X154107610Y-111856287D01*
X154128770Y-111840913D01*
X154273213Y-111735971D01*
X154273215Y-111735968D01*
X154273219Y-111735966D01*
X154417966Y-111591219D01*
X154417968Y-111591215D01*
X154417971Y-111591213D01*
X154501876Y-111475726D01*
X154538287Y-111425610D01*
X154631220Y-111243219D01*
X154694477Y-111048534D01*
X154726500Y-110846352D01*
X154726500Y-110641648D01*
X154711062Y-110544179D01*
X154694477Y-110439465D01*
X154631218Y-110244776D01*
X154597503Y-110178607D01*
X154538287Y-110062390D01*
X154493281Y-110000444D01*
X154417971Y-109896786D01*
X154273213Y-109752028D01*
X154107614Y-109631715D01*
X154101006Y-109628348D01*
X154014917Y-109584483D01*
X153964123Y-109536511D01*
X153947328Y-109468690D01*
X153969865Y-109402555D01*
X154014917Y-109363516D01*
X154107610Y-109316287D01*
X154128770Y-109300913D01*
X154273213Y-109195971D01*
X154273215Y-109195968D01*
X154273219Y-109195966D01*
X154417966Y-109051219D01*
X154417968Y-109051215D01*
X154417971Y-109051213D01*
X154470732Y-108978590D01*
X154538287Y-108885610D01*
X154631220Y-108703219D01*
X154694477Y-108508534D01*
X154726500Y-108306352D01*
X154726500Y-108101648D01*
X154694477Y-107899466D01*
X154631220Y-107704781D01*
X154631218Y-107704778D01*
X154631218Y-107704776D01*
X154575733Y-107595882D01*
X154538287Y-107522390D01*
X154530556Y-107511749D01*
X154417971Y-107356786D01*
X154293239Y-107232054D01*
X164474498Y-107232054D01*
X164515423Y-107384785D01*
X164544358Y-107434900D01*
X164544359Y-107434904D01*
X164544360Y-107434904D01*
X164594479Y-107521714D01*
X164594481Y-107521717D01*
X164713349Y-107640585D01*
X164713355Y-107640590D01*
X164831922Y-107759157D01*
X164865407Y-107820480D01*
X164862173Y-107885155D01*
X164857522Y-107899468D01*
X164825500Y-108101648D01*
X164825500Y-108306351D01*
X164857522Y-108508534D01*
X164920781Y-108703223D01*
X165013715Y-108885613D01*
X165134028Y-109051213D01*
X165278786Y-109195971D01*
X165433749Y-109308556D01*
X165444390Y-109316287D01*
X165535840Y-109362883D01*
X165537080Y-109363515D01*
X165587876Y-109411490D01*
X165604671Y-109479311D01*
X165582134Y-109545446D01*
X165537080Y-109584485D01*
X165444386Y-109631715D01*
X165278786Y-109752028D01*
X165134028Y-109896786D01*
X165013715Y-110062386D01*
X164920781Y-110244776D01*
X164857522Y-110439465D01*
X164825500Y-110641648D01*
X164825500Y-110846352D01*
X164829878Y-110873995D01*
X164857522Y-111048534D01*
X164920781Y-111243223D01*
X164978409Y-111356323D01*
X164993514Y-111385968D01*
X165013715Y-111425613D01*
X165134028Y-111591213D01*
X165278786Y-111735971D01*
X165430305Y-111846054D01*
X165444390Y-111856287D01*
X165522749Y-111896213D01*
X165537080Y-111903515D01*
X165587876Y-111951490D01*
X165604671Y-112019311D01*
X165582134Y-112085446D01*
X165537080Y-112124485D01*
X165444386Y-112171715D01*
X165278786Y-112292028D01*
X165134028Y-112436786D01*
X165013715Y-112602386D01*
X164920781Y-112784776D01*
X164857522Y-112979465D01*
X164825500Y-113181648D01*
X164825500Y-113386352D01*
X164829878Y-113413995D01*
X164857522Y-113588534D01*
X164920781Y-113783223D01*
X164978409Y-113896323D01*
X164998379Y-113935516D01*
X165013715Y-113965613D01*
X165134028Y-114131213D01*
X165278786Y-114275971D01*
X165433749Y-114388556D01*
X165444390Y-114396287D01*
X165522749Y-114436213D01*
X165537080Y-114443515D01*
X165587876Y-114491490D01*
X165604671Y-114559311D01*
X165582134Y-114625446D01*
X165537080Y-114664485D01*
X165444386Y-114711715D01*
X165278786Y-114832028D01*
X165134028Y-114976786D01*
X165013715Y-115142386D01*
X164920781Y-115324776D01*
X164857522Y-115519465D01*
X164825500Y-115721648D01*
X164825500Y-115926351D01*
X164857522Y-116128534D01*
X164920781Y-116323223D01*
X164962884Y-116405853D01*
X165013657Y-116505501D01*
X165013715Y-116505613D01*
X165134028Y-116671213D01*
X165278786Y-116815971D01*
X165392450Y-116898551D01*
X165444390Y-116936287D01*
X165535840Y-116982883D01*
X165537080Y-116983515D01*
X165587876Y-117031490D01*
X165604671Y-117099311D01*
X165582134Y-117165446D01*
X165537080Y-117204485D01*
X165444386Y-117251715D01*
X165278786Y-117372028D01*
X165134028Y-117516786D01*
X165013715Y-117682386D01*
X164920781Y-117864776D01*
X164857522Y-118059465D01*
X164825500Y-118261648D01*
X164825500Y-118466351D01*
X164857522Y-118668534D01*
X164920781Y-118863223D01*
X164964149Y-118948335D01*
X165001408Y-119021461D01*
X165013715Y-119045613D01*
X165134028Y-119211213D01*
X165278786Y-119355971D01*
X165433749Y-119468556D01*
X165444390Y-119476287D01*
X165535840Y-119522883D01*
X165537080Y-119523515D01*
X165587876Y-119571490D01*
X165604671Y-119639311D01*
X165582134Y-119705446D01*
X165537080Y-119744485D01*
X165444386Y-119791715D01*
X165278786Y-119912028D01*
X165134028Y-120056786D01*
X165013715Y-120222386D01*
X164920781Y-120404776D01*
X164857522Y-120599465D01*
X164825500Y-120801648D01*
X164825500Y-121006351D01*
X164857522Y-121208534D01*
X164920781Y-121403223D01*
X165013715Y-121585613D01*
X165134028Y-121751213D01*
X165278786Y-121895971D01*
X165433749Y-122008556D01*
X165444390Y-122016287D01*
X165516424Y-122052990D01*
X165537629Y-122063795D01*
X165588425Y-122111770D01*
X165605220Y-122179591D01*
X165582682Y-122245726D01*
X165537629Y-122284765D01*
X165444650Y-122332140D01*
X165279105Y-122452417D01*
X165279104Y-122452417D01*
X165134417Y-122597104D01*
X165134417Y-122597105D01*
X165014140Y-122762650D01*
X164921244Y-122944970D01*
X164858009Y-123139586D01*
X164849391Y-123194000D01*
X165810314Y-123194000D01*
X165805920Y-123198394D01*
X165753259Y-123289606D01*
X165726000Y-123391339D01*
X165726000Y-123496661D01*
X165753259Y-123598394D01*
X165805920Y-123689606D01*
X165810314Y-123694000D01*
X164849391Y-123694000D01*
X164858009Y-123748413D01*
X164921244Y-123943029D01*
X165014140Y-124125349D01*
X165134417Y-124290894D01*
X165134417Y-124290895D01*
X165279104Y-124435582D01*
X165444650Y-124555859D01*
X165626968Y-124648754D01*
X165821578Y-124711988D01*
X165876000Y-124720607D01*
X165876000Y-123759686D01*
X165880394Y-123764080D01*
X165971606Y-123816741D01*
X166073339Y-123844000D01*
X166178661Y-123844000D01*
X166280394Y-123816741D01*
X166371606Y-123764080D01*
X166376000Y-123759686D01*
X166376000Y-124720606D01*
X166430421Y-124711988D01*
X166625031Y-124648754D01*
X166807349Y-124555859D01*
X166972894Y-124435582D01*
X166972895Y-124435582D01*
X167117582Y-124290895D01*
X167117582Y-124290894D01*
X167237859Y-124125349D01*
X167330755Y-123943029D01*
X167393990Y-123748413D01*
X167402609Y-123694000D01*
X166441686Y-123694000D01*
X166446080Y-123689606D01*
X166498741Y-123598394D01*
X166526000Y-123496661D01*
X166526000Y-123391339D01*
X166498741Y-123289606D01*
X166446080Y-123198394D01*
X166441686Y-123194000D01*
X167402609Y-123194000D01*
X167393990Y-123139586D01*
X167330755Y-122944970D01*
X167237859Y-122762650D01*
X167117582Y-122597105D01*
X167117582Y-122597104D01*
X166972895Y-122452417D01*
X166807349Y-122332140D01*
X166714370Y-122284765D01*
X166663574Y-122236790D01*
X166646779Y-122168969D01*
X166669316Y-122102835D01*
X166714370Y-122063795D01*
X166715471Y-122063234D01*
X166807610Y-122016287D01*
X166828770Y-122000913D01*
X166973213Y-121895971D01*
X166973215Y-121895968D01*
X166973219Y-121895966D01*
X167117966Y-121751219D01*
X167117968Y-121751215D01*
X167117971Y-121751213D01*
X167170732Y-121678590D01*
X167238287Y-121585610D01*
X167331220Y-121403219D01*
X167394477Y-121208534D01*
X167426500Y-121006352D01*
X167426500Y-120801648D01*
X167418257Y-120749606D01*
X167394477Y-120599465D01*
X167331218Y-120404776D01*
X167238419Y-120222650D01*
X167238287Y-120222390D01*
X167230556Y-120211749D01*
X167117971Y-120056786D01*
X166973213Y-119912028D01*
X166807614Y-119791715D01*
X166764766Y-119769883D01*
X166714917Y-119744483D01*
X166664123Y-119696511D01*
X166647328Y-119628690D01*
X166669865Y-119562555D01*
X166714917Y-119523516D01*
X166807610Y-119476287D01*
X166828770Y-119460913D01*
X166973213Y-119355971D01*
X166973215Y-119355968D01*
X166973219Y-119355966D01*
X167117966Y-119211219D01*
X167117968Y-119211215D01*
X167117971Y-119211213D01*
X167185556Y-119118188D01*
X167238287Y-119045610D01*
X167331220Y-118863219D01*
X167394477Y-118668534D01*
X167426500Y-118466352D01*
X167426500Y-118261648D01*
X167394477Y-118059466D01*
X167331220Y-117864781D01*
X167331218Y-117864778D01*
X167331218Y-117864776D01*
X167287853Y-117779669D01*
X167238287Y-117682390D01*
X167162594Y-117578206D01*
X167117971Y-117516786D01*
X166973213Y-117372028D01*
X166807614Y-117251715D01*
X166801006Y-117248348D01*
X166714917Y-117204483D01*
X166664123Y-117156511D01*
X166647328Y-117088690D01*
X166669865Y-117022555D01*
X166714917Y-116983516D01*
X166807610Y-116936287D01*
X166859550Y-116898551D01*
X166973213Y-116815971D01*
X166973215Y-116815968D01*
X166973219Y-116815966D01*
X167117966Y-116671219D01*
X167117968Y-116671215D01*
X167117971Y-116671213D01*
X167197171Y-116562202D01*
X167238287Y-116505610D01*
X167331220Y-116323219D01*
X167394477Y-116128534D01*
X167426500Y-115926352D01*
X167426500Y-115721648D01*
X167394477Y-115519466D01*
X167331220Y-115324781D01*
X167331218Y-115324778D01*
X167331218Y-115324776D01*
X167297503Y-115258607D01*
X167238287Y-115142390D01*
X167225298Y-115124512D01*
X167117971Y-114976786D01*
X166973213Y-114832028D01*
X166807614Y-114711715D01*
X166801006Y-114708348D01*
X166714917Y-114664483D01*
X166664123Y-114616511D01*
X166647328Y-114548690D01*
X166669865Y-114482555D01*
X166714917Y-114443516D01*
X166807610Y-114396287D01*
X166828770Y-114380913D01*
X166973213Y-114275971D01*
X166973215Y-114275968D01*
X166973219Y-114275966D01*
X167117966Y-114131219D01*
X167117968Y-114131215D01*
X167117971Y-114131213D01*
X167221219Y-113989102D01*
X167238287Y-113965610D01*
X167331220Y-113783219D01*
X167394477Y-113588534D01*
X167426500Y-113386352D01*
X167426500Y-113181648D01*
X167420650Y-113144713D01*
X167394477Y-112979465D01*
X167331218Y-112784776D01*
X167297503Y-112718607D01*
X167238287Y-112602390D01*
X167216312Y-112572144D01*
X167117971Y-112436786D01*
X166973213Y-112292028D01*
X166807614Y-112171715D01*
X166801006Y-112168348D01*
X166714917Y-112124483D01*
X166664123Y-112076511D01*
X166647328Y-112008690D01*
X166669865Y-111942555D01*
X166714917Y-111903516D01*
X166807610Y-111856287D01*
X166828770Y-111840913D01*
X166973213Y-111735971D01*
X166973215Y-111735968D01*
X166973219Y-111735966D01*
X167117966Y-111591219D01*
X167117968Y-111591215D01*
X167117971Y-111591213D01*
X167201876Y-111475726D01*
X167238287Y-111425610D01*
X167331220Y-111243219D01*
X167394477Y-111048534D01*
X167426500Y-110846352D01*
X167426500Y-110641648D01*
X167411062Y-110544179D01*
X167394477Y-110439465D01*
X167331218Y-110244776D01*
X167297503Y-110178607D01*
X167238287Y-110062390D01*
X167193281Y-110000444D01*
X167117971Y-109896786D01*
X166973213Y-109752028D01*
X166807614Y-109631715D01*
X166801006Y-109628348D01*
X166714917Y-109584483D01*
X166664123Y-109536511D01*
X166647328Y-109468690D01*
X166669865Y-109402555D01*
X166714917Y-109363516D01*
X166807610Y-109316287D01*
X166828770Y-109300913D01*
X166973213Y-109195971D01*
X166973215Y-109195968D01*
X166973219Y-109195966D01*
X167117966Y-109051219D01*
X167117968Y-109051215D01*
X167117971Y-109051213D01*
X167170732Y-108978590D01*
X167238287Y-108885610D01*
X167331220Y-108703219D01*
X167394477Y-108508534D01*
X167426500Y-108306352D01*
X167426500Y-108101648D01*
X167394477Y-107899466D01*
X167331220Y-107704781D01*
X167331218Y-107704778D01*
X167331218Y-107704776D01*
X167275733Y-107595882D01*
X167238287Y-107522390D01*
X167230556Y-107511749D01*
X167117971Y-107356786D01*
X166973213Y-107212028D01*
X166807614Y-107091715D01*
X166772734Y-107073943D01*
X166714917Y-107044483D01*
X166664123Y-106996511D01*
X166647328Y-106928690D01*
X166669865Y-106862555D01*
X166714917Y-106823516D01*
X166807610Y-106776287D01*
X166904225Y-106706093D01*
X166973213Y-106655971D01*
X166973215Y-106655968D01*
X166973219Y-106655966D01*
X167117966Y-106511219D01*
X167117968Y-106511215D01*
X167117971Y-106511213D01*
X167201106Y-106396785D01*
X167238287Y-106345610D01*
X167331220Y-106163219D01*
X167394477Y-105968534D01*
X167426500Y-105766352D01*
X167426500Y-105561648D01*
X167403810Y-105418394D01*
X167394478Y-105359472D01*
X167394477Y-105359471D01*
X167394477Y-105359466D01*
X167389825Y-105345151D01*
X167387832Y-105275312D01*
X167420075Y-105219158D01*
X169367916Y-103271319D01*
X169429239Y-103237834D01*
X169455597Y-103235000D01*
X183177855Y-103235000D01*
X183244894Y-103254685D01*
X183290649Y-103307489D01*
X183300593Y-103376647D01*
X183300328Y-103378398D01*
X183273000Y-103550936D01*
X183273000Y-103750063D01*
X183304147Y-103946722D01*
X183365679Y-104136094D01*
X183456077Y-104313508D01*
X183483580Y-104351363D01*
X183483580Y-104351364D01*
X184046871Y-103788072D01*
X184062755Y-103847353D01*
X184129898Y-103963647D01*
X184224853Y-104058602D01*
X184341147Y-104125745D01*
X184400423Y-104141627D01*
X183837134Y-104704917D01*
X183874994Y-104732424D01*
X184052405Y-104822820D01*
X184241777Y-104884352D01*
X184438437Y-104915500D01*
X184637563Y-104915500D01*
X184834218Y-104884352D01*
X184919512Y-104856638D01*
X184989354Y-104854642D01*
X185049187Y-104890722D01*
X185080016Y-104953423D01*
X185072052Y-105022837D01*
X185045513Y-105062250D01*
X178665522Y-111442241D01*
X178604199Y-111475726D01*
X178539523Y-111472491D01*
X178497245Y-111458754D01*
X178357272Y-111436584D01*
X178287287Y-111425500D01*
X178074713Y-111425500D01*
X178026042Y-111433208D01*
X177864760Y-111458753D01*
X177662585Y-111524444D01*
X177473179Y-111620951D01*
X177301213Y-111745890D01*
X177150890Y-111896213D01*
X177025951Y-112068179D01*
X176929444Y-112257585D01*
X176863753Y-112459760D01*
X176830500Y-112669713D01*
X176830500Y-112882286D01*
X176862477Y-113084184D01*
X176863754Y-113092243D01*
X176879396Y-113140385D01*
X176929444Y-113294414D01*
X177025951Y-113483820D01*
X177150890Y-113655786D01*
X177301213Y-113806109D01*
X177473182Y-113931050D01*
X177481946Y-113935516D01*
X177532742Y-113983491D01*
X177549536Y-114051312D01*
X177526998Y-114117447D01*
X177481946Y-114156484D01*
X177473182Y-114160949D01*
X177301213Y-114285890D01*
X177150890Y-114436213D01*
X177025951Y-114608179D01*
X176929444Y-114797585D01*
X176863753Y-114999760D01*
X176830500Y-115209713D01*
X176830500Y-115422286D01*
X176862477Y-115624185D01*
X176863754Y-115632243D01*
X176882531Y-115690033D01*
X176929444Y-115834414D01*
X177025951Y-116023820D01*
X177150890Y-116195786D01*
X177264430Y-116309326D01*
X177297915Y-116370649D01*
X177292931Y-116440341D01*
X177251059Y-116496274D01*
X177220083Y-116513189D01*
X177088669Y-116562203D01*
X177088664Y-116562206D01*
X176973455Y-116648452D01*
X176973452Y-116648455D01*
X176887206Y-116763664D01*
X176887202Y-116763671D01*
X176836908Y-116898517D01*
X176833255Y-116932500D01*
X176830501Y-116958123D01*
X176830500Y-116958135D01*
X176830500Y-118753870D01*
X176830501Y-118753876D01*
X176836908Y-118813483D01*
X176887202Y-118948328D01*
X176887206Y-118948335D01*
X176973452Y-119063544D01*
X176973455Y-119063547D01*
X177088664Y-119149793D01*
X177088671Y-119149797D01*
X177223517Y-119200091D01*
X177223516Y-119200091D01*
X177230444Y-119200835D01*
X177283127Y-119206500D01*
X179078872Y-119206499D01*
X179138483Y-119200091D01*
X179273331Y-119149796D01*
X179388546Y-119063546D01*
X179474796Y-118948331D01*
X179525091Y-118813483D01*
X179531500Y-118753873D01*
X179531499Y-116958128D01*
X179526189Y-116908732D01*
X179525091Y-116898516D01*
X179474797Y-116763671D01*
X179474793Y-116763664D01*
X179388547Y-116648455D01*
X179388544Y-116648452D01*
X179273335Y-116562206D01*
X179273328Y-116562202D01*
X179141917Y-116513189D01*
X179085983Y-116471318D01*
X179061566Y-116405853D01*
X179076418Y-116337580D01*
X179097563Y-116309332D01*
X179211104Y-116195792D01*
X179259970Y-116128534D01*
X179336048Y-116023820D01*
X179336047Y-116023820D01*
X179336051Y-116023816D01*
X179432557Y-115834412D01*
X179498246Y-115632243D01*
X179531500Y-115422287D01*
X179531500Y-115209713D01*
X179498246Y-114999757D01*
X179432557Y-114797588D01*
X179336051Y-114608184D01*
X179336049Y-114608181D01*
X179336048Y-114608179D01*
X179211109Y-114436213D01*
X179060786Y-114285890D01*
X178888820Y-114160951D01*
X178888115Y-114160591D01*
X178880054Y-114156485D01*
X178829259Y-114108512D01*
X178812463Y-114040692D01*
X178834999Y-113974556D01*
X178880054Y-113935515D01*
X178888816Y-113931051D01*
X178933912Y-113898287D01*
X179060786Y-113806109D01*
X179060788Y-113806106D01*
X179060792Y-113806104D01*
X179211104Y-113655792D01*
X179211106Y-113655788D01*
X179211109Y-113655786D01*
X179336048Y-113483820D01*
X179336047Y-113483820D01*
X179336051Y-113483816D01*
X179432557Y-113294412D01*
X179498246Y-113092243D01*
X179531500Y-112882287D01*
X179531500Y-112669713D01*
X179498246Y-112459757D01*
X179484506Y-112417473D01*
X179482512Y-112347635D01*
X179514755Y-112291478D01*
X186502916Y-105303319D01*
X186564239Y-105269834D01*
X186590597Y-105267000D01*
X191055331Y-105267000D01*
X191055347Y-105267001D01*
X191062943Y-105267001D01*
X191221054Y-105267001D01*
X191221057Y-105267001D01*
X191373785Y-105226077D01*
X191423904Y-105197139D01*
X191510716Y-105147020D01*
X191622520Y-105035216D01*
X191622520Y-105035214D01*
X191632728Y-105025007D01*
X191632730Y-105025004D01*
X191740978Y-104916755D01*
X191802299Y-104883272D01*
X191857614Y-104883866D01*
X191861644Y-104884833D01*
X191861661Y-104884839D01*
X192058403Y-104916000D01*
X192058404Y-104916000D01*
X192257596Y-104916000D01*
X192257597Y-104916000D01*
X192267615Y-104914413D01*
X192336906Y-104923364D01*
X192390360Y-104968358D01*
X192411003Y-105035109D01*
X192392281Y-105102423D01*
X192374697Y-105124566D01*
X185360084Y-112139181D01*
X185298761Y-112172666D01*
X185272403Y-112175500D01*
X184800719Y-112175500D01*
X184733680Y-112155815D01*
X184690235Y-112107795D01*
X184670052Y-112068185D01*
X184670051Y-112068184D01*
X184545109Y-111896213D01*
X184394786Y-111745890D01*
X184222820Y-111620951D01*
X184033414Y-111524444D01*
X184033413Y-111524443D01*
X184033412Y-111524443D01*
X183831243Y-111458754D01*
X183831241Y-111458753D01*
X183831240Y-111458753D01*
X183669957Y-111433208D01*
X183621287Y-111425500D01*
X183408713Y-111425500D01*
X183360042Y-111433208D01*
X183198760Y-111458753D01*
X182996585Y-111524444D01*
X182807179Y-111620951D01*
X182635213Y-111745890D01*
X182484890Y-111896213D01*
X182359951Y-112068179D01*
X182263444Y-112257585D01*
X182197753Y-112459760D01*
X182164500Y-112669713D01*
X182164500Y-112882286D01*
X182196477Y-113084184D01*
X182197754Y-113092243D01*
X182213396Y-113140385D01*
X182263444Y-113294414D01*
X182359951Y-113483820D01*
X182484890Y-113655786D01*
X182635213Y-113806109D01*
X182807182Y-113931050D01*
X182815946Y-113935516D01*
X182866742Y-113983491D01*
X182883536Y-114051312D01*
X182860998Y-114117447D01*
X182815946Y-114156484D01*
X182807182Y-114160949D01*
X182635213Y-114285890D01*
X182484890Y-114436213D01*
X182359951Y-114608179D01*
X182263444Y-114797585D01*
X182197753Y-114999760D01*
X182164500Y-115209713D01*
X182164500Y-115422286D01*
X182196477Y-115624185D01*
X182197754Y-115632243D01*
X182216531Y-115690033D01*
X182263444Y-115834414D01*
X182359951Y-116023820D01*
X182484890Y-116195786D01*
X182598430Y-116309326D01*
X182631915Y-116370649D01*
X182626931Y-116440341D01*
X182585059Y-116496274D01*
X182554083Y-116513189D01*
X182422669Y-116562203D01*
X182422664Y-116562206D01*
X182307455Y-116648452D01*
X182307452Y-116648455D01*
X182221206Y-116763664D01*
X182221202Y-116763671D01*
X182170908Y-116898517D01*
X182167255Y-116932500D01*
X182164501Y-116958123D01*
X182164500Y-116958135D01*
X182164500Y-118753870D01*
X182164501Y-118753876D01*
X182170908Y-118813483D01*
X182221202Y-118948328D01*
X182221206Y-118948335D01*
X182307452Y-119063544D01*
X182307455Y-119063547D01*
X182422664Y-119149793D01*
X182422671Y-119149797D01*
X182557517Y-119200091D01*
X182557516Y-119200091D01*
X182564444Y-119200835D01*
X182617127Y-119206500D01*
X184412872Y-119206499D01*
X184472483Y-119200091D01*
X184607331Y-119149796D01*
X184722546Y-119063546D01*
X184808796Y-118948331D01*
X184859091Y-118813483D01*
X184865500Y-118753873D01*
X184865499Y-116958128D01*
X184860189Y-116908732D01*
X184859091Y-116898516D01*
X184808797Y-116763671D01*
X184808793Y-116763664D01*
X184722547Y-116648455D01*
X184722544Y-116648452D01*
X184607335Y-116562206D01*
X184607328Y-116562202D01*
X184475917Y-116513189D01*
X184419983Y-116471318D01*
X184395566Y-116405853D01*
X184410418Y-116337580D01*
X184431563Y-116309332D01*
X184545104Y-116195792D01*
X184593970Y-116128534D01*
X184670048Y-116023820D01*
X184670047Y-116023820D01*
X184670051Y-116023816D01*
X184766557Y-115834412D01*
X184832246Y-115632243D01*
X184865500Y-115422287D01*
X184865500Y-115209713D01*
X184832246Y-114999757D01*
X184766557Y-114797588D01*
X184670051Y-114608184D01*
X184670049Y-114608181D01*
X184670048Y-114608179D01*
X184545109Y-114436213D01*
X184394786Y-114285890D01*
X184222820Y-114160951D01*
X184222115Y-114160591D01*
X184214054Y-114156485D01*
X184163259Y-114108512D01*
X184146463Y-114040692D01*
X184168999Y-113974556D01*
X184214054Y-113935515D01*
X184222816Y-113931051D01*
X184267912Y-113898287D01*
X184394786Y-113806109D01*
X184394788Y-113806106D01*
X184394792Y-113806104D01*
X184545104Y-113655792D01*
X184545106Y-113655788D01*
X184545109Y-113655786D01*
X184603661Y-113575193D01*
X184670051Y-113483816D01*
X184674157Y-113475757D01*
X184690235Y-113444205D01*
X184738209Y-113393409D01*
X184800719Y-113376500D01*
X185485831Y-113376500D01*
X185485847Y-113376501D01*
X185493443Y-113376501D01*
X185651554Y-113376501D01*
X185651557Y-113376501D01*
X185804285Y-113335577D01*
X185854404Y-113306639D01*
X185941216Y-113256520D01*
X186053020Y-113144716D01*
X186053020Y-113144714D01*
X186063228Y-113134507D01*
X186063230Y-113134504D01*
X194280978Y-104916755D01*
X194342299Y-104883272D01*
X194397614Y-104883866D01*
X194401644Y-104884833D01*
X194401661Y-104884839D01*
X194598403Y-104916000D01*
X194598404Y-104916000D01*
X194797596Y-104916000D01*
X194797597Y-104916000D01*
X194994339Y-104884839D01*
X194994342Y-104884838D01*
X194994343Y-104884838D01*
X195183780Y-104823286D01*
X195183780Y-104823285D01*
X195183783Y-104823285D01*
X195361266Y-104732853D01*
X195522418Y-104615769D01*
X195663269Y-104474918D01*
X195780353Y-104313766D01*
X195857515Y-104162327D01*
X195905490Y-104111531D01*
X195973311Y-104094736D01*
X196039446Y-104117273D01*
X196078485Y-104162327D01*
X196155647Y-104313766D01*
X196272731Y-104474918D01*
X196413582Y-104615769D01*
X196574734Y-104732853D01*
X196574744Y-104732858D01*
X196578273Y-104735020D01*
X196625157Y-104786825D01*
X196637500Y-104840758D01*
X196637500Y-105356902D01*
X196617815Y-105423941D01*
X196601181Y-105444583D01*
X190603522Y-111442241D01*
X190542199Y-111475726D01*
X190477523Y-111472491D01*
X190435245Y-111458754D01*
X190295272Y-111436584D01*
X190225287Y-111425500D01*
X190012713Y-111425500D01*
X189964042Y-111433208D01*
X189802760Y-111458753D01*
X189600585Y-111524444D01*
X189411179Y-111620951D01*
X189239213Y-111745890D01*
X189088890Y-111896213D01*
X188963951Y-112068179D01*
X188867444Y-112257585D01*
X188801753Y-112459760D01*
X188768500Y-112669713D01*
X188768500Y-112882286D01*
X188800477Y-113084184D01*
X188801754Y-113092243D01*
X188817396Y-113140385D01*
X188867444Y-113294414D01*
X188963951Y-113483820D01*
X189088890Y-113655786D01*
X189239213Y-113806109D01*
X189411182Y-113931050D01*
X189419946Y-113935516D01*
X189470742Y-113983491D01*
X189487536Y-114051312D01*
X189464998Y-114117447D01*
X189419946Y-114156484D01*
X189411182Y-114160949D01*
X189239213Y-114285890D01*
X189088890Y-114436213D01*
X188963951Y-114608179D01*
X188867444Y-114797585D01*
X188801753Y-114999760D01*
X188768500Y-115209713D01*
X188768500Y-115422286D01*
X188800477Y-115624185D01*
X188801754Y-115632243D01*
X188820531Y-115690033D01*
X188867444Y-115834414D01*
X188963951Y-116023820D01*
X189088890Y-116195786D01*
X189202430Y-116309326D01*
X189235915Y-116370649D01*
X189230931Y-116440341D01*
X189189059Y-116496274D01*
X189158083Y-116513189D01*
X189026669Y-116562203D01*
X189026664Y-116562206D01*
X188911455Y-116648452D01*
X188911452Y-116648455D01*
X188825206Y-116763664D01*
X188825202Y-116763671D01*
X188774908Y-116898517D01*
X188771255Y-116932500D01*
X188768501Y-116958123D01*
X188768500Y-116958135D01*
X188768500Y-118753870D01*
X188768501Y-118753876D01*
X188774908Y-118813483D01*
X188825202Y-118948328D01*
X188825206Y-118948335D01*
X188911452Y-119063544D01*
X188911455Y-119063547D01*
X189026664Y-119149793D01*
X189026671Y-119149797D01*
X189161517Y-119200091D01*
X189161516Y-119200091D01*
X189168444Y-119200835D01*
X189221127Y-119206500D01*
X191016872Y-119206499D01*
X191076483Y-119200091D01*
X191211331Y-119149796D01*
X191326546Y-119063546D01*
X191412796Y-118948331D01*
X191463091Y-118813483D01*
X191469500Y-118753873D01*
X191469499Y-116958128D01*
X191464189Y-116908732D01*
X191463091Y-116898516D01*
X191412797Y-116763671D01*
X191412793Y-116763664D01*
X191326547Y-116648455D01*
X191326544Y-116648452D01*
X191211335Y-116562206D01*
X191211328Y-116562202D01*
X191079917Y-116513189D01*
X191023983Y-116471318D01*
X190999566Y-116405853D01*
X191014418Y-116337580D01*
X191035563Y-116309332D01*
X191149104Y-116195792D01*
X191197970Y-116128534D01*
X191274048Y-116023820D01*
X191274047Y-116023820D01*
X191274051Y-116023816D01*
X191370557Y-115834412D01*
X191436246Y-115632243D01*
X191469500Y-115422287D01*
X191469500Y-115209713D01*
X191436246Y-114999757D01*
X191370557Y-114797588D01*
X191274051Y-114608184D01*
X191274049Y-114608181D01*
X191274048Y-114608179D01*
X191149109Y-114436213D01*
X190998786Y-114285890D01*
X190826820Y-114160951D01*
X190826115Y-114160591D01*
X190818054Y-114156485D01*
X190767259Y-114108512D01*
X190750463Y-114040692D01*
X190772999Y-113974556D01*
X190818054Y-113935515D01*
X190826816Y-113931051D01*
X190871912Y-113898287D01*
X190998786Y-113806109D01*
X190998788Y-113806106D01*
X190998792Y-113806104D01*
X191149104Y-113655792D01*
X191149106Y-113655788D01*
X191149109Y-113655786D01*
X191274048Y-113483820D01*
X191274047Y-113483820D01*
X191274051Y-113483816D01*
X191370557Y-113294412D01*
X191436246Y-113092243D01*
X191469500Y-112882287D01*
X191469500Y-112669713D01*
X191436246Y-112459757D01*
X191422506Y-112417473D01*
X191420512Y-112347635D01*
X191452755Y-112291478D01*
X197596506Y-106147728D01*
X197596511Y-106147724D01*
X197606714Y-106137520D01*
X197606716Y-106137520D01*
X197718520Y-106025716D01*
X197797577Y-105888784D01*
X197827534Y-105776981D01*
X197838500Y-105736058D01*
X197838500Y-105577943D01*
X197838500Y-104840758D01*
X197858185Y-104773719D01*
X197897727Y-104735020D01*
X197901249Y-104732861D01*
X197901266Y-104732853D01*
X198062418Y-104615769D01*
X198203269Y-104474918D01*
X198320353Y-104313766D01*
X198397795Y-104161776D01*
X198445769Y-104110981D01*
X198513590Y-104094186D01*
X198579725Y-104116723D01*
X198618765Y-104161777D01*
X198696077Y-104313508D01*
X198723580Y-104351363D01*
X198723581Y-104351364D01*
X199286871Y-103788074D01*
X199302755Y-103847353D01*
X199369898Y-103963647D01*
X199464853Y-104058602D01*
X199581147Y-104125745D01*
X199640425Y-104141628D01*
X199077134Y-104704917D01*
X199114994Y-104732424D01*
X199292405Y-104822820D01*
X199481777Y-104884352D01*
X199678437Y-104915500D01*
X199877563Y-104915500D01*
X200074222Y-104884352D01*
X200263594Y-104822820D01*
X200441005Y-104732424D01*
X200478863Y-104704918D01*
X200478863Y-104704917D01*
X199915574Y-104141628D01*
X199974853Y-104125745D01*
X200091147Y-104058602D01*
X200186102Y-103963647D01*
X200253245Y-103847353D01*
X200269128Y-103788074D01*
X200832417Y-104351363D01*
X200832418Y-104351363D01*
X200859924Y-104313505D01*
X200937234Y-104161777D01*
X200985208Y-104110981D01*
X201053029Y-104094186D01*
X201119164Y-104116723D01*
X201158204Y-104161777D01*
X201178662Y-104201927D01*
X201235647Y-104313766D01*
X201352731Y-104474918D01*
X201493582Y-104615769D01*
X201654734Y-104732853D01*
X201654744Y-104732858D01*
X201658273Y-104735020D01*
X201705157Y-104786825D01*
X201717500Y-104840758D01*
X201717500Y-105864902D01*
X201697815Y-105931941D01*
X201681181Y-105952583D01*
X196191522Y-111442241D01*
X196130199Y-111475726D01*
X196065523Y-111472491D01*
X196023245Y-111458754D01*
X195883272Y-111436584D01*
X195813287Y-111425500D01*
X195600713Y-111425500D01*
X195552042Y-111433208D01*
X195390760Y-111458753D01*
X195188585Y-111524444D01*
X194999179Y-111620951D01*
X194827213Y-111745890D01*
X194676890Y-111896213D01*
X194551951Y-112068179D01*
X194455444Y-112257585D01*
X194389753Y-112459760D01*
X194356500Y-112669713D01*
X194356500Y-112882286D01*
X194388477Y-113084184D01*
X194389754Y-113092243D01*
X194405396Y-113140385D01*
X194455444Y-113294414D01*
X194551951Y-113483820D01*
X194676890Y-113655786D01*
X194827213Y-113806109D01*
X194999182Y-113931050D01*
X195007946Y-113935516D01*
X195058742Y-113983491D01*
X195075536Y-114051312D01*
X195052998Y-114117447D01*
X195007946Y-114156484D01*
X194999182Y-114160949D01*
X194827213Y-114285890D01*
X194676890Y-114436213D01*
X194551951Y-114608179D01*
X194455444Y-114797585D01*
X194389753Y-114999760D01*
X194356500Y-115209713D01*
X194356500Y-115422286D01*
X194388477Y-115624185D01*
X194389754Y-115632243D01*
X194408531Y-115690033D01*
X194455444Y-115834414D01*
X194551951Y-116023820D01*
X194676890Y-116195786D01*
X194790430Y-116309326D01*
X194823915Y-116370649D01*
X194818931Y-116440341D01*
X194777059Y-116496274D01*
X194746083Y-116513189D01*
X194614669Y-116562203D01*
X194614664Y-116562206D01*
X194499455Y-116648452D01*
X194499452Y-116648455D01*
X194413206Y-116763664D01*
X194413202Y-116763671D01*
X194362908Y-116898517D01*
X194359255Y-116932500D01*
X194356501Y-116958123D01*
X194356500Y-116958135D01*
X194356500Y-118753870D01*
X194356501Y-118753876D01*
X194362908Y-118813483D01*
X194413202Y-118948328D01*
X194413206Y-118948335D01*
X194499452Y-119063544D01*
X194499455Y-119063547D01*
X194614664Y-119149793D01*
X194614671Y-119149797D01*
X194749517Y-119200091D01*
X194749516Y-119200091D01*
X194756444Y-119200835D01*
X194809127Y-119206500D01*
X196604872Y-119206499D01*
X196664483Y-119200091D01*
X196799331Y-119149796D01*
X196914546Y-119063546D01*
X197000796Y-118948331D01*
X197051091Y-118813483D01*
X197057500Y-118753873D01*
X197057499Y-116958128D01*
X197052189Y-116908732D01*
X197051091Y-116898516D01*
X197000797Y-116763671D01*
X197000793Y-116763664D01*
X196914547Y-116648455D01*
X196914544Y-116648452D01*
X196799335Y-116562206D01*
X196799328Y-116562202D01*
X196667917Y-116513189D01*
X196611983Y-116471318D01*
X196587566Y-116405853D01*
X196602418Y-116337580D01*
X196623563Y-116309332D01*
X196737104Y-116195792D01*
X196785970Y-116128534D01*
X196862048Y-116023820D01*
X196862047Y-116023820D01*
X196862051Y-116023816D01*
X196958557Y-115834412D01*
X197024246Y-115632243D01*
X197057500Y-115422287D01*
X197057500Y-115209713D01*
X197024246Y-114999757D01*
X196958557Y-114797588D01*
X196862051Y-114608184D01*
X196862049Y-114608181D01*
X196862048Y-114608179D01*
X196737109Y-114436213D01*
X196586786Y-114285890D01*
X196414820Y-114160951D01*
X196414115Y-114160591D01*
X196406054Y-114156485D01*
X196355259Y-114108512D01*
X196338463Y-114040692D01*
X196360999Y-113974556D01*
X196406054Y-113935515D01*
X196414816Y-113931051D01*
X196459912Y-113898287D01*
X196586786Y-113806109D01*
X196586788Y-113806106D01*
X196586792Y-113806104D01*
X196737104Y-113655792D01*
X196737106Y-113655788D01*
X196737109Y-113655786D01*
X196862048Y-113483820D01*
X196862047Y-113483820D01*
X196862051Y-113483816D01*
X196958557Y-113294412D01*
X197024246Y-113092243D01*
X197057500Y-112882287D01*
X197057500Y-112669713D01*
X197024246Y-112459757D01*
X197010506Y-112417473D01*
X197008512Y-112347635D01*
X197040755Y-112291478D01*
X202686713Y-106645521D01*
X202686716Y-106645520D01*
X202798520Y-106533716D01*
X202848639Y-106446904D01*
X202877577Y-106396785D01*
X202918501Y-106244057D01*
X202918501Y-106085943D01*
X202918501Y-106078348D01*
X202918500Y-106078330D01*
X202918500Y-104840758D01*
X202938185Y-104773719D01*
X202977727Y-104735020D01*
X202981249Y-104732861D01*
X202981266Y-104732853D01*
X203142418Y-104615769D01*
X203283269Y-104474918D01*
X203400353Y-104313766D01*
X203477515Y-104162327D01*
X203525490Y-104111531D01*
X203593311Y-104094736D01*
X203659446Y-104117273D01*
X203698485Y-104162327D01*
X203775647Y-104313766D01*
X203892731Y-104474918D01*
X204033582Y-104615769D01*
X204194734Y-104732853D01*
X204194744Y-104732858D01*
X204198273Y-104735020D01*
X204245157Y-104786825D01*
X204257500Y-104840758D01*
X204257500Y-110436902D01*
X204237815Y-110503941D01*
X204221181Y-110524583D01*
X203303522Y-111442241D01*
X203242199Y-111475726D01*
X203177523Y-111472491D01*
X203135245Y-111458754D01*
X202995272Y-111436584D01*
X202925287Y-111425500D01*
X202712713Y-111425500D01*
X202664042Y-111433208D01*
X202502760Y-111458753D01*
X202300585Y-111524444D01*
X202111179Y-111620951D01*
X201939213Y-111745890D01*
X201788890Y-111896213D01*
X201663951Y-112068179D01*
X201567444Y-112257585D01*
X201501753Y-112459760D01*
X201468500Y-112669713D01*
X201468500Y-112882286D01*
X201500477Y-113084184D01*
X201501754Y-113092243D01*
X201517396Y-113140385D01*
X201567444Y-113294414D01*
X201663951Y-113483820D01*
X201788890Y-113655786D01*
X201939213Y-113806109D01*
X202111182Y-113931050D01*
X202119946Y-113935516D01*
X202170742Y-113983491D01*
X202187536Y-114051312D01*
X202164998Y-114117447D01*
X202119946Y-114156484D01*
X202111182Y-114160949D01*
X201939213Y-114285890D01*
X201788890Y-114436213D01*
X201663951Y-114608179D01*
X201567444Y-114797585D01*
X201501753Y-114999760D01*
X201468500Y-115209713D01*
X201468500Y-115422286D01*
X201500477Y-115624185D01*
X201501754Y-115632243D01*
X201520531Y-115690033D01*
X201567444Y-115834414D01*
X201663951Y-116023820D01*
X201788890Y-116195786D01*
X201902430Y-116309326D01*
X201935915Y-116370649D01*
X201930931Y-116440341D01*
X201889059Y-116496274D01*
X201858083Y-116513189D01*
X201726669Y-116562203D01*
X201726664Y-116562206D01*
X201611455Y-116648452D01*
X201611452Y-116648455D01*
X201525206Y-116763664D01*
X201525202Y-116763671D01*
X201474908Y-116898517D01*
X201471255Y-116932500D01*
X201468501Y-116958123D01*
X201468500Y-116958135D01*
X201468500Y-118753870D01*
X201468501Y-118753876D01*
X201474908Y-118813483D01*
X201525202Y-118948328D01*
X201525206Y-118948335D01*
X201611452Y-119063544D01*
X201611455Y-119063547D01*
X201726664Y-119149793D01*
X201726671Y-119149797D01*
X201861517Y-119200091D01*
X201861516Y-119200091D01*
X201868444Y-119200835D01*
X201921127Y-119206500D01*
X203716872Y-119206499D01*
X203776483Y-119200091D01*
X203911331Y-119149796D01*
X204026546Y-119063546D01*
X204112796Y-118948331D01*
X204163091Y-118813483D01*
X204169500Y-118753873D01*
X204169499Y-116958128D01*
X204164189Y-116908732D01*
X204163091Y-116898516D01*
X204112797Y-116763671D01*
X204112793Y-116763664D01*
X204026547Y-116648455D01*
X204026544Y-116648452D01*
X203911335Y-116562206D01*
X203911328Y-116562202D01*
X203779917Y-116513189D01*
X203723983Y-116471318D01*
X203699566Y-116405853D01*
X203714418Y-116337580D01*
X203735563Y-116309332D01*
X203849104Y-116195792D01*
X203897970Y-116128534D01*
X203974048Y-116023820D01*
X203974047Y-116023820D01*
X203974051Y-116023816D01*
X204070557Y-115834412D01*
X204136246Y-115632243D01*
X204169500Y-115422287D01*
X204169500Y-115209713D01*
X204136246Y-114999757D01*
X204070557Y-114797588D01*
X203974051Y-114608184D01*
X203974049Y-114608181D01*
X203974048Y-114608179D01*
X203849109Y-114436213D01*
X203698786Y-114285890D01*
X203526820Y-114160951D01*
X203526115Y-114160591D01*
X203518054Y-114156485D01*
X203467259Y-114108512D01*
X203450463Y-114040692D01*
X203472999Y-113974556D01*
X203518054Y-113935515D01*
X203526816Y-113931051D01*
X203571912Y-113898287D01*
X203698786Y-113806109D01*
X203698788Y-113806106D01*
X203698792Y-113806104D01*
X203849104Y-113655792D01*
X203849106Y-113655788D01*
X203849109Y-113655786D01*
X203974048Y-113483820D01*
X203974047Y-113483820D01*
X203974051Y-113483816D01*
X204070557Y-113294412D01*
X204136246Y-113092243D01*
X204169500Y-112882287D01*
X204169500Y-112669713D01*
X204136246Y-112459757D01*
X204122506Y-112417473D01*
X204120512Y-112347635D01*
X204152755Y-112291478D01*
X205216506Y-111227728D01*
X205216511Y-111227724D01*
X205226714Y-111217520D01*
X205226716Y-111217520D01*
X205338520Y-111105716D01*
X205417577Y-110968784D01*
X205447534Y-110856981D01*
X205458500Y-110816058D01*
X205458500Y-110657943D01*
X205458500Y-104840758D01*
X205478185Y-104773719D01*
X205517727Y-104735020D01*
X205521249Y-104732861D01*
X205521266Y-104732853D01*
X205682418Y-104615769D01*
X205823269Y-104474918D01*
X205940353Y-104313766D01*
X206017515Y-104162327D01*
X206065490Y-104111531D01*
X206133311Y-104094736D01*
X206199446Y-104117273D01*
X206238485Y-104162327D01*
X206315647Y-104313766D01*
X206432731Y-104474918D01*
X206573582Y-104615769D01*
X206734734Y-104732853D01*
X206734744Y-104732858D01*
X206738273Y-104735020D01*
X206785157Y-104786825D01*
X206797500Y-104840758D01*
X206797500Y-111680330D01*
X206797499Y-111680348D01*
X206797499Y-111846054D01*
X206797498Y-111846054D01*
X206797499Y-111846057D01*
X206838423Y-111998785D01*
X206848086Y-112015521D01*
X206848087Y-112015524D01*
X206917475Y-112135709D01*
X206917481Y-112135717D01*
X207036349Y-112254585D01*
X207036355Y-112254590D01*
X207073241Y-112291476D01*
X207106726Y-112352799D01*
X207103492Y-112417473D01*
X207089753Y-112459757D01*
X207056500Y-112669713D01*
X207056500Y-112882286D01*
X207088477Y-113084184D01*
X207089754Y-113092243D01*
X207105396Y-113140385D01*
X207155444Y-113294414D01*
X207251951Y-113483820D01*
X207376890Y-113655786D01*
X207527213Y-113806109D01*
X207699182Y-113931050D01*
X207707946Y-113935516D01*
X207758742Y-113983491D01*
X207775536Y-114051312D01*
X207752998Y-114117447D01*
X207707946Y-114156484D01*
X207699182Y-114160949D01*
X207527213Y-114285890D01*
X207376890Y-114436213D01*
X207251951Y-114608179D01*
X207155444Y-114797585D01*
X207089753Y-114999760D01*
X207056500Y-115209713D01*
X207056500Y-115422286D01*
X207088477Y-115624185D01*
X207089754Y-115632243D01*
X207108531Y-115690033D01*
X207155444Y-115834414D01*
X207251951Y-116023820D01*
X207376890Y-116195786D01*
X207490430Y-116309326D01*
X207523915Y-116370649D01*
X207518931Y-116440341D01*
X207477059Y-116496274D01*
X207446083Y-116513189D01*
X207314669Y-116562203D01*
X207314664Y-116562206D01*
X207199455Y-116648452D01*
X207199452Y-116648455D01*
X207113206Y-116763664D01*
X207113202Y-116763671D01*
X207062908Y-116898517D01*
X207059255Y-116932500D01*
X207056501Y-116958123D01*
X207056500Y-116958135D01*
X207056500Y-118753870D01*
X207056501Y-118753876D01*
X207062908Y-118813483D01*
X207113202Y-118948328D01*
X207113206Y-118948335D01*
X207199452Y-119063544D01*
X207199455Y-119063547D01*
X207314664Y-119149793D01*
X207314671Y-119149797D01*
X207449517Y-119200091D01*
X207449516Y-119200091D01*
X207456444Y-119200835D01*
X207509127Y-119206500D01*
X209304872Y-119206499D01*
X209364483Y-119200091D01*
X209499331Y-119149796D01*
X209614546Y-119063546D01*
X209700796Y-118948331D01*
X209751091Y-118813483D01*
X209757500Y-118753873D01*
X209757499Y-116958128D01*
X209752189Y-116908732D01*
X209751091Y-116898516D01*
X209700797Y-116763671D01*
X209700793Y-116763664D01*
X209614547Y-116648455D01*
X209614544Y-116648452D01*
X209499335Y-116562206D01*
X209499328Y-116562202D01*
X209367917Y-116513189D01*
X209311983Y-116471318D01*
X209287566Y-116405853D01*
X209302418Y-116337580D01*
X209323563Y-116309332D01*
X209437104Y-116195792D01*
X209485970Y-116128534D01*
X209562048Y-116023820D01*
X209562047Y-116023820D01*
X209562051Y-116023816D01*
X209658557Y-115834412D01*
X209724246Y-115632243D01*
X209757500Y-115422287D01*
X209757500Y-115209713D01*
X209724246Y-114999757D01*
X209658557Y-114797588D01*
X209562051Y-114608184D01*
X209562049Y-114608181D01*
X209562048Y-114608179D01*
X209437109Y-114436213D01*
X209286786Y-114285890D01*
X209114820Y-114160951D01*
X209114115Y-114160591D01*
X209106054Y-114156485D01*
X209055259Y-114108512D01*
X209038463Y-114040692D01*
X209060999Y-113974556D01*
X209106054Y-113935515D01*
X209114816Y-113931051D01*
X209159912Y-113898287D01*
X209286786Y-113806109D01*
X209286788Y-113806106D01*
X209286792Y-113806104D01*
X209437104Y-113655792D01*
X209437106Y-113655788D01*
X209437109Y-113655786D01*
X209562048Y-113483820D01*
X209562047Y-113483820D01*
X209562051Y-113483816D01*
X209658557Y-113294412D01*
X209724246Y-113092243D01*
X209757500Y-112882287D01*
X209757500Y-112669713D01*
X209724246Y-112459757D01*
X209658557Y-112257588D01*
X209562051Y-112068184D01*
X209562049Y-112068181D01*
X209562048Y-112068179D01*
X209437109Y-111896213D01*
X209286786Y-111745890D01*
X209114820Y-111620951D01*
X208925414Y-111524444D01*
X208925413Y-111524443D01*
X208925412Y-111524443D01*
X208723243Y-111458754D01*
X208723241Y-111458753D01*
X208723240Y-111458753D01*
X208561957Y-111433208D01*
X208513287Y-111425500D01*
X208300713Y-111425500D01*
X208141897Y-111450653D01*
X208072604Y-111441698D01*
X208019152Y-111396702D01*
X207998513Y-111329950D01*
X207998500Y-111328180D01*
X207998500Y-104840758D01*
X208018185Y-104773719D01*
X208057727Y-104735020D01*
X208061249Y-104732861D01*
X208061266Y-104732853D01*
X208222418Y-104615769D01*
X208363269Y-104474918D01*
X208480353Y-104313766D01*
X208557515Y-104162327D01*
X208605490Y-104111531D01*
X208673311Y-104094736D01*
X208739446Y-104117273D01*
X208778485Y-104162327D01*
X208855647Y-104313766D01*
X208972731Y-104474918D01*
X209113582Y-104615769D01*
X209274734Y-104732853D01*
X209274744Y-104732858D01*
X209278273Y-104735020D01*
X209325157Y-104786825D01*
X209337500Y-104840758D01*
X209337500Y-107362330D01*
X209337499Y-107362348D01*
X209337499Y-107528054D01*
X209337498Y-107528054D01*
X209355673Y-107595882D01*
X209378423Y-107680785D01*
X209392277Y-107704781D01*
X209407358Y-107730900D01*
X209407359Y-107730904D01*
X209407360Y-107730904D01*
X209424152Y-107759990D01*
X209457479Y-107817714D01*
X209457481Y-107817717D01*
X209576349Y-107936585D01*
X209576355Y-107936590D01*
X213931241Y-112291476D01*
X213964726Y-112352799D01*
X213961492Y-112417473D01*
X213947753Y-112459757D01*
X213914500Y-112669713D01*
X213914500Y-112882286D01*
X213946477Y-113084184D01*
X213947754Y-113092243D01*
X213963396Y-113140385D01*
X214013444Y-113294414D01*
X214109951Y-113483820D01*
X214234890Y-113655786D01*
X214385213Y-113806109D01*
X214557182Y-113931050D01*
X214565946Y-113935516D01*
X214616742Y-113983491D01*
X214633536Y-114051312D01*
X214610998Y-114117447D01*
X214565946Y-114156484D01*
X214557182Y-114160949D01*
X214385213Y-114285890D01*
X214234890Y-114436213D01*
X214109951Y-114608179D01*
X214013444Y-114797585D01*
X213947753Y-114999760D01*
X213914500Y-115209713D01*
X213914500Y-115422286D01*
X213946477Y-115624185D01*
X213947754Y-115632243D01*
X213966531Y-115690033D01*
X214013444Y-115834414D01*
X214109951Y-116023820D01*
X214234890Y-116195786D01*
X214348430Y-116309326D01*
X214381915Y-116370649D01*
X214376931Y-116440341D01*
X214335059Y-116496274D01*
X214304083Y-116513189D01*
X214172669Y-116562203D01*
X214172664Y-116562206D01*
X214057455Y-116648452D01*
X214057452Y-116648455D01*
X213971206Y-116763664D01*
X213971202Y-116763671D01*
X213920908Y-116898517D01*
X213917255Y-116932500D01*
X213914501Y-116958123D01*
X213914500Y-116958135D01*
X213914500Y-118753870D01*
X213914501Y-118753876D01*
X213920908Y-118813483D01*
X213971202Y-118948328D01*
X213971206Y-118948335D01*
X214057452Y-119063544D01*
X214057455Y-119063547D01*
X214172664Y-119149793D01*
X214172671Y-119149797D01*
X214307517Y-119200091D01*
X214307516Y-119200091D01*
X214314444Y-119200835D01*
X214367127Y-119206500D01*
X216162872Y-119206499D01*
X216222483Y-119200091D01*
X216357331Y-119149796D01*
X216472546Y-119063546D01*
X216558796Y-118948331D01*
X216609091Y-118813483D01*
X216615500Y-118753873D01*
X216615499Y-116958128D01*
X216610189Y-116908732D01*
X216609091Y-116898516D01*
X216558797Y-116763671D01*
X216558793Y-116763664D01*
X216472547Y-116648455D01*
X216472544Y-116648452D01*
X216357335Y-116562206D01*
X216357328Y-116562202D01*
X216225917Y-116513189D01*
X216169983Y-116471318D01*
X216145566Y-116405853D01*
X216160418Y-116337580D01*
X216181563Y-116309332D01*
X216295104Y-116195792D01*
X216343970Y-116128534D01*
X216420048Y-116023820D01*
X216420047Y-116023820D01*
X216420051Y-116023816D01*
X216516557Y-115834412D01*
X216582246Y-115632243D01*
X216615500Y-115422287D01*
X216615500Y-115209713D01*
X216582246Y-114999757D01*
X216516557Y-114797588D01*
X216420051Y-114608184D01*
X216420049Y-114608181D01*
X216420048Y-114608179D01*
X216295109Y-114436213D01*
X216144786Y-114285890D01*
X215972820Y-114160951D01*
X215972115Y-114160591D01*
X215964054Y-114156485D01*
X215913259Y-114108512D01*
X215896463Y-114040692D01*
X215918999Y-113974556D01*
X215964054Y-113935515D01*
X215972816Y-113931051D01*
X216017912Y-113898287D01*
X216144786Y-113806109D01*
X216144788Y-113806106D01*
X216144792Y-113806104D01*
X216295104Y-113655792D01*
X216295106Y-113655788D01*
X216295109Y-113655786D01*
X216420048Y-113483820D01*
X216420047Y-113483820D01*
X216420051Y-113483816D01*
X216516557Y-113294412D01*
X216582246Y-113092243D01*
X216615500Y-112882287D01*
X216615500Y-112669713D01*
X216582246Y-112459757D01*
X216516557Y-112257588D01*
X216420051Y-112068184D01*
X216420049Y-112068181D01*
X216420048Y-112068179D01*
X216295109Y-111896213D01*
X216144786Y-111745890D01*
X215972820Y-111620951D01*
X215783414Y-111524444D01*
X215783413Y-111524443D01*
X215783412Y-111524443D01*
X215581243Y-111458754D01*
X215581241Y-111458753D01*
X215581240Y-111458753D01*
X215419957Y-111433208D01*
X215371287Y-111425500D01*
X215158713Y-111425500D01*
X215130006Y-111430046D01*
X214948757Y-111458753D01*
X214906473Y-111472492D01*
X214836632Y-111474486D01*
X214780476Y-111442241D01*
X210574819Y-107236583D01*
X210541334Y-107175260D01*
X210538500Y-107148902D01*
X210538500Y-104840758D01*
X210558185Y-104773719D01*
X210597727Y-104735020D01*
X210601249Y-104732861D01*
X210601266Y-104732853D01*
X210762418Y-104615769D01*
X210903269Y-104474918D01*
X211020353Y-104313766D01*
X211097515Y-104162327D01*
X211145490Y-104111531D01*
X211213311Y-104094736D01*
X211279446Y-104117273D01*
X211318485Y-104162327D01*
X211395647Y-104313766D01*
X211512731Y-104474918D01*
X211653582Y-104615769D01*
X211814734Y-104732853D01*
X211978224Y-104816155D01*
X211992219Y-104823286D01*
X212181657Y-104884838D01*
X212181658Y-104884838D01*
X212181661Y-104884839D01*
X212378403Y-104916000D01*
X212378404Y-104916000D01*
X212577596Y-104916000D01*
X212577597Y-104916000D01*
X212774339Y-104884839D01*
X212774358Y-104884832D01*
X212778378Y-104883868D01*
X212848161Y-104887349D01*
X212895022Y-104916757D01*
X219769713Y-111791448D01*
X219803198Y-111852771D01*
X219798214Y-111922463D01*
X219782350Y-111952014D01*
X219697951Y-112068180D01*
X219601444Y-112257585D01*
X219535753Y-112459760D01*
X219502500Y-112669713D01*
X219502500Y-112882286D01*
X219534477Y-113084184D01*
X219535754Y-113092243D01*
X219551396Y-113140385D01*
X219601444Y-113294414D01*
X219697951Y-113483820D01*
X219822890Y-113655786D01*
X219973213Y-113806109D01*
X220145182Y-113931050D01*
X220153946Y-113935516D01*
X220204742Y-113983491D01*
X220221536Y-114051312D01*
X220198998Y-114117447D01*
X220153946Y-114156484D01*
X220145182Y-114160949D01*
X219973213Y-114285890D01*
X219822890Y-114436213D01*
X219697951Y-114608179D01*
X219601444Y-114797585D01*
X219535753Y-114999760D01*
X219502500Y-115209713D01*
X219502500Y-115422286D01*
X219534477Y-115624185D01*
X219535754Y-115632243D01*
X219554531Y-115690033D01*
X219601444Y-115834414D01*
X219697951Y-116023820D01*
X219822890Y-116195786D01*
X219936430Y-116309326D01*
X219969915Y-116370649D01*
X219964931Y-116440341D01*
X219923059Y-116496274D01*
X219892083Y-116513189D01*
X219760669Y-116562203D01*
X219760664Y-116562206D01*
X219645455Y-116648452D01*
X219645452Y-116648455D01*
X219559206Y-116763664D01*
X219559202Y-116763671D01*
X219508908Y-116898517D01*
X219505255Y-116932500D01*
X219502501Y-116958123D01*
X219502500Y-116958135D01*
X219502500Y-118753870D01*
X219502501Y-118753876D01*
X219508908Y-118813483D01*
X219559202Y-118948328D01*
X219559206Y-118948335D01*
X219645452Y-119063544D01*
X219645455Y-119063547D01*
X219760664Y-119149793D01*
X219760671Y-119149797D01*
X219895517Y-119200091D01*
X219895516Y-119200091D01*
X219902444Y-119200835D01*
X219955127Y-119206500D01*
X221750872Y-119206499D01*
X221810483Y-119200091D01*
X221945331Y-119149796D01*
X222060546Y-119063546D01*
X222146796Y-118948331D01*
X222197091Y-118813483D01*
X222203500Y-118753873D01*
X222203499Y-116958128D01*
X222198189Y-116908732D01*
X222197091Y-116898516D01*
X222146797Y-116763671D01*
X222146793Y-116763664D01*
X222060547Y-116648455D01*
X222060544Y-116648452D01*
X221945335Y-116562206D01*
X221945328Y-116562202D01*
X221813917Y-116513189D01*
X221757983Y-116471318D01*
X221733566Y-116405853D01*
X221748418Y-116337580D01*
X221769563Y-116309332D01*
X221883104Y-116195792D01*
X221931970Y-116128534D01*
X222008048Y-116023820D01*
X222008047Y-116023820D01*
X222008051Y-116023816D01*
X222104557Y-115834412D01*
X222170246Y-115632243D01*
X222203500Y-115422287D01*
X222203500Y-115209713D01*
X222170246Y-114999757D01*
X222104557Y-114797588D01*
X222008051Y-114608184D01*
X222008049Y-114608181D01*
X222008048Y-114608179D01*
X221883109Y-114436213D01*
X221732786Y-114285890D01*
X221560820Y-114160951D01*
X221560115Y-114160591D01*
X221552054Y-114156485D01*
X221501259Y-114108512D01*
X221484463Y-114040692D01*
X221506999Y-113974556D01*
X221552054Y-113935515D01*
X221560816Y-113931051D01*
X221605912Y-113898287D01*
X221732786Y-113806109D01*
X221732788Y-113806106D01*
X221732792Y-113806104D01*
X221883104Y-113655792D01*
X221883106Y-113655788D01*
X221883109Y-113655786D01*
X222008048Y-113483820D01*
X222008047Y-113483820D01*
X222008051Y-113483816D01*
X222104557Y-113294412D01*
X222170246Y-113092243D01*
X222203500Y-112882287D01*
X222203500Y-112669713D01*
X222170246Y-112459757D01*
X222104557Y-112257588D01*
X222008051Y-112068184D01*
X222008049Y-112068181D01*
X222008048Y-112068179D01*
X221883109Y-111896213D01*
X221732786Y-111745890D01*
X221560820Y-111620951D01*
X221371414Y-111524444D01*
X221371413Y-111524443D01*
X221371412Y-111524443D01*
X221169243Y-111458754D01*
X221169240Y-111458753D01*
X221169238Y-111458753D01*
X221168928Y-111458704D01*
X221168819Y-111458652D01*
X221164499Y-111457615D01*
X221164716Y-111456707D01*
X221105794Y-111428773D01*
X221100648Y-111423912D01*
X217983087Y-108306351D01*
X214801300Y-105124565D01*
X214767816Y-105063243D01*
X214772800Y-104993551D01*
X214814672Y-104937618D01*
X214880136Y-104913201D01*
X214908374Y-104914411D01*
X214918403Y-104916000D01*
X214918408Y-104916000D01*
X215117596Y-104916000D01*
X215117597Y-104916000D01*
X215314339Y-104884839D01*
X215314358Y-104884832D01*
X215318378Y-104883868D01*
X215388161Y-104887349D01*
X215435022Y-104916757D01*
X223658639Y-113140374D01*
X223658649Y-113140385D01*
X223662979Y-113144715D01*
X223662980Y-113144716D01*
X223774784Y-113256520D01*
X223840417Y-113294412D01*
X223861595Y-113306639D01*
X223861597Y-113306641D01*
X223899651Y-113328611D01*
X223911715Y-113335577D01*
X224064443Y-113376501D01*
X224064446Y-113376501D01*
X224230153Y-113376501D01*
X224230169Y-113376500D01*
X226171281Y-113376500D01*
X226238320Y-113396185D01*
X226281765Y-113444205D01*
X226301947Y-113483814D01*
X226301948Y-113483815D01*
X226426890Y-113655786D01*
X226577213Y-113806109D01*
X226749182Y-113931050D01*
X226757946Y-113935516D01*
X226808742Y-113983491D01*
X226825536Y-114051312D01*
X226802998Y-114117447D01*
X226757946Y-114156484D01*
X226749182Y-114160949D01*
X226577213Y-114285890D01*
X226426890Y-114436213D01*
X226301951Y-114608179D01*
X226205444Y-114797585D01*
X226139753Y-114999760D01*
X226106500Y-115209713D01*
X226106500Y-115422286D01*
X226138477Y-115624185D01*
X226139754Y-115632243D01*
X226158531Y-115690033D01*
X226205444Y-115834414D01*
X226301951Y-116023820D01*
X226426890Y-116195786D01*
X226540430Y-116309326D01*
X226573915Y-116370649D01*
X226568931Y-116440341D01*
X226527059Y-116496274D01*
X226496083Y-116513189D01*
X226364669Y-116562203D01*
X226364664Y-116562206D01*
X226249455Y-116648452D01*
X226249452Y-116648455D01*
X226163206Y-116763664D01*
X226163202Y-116763671D01*
X226112908Y-116898517D01*
X226109255Y-116932500D01*
X226106501Y-116958123D01*
X226106500Y-116958135D01*
X226106500Y-118753870D01*
X226106501Y-118753876D01*
X226112908Y-118813483D01*
X226163202Y-118948328D01*
X226163206Y-118948335D01*
X226249452Y-119063544D01*
X226249455Y-119063547D01*
X226364664Y-119149793D01*
X226364671Y-119149797D01*
X226499517Y-119200091D01*
X226499516Y-119200091D01*
X226506444Y-119200835D01*
X226559127Y-119206500D01*
X228354872Y-119206499D01*
X228414483Y-119200091D01*
X228549331Y-119149796D01*
X228664546Y-119063546D01*
X228750796Y-118948331D01*
X228801091Y-118813483D01*
X228807500Y-118753873D01*
X228807499Y-116958128D01*
X228802189Y-116908732D01*
X228801091Y-116898516D01*
X228750797Y-116763671D01*
X228750793Y-116763664D01*
X228664547Y-116648455D01*
X228664544Y-116648452D01*
X228549335Y-116562206D01*
X228549328Y-116562202D01*
X228417917Y-116513189D01*
X228361983Y-116471318D01*
X228337566Y-116405853D01*
X228352418Y-116337580D01*
X228373563Y-116309332D01*
X228487104Y-116195792D01*
X228535970Y-116128534D01*
X228612048Y-116023820D01*
X228612047Y-116023820D01*
X228612051Y-116023816D01*
X228708557Y-115834412D01*
X228774246Y-115632243D01*
X228807500Y-115422287D01*
X228807500Y-115209713D01*
X228774246Y-114999757D01*
X228708557Y-114797588D01*
X228612051Y-114608184D01*
X228612049Y-114608181D01*
X228612048Y-114608179D01*
X228487109Y-114436213D01*
X228336786Y-114285890D01*
X228164820Y-114160951D01*
X228164115Y-114160591D01*
X228156054Y-114156485D01*
X228105259Y-114108512D01*
X228088463Y-114040692D01*
X228110999Y-113974556D01*
X228156054Y-113935515D01*
X228164816Y-113931051D01*
X228209912Y-113898287D01*
X228336786Y-113806109D01*
X228336788Y-113806106D01*
X228336792Y-113806104D01*
X228487104Y-113655792D01*
X228487106Y-113655788D01*
X228487109Y-113655786D01*
X228612048Y-113483820D01*
X228612047Y-113483820D01*
X228612051Y-113483816D01*
X228708557Y-113294412D01*
X228774246Y-113092243D01*
X228807500Y-112882287D01*
X228807500Y-112669713D01*
X228774246Y-112459757D01*
X228708557Y-112257588D01*
X228612051Y-112068184D01*
X228612049Y-112068181D01*
X228612048Y-112068179D01*
X228487109Y-111896213D01*
X228336786Y-111745890D01*
X228164820Y-111620951D01*
X227975414Y-111524444D01*
X227975413Y-111524443D01*
X227975412Y-111524443D01*
X227773243Y-111458754D01*
X227773241Y-111458753D01*
X227773240Y-111458753D01*
X227611957Y-111433208D01*
X227563287Y-111425500D01*
X227350713Y-111425500D01*
X227302042Y-111433208D01*
X227140760Y-111458753D01*
X226938585Y-111524444D01*
X226749179Y-111620951D01*
X226577213Y-111745890D01*
X226426890Y-111896213D01*
X226301948Y-112068184D01*
X226301947Y-112068185D01*
X226281765Y-112107795D01*
X226233791Y-112158591D01*
X226171281Y-112175500D01*
X224443597Y-112175500D01*
X224376558Y-112155815D01*
X224355916Y-112139181D01*
X217341301Y-105124566D01*
X217307816Y-105063243D01*
X217312800Y-104993551D01*
X217354672Y-104937618D01*
X217420136Y-104913201D01*
X217448374Y-104914411D01*
X217458403Y-104916000D01*
X217458408Y-104916000D01*
X217657596Y-104916000D01*
X217657597Y-104916000D01*
X217854339Y-104884839D01*
X217854358Y-104884832D01*
X217858378Y-104883868D01*
X217868757Y-104884385D01*
X217878495Y-104880754D01*
X217903054Y-104886096D01*
X217928161Y-104887349D01*
X217938427Y-104893791D01*
X217946768Y-104895606D01*
X217975022Y-104916757D01*
X218089139Y-105030874D01*
X218089149Y-105030885D01*
X218093479Y-105035215D01*
X218093480Y-105035216D01*
X218205284Y-105147020D01*
X218292095Y-105197139D01*
X218292097Y-105197141D01*
X218330151Y-105219111D01*
X218342215Y-105226077D01*
X218494943Y-105267001D01*
X218494946Y-105267001D01*
X218660653Y-105267001D01*
X218660669Y-105267000D01*
X224635403Y-105267000D01*
X224702442Y-105286685D01*
X224723084Y-105303319D01*
X231711241Y-112291476D01*
X231744726Y-112352799D01*
X231741492Y-112417473D01*
X231727753Y-112459757D01*
X231694500Y-112669713D01*
X231694500Y-112882286D01*
X231726477Y-113084184D01*
X231727754Y-113092243D01*
X231743396Y-113140385D01*
X231793444Y-113294414D01*
X231889951Y-113483820D01*
X232014890Y-113655786D01*
X232165213Y-113806109D01*
X232337182Y-113931050D01*
X232345946Y-113935516D01*
X232396742Y-113983491D01*
X232413536Y-114051312D01*
X232390998Y-114117447D01*
X232345946Y-114156484D01*
X232337182Y-114160949D01*
X232165213Y-114285890D01*
X232014890Y-114436213D01*
X231889951Y-114608179D01*
X231793444Y-114797585D01*
X231727753Y-114999760D01*
X231694500Y-115209713D01*
X231694500Y-115422286D01*
X231726477Y-115624185D01*
X231727754Y-115632243D01*
X231746531Y-115690033D01*
X231793444Y-115834414D01*
X231889951Y-116023820D01*
X232014890Y-116195786D01*
X232128430Y-116309326D01*
X232161915Y-116370649D01*
X232156931Y-116440341D01*
X232115059Y-116496274D01*
X232084083Y-116513189D01*
X231952669Y-116562203D01*
X231952664Y-116562206D01*
X231837455Y-116648452D01*
X231837452Y-116648455D01*
X231751206Y-116763664D01*
X231751202Y-116763671D01*
X231700908Y-116898517D01*
X231697255Y-116932500D01*
X231694501Y-116958123D01*
X231694500Y-116958135D01*
X231694500Y-118753870D01*
X231694501Y-118753876D01*
X231700908Y-118813483D01*
X231751202Y-118948328D01*
X231751206Y-118948335D01*
X231837452Y-119063544D01*
X231837455Y-119063547D01*
X231952664Y-119149793D01*
X231952671Y-119149797D01*
X232087517Y-119200091D01*
X232087516Y-119200091D01*
X232094444Y-119200835D01*
X232147127Y-119206500D01*
X233942872Y-119206499D01*
X234002483Y-119200091D01*
X234137331Y-119149796D01*
X234252546Y-119063546D01*
X234338796Y-118948331D01*
X234389091Y-118813483D01*
X234395500Y-118753873D01*
X234395499Y-116958128D01*
X234390189Y-116908732D01*
X234389091Y-116898516D01*
X234338797Y-116763671D01*
X234338793Y-116763664D01*
X234252547Y-116648455D01*
X234252544Y-116648452D01*
X234137335Y-116562206D01*
X234137328Y-116562202D01*
X234005917Y-116513189D01*
X233949983Y-116471318D01*
X233925566Y-116405853D01*
X233940418Y-116337580D01*
X233961563Y-116309332D01*
X234075104Y-116195792D01*
X234123970Y-116128534D01*
X234200048Y-116023820D01*
X234200047Y-116023820D01*
X234200051Y-116023816D01*
X234296557Y-115834412D01*
X234362246Y-115632243D01*
X234395500Y-115422287D01*
X234395500Y-115209713D01*
X234362246Y-114999757D01*
X234296557Y-114797588D01*
X234200051Y-114608184D01*
X234200049Y-114608181D01*
X234200048Y-114608179D01*
X234075109Y-114436213D01*
X233924786Y-114285890D01*
X233752820Y-114160951D01*
X233752115Y-114160591D01*
X233744054Y-114156485D01*
X233693259Y-114108512D01*
X233676463Y-114040692D01*
X233698999Y-113974556D01*
X233744054Y-113935515D01*
X233752816Y-113931051D01*
X233797912Y-113898287D01*
X233924786Y-113806109D01*
X233924788Y-113806106D01*
X233924792Y-113806104D01*
X234075104Y-113655792D01*
X234075106Y-113655788D01*
X234075109Y-113655786D01*
X234200048Y-113483820D01*
X234200047Y-113483820D01*
X234200051Y-113483816D01*
X234296557Y-113294412D01*
X234362246Y-113092243D01*
X234395500Y-112882287D01*
X234395500Y-112669713D01*
X234362246Y-112459757D01*
X234296557Y-112257588D01*
X234200051Y-112068184D01*
X234200049Y-112068181D01*
X234200048Y-112068179D01*
X234075109Y-111896213D01*
X233924786Y-111745890D01*
X233752820Y-111620951D01*
X233563414Y-111524444D01*
X233563413Y-111524443D01*
X233563412Y-111524443D01*
X233361243Y-111458754D01*
X233361241Y-111458753D01*
X233361240Y-111458753D01*
X233199957Y-111433208D01*
X233151287Y-111425500D01*
X232938713Y-111425500D01*
X232910006Y-111430046D01*
X232728757Y-111458753D01*
X232686473Y-111472492D01*
X232616632Y-111474486D01*
X232560476Y-111442241D01*
X225949616Y-104831381D01*
X225916131Y-104770058D01*
X225921115Y-104700366D01*
X225962987Y-104644433D01*
X225964413Y-104643381D01*
X226002414Y-104615772D01*
X226002414Y-104615771D01*
X226002418Y-104615769D01*
X226143269Y-104474918D01*
X226260353Y-104313766D01*
X226337515Y-104162327D01*
X226385490Y-104111531D01*
X226453311Y-104094736D01*
X226519446Y-104117273D01*
X226558485Y-104162327D01*
X226635647Y-104313766D01*
X226752731Y-104474918D01*
X226893582Y-104615769D01*
X227054734Y-104732853D01*
X227218224Y-104816155D01*
X227232219Y-104823286D01*
X227421657Y-104884838D01*
X227421658Y-104884838D01*
X227421661Y-104884839D01*
X227618403Y-104916000D01*
X227618404Y-104916000D01*
X227817596Y-104916000D01*
X227817597Y-104916000D01*
X228014339Y-104884839D01*
X228014342Y-104884838D01*
X228014343Y-104884838D01*
X228203780Y-104823286D01*
X228203780Y-104823285D01*
X228203783Y-104823285D01*
X228381266Y-104732853D01*
X228542418Y-104615769D01*
X228683269Y-104474918D01*
X228800353Y-104313766D01*
X228877515Y-104162327D01*
X228925490Y-104111531D01*
X228993311Y-104094736D01*
X229059446Y-104117273D01*
X229098485Y-104162327D01*
X229175647Y-104313766D01*
X229292731Y-104474918D01*
X229433582Y-104615769D01*
X229594734Y-104732853D01*
X229758224Y-104816155D01*
X229772219Y-104823286D01*
X229961657Y-104884838D01*
X229961658Y-104884838D01*
X229961661Y-104884839D01*
X230158403Y-104916000D01*
X230158404Y-104916000D01*
X230357596Y-104916000D01*
X230357597Y-104916000D01*
X230554339Y-104884839D01*
X230554342Y-104884838D01*
X230554343Y-104884838D01*
X230743780Y-104823286D01*
X230743780Y-104823285D01*
X230743783Y-104823285D01*
X230921266Y-104732853D01*
X231082418Y-104615769D01*
X231223269Y-104474918D01*
X231340353Y-104313766D01*
X231430785Y-104136283D01*
X231439006Y-104110981D01*
X231492338Y-103946843D01*
X231492338Y-103946842D01*
X231492339Y-103946839D01*
X231523500Y-103750097D01*
X231523500Y-103550903D01*
X231492339Y-103354161D01*
X231492338Y-103354157D01*
X231492338Y-103354156D01*
X231430786Y-103164719D01*
X231340485Y-102987494D01*
X231340353Y-102987234D01*
X231223269Y-102826082D01*
X231082418Y-102685231D01*
X230921266Y-102568147D01*
X230743780Y-102477713D01*
X230554342Y-102416161D01*
X230406782Y-102392790D01*
X230357597Y-102385000D01*
X230158403Y-102385000D01*
X230092822Y-102395387D01*
X229961659Y-102416161D01*
X229961656Y-102416161D01*
X229772219Y-102477713D01*
X229594733Y-102568147D01*
X229556286Y-102596081D01*
X229433582Y-102685231D01*
X229433580Y-102685233D01*
X229433579Y-102685233D01*
X229292733Y-102826079D01*
X229292733Y-102826080D01*
X229292731Y-102826082D01*
X229242447Y-102895290D01*
X229175647Y-102987233D01*
X229098485Y-103138672D01*
X229050510Y-103189468D01*
X228982689Y-103206263D01*
X228916554Y-103183725D01*
X228877515Y-103138672D01*
X228800485Y-102987494D01*
X228800353Y-102987234D01*
X228683269Y-102826082D01*
X228542418Y-102685231D01*
X228381266Y-102568147D01*
X228203780Y-102477713D01*
X228014342Y-102416161D01*
X227866782Y-102392790D01*
X227817597Y-102385000D01*
X227618403Y-102385000D01*
X227552822Y-102395387D01*
X227421659Y-102416161D01*
X227421656Y-102416161D01*
X227232219Y-102477713D01*
X227054733Y-102568147D01*
X227016286Y-102596081D01*
X226893582Y-102685231D01*
X226893580Y-102685233D01*
X226893579Y-102685233D01*
X226752733Y-102826079D01*
X226752733Y-102826080D01*
X226752731Y-102826082D01*
X226702447Y-102895290D01*
X226635647Y-102987233D01*
X226558485Y-103138672D01*
X226510510Y-103189468D01*
X226442689Y-103206263D01*
X226376554Y-103183725D01*
X226337515Y-103138672D01*
X226260485Y-102987494D01*
X226260353Y-102987234D01*
X226143269Y-102826082D01*
X226002418Y-102685231D01*
X225841266Y-102568147D01*
X225663780Y-102477713D01*
X225474342Y-102416161D01*
X225326782Y-102392790D01*
X225277597Y-102385000D01*
X225078403Y-102385000D01*
X225012822Y-102395387D01*
X224881659Y-102416161D01*
X224881656Y-102416161D01*
X224692219Y-102477713D01*
X224514733Y-102568147D01*
X224476286Y-102596081D01*
X224353582Y-102685231D01*
X224353580Y-102685233D01*
X224353579Y-102685233D01*
X224212733Y-102826079D01*
X224212733Y-102826080D01*
X224212731Y-102826082D01*
X224162447Y-102895290D01*
X224095647Y-102987233D01*
X224018485Y-103138672D01*
X223970510Y-103189468D01*
X223902689Y-103206263D01*
X223836554Y-103183725D01*
X223797515Y-103138672D01*
X223720485Y-102987494D01*
X223720353Y-102987234D01*
X223603269Y-102826082D01*
X223462418Y-102685231D01*
X223301266Y-102568147D01*
X223123780Y-102477713D01*
X222934342Y-102416161D01*
X222786782Y-102392790D01*
X222737597Y-102385000D01*
X222538403Y-102385000D01*
X222472822Y-102395387D01*
X222341659Y-102416161D01*
X222341656Y-102416161D01*
X222152219Y-102477713D01*
X221974733Y-102568147D01*
X221936286Y-102596081D01*
X221813582Y-102685231D01*
X221813580Y-102685233D01*
X221813579Y-102685233D01*
X221672733Y-102826079D01*
X221672733Y-102826080D01*
X221672731Y-102826082D01*
X221622447Y-102895290D01*
X221555647Y-102987233D01*
X221478485Y-103138672D01*
X221430510Y-103189468D01*
X221362689Y-103206263D01*
X221296554Y-103183725D01*
X221257515Y-103138672D01*
X221180485Y-102987494D01*
X221180353Y-102987234D01*
X221063269Y-102826082D01*
X220922418Y-102685231D01*
X220761266Y-102568147D01*
X220583780Y-102477713D01*
X220394342Y-102416161D01*
X220246782Y-102392790D01*
X220197597Y-102385000D01*
X219998403Y-102385000D01*
X219932822Y-102395387D01*
X219801659Y-102416161D01*
X219801656Y-102416161D01*
X219612219Y-102477713D01*
X219434733Y-102568147D01*
X219396286Y-102596081D01*
X219273582Y-102685231D01*
X219273580Y-102685233D01*
X219273579Y-102685233D01*
X219132733Y-102826079D01*
X219132733Y-102826080D01*
X219132731Y-102826082D01*
X219082447Y-102895290D01*
X219015647Y-102987233D01*
X218938485Y-103138672D01*
X218890510Y-103189468D01*
X218822689Y-103206263D01*
X218756554Y-103183725D01*
X218717515Y-103138672D01*
X218640485Y-102987494D01*
X218640353Y-102987234D01*
X218523269Y-102826082D01*
X218382418Y-102685231D01*
X218221266Y-102568147D01*
X218043780Y-102477713D01*
X217854342Y-102416161D01*
X217706782Y-102392790D01*
X217657597Y-102385000D01*
X217458403Y-102385000D01*
X217392822Y-102395387D01*
X217261659Y-102416161D01*
X217261656Y-102416161D01*
X217072219Y-102477713D01*
X216894733Y-102568147D01*
X216856286Y-102596081D01*
X216733582Y-102685231D01*
X216733580Y-102685233D01*
X216733579Y-102685233D01*
X216592733Y-102826079D01*
X216592733Y-102826080D01*
X216592731Y-102826082D01*
X216542447Y-102895290D01*
X216475647Y-102987233D01*
X216398485Y-103138672D01*
X216350510Y-103189468D01*
X216282689Y-103206263D01*
X216216554Y-103183725D01*
X216177515Y-103138672D01*
X216100485Y-102987494D01*
X216100353Y-102987234D01*
X215983269Y-102826082D01*
X215842418Y-102685231D01*
X215681266Y-102568147D01*
X215503780Y-102477713D01*
X215314342Y-102416161D01*
X215166782Y-102392790D01*
X215117597Y-102385000D01*
X214918403Y-102385000D01*
X214852822Y-102395387D01*
X214721659Y-102416161D01*
X214721656Y-102416161D01*
X214532219Y-102477713D01*
X214354733Y-102568147D01*
X214316286Y-102596081D01*
X214193582Y-102685231D01*
X214193580Y-102685233D01*
X214193579Y-102685233D01*
X214052733Y-102826079D01*
X214052733Y-102826080D01*
X214052731Y-102826082D01*
X214002447Y-102895290D01*
X213935647Y-102987233D01*
X213858485Y-103138672D01*
X213810510Y-103189468D01*
X213742689Y-103206263D01*
X213676554Y-103183725D01*
X213637515Y-103138672D01*
X213560485Y-102987494D01*
X213560353Y-102987234D01*
X213443269Y-102826082D01*
X213302418Y-102685231D01*
X213141266Y-102568147D01*
X212963780Y-102477713D01*
X212774342Y-102416161D01*
X212626782Y-102392790D01*
X212577597Y-102385000D01*
X212378403Y-102385000D01*
X212312822Y-102395387D01*
X212181659Y-102416161D01*
X212181656Y-102416161D01*
X211992219Y-102477713D01*
X211814733Y-102568147D01*
X211776286Y-102596081D01*
X211653582Y-102685231D01*
X211653580Y-102685233D01*
X211653579Y-102685233D01*
X211512733Y-102826079D01*
X211512733Y-102826080D01*
X211512731Y-102826082D01*
X211462447Y-102895290D01*
X211395647Y-102987233D01*
X211318485Y-103138672D01*
X211270510Y-103189468D01*
X211202689Y-103206263D01*
X211136554Y-103183725D01*
X211097515Y-103138672D01*
X211020485Y-102987494D01*
X211020353Y-102987234D01*
X210903269Y-102826082D01*
X210762418Y-102685231D01*
X210601266Y-102568147D01*
X210423780Y-102477713D01*
X210234342Y-102416161D01*
X210086782Y-102392790D01*
X210037597Y-102385000D01*
X209838403Y-102385000D01*
X209772822Y-102395387D01*
X209641659Y-102416161D01*
X209641656Y-102416161D01*
X209452219Y-102477713D01*
X209274733Y-102568147D01*
X209236286Y-102596081D01*
X209113582Y-102685231D01*
X209113580Y-102685233D01*
X209113579Y-102685233D01*
X208972733Y-102826079D01*
X208972733Y-102826080D01*
X208972731Y-102826082D01*
X208922447Y-102895290D01*
X208855647Y-102987233D01*
X208778485Y-103138672D01*
X208730510Y-103189468D01*
X208662689Y-103206263D01*
X208596554Y-103183725D01*
X208557515Y-103138672D01*
X208480485Y-102987494D01*
X208480353Y-102987234D01*
X208363269Y-102826082D01*
X208222418Y-102685231D01*
X208061266Y-102568147D01*
X207883780Y-102477713D01*
X207694342Y-102416161D01*
X207546782Y-102392790D01*
X207497597Y-102385000D01*
X207298403Y-102385000D01*
X207232822Y-102395387D01*
X207101659Y-102416161D01*
X207101656Y-102416161D01*
X206912219Y-102477713D01*
X206734733Y-102568147D01*
X206696286Y-102596081D01*
X206573582Y-102685231D01*
X206573580Y-102685233D01*
X206573579Y-102685233D01*
X206432733Y-102826079D01*
X206432733Y-102826080D01*
X206432731Y-102826082D01*
X206382447Y-102895290D01*
X206315647Y-102987233D01*
X206238485Y-103138672D01*
X206190510Y-103189468D01*
X206122689Y-103206263D01*
X206056554Y-103183725D01*
X206017515Y-103138672D01*
X205940485Y-102987494D01*
X205940353Y-102987234D01*
X205823269Y-102826082D01*
X205682418Y-102685231D01*
X205521266Y-102568147D01*
X205343780Y-102477713D01*
X205154342Y-102416161D01*
X205006782Y-102392790D01*
X204957597Y-102385000D01*
X204758403Y-102385000D01*
X204692822Y-102395387D01*
X204561659Y-102416161D01*
X204561656Y-102416161D01*
X204372219Y-102477713D01*
X204194733Y-102568147D01*
X204156286Y-102596081D01*
X204033582Y-102685231D01*
X204033580Y-102685233D01*
X204033579Y-102685233D01*
X203892733Y-102826079D01*
X203892733Y-102826080D01*
X203892731Y-102826082D01*
X203842447Y-102895290D01*
X203775647Y-102987233D01*
X203698485Y-103138672D01*
X203650510Y-103189468D01*
X203582689Y-103206263D01*
X203516554Y-103183725D01*
X203477515Y-103138672D01*
X203400485Y-102987494D01*
X203400353Y-102987234D01*
X203283269Y-102826082D01*
X203142418Y-102685231D01*
X202981266Y-102568147D01*
X202803780Y-102477713D01*
X202614342Y-102416161D01*
X202466782Y-102392790D01*
X202417597Y-102385000D01*
X202218403Y-102385000D01*
X202152822Y-102395387D01*
X202021659Y-102416161D01*
X202021656Y-102416161D01*
X201832219Y-102477713D01*
X201654733Y-102568147D01*
X201616286Y-102596081D01*
X201493582Y-102685231D01*
X201493580Y-102685233D01*
X201493579Y-102685233D01*
X201352733Y-102826079D01*
X201352733Y-102826080D01*
X201352731Y-102826082D01*
X201317555Y-102874497D01*
X201235645Y-102987235D01*
X201158203Y-103139223D01*
X201110229Y-103190018D01*
X201042408Y-103206813D01*
X200976273Y-103184275D01*
X200937234Y-103139222D01*
X200859924Y-102987494D01*
X200832417Y-102949635D01*
X200832417Y-102949634D01*
X200269128Y-103512924D01*
X200253245Y-103453647D01*
X200186102Y-103337353D01*
X200091147Y-103242398D01*
X199974853Y-103175255D01*
X199915574Y-103159371D01*
X200478864Y-102596081D01*
X200478863Y-102596080D01*
X200441008Y-102568577D01*
X200263594Y-102478179D01*
X200074222Y-102416647D01*
X199877563Y-102385500D01*
X199678437Y-102385500D01*
X199481777Y-102416647D01*
X199292405Y-102478179D01*
X199114990Y-102568577D01*
X199077135Y-102596080D01*
X199077135Y-102596081D01*
X199640425Y-103159371D01*
X199581147Y-103175255D01*
X199464853Y-103242398D01*
X199369898Y-103337353D01*
X199302755Y-103453647D01*
X199286871Y-103512925D01*
X198723581Y-102949635D01*
X198723580Y-102949635D01*
X198696075Y-102987493D01*
X198618764Y-103139223D01*
X198570790Y-103190018D01*
X198502969Y-103206813D01*
X198436834Y-103184275D01*
X198397795Y-103139222D01*
X198320485Y-102987494D01*
X198320353Y-102987234D01*
X198203269Y-102826082D01*
X198062418Y-102685231D01*
X197901266Y-102568147D01*
X197723780Y-102477713D01*
X197534342Y-102416161D01*
X197386782Y-102392790D01*
X197337597Y-102385000D01*
X197138403Y-102385000D01*
X197072822Y-102395387D01*
X196941659Y-102416161D01*
X196941656Y-102416161D01*
X196752219Y-102477713D01*
X196574733Y-102568147D01*
X196536286Y-102596081D01*
X196413582Y-102685231D01*
X196413580Y-102685233D01*
X196413579Y-102685233D01*
X196272733Y-102826079D01*
X196272733Y-102826080D01*
X196272731Y-102826082D01*
X196222447Y-102895290D01*
X196155647Y-102987233D01*
X196078485Y-103138672D01*
X196030510Y-103189468D01*
X195962689Y-103206263D01*
X195896554Y-103183725D01*
X195857515Y-103138672D01*
X195780485Y-102987494D01*
X195780353Y-102987234D01*
X195663269Y-102826082D01*
X195522418Y-102685231D01*
X195361266Y-102568147D01*
X195183780Y-102477713D01*
X194994342Y-102416161D01*
X194846782Y-102392790D01*
X194797597Y-102385000D01*
X194598403Y-102385000D01*
X194532822Y-102395387D01*
X194401659Y-102416161D01*
X194401656Y-102416161D01*
X194212219Y-102477713D01*
X194034733Y-102568147D01*
X193996286Y-102596081D01*
X193873582Y-102685231D01*
X193873580Y-102685233D01*
X193873579Y-102685233D01*
X193732733Y-102826079D01*
X193732733Y-102826080D01*
X193732731Y-102826082D01*
X193682447Y-102895290D01*
X193615647Y-102987233D01*
X193538485Y-103138672D01*
X193490510Y-103189468D01*
X193422689Y-103206263D01*
X193356554Y-103183725D01*
X193317515Y-103138672D01*
X193240485Y-102987494D01*
X193240353Y-102987234D01*
X193123269Y-102826082D01*
X192982418Y-102685231D01*
X192821266Y-102568147D01*
X192643780Y-102477713D01*
X192454342Y-102416161D01*
X192306782Y-102392790D01*
X192257597Y-102385000D01*
X192058403Y-102385000D01*
X191992822Y-102395387D01*
X191861659Y-102416161D01*
X191861656Y-102416161D01*
X191672219Y-102477713D01*
X191494733Y-102568147D01*
X191456286Y-102596081D01*
X191333582Y-102685231D01*
X191333580Y-102685233D01*
X191333579Y-102685233D01*
X191192733Y-102826079D01*
X191192733Y-102826080D01*
X191192731Y-102826082D01*
X191142447Y-102895290D01*
X191075647Y-102987233D01*
X190998485Y-103138672D01*
X190950510Y-103189468D01*
X190882689Y-103206263D01*
X190816554Y-103183725D01*
X190777515Y-103138672D01*
X190700485Y-102987494D01*
X190700353Y-102987234D01*
X190583269Y-102826082D01*
X190442418Y-102685231D01*
X190281266Y-102568147D01*
X190103780Y-102477713D01*
X189914342Y-102416161D01*
X189766782Y-102392790D01*
X189717597Y-102385000D01*
X189518403Y-102385000D01*
X189452822Y-102395387D01*
X189321659Y-102416161D01*
X189317588Y-102417138D01*
X189247806Y-102413638D01*
X189200976Y-102384241D01*
X188738590Y-101921855D01*
X188738588Y-101921852D01*
X188619717Y-101802981D01*
X188619716Y-101802980D01*
X188532904Y-101752860D01*
X188532904Y-101752859D01*
X188532900Y-101752858D01*
X188482785Y-101723923D01*
X188330057Y-101682999D01*
X188171943Y-101682999D01*
X188164347Y-101682999D01*
X188164331Y-101683000D01*
X168106831Y-101683000D01*
X168106815Y-101682999D01*
X168099219Y-101682999D01*
X167941104Y-101682999D01*
X167864740Y-101703461D01*
X167788375Y-101723923D01*
X167788370Y-101723926D01*
X167651451Y-101802975D01*
X167651443Y-101802981D01*
X164594481Y-104859943D01*
X164594477Y-104859948D01*
X164572346Y-104898283D01*
X164572345Y-104898285D01*
X164515423Y-104996876D01*
X164474499Y-105149604D01*
X164474499Y-105307718D01*
X164474499Y-105307720D01*
X164474500Y-105317714D01*
X164474500Y-107066330D01*
X164474499Y-107066348D01*
X164474499Y-107232054D01*
X164474498Y-107232054D01*
X154293239Y-107232054D01*
X154273217Y-107212032D01*
X154273212Y-107212028D01*
X154236325Y-107185228D01*
X154193659Y-107129898D01*
X154187680Y-107060285D01*
X154220286Y-106998490D01*
X154281124Y-106964133D01*
X154295956Y-106961620D01*
X154333379Y-106957596D01*
X154468086Y-106907354D01*
X154468093Y-106907350D01*
X154583187Y-106821190D01*
X154583190Y-106821187D01*
X154669350Y-106706093D01*
X154669354Y-106706086D01*
X154719596Y-106571379D01*
X154719598Y-106571372D01*
X154725999Y-106511844D01*
X154726000Y-106511827D01*
X154726000Y-105914000D01*
X153741686Y-105914000D01*
X153746080Y-105909606D01*
X153798741Y-105818394D01*
X153826000Y-105716661D01*
X153826000Y-105611339D01*
X153798741Y-105509606D01*
X153746080Y-105418394D01*
X153741686Y-105414000D01*
X154726000Y-105414000D01*
X154726000Y-104816172D01*
X154725999Y-104816155D01*
X154719598Y-104756627D01*
X154719596Y-104756620D01*
X154669354Y-104621913D01*
X154669350Y-104621906D01*
X154583190Y-104506812D01*
X154583187Y-104506809D01*
X154468093Y-104420649D01*
X154468086Y-104420645D01*
X154333379Y-104370403D01*
X154333372Y-104370401D01*
X154273844Y-104364000D01*
X153676000Y-104364000D01*
X153676000Y-105348314D01*
X153671606Y-105343920D01*
X153580394Y-105291259D01*
X153478661Y-105264000D01*
X153373339Y-105264000D01*
X153271606Y-105291259D01*
X153180394Y-105343920D01*
X153176000Y-105348314D01*
X153176000Y-104364000D01*
X152578155Y-104364000D01*
X152518627Y-104370401D01*
X152518620Y-104370403D01*
X152383913Y-104420645D01*
X152383906Y-104420649D01*
X152268812Y-104506809D01*
X152268809Y-104506812D01*
X152182649Y-104621906D01*
X152182645Y-104621913D01*
X152132403Y-104756620D01*
X152132401Y-104756627D01*
X152126000Y-104816155D01*
X152126000Y-105414000D01*
X153110314Y-105414000D01*
X153105920Y-105418394D01*
X153053259Y-105509606D01*
X153026000Y-105611339D01*
X153026000Y-105716661D01*
X153053259Y-105818394D01*
X153105920Y-105909606D01*
X153110314Y-105914000D01*
X152126000Y-105914000D01*
X152126000Y-106511844D01*
X152132401Y-106571372D01*
X152132403Y-106571379D01*
X152182645Y-106706086D01*
X152182649Y-106706093D01*
X152268809Y-106821187D01*
X152268812Y-106821190D01*
X152383906Y-106907350D01*
X152383913Y-106907354D01*
X152518620Y-106957596D01*
X152556043Y-106961620D01*
X152620595Y-106988358D01*
X152660443Y-107045750D01*
X152662937Y-107115576D01*
X152627285Y-107175665D01*
X152615675Y-107185227D01*
X152578789Y-107212026D01*
X152578782Y-107212032D01*
X152434028Y-107356786D01*
X152313715Y-107522386D01*
X152220781Y-107704776D01*
X152157522Y-107899465D01*
X152125500Y-108101648D01*
X152125500Y-108306351D01*
X152157522Y-108508534D01*
X152220781Y-108703223D01*
X152313715Y-108885613D01*
X152434028Y-109051213D01*
X152578786Y-109195971D01*
X152733749Y-109308556D01*
X152744390Y-109316287D01*
X152835840Y-109362883D01*
X152837080Y-109363515D01*
X152887876Y-109411490D01*
X152904671Y-109479311D01*
X152882134Y-109545446D01*
X152837080Y-109584485D01*
X152744386Y-109631715D01*
X152578786Y-109752028D01*
X152434028Y-109896786D01*
X152313715Y-110062385D01*
X152306883Y-110075795D01*
X152258909Y-110126591D01*
X152196398Y-110143500D01*
X148894178Y-110143500D01*
X148827139Y-110123815D01*
X148821300Y-110119823D01*
X148789816Y-110096949D01*
X148600412Y-110000443D01*
X148398243Y-109934754D01*
X148398241Y-109934753D01*
X148398240Y-109934753D01*
X148236957Y-109909208D01*
X148188287Y-109901500D01*
X147975713Y-109901500D01*
X147927042Y-109909208D01*
X147765760Y-109934753D01*
X147563585Y-110000444D01*
X147374179Y-110096951D01*
X147202213Y-110221890D01*
X147051890Y-110372213D01*
X146926951Y-110544179D01*
X146830444Y-110733585D01*
X146764753Y-110935760D01*
X146759523Y-110968783D01*
X146731500Y-111145713D01*
X86557731Y-111145713D01*
X86557730Y-111140866D01*
X86556530Y-105108135D01*
X90939500Y-105108135D01*
X90939500Y-107743870D01*
X90939501Y-107743876D01*
X90945908Y-107803483D01*
X90996202Y-107938328D01*
X90996206Y-107938335D01*
X91082452Y-108053544D01*
X91082455Y-108053547D01*
X91197664Y-108139793D01*
X91197671Y-108139797D01*
X91332517Y-108190091D01*
X91332516Y-108190091D01*
X91339444Y-108190835D01*
X91392127Y-108196500D01*
X94027872Y-108196499D01*
X94087483Y-108190091D01*
X94222331Y-108139796D01*
X94337546Y-108053546D01*
X94423796Y-107938331D01*
X94474091Y-107803483D01*
X94480500Y-107743873D01*
X94480499Y-106309947D01*
X131579500Y-106309947D01*
X131579500Y-106542052D01*
X131601097Y-106706093D01*
X131609794Y-106772149D01*
X131631780Y-106854203D01*
X131669862Y-106996328D01*
X131758677Y-107210745D01*
X131758685Y-107210762D01*
X131874720Y-107411743D01*
X131874721Y-107411745D01*
X132016009Y-107595875D01*
X132016015Y-107595882D01*
X132180117Y-107759984D01*
X132180124Y-107759990D01*
X132364254Y-107901278D01*
X132364256Y-107901279D01*
X132565237Y-108017314D01*
X132565240Y-108017315D01*
X132565248Y-108017320D01*
X132779670Y-108106137D01*
X133003851Y-108166206D01*
X133222318Y-108194968D01*
X133233939Y-108196498D01*
X133233955Y-108196500D01*
X133233962Y-108196500D01*
X133466038Y-108196500D01*
X133466045Y-108196500D01*
X133696149Y-108166206D01*
X133920330Y-108106137D01*
X134134752Y-108017320D01*
X134286826Y-107929521D01*
X134335743Y-107901279D01*
X134335745Y-107901278D01*
X134338104Y-107899468D01*
X134519877Y-107759989D01*
X134683989Y-107595877D01*
X134825276Y-107411748D01*
X134941320Y-107210752D01*
X135030137Y-106996330D01*
X135090206Y-106772149D01*
X135120500Y-106542045D01*
X135120500Y-106309955D01*
X135090206Y-106079851D01*
X135030137Y-105855670D01*
X134941320Y-105641248D01*
X134941314Y-105641237D01*
X134825279Y-105440256D01*
X134825278Y-105440254D01*
X134683990Y-105256124D01*
X134683984Y-105256117D01*
X134519882Y-105092015D01*
X134519875Y-105092009D01*
X134335747Y-104950723D01*
X134282947Y-104920239D01*
X134282946Y-104920239D01*
X134237136Y-104893791D01*
X134134752Y-104834680D01*
X134047298Y-104798455D01*
X133920328Y-104745862D01*
X133767517Y-104704917D01*
X133696149Y-104685794D01*
X133667386Y-104682007D01*
X133466052Y-104655500D01*
X133466045Y-104655500D01*
X133233955Y-104655500D01*
X133233947Y-104655500D01*
X133003851Y-104685794D01*
X132779671Y-104745862D01*
X132565254Y-104834677D01*
X132565237Y-104834685D01*
X132364256Y-104950720D01*
X132364254Y-104950721D01*
X132180124Y-105092009D01*
X132180117Y-105092015D01*
X132016015Y-105256117D01*
X132016009Y-105256124D01*
X131874721Y-105440254D01*
X131874720Y-105440256D01*
X131758685Y-105641237D01*
X131758677Y-105641254D01*
X131669862Y-105855671D01*
X131609794Y-106079851D01*
X131579500Y-106309947D01*
X94480499Y-106309947D01*
X94480499Y-105108128D01*
X94474091Y-105048517D01*
X94469090Y-105035109D01*
X94423797Y-104913671D01*
X94423793Y-104913664D01*
X94337547Y-104798455D01*
X94337544Y-104798452D01*
X94222335Y-104712206D01*
X94222328Y-104712202D01*
X94087482Y-104661908D01*
X94087483Y-104661908D01*
X94027883Y-104655501D01*
X94027881Y-104655500D01*
X94027873Y-104655500D01*
X94027864Y-104655500D01*
X91392129Y-104655500D01*
X91392123Y-104655501D01*
X91332516Y-104661908D01*
X91197671Y-104712202D01*
X91197664Y-104712206D01*
X91082455Y-104798452D01*
X91082452Y-104798455D01*
X90996206Y-104913664D01*
X90996202Y-104913671D01*
X90945908Y-105048517D01*
X90941232Y-105092015D01*
X90939501Y-105108123D01*
X90939500Y-105108135D01*
X86556530Y-105108135D01*
X86556529Y-105104831D01*
X86555500Y-99932050D01*
X86555500Y-89313154D01*
X98460000Y-89313154D01*
X98460000Y-90682000D01*
X99460000Y-90682000D01*
X99460000Y-91182000D01*
X98460000Y-91182000D01*
X98460000Y-92550845D01*
X98497181Y-92785593D01*
X98497181Y-92785596D01*
X98570629Y-93011641D01*
X98678532Y-93223412D01*
X98818239Y-93415700D01*
X98818239Y-93415701D01*
X98986298Y-93583760D01*
X99178587Y-93723467D01*
X99390358Y-93831370D01*
X99616406Y-93904818D01*
X99720000Y-93921226D01*
X99720000Y-92876560D01*
X99773147Y-92907245D01*
X99902857Y-92942000D01*
X100037143Y-92942000D01*
X100166853Y-92907245D01*
X100220000Y-92876560D01*
X100220000Y-93921225D01*
X100323593Y-93904818D01*
X100549641Y-93831370D01*
X100761412Y-93723467D01*
X100953700Y-93583760D01*
X100953701Y-93583760D01*
X101121760Y-93415701D01*
X101121760Y-93415700D01*
X101261467Y-93223412D01*
X101369370Y-93011641D01*
X101442818Y-92785596D01*
X101442818Y-92785593D01*
X101480000Y-92550845D01*
X101480000Y-91182000D01*
X100480000Y-91182000D01*
X100480000Y-90682000D01*
X101480000Y-90682000D01*
X101480000Y-89313154D01*
X101442818Y-89078406D01*
X101442818Y-89078403D01*
X101369370Y-88852358D01*
X101261467Y-88640587D01*
X101121764Y-88448304D01*
X101121755Y-88448293D01*
X101047597Y-88374135D01*
X103639500Y-88374135D01*
X103639500Y-93489870D01*
X103639501Y-93489876D01*
X103645908Y-93549483D01*
X103696202Y-93684328D01*
X103696206Y-93684335D01*
X103782452Y-93799544D01*
X103782455Y-93799547D01*
X103897664Y-93885793D01*
X103897671Y-93885797D01*
X104032517Y-93936091D01*
X104032516Y-93936091D01*
X104039444Y-93936835D01*
X104092127Y-93942500D01*
X106207872Y-93942499D01*
X106267483Y-93936091D01*
X106402331Y-93885796D01*
X106517546Y-93799546D01*
X106603796Y-93684331D01*
X106654091Y-93549483D01*
X106660500Y-93489873D01*
X106660499Y-88374128D01*
X106654091Y-88314517D01*
X106603796Y-88179669D01*
X106603795Y-88179668D01*
X106603793Y-88179664D01*
X106517547Y-88064455D01*
X106517544Y-88064452D01*
X106402335Y-87978206D01*
X106402328Y-87978202D01*
X106267482Y-87927908D01*
X106267483Y-87927908D01*
X106207883Y-87921501D01*
X106207881Y-87921500D01*
X106207873Y-87921500D01*
X106207864Y-87921500D01*
X104092129Y-87921500D01*
X104092123Y-87921501D01*
X104032516Y-87927908D01*
X103897671Y-87978202D01*
X103897664Y-87978206D01*
X103782455Y-88064452D01*
X103782452Y-88064455D01*
X103696206Y-88179664D01*
X103696202Y-88179671D01*
X103645908Y-88314517D01*
X103639501Y-88374116D01*
X103639501Y-88374123D01*
X103639500Y-88374135D01*
X101047597Y-88374135D01*
X100953701Y-88280239D01*
X100761412Y-88140532D01*
X100549641Y-88032629D01*
X100323589Y-87959180D01*
X100323590Y-87959180D01*
X100220000Y-87942773D01*
X100220000Y-88987439D01*
X100166853Y-88956755D01*
X100037143Y-88922000D01*
X99902857Y-88922000D01*
X99773147Y-88956755D01*
X99720000Y-88987439D01*
X99720000Y-87942773D01*
X99616410Y-87959180D01*
X99390358Y-88032629D01*
X99178587Y-88140532D01*
X98986299Y-88280239D01*
X98986298Y-88280239D01*
X98818239Y-88448298D01*
X98818239Y-88448299D01*
X98678532Y-88640587D01*
X98570629Y-88852358D01*
X98497181Y-89078403D01*
X98497181Y-89078406D01*
X98460000Y-89313154D01*
X86555500Y-89313154D01*
X86555500Y-81933815D01*
X86555867Y-79509591D01*
X86556073Y-78150903D01*
X183272500Y-78150903D01*
X183272500Y-78350096D01*
X183303661Y-78546840D01*
X183303661Y-78546843D01*
X183365213Y-78736280D01*
X183378485Y-78762327D01*
X183455647Y-78913766D01*
X183572731Y-79074918D01*
X183713582Y-79215769D01*
X183874734Y-79332853D01*
X184051304Y-79422820D01*
X184052219Y-79423286D01*
X184241657Y-79484838D01*
X184241658Y-79484838D01*
X184241661Y-79484839D01*
X184438403Y-79516000D01*
X184438404Y-79516000D01*
X184637596Y-79516000D01*
X184637597Y-79516000D01*
X184834339Y-79484839D01*
X184834342Y-79484838D01*
X184834343Y-79484838D01*
X185023780Y-79423286D01*
X185023780Y-79423285D01*
X185023783Y-79423285D01*
X185201266Y-79332853D01*
X185362418Y-79215769D01*
X185503269Y-79074918D01*
X185620353Y-78913766D01*
X185697515Y-78762327D01*
X185745490Y-78711531D01*
X185813311Y-78694736D01*
X185879446Y-78717273D01*
X185918485Y-78762327D01*
X185995647Y-78913766D01*
X186112731Y-79074918D01*
X186253582Y-79215769D01*
X186414734Y-79332853D01*
X186591304Y-79422820D01*
X186592219Y-79423286D01*
X186781657Y-79484838D01*
X186781658Y-79484838D01*
X186781661Y-79484839D01*
X186978403Y-79516000D01*
X186978404Y-79516000D01*
X187177596Y-79516000D01*
X187177597Y-79516000D01*
X187374339Y-79484839D01*
X187374342Y-79484838D01*
X187374343Y-79484838D01*
X187563780Y-79423286D01*
X187563780Y-79423285D01*
X187563783Y-79423285D01*
X187741266Y-79332853D01*
X187902418Y-79215769D01*
X188043269Y-79074918D01*
X188160353Y-78913766D01*
X188237515Y-78762327D01*
X188285490Y-78711531D01*
X188353311Y-78694736D01*
X188419446Y-78717273D01*
X188458485Y-78762327D01*
X188535647Y-78913766D01*
X188652731Y-79074918D01*
X188793582Y-79215769D01*
X188954734Y-79332853D01*
X189131304Y-79422820D01*
X189132219Y-79423286D01*
X189321657Y-79484838D01*
X189321658Y-79484838D01*
X189321661Y-79484839D01*
X189518403Y-79516000D01*
X189518404Y-79516000D01*
X189717596Y-79516000D01*
X189717597Y-79516000D01*
X189914339Y-79484839D01*
X189914342Y-79484838D01*
X189914343Y-79484838D01*
X190103780Y-79423286D01*
X190103780Y-79423285D01*
X190103783Y-79423285D01*
X190281266Y-79332853D01*
X190442418Y-79215769D01*
X190583269Y-79074918D01*
X190700353Y-78913766D01*
X190777515Y-78762327D01*
X190825490Y-78711531D01*
X190893311Y-78694736D01*
X190959446Y-78717273D01*
X190998485Y-78762327D01*
X191075647Y-78913766D01*
X191192731Y-79074918D01*
X191333582Y-79215769D01*
X191494734Y-79332853D01*
X191671304Y-79422820D01*
X191672219Y-79423286D01*
X191861657Y-79484838D01*
X191861658Y-79484838D01*
X191861661Y-79484839D01*
X192058403Y-79516000D01*
X192058404Y-79516000D01*
X192257596Y-79516000D01*
X192257597Y-79516000D01*
X192454339Y-79484839D01*
X192454342Y-79484838D01*
X192454343Y-79484838D01*
X192643780Y-79423286D01*
X192643780Y-79423285D01*
X192643783Y-79423285D01*
X192821266Y-79332853D01*
X192982418Y-79215769D01*
X193123269Y-79074918D01*
X193240353Y-78913766D01*
X193317515Y-78762327D01*
X193365490Y-78711531D01*
X193433311Y-78694736D01*
X193499446Y-78717273D01*
X193538485Y-78762327D01*
X193615647Y-78913766D01*
X193732731Y-79074918D01*
X193873582Y-79215769D01*
X194034734Y-79332853D01*
X194211304Y-79422820D01*
X194212219Y-79423286D01*
X194401657Y-79484838D01*
X194401658Y-79484838D01*
X194401661Y-79484839D01*
X194598403Y-79516000D01*
X194598404Y-79516000D01*
X194797596Y-79516000D01*
X194797597Y-79516000D01*
X194994339Y-79484839D01*
X194994342Y-79484838D01*
X194994343Y-79484838D01*
X195183780Y-79423286D01*
X195183780Y-79423285D01*
X195183783Y-79423285D01*
X195361266Y-79332853D01*
X195522418Y-79215769D01*
X195663269Y-79074918D01*
X195780353Y-78913766D01*
X195857795Y-78761776D01*
X195905769Y-78710981D01*
X195973590Y-78694186D01*
X196039725Y-78716723D01*
X196078765Y-78761777D01*
X196156077Y-78913508D01*
X196183580Y-78951363D01*
X196183581Y-78951364D01*
X196746871Y-78388074D01*
X196762755Y-78447353D01*
X196829898Y-78563647D01*
X196924853Y-78658602D01*
X197041147Y-78725745D01*
X197100425Y-78741628D01*
X196537134Y-79304917D01*
X196574994Y-79332424D01*
X196752405Y-79422820D01*
X196941777Y-79484352D01*
X197138437Y-79515500D01*
X197337563Y-79515500D01*
X197534222Y-79484352D01*
X197723594Y-79422820D01*
X197901005Y-79332424D01*
X197938863Y-79304918D01*
X197938863Y-79304917D01*
X197375574Y-78741628D01*
X197434853Y-78725745D01*
X197551147Y-78658602D01*
X197646102Y-78563647D01*
X197713245Y-78447353D01*
X197729128Y-78388074D01*
X198292417Y-78951363D01*
X198292418Y-78951363D01*
X198319924Y-78913505D01*
X198397234Y-78761777D01*
X198445208Y-78710981D01*
X198513029Y-78694186D01*
X198579164Y-78716723D01*
X198618204Y-78761777D01*
X198693422Y-78909399D01*
X198695647Y-78913766D01*
X198812731Y-79074918D01*
X198953582Y-79215769D01*
X199114734Y-79332853D01*
X199291304Y-79422820D01*
X199292219Y-79423286D01*
X199481657Y-79484838D01*
X199481658Y-79484838D01*
X199481661Y-79484839D01*
X199678403Y-79516000D01*
X199678404Y-79516000D01*
X199877596Y-79516000D01*
X199877597Y-79516000D01*
X200074339Y-79484839D01*
X200074342Y-79484838D01*
X200074343Y-79484838D01*
X200263780Y-79423286D01*
X200263780Y-79423285D01*
X200263783Y-79423285D01*
X200441266Y-79332853D01*
X200602418Y-79215769D01*
X200743269Y-79074918D01*
X200860353Y-78913766D01*
X200937515Y-78762327D01*
X200985490Y-78711531D01*
X201053311Y-78694736D01*
X201119446Y-78717273D01*
X201158485Y-78762327D01*
X201235647Y-78913766D01*
X201352731Y-79074918D01*
X201493582Y-79215769D01*
X201654734Y-79332853D01*
X201831304Y-79422820D01*
X201832219Y-79423286D01*
X202021657Y-79484838D01*
X202021658Y-79484838D01*
X202021661Y-79484839D01*
X202218403Y-79516000D01*
X202218404Y-79516000D01*
X202417596Y-79516000D01*
X202417597Y-79516000D01*
X202614339Y-79484839D01*
X202614342Y-79484838D01*
X202614343Y-79484838D01*
X202803780Y-79423286D01*
X202803780Y-79423285D01*
X202803783Y-79423285D01*
X202981266Y-79332853D01*
X203142418Y-79215769D01*
X203283269Y-79074918D01*
X203400353Y-78913766D01*
X203477515Y-78762327D01*
X203525490Y-78711531D01*
X203593311Y-78694736D01*
X203659446Y-78717273D01*
X203698485Y-78762327D01*
X203775647Y-78913766D01*
X203892731Y-79074918D01*
X204033582Y-79215769D01*
X204194734Y-79332853D01*
X204371304Y-79422820D01*
X204372219Y-79423286D01*
X204561657Y-79484838D01*
X204561658Y-79484838D01*
X204561661Y-79484839D01*
X204758403Y-79516000D01*
X204758404Y-79516000D01*
X204957596Y-79516000D01*
X204957597Y-79516000D01*
X205154339Y-79484839D01*
X205154342Y-79484838D01*
X205154343Y-79484838D01*
X205343780Y-79423286D01*
X205343780Y-79423285D01*
X205343783Y-79423285D01*
X205521266Y-79332853D01*
X205682418Y-79215769D01*
X205823269Y-79074918D01*
X205940353Y-78913766D01*
X206017515Y-78762327D01*
X206065490Y-78711531D01*
X206133311Y-78694736D01*
X206199446Y-78717273D01*
X206238485Y-78762327D01*
X206315647Y-78913766D01*
X206432731Y-79074918D01*
X206573582Y-79215769D01*
X206734734Y-79332853D01*
X206911304Y-79422820D01*
X206912219Y-79423286D01*
X207101657Y-79484838D01*
X207101658Y-79484838D01*
X207101661Y-79484839D01*
X207298403Y-79516000D01*
X207298404Y-79516000D01*
X207497596Y-79516000D01*
X207497597Y-79516000D01*
X207694339Y-79484839D01*
X207694342Y-79484838D01*
X207694343Y-79484838D01*
X207883780Y-79423286D01*
X207883780Y-79423285D01*
X207883783Y-79423285D01*
X208061266Y-79332853D01*
X208222418Y-79215769D01*
X208363269Y-79074918D01*
X208480353Y-78913766D01*
X208557515Y-78762327D01*
X208605490Y-78711531D01*
X208673311Y-78694736D01*
X208739446Y-78717273D01*
X208778485Y-78762327D01*
X208855647Y-78913766D01*
X208972731Y-79074918D01*
X209113582Y-79215769D01*
X209274734Y-79332853D01*
X209451304Y-79422820D01*
X209452219Y-79423286D01*
X209641657Y-79484838D01*
X209641658Y-79484838D01*
X209641661Y-79484839D01*
X209838403Y-79516000D01*
X209838404Y-79516000D01*
X210037596Y-79516000D01*
X210037597Y-79516000D01*
X210234339Y-79484839D01*
X210234342Y-79484838D01*
X210234343Y-79484838D01*
X210423780Y-79423286D01*
X210423780Y-79423285D01*
X210423783Y-79423285D01*
X210601266Y-79332853D01*
X210762418Y-79215769D01*
X210903269Y-79074918D01*
X211020353Y-78913766D01*
X211097515Y-78762327D01*
X211145490Y-78711531D01*
X211213311Y-78694736D01*
X211279446Y-78717273D01*
X211318485Y-78762327D01*
X211395647Y-78913766D01*
X211512731Y-79074918D01*
X211653582Y-79215769D01*
X211814734Y-79332853D01*
X211991304Y-79422820D01*
X211992219Y-79423286D01*
X212181657Y-79484838D01*
X212181658Y-79484838D01*
X212181661Y-79484839D01*
X212378403Y-79516000D01*
X212378404Y-79516000D01*
X212577596Y-79516000D01*
X212577597Y-79516000D01*
X212774339Y-79484839D01*
X212774342Y-79484838D01*
X212774343Y-79484838D01*
X212963780Y-79423286D01*
X212963780Y-79423285D01*
X212963783Y-79423285D01*
X213141266Y-79332853D01*
X213302418Y-79215769D01*
X213443269Y-79074918D01*
X213560353Y-78913766D01*
X213637515Y-78762327D01*
X213685490Y-78711531D01*
X213753311Y-78694736D01*
X213819446Y-78717273D01*
X213858485Y-78762327D01*
X213935647Y-78913766D01*
X214052731Y-79074918D01*
X214193582Y-79215769D01*
X214354734Y-79332853D01*
X214531304Y-79422820D01*
X214532219Y-79423286D01*
X214721657Y-79484838D01*
X214721658Y-79484838D01*
X214721661Y-79484839D01*
X214918403Y-79516000D01*
X214918404Y-79516000D01*
X215117596Y-79516000D01*
X215117597Y-79516000D01*
X215314339Y-79484839D01*
X215314342Y-79484838D01*
X215314343Y-79484838D01*
X215503780Y-79423286D01*
X215503780Y-79423285D01*
X215503783Y-79423285D01*
X215681266Y-79332853D01*
X215842418Y-79215769D01*
X215983269Y-79074918D01*
X216100353Y-78913766D01*
X216177515Y-78762327D01*
X216225490Y-78711531D01*
X216293311Y-78694736D01*
X216359446Y-78717273D01*
X216398485Y-78762327D01*
X216475647Y-78913766D01*
X216592731Y-79074918D01*
X216733582Y-79215769D01*
X216894734Y-79332853D01*
X217071304Y-79422820D01*
X217072219Y-79423286D01*
X217261657Y-79484838D01*
X217261658Y-79484838D01*
X217261661Y-79484839D01*
X217458403Y-79516000D01*
X217458404Y-79516000D01*
X217657596Y-79516000D01*
X217657597Y-79516000D01*
X217854339Y-79484839D01*
X217854342Y-79484838D01*
X217854343Y-79484838D01*
X218043780Y-79423286D01*
X218043780Y-79423285D01*
X218043783Y-79423285D01*
X218221266Y-79332853D01*
X218382418Y-79215769D01*
X218523269Y-79074918D01*
X218640353Y-78913766D01*
X218717515Y-78762327D01*
X218765490Y-78711531D01*
X218833311Y-78694736D01*
X218899446Y-78717273D01*
X218938485Y-78762327D01*
X219015647Y-78913766D01*
X219132731Y-79074918D01*
X219273582Y-79215769D01*
X219434734Y-79332853D01*
X219611304Y-79422820D01*
X219612219Y-79423286D01*
X219801657Y-79484838D01*
X219801658Y-79484838D01*
X219801661Y-79484839D01*
X219998403Y-79516000D01*
X219998404Y-79516000D01*
X220197596Y-79516000D01*
X220197597Y-79516000D01*
X220394339Y-79484839D01*
X220394342Y-79484838D01*
X220394343Y-79484838D01*
X220583780Y-79423286D01*
X220583780Y-79423285D01*
X220583783Y-79423285D01*
X220761266Y-79332853D01*
X220922418Y-79215769D01*
X221063269Y-79074918D01*
X221180353Y-78913766D01*
X221257515Y-78762327D01*
X221305490Y-78711531D01*
X221373311Y-78694736D01*
X221439446Y-78717273D01*
X221478485Y-78762327D01*
X221555647Y-78913766D01*
X221672731Y-79074918D01*
X221813582Y-79215769D01*
X221974734Y-79332853D01*
X222151304Y-79422820D01*
X222152219Y-79423286D01*
X222341657Y-79484838D01*
X222341658Y-79484838D01*
X222341661Y-79484839D01*
X222538403Y-79516000D01*
X222538404Y-79516000D01*
X222737596Y-79516000D01*
X222737597Y-79516000D01*
X222934339Y-79484839D01*
X222934342Y-79484838D01*
X222934343Y-79484838D01*
X223123780Y-79423286D01*
X223123780Y-79423285D01*
X223123783Y-79423285D01*
X223301266Y-79332853D01*
X223462418Y-79215769D01*
X223603269Y-79074918D01*
X223720353Y-78913766D01*
X223797515Y-78762327D01*
X223845490Y-78711531D01*
X223913311Y-78694736D01*
X223979446Y-78717273D01*
X224018485Y-78762327D01*
X224095647Y-78913766D01*
X224212731Y-79074918D01*
X224353582Y-79215769D01*
X224514734Y-79332853D01*
X224691304Y-79422820D01*
X224692219Y-79423286D01*
X224881657Y-79484838D01*
X224881658Y-79484838D01*
X224881661Y-79484839D01*
X225078403Y-79516000D01*
X225078404Y-79516000D01*
X225277596Y-79516000D01*
X225277597Y-79516000D01*
X225474339Y-79484839D01*
X225474342Y-79484838D01*
X225474343Y-79484838D01*
X225663780Y-79423286D01*
X225663780Y-79423285D01*
X225663783Y-79423285D01*
X225841266Y-79332853D01*
X226002418Y-79215769D01*
X226143269Y-79074918D01*
X226260353Y-78913766D01*
X226337515Y-78762327D01*
X226385490Y-78711531D01*
X226453311Y-78694736D01*
X226519446Y-78717273D01*
X226558485Y-78762327D01*
X226635647Y-78913766D01*
X226752731Y-79074918D01*
X226893582Y-79215769D01*
X227054734Y-79332853D01*
X227231304Y-79422820D01*
X227232219Y-79423286D01*
X227421657Y-79484838D01*
X227421658Y-79484838D01*
X227421661Y-79484839D01*
X227618403Y-79516000D01*
X227618404Y-79516000D01*
X227817596Y-79516000D01*
X227817597Y-79516000D01*
X228014339Y-79484839D01*
X228014342Y-79484838D01*
X228014343Y-79484838D01*
X228203780Y-79423286D01*
X228203780Y-79423285D01*
X228203783Y-79423285D01*
X228381266Y-79332853D01*
X228542418Y-79215769D01*
X228683269Y-79074918D01*
X228768184Y-78958042D01*
X228823511Y-78915378D01*
X228893125Y-78909399D01*
X228954920Y-78942004D01*
X228989277Y-79002843D01*
X228992500Y-79030926D01*
X228992500Y-79063368D01*
X228992501Y-79063376D01*
X228998908Y-79122983D01*
X229049202Y-79257828D01*
X229049206Y-79257835D01*
X229135452Y-79373044D01*
X229135455Y-79373047D01*
X229250664Y-79459293D01*
X229250671Y-79459297D01*
X229385517Y-79509591D01*
X229385516Y-79509591D01*
X229392444Y-79510335D01*
X229445127Y-79516000D01*
X231070872Y-79515999D01*
X231130483Y-79509591D01*
X231265331Y-79459296D01*
X231380546Y-79373046D01*
X231466796Y-79257831D01*
X231517091Y-79122983D01*
X231523500Y-79063373D01*
X231523499Y-77437628D01*
X231517091Y-77378017D01*
X231471968Y-77257037D01*
X231466797Y-77243171D01*
X231466793Y-77243164D01*
X231380547Y-77127955D01*
X231380544Y-77127952D01*
X231265335Y-77041706D01*
X231265328Y-77041702D01*
X231130482Y-76991408D01*
X231130483Y-76991408D01*
X231070883Y-76985001D01*
X231070881Y-76985000D01*
X231070873Y-76985000D01*
X231070864Y-76985000D01*
X229445129Y-76985000D01*
X229445123Y-76985001D01*
X229385516Y-76991408D01*
X229250671Y-77041702D01*
X229250664Y-77041706D01*
X229135455Y-77127952D01*
X229135452Y-77127955D01*
X229049206Y-77243164D01*
X229049202Y-77243171D01*
X228998908Y-77378017D01*
X228993741Y-77426080D01*
X228992501Y-77437623D01*
X228992500Y-77437635D01*
X228992500Y-77470068D01*
X228972815Y-77537107D01*
X228920011Y-77582862D01*
X228850853Y-77592806D01*
X228787297Y-77563781D01*
X228768182Y-77542954D01*
X228715227Y-77470068D01*
X228683269Y-77426082D01*
X228542418Y-77285231D01*
X228381266Y-77168147D01*
X228252205Y-77102387D01*
X228203780Y-77077713D01*
X228014342Y-77016161D01*
X227861174Y-76991902D01*
X227817597Y-76985000D01*
X227618403Y-76985000D01*
X227574826Y-76991902D01*
X227421659Y-77016161D01*
X227421656Y-77016161D01*
X227232219Y-77077713D01*
X227054733Y-77168147D01*
X227016286Y-77196081D01*
X226893582Y-77285231D01*
X226893580Y-77285233D01*
X226893579Y-77285233D01*
X226752733Y-77426079D01*
X226752733Y-77426080D01*
X226752731Y-77426082D01*
X226720773Y-77470068D01*
X226635647Y-77587233D01*
X226558485Y-77738672D01*
X226510510Y-77789468D01*
X226442689Y-77806263D01*
X226376554Y-77783725D01*
X226337515Y-77738672D01*
X226260485Y-77587494D01*
X226260353Y-77587234D01*
X226143269Y-77426082D01*
X226002418Y-77285231D01*
X225841266Y-77168147D01*
X225712205Y-77102387D01*
X225663780Y-77077713D01*
X225474342Y-77016161D01*
X225321174Y-76991902D01*
X225277597Y-76985000D01*
X225078403Y-76985000D01*
X225034826Y-76991902D01*
X224881659Y-77016161D01*
X224881656Y-77016161D01*
X224692219Y-77077713D01*
X224514733Y-77168147D01*
X224476286Y-77196081D01*
X224353582Y-77285231D01*
X224353580Y-77285233D01*
X224353579Y-77285233D01*
X224212733Y-77426079D01*
X224212733Y-77426080D01*
X224212731Y-77426082D01*
X224180773Y-77470068D01*
X224095647Y-77587233D01*
X224018485Y-77738672D01*
X223970510Y-77789468D01*
X223902689Y-77806263D01*
X223836554Y-77783725D01*
X223797515Y-77738672D01*
X223720485Y-77587494D01*
X223720353Y-77587234D01*
X223603269Y-77426082D01*
X223462418Y-77285231D01*
X223301266Y-77168147D01*
X223172205Y-77102387D01*
X223123780Y-77077713D01*
X222934342Y-77016161D01*
X222781174Y-76991902D01*
X222737597Y-76985000D01*
X222538403Y-76985000D01*
X222494826Y-76991902D01*
X222341659Y-77016161D01*
X222341656Y-77016161D01*
X222152219Y-77077713D01*
X221974733Y-77168147D01*
X221936286Y-77196081D01*
X221813582Y-77285231D01*
X221813580Y-77285233D01*
X221813579Y-77285233D01*
X221672733Y-77426079D01*
X221672733Y-77426080D01*
X221672731Y-77426082D01*
X221640773Y-77470068D01*
X221555647Y-77587233D01*
X221478485Y-77738672D01*
X221430510Y-77789468D01*
X221362689Y-77806263D01*
X221296554Y-77783725D01*
X221257515Y-77738672D01*
X221180485Y-77587494D01*
X221180353Y-77587234D01*
X221063269Y-77426082D01*
X220922418Y-77285231D01*
X220761266Y-77168147D01*
X220632205Y-77102387D01*
X220583780Y-77077713D01*
X220394342Y-77016161D01*
X220241174Y-76991902D01*
X220197597Y-76985000D01*
X219998403Y-76985000D01*
X219954826Y-76991902D01*
X219801659Y-77016161D01*
X219801656Y-77016161D01*
X219612219Y-77077713D01*
X219434733Y-77168147D01*
X219396286Y-77196081D01*
X219273582Y-77285231D01*
X219273580Y-77285233D01*
X219273579Y-77285233D01*
X219132733Y-77426079D01*
X219132733Y-77426080D01*
X219132731Y-77426082D01*
X219100773Y-77470068D01*
X219015647Y-77587233D01*
X218938485Y-77738672D01*
X218890510Y-77789468D01*
X218822689Y-77806263D01*
X218756554Y-77783725D01*
X218717515Y-77738672D01*
X218640485Y-77587494D01*
X218640353Y-77587234D01*
X218523269Y-77426082D01*
X218382418Y-77285231D01*
X218221266Y-77168147D01*
X218092205Y-77102387D01*
X218043780Y-77077713D01*
X217854342Y-77016161D01*
X217701174Y-76991902D01*
X217657597Y-76985000D01*
X217458403Y-76985000D01*
X217414826Y-76991902D01*
X217261659Y-77016161D01*
X217261656Y-77016161D01*
X217072219Y-77077713D01*
X216894733Y-77168147D01*
X216856286Y-77196081D01*
X216733582Y-77285231D01*
X216733580Y-77285233D01*
X216733579Y-77285233D01*
X216592733Y-77426079D01*
X216592733Y-77426080D01*
X216592731Y-77426082D01*
X216560773Y-77470068D01*
X216475647Y-77587233D01*
X216398485Y-77738672D01*
X216350510Y-77789468D01*
X216282689Y-77806263D01*
X216216554Y-77783725D01*
X216177515Y-77738672D01*
X216100485Y-77587494D01*
X216100353Y-77587234D01*
X215983269Y-77426082D01*
X215842418Y-77285231D01*
X215681266Y-77168147D01*
X215552205Y-77102387D01*
X215503780Y-77077713D01*
X215314342Y-77016161D01*
X215161174Y-76991902D01*
X215117597Y-76985000D01*
X214918403Y-76985000D01*
X214874826Y-76991902D01*
X214721659Y-77016161D01*
X214721656Y-77016161D01*
X214532219Y-77077713D01*
X214354733Y-77168147D01*
X214316286Y-77196081D01*
X214193582Y-77285231D01*
X214193580Y-77285233D01*
X214193579Y-77285233D01*
X214052733Y-77426079D01*
X214052733Y-77426080D01*
X214052731Y-77426082D01*
X214020773Y-77470068D01*
X213935647Y-77587233D01*
X213858485Y-77738672D01*
X213810510Y-77789468D01*
X213742689Y-77806263D01*
X213676554Y-77783725D01*
X213637515Y-77738672D01*
X213560485Y-77587494D01*
X213560353Y-77587234D01*
X213443269Y-77426082D01*
X213302418Y-77285231D01*
X213141266Y-77168147D01*
X213012205Y-77102387D01*
X212963780Y-77077713D01*
X212774342Y-77016161D01*
X212621174Y-76991902D01*
X212577597Y-76985000D01*
X212378403Y-76985000D01*
X212334826Y-76991902D01*
X212181659Y-77016161D01*
X212181656Y-77016161D01*
X211992219Y-77077713D01*
X211814733Y-77168147D01*
X211776286Y-77196081D01*
X211653582Y-77285231D01*
X211653580Y-77285233D01*
X211653579Y-77285233D01*
X211512733Y-77426079D01*
X211512733Y-77426080D01*
X211512731Y-77426082D01*
X211480773Y-77470068D01*
X211395647Y-77587233D01*
X211318485Y-77738672D01*
X211270510Y-77789468D01*
X211202689Y-77806263D01*
X211136554Y-77783725D01*
X211097515Y-77738672D01*
X211020485Y-77587494D01*
X211020353Y-77587234D01*
X210903269Y-77426082D01*
X210762418Y-77285231D01*
X210601266Y-77168147D01*
X210472205Y-77102387D01*
X210423780Y-77077713D01*
X210234342Y-77016161D01*
X210081174Y-76991902D01*
X210037597Y-76985000D01*
X209838403Y-76985000D01*
X209794826Y-76991902D01*
X209641659Y-77016161D01*
X209641656Y-77016161D01*
X209452219Y-77077713D01*
X209274733Y-77168147D01*
X209236286Y-77196081D01*
X209113582Y-77285231D01*
X209113580Y-77285233D01*
X209113579Y-77285233D01*
X208972733Y-77426079D01*
X208972733Y-77426080D01*
X208972731Y-77426082D01*
X208940773Y-77470068D01*
X208855647Y-77587233D01*
X208778485Y-77738672D01*
X208730510Y-77789468D01*
X208662689Y-77806263D01*
X208596554Y-77783725D01*
X208557515Y-77738672D01*
X208480485Y-77587494D01*
X208480353Y-77587234D01*
X208363269Y-77426082D01*
X208222418Y-77285231D01*
X208061266Y-77168147D01*
X207932205Y-77102387D01*
X207883780Y-77077713D01*
X207694342Y-77016161D01*
X207541174Y-76991902D01*
X207497597Y-76985000D01*
X207298403Y-76985000D01*
X207254826Y-76991902D01*
X207101659Y-77016161D01*
X207101656Y-77016161D01*
X206912219Y-77077713D01*
X206734733Y-77168147D01*
X206696286Y-77196081D01*
X206573582Y-77285231D01*
X206573580Y-77285233D01*
X206573579Y-77285233D01*
X206432733Y-77426079D01*
X206432733Y-77426080D01*
X206432731Y-77426082D01*
X206400773Y-77470068D01*
X206315647Y-77587233D01*
X206238485Y-77738672D01*
X206190510Y-77789468D01*
X206122689Y-77806263D01*
X206056554Y-77783725D01*
X206017515Y-77738672D01*
X205940485Y-77587494D01*
X205940353Y-77587234D01*
X205823269Y-77426082D01*
X205682418Y-77285231D01*
X205521266Y-77168147D01*
X205392205Y-77102387D01*
X205343780Y-77077713D01*
X205154342Y-77016161D01*
X205001174Y-76991902D01*
X204957597Y-76985000D01*
X204758403Y-76985000D01*
X204714826Y-76991902D01*
X204561659Y-77016161D01*
X204561656Y-77016161D01*
X204372219Y-77077713D01*
X204194733Y-77168147D01*
X204156286Y-77196081D01*
X204033582Y-77285231D01*
X204033580Y-77285233D01*
X204033579Y-77285233D01*
X203892733Y-77426079D01*
X203892733Y-77426080D01*
X203892731Y-77426082D01*
X203860773Y-77470068D01*
X203775647Y-77587233D01*
X203698485Y-77738672D01*
X203650510Y-77789468D01*
X203582689Y-77806263D01*
X203516554Y-77783725D01*
X203477515Y-77738672D01*
X203400485Y-77587494D01*
X203400353Y-77587234D01*
X203283269Y-77426082D01*
X203142418Y-77285231D01*
X202981266Y-77168147D01*
X202852205Y-77102387D01*
X202801409Y-77054412D01*
X202784500Y-76991902D01*
X202784500Y-74945718D01*
X202804185Y-74878679D01*
X202852207Y-74835233D01*
X202891815Y-74815052D01*
X202891815Y-74815051D01*
X202891816Y-74815051D01*
X202983193Y-74748661D01*
X203063786Y-74690109D01*
X203063788Y-74690106D01*
X203063792Y-74690104D01*
X203214104Y-74539792D01*
X203214106Y-74539788D01*
X203214109Y-74539786D01*
X203339048Y-74367820D01*
X203339050Y-74367817D01*
X203339051Y-74367816D01*
X203435557Y-74178412D01*
X203501246Y-73976243D01*
X203534500Y-73766287D01*
X203534500Y-73553713D01*
X203501246Y-73343757D01*
X203435557Y-73141588D01*
X203339051Y-72952184D01*
X203339049Y-72952181D01*
X203339048Y-72952179D01*
X203214109Y-72780213D01*
X203063786Y-72629890D01*
X202891820Y-72504951D01*
X202702414Y-72408444D01*
X202702413Y-72408443D01*
X202702412Y-72408443D01*
X202500243Y-72342754D01*
X202500241Y-72342753D01*
X202500240Y-72342753D01*
X202338957Y-72317208D01*
X202290287Y-72309500D01*
X202077713Y-72309500D01*
X202029042Y-72317208D01*
X201867760Y-72342753D01*
X201665585Y-72408444D01*
X201476179Y-72504951D01*
X201304213Y-72629890D01*
X201153890Y-72780213D01*
X201028949Y-72952182D01*
X201024484Y-72960946D01*
X200976509Y-73011742D01*
X200908688Y-73028536D01*
X200842553Y-73005998D01*
X200803516Y-72960946D01*
X200799050Y-72952182D01*
X200674109Y-72780213D01*
X200523786Y-72629890D01*
X200351820Y-72504951D01*
X200162414Y-72408444D01*
X200162413Y-72408443D01*
X200162412Y-72408443D01*
X199960243Y-72342754D01*
X199960241Y-72342753D01*
X199960240Y-72342753D01*
X199798957Y-72317208D01*
X199750287Y-72309500D01*
X199537713Y-72309500D01*
X199489042Y-72317208D01*
X199327760Y-72342753D01*
X199125585Y-72408444D01*
X198936179Y-72504951D01*
X198764213Y-72629890D01*
X198613890Y-72780213D01*
X198488949Y-72952182D01*
X198484202Y-72961499D01*
X198436227Y-73012293D01*
X198368405Y-73029087D01*
X198302271Y-73006548D01*
X198263234Y-72961495D01*
X198258626Y-72952452D01*
X198219270Y-72898282D01*
X198219269Y-72898282D01*
X197586962Y-73530590D01*
X197569925Y-73467007D01*
X197504099Y-73352993D01*
X197411007Y-73259901D01*
X197296993Y-73194075D01*
X197233409Y-73177037D01*
X197865716Y-72544728D01*
X197811550Y-72505375D01*
X197622217Y-72408904D01*
X197420129Y-72343242D01*
X197210246Y-72310000D01*
X196997754Y-72310000D01*
X196787872Y-72343242D01*
X196787869Y-72343242D01*
X196585782Y-72408904D01*
X196396439Y-72505380D01*
X196342282Y-72544727D01*
X196342282Y-72544728D01*
X196974591Y-73177037D01*
X196911007Y-73194075D01*
X196796993Y-73259901D01*
X196703901Y-73352993D01*
X196638075Y-73467007D01*
X196621037Y-73530590D01*
X195950818Y-72860371D01*
X195917333Y-72799048D01*
X195917330Y-72799035D01*
X195914499Y-72786014D01*
X195914499Y-72762128D01*
X195908091Y-72702517D01*
X195879926Y-72627002D01*
X195857798Y-72567673D01*
X195857793Y-72567664D01*
X195771547Y-72452455D01*
X195771544Y-72452452D01*
X195656335Y-72366206D01*
X195656328Y-72366202D01*
X195521482Y-72315908D01*
X195521483Y-72315908D01*
X195461883Y-72309501D01*
X195461881Y-72309500D01*
X195461873Y-72309500D01*
X195461864Y-72309500D01*
X193666129Y-72309500D01*
X193666123Y-72309501D01*
X193606516Y-72315908D01*
X193471671Y-72366202D01*
X193471664Y-72366206D01*
X193356455Y-72452452D01*
X193356452Y-72452455D01*
X193270206Y-72567664D01*
X193270202Y-72567671D01*
X193219908Y-72702517D01*
X193213501Y-72762116D01*
X193213500Y-72762135D01*
X193213500Y-74557870D01*
X193213501Y-74557876D01*
X193219908Y-74617483D01*
X193270202Y-74752328D01*
X193270206Y-74752335D01*
X193356452Y-74867544D01*
X193356455Y-74867547D01*
X193471664Y-74953793D01*
X193471671Y-74953797D01*
X193606517Y-75004091D01*
X193606516Y-75004091D01*
X193613444Y-75004835D01*
X193666127Y-75010500D01*
X195461872Y-75010499D01*
X195521483Y-75004091D01*
X195656331Y-74953796D01*
X195771546Y-74867546D01*
X195857796Y-74752331D01*
X195908091Y-74617483D01*
X195914500Y-74557873D01*
X195914499Y-74533979D01*
X195917330Y-74520963D01*
X195927940Y-74501525D01*
X195934179Y-74480275D01*
X195950803Y-74459643D01*
X195950808Y-74459636D01*
X195950811Y-74459634D01*
X195950818Y-74459626D01*
X196621037Y-73789408D01*
X196638075Y-73852993D01*
X196703901Y-73967007D01*
X196796993Y-74060099D01*
X196911007Y-74125925D01*
X196974590Y-74142962D01*
X196342282Y-74775269D01*
X196342282Y-74775270D01*
X196396449Y-74814624D01*
X196585782Y-74911095D01*
X196787870Y-74976757D01*
X196997754Y-75010000D01*
X197210246Y-75010000D01*
X197420127Y-74976757D01*
X197420130Y-74976757D01*
X197622217Y-74911095D01*
X197811554Y-74814622D01*
X197865716Y-74775270D01*
X197865717Y-74775270D01*
X197233408Y-74142962D01*
X197296993Y-74125925D01*
X197411007Y-74060099D01*
X197504099Y-73967007D01*
X197569925Y-73852993D01*
X197586962Y-73789408D01*
X198219270Y-74421717D01*
X198219270Y-74421716D01*
X198258622Y-74367555D01*
X198263232Y-74358507D01*
X198311205Y-74307709D01*
X198379025Y-74290912D01*
X198445161Y-74313447D01*
X198484204Y-74358504D01*
X198488949Y-74367817D01*
X198613890Y-74539786D01*
X198764213Y-74690109D01*
X198936184Y-74815051D01*
X198936184Y-74815052D01*
X198975793Y-74835233D01*
X199026590Y-74883206D01*
X199043500Y-74945718D01*
X199043500Y-77156720D01*
X199023815Y-77223759D01*
X198992387Y-77257037D01*
X198953582Y-77285230D01*
X198812733Y-77426079D01*
X198812733Y-77426080D01*
X198812731Y-77426082D01*
X198780773Y-77470068D01*
X198695645Y-77587235D01*
X198618203Y-77739223D01*
X198570229Y-77790018D01*
X198502408Y-77806813D01*
X198436273Y-77784275D01*
X198397234Y-77739222D01*
X198319924Y-77587494D01*
X198292417Y-77549635D01*
X198292417Y-77549634D01*
X197729128Y-78112924D01*
X197713245Y-78053647D01*
X197646102Y-77937353D01*
X197551147Y-77842398D01*
X197434853Y-77775255D01*
X197375574Y-77759371D01*
X197938864Y-77196081D01*
X197938863Y-77196080D01*
X197901008Y-77168577D01*
X197723594Y-77078179D01*
X197534222Y-77016647D01*
X197337563Y-76985500D01*
X197138437Y-76985500D01*
X196941777Y-77016647D01*
X196752405Y-77078179D01*
X196574990Y-77168577D01*
X196537135Y-77196080D01*
X196537135Y-77196081D01*
X197100425Y-77759371D01*
X197041147Y-77775255D01*
X196924853Y-77842398D01*
X196829898Y-77937353D01*
X196762755Y-78053647D01*
X196746871Y-78112925D01*
X196183581Y-77549635D01*
X196183580Y-77549635D01*
X196156075Y-77587493D01*
X196078764Y-77739223D01*
X196030790Y-77790018D01*
X195962969Y-77806813D01*
X195896834Y-77784275D01*
X195857795Y-77739222D01*
X195780485Y-77587494D01*
X195780353Y-77587234D01*
X195663269Y-77426082D01*
X195522418Y-77285231D01*
X195361266Y-77168147D01*
X195232205Y-77102387D01*
X195183780Y-77077713D01*
X194994342Y-77016161D01*
X194841174Y-76991902D01*
X194797597Y-76985000D01*
X194598403Y-76985000D01*
X194554826Y-76991902D01*
X194401659Y-77016161D01*
X194401656Y-77016161D01*
X194212219Y-77077713D01*
X194034733Y-77168147D01*
X193996286Y-77196081D01*
X193873582Y-77285231D01*
X193873580Y-77285233D01*
X193873579Y-77285233D01*
X193732733Y-77426079D01*
X193732733Y-77426080D01*
X193732731Y-77426082D01*
X193700773Y-77470068D01*
X193615647Y-77587233D01*
X193538485Y-77738672D01*
X193490510Y-77789468D01*
X193422689Y-77806263D01*
X193356554Y-77783725D01*
X193317515Y-77738672D01*
X193240485Y-77587494D01*
X193240353Y-77587234D01*
X193123269Y-77426082D01*
X192982418Y-77285231D01*
X192821266Y-77168147D01*
X192692205Y-77102387D01*
X192643780Y-77077713D01*
X192454342Y-77016161D01*
X192301174Y-76991902D01*
X192257597Y-76985000D01*
X192058403Y-76985000D01*
X192014826Y-76991902D01*
X191861659Y-77016161D01*
X191861656Y-77016161D01*
X191672219Y-77077713D01*
X191494733Y-77168147D01*
X191456286Y-77196081D01*
X191333582Y-77285231D01*
X191333580Y-77285233D01*
X191333579Y-77285233D01*
X191192733Y-77426079D01*
X191192733Y-77426080D01*
X191192731Y-77426082D01*
X191160773Y-77470068D01*
X191075647Y-77587233D01*
X190998485Y-77738672D01*
X190950510Y-77789468D01*
X190882689Y-77806263D01*
X190816554Y-77783725D01*
X190777515Y-77738672D01*
X190700485Y-77587494D01*
X190700353Y-77587234D01*
X190583269Y-77426082D01*
X190442418Y-77285231D01*
X190281266Y-77168147D01*
X190152205Y-77102387D01*
X190103780Y-77077713D01*
X189914342Y-77016161D01*
X189761174Y-76991902D01*
X189717597Y-76985000D01*
X189518403Y-76985000D01*
X189474826Y-76991902D01*
X189321659Y-77016161D01*
X189321656Y-77016161D01*
X189132219Y-77077713D01*
X188954733Y-77168147D01*
X188916286Y-77196081D01*
X188793582Y-77285231D01*
X188793580Y-77285233D01*
X188793579Y-77285233D01*
X188652733Y-77426079D01*
X188652733Y-77426080D01*
X188652731Y-77426082D01*
X188620773Y-77470068D01*
X188535647Y-77587233D01*
X188458485Y-77738672D01*
X188410510Y-77789468D01*
X188342689Y-77806263D01*
X188276554Y-77783725D01*
X188237515Y-77738672D01*
X188160485Y-77587494D01*
X188160353Y-77587234D01*
X188043269Y-77426082D01*
X187902418Y-77285231D01*
X187741266Y-77168147D01*
X187612205Y-77102387D01*
X187563780Y-77077713D01*
X187374342Y-77016161D01*
X187221174Y-76991902D01*
X187177597Y-76985000D01*
X186978403Y-76985000D01*
X186934826Y-76991902D01*
X186781659Y-77016161D01*
X186781656Y-77016161D01*
X186592219Y-77077713D01*
X186414733Y-77168147D01*
X186376286Y-77196081D01*
X186253582Y-77285231D01*
X186253580Y-77285233D01*
X186253579Y-77285233D01*
X186112733Y-77426079D01*
X186112733Y-77426080D01*
X186112731Y-77426082D01*
X186080773Y-77470068D01*
X185995647Y-77587233D01*
X185918485Y-77738672D01*
X185870510Y-77789468D01*
X185802689Y-77806263D01*
X185736554Y-77783725D01*
X185697515Y-77738672D01*
X185620485Y-77587494D01*
X185620353Y-77587234D01*
X185503269Y-77426082D01*
X185362418Y-77285231D01*
X185201266Y-77168147D01*
X185072205Y-77102387D01*
X185023780Y-77077713D01*
X184834342Y-77016161D01*
X184681174Y-76991902D01*
X184637597Y-76985000D01*
X184438403Y-76985000D01*
X184394826Y-76991902D01*
X184241659Y-77016161D01*
X184241656Y-77016161D01*
X184052219Y-77077713D01*
X183874733Y-77168147D01*
X183836286Y-77196081D01*
X183713582Y-77285231D01*
X183713580Y-77285233D01*
X183713579Y-77285233D01*
X183572733Y-77426079D01*
X183572733Y-77426080D01*
X183572731Y-77426082D01*
X183540773Y-77470068D01*
X183455647Y-77587233D01*
X183365213Y-77764719D01*
X183303661Y-77954156D01*
X183303661Y-77954159D01*
X183272500Y-78150903D01*
X86556073Y-78150903D01*
X86559730Y-53985994D01*
X98814000Y-53985994D01*
X98814000Y-54218005D01*
X98814001Y-54218022D01*
X98844283Y-54448040D01*
X98844286Y-54448053D01*
X98904336Y-54672167D01*
X98993124Y-54886521D01*
X98993132Y-54886538D01*
X99109136Y-55087461D01*
X99109142Y-55087469D01*
X99168117Y-55164327D01*
X100101037Y-54231408D01*
X100118075Y-54294993D01*
X100183901Y-54409007D01*
X100276993Y-54502099D01*
X100391007Y-54567925D01*
X100454591Y-54584962D01*
X99521671Y-55517881D01*
X99598530Y-55576857D01*
X99598538Y-55576863D01*
X99799461Y-55692867D01*
X99799478Y-55692875D01*
X100013832Y-55781663D01*
X100237946Y-55841713D01*
X100237959Y-55841716D01*
X100467977Y-55871998D01*
X100467995Y-55872000D01*
X100700005Y-55872000D01*
X100700022Y-55871998D01*
X100930040Y-55841716D01*
X100930053Y-55841713D01*
X101154167Y-55781663D01*
X101368521Y-55692875D01*
X101368538Y-55692867D01*
X101569475Y-55576855D01*
X101646327Y-55517883D01*
X101646327Y-55517880D01*
X100713408Y-54584962D01*
X100776993Y-54567925D01*
X100891007Y-54502099D01*
X100984099Y-54409007D01*
X101049925Y-54294993D01*
X101066962Y-54231408D01*
X101999880Y-55164327D01*
X101999883Y-55164327D01*
X102058855Y-55087475D01*
X102174867Y-54886538D01*
X102174875Y-54886521D01*
X102263663Y-54672167D01*
X102323713Y-54448053D01*
X102323716Y-54448040D01*
X102353998Y-54218022D01*
X102354000Y-54218005D01*
X102354000Y-53985994D01*
X139454000Y-53985994D01*
X139454000Y-54218005D01*
X139454001Y-54218022D01*
X139484283Y-54448040D01*
X139484286Y-54448053D01*
X139544336Y-54672167D01*
X139633124Y-54886521D01*
X139633132Y-54886538D01*
X139749136Y-55087461D01*
X139749142Y-55087469D01*
X139808117Y-55164327D01*
X140741037Y-54231408D01*
X140758075Y-54294993D01*
X140823901Y-54409007D01*
X140916993Y-54502099D01*
X141031007Y-54567925D01*
X141094591Y-54584962D01*
X140161671Y-55517881D01*
X140238530Y-55576857D01*
X140238538Y-55576863D01*
X140439461Y-55692867D01*
X140439478Y-55692875D01*
X140653832Y-55781663D01*
X140877946Y-55841713D01*
X140877959Y-55841716D01*
X141107977Y-55871998D01*
X141107995Y-55872000D01*
X141340005Y-55872000D01*
X141340022Y-55871998D01*
X141469217Y-55854990D01*
X141570040Y-55841716D01*
X141570053Y-55841713D01*
X141794167Y-55781663D01*
X142008521Y-55692875D01*
X142008538Y-55692867D01*
X142209475Y-55576855D01*
X142286327Y-55517883D01*
X142286327Y-55517880D01*
X141353408Y-54584962D01*
X141416993Y-54567925D01*
X141531007Y-54502099D01*
X141624099Y-54409007D01*
X141689925Y-54294993D01*
X141706962Y-54231408D01*
X142639880Y-55164327D01*
X142639883Y-55164327D01*
X142698855Y-55087475D01*
X142814867Y-54886538D01*
X142814875Y-54886521D01*
X142903663Y-54672167D01*
X142951404Y-54493994D01*
X176030000Y-54493994D01*
X176030000Y-54726005D01*
X176030001Y-54726022D01*
X176060283Y-54956040D01*
X176060286Y-54956053D01*
X176120336Y-55180167D01*
X176209124Y-55394521D01*
X176209132Y-55394538D01*
X176325136Y-55595461D01*
X176325142Y-55595469D01*
X176384117Y-55672327D01*
X177317037Y-54739408D01*
X177334075Y-54802993D01*
X177399901Y-54917007D01*
X177492993Y-55010099D01*
X177607007Y-55075925D01*
X177670591Y-55092962D01*
X176737671Y-56025881D01*
X176814530Y-56084857D01*
X176814538Y-56084863D01*
X177015461Y-56200867D01*
X177015478Y-56200875D01*
X177229832Y-56289663D01*
X177453946Y-56349713D01*
X177453959Y-56349716D01*
X177683977Y-56379998D01*
X177683995Y-56380000D01*
X177916005Y-56380000D01*
X177916022Y-56379998D01*
X178146040Y-56349716D01*
X178146053Y-56349713D01*
X178370167Y-56289663D01*
X178584521Y-56200875D01*
X178584538Y-56200867D01*
X178785475Y-56084855D01*
X178862327Y-56025883D01*
X178862327Y-56025880D01*
X177929408Y-55092962D01*
X177992993Y-55075925D01*
X178107007Y-55010099D01*
X178200099Y-54917007D01*
X178265925Y-54802993D01*
X178282962Y-54739409D01*
X179215880Y-55672327D01*
X179215883Y-55672327D01*
X179274855Y-55595475D01*
X179390867Y-55394538D01*
X179390875Y-55394521D01*
X179479663Y-55180167D01*
X179539713Y-54956053D01*
X179539716Y-54956040D01*
X179569998Y-54726022D01*
X179570000Y-54726005D01*
X179570000Y-54493994D01*
X216670000Y-54493994D01*
X216670000Y-54726005D01*
X216670001Y-54726022D01*
X216700283Y-54956040D01*
X216700286Y-54956053D01*
X216760336Y-55180167D01*
X216849124Y-55394521D01*
X216849132Y-55394538D01*
X216965136Y-55595461D01*
X216965142Y-55595469D01*
X217024117Y-55672327D01*
X217957037Y-54739408D01*
X217974075Y-54802993D01*
X218039901Y-54917007D01*
X218132993Y-55010099D01*
X218247007Y-55075925D01*
X218310591Y-55092962D01*
X217377671Y-56025881D01*
X217454530Y-56084857D01*
X217454538Y-56084863D01*
X217655461Y-56200867D01*
X217655478Y-56200875D01*
X217869832Y-56289663D01*
X218093946Y-56349713D01*
X218093959Y-56349716D01*
X218323977Y-56379998D01*
X218323995Y-56380000D01*
X218556005Y-56380000D01*
X218556022Y-56379998D01*
X218786040Y-56349716D01*
X218786053Y-56349713D01*
X219010167Y-56289663D01*
X219224521Y-56200875D01*
X219224538Y-56200867D01*
X219425475Y-56084855D01*
X219502327Y-56025883D01*
X219502327Y-56025880D01*
X218569408Y-55092962D01*
X218632993Y-55075925D01*
X218747007Y-55010099D01*
X218840099Y-54917007D01*
X218905925Y-54802993D01*
X218922962Y-54739409D01*
X219855880Y-55672327D01*
X219855883Y-55672327D01*
X219914855Y-55595475D01*
X220030867Y-55394538D01*
X220030875Y-55394521D01*
X220119663Y-55180167D01*
X220179713Y-54956053D01*
X220179716Y-54956040D01*
X220209998Y-54726022D01*
X220210000Y-54726005D01*
X220210000Y-54493994D01*
X220209998Y-54493977D01*
X220179716Y-54263959D01*
X220179713Y-54263946D01*
X220119663Y-54039832D01*
X220030875Y-53825478D01*
X220030867Y-53825461D01*
X219914863Y-53624538D01*
X219914857Y-53624530D01*
X219855881Y-53547671D01*
X218922962Y-54480590D01*
X218905925Y-54417007D01*
X218840099Y-54302993D01*
X218747007Y-54209901D01*
X218632993Y-54144075D01*
X218569409Y-54127037D01*
X219502327Y-53194117D01*
X219425469Y-53135142D01*
X219425461Y-53135136D01*
X219224538Y-53019132D01*
X219224521Y-53019124D01*
X219010167Y-52930336D01*
X218786053Y-52870286D01*
X218786040Y-52870283D01*
X218556022Y-52840001D01*
X218556005Y-52840000D01*
X218323995Y-52840000D01*
X218323977Y-52840001D01*
X218093959Y-52870283D01*
X218093946Y-52870286D01*
X217869832Y-52930336D01*
X217655478Y-53019124D01*
X217655461Y-53019132D01*
X217454541Y-53135134D01*
X217454533Y-53135140D01*
X217377671Y-53194116D01*
X217377671Y-53194117D01*
X218310591Y-54127037D01*
X218247007Y-54144075D01*
X218132993Y-54209901D01*
X218039901Y-54302993D01*
X217974075Y-54417007D01*
X217957037Y-54480591D01*
X217024117Y-53547671D01*
X217024116Y-53547671D01*
X216965140Y-53624533D01*
X216965134Y-53624541D01*
X216849132Y-53825461D01*
X216849124Y-53825478D01*
X216760336Y-54039832D01*
X216700286Y-54263946D01*
X216700283Y-54263959D01*
X216670001Y-54493977D01*
X216670000Y-54493994D01*
X179570000Y-54493994D01*
X179569998Y-54493977D01*
X179539716Y-54263959D01*
X179539713Y-54263946D01*
X179479663Y-54039832D01*
X179390875Y-53825478D01*
X179390867Y-53825461D01*
X179274863Y-53624538D01*
X179274857Y-53624530D01*
X179215881Y-53547671D01*
X178282962Y-54480590D01*
X178265925Y-54417007D01*
X178200099Y-54302993D01*
X178107007Y-54209901D01*
X177992993Y-54144075D01*
X177929409Y-54127037D01*
X178862327Y-53194117D01*
X178785469Y-53135142D01*
X178785461Y-53135136D01*
X178584538Y-53019132D01*
X178584521Y-53019124D01*
X178370167Y-52930336D01*
X178146053Y-52870286D01*
X178146040Y-52870283D01*
X177916022Y-52840001D01*
X177916005Y-52840000D01*
X177683995Y-52840000D01*
X177683977Y-52840001D01*
X177453959Y-52870283D01*
X177453946Y-52870286D01*
X177229832Y-52930336D01*
X177015478Y-53019124D01*
X177015461Y-53019132D01*
X176814541Y-53135134D01*
X176814533Y-53135140D01*
X176737671Y-53194116D01*
X176737671Y-53194117D01*
X177670591Y-54127037D01*
X177607007Y-54144075D01*
X177492993Y-54209901D01*
X177399901Y-54302993D01*
X177334075Y-54417007D01*
X177317037Y-54480591D01*
X176384117Y-53547671D01*
X176384116Y-53547671D01*
X176325140Y-53624533D01*
X176325134Y-53624541D01*
X176209132Y-53825461D01*
X176209124Y-53825478D01*
X176120336Y-54039832D01*
X176060286Y-54263946D01*
X176060283Y-54263959D01*
X176030001Y-54493977D01*
X176030000Y-54493994D01*
X142951404Y-54493994D01*
X142961093Y-54457836D01*
X142961093Y-54457835D01*
X142963713Y-54448056D01*
X142963716Y-54448040D01*
X142993998Y-54218022D01*
X142994000Y-54218005D01*
X142994000Y-53985994D01*
X142993998Y-53985977D01*
X142963716Y-53755959D01*
X142963713Y-53755946D01*
X142903663Y-53531832D01*
X142814875Y-53317478D01*
X142814869Y-53317465D01*
X142807135Y-53304069D01*
X142698858Y-53116531D01*
X142698857Y-53116530D01*
X142639881Y-53039671D01*
X141706962Y-53972590D01*
X141689925Y-53909007D01*
X141624099Y-53794993D01*
X141531007Y-53701901D01*
X141416993Y-53636075D01*
X141353409Y-53619037D01*
X142286327Y-52686117D01*
X142209469Y-52627142D01*
X142209461Y-52627136D01*
X142008538Y-52511132D01*
X142008521Y-52511124D01*
X141794167Y-52422336D01*
X141570053Y-52362286D01*
X141570040Y-52362283D01*
X141340022Y-52332001D01*
X141340005Y-52332000D01*
X141107995Y-52332000D01*
X141107977Y-52332001D01*
X140877959Y-52362283D01*
X140877946Y-52362286D01*
X140653832Y-52422336D01*
X140439478Y-52511124D01*
X140439461Y-52511132D01*
X140238541Y-52627134D01*
X140238533Y-52627140D01*
X140161671Y-52686116D01*
X140161671Y-52686117D01*
X141094591Y-53619037D01*
X141031007Y-53636075D01*
X140916993Y-53701901D01*
X140823901Y-53794993D01*
X140758075Y-53909007D01*
X140741037Y-53972591D01*
X139808117Y-53039671D01*
X139808116Y-53039671D01*
X139749140Y-53116533D01*
X139749134Y-53116541D01*
X139633132Y-53317461D01*
X139633124Y-53317478D01*
X139544336Y-53531832D01*
X139484286Y-53755946D01*
X139484283Y-53755959D01*
X139454001Y-53985977D01*
X139454000Y-53985994D01*
X102354000Y-53985994D01*
X102353998Y-53985977D01*
X102323716Y-53755959D01*
X102323713Y-53755946D01*
X102263663Y-53531832D01*
X102174875Y-53317478D01*
X102174867Y-53317461D01*
X102058863Y-53116538D01*
X102058857Y-53116530D01*
X101999881Y-53039671D01*
X101066962Y-53972590D01*
X101049925Y-53909007D01*
X100984099Y-53794993D01*
X100891007Y-53701901D01*
X100776993Y-53636075D01*
X100713409Y-53619037D01*
X101646327Y-52686117D01*
X101569469Y-52627142D01*
X101569461Y-52627136D01*
X101368538Y-52511132D01*
X101368521Y-52511124D01*
X101154167Y-52422336D01*
X100930053Y-52362286D01*
X100930040Y-52362283D01*
X100700022Y-52332001D01*
X100700005Y-52332000D01*
X100467995Y-52332000D01*
X100467977Y-52332001D01*
X100237959Y-52362283D01*
X100237946Y-52362286D01*
X100013832Y-52422336D01*
X99799478Y-52511124D01*
X99799461Y-52511132D01*
X99598541Y-52627134D01*
X99598533Y-52627140D01*
X99521671Y-52686116D01*
X99521671Y-52686117D01*
X100454591Y-53619037D01*
X100391007Y-53636075D01*
X100276993Y-53701901D01*
X100183901Y-53794993D01*
X100118075Y-53909007D01*
X100101037Y-53972590D01*
X99168117Y-53039671D01*
X99168116Y-53039671D01*
X99109140Y-53116533D01*
X99109134Y-53116541D01*
X98993132Y-53317461D01*
X98993124Y-53317478D01*
X98904336Y-53531832D01*
X98844286Y-53755946D01*
X98844283Y-53755959D01*
X98814001Y-53985977D01*
X98814000Y-53985994D01*
X86559730Y-53985994D01*
X86562496Y-35711536D01*
X86562500Y-35711531D01*
X86562500Y-35689189D01*
X86562579Y-35684788D01*
X86568307Y-35524422D01*
X91071500Y-35524422D01*
X91071500Y-35794049D01*
X91101686Y-36061955D01*
X91101688Y-36061967D01*
X91161684Y-36324830D01*
X91161687Y-36324838D01*
X91250734Y-36579318D01*
X91367714Y-36822230D01*
X91367716Y-36822233D01*
X91511162Y-37050525D01*
X91679266Y-37261321D01*
X91869915Y-37451970D01*
X92080711Y-37620074D01*
X92309003Y-37763520D01*
X92551921Y-37880503D01*
X92645713Y-37913322D01*
X92806397Y-37969548D01*
X92806405Y-37969551D01*
X92806408Y-37969551D01*
X92806409Y-37969552D01*
X93069268Y-38029548D01*
X93337187Y-38059735D01*
X93337188Y-38059736D01*
X93337191Y-38059736D01*
X93606812Y-38059736D01*
X93606812Y-38059735D01*
X93874732Y-38029548D01*
X94137591Y-37969552D01*
X94392079Y-37880503D01*
X94634997Y-37763520D01*
X94863289Y-37620074D01*
X95074085Y-37451970D01*
X95264734Y-37261321D01*
X95432838Y-37050525D01*
X95576284Y-36822233D01*
X95693267Y-36579315D01*
X95782316Y-36324827D01*
X95842312Y-36061968D01*
X95872500Y-35794045D01*
X95872500Y-35524427D01*
X95842312Y-35256504D01*
X95784710Y-35004135D01*
X98813500Y-35004135D01*
X98813500Y-37639870D01*
X98813501Y-37639876D01*
X98819908Y-37699483D01*
X98870202Y-37834328D01*
X98870206Y-37834335D01*
X98956452Y-37949544D01*
X98956455Y-37949547D01*
X99071664Y-38035793D01*
X99071671Y-38035797D01*
X99206517Y-38086091D01*
X99206516Y-38086091D01*
X99213444Y-38086835D01*
X99266127Y-38092500D01*
X101901872Y-38092499D01*
X101961483Y-38086091D01*
X102096331Y-38035796D01*
X102211546Y-37949546D01*
X102297796Y-37834331D01*
X102348091Y-37699483D01*
X102354500Y-37639873D01*
X102354499Y-36205947D01*
X139453500Y-36205947D01*
X139453500Y-36438052D01*
X139483794Y-36668148D01*
X139543862Y-36892328D01*
X139632677Y-37106745D01*
X139632685Y-37106762D01*
X139748720Y-37307743D01*
X139748721Y-37307745D01*
X139890009Y-37491875D01*
X139890015Y-37491882D01*
X140054117Y-37655984D01*
X140054124Y-37655990D01*
X140238254Y-37797278D01*
X140238256Y-37797279D01*
X140439237Y-37913314D01*
X140439240Y-37913315D01*
X140439248Y-37913320D01*
X140653670Y-38002137D01*
X140877851Y-38062206D01*
X141069977Y-38087500D01*
X141107939Y-38092498D01*
X141107955Y-38092500D01*
X141107962Y-38092500D01*
X141340038Y-38092500D01*
X141340045Y-38092500D01*
X141570149Y-38062206D01*
X141794330Y-38002137D01*
X142008752Y-37913320D01*
X142177753Y-37815748D01*
X142209743Y-37797279D01*
X142209745Y-37797278D01*
X142209748Y-37797276D01*
X142393877Y-37655989D01*
X142557989Y-37491877D01*
X142699276Y-37307748D01*
X142815320Y-37106752D01*
X142904137Y-36892330D01*
X142964206Y-36668149D01*
X142994500Y-36438045D01*
X142994500Y-36205955D01*
X142964206Y-35975851D01*
X142904137Y-35751670D01*
X142821510Y-35552191D01*
X142815323Y-35537254D01*
X142815314Y-35537237D01*
X142800822Y-35512135D01*
X176029500Y-35512135D01*
X176029500Y-38147870D01*
X176029501Y-38147876D01*
X176035908Y-38207483D01*
X176086202Y-38342328D01*
X176086206Y-38342335D01*
X176172452Y-38457544D01*
X176172455Y-38457547D01*
X176287664Y-38543793D01*
X176287671Y-38543797D01*
X176422517Y-38594091D01*
X176422516Y-38594091D01*
X176429444Y-38594835D01*
X176482127Y-38600500D01*
X179117872Y-38600499D01*
X179177483Y-38594091D01*
X179312331Y-38543796D01*
X179427546Y-38457546D01*
X179513796Y-38342331D01*
X179564091Y-38207483D01*
X179570500Y-38147873D01*
X179570499Y-36713947D01*
X216669500Y-36713947D01*
X216669500Y-36946052D01*
X216699794Y-37176148D01*
X216759862Y-37400328D01*
X216848677Y-37614745D01*
X216848685Y-37614762D01*
X216964720Y-37815743D01*
X216964721Y-37815745D01*
X217106009Y-37999875D01*
X217106015Y-37999882D01*
X217270117Y-38163984D01*
X217270124Y-38163990D01*
X217454254Y-38305278D01*
X217454256Y-38305279D01*
X217655237Y-38421314D01*
X217655240Y-38421315D01*
X217655248Y-38421320D01*
X217869670Y-38510137D01*
X218093851Y-38570206D01*
X218312318Y-38598968D01*
X218323939Y-38600498D01*
X218323955Y-38600500D01*
X218323962Y-38600500D01*
X218556038Y-38600500D01*
X218556045Y-38600500D01*
X218786149Y-38570206D01*
X219010330Y-38510137D01*
X219224752Y-38421320D01*
X219425748Y-38305276D01*
X219609877Y-38163989D01*
X219773989Y-37999877D01*
X219915276Y-37815748D01*
X220031320Y-37614752D01*
X220120137Y-37400330D01*
X220180206Y-37176149D01*
X220210500Y-36946045D01*
X220210500Y-36713955D01*
X220180206Y-36483851D01*
X220120137Y-36259670D01*
X220031320Y-36045248D01*
X219922676Y-35857069D01*
X219915279Y-35844256D01*
X219915278Y-35844254D01*
X219773990Y-35660124D01*
X219773984Y-35660117D01*
X219666053Y-35552186D01*
X231787500Y-35552186D01*
X231787500Y-35821813D01*
X231817686Y-36089719D01*
X231817688Y-36089731D01*
X231877684Y-36352594D01*
X231877687Y-36352602D01*
X231966734Y-36607082D01*
X232083714Y-36849994D01*
X232083716Y-36849997D01*
X232227162Y-37078289D01*
X232395266Y-37289085D01*
X232585915Y-37479734D01*
X232796711Y-37647838D01*
X232980819Y-37763521D01*
X233025005Y-37791285D01*
X233037450Y-37797278D01*
X233267921Y-37908267D01*
X233443061Y-37969551D01*
X233522397Y-37997312D01*
X233522405Y-37997315D01*
X233522408Y-37997315D01*
X233522409Y-37997316D01*
X233785268Y-38057312D01*
X234053187Y-38087499D01*
X234053188Y-38087500D01*
X234053191Y-38087500D01*
X234322812Y-38087500D01*
X234322812Y-38087499D01*
X234590732Y-38057312D01*
X234853591Y-37997316D01*
X235108079Y-37908267D01*
X235350997Y-37791284D01*
X235579289Y-37647838D01*
X235790085Y-37479734D01*
X235980734Y-37289085D01*
X236148838Y-37078289D01*
X236292284Y-36849997D01*
X236409267Y-36607079D01*
X236498316Y-36352591D01*
X236558312Y-36089732D01*
X236588500Y-35821809D01*
X236588500Y-35552191D01*
X236558312Y-35284268D01*
X236498316Y-35021409D01*
X236492269Y-35004129D01*
X236437190Y-34846721D01*
X236409267Y-34766921D01*
X236292284Y-34524003D01*
X236148838Y-34295711D01*
X235980734Y-34084915D01*
X235790085Y-33894266D01*
X235579289Y-33726162D01*
X235350997Y-33582716D01*
X235350994Y-33582714D01*
X235108082Y-33465734D01*
X234853602Y-33376687D01*
X234853594Y-33376684D01*
X234656446Y-33331687D01*
X234590732Y-33316688D01*
X234590728Y-33316687D01*
X234590719Y-33316686D01*
X234322813Y-33286500D01*
X234322809Y-33286500D01*
X234053191Y-33286500D01*
X234053186Y-33286500D01*
X233785280Y-33316686D01*
X233785268Y-33316688D01*
X233522405Y-33376684D01*
X233522397Y-33376687D01*
X233267917Y-33465734D01*
X233025005Y-33582714D01*
X232796712Y-33726161D01*
X232585915Y-33894265D01*
X232395265Y-34084915D01*
X232227161Y-34295712D01*
X232083714Y-34524005D01*
X231966734Y-34766917D01*
X231877687Y-35021397D01*
X231877684Y-35021405D01*
X231817688Y-35284268D01*
X231817686Y-35284280D01*
X231787500Y-35552186D01*
X219666053Y-35552186D01*
X219609882Y-35496015D01*
X219609875Y-35496009D01*
X219425745Y-35354721D01*
X219425743Y-35354720D01*
X219224762Y-35238685D01*
X219224754Y-35238681D01*
X219224752Y-35238680D01*
X219137298Y-35202455D01*
X219010328Y-35149862D01*
X218868203Y-35111780D01*
X218786149Y-35089794D01*
X218757386Y-35086007D01*
X218556052Y-35059500D01*
X218556045Y-35059500D01*
X218323955Y-35059500D01*
X218323947Y-35059500D01*
X218093851Y-35089794D01*
X217869671Y-35149862D01*
X217655254Y-35238677D01*
X217655237Y-35238685D01*
X217454256Y-35354720D01*
X217454254Y-35354721D01*
X217270124Y-35496009D01*
X217270117Y-35496015D01*
X217106015Y-35660117D01*
X217106009Y-35660124D01*
X216964721Y-35844254D01*
X216964720Y-35844256D01*
X216848685Y-36045237D01*
X216848677Y-36045254D01*
X216759862Y-36259671D01*
X216699794Y-36483851D01*
X216669500Y-36713947D01*
X179570499Y-36713947D01*
X179570499Y-35512128D01*
X179564091Y-35452517D01*
X179527615Y-35354721D01*
X179513797Y-35317671D01*
X179513793Y-35317664D01*
X179427547Y-35202455D01*
X179427544Y-35202452D01*
X179312335Y-35116206D01*
X179312328Y-35116202D01*
X179177482Y-35065908D01*
X179177483Y-35065908D01*
X179117883Y-35059501D01*
X179117881Y-35059500D01*
X179117873Y-35059500D01*
X179117864Y-35059500D01*
X176482129Y-35059500D01*
X176482123Y-35059501D01*
X176422516Y-35065908D01*
X176287671Y-35116202D01*
X176287664Y-35116206D01*
X176172455Y-35202452D01*
X176172452Y-35202455D01*
X176086206Y-35317664D01*
X176086202Y-35317671D01*
X176035908Y-35452517D01*
X176031232Y-35496015D01*
X176029501Y-35512123D01*
X176029500Y-35512135D01*
X142800822Y-35512135D01*
X142699279Y-35336256D01*
X142699278Y-35336254D01*
X142557990Y-35152124D01*
X142557984Y-35152117D01*
X142393882Y-34988015D01*
X142393875Y-34988009D01*
X142209745Y-34846721D01*
X142209743Y-34846720D01*
X142008762Y-34730685D01*
X142008754Y-34730681D01*
X142008752Y-34730680D01*
X142008745Y-34730677D01*
X141794328Y-34641862D01*
X141652203Y-34603780D01*
X141570149Y-34581794D01*
X141541386Y-34578007D01*
X141340052Y-34551500D01*
X141340045Y-34551500D01*
X141107955Y-34551500D01*
X141107947Y-34551500D01*
X140877851Y-34581794D01*
X140653671Y-34641862D01*
X140439254Y-34730677D01*
X140439237Y-34730685D01*
X140238256Y-34846720D01*
X140238254Y-34846721D01*
X140054124Y-34988009D01*
X140054117Y-34988015D01*
X139890015Y-35152117D01*
X139890009Y-35152124D01*
X139748721Y-35336254D01*
X139748720Y-35336256D01*
X139632685Y-35537237D01*
X139632677Y-35537254D01*
X139543862Y-35751671D01*
X139483794Y-35975851D01*
X139453500Y-36205947D01*
X102354499Y-36205947D01*
X102354499Y-35004128D01*
X102348091Y-34944517D01*
X102311615Y-34846721D01*
X102297797Y-34809671D01*
X102297793Y-34809664D01*
X102211547Y-34694455D01*
X102211544Y-34694452D01*
X102096335Y-34608206D01*
X102096328Y-34608202D01*
X101961482Y-34557908D01*
X101961483Y-34557908D01*
X101901883Y-34551501D01*
X101901881Y-34551500D01*
X101901873Y-34551500D01*
X101901864Y-34551500D01*
X99266129Y-34551500D01*
X99266123Y-34551501D01*
X99206516Y-34557908D01*
X99071671Y-34608202D01*
X99071664Y-34608206D01*
X98956455Y-34694452D01*
X98956452Y-34694455D01*
X98870206Y-34809664D01*
X98870202Y-34809671D01*
X98819908Y-34944517D01*
X98815232Y-34988015D01*
X98813501Y-35004123D01*
X98813500Y-35004135D01*
X95784710Y-35004135D01*
X95782316Y-34993645D01*
X95693267Y-34739157D01*
X95576284Y-34496239D01*
X95432838Y-34267947D01*
X95264734Y-34057151D01*
X95074085Y-33866502D01*
X94863289Y-33698398D01*
X94634997Y-33554952D01*
X94634994Y-33554950D01*
X94392082Y-33437970D01*
X94137602Y-33348923D01*
X94137594Y-33348920D01*
X93940446Y-33303923D01*
X93874732Y-33288924D01*
X93874728Y-33288923D01*
X93874719Y-33288922D01*
X93606813Y-33258736D01*
X93606809Y-33258736D01*
X93337191Y-33258736D01*
X93337186Y-33258736D01*
X93069280Y-33288922D01*
X93069268Y-33288924D01*
X92806405Y-33348920D01*
X92806397Y-33348923D01*
X92551917Y-33437970D01*
X92309005Y-33554950D01*
X92080712Y-33698397D01*
X91869915Y-33866501D01*
X91679265Y-34057151D01*
X91511161Y-34267948D01*
X91367714Y-34496241D01*
X91250734Y-34739153D01*
X91161687Y-34993633D01*
X91161684Y-34993641D01*
X91101688Y-35256504D01*
X91101686Y-35256516D01*
X91071500Y-35524422D01*
X86568307Y-35524422D01*
X86568589Y-35516522D01*
X86571506Y-35434834D01*
X86579947Y-35198494D01*
X86580575Y-35189705D01*
X86632358Y-34708049D01*
X86633611Y-34699341D01*
X86719623Y-34222604D01*
X86721494Y-34214008D01*
X86841292Y-33744642D01*
X86843777Y-33736178D01*
X86996749Y-33276574D01*
X86999838Y-33268291D01*
X87003796Y-33258736D01*
X87185211Y-32820761D01*
X87188873Y-32812743D01*
X87405699Y-32379580D01*
X87409922Y-32371844D01*
X87657112Y-31955227D01*
X87661879Y-31947811D01*
X87938135Y-31549927D01*
X87943435Y-31542847D01*
X88247386Y-31165666D01*
X88253147Y-31159017D01*
X88583235Y-30804479D01*
X88589479Y-30798235D01*
X88944017Y-30468147D01*
X88950666Y-30462386D01*
X89327853Y-30158430D01*
X89334933Y-30153131D01*
X89732811Y-29876879D01*
X89740227Y-29872112D01*
X90156844Y-29624922D01*
X90164580Y-29620699D01*
X90597743Y-29403873D01*
X90605761Y-29400211D01*
X91053302Y-29214833D01*
X91061574Y-29211749D01*
X91521178Y-29058777D01*
X91529642Y-29056292D01*
X91999008Y-28936494D01*
X92007604Y-28934623D01*
X92484341Y-28848611D01*
X92493049Y-28847358D01*
X92974705Y-28795575D01*
X92983494Y-28794947D01*
X93469788Y-28777578D01*
X93474211Y-28777500D01*
X93496531Y-28777500D01*
X93496531Y-28777499D01*
X93517330Y-28777498D01*
X234185768Y-28776346D01*
X234190245Y-28776427D01*
G37*
%TD.AperFunction*%
%TD*%
M02*
