%TF.GenerationSoftware,KiCad,Pcbnew,9.0.4*%
%TF.CreationDate,2026-03-06T19:32:12-05:00*%
%TF.ProjectId,Hand_System_Rev_1,48616e64-5f53-4797-9374-656d5f526576,rev?*%
%TF.SameCoordinates,Original*%
%TF.FileFunction,Plated,1,4,PTH,Mixed*%
%TF.FilePolarity,Positive*%
%FSLAX46Y46*%
G04 Gerber Fmt 4.6, Leading zero omitted, Abs format (unit mm)*
G04 Created by KiCad (PCBNEW 9.0.4) date 2026-03-06 19:32:12*
%MOMM*%
%LPD*%
G01*
G04 APERTURE LIST*
%TA.AperFunction,ComponentDrill*%
%ADD10C,0.800000*%
%TD*%
%TA.AperFunction,ComponentDrill*%
%ADD11C,1.000000*%
%TD*%
G04 aperture for slot hole*
%TA.AperFunction,ComponentDrill*%
%ADD12C,1.020000*%
%TD*%
%TA.AperFunction,ComponentDrill*%
%ADD13C,1.020000*%
%TD*%
G04 APERTURE END LIST*
D10*
%TO.C,U3*%
X153426000Y-105664000D03*
X153426000Y-108204000D03*
X153426000Y-110744000D03*
X153426000Y-113284000D03*
X153426000Y-115824000D03*
X153426000Y-118364000D03*
X153426000Y-120904000D03*
X153426000Y-123444000D03*
X166126000Y-105664000D03*
X166126000Y-108204000D03*
X166126000Y-110744000D03*
X166126000Y-113284000D03*
X166126000Y-115824000D03*
X166126000Y-118364000D03*
X166126000Y-120904000D03*
X166126000Y-123444000D03*
D11*
%TO.C,U6*%
X92710000Y-106426000D03*
X92710000Y-124206000D03*
%TO.C,U2*%
X100584000Y-36322000D03*
X100584000Y-54102000D03*
%TO.C,U6*%
X133350000Y-106426000D03*
X133350000Y-124206000D03*
%TO.C,U2*%
X141224000Y-36322000D03*
X141224000Y-54102000D03*
%TO.C,M7*%
X148082000Y-111252000D03*
X148082000Y-113792000D03*
X148082000Y-116332000D03*
X148082000Y-118872000D03*
%TO.C,U5*%
X177800000Y-36830000D03*
X177800000Y-54610000D03*
%TO.C,M1*%
X178181000Y-112776000D03*
X178181000Y-115316000D03*
X178181000Y-117856000D03*
%TO.C,M2*%
X183515000Y-112776000D03*
X183515000Y-115316000D03*
X183515000Y-117856000D03*
%TO.C,M8*%
X190119000Y-112776000D03*
X190119000Y-115316000D03*
X190119000Y-117856000D03*
%TO.C,U4*%
X194564000Y-73660000D03*
%TO.C,M3*%
X195707000Y-112776000D03*
X195707000Y-115316000D03*
X195707000Y-117856000D03*
%TO.C,U4*%
X197104000Y-73660000D03*
X199644000Y-73660000D03*
X202184000Y-73660000D03*
%TO.C,M9*%
X202819000Y-112776000D03*
X202819000Y-115316000D03*
X202819000Y-117856000D03*
%TO.C,M4*%
X208407000Y-112776000D03*
X208407000Y-115316000D03*
X208407000Y-117856000D03*
%TO.C,M10*%
X215265000Y-112776000D03*
X215265000Y-115316000D03*
X215265000Y-117856000D03*
%TO.C,U5*%
X218440000Y-36830000D03*
X218440000Y-54610000D03*
%TO.C,M5*%
X220853000Y-112776000D03*
X220853000Y-115316000D03*
X220853000Y-117856000D03*
%TO.C,M11*%
X227457000Y-112776000D03*
X227457000Y-115316000D03*
X227457000Y-117856000D03*
%TO.C,M6*%
X233045000Y-112776000D03*
X233045000Y-115316000D03*
X233045000Y-117856000D03*
D12*
%TO.C,J1*%
X99970000Y-92432000D02*
X99970000Y-89432000D01*
X105150000Y-92432000D02*
X105150000Y-89432000D01*
D13*
%TO.C,U1*%
X184538000Y-78250500D03*
X184538000Y-103650500D03*
X187078000Y-78250500D03*
X187078000Y-103650500D03*
X189618000Y-78250500D03*
X189618000Y-103650500D03*
X192158000Y-78250500D03*
X192158000Y-103650500D03*
X194698000Y-78250500D03*
X194698000Y-103650500D03*
X197238000Y-78250500D03*
X197238000Y-103650500D03*
X199778000Y-78250500D03*
X199778000Y-103650500D03*
X202318000Y-78250500D03*
X202318000Y-103650500D03*
X204858000Y-78250500D03*
X204858000Y-103650500D03*
X207398000Y-78250500D03*
X207398000Y-103650500D03*
X209938000Y-78250500D03*
X209938000Y-103650500D03*
X212478000Y-78250500D03*
X212478000Y-103650500D03*
X215018000Y-78250500D03*
X215018000Y-103650500D03*
X217558000Y-78250500D03*
X217558000Y-103650500D03*
X220098000Y-78250500D03*
X220098000Y-103650500D03*
X222638000Y-78250500D03*
X222638000Y-103650500D03*
X225178000Y-78250500D03*
X225178000Y-103650500D03*
X227718000Y-78250500D03*
X227718000Y-103650500D03*
X230258000Y-78250500D03*
X230258000Y-103650500D03*
M02*
