%TF.GenerationSoftware,KiCad,Pcbnew,9.0.4*%
%TF.CreationDate,2026-03-06T19:29:05-05:00*%
%TF.ProjectId,Hand_System_Rev_1,48616e64-5f53-4797-9374-656d5f526576,rev?*%
%TF.SameCoordinates,Original*%
%TF.FileFunction,Soldermask,Bot*%
%TF.FilePolarity,Negative*%
%FSLAX46Y46*%
G04 Gerber Fmt 4.6, Leading zero omitted, Abs format (unit mm)*
G04 Created by KiCad (PCBNEW 9.0.4) date 2026-03-06 19:29:05*
%MOMM*%
%LPD*%
G01*
G04 APERTURE LIST*
G04 Aperture macros list*
%AMRoundRect*
0 Rectangle with rounded corners*
0 $1 Rounding radius*
0 $2 $3 $4 $5 $6 $7 $8 $9 X,Y pos of 4 corners*
0 Add a 4 corners polygon primitive as box body*
4,1,4,$2,$3,$4,$5,$6,$7,$8,$9,$2,$3,0*
0 Add four circle primitives for the rounded corners*
1,1,$1+$1,$2,$3*
1,1,$1+$1,$4,$5*
1,1,$1+$1,$6,$7*
1,1,$1+$1,$8,$9*
0 Add four rect primitives between the rounded corners*
20,1,$1+$1,$2,$3,$4,$5,0*
20,1,$1+$1,$4,$5,$6,$7,0*
20,1,$1+$1,$6,$7,$8,$9,0*
20,1,$1+$1,$8,$9,$2,$3,0*%
G04 Aperture macros list end*
%ADD10C,4.300000*%
%ADD11R,1.700000X1.700000*%
%ADD12C,1.700000*%
%ADD13R,2.020000X5.020000*%
%ADD14O,2.020000X5.020000*%
%ADD15R,1.600000X1.600000*%
%ADD16O,1.600000X1.600000*%
%ADD17RoundRect,0.102000X-0.765000X0.765000X-0.765000X-0.765000X0.765000X-0.765000X0.765000X0.765000X0*%
%ADD18C,1.734000*%
%ADD19R,2.540000X2.540000*%
%ADD20C,2.540000*%
G04 APERTURE END LIST*
D10*
%TO.C,H2*%
X93472000Y-35659236D03*
%TD*%
D11*
%TO.C,M11*%
X227457000Y-117856000D03*
D12*
X227457000Y-115316000D03*
X227457000Y-112776000D03*
%TD*%
D10*
%TO.C,H1*%
X234188000Y-35687000D03*
%TD*%
D13*
%TO.C,J1*%
X105150000Y-90932000D03*
D14*
X99970000Y-90932000D03*
%TD*%
D15*
%TO.C,U3*%
X153426000Y-105664000D03*
D16*
X153426000Y-108204000D03*
X153426000Y-110744000D03*
X153426000Y-113284000D03*
X153426000Y-115824000D03*
X153426000Y-118364000D03*
X153426000Y-120904000D03*
X153426000Y-123444000D03*
X166126000Y-123444000D03*
X166126000Y-120904000D03*
X166126000Y-118364000D03*
X166126000Y-115824000D03*
X166126000Y-113284000D03*
X166126000Y-110744000D03*
X166126000Y-108204000D03*
X166126000Y-105664000D03*
%TD*%
D11*
%TO.C,U4*%
X194564000Y-73660000D03*
D12*
X197104000Y-73660000D03*
X199644000Y-73660000D03*
X202184000Y-73660000D03*
%TD*%
D10*
%TO.C,H3*%
X234188000Y-135128000D03*
%TD*%
D11*
%TO.C,M4*%
X208407000Y-117856000D03*
D12*
X208407000Y-115316000D03*
X208407000Y-112776000D03*
%TD*%
D11*
%TO.C,M10*%
X215265000Y-117856000D03*
D12*
X215265000Y-115316000D03*
X215265000Y-112776000D03*
%TD*%
D11*
%TO.C,M6*%
X233045000Y-117856000D03*
D12*
X233045000Y-115316000D03*
X233045000Y-112776000D03*
%TD*%
D10*
%TO.C,H4*%
X93470846Y-135001000D03*
%TD*%
D17*
%TO.C,U1*%
X230258000Y-78250500D03*
D18*
X227718000Y-78250500D03*
X225178000Y-78250500D03*
X222638000Y-78250500D03*
X220098000Y-78250500D03*
X217558000Y-78250500D03*
X215018000Y-78250500D03*
X212478000Y-78250500D03*
X209938000Y-78250500D03*
X207398000Y-78250500D03*
X204858000Y-78250500D03*
X202318000Y-78250500D03*
X199778000Y-78250500D03*
X197238000Y-78250500D03*
X194698000Y-78250500D03*
X192158000Y-78250500D03*
X189618000Y-78250500D03*
X187078000Y-78250500D03*
X184538000Y-78250500D03*
X184538000Y-103650500D03*
X187078000Y-103650500D03*
X189618000Y-103650500D03*
X192158000Y-103650500D03*
X194698000Y-103650500D03*
X197238000Y-103650500D03*
X199778000Y-103650500D03*
X202318000Y-103650500D03*
X204858000Y-103650500D03*
X207398000Y-103650500D03*
X209938000Y-103650500D03*
X212478000Y-103650500D03*
X215018000Y-103650500D03*
X217558000Y-103650500D03*
X220098000Y-103650500D03*
X222638000Y-103650500D03*
X225178000Y-103650500D03*
X227718000Y-103650500D03*
X230258000Y-103650500D03*
%TD*%
D11*
%TO.C,M2*%
X183515000Y-117856000D03*
D12*
X183515000Y-115316000D03*
X183515000Y-112776000D03*
%TD*%
D11*
%TO.C,M5*%
X220853000Y-117856000D03*
D12*
X220853000Y-115316000D03*
X220853000Y-112776000D03*
%TD*%
D11*
%TO.C,M3*%
X195707000Y-117856000D03*
D12*
X195707000Y-115316000D03*
X195707000Y-112776000D03*
%TD*%
D19*
%TO.C,U5*%
X177800000Y-36830000D03*
D20*
X177800000Y-54610000D03*
X218440000Y-54610000D03*
X218440000Y-36830000D03*
%TD*%
D11*
%TO.C,M9*%
X202819000Y-117856000D03*
D12*
X202819000Y-115316000D03*
X202819000Y-112776000D03*
%TD*%
D19*
%TO.C,U2*%
X100584000Y-36322000D03*
D20*
X100584000Y-54102000D03*
X141224000Y-54102000D03*
X141224000Y-36322000D03*
%TD*%
D11*
%TO.C,M8*%
X190119000Y-117856000D03*
D12*
X190119000Y-115316000D03*
X190119000Y-112776000D03*
%TD*%
D11*
%TO.C,M1*%
X178181000Y-117856000D03*
D12*
X178181000Y-115316000D03*
X178181000Y-112776000D03*
%TD*%
D11*
%TO.C,M7*%
X148082000Y-118872000D03*
D12*
X148082000Y-116332000D03*
X148082000Y-113792000D03*
X148082000Y-111252000D03*
%TD*%
D19*
%TO.C,U6*%
X92710000Y-106426000D03*
D20*
X92710000Y-124206000D03*
X133350000Y-124206000D03*
X133350000Y-106426000D03*
%TD*%
M02*
