%TF.GenerationSoftware,KiCad,Pcbnew,9.0.4*%
%TF.CreationDate,2026-03-06T19:29:04-05:00*%
%TF.ProjectId,Hand_System_Rev_1,48616e64-5f53-4797-9374-656d5f526576,rev?*%
%TF.SameCoordinates,Original*%
%TF.FileFunction,Copper,L3,Inr*%
%TF.FilePolarity,Positive*%
%FSLAX46Y46*%
G04 Gerber Fmt 4.6, Leading zero omitted, Abs format (unit mm)*
G04 Created by KiCad (PCBNEW 9.0.4) date 2026-03-06 19:29:04*
%MOMM*%
%LPD*%
G01*
G04 APERTURE LIST*
%TA.AperFunction,ComponentPad*%
%ADD10R,1.700000X1.700000*%
%TD*%
%TA.AperFunction,ComponentPad*%
%ADD11C,1.700000*%
%TD*%
%TA.AperFunction,ComponentPad*%
%ADD12R,2.020000X5.020000*%
%TD*%
%TA.AperFunction,ComponentPad*%
%ADD13O,2.020000X5.020000*%
%TD*%
%TA.AperFunction,ComponentPad*%
%ADD14R,1.600000X1.600000*%
%TD*%
%TA.AperFunction,ComponentPad*%
%ADD15O,1.600000X1.600000*%
%TD*%
%TA.AperFunction,ComponentPad*%
%ADD16R,1.530000X1.530000*%
%TD*%
%TA.AperFunction,ComponentPad*%
%ADD17C,1.530000*%
%TD*%
%TA.AperFunction,ComponentPad*%
%ADD18R,2.540000X2.540000*%
%TD*%
%TA.AperFunction,ComponentPad*%
%ADD19C,2.540000*%
%TD*%
%TA.AperFunction,Conductor*%
%ADD20C,0.200000*%
%TD*%
G04 APERTURE END LIST*
D10*
%TO.N,Net-(M11-PWM)*%
%TO.C,M11*%
X227457000Y-117856000D03*
D11*
%TO.N,MOTOR_P*%
X227457000Y-115316000D03*
%TO.N,/PINKIE_1*%
X227457000Y-112776000D03*
%TD*%
D12*
%TO.N,15V*%
%TO.C,J1*%
X105150000Y-90932000D03*
D13*
%TO.N,GND*%
X99970000Y-90932000D03*
%TD*%
D14*
%TO.N,GND*%
%TO.C,U3*%
X153426000Y-105664000D03*
D15*
%TO.N,5V*%
X153426000Y-108204000D03*
%TO.N,Net-(U3-1B)*%
X153426000Y-110744000D03*
%TO.N,Net-(U3-1A)*%
X153426000Y-113284000D03*
%TO.N,Net-(M7--)*%
X153426000Y-115824000D03*
%TO.N,Net-(U3-2B)*%
X153426000Y-118364000D03*
%TO.N,GND*%
X153426000Y-120904000D03*
%TO.N,STP_P*%
X153426000Y-123444000D03*
%TO.N,GND*%
X166126000Y-123444000D03*
%TO.N,unconnected-(U3-MS1-Pad10)*%
X166126000Y-120904000D03*
%TO.N,unconnected-(U3-MS2-Pad11)*%
X166126000Y-118364000D03*
%TO.N,unconnected-(U3-MS3-Pad12)*%
X166126000Y-115824000D03*
%TO.N,unconnected-(U3-~{RESET}-Pad13)*%
X166126000Y-113284000D03*
%TO.N,unconnected-(U3-~{SLEEP}-Pad14)*%
X166126000Y-110744000D03*
%TO.N,/STEP_PIN*%
X166126000Y-108204000D03*
%TO.N,/DIR_PIN*%
X166126000Y-105664000D03*
%TD*%
D10*
%TO.N,5V*%
%TO.C,U4*%
X194564000Y-73660000D03*
D11*
%TO.N,GND*%
X197104000Y-73660000D03*
%TO.N,/CW*%
X199644000Y-73660000D03*
%TO.N,/DT*%
X202184000Y-73660000D03*
%TD*%
D10*
%TO.N,Net-(M4--)*%
%TO.C,M4*%
X208407000Y-117856000D03*
D11*
%TO.N,MOTOR_P*%
X208407000Y-115316000D03*
%TO.N,/MIDDLE_2*%
X208407000Y-112776000D03*
%TD*%
D10*
%TO.N,Net-(M10-PWM)*%
%TO.C,M10*%
X215265000Y-117856000D03*
D11*
%TO.N,MOTOR_P*%
X215265000Y-115316000D03*
%TO.N,/RING_1*%
X215265000Y-112776000D03*
%TD*%
D10*
%TO.N,Net-(M6--)*%
%TO.C,M6*%
X233045000Y-117856000D03*
D11*
%TO.N,MOTOR_P*%
X233045000Y-115316000D03*
%TO.N,/PINKIE_2*%
X233045000Y-112776000D03*
%TD*%
D16*
%TO.N,3.3V*%
%TO.C,U1*%
X230258000Y-78250500D03*
D17*
%TO.N,unconnected-(U1-EN-Pad2)*%
X227718000Y-78250500D03*
%TO.N,unconnected-(U1-VP-Pad3)*%
X225178000Y-78250500D03*
%TO.N,unconnected-(U1-VN-Pad4)*%
X222638000Y-78250500D03*
%TO.N,unconnected-(U1-34-Pad5)*%
X220098000Y-78250500D03*
%TO.N,unconnected-(U1-35-Pad6)*%
X217558000Y-78250500D03*
%TO.N,unconnected-(U1-32-Pad7)*%
X215018000Y-78250500D03*
%TO.N,unconnected-(U1-33-Pad8)*%
X212478000Y-78250500D03*
%TO.N,unconnected-(U1-25-Pad9)*%
X209938000Y-78250500D03*
%TO.N,unconnected-(U1-26-Pad10)*%
X207398000Y-78250500D03*
%TO.N,unconnected-(U1-27-Pad11)*%
X204858000Y-78250500D03*
%TO.N,/DT*%
X202318000Y-78250500D03*
%TO.N,/CW*%
X199778000Y-78250500D03*
%TO.N,GND*%
X197238000Y-78250500D03*
%TO.N,/STP_VG*%
X194698000Y-78250500D03*
%TO.N,/SERVO_VG*%
X192158000Y-78250500D03*
%TO.N,unconnected-(U1-D3-Pad17)*%
X189618000Y-78250500D03*
%TO.N,unconnected-(U1-CMD-Pad18)*%
X187078000Y-78250500D03*
%TO.N,5V*%
X184538000Y-78250500D03*
%TO.N,GND*%
X184538000Y-103650500D03*
%TO.N,/DIR_PIN*%
X187078000Y-103650500D03*
%TO.N,/STEP_PIN*%
X189618000Y-103650500D03*
%TO.N,/THUMB_1*%
X192158000Y-103650500D03*
%TO.N,/THUMB_2*%
X194698000Y-103650500D03*
%TO.N,/INDEX_1*%
X197238000Y-103650500D03*
%TO.N,GND*%
X199778000Y-103650500D03*
%TO.N,/INDEX_2*%
X202318000Y-103650500D03*
%TO.N,/MIDDLE_1*%
X204858000Y-103650500D03*
%TO.N,/MIDDLE_2*%
X207398000Y-103650500D03*
%TO.N,/RING_1*%
X209938000Y-103650500D03*
%TO.N,/RING_2*%
X212478000Y-103650500D03*
%TO.N,/PINKIE_1*%
X215018000Y-103650500D03*
%TO.N,/PINKIE_2*%
X217558000Y-103650500D03*
%TO.N,unconnected-(U1-2-Pad34)*%
X220098000Y-103650500D03*
%TO.N,unconnected-(U1-15-Pad35)*%
X222638000Y-103650500D03*
%TO.N,unconnected-(U1-D1-Pad36)*%
X225178000Y-103650500D03*
%TO.N,unconnected-(U1-D0-Pad37)*%
X227718000Y-103650500D03*
%TO.N,unconnected-(U1-CLK-Pad38)*%
X230258000Y-103650500D03*
%TD*%
D10*
%TO.N,Net-(M2--)*%
%TO.C,M2*%
X183515000Y-117856000D03*
D11*
%TO.N,MOTOR_P*%
X183515000Y-115316000D03*
%TO.N,/THUMB_2*%
X183515000Y-112776000D03*
%TD*%
D10*
%TO.N,Net-(M5--)*%
%TO.C,M5*%
X220853000Y-117856000D03*
D11*
%TO.N,MOTOR_P*%
X220853000Y-115316000D03*
%TO.N,/RING_2*%
X220853000Y-112776000D03*
%TD*%
D10*
%TO.N,Net-(M3--)*%
%TO.C,M3*%
X195707000Y-117856000D03*
D11*
%TO.N,MOTOR_P*%
X195707000Y-115316000D03*
%TO.N,/INDEX_2*%
X195707000Y-112776000D03*
%TD*%
D18*
%TO.N,12V*%
%TO.C,U5*%
X177800000Y-36830000D03*
D19*
%TO.N,GND*%
X177800000Y-54610000D03*
X218440000Y-54610000D03*
%TO.N,7.2V*%
X218440000Y-36830000D03*
%TD*%
D10*
%TO.N,Net-(M9-PWM)*%
%TO.C,M9*%
X202819000Y-117856000D03*
D11*
%TO.N,MOTOR_P*%
X202819000Y-115316000D03*
%TO.N,/MIDDLE_1*%
X202819000Y-112776000D03*
%TD*%
D18*
%TO.N,15V*%
%TO.C,U2*%
X100584000Y-36322000D03*
D19*
%TO.N,GND*%
X100584000Y-54102000D03*
X141224000Y-54102000D03*
%TO.N,12V*%
X141224000Y-36322000D03*
%TD*%
D10*
%TO.N,Net-(M8-PWM)*%
%TO.C,M8*%
X190119000Y-117856000D03*
D11*
%TO.N,MOTOR_P*%
X190119000Y-115316000D03*
%TO.N,/INDEX_1*%
X190119000Y-112776000D03*
%TD*%
D10*
%TO.N,Net-(M1--)*%
%TO.C,M1*%
X178181000Y-117856000D03*
D11*
%TO.N,MOTOR_P*%
X178181000Y-115316000D03*
%TO.N,/THUMB_1*%
X178181000Y-112776000D03*
%TD*%
D10*
%TO.N,Net-(U3-2B)*%
%TO.C,M7*%
X148082000Y-118872000D03*
D11*
%TO.N,Net-(M7--)*%
X148082000Y-116332000D03*
%TO.N,Net-(U3-1A)*%
X148082000Y-113792000D03*
%TO.N,Net-(U3-1B)*%
X148082000Y-111252000D03*
%TD*%
D18*
%TO.N,7.2V*%
%TO.C,U6*%
X92710000Y-106426000D03*
D19*
%TO.N,GND*%
X92710000Y-124206000D03*
X133350000Y-124206000D03*
%TO.N,5V*%
X133350000Y-106426000D03*
%TD*%
D20*
%TO.N,7.2V*%
X94180000Y-106426000D02*
X92710000Y-106426000D01*
X112468000Y-88138000D02*
X94180000Y-106426000D01*
X167132000Y-88138000D02*
X112468000Y-88138000D01*
X218440000Y-36830000D02*
X167132000Y-88138000D01*
%TO.N,5V*%
X189128500Y-73660000D02*
X194564000Y-73660000D01*
X184538000Y-78250500D02*
X189128500Y-73660000D01*
X184538000Y-82416000D02*
X184538000Y-78250500D01*
X153426000Y-108204000D02*
X158750000Y-108204000D01*
X158750000Y-108204000D02*
X184538000Y-82416000D01*
X151648000Y-106426000D02*
X153426000Y-108204000D01*
X133350000Y-106426000D02*
X151648000Y-106426000D01*
%TD*%
M02*
