%TF.GenerationSoftware,KiCad,Pcbnew,9.0.4*%
%TF.CreationDate,2025-11-20T23:01:34-05:00*%
%TF.ProjectId,Hand_System_Rev_1,48616e64-5f53-4797-9374-656d5f526576,rev?*%
%TF.SameCoordinates,Original*%
%TF.FileFunction,Copper,L2,Bot*%
%TF.FilePolarity,Positive*%
%FSLAX46Y46*%
G04 Gerber Fmt 4.6, Leading zero omitted, Abs format (unit mm)*
G04 Created by KiCad (PCBNEW 9.0.4) date 2025-11-20 23:01:34*
%MOMM*%
%LPD*%
G01*
G04 APERTURE LIST*
G04 Aperture macros list*
%AMRoundRect*
0 Rectangle with rounded corners*
0 $1 Rounding radius*
0 $2 $3 $4 $5 $6 $7 $8 $9 X,Y pos of 4 corners*
0 Add a 4 corners polygon primitive as box body*
4,1,4,$2,$3,$4,$5,$6,$7,$8,$9,$2,$3,0*
0 Add four circle primitives for the rounded corners*
1,1,$1+$1,$2,$3*
1,1,$1+$1,$4,$5*
1,1,$1+$1,$6,$7*
1,1,$1+$1,$8,$9*
0 Add four rect primitives between the rounded corners*
20,1,$1+$1,$2,$3,$4,$5,0*
20,1,$1+$1,$4,$5,$6,$7,0*
20,1,$1+$1,$6,$7,$8,$9,0*
20,1,$1+$1,$8,$9,$2,$3,0*%
G04 Aperture macros list end*
%TA.AperFunction,ComponentPad*%
%ADD10R,1.700000X1.700000*%
%TD*%
%TA.AperFunction,ComponentPad*%
%ADD11C,1.700000*%
%TD*%
%TA.AperFunction,ComponentPad*%
%ADD12R,2.020000X5.020000*%
%TD*%
%TA.AperFunction,ComponentPad*%
%ADD13O,2.020000X5.020000*%
%TD*%
%TA.AperFunction,ComponentPad*%
%ADD14R,1.600000X1.600000*%
%TD*%
%TA.AperFunction,ComponentPad*%
%ADD15O,1.600000X1.600000*%
%TD*%
%TA.AperFunction,ComponentPad*%
%ADD16RoundRect,0.250000X-0.250000X0.250000X-0.250000X-0.250000X0.250000X-0.250000X0.250000X0.250000X0*%
%TD*%
%TA.AperFunction,ComponentPad*%
%ADD17C,1.000000*%
%TD*%
%TA.AperFunction,ComponentPad*%
%ADD18R,1.530000X1.530000*%
%TD*%
%TA.AperFunction,ComponentPad*%
%ADD19C,1.530000*%
%TD*%
%TA.AperFunction,ComponentPad*%
%ADD20R,2.540000X2.540000*%
%TD*%
%TA.AperFunction,ComponentPad*%
%ADD21C,2.540000*%
%TD*%
%TA.AperFunction,ViaPad*%
%ADD22C,0.600000*%
%TD*%
%TA.AperFunction,Conductor*%
%ADD23C,0.200000*%
%TD*%
%TA.AperFunction,Conductor*%
%ADD24C,0.250000*%
%TD*%
%TA.AperFunction,Conductor*%
%ADD25C,0.100000*%
%TD*%
G04 APERTURE END LIST*
D10*
%TO.P,M5,1,-*%
%TO.N,Net-(M5--)*%
X151765000Y-57785000D03*
D11*
%TO.P,M5,2,+*%
%TO.N,7.2V*%
X151765000Y-60325000D03*
%TO.P,M5,3,PWM*%
%TO.N,/RING*%
X151765000Y-62865000D03*
%TD*%
D10*
%TO.P,M4,1,-*%
%TO.N,Net-(M4--)*%
X159385000Y-57785000D03*
D11*
%TO.P,M4,2,+*%
%TO.N,7.2V*%
X159385000Y-60325000D03*
%TO.P,M4,3,PWM*%
%TO.N,/MIDDLE*%
X159385000Y-62865000D03*
%TD*%
D10*
%TO.P,U4,1,VCC*%
%TO.N,5V*%
X184992000Y-107524000D03*
D11*
%TO.P,U4,2,GND*%
%TO.N,GND*%
X187532000Y-107524000D03*
%TO.P,U4,3,CW*%
%TO.N,/CW*%
X190072000Y-107524000D03*
%TO.P,U4,4,DT*%
%TO.N,/DT*%
X192612000Y-107524000D03*
%TD*%
D12*
%TO.P,J1,1*%
%TO.N,12V*%
X111468000Y-99020000D03*
D13*
%TO.P,J1,2*%
%TO.N,GND*%
X106288000Y-99020000D03*
%TD*%
D14*
%TO.P,U3,1,GND*%
%TO.N,GND*%
X133684000Y-106000000D03*
D15*
%TO.P,U3,2,VDD*%
%TO.N,5V*%
X133684000Y-108540000D03*
%TO.P,U3,3,1B*%
%TO.N,Net-(U3-1B)*%
X133684000Y-111080000D03*
%TO.P,U3,4,1A*%
%TO.N,Net-(U3-1A)*%
X133684000Y-113620000D03*
%TO.P,U3,5,2A*%
%TO.N,Net-(M7--)*%
X133684000Y-116160000D03*
%TO.P,U3,6,2B*%
%TO.N,Net-(U3-2B)*%
X133684000Y-118700000D03*
%TO.P,U3,7,GND*%
%TO.N,GND*%
X133684000Y-121240000D03*
%TO.P,U3,8,VMOT*%
%TO.N,12V*%
X133684000Y-123780000D03*
%TO.P,U3,9,~{ENABLE}*%
%TO.N,GND*%
X146384000Y-123780000D03*
%TO.P,U3,10,MS1*%
%TO.N,unconnected-(U3-MS1-Pad10)*%
X146384000Y-121240000D03*
%TO.P,U3,11,MS2*%
%TO.N,unconnected-(U3-MS2-Pad11)*%
X146384000Y-118700000D03*
%TO.P,U3,12,MS3*%
%TO.N,unconnected-(U3-MS3-Pad12)*%
X146384000Y-116160000D03*
%TO.P,U3,13,~{RESET}*%
%TO.N,unconnected-(U3-~{RESET}-Pad13)*%
X146384000Y-113620000D03*
%TO.P,U3,14,~{SLEEP}*%
%TO.N,unconnected-(U3-~{SLEEP}-Pad14)*%
X146384000Y-111080000D03*
%TO.P,U3,15,STEP*%
%TO.N,/STEP_PIN*%
X146384000Y-108540000D03*
%TO.P,U3,16,DIR*%
%TO.N,/DIR_PIN*%
X146384000Y-106000000D03*
%TD*%
D10*
%TO.P,M3,1,-*%
%TO.N,Net-(M3--)*%
X167005000Y-57785000D03*
D11*
%TO.P,M3,2,+*%
%TO.N,7.2V*%
X167005000Y-60325000D03*
%TO.P,M3,3,PWM*%
%TO.N,/INDEX*%
X167005000Y-62865000D03*
%TD*%
D10*
%TO.P,M7,1*%
%TO.N,Net-(U3-2B)*%
X125556000Y-118700000D03*
D11*
%TO.P,M7,2,-*%
%TO.N,Net-(M7--)*%
X125556000Y-116160000D03*
%TO.P,M7,3*%
%TO.N,Net-(U3-1A)*%
X125556000Y-113620000D03*
%TO.P,M7,4*%
%TO.N,Net-(U3-1B)*%
X125556000Y-111080000D03*
%TD*%
D10*
%TO.P,M1,1,-*%
%TO.N,Net-(M1--)*%
X187325000Y-57785000D03*
D11*
%TO.P,M1,2,+*%
%TO.N,7.2V*%
X187325000Y-60325000D03*
%TO.P,M1,3,PWM*%
%TO.N,/THUMB_1*%
X187325000Y-62865000D03*
%TD*%
D16*
%TO.P,MK1,1,-*%
%TO.N,GND*%
X195406000Y-113620000D03*
D17*
%TO.P,MK1,2,+*%
%TO.N,Net-(MK1-+)*%
X195406000Y-115520000D03*
%TD*%
D10*
%TO.P,M2,1,-*%
%TO.N,Net-(M2--)*%
X180975000Y-57785000D03*
D11*
%TO.P,M2,2,+*%
%TO.N,7.2V*%
X180975000Y-60325000D03*
%TO.P,M2,3,PWM*%
%TO.N,/THUMB_2*%
X180975000Y-62865000D03*
%TD*%
D10*
%TO.P,M6,1,-*%
%TO.N,Net-(M6--)*%
X174625000Y-57785000D03*
D11*
%TO.P,M6,2,+*%
%TO.N,7.2V*%
X174625000Y-60325000D03*
%TO.P,M6,3,PWM*%
%TO.N,/PINKIE*%
X174625000Y-62865000D03*
%TD*%
D18*
%TO.P,U1,1,3V3*%
%TO.N,3.3V*%
X192104000Y-75774000D03*
D19*
%TO.P,U1,2,EN*%
%TO.N,unconnected-(U1-EN-Pad2)*%
X189564000Y-75774000D03*
%TO.P,U1,3,VP*%
%TO.N,unconnected-(U1-VP-Pad3)*%
X187024000Y-75774000D03*
%TO.P,U1,4,VN*%
%TO.N,unconnected-(U1-VN-Pad4)*%
X184484000Y-75774000D03*
%TO.P,U1,5,34*%
%TO.N,/THUMB_1*%
X181944000Y-75774000D03*
%TO.P,U1,6,35*%
%TO.N,/THUMB_2*%
X179404000Y-75774000D03*
%TO.P,U1,7,32*%
%TO.N,/PINKIE*%
X176864000Y-75774000D03*
%TO.P,U1,8,33*%
%TO.N,unconnected-(U1-33-Pad8)*%
X174324000Y-75774000D03*
%TO.P,U1,9,25*%
%TO.N,/INDEX*%
X171784000Y-75774000D03*
%TO.P,U1,10,26*%
%TO.N,/MIDDLE*%
X169244000Y-75774000D03*
%TO.P,U1,11,27*%
%TO.N,/RING*%
X166704000Y-75774000D03*
%TO.P,U1,12,14*%
%TO.N,unconnected-(U1-14-Pad12)*%
X164164000Y-75774000D03*
%TO.P,U1,13,12*%
%TO.N,unconnected-(U1-12-Pad13)*%
X161624000Y-75774000D03*
%TO.P,U1,14,GND*%
%TO.N,GND*%
X159084000Y-75774000D03*
%TO.P,U1,15,13*%
%TO.N,unconnected-(U1-13-Pad15)*%
X156544000Y-75774000D03*
%TO.P,U1,16,D2*%
%TO.N,unconnected-(U1-D2-Pad16)*%
X154004000Y-75774000D03*
%TO.P,U1,17,D3*%
%TO.N,unconnected-(U1-D3-Pad17)*%
X151464000Y-75774000D03*
%TO.P,U1,18,CMD*%
%TO.N,unconnected-(U1-CMD-Pad18)*%
X148924000Y-75774000D03*
%TO.P,U1,19,5V*%
%TO.N,5V*%
X146384000Y-75774000D03*
%TO.P,U1,20,GND__1*%
%TO.N,GND*%
X146384000Y-101174000D03*
%TO.P,U1,21,23*%
%TO.N,/DIR_PIN*%
X148924000Y-101174000D03*
%TO.P,U1,22,22*%
%TO.N,/STEP_PIN*%
X151464000Y-101174000D03*
%TO.P,U1,23,TX*%
%TO.N,unconnected-(U1-TX-Pad23)*%
X154004000Y-101174000D03*
%TO.P,U1,24,RX*%
%TO.N,unconnected-(U1-RX-Pad24)*%
X156544000Y-101174000D03*
%TO.P,U1,25,21*%
%TO.N,/MP_OUT*%
X159084000Y-101174000D03*
%TO.P,U1,26,GND__2*%
%TO.N,GND*%
X161624000Y-101174000D03*
%TO.P,U1,27,19*%
%TO.N,unconnected-(U1-19-Pad27)*%
X164164000Y-101174000D03*
%TO.P,U1,28,18*%
%TO.N,unconnected-(U1-18-Pad28)*%
X166704000Y-101174000D03*
%TO.P,U1,29,5*%
%TO.N,unconnected-(U1-5-Pad29)*%
X169244000Y-101174000D03*
%TO.P,U1,30,17*%
%TO.N,unconnected-(U1-17-Pad30)*%
X171784000Y-101174000D03*
%TO.P,U1,31,16*%
%TO.N,unconnected-(U1-16-Pad31)*%
X174324000Y-101174000D03*
%TO.P,U1,32,4*%
%TO.N,unconnected-(U1-4-Pad32)*%
X176864000Y-101174000D03*
%TO.P,U1,33,0*%
%TO.N,unconnected-(U1-0-Pad33)*%
X179404000Y-101174000D03*
%TO.P,U1,34,2*%
%TO.N,unconnected-(U1-2-Pad34)*%
X181944000Y-101174000D03*
%TO.P,U1,35,15*%
%TO.N,unconnected-(U1-15-Pad35)*%
X184484000Y-101174000D03*
%TO.P,U1,36,D1*%
%TO.N,/CW*%
X187024000Y-101174000D03*
%TO.P,U1,37,D0*%
%TO.N,/DT*%
X189564000Y-101174000D03*
%TO.P,U1,38,CLK*%
%TO.N,unconnected-(U1-CLK-Pad38)*%
X192104000Y-101174000D03*
%TD*%
D20*
%TO.P,U2,1,Vin*%
%TO.N,12V*%
X99950000Y-66270000D03*
D21*
%TO.P,U2,2,GND*%
%TO.N,GND*%
X99950000Y-84050000D03*
%TO.P,U2,3,GND*%
X140590000Y-84050000D03*
%TO.P,U2,4,Vout*%
%TO.N,7.2V*%
X140590000Y-66270000D03*
%TD*%
D22*
%TO.N,3.3V*%
X178134000Y-108540000D03*
X173816000Y-122600000D03*
%TO.N,/MP_OUT*%
X171784000Y-115398000D03*
%TD*%
D23*
%TO.N,3.3V*%
X173816000Y-122002000D02*
X178134000Y-117684000D01*
X178134000Y-117684000D02*
X178134000Y-108540000D01*
X173816000Y-122600000D02*
X173816000Y-122002000D01*
%TO.N,GND*%
X140542000Y-83648000D02*
X140542000Y-95332000D01*
X134785000Y-107101000D02*
X133684000Y-106000000D01*
X133684000Y-121240000D02*
X134785000Y-120139000D01*
X134785000Y-120139000D02*
X134785000Y-107101000D01*
X159084000Y-75774000D02*
X151210000Y-83648000D01*
X140542000Y-95332000D02*
X146384000Y-101174000D01*
X146384000Y-123780000D02*
X136224000Y-123780000D01*
X136224000Y-123780000D02*
X133684000Y-121240000D01*
D24*
X106238000Y-89984000D02*
X99902000Y-83648000D01*
D23*
X146384000Y-101174000D02*
X138510000Y-101174000D01*
X106288000Y-99020000D02*
X106288000Y-94420000D01*
X106288000Y-94420000D02*
X106238000Y-94370000D01*
X151210000Y-83648000D02*
X140542000Y-83648000D01*
D24*
X106238000Y-94370000D02*
X106238000Y-89984000D01*
D23*
X138510000Y-101174000D02*
X133684000Y-106000000D01*
D25*
%TO.N,/MP_OUT*%
X171784000Y-115398000D02*
X159084000Y-102698000D01*
X159084000Y-102698000D02*
X159084000Y-101174000D01*
%TD*%
%TA.AperFunction,Conductor*%
%TO.N,GND*%
G36*
X196651933Y-47001743D02*
G01*
X197202666Y-47028401D01*
X197210408Y-47029021D01*
X197757662Y-47090283D01*
X197765369Y-47091393D01*
X198265215Y-47179563D01*
X198307660Y-47187050D01*
X198315321Y-47188652D01*
X198850483Y-47318320D01*
X198858010Y-47320397D01*
X199383914Y-47483557D01*
X199391308Y-47486109D01*
X199905898Y-47682124D01*
X199913100Y-47685131D01*
X200272832Y-47848835D01*
X200414287Y-47913207D01*
X200421301Y-47916670D01*
X200907113Y-48175907D01*
X200913877Y-48179796D01*
X201382361Y-48469155D01*
X201388886Y-48473475D01*
X201838186Y-48791806D01*
X201844425Y-48796529D01*
X202272744Y-49142560D01*
X202278673Y-49147667D01*
X202684327Y-49520037D01*
X202689921Y-49525508D01*
X203071262Y-49922704D01*
X203076499Y-49928515D01*
X203193048Y-50066349D01*
X203432047Y-50348994D01*
X203436888Y-50355100D01*
X203765211Y-50797175D01*
X203769675Y-50803601D01*
X204069447Y-51265482D01*
X204073498Y-51272177D01*
X204343537Y-51752044D01*
X204347158Y-51758981D01*
X204586398Y-52254935D01*
X204589574Y-52262087D01*
X204797056Y-52772145D01*
X204799774Y-52779483D01*
X204974667Y-53301598D01*
X204976916Y-53309091D01*
X205061984Y-53628734D01*
X205118531Y-53841208D01*
X205120304Y-53848830D01*
X205228075Y-54388826D01*
X205229362Y-54396532D01*
X205301198Y-54929921D01*
X205302856Y-54942231D01*
X205303655Y-54950015D01*
X205342726Y-55501266D01*
X205342865Y-55503240D01*
X205343826Y-55527703D01*
X205344676Y-55528781D01*
X205344784Y-55530302D01*
X205344944Y-55530736D01*
X205352401Y-55566557D01*
X205370139Y-55876431D01*
X205370342Y-55883517D01*
X205370342Y-127046001D01*
X205370318Y-127048450D01*
X205355341Y-127806511D01*
X205354966Y-127825521D01*
X205354087Y-127826777D01*
X205354484Y-127849863D01*
X205354439Y-127852176D01*
X205354002Y-127874346D01*
X205354133Y-127875973D01*
X205346086Y-128405886D01*
X205345702Y-128413926D01*
X205301640Y-128962754D01*
X205300736Y-128970753D01*
X205221154Y-129515581D01*
X205219733Y-129523504D01*
X205104968Y-130062030D01*
X205103035Y-130069845D01*
X204953575Y-130599771D01*
X204951140Y-130607443D01*
X204767607Y-131126568D01*
X204764679Y-131134066D01*
X204547851Y-131640189D01*
X204544442Y-131647482D01*
X204295238Y-132138457D01*
X204291364Y-132145513D01*
X204010823Y-132619296D01*
X204006499Y-132626086D01*
X203695806Y-133080672D01*
X203691050Y-133087167D01*
X203351520Y-133520633D01*
X203346353Y-133526805D01*
X202979421Y-133937318D01*
X202973865Y-133943142D01*
X202581065Y-134328991D01*
X202575142Y-134334443D01*
X202158135Y-134693991D01*
X202151871Y-134699047D01*
X201712414Y-135030782D01*
X201705835Y-135035421D01*
X201245783Y-135337940D01*
X201238918Y-135342142D01*
X200760202Y-135614178D01*
X200753078Y-135617926D01*
X200257707Y-135858336D01*
X200250354Y-135861613D01*
X199740463Y-136069360D01*
X199732914Y-136072154D01*
X199210592Y-136246390D01*
X199202877Y-136248688D01*
X198670366Y-136388661D01*
X198662519Y-136390454D01*
X198122021Y-136495588D01*
X198114073Y-136496867D01*
X197574069Y-136565919D01*
X197558759Y-136566920D01*
X195869784Y-136572611D01*
X195869368Y-136572612D01*
X101747763Y-136574227D01*
X101743704Y-136574161D01*
X101169247Y-136555358D01*
X101161150Y-136554827D01*
X100591188Y-136498693D01*
X100583143Y-136497634D01*
X100018058Y-136404340D01*
X100010108Y-136402758D01*
X99617319Y-136311174D01*
X99452342Y-136272707D01*
X99444504Y-136270607D01*
X98896427Y-136104351D01*
X98888743Y-136101742D01*
X98352732Y-135900004D01*
X98345246Y-135896903D01*
X97823560Y-135660532D01*
X97816283Y-135656943D01*
X97311183Y-135386963D01*
X97304156Y-135382906D01*
X96817796Y-135080469D01*
X96811049Y-135075961D01*
X96345508Y-134742360D01*
X96339071Y-134737421D01*
X95896342Y-134374085D01*
X95890241Y-134368734D01*
X95472239Y-133977234D01*
X95466501Y-133971497D01*
X95439944Y-133943142D01*
X95074971Y-133553467D01*
X95069628Y-133547373D01*
X94706289Y-133104644D01*
X94701364Y-133098225D01*
X94367759Y-132632681D01*
X94363251Y-132625935D01*
X94064504Y-132145513D01*
X94060802Y-132139559D01*
X94056747Y-132132535D01*
X93967436Y-131965446D01*
X93786762Y-131627430D01*
X93783190Y-131620187D01*
X93592617Y-131199583D01*
X93546810Y-131098485D01*
X93543705Y-131090988D01*
X93341966Y-130554983D01*
X93339357Y-130547299D01*
X93240455Y-130221265D01*
X93173096Y-129999214D01*
X93170999Y-129991385D01*
X93170793Y-129990500D01*
X93040942Y-129433602D01*
X93039368Y-129425687D01*
X92946066Y-128860563D01*
X92945013Y-128852564D01*
X92888873Y-128282568D01*
X92888343Y-128274481D01*
X92879119Y-127992731D01*
X92869567Y-127700932D01*
X92869501Y-127696939D01*
X92869501Y-127673469D01*
X92869488Y-127673452D01*
X92869479Y-127655422D01*
X92869479Y-127654080D01*
X92869488Y-127654052D01*
X92869479Y-127654001D01*
X92869520Y-127455186D01*
X99279500Y-127455186D01*
X99279500Y-127724813D01*
X99309686Y-127992719D01*
X99309688Y-127992731D01*
X99369684Y-128255594D01*
X99369687Y-128255602D01*
X99458734Y-128510082D01*
X99575714Y-128752994D01*
X99575716Y-128752997D01*
X99719162Y-128981289D01*
X99887266Y-129192085D01*
X100077915Y-129382734D01*
X100288711Y-129550838D01*
X100517003Y-129694284D01*
X100759921Y-129811267D01*
X100951049Y-129878145D01*
X101014397Y-129900312D01*
X101014405Y-129900315D01*
X101014408Y-129900315D01*
X101014409Y-129900316D01*
X101277268Y-129960312D01*
X101545187Y-129990499D01*
X101545188Y-129990500D01*
X101545191Y-129990500D01*
X101814812Y-129990500D01*
X101814812Y-129990499D01*
X102082732Y-129960312D01*
X102345591Y-129900316D01*
X102600079Y-129811267D01*
X102842997Y-129694284D01*
X103071289Y-129550838D01*
X103282085Y-129382734D01*
X103472734Y-129192085D01*
X103640838Y-128981289D01*
X103784284Y-128752997D01*
X103901267Y-128510079D01*
X103990316Y-128255591D01*
X104050312Y-127992732D01*
X104050313Y-127992720D01*
X104050314Y-127992717D01*
X104064683Y-127865186D01*
X194349500Y-127865186D01*
X194349500Y-128134813D01*
X194379686Y-128402719D01*
X194379688Y-128402731D01*
X194439684Y-128665594D01*
X194439687Y-128665602D01*
X194528734Y-128920082D01*
X194645714Y-129162994D01*
X194645716Y-129162997D01*
X194789162Y-129391289D01*
X194957266Y-129602085D01*
X195147915Y-129792734D01*
X195358711Y-129960838D01*
X195587003Y-130104284D01*
X195829921Y-130221267D01*
X196021049Y-130288145D01*
X196084397Y-130310312D01*
X196084405Y-130310315D01*
X196084408Y-130310315D01*
X196084409Y-130310316D01*
X196347268Y-130370312D01*
X196615187Y-130400499D01*
X196615188Y-130400500D01*
X196615191Y-130400500D01*
X196884812Y-130400500D01*
X196884812Y-130400499D01*
X197152732Y-130370312D01*
X197415591Y-130310316D01*
X197670079Y-130221267D01*
X197912997Y-130104284D01*
X198141289Y-129960838D01*
X198352085Y-129792734D01*
X198542734Y-129602085D01*
X198710838Y-129391289D01*
X198854284Y-129162997D01*
X198971267Y-128920079D01*
X199060316Y-128665591D01*
X199120312Y-128402732D01*
X199150500Y-128134809D01*
X199150500Y-127865191D01*
X199120312Y-127597268D01*
X199060316Y-127334409D01*
X198971267Y-127079921D01*
X198854284Y-126837003D01*
X198710838Y-126608711D01*
X198542734Y-126397915D01*
X198352085Y-126207266D01*
X198341357Y-126198711D01*
X198298549Y-126164573D01*
X198141289Y-126039162D01*
X197912997Y-125895716D01*
X197912994Y-125895714D01*
X197670082Y-125778734D01*
X197415602Y-125689687D01*
X197415594Y-125689684D01*
X197218446Y-125644687D01*
X197152732Y-125629688D01*
X197152728Y-125629687D01*
X197152719Y-125629686D01*
X196884813Y-125599500D01*
X196884809Y-125599500D01*
X196615191Y-125599500D01*
X196615186Y-125599500D01*
X196347280Y-125629686D01*
X196347268Y-125629688D01*
X196084405Y-125689684D01*
X196084397Y-125689687D01*
X195829917Y-125778734D01*
X195587005Y-125895714D01*
X195358712Y-126039161D01*
X195147915Y-126207265D01*
X194957265Y-126397915D01*
X194789161Y-126608712D01*
X194645714Y-126837005D01*
X194528734Y-127079917D01*
X194439687Y-127334397D01*
X194439684Y-127334405D01*
X194379688Y-127597268D01*
X194379686Y-127597280D01*
X194349500Y-127865186D01*
X104064683Y-127865186D01*
X104066639Y-127847829D01*
X104066639Y-127847828D01*
X104071294Y-127806511D01*
X104080500Y-127724809D01*
X104080500Y-127455191D01*
X104050312Y-127187268D01*
X103990316Y-126924409D01*
X103901267Y-126669921D01*
X103784284Y-126427003D01*
X103640838Y-126198711D01*
X103472734Y-125987915D01*
X103282085Y-125797266D01*
X103071289Y-125629162D01*
X102842997Y-125485716D01*
X102842994Y-125485714D01*
X102600082Y-125368734D01*
X102345602Y-125279687D01*
X102345594Y-125279684D01*
X102148446Y-125234687D01*
X102082732Y-125219688D01*
X102082728Y-125219687D01*
X102082719Y-125219686D01*
X101814813Y-125189500D01*
X101814809Y-125189500D01*
X101545191Y-125189500D01*
X101545186Y-125189500D01*
X101277280Y-125219686D01*
X101277268Y-125219688D01*
X101014405Y-125279684D01*
X101014397Y-125279687D01*
X100759917Y-125368734D01*
X100517005Y-125485714D01*
X100288712Y-125629161D01*
X100077915Y-125797265D01*
X99887265Y-125987915D01*
X99719161Y-126198712D01*
X99575714Y-126427005D01*
X99458734Y-126669917D01*
X99369687Y-126924397D01*
X99369684Y-126924405D01*
X99309688Y-127187268D01*
X99309686Y-127187280D01*
X99279500Y-127455186D01*
X92869520Y-127455186D01*
X92872894Y-110973713D01*
X124205500Y-110973713D01*
X124205500Y-111186286D01*
X124238753Y-111396239D01*
X124304444Y-111598414D01*
X124400951Y-111787820D01*
X124525890Y-111959786D01*
X124676213Y-112110109D01*
X124848182Y-112235050D01*
X124856946Y-112239516D01*
X124907742Y-112287491D01*
X124924536Y-112355312D01*
X124901998Y-112421447D01*
X124856946Y-112460484D01*
X124848182Y-112464949D01*
X124676213Y-112589890D01*
X124525890Y-112740213D01*
X124400951Y-112912179D01*
X124304444Y-113101585D01*
X124238753Y-113303760D01*
X124229856Y-113359936D01*
X124205500Y-113513713D01*
X124205500Y-113726287D01*
X124238754Y-113936243D01*
X124266842Y-114022690D01*
X124304444Y-114138414D01*
X124400951Y-114327820D01*
X124525890Y-114499786D01*
X124676213Y-114650109D01*
X124848182Y-114775050D01*
X124856946Y-114779516D01*
X124907742Y-114827491D01*
X124924536Y-114895312D01*
X124901998Y-114961447D01*
X124856946Y-115000484D01*
X124848182Y-115004949D01*
X124676213Y-115129890D01*
X124525890Y-115280213D01*
X124400951Y-115452179D01*
X124304444Y-115641585D01*
X124238753Y-115843760D01*
X124205500Y-116053713D01*
X124205500Y-116266286D01*
X124227728Y-116406632D01*
X124238754Y-116476243D01*
X124240641Y-116482052D01*
X124304444Y-116678414D01*
X124400951Y-116867820D01*
X124525890Y-117039786D01*
X124639430Y-117153326D01*
X124672915Y-117214649D01*
X124667931Y-117284341D01*
X124626059Y-117340274D01*
X124595083Y-117357189D01*
X124463669Y-117406203D01*
X124463664Y-117406206D01*
X124348455Y-117492452D01*
X124348452Y-117492455D01*
X124262206Y-117607664D01*
X124262202Y-117607671D01*
X124211908Y-117742517D01*
X124205501Y-117802116D01*
X124205501Y-117802123D01*
X124205500Y-117802135D01*
X124205500Y-119597870D01*
X124205501Y-119597876D01*
X124211908Y-119657483D01*
X124262202Y-119792328D01*
X124262206Y-119792335D01*
X124348452Y-119907544D01*
X124348455Y-119907547D01*
X124463664Y-119993793D01*
X124463671Y-119993797D01*
X124598517Y-120044091D01*
X124598516Y-120044091D01*
X124605444Y-120044835D01*
X124658127Y-120050500D01*
X126453872Y-120050499D01*
X126513483Y-120044091D01*
X126648331Y-119993796D01*
X126763546Y-119907546D01*
X126849796Y-119792331D01*
X126900091Y-119657483D01*
X126906500Y-119597873D01*
X126906499Y-117802128D01*
X126900091Y-117742517D01*
X126887227Y-117708028D01*
X126849797Y-117607671D01*
X126849793Y-117607664D01*
X126763547Y-117492455D01*
X126763544Y-117492452D01*
X126648335Y-117406206D01*
X126648328Y-117406202D01*
X126516917Y-117357189D01*
X126460983Y-117315318D01*
X126436566Y-117249853D01*
X126451418Y-117181580D01*
X126472563Y-117153332D01*
X126586104Y-117039792D01*
X126711051Y-116867816D01*
X126807557Y-116678412D01*
X126873246Y-116476243D01*
X126906500Y-116266287D01*
X126906500Y-116053713D01*
X126873246Y-115843757D01*
X126807557Y-115641588D01*
X126711051Y-115452184D01*
X126711049Y-115452181D01*
X126711048Y-115452179D01*
X126586109Y-115280213D01*
X126435786Y-115129890D01*
X126263820Y-115004951D01*
X126263115Y-115004591D01*
X126255054Y-115000485D01*
X126204259Y-114952512D01*
X126187463Y-114884692D01*
X126209999Y-114818556D01*
X126255054Y-114779515D01*
X126263816Y-114775051D01*
X126358245Y-114706445D01*
X126435786Y-114650109D01*
X126435788Y-114650106D01*
X126435792Y-114650104D01*
X126586104Y-114499792D01*
X126586106Y-114499788D01*
X126586109Y-114499786D01*
X126711048Y-114327820D01*
X126711047Y-114327820D01*
X126711051Y-114327816D01*
X126807557Y-114138412D01*
X126873246Y-113936243D01*
X126906500Y-113726287D01*
X126906500Y-113513713D01*
X126873246Y-113303757D01*
X126807557Y-113101588D01*
X126711051Y-112912184D01*
X126711049Y-112912181D01*
X126711048Y-112912179D01*
X126586109Y-112740213D01*
X126435786Y-112589890D01*
X126263820Y-112464951D01*
X126263115Y-112464591D01*
X126255054Y-112460485D01*
X126204259Y-112412512D01*
X126187463Y-112344692D01*
X126209999Y-112278556D01*
X126255054Y-112239515D01*
X126263816Y-112235051D01*
X126322680Y-112192284D01*
X126435786Y-112110109D01*
X126435788Y-112110106D01*
X126435792Y-112110104D01*
X126586104Y-111959792D01*
X126586106Y-111959788D01*
X126586109Y-111959786D01*
X126711048Y-111787820D01*
X126711047Y-111787820D01*
X126711051Y-111787816D01*
X126807557Y-111598412D01*
X126873246Y-111396243D01*
X126906500Y-111186287D01*
X126906500Y-110973713D01*
X126873246Y-110763757D01*
X126807557Y-110561588D01*
X126711051Y-110372184D01*
X126711049Y-110372181D01*
X126711048Y-110372179D01*
X126586109Y-110200213D01*
X126435786Y-110049890D01*
X126263820Y-109924951D01*
X126074414Y-109828444D01*
X126074413Y-109828443D01*
X126074412Y-109828443D01*
X125872243Y-109762754D01*
X125872241Y-109762753D01*
X125872240Y-109762753D01*
X125710957Y-109737208D01*
X125662287Y-109729500D01*
X125449713Y-109729500D01*
X125401042Y-109737208D01*
X125239760Y-109762753D01*
X125037585Y-109828444D01*
X124848179Y-109924951D01*
X124676213Y-110049890D01*
X124525890Y-110200213D01*
X124400951Y-110372179D01*
X124304444Y-110561585D01*
X124238753Y-110763760D01*
X124205500Y-110973713D01*
X92872894Y-110973713D01*
X92873414Y-108437648D01*
X132383500Y-108437648D01*
X132383500Y-108642351D01*
X132415522Y-108844534D01*
X132478781Y-109039223D01*
X132571715Y-109221613D01*
X132692028Y-109387213D01*
X132836786Y-109531971D01*
X132991749Y-109644556D01*
X133002390Y-109652287D01*
X133093840Y-109698883D01*
X133095080Y-109699515D01*
X133145876Y-109747490D01*
X133162671Y-109815311D01*
X133140134Y-109881446D01*
X133095080Y-109920485D01*
X133002386Y-109967715D01*
X132836786Y-110088028D01*
X132692028Y-110232786D01*
X132571715Y-110398386D01*
X132478781Y-110580776D01*
X132415522Y-110775465D01*
X132383500Y-110977648D01*
X132383500Y-111182351D01*
X132415522Y-111384534D01*
X132478781Y-111579223D01*
X132571715Y-111761613D01*
X132692028Y-111927213D01*
X132836786Y-112071971D01*
X132991749Y-112184556D01*
X133002390Y-112192287D01*
X133086313Y-112235048D01*
X133095080Y-112239515D01*
X133145876Y-112287490D01*
X133162671Y-112355311D01*
X133140134Y-112421446D01*
X133095080Y-112460485D01*
X133002386Y-112507715D01*
X132836786Y-112628028D01*
X132692028Y-112772786D01*
X132571715Y-112938386D01*
X132478781Y-113120776D01*
X132415522Y-113315465D01*
X132383500Y-113517648D01*
X132383500Y-113722351D01*
X132415522Y-113924534D01*
X132478781Y-114119223D01*
X132571715Y-114301613D01*
X132692028Y-114467213D01*
X132836786Y-114611971D01*
X132966821Y-114706445D01*
X133002390Y-114732287D01*
X133093840Y-114778883D01*
X133095080Y-114779515D01*
X133145876Y-114827490D01*
X133162671Y-114895311D01*
X133140134Y-114961446D01*
X133095080Y-115000485D01*
X133002386Y-115047715D01*
X132836786Y-115168028D01*
X132692028Y-115312786D01*
X132571715Y-115478386D01*
X132478781Y-115660776D01*
X132415522Y-115855465D01*
X132383500Y-116057648D01*
X132383500Y-116262351D01*
X132415522Y-116464534D01*
X132478781Y-116659223D01*
X132571715Y-116841613D01*
X132692028Y-117007213D01*
X132836786Y-117151971D01*
X132923057Y-117214649D01*
X133002390Y-117272287D01*
X133086319Y-117315051D01*
X133095080Y-117319515D01*
X133145876Y-117367490D01*
X133162671Y-117435311D01*
X133140134Y-117501446D01*
X133095080Y-117540485D01*
X133002386Y-117587715D01*
X132836786Y-117708028D01*
X132692028Y-117852786D01*
X132571715Y-118018386D01*
X132478781Y-118200776D01*
X132415522Y-118395465D01*
X132383500Y-118597648D01*
X132383500Y-118802351D01*
X132415522Y-119004534D01*
X132478781Y-119199223D01*
X132571715Y-119381613D01*
X132692028Y-119547213D01*
X132836786Y-119691971D01*
X132974928Y-119792335D01*
X133002390Y-119812287D01*
X133074424Y-119848990D01*
X133095629Y-119859795D01*
X133146425Y-119907770D01*
X133163220Y-119975591D01*
X133140682Y-120041726D01*
X133095629Y-120080765D01*
X133002650Y-120128140D01*
X132837105Y-120248417D01*
X132837104Y-120248417D01*
X132692417Y-120393104D01*
X132692417Y-120393105D01*
X132572140Y-120558650D01*
X132479244Y-120740970D01*
X132416009Y-120935586D01*
X132407391Y-120990000D01*
X133368314Y-120990000D01*
X133363920Y-120994394D01*
X133311259Y-121085606D01*
X133284000Y-121187339D01*
X133284000Y-121292661D01*
X133311259Y-121394394D01*
X133363920Y-121485606D01*
X133368314Y-121490000D01*
X132407391Y-121490000D01*
X132416009Y-121544413D01*
X132479244Y-121739029D01*
X132572140Y-121921349D01*
X132692417Y-122086894D01*
X132692417Y-122086895D01*
X132837104Y-122231582D01*
X133002652Y-122351861D01*
X133095628Y-122399234D01*
X133146425Y-122447208D01*
X133163220Y-122515029D01*
X133140683Y-122581164D01*
X133095630Y-122620203D01*
X133002388Y-122667713D01*
X132836786Y-122788028D01*
X132692028Y-122932786D01*
X132571715Y-123098386D01*
X132478781Y-123280776D01*
X132415522Y-123475465D01*
X132383500Y-123677648D01*
X132383500Y-123882351D01*
X132415522Y-124084534D01*
X132478781Y-124279223D01*
X132571715Y-124461613D01*
X132692028Y-124627213D01*
X132836786Y-124771971D01*
X132991749Y-124884556D01*
X133002390Y-124892287D01*
X133118607Y-124951503D01*
X133184776Y-124985218D01*
X133184778Y-124985218D01*
X133184781Y-124985220D01*
X133289137Y-125019127D01*
X133379465Y-125048477D01*
X133480557Y-125064488D01*
X133581648Y-125080500D01*
X133581649Y-125080500D01*
X133786351Y-125080500D01*
X133786352Y-125080500D01*
X133988534Y-125048477D01*
X134183219Y-124985220D01*
X134365610Y-124892287D01*
X134458590Y-124824732D01*
X134531213Y-124771971D01*
X134531215Y-124771968D01*
X134531219Y-124771966D01*
X134675966Y-124627219D01*
X134675968Y-124627215D01*
X134675971Y-124627213D01*
X134728732Y-124554590D01*
X134796287Y-124461610D01*
X134889220Y-124279219D01*
X134952477Y-124084534D01*
X134984500Y-123882352D01*
X134984500Y-123677648D01*
X134976257Y-123625606D01*
X134952477Y-123475465D01*
X134898517Y-123309394D01*
X134889220Y-123280781D01*
X134889218Y-123280778D01*
X134889218Y-123280776D01*
X134802351Y-123110292D01*
X134796287Y-123098390D01*
X134788556Y-123087749D01*
X134675971Y-122932786D01*
X134531213Y-122788028D01*
X134365611Y-122667713D01*
X134272369Y-122620203D01*
X134221574Y-122572229D01*
X134204779Y-122504407D01*
X134227317Y-122438273D01*
X134272371Y-122399234D01*
X134365347Y-122351861D01*
X134530894Y-122231582D01*
X134530895Y-122231582D01*
X134675582Y-122086895D01*
X134675582Y-122086894D01*
X134795859Y-121921349D01*
X134888755Y-121739029D01*
X134951990Y-121544413D01*
X134960609Y-121490000D01*
X133999686Y-121490000D01*
X134004080Y-121485606D01*
X134056741Y-121394394D01*
X134084000Y-121292661D01*
X134084000Y-121187339D01*
X134056741Y-121085606D01*
X134004080Y-120994394D01*
X133999686Y-120990000D01*
X134960609Y-120990000D01*
X134951990Y-120935586D01*
X134888755Y-120740970D01*
X134795859Y-120558650D01*
X134675582Y-120393105D01*
X134675582Y-120393104D01*
X134530895Y-120248417D01*
X134365349Y-120128140D01*
X134272370Y-120080765D01*
X134221574Y-120032790D01*
X134204779Y-119964969D01*
X134227316Y-119898835D01*
X134272370Y-119859795D01*
X134272920Y-119859515D01*
X134365610Y-119812287D01*
X134393081Y-119792328D01*
X134531213Y-119691971D01*
X134531215Y-119691968D01*
X134531219Y-119691966D01*
X134675966Y-119547219D01*
X134675968Y-119547215D01*
X134675971Y-119547213D01*
X134728732Y-119474590D01*
X134796287Y-119381610D01*
X134889220Y-119199219D01*
X134952477Y-119004534D01*
X134984500Y-118802352D01*
X134984500Y-118597648D01*
X134952477Y-118395466D01*
X134889220Y-118200781D01*
X134889218Y-118200778D01*
X134889218Y-118200776D01*
X134855503Y-118134607D01*
X134796287Y-118018390D01*
X134758154Y-117965904D01*
X134675971Y-117852786D01*
X134531213Y-117708028D01*
X134365614Y-117587715D01*
X134359006Y-117584348D01*
X134272917Y-117540483D01*
X134222123Y-117492511D01*
X134205328Y-117424690D01*
X134227865Y-117358555D01*
X134272917Y-117319516D01*
X134365610Y-117272287D01*
X134444943Y-117214649D01*
X134531213Y-117151971D01*
X134531215Y-117151968D01*
X134531219Y-117151966D01*
X134675966Y-117007219D01*
X134675968Y-117007215D01*
X134675971Y-117007213D01*
X134777247Y-116867816D01*
X134796287Y-116841610D01*
X134889220Y-116659219D01*
X134952477Y-116464534D01*
X134984500Y-116262352D01*
X134984500Y-116057648D01*
X134960844Y-115908292D01*
X134952477Y-115855465D01*
X134889218Y-115660776D01*
X134855503Y-115594607D01*
X134796287Y-115478390D01*
X134788556Y-115467749D01*
X134675971Y-115312786D01*
X134531213Y-115168028D01*
X134365614Y-115047715D01*
X134308906Y-115018821D01*
X134272917Y-115000483D01*
X134222123Y-114952511D01*
X134205328Y-114884690D01*
X134227865Y-114818555D01*
X134272917Y-114779516D01*
X134365610Y-114732287D01*
X134442425Y-114676478D01*
X134531213Y-114611971D01*
X134531215Y-114611968D01*
X134531219Y-114611966D01*
X134675966Y-114467219D01*
X134675968Y-114467215D01*
X134675971Y-114467213D01*
X134728732Y-114394590D01*
X134796287Y-114301610D01*
X134889220Y-114119219D01*
X134952477Y-113924534D01*
X134984500Y-113722352D01*
X134984500Y-113517648D01*
X134980842Y-113494555D01*
X134952477Y-113315465D01*
X134889218Y-113120776D01*
X134853601Y-113050875D01*
X134796287Y-112938390D01*
X134788556Y-112927749D01*
X134675971Y-112772786D01*
X134531213Y-112628028D01*
X134365614Y-112507715D01*
X134359006Y-112504348D01*
X134272917Y-112460483D01*
X134222123Y-112412511D01*
X134205328Y-112344690D01*
X134227865Y-112278555D01*
X134272917Y-112239516D01*
X134365610Y-112192287D01*
X134386770Y-112176913D01*
X134531213Y-112071971D01*
X134531215Y-112071968D01*
X134531219Y-112071966D01*
X134675966Y-111927219D01*
X134675968Y-111927215D01*
X134675971Y-111927213D01*
X134777247Y-111787816D01*
X134796287Y-111761610D01*
X134889220Y-111579219D01*
X134952477Y-111384534D01*
X134984500Y-111182352D01*
X134984500Y-110977648D01*
X134952477Y-110775466D01*
X134948673Y-110763760D01*
X134889218Y-110580776D01*
X134855503Y-110514607D01*
X134796287Y-110398390D01*
X134788556Y-110387749D01*
X134675971Y-110232786D01*
X134531213Y-110088028D01*
X134365614Y-109967715D01*
X134359006Y-109964348D01*
X134272917Y-109920483D01*
X134222123Y-109872511D01*
X134205328Y-109804690D01*
X134227865Y-109738555D01*
X134272917Y-109699516D01*
X134365610Y-109652287D01*
X134386770Y-109636913D01*
X134531213Y-109531971D01*
X134531215Y-109531968D01*
X134531219Y-109531966D01*
X134675966Y-109387219D01*
X134675968Y-109387215D01*
X134675971Y-109387213D01*
X134728732Y-109314590D01*
X134796287Y-109221610D01*
X134889220Y-109039219D01*
X134952477Y-108844534D01*
X134984500Y-108642352D01*
X134984500Y-108437648D01*
X134966440Y-108323626D01*
X134952477Y-108235465D01*
X134892605Y-108051199D01*
X134889220Y-108040781D01*
X134889218Y-108040778D01*
X134889218Y-108040776D01*
X134826767Y-107918211D01*
X134796287Y-107858390D01*
X134776098Y-107830602D01*
X134675971Y-107692786D01*
X134531217Y-107548032D01*
X134531212Y-107548028D01*
X134494325Y-107521228D01*
X134451659Y-107465898D01*
X134445680Y-107396285D01*
X134478286Y-107334490D01*
X134539124Y-107300133D01*
X134553956Y-107297620D01*
X134591379Y-107293596D01*
X134726086Y-107243354D01*
X134726093Y-107243350D01*
X134841187Y-107157190D01*
X134841190Y-107157187D01*
X134927350Y-107042093D01*
X134927354Y-107042086D01*
X134977596Y-106907379D01*
X134977598Y-106907372D01*
X134983999Y-106847844D01*
X134984000Y-106847827D01*
X134984000Y-106250000D01*
X133999686Y-106250000D01*
X134004080Y-106245606D01*
X134056741Y-106154394D01*
X134084000Y-106052661D01*
X134084000Y-105947339D01*
X134070685Y-105897648D01*
X145083500Y-105897648D01*
X145083500Y-106102351D01*
X145115522Y-106304534D01*
X145178781Y-106499223D01*
X145271715Y-106681613D01*
X145392028Y-106847213D01*
X145536786Y-106991971D01*
X145691749Y-107104556D01*
X145702390Y-107112287D01*
X145790511Y-107157187D01*
X145795080Y-107159515D01*
X145845876Y-107207490D01*
X145862671Y-107275311D01*
X145840134Y-107341446D01*
X145795080Y-107380485D01*
X145702386Y-107427715D01*
X145536786Y-107548028D01*
X145392028Y-107692786D01*
X145271715Y-107858386D01*
X145178781Y-108040776D01*
X145115522Y-108235465D01*
X145083500Y-108437648D01*
X145083500Y-108642351D01*
X145115522Y-108844534D01*
X145178781Y-109039223D01*
X145271715Y-109221613D01*
X145392028Y-109387213D01*
X145536786Y-109531971D01*
X145691749Y-109644556D01*
X145702390Y-109652287D01*
X145793840Y-109698883D01*
X145795080Y-109699515D01*
X145845876Y-109747490D01*
X145862671Y-109815311D01*
X145840134Y-109881446D01*
X145795080Y-109920485D01*
X145702386Y-109967715D01*
X145536786Y-110088028D01*
X145392028Y-110232786D01*
X145271715Y-110398386D01*
X145178781Y-110580776D01*
X145115522Y-110775465D01*
X145083500Y-110977648D01*
X145083500Y-111182351D01*
X145115522Y-111384534D01*
X145178781Y-111579223D01*
X145271715Y-111761613D01*
X145392028Y-111927213D01*
X145536786Y-112071971D01*
X145691749Y-112184556D01*
X145702390Y-112192287D01*
X145786313Y-112235048D01*
X145795080Y-112239515D01*
X145845876Y-112287490D01*
X145862671Y-112355311D01*
X145840134Y-112421446D01*
X145795080Y-112460485D01*
X145702386Y-112507715D01*
X145536786Y-112628028D01*
X145392028Y-112772786D01*
X145271715Y-112938386D01*
X145178781Y-113120776D01*
X145115522Y-113315465D01*
X145083500Y-113517648D01*
X145083500Y-113722351D01*
X145115522Y-113924534D01*
X145178781Y-114119223D01*
X145271715Y-114301613D01*
X145392028Y-114467213D01*
X145536786Y-114611971D01*
X145666821Y-114706445D01*
X145702390Y-114732287D01*
X145793840Y-114778883D01*
X145795080Y-114779515D01*
X145845876Y-114827490D01*
X145862671Y-114895311D01*
X145840134Y-114961446D01*
X145795080Y-115000485D01*
X145702386Y-115047715D01*
X145536786Y-115168028D01*
X145392028Y-115312786D01*
X145271715Y-115478386D01*
X145178781Y-115660776D01*
X145115522Y-115855465D01*
X145083500Y-116057648D01*
X145083500Y-116262351D01*
X145115522Y-116464534D01*
X145178781Y-116659223D01*
X145271715Y-116841613D01*
X145392028Y-117007213D01*
X145536786Y-117151971D01*
X145623057Y-117214649D01*
X145702390Y-117272287D01*
X145786319Y-117315051D01*
X145795080Y-117319515D01*
X145845876Y-117367490D01*
X145862671Y-117435311D01*
X145840134Y-117501446D01*
X145795080Y-117540485D01*
X145702386Y-117587715D01*
X145536786Y-117708028D01*
X145392028Y-117852786D01*
X145271715Y-118018386D01*
X145178781Y-118200776D01*
X145115522Y-118395465D01*
X145083500Y-118597648D01*
X145083500Y-118802351D01*
X145115522Y-119004534D01*
X145178781Y-119199223D01*
X145271715Y-119381613D01*
X145392028Y-119547213D01*
X145536786Y-119691971D01*
X145674928Y-119792335D01*
X145702390Y-119812287D01*
X145793840Y-119858883D01*
X145795080Y-119859515D01*
X145845876Y-119907490D01*
X145862671Y-119975311D01*
X145840134Y-120041446D01*
X145795080Y-120080485D01*
X145702386Y-120127715D01*
X145536786Y-120248028D01*
X145392028Y-120392786D01*
X145271715Y-120558386D01*
X145178781Y-120740776D01*
X145115522Y-120935465D01*
X145083500Y-121137648D01*
X145083500Y-121342351D01*
X145115522Y-121544534D01*
X145178781Y-121739223D01*
X145271715Y-121921613D01*
X145392028Y-122087213D01*
X145536786Y-122231971D01*
X145691749Y-122344556D01*
X145702390Y-122352287D01*
X145774424Y-122388990D01*
X145795629Y-122399795D01*
X145846425Y-122447770D01*
X145863220Y-122515591D01*
X145840682Y-122581726D01*
X145795629Y-122620765D01*
X145702650Y-122668140D01*
X145537105Y-122788417D01*
X145537104Y-122788417D01*
X145392417Y-122933104D01*
X145392417Y-122933105D01*
X145272140Y-123098650D01*
X145179244Y-123280970D01*
X145116009Y-123475586D01*
X145107391Y-123530000D01*
X146068314Y-123530000D01*
X146063920Y-123534394D01*
X146011259Y-123625606D01*
X145984000Y-123727339D01*
X145984000Y-123832661D01*
X146011259Y-123934394D01*
X146063920Y-124025606D01*
X146068314Y-124030000D01*
X145107391Y-124030000D01*
X145116009Y-124084413D01*
X145179244Y-124279029D01*
X145272140Y-124461349D01*
X145392417Y-124626894D01*
X145392417Y-124626895D01*
X145537104Y-124771582D01*
X145702650Y-124891859D01*
X145884968Y-124984754D01*
X146079578Y-125047988D01*
X146134000Y-125056607D01*
X146134000Y-124095686D01*
X146138394Y-124100080D01*
X146229606Y-124152741D01*
X146331339Y-124180000D01*
X146436661Y-124180000D01*
X146538394Y-124152741D01*
X146629606Y-124100080D01*
X146634000Y-124095686D01*
X146634000Y-125056606D01*
X146688421Y-125047988D01*
X146883031Y-124984754D01*
X147065349Y-124891859D01*
X147230894Y-124771582D01*
X147230895Y-124771582D01*
X147375582Y-124626895D01*
X147375582Y-124626894D01*
X147495859Y-124461349D01*
X147588755Y-124279029D01*
X147651990Y-124084413D01*
X147660609Y-124030000D01*
X146699686Y-124030000D01*
X146704080Y-124025606D01*
X146756741Y-123934394D01*
X146784000Y-123832661D01*
X146784000Y-123727339D01*
X146756741Y-123625606D01*
X146704080Y-123534394D01*
X146699686Y-123530000D01*
X147660609Y-123530000D01*
X147651990Y-123475586D01*
X147588755Y-123280970D01*
X147495859Y-123098650D01*
X147375582Y-122933105D01*
X147375582Y-122933104D01*
X147230895Y-122788417D01*
X147065349Y-122668140D01*
X146981763Y-122625551D01*
X146972370Y-122620765D01*
X146921574Y-122572790D01*
X146908787Y-122521153D01*
X173015500Y-122521153D01*
X173015500Y-122678846D01*
X173046261Y-122833489D01*
X173046264Y-122833501D01*
X173106602Y-122979172D01*
X173106609Y-122979185D01*
X173194210Y-123110288D01*
X173194213Y-123110292D01*
X173305707Y-123221786D01*
X173305711Y-123221789D01*
X173436814Y-123309390D01*
X173436827Y-123309397D01*
X173582498Y-123369735D01*
X173582503Y-123369737D01*
X173737153Y-123400499D01*
X173737156Y-123400500D01*
X173737158Y-123400500D01*
X173894844Y-123400500D01*
X173894845Y-123400499D01*
X174049497Y-123369737D01*
X174195179Y-123309394D01*
X174326289Y-123221789D01*
X174437789Y-123110289D01*
X174525394Y-122979179D01*
X174585737Y-122833497D01*
X174616500Y-122678842D01*
X174616500Y-122521158D01*
X174616500Y-122521155D01*
X174616499Y-122521153D01*
X174601395Y-122445220D01*
X174585737Y-122366503D01*
X174533966Y-122241517D01*
X174526498Y-122172051D01*
X174557773Y-122109571D01*
X174560819Y-122106414D01*
X178502713Y-118164521D01*
X178502716Y-118164520D01*
X178614520Y-118052716D01*
X178664639Y-117965904D01*
X178693577Y-117915785D01*
X178734500Y-117763057D01*
X178734500Y-117604943D01*
X178734500Y-115618543D01*
X194405499Y-115618543D01*
X194443947Y-115811829D01*
X194443950Y-115811839D01*
X194519364Y-115993907D01*
X194519371Y-115993920D01*
X194628860Y-116157781D01*
X194628863Y-116157785D01*
X194768214Y-116297136D01*
X194768218Y-116297139D01*
X194932079Y-116406628D01*
X194932092Y-116406635D01*
X195100133Y-116476239D01*
X195114165Y-116482051D01*
X195114169Y-116482051D01*
X195114170Y-116482052D01*
X195307456Y-116520500D01*
X195307459Y-116520500D01*
X195504543Y-116520500D01*
X195634582Y-116494632D01*
X195697835Y-116482051D01*
X195879914Y-116406632D01*
X196043782Y-116297139D01*
X196183139Y-116157782D01*
X196292632Y-115993914D01*
X196368051Y-115811835D01*
X196401916Y-115641588D01*
X196406500Y-115618543D01*
X196406500Y-115421456D01*
X196368052Y-115228170D01*
X196368051Y-115228169D01*
X196368051Y-115228165D01*
X196343142Y-115168028D01*
X196292635Y-115046092D01*
X196292628Y-115046079D01*
X196183139Y-114882218D01*
X196183136Y-114882214D01*
X196043783Y-114742861D01*
X196024673Y-114730092D01*
X195979869Y-114676478D01*
X195971163Y-114607153D01*
X196001319Y-114544126D01*
X196028470Y-114521452D01*
X196124343Y-114462317D01*
X196248315Y-114338345D01*
X196340356Y-114189124D01*
X196340358Y-114189119D01*
X196395505Y-114022697D01*
X196395506Y-114022690D01*
X196405999Y-113919986D01*
X196406000Y-113919973D01*
X196406000Y-113870000D01*
X195615618Y-113870000D01*
X195666064Y-113819554D01*
X195708851Y-113745445D01*
X195731000Y-113662787D01*
X195731000Y-113577213D01*
X195708851Y-113494555D01*
X195666064Y-113420446D01*
X195615618Y-113370000D01*
X195656000Y-113370000D01*
X196405999Y-113370000D01*
X196405999Y-113320028D01*
X196405998Y-113320013D01*
X196395505Y-113217302D01*
X196340358Y-113050880D01*
X196340356Y-113050875D01*
X196248315Y-112901654D01*
X196124345Y-112777684D01*
X195975124Y-112685643D01*
X195975119Y-112685641D01*
X195808697Y-112630494D01*
X195808690Y-112630493D01*
X195705986Y-112620000D01*
X195656000Y-112620000D01*
X195656000Y-113370000D01*
X195615618Y-113370000D01*
X195605554Y-113359936D01*
X195531445Y-113317149D01*
X195448787Y-113295000D01*
X195363213Y-113295000D01*
X195280555Y-113317149D01*
X195206446Y-113359936D01*
X195145936Y-113420446D01*
X195103149Y-113494555D01*
X195081000Y-113577213D01*
X195081000Y-113662787D01*
X195103149Y-113745445D01*
X195145936Y-113819554D01*
X195196382Y-113870000D01*
X194406001Y-113870000D01*
X194406001Y-113919986D01*
X194416494Y-114022697D01*
X194471641Y-114189119D01*
X194471643Y-114189124D01*
X194563684Y-114338345D01*
X194687654Y-114462315D01*
X194783530Y-114521452D01*
X194830254Y-114573400D01*
X194841477Y-114642363D01*
X194813633Y-114706445D01*
X194787328Y-114730090D01*
X194768222Y-114742857D01*
X194768214Y-114742863D01*
X194628863Y-114882214D01*
X194628860Y-114882218D01*
X194519371Y-115046079D01*
X194519364Y-115046092D01*
X194443950Y-115228160D01*
X194443947Y-115228170D01*
X194405500Y-115421456D01*
X194405500Y-115421459D01*
X194405500Y-115618541D01*
X194405500Y-115618543D01*
X194405499Y-115618543D01*
X178734500Y-115618543D01*
X178734500Y-113320013D01*
X194406000Y-113320013D01*
X194406000Y-113370000D01*
X195156000Y-113370000D01*
X195156000Y-112620000D01*
X195155999Y-112619999D01*
X195106029Y-112620000D01*
X195106011Y-112620001D01*
X195003302Y-112630494D01*
X194836880Y-112685641D01*
X194836875Y-112685643D01*
X194687654Y-112777684D01*
X194563684Y-112901654D01*
X194471643Y-113050875D01*
X194471641Y-113050880D01*
X194416494Y-113217302D01*
X194416493Y-113217309D01*
X194406000Y-113320013D01*
X178734500Y-113320013D01*
X178734500Y-109119765D01*
X178754185Y-109052726D01*
X178755398Y-109050874D01*
X178843390Y-108919185D01*
X178843390Y-108919184D01*
X178843394Y-108919179D01*
X178903737Y-108773497D01*
X178934500Y-108618842D01*
X178934500Y-108461158D01*
X178934500Y-108461155D01*
X178934499Y-108461153D01*
X178903737Y-108306503D01*
X178874313Y-108235466D01*
X178843397Y-108160827D01*
X178843390Y-108160814D01*
X178755789Y-108029711D01*
X178755786Y-108029707D01*
X178644292Y-107918213D01*
X178644288Y-107918210D01*
X178513185Y-107830609D01*
X178513172Y-107830602D01*
X178367501Y-107770264D01*
X178367489Y-107770261D01*
X178212845Y-107739500D01*
X178212842Y-107739500D01*
X178055158Y-107739500D01*
X178055155Y-107739500D01*
X177900510Y-107770261D01*
X177900498Y-107770264D01*
X177754827Y-107830602D01*
X177754814Y-107830609D01*
X177623711Y-107918210D01*
X177623707Y-107918213D01*
X177512213Y-108029707D01*
X177512210Y-108029711D01*
X177424609Y-108160814D01*
X177424602Y-108160827D01*
X177364264Y-108306498D01*
X177364261Y-108306510D01*
X177333500Y-108461153D01*
X177333500Y-108618846D01*
X177364261Y-108773489D01*
X177364264Y-108773501D01*
X177424602Y-108919172D01*
X177424609Y-108919185D01*
X177512602Y-109050874D01*
X177533480Y-109117551D01*
X177533500Y-109119765D01*
X177533500Y-117383902D01*
X177513815Y-117450941D01*
X177497181Y-117471583D01*
X173335481Y-121633282D01*
X173335477Y-121633287D01*
X173316277Y-121666545D01*
X173316276Y-121666547D01*
X173256423Y-121770215D01*
X173215499Y-121922943D01*
X173215499Y-121922945D01*
X173215499Y-122020235D01*
X173195814Y-122087274D01*
X173194601Y-122089126D01*
X173106609Y-122220814D01*
X173106602Y-122220827D01*
X173046264Y-122366498D01*
X173046261Y-122366510D01*
X173015500Y-122521153D01*
X146908787Y-122521153D01*
X146904779Y-122504969D01*
X146927317Y-122438834D01*
X146972370Y-122399795D01*
X146973471Y-122399234D01*
X147065610Y-122352287D01*
X147086770Y-122336913D01*
X147231213Y-122231971D01*
X147231215Y-122231968D01*
X147231219Y-122231966D01*
X147375966Y-122087219D01*
X147375968Y-122087215D01*
X147375971Y-122087213D01*
X147428732Y-122014590D01*
X147496287Y-121921610D01*
X147589220Y-121739219D01*
X147652477Y-121544534D01*
X147684500Y-121342352D01*
X147684500Y-121137648D01*
X147676257Y-121085606D01*
X147652477Y-120935465D01*
X147589218Y-120740776D01*
X147496419Y-120558650D01*
X147496287Y-120558390D01*
X147488556Y-120547749D01*
X147375971Y-120392786D01*
X147231213Y-120248028D01*
X147065614Y-120127715D01*
X147059006Y-120124348D01*
X146972917Y-120080483D01*
X146922123Y-120032511D01*
X146905328Y-119964690D01*
X146927865Y-119898555D01*
X146972917Y-119859516D01*
X147065610Y-119812287D01*
X147093081Y-119792328D01*
X147231213Y-119691971D01*
X147231215Y-119691968D01*
X147231219Y-119691966D01*
X147375966Y-119547219D01*
X147375968Y-119547215D01*
X147375971Y-119547213D01*
X147428732Y-119474590D01*
X147496287Y-119381610D01*
X147589220Y-119199219D01*
X147652477Y-119004534D01*
X147684500Y-118802352D01*
X147684500Y-118597648D01*
X147652477Y-118395466D01*
X147589220Y-118200781D01*
X147589218Y-118200778D01*
X147589218Y-118200776D01*
X147555503Y-118134607D01*
X147496287Y-118018390D01*
X147458154Y-117965904D01*
X147375971Y-117852786D01*
X147231213Y-117708028D01*
X147065614Y-117587715D01*
X147059006Y-117584348D01*
X146972917Y-117540483D01*
X146922123Y-117492511D01*
X146905328Y-117424690D01*
X146927865Y-117358555D01*
X146972917Y-117319516D01*
X147065610Y-117272287D01*
X147144943Y-117214649D01*
X147231213Y-117151971D01*
X147231215Y-117151968D01*
X147231219Y-117151966D01*
X147375966Y-117007219D01*
X147375968Y-117007215D01*
X147375971Y-117007213D01*
X147477247Y-116867816D01*
X147496287Y-116841610D01*
X147589220Y-116659219D01*
X147652477Y-116464534D01*
X147684500Y-116262352D01*
X147684500Y-116057648D01*
X147660844Y-115908292D01*
X147652477Y-115855465D01*
X147589218Y-115660776D01*
X147555503Y-115594607D01*
X147496287Y-115478390D01*
X147488556Y-115467749D01*
X147375971Y-115312786D01*
X147231213Y-115168028D01*
X147065614Y-115047715D01*
X147008906Y-115018821D01*
X146972917Y-115000483D01*
X146922123Y-114952511D01*
X146905328Y-114884690D01*
X146927865Y-114818555D01*
X146972917Y-114779516D01*
X147065610Y-114732287D01*
X147142425Y-114676478D01*
X147231213Y-114611971D01*
X147231215Y-114611968D01*
X147231219Y-114611966D01*
X147375966Y-114467219D01*
X147375968Y-114467215D01*
X147375971Y-114467213D01*
X147428732Y-114394590D01*
X147496287Y-114301610D01*
X147589220Y-114119219D01*
X147652477Y-113924534D01*
X147684500Y-113722352D01*
X147684500Y-113517648D01*
X147680842Y-113494555D01*
X147652477Y-113315465D01*
X147589218Y-113120776D01*
X147553601Y-113050875D01*
X147496287Y-112938390D01*
X147488556Y-112927749D01*
X147375971Y-112772786D01*
X147231213Y-112628028D01*
X147065614Y-112507715D01*
X147059006Y-112504348D01*
X146972917Y-112460483D01*
X146922123Y-112412511D01*
X146905328Y-112344690D01*
X146927865Y-112278555D01*
X146972917Y-112239516D01*
X147065610Y-112192287D01*
X147086770Y-112176913D01*
X147231213Y-112071971D01*
X147231215Y-112071968D01*
X147231219Y-112071966D01*
X147375966Y-111927219D01*
X147375968Y-111927215D01*
X147375971Y-111927213D01*
X147477247Y-111787816D01*
X147496287Y-111761610D01*
X147589220Y-111579219D01*
X147652477Y-111384534D01*
X147684500Y-111182352D01*
X147684500Y-110977648D01*
X147652477Y-110775466D01*
X147648673Y-110763760D01*
X147589218Y-110580776D01*
X147555503Y-110514607D01*
X147496287Y-110398390D01*
X147488556Y-110387749D01*
X147375971Y-110232786D01*
X147231213Y-110088028D01*
X147065614Y-109967715D01*
X147059006Y-109964348D01*
X146972917Y-109920483D01*
X146922123Y-109872511D01*
X146905328Y-109804690D01*
X146927865Y-109738555D01*
X146972917Y-109699516D01*
X147065610Y-109652287D01*
X147086770Y-109636913D01*
X147231213Y-109531971D01*
X147231215Y-109531968D01*
X147231219Y-109531966D01*
X147375966Y-109387219D01*
X147375968Y-109387215D01*
X147375971Y-109387213D01*
X147428732Y-109314590D01*
X147496287Y-109221610D01*
X147589220Y-109039219D01*
X147652477Y-108844534D01*
X147684500Y-108642352D01*
X147684500Y-108437648D01*
X147666440Y-108323626D01*
X147652477Y-108235465D01*
X147592605Y-108051199D01*
X147589220Y-108040781D01*
X147589218Y-108040778D01*
X147589218Y-108040776D01*
X147526767Y-107918211D01*
X147496287Y-107858390D01*
X147476098Y-107830602D01*
X147375971Y-107692786D01*
X147231213Y-107548028D01*
X147065614Y-107427715D01*
X147003929Y-107396285D01*
X146972917Y-107380483D01*
X146922123Y-107332511D01*
X146905328Y-107264690D01*
X146927865Y-107198555D01*
X146972917Y-107159516D01*
X147065610Y-107112287D01*
X147086770Y-107096913D01*
X147231213Y-106991971D01*
X147231215Y-106991968D01*
X147231219Y-106991966D01*
X147375966Y-106847219D01*
X147375968Y-106847215D01*
X147375971Y-106847213D01*
X147437676Y-106762282D01*
X147496287Y-106681610D01*
X147589220Y-106499219D01*
X147652477Y-106304534D01*
X147684500Y-106102352D01*
X147684500Y-105897648D01*
X147676257Y-105845606D01*
X147652477Y-105695465D01*
X147589218Y-105500776D01*
X147555503Y-105434607D01*
X147496287Y-105318390D01*
X147488556Y-105307749D01*
X147375971Y-105152786D01*
X147231213Y-105008028D01*
X147065613Y-104887715D01*
X147065612Y-104887714D01*
X147065610Y-104887713D01*
X146977487Y-104842812D01*
X146883223Y-104794781D01*
X146688534Y-104731522D01*
X146513995Y-104703878D01*
X146486352Y-104699500D01*
X146281648Y-104699500D01*
X146257329Y-104703351D01*
X146079465Y-104731522D01*
X145884776Y-104794781D01*
X145702386Y-104887715D01*
X145536786Y-105008028D01*
X145392028Y-105152786D01*
X145271715Y-105318386D01*
X145178781Y-105500776D01*
X145115522Y-105695465D01*
X145083500Y-105897648D01*
X134070685Y-105897648D01*
X134056741Y-105845606D01*
X134004080Y-105754394D01*
X133999686Y-105750000D01*
X134984000Y-105750000D01*
X134984000Y-105152172D01*
X134983999Y-105152155D01*
X134977598Y-105092627D01*
X134977596Y-105092620D01*
X134927354Y-104957913D01*
X134927350Y-104957906D01*
X134841190Y-104842812D01*
X134841187Y-104842809D01*
X134726093Y-104756649D01*
X134726086Y-104756645D01*
X134591379Y-104706403D01*
X134591372Y-104706401D01*
X134531844Y-104700000D01*
X133934000Y-104700000D01*
X133934000Y-105684314D01*
X133929606Y-105679920D01*
X133838394Y-105627259D01*
X133736661Y-105600000D01*
X133631339Y-105600000D01*
X133529606Y-105627259D01*
X133438394Y-105679920D01*
X133434000Y-105684314D01*
X133434000Y-104700000D01*
X132836155Y-104700000D01*
X132776627Y-104706401D01*
X132776620Y-104706403D01*
X132641913Y-104756645D01*
X132641906Y-104756649D01*
X132526812Y-104842809D01*
X132526809Y-104842812D01*
X132440649Y-104957906D01*
X132440645Y-104957913D01*
X132390403Y-105092620D01*
X132390401Y-105092627D01*
X132384000Y-105152155D01*
X132384000Y-105750000D01*
X133368314Y-105750000D01*
X133363920Y-105754394D01*
X133311259Y-105845606D01*
X133284000Y-105947339D01*
X133284000Y-106052661D01*
X133311259Y-106154394D01*
X133363920Y-106245606D01*
X133368314Y-106250000D01*
X132384000Y-106250000D01*
X132384000Y-106847844D01*
X132390401Y-106907372D01*
X132390403Y-106907379D01*
X132440645Y-107042086D01*
X132440649Y-107042093D01*
X132526809Y-107157187D01*
X132526812Y-107157190D01*
X132641906Y-107243350D01*
X132641913Y-107243354D01*
X132776620Y-107293596D01*
X132814043Y-107297620D01*
X132878595Y-107324358D01*
X132918443Y-107381750D01*
X132920937Y-107451576D01*
X132885285Y-107511665D01*
X132873675Y-107521227D01*
X132836789Y-107548026D01*
X132836782Y-107548032D01*
X132692028Y-107692786D01*
X132571715Y-107858386D01*
X132478781Y-108040776D01*
X132415522Y-108235465D01*
X132383500Y-108437648D01*
X92873414Y-108437648D01*
X92873496Y-108035025D01*
X92873500Y-108035018D01*
X92873500Y-108019650D01*
X92873503Y-108004998D01*
X92873502Y-108004996D01*
X92873504Y-107993893D01*
X92873500Y-107993837D01*
X92873500Y-97401154D01*
X104778000Y-97401154D01*
X104778000Y-98770000D01*
X105778000Y-98770000D01*
X105778000Y-99270000D01*
X104778000Y-99270000D01*
X104778000Y-100638845D01*
X104815181Y-100873593D01*
X104815181Y-100873596D01*
X104888629Y-101099641D01*
X104996532Y-101311412D01*
X105136239Y-101503700D01*
X105136239Y-101503701D01*
X105304298Y-101671760D01*
X105496587Y-101811467D01*
X105708358Y-101919370D01*
X105934406Y-101992818D01*
X106038000Y-102009226D01*
X106038000Y-100964560D01*
X106091147Y-100995245D01*
X106220857Y-101030000D01*
X106355143Y-101030000D01*
X106484853Y-100995245D01*
X106538000Y-100964560D01*
X106538000Y-102009225D01*
X106641593Y-101992818D01*
X106867641Y-101919370D01*
X107079412Y-101811467D01*
X107271700Y-101671760D01*
X107271701Y-101671760D01*
X107439760Y-101503701D01*
X107439760Y-101503700D01*
X107579467Y-101311412D01*
X107687370Y-101099641D01*
X107760818Y-100873596D01*
X107760818Y-100873593D01*
X107798000Y-100638845D01*
X107798000Y-99270000D01*
X106798000Y-99270000D01*
X106798000Y-98770000D01*
X107798000Y-98770000D01*
X107798000Y-97401154D01*
X107760818Y-97166406D01*
X107760818Y-97166403D01*
X107687370Y-96940358D01*
X107579467Y-96728587D01*
X107439764Y-96536304D01*
X107439755Y-96536293D01*
X107365597Y-96462135D01*
X109957500Y-96462135D01*
X109957500Y-101577870D01*
X109957501Y-101577876D01*
X109963908Y-101637483D01*
X110014202Y-101772328D01*
X110014206Y-101772335D01*
X110100452Y-101887544D01*
X110100455Y-101887547D01*
X110215664Y-101973793D01*
X110215671Y-101973797D01*
X110350517Y-102024091D01*
X110350516Y-102024091D01*
X110357444Y-102024835D01*
X110410127Y-102030500D01*
X112525872Y-102030499D01*
X112585483Y-102024091D01*
X112720331Y-101973796D01*
X112835546Y-101887546D01*
X112921796Y-101772331D01*
X112972091Y-101637483D01*
X112978500Y-101577873D01*
X112978500Y-101074436D01*
X145119000Y-101074436D01*
X145119000Y-101273563D01*
X145150147Y-101470222D01*
X145211679Y-101659594D01*
X145302077Y-101837008D01*
X145329580Y-101874863D01*
X145329581Y-101874864D01*
X145892871Y-101311574D01*
X145908755Y-101370853D01*
X145975898Y-101487147D01*
X146070853Y-101582102D01*
X146187147Y-101649245D01*
X146246425Y-101665128D01*
X145683134Y-102228417D01*
X145720994Y-102255924D01*
X145898405Y-102346320D01*
X146087777Y-102407852D01*
X146284437Y-102439000D01*
X146483563Y-102439000D01*
X146680222Y-102407852D01*
X146869594Y-102346320D01*
X147047005Y-102255924D01*
X147084863Y-102228418D01*
X147084863Y-102228417D01*
X146521574Y-101665128D01*
X146580853Y-101649245D01*
X146697147Y-101582102D01*
X146792102Y-101487147D01*
X146859245Y-101370853D01*
X146875128Y-101311574D01*
X147438417Y-101874863D01*
X147438418Y-101874863D01*
X147465924Y-101837005D01*
X147543234Y-101685277D01*
X147591208Y-101634481D01*
X147659029Y-101617686D01*
X147725164Y-101640223D01*
X147764204Y-101685277D01*
X147808559Y-101772328D01*
X147841647Y-101837266D01*
X147958731Y-101998418D01*
X148099582Y-102139269D01*
X148260734Y-102256353D01*
X148399948Y-102327286D01*
X148438219Y-102346786D01*
X148627657Y-102408338D01*
X148627658Y-102408338D01*
X148627661Y-102408339D01*
X148824403Y-102439500D01*
X148824404Y-102439500D01*
X149023596Y-102439500D01*
X149023597Y-102439500D01*
X149220339Y-102408339D01*
X149220342Y-102408338D01*
X149220343Y-102408338D01*
X149409780Y-102346786D01*
X149409780Y-102346785D01*
X149409783Y-102346785D01*
X149587266Y-102256353D01*
X149748418Y-102139269D01*
X149889269Y-101998418D01*
X150006353Y-101837266D01*
X150083515Y-101685827D01*
X150131490Y-101635031D01*
X150199311Y-101618236D01*
X150265446Y-101640773D01*
X150304485Y-101685827D01*
X150381647Y-101837266D01*
X150498731Y-101998418D01*
X150639582Y-102139269D01*
X150800734Y-102256353D01*
X150939948Y-102327286D01*
X150978219Y-102346786D01*
X151167657Y-102408338D01*
X151167658Y-102408338D01*
X151167661Y-102408339D01*
X151364403Y-102439500D01*
X151364404Y-102439500D01*
X151563596Y-102439500D01*
X151563597Y-102439500D01*
X151760339Y-102408339D01*
X151760342Y-102408338D01*
X151760343Y-102408338D01*
X151949780Y-102346786D01*
X151949780Y-102346785D01*
X151949783Y-102346785D01*
X152127266Y-102256353D01*
X152288418Y-102139269D01*
X152429269Y-101998418D01*
X152546353Y-101837266D01*
X152623515Y-101685827D01*
X152671490Y-101635031D01*
X152739311Y-101618236D01*
X152805446Y-101640773D01*
X152844485Y-101685827D01*
X152921647Y-101837266D01*
X153038731Y-101998418D01*
X153179582Y-102139269D01*
X153340734Y-102256353D01*
X153479948Y-102327286D01*
X153518219Y-102346786D01*
X153707657Y-102408338D01*
X153707658Y-102408338D01*
X153707661Y-102408339D01*
X153904403Y-102439500D01*
X153904404Y-102439500D01*
X154103596Y-102439500D01*
X154103597Y-102439500D01*
X154300339Y-102408339D01*
X154300342Y-102408338D01*
X154300343Y-102408338D01*
X154489780Y-102346786D01*
X154489780Y-102346785D01*
X154489783Y-102346785D01*
X154667266Y-102256353D01*
X154828418Y-102139269D01*
X154969269Y-101998418D01*
X155086353Y-101837266D01*
X155163515Y-101685827D01*
X155211490Y-101635031D01*
X155279311Y-101618236D01*
X155345446Y-101640773D01*
X155384485Y-101685827D01*
X155461647Y-101837266D01*
X155578731Y-101998418D01*
X155719582Y-102139269D01*
X155880734Y-102256353D01*
X156019948Y-102327286D01*
X156058219Y-102346786D01*
X156247657Y-102408338D01*
X156247658Y-102408338D01*
X156247661Y-102408339D01*
X156444403Y-102439500D01*
X156444404Y-102439500D01*
X156643596Y-102439500D01*
X156643597Y-102439500D01*
X156840339Y-102408339D01*
X156840342Y-102408338D01*
X156840343Y-102408338D01*
X157029780Y-102346786D01*
X157029780Y-102346785D01*
X157029783Y-102346785D01*
X157207266Y-102256353D01*
X157368418Y-102139269D01*
X157509269Y-101998418D01*
X157626353Y-101837266D01*
X157703515Y-101685827D01*
X157751490Y-101635031D01*
X157819311Y-101618236D01*
X157885446Y-101640773D01*
X157924485Y-101685827D01*
X158001647Y-101837266D01*
X158118731Y-101998418D01*
X158259582Y-102139269D01*
X158380446Y-102227082D01*
X158420735Y-102256354D01*
X158465794Y-102279312D01*
X158516590Y-102327286D01*
X158533500Y-102389797D01*
X158533500Y-102625526D01*
X158533500Y-102770474D01*
X158571016Y-102910485D01*
X158643489Y-103036013D01*
X158643491Y-103036016D01*
X170947181Y-115339706D01*
X170980666Y-115401029D01*
X170983500Y-115427387D01*
X170983500Y-115476846D01*
X171014261Y-115631489D01*
X171014264Y-115631501D01*
X171074602Y-115777172D01*
X171074609Y-115777185D01*
X171162210Y-115908288D01*
X171162213Y-115908292D01*
X171273707Y-116019786D01*
X171273711Y-116019789D01*
X171404814Y-116107390D01*
X171404827Y-116107397D01*
X171550498Y-116167735D01*
X171550503Y-116167737D01*
X171705153Y-116198499D01*
X171705156Y-116198500D01*
X171705158Y-116198500D01*
X171862844Y-116198500D01*
X171862845Y-116198499D01*
X172017497Y-116167737D01*
X172163179Y-116107394D01*
X172294289Y-116019789D01*
X172405789Y-115908289D01*
X172493394Y-115777179D01*
X172553737Y-115631497D01*
X172584500Y-115476842D01*
X172584500Y-115319158D01*
X172584500Y-115319155D01*
X172584499Y-115319153D01*
X172553738Y-115164510D01*
X172553737Y-115164503D01*
X172553735Y-115164498D01*
X172493397Y-115018827D01*
X172493390Y-115018814D01*
X172405789Y-114887711D01*
X172405786Y-114887707D01*
X172294292Y-114776213D01*
X172294288Y-114776210D01*
X172163185Y-114688609D01*
X172163172Y-114688602D01*
X172017501Y-114628264D01*
X172017489Y-114628261D01*
X171862845Y-114597500D01*
X171862842Y-114597500D01*
X171813387Y-114597500D01*
X171746348Y-114577815D01*
X171725706Y-114561181D01*
X163790660Y-106626135D01*
X183641500Y-106626135D01*
X183641500Y-108421870D01*
X183641501Y-108421876D01*
X183647908Y-108481483D01*
X183698202Y-108616328D01*
X183698206Y-108616335D01*
X183784452Y-108731544D01*
X183784455Y-108731547D01*
X183899664Y-108817793D01*
X183899671Y-108817797D01*
X184034517Y-108868091D01*
X184034516Y-108868091D01*
X184041444Y-108868835D01*
X184094127Y-108874500D01*
X185889872Y-108874499D01*
X185949483Y-108868091D01*
X186084331Y-108817796D01*
X186199546Y-108731546D01*
X186285796Y-108616331D01*
X186336091Y-108481483D01*
X186342500Y-108421873D01*
X186342499Y-108397979D01*
X186345330Y-108384963D01*
X186355940Y-108365525D01*
X186362179Y-108344275D01*
X186378803Y-108323643D01*
X186378808Y-108323636D01*
X186378811Y-108323634D01*
X186378818Y-108323626D01*
X187049037Y-107653408D01*
X187066075Y-107716993D01*
X187131901Y-107831007D01*
X187224993Y-107924099D01*
X187339007Y-107989925D01*
X187402590Y-108006962D01*
X186770282Y-108639269D01*
X186770282Y-108639270D01*
X186824449Y-108678624D01*
X187013782Y-108775095D01*
X187215870Y-108840757D01*
X187425754Y-108874000D01*
X187638246Y-108874000D01*
X187848127Y-108840757D01*
X187848130Y-108840757D01*
X188050217Y-108775095D01*
X188239554Y-108678622D01*
X188293716Y-108639270D01*
X188293717Y-108639270D01*
X187661408Y-108006962D01*
X187724993Y-107989925D01*
X187839007Y-107924099D01*
X187932099Y-107831007D01*
X187997925Y-107716993D01*
X188014962Y-107653408D01*
X188647270Y-108285717D01*
X188647270Y-108285716D01*
X188686622Y-108231555D01*
X188691232Y-108222507D01*
X188739205Y-108171709D01*
X188807025Y-108154912D01*
X188873161Y-108177447D01*
X188912204Y-108222504D01*
X188916949Y-108231817D01*
X189041890Y-108403786D01*
X189192213Y-108554109D01*
X189364179Y-108679048D01*
X189364181Y-108679049D01*
X189364184Y-108679051D01*
X189553588Y-108775557D01*
X189755757Y-108841246D01*
X189965713Y-108874500D01*
X189965714Y-108874500D01*
X190178286Y-108874500D01*
X190178287Y-108874500D01*
X190388243Y-108841246D01*
X190590412Y-108775557D01*
X190779816Y-108679051D01*
X190862682Y-108618846D01*
X190951786Y-108554109D01*
X190951788Y-108554106D01*
X190951792Y-108554104D01*
X191102104Y-108403792D01*
X191102106Y-108403788D01*
X191102109Y-108403786D01*
X191227048Y-108231820D01*
X191227050Y-108231817D01*
X191227051Y-108231816D01*
X191231514Y-108223054D01*
X191279488Y-108172259D01*
X191347308Y-108155463D01*
X191413444Y-108177999D01*
X191452486Y-108223056D01*
X191456951Y-108231820D01*
X191581890Y-108403786D01*
X191732213Y-108554109D01*
X191904179Y-108679048D01*
X191904181Y-108679049D01*
X191904184Y-108679051D01*
X192093588Y-108775557D01*
X192295757Y-108841246D01*
X192505713Y-108874500D01*
X192505714Y-108874500D01*
X192718286Y-108874500D01*
X192718287Y-108874500D01*
X192928243Y-108841246D01*
X193130412Y-108775557D01*
X193319816Y-108679051D01*
X193402682Y-108618846D01*
X193491786Y-108554109D01*
X193491788Y-108554106D01*
X193491792Y-108554104D01*
X193642104Y-108403792D01*
X193642106Y-108403788D01*
X193642109Y-108403786D01*
X193767048Y-108231820D01*
X193767050Y-108231817D01*
X193767051Y-108231816D01*
X193863557Y-108042412D01*
X193929246Y-107840243D01*
X193962500Y-107630287D01*
X193962500Y-107417713D01*
X193929246Y-107207757D01*
X193863557Y-107005588D01*
X193767051Y-106816184D01*
X193767049Y-106816181D01*
X193767048Y-106816179D01*
X193642109Y-106644213D01*
X193491786Y-106493890D01*
X193319820Y-106368951D01*
X193130414Y-106272444D01*
X193130413Y-106272443D01*
X193130412Y-106272443D01*
X192928243Y-106206754D01*
X192928241Y-106206753D01*
X192928240Y-106206753D01*
X192766957Y-106181208D01*
X192718287Y-106173500D01*
X192505713Y-106173500D01*
X192457042Y-106181208D01*
X192295760Y-106206753D01*
X192093585Y-106272444D01*
X191904179Y-106368951D01*
X191732213Y-106493890D01*
X191581890Y-106644213D01*
X191456949Y-106816182D01*
X191452484Y-106824946D01*
X191404509Y-106875742D01*
X191336688Y-106892536D01*
X191270553Y-106869998D01*
X191231516Y-106824946D01*
X191227050Y-106816182D01*
X191102109Y-106644213D01*
X190951786Y-106493890D01*
X190779820Y-106368951D01*
X190590414Y-106272444D01*
X190590413Y-106272443D01*
X190590412Y-106272443D01*
X190388243Y-106206754D01*
X190388241Y-106206753D01*
X190388240Y-106206753D01*
X190226957Y-106181208D01*
X190178287Y-106173500D01*
X189965713Y-106173500D01*
X189917042Y-106181208D01*
X189755760Y-106206753D01*
X189553585Y-106272444D01*
X189364179Y-106368951D01*
X189192213Y-106493890D01*
X189041890Y-106644213D01*
X188916949Y-106816182D01*
X188912202Y-106825499D01*
X188864227Y-106876293D01*
X188796405Y-106893087D01*
X188730271Y-106870548D01*
X188691234Y-106825495D01*
X188686626Y-106816452D01*
X188647270Y-106762282D01*
X188647269Y-106762282D01*
X188014962Y-107394590D01*
X187997925Y-107331007D01*
X187932099Y-107216993D01*
X187839007Y-107123901D01*
X187724993Y-107058075D01*
X187661409Y-107041037D01*
X188293716Y-106408728D01*
X188239550Y-106369375D01*
X188050217Y-106272904D01*
X187848129Y-106207242D01*
X187638246Y-106174000D01*
X187425754Y-106174000D01*
X187215872Y-106207242D01*
X187215869Y-106207242D01*
X187013782Y-106272904D01*
X186824439Y-106369380D01*
X186770282Y-106408727D01*
X186770282Y-106408728D01*
X187402591Y-107041037D01*
X187339007Y-107058075D01*
X187224993Y-107123901D01*
X187131901Y-107216993D01*
X187066075Y-107331007D01*
X187049037Y-107394591D01*
X186378818Y-106724372D01*
X186345333Y-106663049D01*
X186345330Y-106663036D01*
X186342499Y-106650015D01*
X186342499Y-106626128D01*
X186336091Y-106566517D01*
X186307926Y-106491002D01*
X186285798Y-106431673D01*
X186285793Y-106431664D01*
X186199547Y-106316455D01*
X186199544Y-106316452D01*
X186084335Y-106230206D01*
X186084328Y-106230202D01*
X185949482Y-106179908D01*
X185949483Y-106179908D01*
X185889883Y-106173501D01*
X185889881Y-106173500D01*
X185889873Y-106173500D01*
X185889864Y-106173500D01*
X184094129Y-106173500D01*
X184094123Y-106173501D01*
X184034516Y-106179908D01*
X183899671Y-106230202D01*
X183899664Y-106230206D01*
X183784455Y-106316452D01*
X183784452Y-106316455D01*
X183698206Y-106431664D01*
X183698202Y-106431671D01*
X183647908Y-106566517D01*
X183641501Y-106626116D01*
X183641500Y-106626135D01*
X163790660Y-106626135D01*
X159670819Y-102506294D01*
X159656115Y-102479366D01*
X159639523Y-102453548D01*
X159638631Y-102447347D01*
X159637334Y-102444971D01*
X159634500Y-102418613D01*
X159634500Y-102389797D01*
X159654185Y-102322758D01*
X159702206Y-102279312D01*
X159747264Y-102256354D01*
X159747263Y-102256354D01*
X159747266Y-102256353D01*
X159908418Y-102139269D01*
X160049269Y-101998418D01*
X160166353Y-101837266D01*
X160243795Y-101685276D01*
X160291769Y-101634481D01*
X160359590Y-101617686D01*
X160425725Y-101640223D01*
X160464765Y-101685277D01*
X160542077Y-101837008D01*
X160569580Y-101874863D01*
X160569581Y-101874864D01*
X161132871Y-101311574D01*
X161148755Y-101370853D01*
X161215898Y-101487147D01*
X161310853Y-101582102D01*
X161427147Y-101649245D01*
X161486425Y-101665128D01*
X160923134Y-102228417D01*
X160960994Y-102255924D01*
X161138405Y-102346320D01*
X161327777Y-102407852D01*
X161524437Y-102439000D01*
X161723563Y-102439000D01*
X161920222Y-102407852D01*
X162109594Y-102346320D01*
X162287005Y-102255924D01*
X162324863Y-102228418D01*
X162324863Y-102228417D01*
X161761574Y-101665128D01*
X161820853Y-101649245D01*
X161937147Y-101582102D01*
X162032102Y-101487147D01*
X162099245Y-101370853D01*
X162115128Y-101311574D01*
X162678417Y-101874863D01*
X162678418Y-101874863D01*
X162705924Y-101837005D01*
X162783234Y-101685277D01*
X162831208Y-101634481D01*
X162899029Y-101617686D01*
X162965164Y-101640223D01*
X163004204Y-101685277D01*
X163048559Y-101772328D01*
X163081647Y-101837266D01*
X163198731Y-101998418D01*
X163339582Y-102139269D01*
X163500734Y-102256353D01*
X163639948Y-102327286D01*
X163678219Y-102346786D01*
X163867657Y-102408338D01*
X163867658Y-102408338D01*
X163867661Y-102408339D01*
X164064403Y-102439500D01*
X164064404Y-102439500D01*
X164263596Y-102439500D01*
X164263597Y-102439500D01*
X164460339Y-102408339D01*
X164460342Y-102408338D01*
X164460343Y-102408338D01*
X164649780Y-102346786D01*
X164649780Y-102346785D01*
X164649783Y-102346785D01*
X164827266Y-102256353D01*
X164988418Y-102139269D01*
X165129269Y-101998418D01*
X165246353Y-101837266D01*
X165323515Y-101685827D01*
X165371490Y-101635031D01*
X165439311Y-101618236D01*
X165505446Y-101640773D01*
X165544485Y-101685827D01*
X165621647Y-101837266D01*
X165738731Y-101998418D01*
X165879582Y-102139269D01*
X166040734Y-102256353D01*
X166179948Y-102327286D01*
X166218219Y-102346786D01*
X166407657Y-102408338D01*
X166407658Y-102408338D01*
X166407661Y-102408339D01*
X166604403Y-102439500D01*
X166604404Y-102439500D01*
X166803596Y-102439500D01*
X166803597Y-102439500D01*
X167000339Y-102408339D01*
X167000342Y-102408338D01*
X167000343Y-102408338D01*
X167189780Y-102346786D01*
X167189780Y-102346785D01*
X167189783Y-102346785D01*
X167367266Y-102256353D01*
X167528418Y-102139269D01*
X167669269Y-101998418D01*
X167786353Y-101837266D01*
X167863515Y-101685827D01*
X167911490Y-101635031D01*
X167979311Y-101618236D01*
X168045446Y-101640773D01*
X168084485Y-101685827D01*
X168161647Y-101837266D01*
X168278731Y-101998418D01*
X168419582Y-102139269D01*
X168580734Y-102256353D01*
X168719948Y-102327286D01*
X168758219Y-102346786D01*
X168947657Y-102408338D01*
X168947658Y-102408338D01*
X168947661Y-102408339D01*
X169144403Y-102439500D01*
X169144404Y-102439500D01*
X169343596Y-102439500D01*
X169343597Y-102439500D01*
X169540339Y-102408339D01*
X169540342Y-102408338D01*
X169540343Y-102408338D01*
X169729780Y-102346786D01*
X169729780Y-102346785D01*
X169729783Y-102346785D01*
X169907266Y-102256353D01*
X170068418Y-102139269D01*
X170209269Y-101998418D01*
X170326353Y-101837266D01*
X170403515Y-101685827D01*
X170451490Y-101635031D01*
X170519311Y-101618236D01*
X170585446Y-101640773D01*
X170624485Y-101685827D01*
X170701647Y-101837266D01*
X170818731Y-101998418D01*
X170959582Y-102139269D01*
X171120734Y-102256353D01*
X171259948Y-102327286D01*
X171298219Y-102346786D01*
X171487657Y-102408338D01*
X171487658Y-102408338D01*
X171487661Y-102408339D01*
X171684403Y-102439500D01*
X171684404Y-102439500D01*
X171883596Y-102439500D01*
X171883597Y-102439500D01*
X172080339Y-102408339D01*
X172080342Y-102408338D01*
X172080343Y-102408338D01*
X172269780Y-102346786D01*
X172269780Y-102346785D01*
X172269783Y-102346785D01*
X172447266Y-102256353D01*
X172608418Y-102139269D01*
X172749269Y-101998418D01*
X172866353Y-101837266D01*
X172943515Y-101685827D01*
X172991490Y-101635031D01*
X173059311Y-101618236D01*
X173125446Y-101640773D01*
X173164485Y-101685827D01*
X173241647Y-101837266D01*
X173358731Y-101998418D01*
X173499582Y-102139269D01*
X173660734Y-102256353D01*
X173799948Y-102327286D01*
X173838219Y-102346786D01*
X174027657Y-102408338D01*
X174027658Y-102408338D01*
X174027661Y-102408339D01*
X174224403Y-102439500D01*
X174224404Y-102439500D01*
X174423596Y-102439500D01*
X174423597Y-102439500D01*
X174620339Y-102408339D01*
X174620342Y-102408338D01*
X174620343Y-102408338D01*
X174809780Y-102346786D01*
X174809780Y-102346785D01*
X174809783Y-102346785D01*
X174987266Y-102256353D01*
X175148418Y-102139269D01*
X175289269Y-101998418D01*
X175406353Y-101837266D01*
X175483515Y-101685827D01*
X175531490Y-101635031D01*
X175599311Y-101618236D01*
X175665446Y-101640773D01*
X175704485Y-101685827D01*
X175781647Y-101837266D01*
X175898731Y-101998418D01*
X176039582Y-102139269D01*
X176200734Y-102256353D01*
X176339948Y-102327286D01*
X176378219Y-102346786D01*
X176567657Y-102408338D01*
X176567658Y-102408338D01*
X176567661Y-102408339D01*
X176764403Y-102439500D01*
X176764404Y-102439500D01*
X176963596Y-102439500D01*
X176963597Y-102439500D01*
X177160339Y-102408339D01*
X177160342Y-102408338D01*
X177160343Y-102408338D01*
X177349780Y-102346786D01*
X177349780Y-102346785D01*
X177349783Y-102346785D01*
X177527266Y-102256353D01*
X177688418Y-102139269D01*
X177829269Y-101998418D01*
X177946353Y-101837266D01*
X178023515Y-101685827D01*
X178071490Y-101635031D01*
X178139311Y-101618236D01*
X178205446Y-101640773D01*
X178244485Y-101685827D01*
X178321647Y-101837266D01*
X178438731Y-101998418D01*
X178579582Y-102139269D01*
X178740734Y-102256353D01*
X178879948Y-102327286D01*
X178918219Y-102346786D01*
X179107657Y-102408338D01*
X179107658Y-102408338D01*
X179107661Y-102408339D01*
X179304403Y-102439500D01*
X179304404Y-102439500D01*
X179503596Y-102439500D01*
X179503597Y-102439500D01*
X179700339Y-102408339D01*
X179700342Y-102408338D01*
X179700343Y-102408338D01*
X179889780Y-102346786D01*
X179889780Y-102346785D01*
X179889783Y-102346785D01*
X180067266Y-102256353D01*
X180228418Y-102139269D01*
X180369269Y-101998418D01*
X180486353Y-101837266D01*
X180563515Y-101685827D01*
X180611490Y-101635031D01*
X180679311Y-101618236D01*
X180745446Y-101640773D01*
X180784485Y-101685827D01*
X180861647Y-101837266D01*
X180978731Y-101998418D01*
X181119582Y-102139269D01*
X181280734Y-102256353D01*
X181419948Y-102327286D01*
X181458219Y-102346786D01*
X181647657Y-102408338D01*
X181647658Y-102408338D01*
X181647661Y-102408339D01*
X181844403Y-102439500D01*
X181844404Y-102439500D01*
X182043596Y-102439500D01*
X182043597Y-102439500D01*
X182240339Y-102408339D01*
X182240342Y-102408338D01*
X182240343Y-102408338D01*
X182429780Y-102346786D01*
X182429780Y-102346785D01*
X182429783Y-102346785D01*
X182607266Y-102256353D01*
X182768418Y-102139269D01*
X182909269Y-101998418D01*
X183026353Y-101837266D01*
X183103515Y-101685827D01*
X183151490Y-101635031D01*
X183219311Y-101618236D01*
X183285446Y-101640773D01*
X183324485Y-101685827D01*
X183401647Y-101837266D01*
X183518731Y-101998418D01*
X183659582Y-102139269D01*
X183820734Y-102256353D01*
X183959948Y-102327286D01*
X183998219Y-102346786D01*
X184187657Y-102408338D01*
X184187658Y-102408338D01*
X184187661Y-102408339D01*
X184384403Y-102439500D01*
X184384404Y-102439500D01*
X184583596Y-102439500D01*
X184583597Y-102439500D01*
X184780339Y-102408339D01*
X184780342Y-102408338D01*
X184780343Y-102408338D01*
X184969780Y-102346786D01*
X184969780Y-102346785D01*
X184969783Y-102346785D01*
X185147266Y-102256353D01*
X185308418Y-102139269D01*
X185449269Y-101998418D01*
X185566353Y-101837266D01*
X185643515Y-101685827D01*
X185691490Y-101635031D01*
X185759311Y-101618236D01*
X185825446Y-101640773D01*
X185864485Y-101685827D01*
X185941647Y-101837266D01*
X186058731Y-101998418D01*
X186199582Y-102139269D01*
X186360734Y-102256353D01*
X186499948Y-102327286D01*
X186538219Y-102346786D01*
X186727657Y-102408338D01*
X186727658Y-102408338D01*
X186727661Y-102408339D01*
X186924403Y-102439500D01*
X186924404Y-102439500D01*
X187123596Y-102439500D01*
X187123597Y-102439500D01*
X187320339Y-102408339D01*
X187320342Y-102408338D01*
X187320343Y-102408338D01*
X187509780Y-102346786D01*
X187509780Y-102346785D01*
X187509783Y-102346785D01*
X187687266Y-102256353D01*
X187848418Y-102139269D01*
X187989269Y-101998418D01*
X188106353Y-101837266D01*
X188183515Y-101685827D01*
X188231490Y-101635031D01*
X188299311Y-101618236D01*
X188365446Y-101640773D01*
X188404485Y-101685827D01*
X188481647Y-101837266D01*
X188598731Y-101998418D01*
X188739582Y-102139269D01*
X188900734Y-102256353D01*
X189039948Y-102327286D01*
X189078219Y-102346786D01*
X189267657Y-102408338D01*
X189267658Y-102408338D01*
X189267661Y-102408339D01*
X189464403Y-102439500D01*
X189464404Y-102439500D01*
X189663596Y-102439500D01*
X189663597Y-102439500D01*
X189860339Y-102408339D01*
X189860342Y-102408338D01*
X189860343Y-102408338D01*
X190049780Y-102346786D01*
X190049780Y-102346785D01*
X190049783Y-102346785D01*
X190227266Y-102256353D01*
X190388418Y-102139269D01*
X190529269Y-101998418D01*
X190646353Y-101837266D01*
X190723515Y-101685827D01*
X190771490Y-101635031D01*
X190839311Y-101618236D01*
X190905446Y-101640773D01*
X190944485Y-101685827D01*
X191021647Y-101837266D01*
X191138731Y-101998418D01*
X191279582Y-102139269D01*
X191440734Y-102256353D01*
X191579948Y-102327286D01*
X191618219Y-102346786D01*
X191807657Y-102408338D01*
X191807658Y-102408338D01*
X191807661Y-102408339D01*
X192004403Y-102439500D01*
X192004404Y-102439500D01*
X192203596Y-102439500D01*
X192203597Y-102439500D01*
X192400339Y-102408339D01*
X192400342Y-102408338D01*
X192400343Y-102408338D01*
X192589780Y-102346786D01*
X192589780Y-102346785D01*
X192589783Y-102346785D01*
X192767266Y-102256353D01*
X192928418Y-102139269D01*
X193069269Y-101998418D01*
X193186353Y-101837266D01*
X193276785Y-101659783D01*
X193285006Y-101634481D01*
X193338338Y-101470343D01*
X193338338Y-101470342D01*
X193338339Y-101470339D01*
X193369500Y-101273597D01*
X193369500Y-101074403D01*
X193338339Y-100877661D01*
X193338338Y-100877657D01*
X193338338Y-100877656D01*
X193276786Y-100688219D01*
X193186485Y-100510994D01*
X193186353Y-100510734D01*
X193069269Y-100349582D01*
X192928418Y-100208731D01*
X192767266Y-100091647D01*
X192589780Y-100001213D01*
X192400342Y-99939661D01*
X192252782Y-99916290D01*
X192203597Y-99908500D01*
X192004403Y-99908500D01*
X191938822Y-99918887D01*
X191807659Y-99939661D01*
X191807656Y-99939661D01*
X191618219Y-100001213D01*
X191440733Y-100091647D01*
X191402286Y-100119581D01*
X191279582Y-100208731D01*
X191279580Y-100208733D01*
X191279579Y-100208733D01*
X191138733Y-100349579D01*
X191138733Y-100349580D01*
X191138731Y-100349582D01*
X191088447Y-100418790D01*
X191021647Y-100510733D01*
X190944485Y-100662172D01*
X190896510Y-100712968D01*
X190828689Y-100729763D01*
X190762554Y-100707225D01*
X190723515Y-100662172D01*
X190646485Y-100510994D01*
X190646353Y-100510734D01*
X190529269Y-100349582D01*
X190388418Y-100208731D01*
X190227266Y-100091647D01*
X190049780Y-100001213D01*
X189860342Y-99939661D01*
X189712782Y-99916290D01*
X189663597Y-99908500D01*
X189464403Y-99908500D01*
X189398822Y-99918887D01*
X189267659Y-99939661D01*
X189267656Y-99939661D01*
X189078219Y-100001213D01*
X188900733Y-100091647D01*
X188862286Y-100119581D01*
X188739582Y-100208731D01*
X188739580Y-100208733D01*
X188739579Y-100208733D01*
X188598733Y-100349579D01*
X188598733Y-100349580D01*
X188598731Y-100349582D01*
X188548447Y-100418790D01*
X188481647Y-100510733D01*
X188404485Y-100662172D01*
X188356510Y-100712968D01*
X188288689Y-100729763D01*
X188222554Y-100707225D01*
X188183515Y-100662172D01*
X188106485Y-100510994D01*
X188106353Y-100510734D01*
X187989269Y-100349582D01*
X187848418Y-100208731D01*
X187687266Y-100091647D01*
X187509780Y-100001213D01*
X187320342Y-99939661D01*
X187172782Y-99916290D01*
X187123597Y-99908500D01*
X186924403Y-99908500D01*
X186858822Y-99918887D01*
X186727659Y-99939661D01*
X186727656Y-99939661D01*
X186538219Y-100001213D01*
X186360733Y-100091647D01*
X186322286Y-100119581D01*
X186199582Y-100208731D01*
X186199580Y-100208733D01*
X186199579Y-100208733D01*
X186058733Y-100349579D01*
X186058733Y-100349580D01*
X186058731Y-100349582D01*
X186008447Y-100418790D01*
X185941647Y-100510733D01*
X185864485Y-100662172D01*
X185816510Y-100712968D01*
X185748689Y-100729763D01*
X185682554Y-100707225D01*
X185643515Y-100662172D01*
X185566485Y-100510994D01*
X185566353Y-100510734D01*
X185449269Y-100349582D01*
X185308418Y-100208731D01*
X185147266Y-100091647D01*
X184969780Y-100001213D01*
X184780342Y-99939661D01*
X184632782Y-99916290D01*
X184583597Y-99908500D01*
X184384403Y-99908500D01*
X184318822Y-99918887D01*
X184187659Y-99939661D01*
X184187656Y-99939661D01*
X183998219Y-100001213D01*
X183820733Y-100091647D01*
X183782286Y-100119581D01*
X183659582Y-100208731D01*
X183659580Y-100208733D01*
X183659579Y-100208733D01*
X183518733Y-100349579D01*
X183518733Y-100349580D01*
X183518731Y-100349582D01*
X183468447Y-100418790D01*
X183401647Y-100510733D01*
X183324485Y-100662172D01*
X183276510Y-100712968D01*
X183208689Y-100729763D01*
X183142554Y-100707225D01*
X183103515Y-100662172D01*
X183026485Y-100510994D01*
X183026353Y-100510734D01*
X182909269Y-100349582D01*
X182768418Y-100208731D01*
X182607266Y-100091647D01*
X182429780Y-100001213D01*
X182240342Y-99939661D01*
X182092782Y-99916290D01*
X182043597Y-99908500D01*
X181844403Y-99908500D01*
X181778822Y-99918887D01*
X181647659Y-99939661D01*
X181647656Y-99939661D01*
X181458219Y-100001213D01*
X181280733Y-100091647D01*
X181242286Y-100119581D01*
X181119582Y-100208731D01*
X181119580Y-100208733D01*
X181119579Y-100208733D01*
X180978733Y-100349579D01*
X180978733Y-100349580D01*
X180978731Y-100349582D01*
X180928447Y-100418790D01*
X180861647Y-100510733D01*
X180784485Y-100662172D01*
X180736510Y-100712968D01*
X180668689Y-100729763D01*
X180602554Y-100707225D01*
X180563515Y-100662172D01*
X180486485Y-100510994D01*
X180486353Y-100510734D01*
X180369269Y-100349582D01*
X180228418Y-100208731D01*
X180067266Y-100091647D01*
X179889780Y-100001213D01*
X179700342Y-99939661D01*
X179552782Y-99916290D01*
X179503597Y-99908500D01*
X179304403Y-99908500D01*
X179238822Y-99918887D01*
X179107659Y-99939661D01*
X179107656Y-99939661D01*
X178918219Y-100001213D01*
X178740733Y-100091647D01*
X178702286Y-100119581D01*
X178579582Y-100208731D01*
X178579580Y-100208733D01*
X178579579Y-100208733D01*
X178438733Y-100349579D01*
X178438733Y-100349580D01*
X178438731Y-100349582D01*
X178388447Y-100418790D01*
X178321647Y-100510733D01*
X178244485Y-100662172D01*
X178196510Y-100712968D01*
X178128689Y-100729763D01*
X178062554Y-100707225D01*
X178023515Y-100662172D01*
X177946485Y-100510994D01*
X177946353Y-100510734D01*
X177829269Y-100349582D01*
X177688418Y-100208731D01*
X177527266Y-100091647D01*
X177349780Y-100001213D01*
X177160342Y-99939661D01*
X177012782Y-99916290D01*
X176963597Y-99908500D01*
X176764403Y-99908500D01*
X176698822Y-99918887D01*
X176567659Y-99939661D01*
X176567656Y-99939661D01*
X176378219Y-100001213D01*
X176200733Y-100091647D01*
X176162286Y-100119581D01*
X176039582Y-100208731D01*
X176039580Y-100208733D01*
X176039579Y-100208733D01*
X175898733Y-100349579D01*
X175898733Y-100349580D01*
X175898731Y-100349582D01*
X175848447Y-100418790D01*
X175781647Y-100510733D01*
X175704485Y-100662172D01*
X175656510Y-100712968D01*
X175588689Y-100729763D01*
X175522554Y-100707225D01*
X175483515Y-100662172D01*
X175406485Y-100510994D01*
X175406353Y-100510734D01*
X175289269Y-100349582D01*
X175148418Y-100208731D01*
X174987266Y-100091647D01*
X174809780Y-100001213D01*
X174620342Y-99939661D01*
X174472782Y-99916290D01*
X174423597Y-99908500D01*
X174224403Y-99908500D01*
X174158822Y-99918887D01*
X174027659Y-99939661D01*
X174027656Y-99939661D01*
X173838219Y-100001213D01*
X173660733Y-100091647D01*
X173622286Y-100119581D01*
X173499582Y-100208731D01*
X173499580Y-100208733D01*
X173499579Y-100208733D01*
X173358733Y-100349579D01*
X173358733Y-100349580D01*
X173358731Y-100349582D01*
X173308447Y-100418790D01*
X173241647Y-100510733D01*
X173164485Y-100662172D01*
X173116510Y-100712968D01*
X173048689Y-100729763D01*
X172982554Y-100707225D01*
X172943515Y-100662172D01*
X172866485Y-100510994D01*
X172866353Y-100510734D01*
X172749269Y-100349582D01*
X172608418Y-100208731D01*
X172447266Y-100091647D01*
X172269780Y-100001213D01*
X172080342Y-99939661D01*
X171932782Y-99916290D01*
X171883597Y-99908500D01*
X171684403Y-99908500D01*
X171618822Y-99918887D01*
X171487659Y-99939661D01*
X171487656Y-99939661D01*
X171298219Y-100001213D01*
X171120733Y-100091647D01*
X171082286Y-100119581D01*
X170959582Y-100208731D01*
X170959580Y-100208733D01*
X170959579Y-100208733D01*
X170818733Y-100349579D01*
X170818733Y-100349580D01*
X170818731Y-100349582D01*
X170768447Y-100418790D01*
X170701647Y-100510733D01*
X170624485Y-100662172D01*
X170576510Y-100712968D01*
X170508689Y-100729763D01*
X170442554Y-100707225D01*
X170403515Y-100662172D01*
X170326485Y-100510994D01*
X170326353Y-100510734D01*
X170209269Y-100349582D01*
X170068418Y-100208731D01*
X169907266Y-100091647D01*
X169729780Y-100001213D01*
X169540342Y-99939661D01*
X169392782Y-99916290D01*
X169343597Y-99908500D01*
X169144403Y-99908500D01*
X169078822Y-99918887D01*
X168947659Y-99939661D01*
X168947656Y-99939661D01*
X168758219Y-100001213D01*
X168580733Y-100091647D01*
X168542286Y-100119581D01*
X168419582Y-100208731D01*
X168419580Y-100208733D01*
X168419579Y-100208733D01*
X168278733Y-100349579D01*
X168278733Y-100349580D01*
X168278731Y-100349582D01*
X168228447Y-100418790D01*
X168161647Y-100510733D01*
X168084485Y-100662172D01*
X168036510Y-100712968D01*
X167968689Y-100729763D01*
X167902554Y-100707225D01*
X167863515Y-100662172D01*
X167786485Y-100510994D01*
X167786353Y-100510734D01*
X167669269Y-100349582D01*
X167528418Y-100208731D01*
X167367266Y-100091647D01*
X167189780Y-100001213D01*
X167000342Y-99939661D01*
X166852782Y-99916290D01*
X166803597Y-99908500D01*
X166604403Y-99908500D01*
X166538822Y-99918887D01*
X166407659Y-99939661D01*
X166407656Y-99939661D01*
X166218219Y-100001213D01*
X166040733Y-100091647D01*
X166002286Y-100119581D01*
X165879582Y-100208731D01*
X165879580Y-100208733D01*
X165879579Y-100208733D01*
X165738733Y-100349579D01*
X165738733Y-100349580D01*
X165738731Y-100349582D01*
X165688447Y-100418790D01*
X165621647Y-100510733D01*
X165544485Y-100662172D01*
X165496510Y-100712968D01*
X165428689Y-100729763D01*
X165362554Y-100707225D01*
X165323515Y-100662172D01*
X165246485Y-100510994D01*
X165246353Y-100510734D01*
X165129269Y-100349582D01*
X164988418Y-100208731D01*
X164827266Y-100091647D01*
X164649780Y-100001213D01*
X164460342Y-99939661D01*
X164312782Y-99916290D01*
X164263597Y-99908500D01*
X164064403Y-99908500D01*
X163998822Y-99918887D01*
X163867659Y-99939661D01*
X163867656Y-99939661D01*
X163678219Y-100001213D01*
X163500733Y-100091647D01*
X163462286Y-100119581D01*
X163339582Y-100208731D01*
X163339580Y-100208733D01*
X163339579Y-100208733D01*
X163198733Y-100349579D01*
X163198733Y-100349580D01*
X163198731Y-100349582D01*
X163163555Y-100397997D01*
X163081645Y-100510735D01*
X163004203Y-100662723D01*
X162956229Y-100713518D01*
X162888408Y-100730313D01*
X162822273Y-100707775D01*
X162783234Y-100662722D01*
X162705924Y-100510994D01*
X162678417Y-100473135D01*
X162678417Y-100473134D01*
X162115128Y-101036424D01*
X162099245Y-100977147D01*
X162032102Y-100860853D01*
X161937147Y-100765898D01*
X161820853Y-100698755D01*
X161761574Y-100682871D01*
X162324864Y-100119581D01*
X162324863Y-100119580D01*
X162287008Y-100092077D01*
X162109594Y-100001679D01*
X161920222Y-99940147D01*
X161723563Y-99909000D01*
X161524437Y-99909000D01*
X161327777Y-99940147D01*
X161138405Y-100001679D01*
X160960990Y-100092077D01*
X160923135Y-100119580D01*
X160923135Y-100119581D01*
X161486425Y-100682871D01*
X161427147Y-100698755D01*
X161310853Y-100765898D01*
X161215898Y-100860853D01*
X161148755Y-100977147D01*
X161132871Y-101036425D01*
X160569581Y-100473135D01*
X160569580Y-100473135D01*
X160542075Y-100510993D01*
X160464764Y-100662723D01*
X160416790Y-100713518D01*
X160348969Y-100730313D01*
X160282834Y-100707775D01*
X160243795Y-100662722D01*
X160166485Y-100510994D01*
X160166353Y-100510734D01*
X160049269Y-100349582D01*
X159908418Y-100208731D01*
X159747266Y-100091647D01*
X159569780Y-100001213D01*
X159380342Y-99939661D01*
X159232782Y-99916290D01*
X159183597Y-99908500D01*
X158984403Y-99908500D01*
X158918822Y-99918887D01*
X158787659Y-99939661D01*
X158787656Y-99939661D01*
X158598219Y-100001213D01*
X158420733Y-100091647D01*
X158382286Y-100119581D01*
X158259582Y-100208731D01*
X158259580Y-100208733D01*
X158259579Y-100208733D01*
X158118733Y-100349579D01*
X158118733Y-100349580D01*
X158118731Y-100349582D01*
X158068447Y-100418790D01*
X158001647Y-100510733D01*
X157924485Y-100662172D01*
X157876510Y-100712968D01*
X157808689Y-100729763D01*
X157742554Y-100707225D01*
X157703515Y-100662172D01*
X157626485Y-100510994D01*
X157626353Y-100510734D01*
X157509269Y-100349582D01*
X157368418Y-100208731D01*
X157207266Y-100091647D01*
X157029780Y-100001213D01*
X156840342Y-99939661D01*
X156692782Y-99916290D01*
X156643597Y-99908500D01*
X156444403Y-99908500D01*
X156378822Y-99918887D01*
X156247659Y-99939661D01*
X156247656Y-99939661D01*
X156058219Y-100001213D01*
X155880733Y-100091647D01*
X155842286Y-100119581D01*
X155719582Y-100208731D01*
X155719580Y-100208733D01*
X155719579Y-100208733D01*
X155578733Y-100349579D01*
X155578733Y-100349580D01*
X155578731Y-100349582D01*
X155528447Y-100418790D01*
X155461647Y-100510733D01*
X155384485Y-100662172D01*
X155336510Y-100712968D01*
X155268689Y-100729763D01*
X155202554Y-100707225D01*
X155163515Y-100662172D01*
X155086485Y-100510994D01*
X155086353Y-100510734D01*
X154969269Y-100349582D01*
X154828418Y-100208731D01*
X154667266Y-100091647D01*
X154489780Y-100001213D01*
X154300342Y-99939661D01*
X154152782Y-99916290D01*
X154103597Y-99908500D01*
X153904403Y-99908500D01*
X153838822Y-99918887D01*
X153707659Y-99939661D01*
X153707656Y-99939661D01*
X153518219Y-100001213D01*
X153340733Y-100091647D01*
X153302286Y-100119581D01*
X153179582Y-100208731D01*
X153179580Y-100208733D01*
X153179579Y-100208733D01*
X153038733Y-100349579D01*
X153038733Y-100349580D01*
X153038731Y-100349582D01*
X152988447Y-100418790D01*
X152921647Y-100510733D01*
X152844485Y-100662172D01*
X152796510Y-100712968D01*
X152728689Y-100729763D01*
X152662554Y-100707225D01*
X152623515Y-100662172D01*
X152546485Y-100510994D01*
X152546353Y-100510734D01*
X152429269Y-100349582D01*
X152288418Y-100208731D01*
X152127266Y-100091647D01*
X151949780Y-100001213D01*
X151760342Y-99939661D01*
X151612782Y-99916290D01*
X151563597Y-99908500D01*
X151364403Y-99908500D01*
X151298822Y-99918887D01*
X151167659Y-99939661D01*
X151167656Y-99939661D01*
X150978219Y-100001213D01*
X150800733Y-100091647D01*
X150762286Y-100119581D01*
X150639582Y-100208731D01*
X150639580Y-100208733D01*
X150639579Y-100208733D01*
X150498733Y-100349579D01*
X150498733Y-100349580D01*
X150498731Y-100349582D01*
X150448447Y-100418790D01*
X150381647Y-100510733D01*
X150304485Y-100662172D01*
X150256510Y-100712968D01*
X150188689Y-100729763D01*
X150122554Y-100707225D01*
X150083515Y-100662172D01*
X150006485Y-100510994D01*
X150006353Y-100510734D01*
X149889269Y-100349582D01*
X149748418Y-100208731D01*
X149587266Y-100091647D01*
X149409780Y-100001213D01*
X149220342Y-99939661D01*
X149072782Y-99916290D01*
X149023597Y-99908500D01*
X148824403Y-99908500D01*
X148758822Y-99918887D01*
X148627659Y-99939661D01*
X148627656Y-99939661D01*
X148438219Y-100001213D01*
X148260733Y-100091647D01*
X148222286Y-100119581D01*
X148099582Y-100208731D01*
X148099580Y-100208733D01*
X148099579Y-100208733D01*
X147958733Y-100349579D01*
X147958733Y-100349580D01*
X147958731Y-100349582D01*
X147923555Y-100397997D01*
X147841645Y-100510735D01*
X147764203Y-100662723D01*
X147716229Y-100713518D01*
X147648408Y-100730313D01*
X147582273Y-100707775D01*
X147543234Y-100662722D01*
X147465924Y-100510994D01*
X147438417Y-100473135D01*
X147438417Y-100473134D01*
X146875128Y-101036424D01*
X146859245Y-100977147D01*
X146792102Y-100860853D01*
X146697147Y-100765898D01*
X146580853Y-100698755D01*
X146521574Y-100682871D01*
X147084864Y-100119581D01*
X147084863Y-100119580D01*
X147047008Y-100092077D01*
X146869594Y-100001679D01*
X146680222Y-99940147D01*
X146483563Y-99909000D01*
X146284437Y-99909000D01*
X146087777Y-99940147D01*
X145898405Y-100001679D01*
X145720990Y-100092077D01*
X145683135Y-100119580D01*
X145683135Y-100119581D01*
X146246425Y-100682871D01*
X146187147Y-100698755D01*
X146070853Y-100765898D01*
X145975898Y-100860853D01*
X145908755Y-100977147D01*
X145892871Y-101036425D01*
X145329581Y-100473135D01*
X145329580Y-100473135D01*
X145302077Y-100510990D01*
X145211679Y-100688405D01*
X145150147Y-100877777D01*
X145119000Y-101074436D01*
X112978500Y-101074436D01*
X112978499Y-98770000D01*
X112978499Y-96462129D01*
X112978498Y-96462123D01*
X112978497Y-96462116D01*
X112972091Y-96402517D01*
X112921796Y-96267669D01*
X112921795Y-96267668D01*
X112921793Y-96267664D01*
X112835547Y-96152455D01*
X112835544Y-96152452D01*
X112720335Y-96066206D01*
X112720328Y-96066202D01*
X112585482Y-96015908D01*
X112585483Y-96015908D01*
X112525883Y-96009501D01*
X112525881Y-96009500D01*
X112525873Y-96009500D01*
X112525864Y-96009500D01*
X110410129Y-96009500D01*
X110410123Y-96009501D01*
X110350516Y-96015908D01*
X110215671Y-96066202D01*
X110215664Y-96066206D01*
X110100455Y-96152452D01*
X110100452Y-96152455D01*
X110014206Y-96267664D01*
X110014202Y-96267671D01*
X109963908Y-96402517D01*
X109957501Y-96462116D01*
X109957501Y-96462123D01*
X109957500Y-96462135D01*
X107365597Y-96462135D01*
X107271701Y-96368239D01*
X107079412Y-96228532D01*
X106867641Y-96120629D01*
X106641589Y-96047180D01*
X106641590Y-96047180D01*
X106538000Y-96030773D01*
X106538000Y-97075439D01*
X106484853Y-97044755D01*
X106355143Y-97010000D01*
X106220857Y-97010000D01*
X106091147Y-97044755D01*
X106038000Y-97075439D01*
X106038000Y-96030773D01*
X105934410Y-96047180D01*
X105708358Y-96120629D01*
X105496587Y-96228532D01*
X105304299Y-96368239D01*
X105304298Y-96368239D01*
X105136239Y-96536298D01*
X105136239Y-96536299D01*
X104996532Y-96728587D01*
X104888629Y-96940358D01*
X104815181Y-97166403D01*
X104815181Y-97166406D01*
X104778000Y-97401154D01*
X92873500Y-97401154D01*
X92873500Y-90035013D01*
X92873502Y-90035009D01*
X92873500Y-90018256D01*
X92873500Y-90004982D01*
X92873500Y-89990575D01*
X92873496Y-89990543D01*
X92872998Y-85819998D01*
X92872773Y-83933994D01*
X98180000Y-83933994D01*
X98180000Y-84166005D01*
X98180001Y-84166022D01*
X98210283Y-84396040D01*
X98210286Y-84396053D01*
X98270336Y-84620167D01*
X98359124Y-84834521D01*
X98359132Y-84834538D01*
X98475136Y-85035461D01*
X98475142Y-85035469D01*
X98534117Y-85112327D01*
X99467037Y-84179408D01*
X99484075Y-84242993D01*
X99549901Y-84357007D01*
X99642993Y-84450099D01*
X99757007Y-84515925D01*
X99820591Y-84532962D01*
X98887671Y-85465881D01*
X98964530Y-85524857D01*
X98964538Y-85524863D01*
X99165461Y-85640867D01*
X99165478Y-85640875D01*
X99379832Y-85729663D01*
X99603946Y-85789713D01*
X99603959Y-85789716D01*
X99833977Y-85819998D01*
X99833995Y-85820000D01*
X100066005Y-85820000D01*
X100066022Y-85819998D01*
X100296040Y-85789716D01*
X100296053Y-85789713D01*
X100520167Y-85729663D01*
X100734521Y-85640875D01*
X100734538Y-85640867D01*
X100935475Y-85524855D01*
X101012327Y-85465883D01*
X101012327Y-85465880D01*
X100079408Y-84532962D01*
X100142993Y-84515925D01*
X100257007Y-84450099D01*
X100350099Y-84357007D01*
X100415925Y-84242993D01*
X100432962Y-84179408D01*
X101365880Y-85112327D01*
X101365883Y-85112327D01*
X101424855Y-85035475D01*
X101540867Y-84834538D01*
X101540875Y-84834521D01*
X101629663Y-84620167D01*
X101689713Y-84396053D01*
X101689716Y-84396040D01*
X101719998Y-84166022D01*
X101720000Y-84166005D01*
X101720000Y-83933994D01*
X138820000Y-83933994D01*
X138820000Y-84166005D01*
X138820001Y-84166022D01*
X138850283Y-84396040D01*
X138850286Y-84396053D01*
X138910336Y-84620167D01*
X138999124Y-84834521D01*
X138999132Y-84834538D01*
X139115136Y-85035461D01*
X139115142Y-85035469D01*
X139174117Y-85112327D01*
X140107037Y-84179408D01*
X140124075Y-84242993D01*
X140189901Y-84357007D01*
X140282993Y-84450099D01*
X140397007Y-84515925D01*
X140460591Y-84532962D01*
X139527671Y-85465881D01*
X139604530Y-85524857D01*
X139604538Y-85524863D01*
X139805461Y-85640867D01*
X139805478Y-85640875D01*
X140019832Y-85729663D01*
X140243946Y-85789713D01*
X140243959Y-85789716D01*
X140473977Y-85819998D01*
X140473995Y-85820000D01*
X140706005Y-85820000D01*
X140706022Y-85819998D01*
X140936040Y-85789716D01*
X140936053Y-85789713D01*
X141160167Y-85729663D01*
X141374521Y-85640875D01*
X141374538Y-85640867D01*
X141575475Y-85524855D01*
X141652327Y-85465883D01*
X141652327Y-85465880D01*
X140719408Y-84532962D01*
X140782993Y-84515925D01*
X140897007Y-84450099D01*
X140990099Y-84357007D01*
X141055925Y-84242993D01*
X141072962Y-84179408D01*
X142005880Y-85112327D01*
X142005883Y-85112327D01*
X142064855Y-85035475D01*
X142180867Y-84834538D01*
X142180875Y-84834521D01*
X142269663Y-84620167D01*
X142329713Y-84396053D01*
X142329716Y-84396040D01*
X142359998Y-84166022D01*
X142360000Y-84166005D01*
X142360000Y-83933994D01*
X142359998Y-83933977D01*
X142329716Y-83703959D01*
X142329713Y-83703946D01*
X142269663Y-83479832D01*
X142180875Y-83265478D01*
X142180867Y-83265461D01*
X142064863Y-83064538D01*
X142064857Y-83064530D01*
X142005881Y-82987671D01*
X141072962Y-83920590D01*
X141055925Y-83857007D01*
X140990099Y-83742993D01*
X140897007Y-83649901D01*
X140782993Y-83584075D01*
X140719409Y-83567037D01*
X141652327Y-82634117D01*
X141575469Y-82575142D01*
X141575461Y-82575136D01*
X141374538Y-82459132D01*
X141374521Y-82459124D01*
X141160167Y-82370336D01*
X140936053Y-82310286D01*
X140936040Y-82310283D01*
X140706022Y-82280001D01*
X140706005Y-82280000D01*
X140473995Y-82280000D01*
X140473977Y-82280001D01*
X140243959Y-82310283D01*
X140243946Y-82310286D01*
X140019832Y-82370336D01*
X139805478Y-82459124D01*
X139805461Y-82459132D01*
X139604541Y-82575134D01*
X139604533Y-82575140D01*
X139527671Y-82634116D01*
X139527671Y-82634117D01*
X140460591Y-83567037D01*
X140397007Y-83584075D01*
X140282993Y-83649901D01*
X140189901Y-83742993D01*
X140124075Y-83857007D01*
X140107037Y-83920590D01*
X139174117Y-82987671D01*
X139174116Y-82987671D01*
X139115140Y-83064533D01*
X139115134Y-83064541D01*
X138999132Y-83265461D01*
X138999124Y-83265478D01*
X138910336Y-83479832D01*
X138850286Y-83703946D01*
X138850283Y-83703959D01*
X138820001Y-83933977D01*
X138820000Y-83933994D01*
X101720000Y-83933994D01*
X101719998Y-83933977D01*
X101689716Y-83703959D01*
X101689713Y-83703946D01*
X101629663Y-83479832D01*
X101540875Y-83265478D01*
X101540867Y-83265461D01*
X101424863Y-83064538D01*
X101424857Y-83064530D01*
X101365881Y-82987671D01*
X100432962Y-83920590D01*
X100415925Y-83857007D01*
X100350099Y-83742993D01*
X100257007Y-83649901D01*
X100142993Y-83584075D01*
X100079409Y-83567037D01*
X101012327Y-82634117D01*
X100935469Y-82575142D01*
X100935461Y-82575136D01*
X100734538Y-82459132D01*
X100734521Y-82459124D01*
X100520167Y-82370336D01*
X100296053Y-82310286D01*
X100296040Y-82310283D01*
X100066022Y-82280001D01*
X100066005Y-82280000D01*
X99833995Y-82280000D01*
X99833977Y-82280001D01*
X99603959Y-82310283D01*
X99603946Y-82310286D01*
X99379832Y-82370336D01*
X99165478Y-82459124D01*
X99165461Y-82459132D01*
X98964541Y-82575134D01*
X98964533Y-82575140D01*
X98887671Y-82634116D01*
X98887671Y-82634117D01*
X99820591Y-83567037D01*
X99757007Y-83584075D01*
X99642993Y-83649901D01*
X99549901Y-83742993D01*
X99484075Y-83857007D01*
X99467037Y-83920590D01*
X98534117Y-82987671D01*
X98534116Y-82987671D01*
X98475140Y-83064533D01*
X98475134Y-83064541D01*
X98359132Y-83265461D01*
X98359124Y-83265478D01*
X98270336Y-83479832D01*
X98210286Y-83703946D01*
X98210283Y-83703959D01*
X98180001Y-83933977D01*
X98180000Y-83933994D01*
X92872773Y-83933994D01*
X92871787Y-75674403D01*
X145118500Y-75674403D01*
X145118500Y-75873596D01*
X145149661Y-76070340D01*
X145149661Y-76070343D01*
X145211213Y-76259780D01*
X145224485Y-76285827D01*
X145301647Y-76437266D01*
X145418731Y-76598418D01*
X145559582Y-76739269D01*
X145720734Y-76856353D01*
X145897304Y-76946320D01*
X145898219Y-76946786D01*
X146087657Y-77008338D01*
X146087658Y-77008338D01*
X146087661Y-77008339D01*
X146284403Y-77039500D01*
X146284404Y-77039500D01*
X146483596Y-77039500D01*
X146483597Y-77039500D01*
X146680339Y-77008339D01*
X146680342Y-77008338D01*
X146680343Y-77008338D01*
X146869780Y-76946786D01*
X146869780Y-76946785D01*
X146869783Y-76946785D01*
X147047266Y-76856353D01*
X147208418Y-76739269D01*
X147349269Y-76598418D01*
X147466353Y-76437266D01*
X147543515Y-76285827D01*
X147591490Y-76235031D01*
X147659311Y-76218236D01*
X147725446Y-76240773D01*
X147764485Y-76285827D01*
X147841647Y-76437266D01*
X147958731Y-76598418D01*
X148099582Y-76739269D01*
X148260734Y-76856353D01*
X148437304Y-76946320D01*
X148438219Y-76946786D01*
X148627657Y-77008338D01*
X148627658Y-77008338D01*
X148627661Y-77008339D01*
X148824403Y-77039500D01*
X148824404Y-77039500D01*
X149023596Y-77039500D01*
X149023597Y-77039500D01*
X149220339Y-77008339D01*
X149220342Y-77008338D01*
X149220343Y-77008338D01*
X149409780Y-76946786D01*
X149409780Y-76946785D01*
X149409783Y-76946785D01*
X149587266Y-76856353D01*
X149748418Y-76739269D01*
X149889269Y-76598418D01*
X150006353Y-76437266D01*
X150083515Y-76285827D01*
X150131490Y-76235031D01*
X150199311Y-76218236D01*
X150265446Y-76240773D01*
X150304485Y-76285827D01*
X150381647Y-76437266D01*
X150498731Y-76598418D01*
X150639582Y-76739269D01*
X150800734Y-76856353D01*
X150977304Y-76946320D01*
X150978219Y-76946786D01*
X151167657Y-77008338D01*
X151167658Y-77008338D01*
X151167661Y-77008339D01*
X151364403Y-77039500D01*
X151364404Y-77039500D01*
X151563596Y-77039500D01*
X151563597Y-77039500D01*
X151760339Y-77008339D01*
X151760342Y-77008338D01*
X151760343Y-77008338D01*
X151949780Y-76946786D01*
X151949780Y-76946785D01*
X151949783Y-76946785D01*
X152127266Y-76856353D01*
X152288418Y-76739269D01*
X152429269Y-76598418D01*
X152546353Y-76437266D01*
X152623515Y-76285827D01*
X152671490Y-76235031D01*
X152739311Y-76218236D01*
X152805446Y-76240773D01*
X152844485Y-76285827D01*
X152921647Y-76437266D01*
X153038731Y-76598418D01*
X153179582Y-76739269D01*
X153340734Y-76856353D01*
X153517304Y-76946320D01*
X153518219Y-76946786D01*
X153707657Y-77008338D01*
X153707658Y-77008338D01*
X153707661Y-77008339D01*
X153904403Y-77039500D01*
X153904404Y-77039500D01*
X154103596Y-77039500D01*
X154103597Y-77039500D01*
X154300339Y-77008339D01*
X154300342Y-77008338D01*
X154300343Y-77008338D01*
X154489780Y-76946786D01*
X154489780Y-76946785D01*
X154489783Y-76946785D01*
X154667266Y-76856353D01*
X154828418Y-76739269D01*
X154969269Y-76598418D01*
X155086353Y-76437266D01*
X155163515Y-76285827D01*
X155211490Y-76235031D01*
X155279311Y-76218236D01*
X155345446Y-76240773D01*
X155384485Y-76285827D01*
X155461647Y-76437266D01*
X155578731Y-76598418D01*
X155719582Y-76739269D01*
X155880734Y-76856353D01*
X156057304Y-76946320D01*
X156058219Y-76946786D01*
X156247657Y-77008338D01*
X156247658Y-77008338D01*
X156247661Y-77008339D01*
X156444403Y-77039500D01*
X156444404Y-77039500D01*
X156643596Y-77039500D01*
X156643597Y-77039500D01*
X156840339Y-77008339D01*
X156840342Y-77008338D01*
X156840343Y-77008338D01*
X157029780Y-76946786D01*
X157029780Y-76946785D01*
X157029783Y-76946785D01*
X157207266Y-76856353D01*
X157368418Y-76739269D01*
X157509269Y-76598418D01*
X157626353Y-76437266D01*
X157703795Y-76285276D01*
X157751769Y-76234481D01*
X157819590Y-76217686D01*
X157885725Y-76240223D01*
X157924765Y-76285277D01*
X158002077Y-76437008D01*
X158029580Y-76474863D01*
X158029581Y-76474864D01*
X158592871Y-75911574D01*
X158608755Y-75970853D01*
X158675898Y-76087147D01*
X158770853Y-76182102D01*
X158887147Y-76249245D01*
X158946425Y-76265128D01*
X158383134Y-76828417D01*
X158420994Y-76855924D01*
X158598405Y-76946320D01*
X158787777Y-77007852D01*
X158984437Y-77039000D01*
X159183563Y-77039000D01*
X159380222Y-77007852D01*
X159569594Y-76946320D01*
X159747005Y-76855924D01*
X159784863Y-76828418D01*
X159784863Y-76828417D01*
X159221574Y-76265128D01*
X159280853Y-76249245D01*
X159397147Y-76182102D01*
X159492102Y-76087147D01*
X159559245Y-75970853D01*
X159575128Y-75911574D01*
X160138417Y-76474863D01*
X160138418Y-76474863D01*
X160165924Y-76437005D01*
X160243234Y-76285277D01*
X160291208Y-76234481D01*
X160359029Y-76217686D01*
X160425164Y-76240223D01*
X160464204Y-76285277D01*
X160539422Y-76432899D01*
X160541647Y-76437266D01*
X160658731Y-76598418D01*
X160799582Y-76739269D01*
X160960734Y-76856353D01*
X161137304Y-76946320D01*
X161138219Y-76946786D01*
X161327657Y-77008338D01*
X161327658Y-77008338D01*
X161327661Y-77008339D01*
X161524403Y-77039500D01*
X161524404Y-77039500D01*
X161723596Y-77039500D01*
X161723597Y-77039500D01*
X161920339Y-77008339D01*
X161920342Y-77008338D01*
X161920343Y-77008338D01*
X162109780Y-76946786D01*
X162109780Y-76946785D01*
X162109783Y-76946785D01*
X162287266Y-76856353D01*
X162448418Y-76739269D01*
X162589269Y-76598418D01*
X162706353Y-76437266D01*
X162783515Y-76285827D01*
X162831490Y-76235031D01*
X162899311Y-76218236D01*
X162965446Y-76240773D01*
X163004485Y-76285827D01*
X163081647Y-76437266D01*
X163198731Y-76598418D01*
X163339582Y-76739269D01*
X163500734Y-76856353D01*
X163677304Y-76946320D01*
X163678219Y-76946786D01*
X163867657Y-77008338D01*
X163867658Y-77008338D01*
X163867661Y-77008339D01*
X164064403Y-77039500D01*
X164064404Y-77039500D01*
X164263596Y-77039500D01*
X164263597Y-77039500D01*
X164460339Y-77008339D01*
X164460342Y-77008338D01*
X164460343Y-77008338D01*
X164649780Y-76946786D01*
X164649780Y-76946785D01*
X164649783Y-76946785D01*
X164827266Y-76856353D01*
X164988418Y-76739269D01*
X165129269Y-76598418D01*
X165246353Y-76437266D01*
X165323515Y-76285827D01*
X165371490Y-76235031D01*
X165439311Y-76218236D01*
X165505446Y-76240773D01*
X165544485Y-76285827D01*
X165621647Y-76437266D01*
X165738731Y-76598418D01*
X165879582Y-76739269D01*
X166040734Y-76856353D01*
X166217304Y-76946320D01*
X166218219Y-76946786D01*
X166407657Y-77008338D01*
X166407658Y-77008338D01*
X166407661Y-77008339D01*
X166604403Y-77039500D01*
X166604404Y-77039500D01*
X166803596Y-77039500D01*
X166803597Y-77039500D01*
X167000339Y-77008339D01*
X167000342Y-77008338D01*
X167000343Y-77008338D01*
X167189780Y-76946786D01*
X167189780Y-76946785D01*
X167189783Y-76946785D01*
X167367266Y-76856353D01*
X167528418Y-76739269D01*
X167669269Y-76598418D01*
X167786353Y-76437266D01*
X167863515Y-76285827D01*
X167911490Y-76235031D01*
X167979311Y-76218236D01*
X168045446Y-76240773D01*
X168084485Y-76285827D01*
X168161647Y-76437266D01*
X168278731Y-76598418D01*
X168419582Y-76739269D01*
X168580734Y-76856353D01*
X168757304Y-76946320D01*
X168758219Y-76946786D01*
X168947657Y-77008338D01*
X168947658Y-77008338D01*
X168947661Y-77008339D01*
X169144403Y-77039500D01*
X169144404Y-77039500D01*
X169343596Y-77039500D01*
X169343597Y-77039500D01*
X169540339Y-77008339D01*
X169540342Y-77008338D01*
X169540343Y-77008338D01*
X169729780Y-76946786D01*
X169729780Y-76946785D01*
X169729783Y-76946785D01*
X169907266Y-76856353D01*
X170068418Y-76739269D01*
X170209269Y-76598418D01*
X170326353Y-76437266D01*
X170403515Y-76285827D01*
X170451490Y-76235031D01*
X170519311Y-76218236D01*
X170585446Y-76240773D01*
X170624485Y-76285827D01*
X170701647Y-76437266D01*
X170818731Y-76598418D01*
X170959582Y-76739269D01*
X171120734Y-76856353D01*
X171297304Y-76946320D01*
X171298219Y-76946786D01*
X171487657Y-77008338D01*
X171487658Y-77008338D01*
X171487661Y-77008339D01*
X171684403Y-77039500D01*
X171684404Y-77039500D01*
X171883596Y-77039500D01*
X171883597Y-77039500D01*
X172080339Y-77008339D01*
X172080342Y-77008338D01*
X172080343Y-77008338D01*
X172269780Y-76946786D01*
X172269780Y-76946785D01*
X172269783Y-76946785D01*
X172447266Y-76856353D01*
X172608418Y-76739269D01*
X172749269Y-76598418D01*
X172866353Y-76437266D01*
X172943515Y-76285827D01*
X172991490Y-76235031D01*
X173059311Y-76218236D01*
X173125446Y-76240773D01*
X173164485Y-76285827D01*
X173241647Y-76437266D01*
X173358731Y-76598418D01*
X173499582Y-76739269D01*
X173660734Y-76856353D01*
X173837304Y-76946320D01*
X173838219Y-76946786D01*
X174027657Y-77008338D01*
X174027658Y-77008338D01*
X174027661Y-77008339D01*
X174224403Y-77039500D01*
X174224404Y-77039500D01*
X174423596Y-77039500D01*
X174423597Y-77039500D01*
X174620339Y-77008339D01*
X174620342Y-77008338D01*
X174620343Y-77008338D01*
X174809780Y-76946786D01*
X174809780Y-76946785D01*
X174809783Y-76946785D01*
X174987266Y-76856353D01*
X175148418Y-76739269D01*
X175289269Y-76598418D01*
X175406353Y-76437266D01*
X175483515Y-76285827D01*
X175531490Y-76235031D01*
X175599311Y-76218236D01*
X175665446Y-76240773D01*
X175704485Y-76285827D01*
X175781647Y-76437266D01*
X175898731Y-76598418D01*
X176039582Y-76739269D01*
X176200734Y-76856353D01*
X176377304Y-76946320D01*
X176378219Y-76946786D01*
X176567657Y-77008338D01*
X176567658Y-77008338D01*
X176567661Y-77008339D01*
X176764403Y-77039500D01*
X176764404Y-77039500D01*
X176963596Y-77039500D01*
X176963597Y-77039500D01*
X177160339Y-77008339D01*
X177160342Y-77008338D01*
X177160343Y-77008338D01*
X177349780Y-76946786D01*
X177349780Y-76946785D01*
X177349783Y-76946785D01*
X177527266Y-76856353D01*
X177688418Y-76739269D01*
X177829269Y-76598418D01*
X177946353Y-76437266D01*
X178023515Y-76285827D01*
X178071490Y-76235031D01*
X178139311Y-76218236D01*
X178205446Y-76240773D01*
X178244485Y-76285827D01*
X178321647Y-76437266D01*
X178438731Y-76598418D01*
X178579582Y-76739269D01*
X178740734Y-76856353D01*
X178917304Y-76946320D01*
X178918219Y-76946786D01*
X179107657Y-77008338D01*
X179107658Y-77008338D01*
X179107661Y-77008339D01*
X179304403Y-77039500D01*
X179304404Y-77039500D01*
X179503596Y-77039500D01*
X179503597Y-77039500D01*
X179700339Y-77008339D01*
X179700342Y-77008338D01*
X179700343Y-77008338D01*
X179889780Y-76946786D01*
X179889780Y-76946785D01*
X179889783Y-76946785D01*
X180067266Y-76856353D01*
X180228418Y-76739269D01*
X180369269Y-76598418D01*
X180486353Y-76437266D01*
X180563515Y-76285827D01*
X180611490Y-76235031D01*
X180679311Y-76218236D01*
X180745446Y-76240773D01*
X180784485Y-76285827D01*
X180861647Y-76437266D01*
X180978731Y-76598418D01*
X181119582Y-76739269D01*
X181280734Y-76856353D01*
X181457304Y-76946320D01*
X181458219Y-76946786D01*
X181647657Y-77008338D01*
X181647658Y-77008338D01*
X181647661Y-77008339D01*
X181844403Y-77039500D01*
X181844404Y-77039500D01*
X182043596Y-77039500D01*
X182043597Y-77039500D01*
X182240339Y-77008339D01*
X182240342Y-77008338D01*
X182240343Y-77008338D01*
X182429780Y-76946786D01*
X182429780Y-76946785D01*
X182429783Y-76946785D01*
X182607266Y-76856353D01*
X182768418Y-76739269D01*
X182909269Y-76598418D01*
X183026353Y-76437266D01*
X183103515Y-76285827D01*
X183151490Y-76235031D01*
X183219311Y-76218236D01*
X183285446Y-76240773D01*
X183324485Y-76285827D01*
X183401647Y-76437266D01*
X183518731Y-76598418D01*
X183659582Y-76739269D01*
X183820734Y-76856353D01*
X183997304Y-76946320D01*
X183998219Y-76946786D01*
X184187657Y-77008338D01*
X184187658Y-77008338D01*
X184187661Y-77008339D01*
X184384403Y-77039500D01*
X184384404Y-77039500D01*
X184583596Y-77039500D01*
X184583597Y-77039500D01*
X184780339Y-77008339D01*
X184780342Y-77008338D01*
X184780343Y-77008338D01*
X184969780Y-76946786D01*
X184969780Y-76946785D01*
X184969783Y-76946785D01*
X185147266Y-76856353D01*
X185308418Y-76739269D01*
X185449269Y-76598418D01*
X185566353Y-76437266D01*
X185643515Y-76285827D01*
X185691490Y-76235031D01*
X185759311Y-76218236D01*
X185825446Y-76240773D01*
X185864485Y-76285827D01*
X185941647Y-76437266D01*
X186058731Y-76598418D01*
X186199582Y-76739269D01*
X186360734Y-76856353D01*
X186537304Y-76946320D01*
X186538219Y-76946786D01*
X186727657Y-77008338D01*
X186727658Y-77008338D01*
X186727661Y-77008339D01*
X186924403Y-77039500D01*
X186924404Y-77039500D01*
X187123596Y-77039500D01*
X187123597Y-77039500D01*
X187320339Y-77008339D01*
X187320342Y-77008338D01*
X187320343Y-77008338D01*
X187509780Y-76946786D01*
X187509780Y-76946785D01*
X187509783Y-76946785D01*
X187687266Y-76856353D01*
X187848418Y-76739269D01*
X187989269Y-76598418D01*
X188106353Y-76437266D01*
X188183515Y-76285827D01*
X188231490Y-76235031D01*
X188299311Y-76218236D01*
X188365446Y-76240773D01*
X188404485Y-76285827D01*
X188481647Y-76437266D01*
X188598731Y-76598418D01*
X188739582Y-76739269D01*
X188900734Y-76856353D01*
X189077304Y-76946320D01*
X189078219Y-76946786D01*
X189267657Y-77008338D01*
X189267658Y-77008338D01*
X189267661Y-77008339D01*
X189464403Y-77039500D01*
X189464404Y-77039500D01*
X189663596Y-77039500D01*
X189663597Y-77039500D01*
X189860339Y-77008339D01*
X189860342Y-77008338D01*
X189860343Y-77008338D01*
X190049780Y-76946786D01*
X190049780Y-76946785D01*
X190049783Y-76946785D01*
X190227266Y-76856353D01*
X190388418Y-76739269D01*
X190529269Y-76598418D01*
X190614184Y-76481542D01*
X190669511Y-76438878D01*
X190739125Y-76432899D01*
X190800920Y-76465504D01*
X190835277Y-76526343D01*
X190838500Y-76554426D01*
X190838500Y-76586868D01*
X190838501Y-76586876D01*
X190844908Y-76646483D01*
X190895202Y-76781328D01*
X190895206Y-76781335D01*
X190981452Y-76896544D01*
X190981455Y-76896547D01*
X191096664Y-76982793D01*
X191096671Y-76982797D01*
X191231517Y-77033091D01*
X191231516Y-77033091D01*
X191238444Y-77033835D01*
X191291127Y-77039500D01*
X192916872Y-77039499D01*
X192976483Y-77033091D01*
X193111331Y-76982796D01*
X193226546Y-76896546D01*
X193312796Y-76781331D01*
X193363091Y-76646483D01*
X193369500Y-76586873D01*
X193369499Y-74961128D01*
X193363091Y-74901517D01*
X193312796Y-74766669D01*
X193312795Y-74766668D01*
X193312793Y-74766664D01*
X193226547Y-74651455D01*
X193226544Y-74651452D01*
X193111335Y-74565206D01*
X193111328Y-74565202D01*
X192976482Y-74514908D01*
X192976483Y-74514908D01*
X192916883Y-74508501D01*
X192916881Y-74508500D01*
X192916873Y-74508500D01*
X192916864Y-74508500D01*
X191291129Y-74508500D01*
X191291123Y-74508501D01*
X191231516Y-74514908D01*
X191096671Y-74565202D01*
X191096664Y-74565206D01*
X190981455Y-74651452D01*
X190981452Y-74651455D01*
X190895206Y-74766664D01*
X190895202Y-74766671D01*
X190844908Y-74901517D01*
X190839741Y-74949580D01*
X190838501Y-74961123D01*
X190838500Y-74961135D01*
X190838500Y-74993568D01*
X190818815Y-75060607D01*
X190766011Y-75106362D01*
X190696853Y-75116306D01*
X190633297Y-75087281D01*
X190614182Y-75066454D01*
X190561227Y-74993568D01*
X190529269Y-74949582D01*
X190388418Y-74808731D01*
X190227266Y-74691647D01*
X190148379Y-74651452D01*
X190049780Y-74601213D01*
X189860342Y-74539661D01*
X189712782Y-74516290D01*
X189663597Y-74508500D01*
X189464403Y-74508500D01*
X189398822Y-74518887D01*
X189267659Y-74539661D01*
X189267656Y-74539661D01*
X189078219Y-74601213D01*
X188900733Y-74691647D01*
X188862286Y-74719581D01*
X188739582Y-74808731D01*
X188739580Y-74808733D01*
X188739579Y-74808733D01*
X188598733Y-74949579D01*
X188598733Y-74949580D01*
X188598731Y-74949582D01*
X188566773Y-74993568D01*
X188481647Y-75110733D01*
X188404485Y-75262172D01*
X188356510Y-75312968D01*
X188288689Y-75329763D01*
X188222554Y-75307225D01*
X188183515Y-75262172D01*
X188106485Y-75110994D01*
X188106353Y-75110734D01*
X187989269Y-74949582D01*
X187848418Y-74808731D01*
X187687266Y-74691647D01*
X187608379Y-74651452D01*
X187509780Y-74601213D01*
X187320342Y-74539661D01*
X187172782Y-74516290D01*
X187123597Y-74508500D01*
X186924403Y-74508500D01*
X186858822Y-74518887D01*
X186727659Y-74539661D01*
X186727656Y-74539661D01*
X186538219Y-74601213D01*
X186360733Y-74691647D01*
X186322286Y-74719581D01*
X186199582Y-74808731D01*
X186199580Y-74808733D01*
X186199579Y-74808733D01*
X186058733Y-74949579D01*
X186058733Y-74949580D01*
X186058731Y-74949582D01*
X186026773Y-74993568D01*
X185941647Y-75110733D01*
X185864485Y-75262172D01*
X185816510Y-75312968D01*
X185748689Y-75329763D01*
X185682554Y-75307225D01*
X185643515Y-75262172D01*
X185566485Y-75110994D01*
X185566353Y-75110734D01*
X185449269Y-74949582D01*
X185308418Y-74808731D01*
X185147266Y-74691647D01*
X185068379Y-74651452D01*
X184969780Y-74601213D01*
X184780342Y-74539661D01*
X184632782Y-74516290D01*
X184583597Y-74508500D01*
X184384403Y-74508500D01*
X184318822Y-74518887D01*
X184187659Y-74539661D01*
X184187656Y-74539661D01*
X183998219Y-74601213D01*
X183820733Y-74691647D01*
X183782286Y-74719581D01*
X183659582Y-74808731D01*
X183659580Y-74808733D01*
X183659579Y-74808733D01*
X183518733Y-74949579D01*
X183518733Y-74949580D01*
X183518731Y-74949582D01*
X183486773Y-74993568D01*
X183401647Y-75110733D01*
X183324485Y-75262172D01*
X183276510Y-75312968D01*
X183208689Y-75329763D01*
X183142554Y-75307225D01*
X183103515Y-75262172D01*
X183026485Y-75110994D01*
X183026353Y-75110734D01*
X182909269Y-74949582D01*
X182768418Y-74808731D01*
X182607266Y-74691647D01*
X182528379Y-74651452D01*
X182429780Y-74601213D01*
X182240342Y-74539661D01*
X182092782Y-74516290D01*
X182043597Y-74508500D01*
X181844403Y-74508500D01*
X181778822Y-74518887D01*
X181647659Y-74539661D01*
X181647656Y-74539661D01*
X181458219Y-74601213D01*
X181280733Y-74691647D01*
X181242286Y-74719581D01*
X181119582Y-74808731D01*
X181119580Y-74808733D01*
X181119579Y-74808733D01*
X180978733Y-74949579D01*
X180978733Y-74949580D01*
X180978731Y-74949582D01*
X180946773Y-74993568D01*
X180861647Y-75110733D01*
X180784485Y-75262172D01*
X180736510Y-75312968D01*
X180668689Y-75329763D01*
X180602554Y-75307225D01*
X180563515Y-75262172D01*
X180486485Y-75110994D01*
X180486353Y-75110734D01*
X180369269Y-74949582D01*
X180228418Y-74808731D01*
X180067266Y-74691647D01*
X179988379Y-74651452D01*
X179889780Y-74601213D01*
X179700342Y-74539661D01*
X179552782Y-74516290D01*
X179503597Y-74508500D01*
X179304403Y-74508500D01*
X179238822Y-74518887D01*
X179107659Y-74539661D01*
X179107656Y-74539661D01*
X178918219Y-74601213D01*
X178740733Y-74691647D01*
X178702286Y-74719581D01*
X178579582Y-74808731D01*
X178579580Y-74808733D01*
X178579579Y-74808733D01*
X178438733Y-74949579D01*
X178438733Y-74949580D01*
X178438731Y-74949582D01*
X178406773Y-74993568D01*
X178321647Y-75110733D01*
X178244485Y-75262172D01*
X178196510Y-75312968D01*
X178128689Y-75329763D01*
X178062554Y-75307225D01*
X178023515Y-75262172D01*
X177946485Y-75110994D01*
X177946353Y-75110734D01*
X177829269Y-74949582D01*
X177688418Y-74808731D01*
X177527266Y-74691647D01*
X177448379Y-74651452D01*
X177349780Y-74601213D01*
X177160342Y-74539661D01*
X177012782Y-74516290D01*
X176963597Y-74508500D01*
X176764403Y-74508500D01*
X176698822Y-74518887D01*
X176567659Y-74539661D01*
X176567656Y-74539661D01*
X176378219Y-74601213D01*
X176200733Y-74691647D01*
X176162286Y-74719581D01*
X176039582Y-74808731D01*
X176039580Y-74808733D01*
X176039579Y-74808733D01*
X175898733Y-74949579D01*
X175898733Y-74949580D01*
X175898731Y-74949582D01*
X175866773Y-74993568D01*
X175781647Y-75110733D01*
X175704485Y-75262172D01*
X175656510Y-75312968D01*
X175588689Y-75329763D01*
X175522554Y-75307225D01*
X175483515Y-75262172D01*
X175406485Y-75110994D01*
X175406353Y-75110734D01*
X175289269Y-74949582D01*
X175148418Y-74808731D01*
X174987266Y-74691647D01*
X174908379Y-74651452D01*
X174809780Y-74601213D01*
X174620342Y-74539661D01*
X174472782Y-74516290D01*
X174423597Y-74508500D01*
X174224403Y-74508500D01*
X174158822Y-74518887D01*
X174027659Y-74539661D01*
X174027656Y-74539661D01*
X173838219Y-74601213D01*
X173660733Y-74691647D01*
X173622286Y-74719581D01*
X173499582Y-74808731D01*
X173499580Y-74808733D01*
X173499579Y-74808733D01*
X173358733Y-74949579D01*
X173358733Y-74949580D01*
X173358731Y-74949582D01*
X173326773Y-74993568D01*
X173241647Y-75110733D01*
X173164485Y-75262172D01*
X173116510Y-75312968D01*
X173048689Y-75329763D01*
X172982554Y-75307225D01*
X172943515Y-75262172D01*
X172866485Y-75110994D01*
X172866353Y-75110734D01*
X172749269Y-74949582D01*
X172608418Y-74808731D01*
X172447266Y-74691647D01*
X172368379Y-74651452D01*
X172269780Y-74601213D01*
X172080342Y-74539661D01*
X171932782Y-74516290D01*
X171883597Y-74508500D01*
X171684403Y-74508500D01*
X171618822Y-74518887D01*
X171487659Y-74539661D01*
X171487656Y-74539661D01*
X171298219Y-74601213D01*
X171120733Y-74691647D01*
X171082286Y-74719581D01*
X170959582Y-74808731D01*
X170959580Y-74808733D01*
X170959579Y-74808733D01*
X170818733Y-74949579D01*
X170818733Y-74949580D01*
X170818731Y-74949582D01*
X170786773Y-74993568D01*
X170701647Y-75110733D01*
X170624485Y-75262172D01*
X170576510Y-75312968D01*
X170508689Y-75329763D01*
X170442554Y-75307225D01*
X170403515Y-75262172D01*
X170326485Y-75110994D01*
X170326353Y-75110734D01*
X170209269Y-74949582D01*
X170068418Y-74808731D01*
X169907266Y-74691647D01*
X169828379Y-74651452D01*
X169729780Y-74601213D01*
X169540342Y-74539661D01*
X169392782Y-74516290D01*
X169343597Y-74508500D01*
X169144403Y-74508500D01*
X169078822Y-74518887D01*
X168947659Y-74539661D01*
X168947656Y-74539661D01*
X168758219Y-74601213D01*
X168580733Y-74691647D01*
X168542286Y-74719581D01*
X168419582Y-74808731D01*
X168419580Y-74808733D01*
X168419579Y-74808733D01*
X168278733Y-74949579D01*
X168278733Y-74949580D01*
X168278731Y-74949582D01*
X168246773Y-74993568D01*
X168161647Y-75110733D01*
X168084485Y-75262172D01*
X168036510Y-75312968D01*
X167968689Y-75329763D01*
X167902554Y-75307225D01*
X167863515Y-75262172D01*
X167786485Y-75110994D01*
X167786353Y-75110734D01*
X167669269Y-74949582D01*
X167528418Y-74808731D01*
X167367266Y-74691647D01*
X167288379Y-74651452D01*
X167189780Y-74601213D01*
X167000342Y-74539661D01*
X166852782Y-74516290D01*
X166803597Y-74508500D01*
X166604403Y-74508500D01*
X166538822Y-74518887D01*
X166407659Y-74539661D01*
X166407656Y-74539661D01*
X166218219Y-74601213D01*
X166040733Y-74691647D01*
X166002286Y-74719581D01*
X165879582Y-74808731D01*
X165879580Y-74808733D01*
X165879579Y-74808733D01*
X165738733Y-74949579D01*
X165738733Y-74949580D01*
X165738731Y-74949582D01*
X165706773Y-74993568D01*
X165621647Y-75110733D01*
X165544485Y-75262172D01*
X165496510Y-75312968D01*
X165428689Y-75329763D01*
X165362554Y-75307225D01*
X165323515Y-75262172D01*
X165246485Y-75110994D01*
X165246353Y-75110734D01*
X165129269Y-74949582D01*
X164988418Y-74808731D01*
X164827266Y-74691647D01*
X164748379Y-74651452D01*
X164649780Y-74601213D01*
X164460342Y-74539661D01*
X164312782Y-74516290D01*
X164263597Y-74508500D01*
X164064403Y-74508500D01*
X163998822Y-74518887D01*
X163867659Y-74539661D01*
X163867656Y-74539661D01*
X163678219Y-74601213D01*
X163500733Y-74691647D01*
X163462286Y-74719581D01*
X163339582Y-74808731D01*
X163339580Y-74808733D01*
X163339579Y-74808733D01*
X163198733Y-74949579D01*
X163198733Y-74949580D01*
X163198731Y-74949582D01*
X163166773Y-74993568D01*
X163081647Y-75110733D01*
X163004485Y-75262172D01*
X162956510Y-75312968D01*
X162888689Y-75329763D01*
X162822554Y-75307225D01*
X162783515Y-75262172D01*
X162706485Y-75110994D01*
X162706353Y-75110734D01*
X162589269Y-74949582D01*
X162448418Y-74808731D01*
X162287266Y-74691647D01*
X162208379Y-74651452D01*
X162109780Y-74601213D01*
X161920342Y-74539661D01*
X161772782Y-74516290D01*
X161723597Y-74508500D01*
X161524403Y-74508500D01*
X161458822Y-74518887D01*
X161327659Y-74539661D01*
X161327656Y-74539661D01*
X161138219Y-74601213D01*
X160960733Y-74691647D01*
X160922286Y-74719581D01*
X160799582Y-74808731D01*
X160799580Y-74808733D01*
X160799579Y-74808733D01*
X160658733Y-74949579D01*
X160658733Y-74949580D01*
X160658731Y-74949582D01*
X160626773Y-74993568D01*
X160541645Y-75110735D01*
X160464203Y-75262723D01*
X160416229Y-75313518D01*
X160348408Y-75330313D01*
X160282273Y-75307775D01*
X160243234Y-75262722D01*
X160165924Y-75110994D01*
X160138417Y-75073135D01*
X160138417Y-75073134D01*
X159575128Y-75636424D01*
X159559245Y-75577147D01*
X159492102Y-75460853D01*
X159397147Y-75365898D01*
X159280853Y-75298755D01*
X159221574Y-75282871D01*
X159784864Y-74719581D01*
X159784863Y-74719580D01*
X159747008Y-74692077D01*
X159569594Y-74601679D01*
X159380222Y-74540147D01*
X159183563Y-74509000D01*
X158984437Y-74509000D01*
X158787777Y-74540147D01*
X158598405Y-74601679D01*
X158420990Y-74692077D01*
X158383135Y-74719580D01*
X158383135Y-74719581D01*
X158946425Y-75282871D01*
X158887147Y-75298755D01*
X158770853Y-75365898D01*
X158675898Y-75460853D01*
X158608755Y-75577147D01*
X158592871Y-75636425D01*
X158029581Y-75073135D01*
X158029580Y-75073135D01*
X158002075Y-75110993D01*
X157924764Y-75262723D01*
X157876790Y-75313518D01*
X157808969Y-75330313D01*
X157742834Y-75307775D01*
X157703795Y-75262722D01*
X157626485Y-75110994D01*
X157626353Y-75110734D01*
X157509269Y-74949582D01*
X157368418Y-74808731D01*
X157207266Y-74691647D01*
X157128379Y-74651452D01*
X157029780Y-74601213D01*
X156840342Y-74539661D01*
X156692782Y-74516290D01*
X156643597Y-74508500D01*
X156444403Y-74508500D01*
X156378822Y-74518887D01*
X156247659Y-74539661D01*
X156247656Y-74539661D01*
X156058219Y-74601213D01*
X155880733Y-74691647D01*
X155842286Y-74719581D01*
X155719582Y-74808731D01*
X155719580Y-74808733D01*
X155719579Y-74808733D01*
X155578733Y-74949579D01*
X155578733Y-74949580D01*
X155578731Y-74949582D01*
X155546773Y-74993568D01*
X155461647Y-75110733D01*
X155384485Y-75262172D01*
X155336510Y-75312968D01*
X155268689Y-75329763D01*
X155202554Y-75307225D01*
X155163515Y-75262172D01*
X155086485Y-75110994D01*
X155086353Y-75110734D01*
X154969269Y-74949582D01*
X154828418Y-74808731D01*
X154667266Y-74691647D01*
X154588379Y-74651452D01*
X154489780Y-74601213D01*
X154300342Y-74539661D01*
X154152782Y-74516290D01*
X154103597Y-74508500D01*
X153904403Y-74508500D01*
X153838822Y-74518887D01*
X153707659Y-74539661D01*
X153707656Y-74539661D01*
X153518219Y-74601213D01*
X153340733Y-74691647D01*
X153302286Y-74719581D01*
X153179582Y-74808731D01*
X153179580Y-74808733D01*
X153179579Y-74808733D01*
X153038733Y-74949579D01*
X153038733Y-74949580D01*
X153038731Y-74949582D01*
X153006773Y-74993568D01*
X152921647Y-75110733D01*
X152844485Y-75262172D01*
X152796510Y-75312968D01*
X152728689Y-75329763D01*
X152662554Y-75307225D01*
X152623515Y-75262172D01*
X152546485Y-75110994D01*
X152546353Y-75110734D01*
X152429269Y-74949582D01*
X152288418Y-74808731D01*
X152127266Y-74691647D01*
X152048379Y-74651452D01*
X151949780Y-74601213D01*
X151760342Y-74539661D01*
X151612782Y-74516290D01*
X151563597Y-74508500D01*
X151364403Y-74508500D01*
X151298822Y-74518887D01*
X151167659Y-74539661D01*
X151167656Y-74539661D01*
X150978219Y-74601213D01*
X150800733Y-74691647D01*
X150762286Y-74719581D01*
X150639582Y-74808731D01*
X150639580Y-74808733D01*
X150639579Y-74808733D01*
X150498733Y-74949579D01*
X150498733Y-74949580D01*
X150498731Y-74949582D01*
X150466773Y-74993568D01*
X150381647Y-75110733D01*
X150304485Y-75262172D01*
X150256510Y-75312968D01*
X150188689Y-75329763D01*
X150122554Y-75307225D01*
X150083515Y-75262172D01*
X150006485Y-75110994D01*
X150006353Y-75110734D01*
X149889269Y-74949582D01*
X149748418Y-74808731D01*
X149587266Y-74691647D01*
X149508379Y-74651452D01*
X149409780Y-74601213D01*
X149220342Y-74539661D01*
X149072782Y-74516290D01*
X149023597Y-74508500D01*
X148824403Y-74508500D01*
X148758822Y-74518887D01*
X148627659Y-74539661D01*
X148627656Y-74539661D01*
X148438219Y-74601213D01*
X148260733Y-74691647D01*
X148222286Y-74719581D01*
X148099582Y-74808731D01*
X148099580Y-74808733D01*
X148099579Y-74808733D01*
X147958733Y-74949579D01*
X147958733Y-74949580D01*
X147958731Y-74949582D01*
X147926773Y-74993568D01*
X147841647Y-75110733D01*
X147764485Y-75262172D01*
X147716510Y-75312968D01*
X147648689Y-75329763D01*
X147582554Y-75307225D01*
X147543515Y-75262172D01*
X147466485Y-75110994D01*
X147466353Y-75110734D01*
X147349269Y-74949582D01*
X147208418Y-74808731D01*
X147047266Y-74691647D01*
X146968379Y-74651452D01*
X146869780Y-74601213D01*
X146680342Y-74539661D01*
X146532782Y-74516290D01*
X146483597Y-74508500D01*
X146284403Y-74508500D01*
X146218822Y-74518887D01*
X146087659Y-74539661D01*
X146087656Y-74539661D01*
X145898219Y-74601213D01*
X145720733Y-74691647D01*
X145682286Y-74719581D01*
X145559582Y-74808731D01*
X145559580Y-74808733D01*
X145559579Y-74808733D01*
X145418733Y-74949579D01*
X145418733Y-74949580D01*
X145418731Y-74949582D01*
X145386773Y-74993568D01*
X145301647Y-75110733D01*
X145211213Y-75288219D01*
X145149661Y-75477656D01*
X145149661Y-75477659D01*
X145118500Y-75674403D01*
X92871787Y-75674403D01*
X92870507Y-64952135D01*
X98179500Y-64952135D01*
X98179500Y-67587870D01*
X98179501Y-67587876D01*
X98185908Y-67647483D01*
X98236202Y-67782328D01*
X98236206Y-67782335D01*
X98322452Y-67897544D01*
X98322455Y-67897547D01*
X98437664Y-67983793D01*
X98437671Y-67983797D01*
X98572517Y-68034091D01*
X98572516Y-68034091D01*
X98579444Y-68034835D01*
X98632127Y-68040500D01*
X101267872Y-68040499D01*
X101327483Y-68034091D01*
X101462331Y-67983796D01*
X101577546Y-67897546D01*
X101663796Y-67782331D01*
X101714091Y-67647483D01*
X101720500Y-67587873D01*
X101720499Y-66153947D01*
X138819500Y-66153947D01*
X138819500Y-66386052D01*
X138849794Y-66616148D01*
X138909862Y-66840328D01*
X138998677Y-67054745D01*
X138998685Y-67054762D01*
X139114720Y-67255743D01*
X139114721Y-67255745D01*
X139256009Y-67439875D01*
X139256015Y-67439882D01*
X139420117Y-67603984D01*
X139420124Y-67603990D01*
X139604254Y-67745278D01*
X139604256Y-67745279D01*
X139805237Y-67861314D01*
X139805240Y-67861315D01*
X139805248Y-67861320D01*
X140019670Y-67950137D01*
X140243851Y-68010206D01*
X140462318Y-68038968D01*
X140473939Y-68040498D01*
X140473955Y-68040500D01*
X140473962Y-68040500D01*
X140706038Y-68040500D01*
X140706045Y-68040500D01*
X140936149Y-68010206D01*
X141160330Y-67950137D01*
X141374752Y-67861320D01*
X141575748Y-67745276D01*
X141759877Y-67603989D01*
X141923989Y-67439877D01*
X142065276Y-67255748D01*
X142181320Y-67054752D01*
X142270137Y-66840330D01*
X142330206Y-66616149D01*
X142360500Y-66386045D01*
X142360500Y-66153955D01*
X142330206Y-65923851D01*
X142270137Y-65699670D01*
X142181320Y-65485248D01*
X142181314Y-65485237D01*
X142065279Y-65284256D01*
X142065278Y-65284254D01*
X141923990Y-65100124D01*
X141923984Y-65100117D01*
X141759882Y-64936015D01*
X141759875Y-64936009D01*
X141575745Y-64794721D01*
X141575743Y-64794720D01*
X141374762Y-64678685D01*
X141374754Y-64678681D01*
X141374752Y-64678680D01*
X141287298Y-64642455D01*
X141160328Y-64589862D01*
X141018203Y-64551780D01*
X140936149Y-64529794D01*
X140907386Y-64526007D01*
X140706052Y-64499500D01*
X140706045Y-64499500D01*
X140473955Y-64499500D01*
X140473947Y-64499500D01*
X140243851Y-64529794D01*
X140019671Y-64589862D01*
X139805254Y-64678677D01*
X139805237Y-64678685D01*
X139604256Y-64794720D01*
X139604254Y-64794721D01*
X139420124Y-64936009D01*
X139420117Y-64936015D01*
X139256015Y-65100117D01*
X139256009Y-65100124D01*
X139114721Y-65284254D01*
X139114720Y-65284256D01*
X138998685Y-65485237D01*
X138998677Y-65485254D01*
X138909862Y-65699671D01*
X138849794Y-65923851D01*
X138819500Y-66153947D01*
X101720499Y-66153947D01*
X101720499Y-64952128D01*
X101714091Y-64892517D01*
X101677615Y-64794721D01*
X101663797Y-64757671D01*
X101663793Y-64757664D01*
X101577547Y-64642455D01*
X101577544Y-64642452D01*
X101462335Y-64556206D01*
X101462328Y-64556202D01*
X101327482Y-64505908D01*
X101327483Y-64505908D01*
X101267883Y-64499501D01*
X101267881Y-64499500D01*
X101267873Y-64499500D01*
X101267864Y-64499500D01*
X98632129Y-64499500D01*
X98632123Y-64499501D01*
X98572516Y-64505908D01*
X98437671Y-64556202D01*
X98437664Y-64556206D01*
X98322455Y-64642452D01*
X98322452Y-64642455D01*
X98236206Y-64757664D01*
X98236202Y-64757671D01*
X98185908Y-64892517D01*
X98181232Y-64936015D01*
X98179501Y-64952123D01*
X98179500Y-64952135D01*
X92870507Y-64952135D01*
X92869503Y-56542738D01*
X92869542Y-56542645D01*
X92869501Y-56527513D01*
X92869500Y-56512801D01*
X92869499Y-56512800D01*
X92869499Y-56501166D01*
X92869429Y-56500475D01*
X92868084Y-55994605D01*
X92868086Y-55993738D01*
X92868188Y-55974366D01*
X92868496Y-55973936D01*
X92868313Y-55950648D01*
X92868318Y-55949841D01*
X92868334Y-55949786D01*
X92868355Y-55947397D01*
X92868664Y-55935059D01*
X92870639Y-55856021D01*
X92873415Y-55745014D01*
X99345232Y-55745014D01*
X99345232Y-56014641D01*
X99375418Y-56282547D01*
X99375420Y-56282559D01*
X99435416Y-56545422D01*
X99435419Y-56545430D01*
X99524466Y-56799910D01*
X99641446Y-57042822D01*
X99641448Y-57042825D01*
X99784894Y-57271117D01*
X99952998Y-57481913D01*
X100143647Y-57672562D01*
X100354443Y-57840666D01*
X100582735Y-57984112D01*
X100825653Y-58101095D01*
X100994897Y-58160316D01*
X101080129Y-58190140D01*
X101080137Y-58190143D01*
X101080140Y-58190143D01*
X101080141Y-58190144D01*
X101343000Y-58250140D01*
X101610919Y-58280327D01*
X101610920Y-58280328D01*
X101610923Y-58280328D01*
X101880544Y-58280328D01*
X101880544Y-58280327D01*
X102148464Y-58250140D01*
X102411323Y-58190144D01*
X102665811Y-58101095D01*
X102908729Y-57984112D01*
X103137021Y-57840666D01*
X103347817Y-57672562D01*
X103538466Y-57481913D01*
X103706570Y-57271117D01*
X103850016Y-57042825D01*
X103850019Y-57042819D01*
X103924993Y-56887135D01*
X150414500Y-56887135D01*
X150414500Y-58682870D01*
X150414501Y-58682876D01*
X150420908Y-58742483D01*
X150471202Y-58877328D01*
X150471206Y-58877335D01*
X150557452Y-58992544D01*
X150557455Y-58992547D01*
X150672664Y-59078793D01*
X150672671Y-59078797D01*
X150804082Y-59127810D01*
X150860016Y-59169681D01*
X150884433Y-59235145D01*
X150869582Y-59303418D01*
X150848431Y-59331673D01*
X150734889Y-59445215D01*
X150609951Y-59617179D01*
X150513444Y-59806585D01*
X150447753Y-60008760D01*
X150414500Y-60218713D01*
X150414500Y-60431286D01*
X150447753Y-60641239D01*
X150513444Y-60843414D01*
X150609951Y-61032820D01*
X150734890Y-61204786D01*
X150885213Y-61355109D01*
X151057182Y-61480050D01*
X151065946Y-61484516D01*
X151116742Y-61532491D01*
X151133536Y-61600312D01*
X151110998Y-61666447D01*
X151065946Y-61705484D01*
X151057182Y-61709949D01*
X150885213Y-61834890D01*
X150734890Y-61985213D01*
X150609951Y-62157179D01*
X150513444Y-62346585D01*
X150447753Y-62548760D01*
X150414500Y-62758713D01*
X150414500Y-62971286D01*
X150447753Y-63181239D01*
X150513444Y-63383414D01*
X150609951Y-63572820D01*
X150734890Y-63744786D01*
X150885213Y-63895109D01*
X151057179Y-64020048D01*
X151057181Y-64020049D01*
X151057184Y-64020051D01*
X151246588Y-64116557D01*
X151448757Y-64182246D01*
X151658713Y-64215500D01*
X151658714Y-64215500D01*
X151871286Y-64215500D01*
X151871287Y-64215500D01*
X152081243Y-64182246D01*
X152283412Y-64116557D01*
X152472816Y-64020051D01*
X152494789Y-64004086D01*
X152644786Y-63895109D01*
X152644788Y-63895106D01*
X152644792Y-63895104D01*
X152795104Y-63744792D01*
X152795106Y-63744788D01*
X152795109Y-63744786D01*
X152920048Y-63572820D01*
X152920047Y-63572820D01*
X152920051Y-63572816D01*
X153016557Y-63383412D01*
X153082246Y-63181243D01*
X153115500Y-62971287D01*
X153115500Y-62758713D01*
X153082246Y-62548757D01*
X153016557Y-62346588D01*
X152920051Y-62157184D01*
X152920049Y-62157181D01*
X152920048Y-62157179D01*
X152795109Y-61985213D01*
X152644786Y-61834890D01*
X152472820Y-61709951D01*
X152472115Y-61709591D01*
X152464054Y-61705485D01*
X152413259Y-61657512D01*
X152396463Y-61589692D01*
X152418999Y-61523556D01*
X152464054Y-61484515D01*
X152472816Y-61480051D01*
X152494789Y-61464086D01*
X152644786Y-61355109D01*
X152644788Y-61355106D01*
X152644792Y-61355104D01*
X152795104Y-61204792D01*
X152795106Y-61204788D01*
X152795109Y-61204786D01*
X152920048Y-61032820D01*
X152920047Y-61032820D01*
X152920051Y-61032816D01*
X153016557Y-60843412D01*
X153082246Y-60641243D01*
X153115500Y-60431287D01*
X153115500Y-60218713D01*
X153082246Y-60008757D01*
X153016557Y-59806588D01*
X152920051Y-59617184D01*
X152920049Y-59617181D01*
X152920048Y-59617179D01*
X152795109Y-59445213D01*
X152681569Y-59331673D01*
X152648084Y-59270350D01*
X152653068Y-59200658D01*
X152694940Y-59144725D01*
X152725915Y-59127810D01*
X152857331Y-59078796D01*
X152972546Y-58992546D01*
X153058796Y-58877331D01*
X153109091Y-58742483D01*
X153115500Y-58682873D01*
X153115499Y-56887135D01*
X158034500Y-56887135D01*
X158034500Y-58682870D01*
X158034501Y-58682876D01*
X158040908Y-58742483D01*
X158091202Y-58877328D01*
X158091206Y-58877335D01*
X158177452Y-58992544D01*
X158177455Y-58992547D01*
X158292664Y-59078793D01*
X158292671Y-59078797D01*
X158424082Y-59127810D01*
X158480016Y-59169681D01*
X158504433Y-59235145D01*
X158489582Y-59303418D01*
X158468431Y-59331673D01*
X158354889Y-59445215D01*
X158229951Y-59617179D01*
X158133444Y-59806585D01*
X158067753Y-60008760D01*
X158034500Y-60218713D01*
X158034500Y-60431286D01*
X158067753Y-60641239D01*
X158133444Y-60843414D01*
X158229951Y-61032820D01*
X158354890Y-61204786D01*
X158505213Y-61355109D01*
X158677182Y-61480050D01*
X158685946Y-61484516D01*
X158736742Y-61532491D01*
X158753536Y-61600312D01*
X158730998Y-61666447D01*
X158685946Y-61705484D01*
X158677182Y-61709949D01*
X158505213Y-61834890D01*
X158354890Y-61985213D01*
X158229951Y-62157179D01*
X158133444Y-62346585D01*
X158067753Y-62548760D01*
X158034500Y-62758713D01*
X158034500Y-62971286D01*
X158067753Y-63181239D01*
X158133444Y-63383414D01*
X158229951Y-63572820D01*
X158354890Y-63744786D01*
X158505213Y-63895109D01*
X158677179Y-64020048D01*
X158677181Y-64020049D01*
X158677184Y-64020051D01*
X158866588Y-64116557D01*
X159068757Y-64182246D01*
X159278713Y-64215500D01*
X159278714Y-64215500D01*
X159491286Y-64215500D01*
X159491287Y-64215500D01*
X159701243Y-64182246D01*
X159903412Y-64116557D01*
X160092816Y-64020051D01*
X160114789Y-64004086D01*
X160264786Y-63895109D01*
X160264788Y-63895106D01*
X160264792Y-63895104D01*
X160415104Y-63744792D01*
X160415106Y-63744788D01*
X160415109Y-63744786D01*
X160540048Y-63572820D01*
X160540047Y-63572820D01*
X160540051Y-63572816D01*
X160636557Y-63383412D01*
X160702246Y-63181243D01*
X160735500Y-62971287D01*
X160735500Y-62758713D01*
X160702246Y-62548757D01*
X160636557Y-62346588D01*
X160540051Y-62157184D01*
X160540049Y-62157181D01*
X160540048Y-62157179D01*
X160415109Y-61985213D01*
X160264786Y-61834890D01*
X160092820Y-61709951D01*
X160092115Y-61709591D01*
X160084054Y-61705485D01*
X160033259Y-61657512D01*
X160016463Y-61589692D01*
X160038999Y-61523556D01*
X160084054Y-61484515D01*
X160092816Y-61480051D01*
X160114789Y-61464086D01*
X160264786Y-61355109D01*
X160264788Y-61355106D01*
X160264792Y-61355104D01*
X160415104Y-61204792D01*
X160415106Y-61204788D01*
X160415109Y-61204786D01*
X160540048Y-61032820D01*
X160540047Y-61032820D01*
X160540051Y-61032816D01*
X160636557Y-60843412D01*
X160702246Y-60641243D01*
X160735500Y-60431287D01*
X160735500Y-60218713D01*
X160702246Y-60008757D01*
X160636557Y-59806588D01*
X160540051Y-59617184D01*
X160540049Y-59617181D01*
X160540048Y-59617179D01*
X160415109Y-59445213D01*
X160301569Y-59331673D01*
X160268084Y-59270350D01*
X160273068Y-59200658D01*
X160314940Y-59144725D01*
X160345915Y-59127810D01*
X160477331Y-59078796D01*
X160592546Y-58992546D01*
X160678796Y-58877331D01*
X160729091Y-58742483D01*
X160735500Y-58682873D01*
X160735499Y-56887135D01*
X165654500Y-56887135D01*
X165654500Y-58682870D01*
X165654501Y-58682876D01*
X165660908Y-58742483D01*
X165711202Y-58877328D01*
X165711206Y-58877335D01*
X165797452Y-58992544D01*
X165797455Y-58992547D01*
X165912664Y-59078793D01*
X165912671Y-59078797D01*
X166044082Y-59127810D01*
X166100016Y-59169681D01*
X166124433Y-59235145D01*
X166109582Y-59303418D01*
X166088431Y-59331673D01*
X165974889Y-59445215D01*
X165849951Y-59617179D01*
X165753444Y-59806585D01*
X165687753Y-60008760D01*
X165654500Y-60218713D01*
X165654500Y-60431286D01*
X165687753Y-60641239D01*
X165753444Y-60843414D01*
X165849951Y-61032820D01*
X165974890Y-61204786D01*
X166125213Y-61355109D01*
X166297182Y-61480050D01*
X166305946Y-61484516D01*
X166356742Y-61532491D01*
X166373536Y-61600312D01*
X166350998Y-61666447D01*
X166305946Y-61705484D01*
X166297182Y-61709949D01*
X166125213Y-61834890D01*
X165974890Y-61985213D01*
X165849951Y-62157179D01*
X165753444Y-62346585D01*
X165687753Y-62548760D01*
X165654500Y-62758713D01*
X165654500Y-62971286D01*
X165687753Y-63181239D01*
X165753444Y-63383414D01*
X165849951Y-63572820D01*
X165974890Y-63744786D01*
X166125213Y-63895109D01*
X166297179Y-64020048D01*
X166297181Y-64020049D01*
X166297184Y-64020051D01*
X166486588Y-64116557D01*
X166688757Y-64182246D01*
X166898713Y-64215500D01*
X166898714Y-64215500D01*
X167111286Y-64215500D01*
X167111287Y-64215500D01*
X167321243Y-64182246D01*
X167523412Y-64116557D01*
X167712816Y-64020051D01*
X167734789Y-64004086D01*
X167884786Y-63895109D01*
X167884788Y-63895106D01*
X167884792Y-63895104D01*
X168035104Y-63744792D01*
X168035106Y-63744788D01*
X168035109Y-63744786D01*
X168160048Y-63572820D01*
X168160047Y-63572820D01*
X168160051Y-63572816D01*
X168256557Y-63383412D01*
X168322246Y-63181243D01*
X168355500Y-62971287D01*
X168355500Y-62758713D01*
X168322246Y-62548757D01*
X168256557Y-62346588D01*
X168160051Y-62157184D01*
X168160049Y-62157181D01*
X168160048Y-62157179D01*
X168035109Y-61985213D01*
X167884786Y-61834890D01*
X167712820Y-61709951D01*
X167712115Y-61709591D01*
X167704054Y-61705485D01*
X167653259Y-61657512D01*
X167636463Y-61589692D01*
X167658999Y-61523556D01*
X167704054Y-61484515D01*
X167712816Y-61480051D01*
X167734789Y-61464086D01*
X167884786Y-61355109D01*
X167884788Y-61355106D01*
X167884792Y-61355104D01*
X168035104Y-61204792D01*
X168035106Y-61204788D01*
X168035109Y-61204786D01*
X168160048Y-61032820D01*
X168160047Y-61032820D01*
X168160051Y-61032816D01*
X168256557Y-60843412D01*
X168322246Y-60641243D01*
X168355500Y-60431287D01*
X168355500Y-60218713D01*
X168322246Y-60008757D01*
X168256557Y-59806588D01*
X168160051Y-59617184D01*
X168160049Y-59617181D01*
X168160048Y-59617179D01*
X168035109Y-59445213D01*
X167921569Y-59331673D01*
X167888084Y-59270350D01*
X167893068Y-59200658D01*
X167934940Y-59144725D01*
X167965915Y-59127810D01*
X168097331Y-59078796D01*
X168212546Y-58992546D01*
X168298796Y-58877331D01*
X168349091Y-58742483D01*
X168355500Y-58682873D01*
X168355499Y-56887135D01*
X173274500Y-56887135D01*
X173274500Y-58682870D01*
X173274501Y-58682876D01*
X173280908Y-58742483D01*
X173331202Y-58877328D01*
X173331206Y-58877335D01*
X173417452Y-58992544D01*
X173417455Y-58992547D01*
X173532664Y-59078793D01*
X173532671Y-59078797D01*
X173664082Y-59127810D01*
X173720016Y-59169681D01*
X173744433Y-59235145D01*
X173729582Y-59303418D01*
X173708431Y-59331673D01*
X173594889Y-59445215D01*
X173469951Y-59617179D01*
X173373444Y-59806585D01*
X173307753Y-60008760D01*
X173274500Y-60218713D01*
X173274500Y-60431286D01*
X173307753Y-60641239D01*
X173373444Y-60843414D01*
X173469951Y-61032820D01*
X173594890Y-61204786D01*
X173745213Y-61355109D01*
X173917182Y-61480050D01*
X173925946Y-61484516D01*
X173976742Y-61532491D01*
X173993536Y-61600312D01*
X173970998Y-61666447D01*
X173925946Y-61705484D01*
X173917182Y-61709949D01*
X173745213Y-61834890D01*
X173594890Y-61985213D01*
X173469951Y-62157179D01*
X173373444Y-62346585D01*
X173307753Y-62548760D01*
X173274500Y-62758713D01*
X173274500Y-62971286D01*
X173307753Y-63181239D01*
X173373444Y-63383414D01*
X173469951Y-63572820D01*
X173594890Y-63744786D01*
X173745213Y-63895109D01*
X173917179Y-64020048D01*
X173917181Y-64020049D01*
X173917184Y-64020051D01*
X174106588Y-64116557D01*
X174308757Y-64182246D01*
X174518713Y-64215500D01*
X174518714Y-64215500D01*
X174731286Y-64215500D01*
X174731287Y-64215500D01*
X174941243Y-64182246D01*
X175143412Y-64116557D01*
X175332816Y-64020051D01*
X175354789Y-64004086D01*
X175504786Y-63895109D01*
X175504788Y-63895106D01*
X175504792Y-63895104D01*
X175655104Y-63744792D01*
X175655106Y-63744788D01*
X175655109Y-63744786D01*
X175780048Y-63572820D01*
X175780047Y-63572820D01*
X175780051Y-63572816D01*
X175876557Y-63383412D01*
X175942246Y-63181243D01*
X175975500Y-62971287D01*
X175975500Y-62758713D01*
X175942246Y-62548757D01*
X175876557Y-62346588D01*
X175780051Y-62157184D01*
X175780049Y-62157181D01*
X175780048Y-62157179D01*
X175655109Y-61985213D01*
X175504786Y-61834890D01*
X175332820Y-61709951D01*
X175332115Y-61709591D01*
X175324054Y-61705485D01*
X175273259Y-61657512D01*
X175256463Y-61589692D01*
X175278999Y-61523556D01*
X175324054Y-61484515D01*
X175332816Y-61480051D01*
X175354789Y-61464086D01*
X175504786Y-61355109D01*
X175504788Y-61355106D01*
X175504792Y-61355104D01*
X175655104Y-61204792D01*
X175655106Y-61204788D01*
X175655109Y-61204786D01*
X175780048Y-61032820D01*
X175780047Y-61032820D01*
X175780051Y-61032816D01*
X175876557Y-60843412D01*
X175942246Y-60641243D01*
X175975500Y-60431287D01*
X175975500Y-60218713D01*
X175942246Y-60008757D01*
X175876557Y-59806588D01*
X175780051Y-59617184D01*
X175780049Y-59617181D01*
X175780048Y-59617179D01*
X175655109Y-59445213D01*
X175541569Y-59331673D01*
X175508084Y-59270350D01*
X175513068Y-59200658D01*
X175554940Y-59144725D01*
X175585915Y-59127810D01*
X175717331Y-59078796D01*
X175832546Y-58992546D01*
X175918796Y-58877331D01*
X175969091Y-58742483D01*
X175975500Y-58682873D01*
X175975499Y-56887135D01*
X179624500Y-56887135D01*
X179624500Y-58682870D01*
X179624501Y-58682876D01*
X179630908Y-58742483D01*
X179681202Y-58877328D01*
X179681206Y-58877335D01*
X179767452Y-58992544D01*
X179767455Y-58992547D01*
X179882664Y-59078793D01*
X179882671Y-59078797D01*
X180014082Y-59127810D01*
X180070016Y-59169681D01*
X180094433Y-59235145D01*
X180079582Y-59303418D01*
X180058431Y-59331673D01*
X179944889Y-59445215D01*
X179819951Y-59617179D01*
X179723444Y-59806585D01*
X179657753Y-60008760D01*
X179624500Y-60218713D01*
X179624500Y-60431286D01*
X179657753Y-60641239D01*
X179723444Y-60843414D01*
X179819951Y-61032820D01*
X179944890Y-61204786D01*
X180095213Y-61355109D01*
X180267182Y-61480050D01*
X180275946Y-61484516D01*
X180326742Y-61532491D01*
X180343536Y-61600312D01*
X180320998Y-61666447D01*
X180275946Y-61705484D01*
X180267182Y-61709949D01*
X180095213Y-61834890D01*
X179944890Y-61985213D01*
X179819951Y-62157179D01*
X179723444Y-62346585D01*
X179657753Y-62548760D01*
X179624500Y-62758713D01*
X179624500Y-62971286D01*
X179657753Y-63181239D01*
X179723444Y-63383414D01*
X179819951Y-63572820D01*
X179944890Y-63744786D01*
X180095213Y-63895109D01*
X180267179Y-64020048D01*
X180267181Y-64020049D01*
X180267184Y-64020051D01*
X180456588Y-64116557D01*
X180658757Y-64182246D01*
X180868713Y-64215500D01*
X180868714Y-64215500D01*
X181081286Y-64215500D01*
X181081287Y-64215500D01*
X181291243Y-64182246D01*
X181493412Y-64116557D01*
X181682816Y-64020051D01*
X181704789Y-64004086D01*
X181854786Y-63895109D01*
X181854788Y-63895106D01*
X181854792Y-63895104D01*
X182005104Y-63744792D01*
X182005106Y-63744788D01*
X182005109Y-63744786D01*
X182130048Y-63572820D01*
X182130047Y-63572820D01*
X182130051Y-63572816D01*
X182226557Y-63383412D01*
X182292246Y-63181243D01*
X182325500Y-62971287D01*
X182325500Y-62758713D01*
X182292246Y-62548757D01*
X182226557Y-62346588D01*
X182130051Y-62157184D01*
X182130049Y-62157181D01*
X182130048Y-62157179D01*
X182005109Y-61985213D01*
X181854786Y-61834890D01*
X181682820Y-61709951D01*
X181682115Y-61709591D01*
X181674054Y-61705485D01*
X181623259Y-61657512D01*
X181606463Y-61589692D01*
X181628999Y-61523556D01*
X181674054Y-61484515D01*
X181682816Y-61480051D01*
X181704789Y-61464086D01*
X181854786Y-61355109D01*
X181854788Y-61355106D01*
X181854792Y-61355104D01*
X182005104Y-61204792D01*
X182005106Y-61204788D01*
X182005109Y-61204786D01*
X182130048Y-61032820D01*
X182130047Y-61032820D01*
X182130051Y-61032816D01*
X182226557Y-60843412D01*
X182292246Y-60641243D01*
X182325500Y-60431287D01*
X182325500Y-60218713D01*
X182292246Y-60008757D01*
X182226557Y-59806588D01*
X182130051Y-59617184D01*
X182130049Y-59617181D01*
X182130048Y-59617179D01*
X182005109Y-59445213D01*
X181891569Y-59331673D01*
X181858084Y-59270350D01*
X181863068Y-59200658D01*
X181904940Y-59144725D01*
X181935915Y-59127810D01*
X182067331Y-59078796D01*
X182182546Y-58992546D01*
X182268796Y-58877331D01*
X182319091Y-58742483D01*
X182325500Y-58682873D01*
X182325499Y-56887135D01*
X185974500Y-56887135D01*
X185974500Y-58682870D01*
X185974501Y-58682876D01*
X185980908Y-58742483D01*
X186031202Y-58877328D01*
X186031206Y-58877335D01*
X186117452Y-58992544D01*
X186117455Y-58992547D01*
X186232664Y-59078793D01*
X186232671Y-59078797D01*
X186364082Y-59127810D01*
X186420016Y-59169681D01*
X186444433Y-59235145D01*
X186429582Y-59303418D01*
X186408431Y-59331673D01*
X186294889Y-59445215D01*
X186169951Y-59617179D01*
X186073444Y-59806585D01*
X186007753Y-60008760D01*
X185974500Y-60218713D01*
X185974500Y-60431286D01*
X186007753Y-60641239D01*
X186073444Y-60843414D01*
X186169951Y-61032820D01*
X186294890Y-61204786D01*
X186445213Y-61355109D01*
X186617182Y-61480050D01*
X186625946Y-61484516D01*
X186676742Y-61532491D01*
X186693536Y-61600312D01*
X186670998Y-61666447D01*
X186625946Y-61705484D01*
X186617182Y-61709949D01*
X186445213Y-61834890D01*
X186294890Y-61985213D01*
X186169951Y-62157179D01*
X186073444Y-62346585D01*
X186007753Y-62548760D01*
X185974500Y-62758713D01*
X185974500Y-62971286D01*
X186007753Y-63181239D01*
X186073444Y-63383414D01*
X186169951Y-63572820D01*
X186294890Y-63744786D01*
X186445213Y-63895109D01*
X186617179Y-64020048D01*
X186617181Y-64020049D01*
X186617184Y-64020051D01*
X186806588Y-64116557D01*
X187008757Y-64182246D01*
X187218713Y-64215500D01*
X187218714Y-64215500D01*
X187431286Y-64215500D01*
X187431287Y-64215500D01*
X187641243Y-64182246D01*
X187843412Y-64116557D01*
X188032816Y-64020051D01*
X188054789Y-64004086D01*
X188204786Y-63895109D01*
X188204788Y-63895106D01*
X188204792Y-63895104D01*
X188355104Y-63744792D01*
X188355106Y-63744788D01*
X188355109Y-63744786D01*
X188480048Y-63572820D01*
X188480047Y-63572820D01*
X188480051Y-63572816D01*
X188576557Y-63383412D01*
X188642246Y-63181243D01*
X188675500Y-62971287D01*
X188675500Y-62758713D01*
X188642246Y-62548757D01*
X188576557Y-62346588D01*
X188480051Y-62157184D01*
X188480049Y-62157181D01*
X188480048Y-62157179D01*
X188355109Y-61985213D01*
X188204786Y-61834890D01*
X188032820Y-61709951D01*
X188032115Y-61709591D01*
X188024054Y-61705485D01*
X187973259Y-61657512D01*
X187956463Y-61589692D01*
X187978999Y-61523556D01*
X188024054Y-61484515D01*
X188032816Y-61480051D01*
X188054789Y-61464086D01*
X188204786Y-61355109D01*
X188204788Y-61355106D01*
X188204792Y-61355104D01*
X188355104Y-61204792D01*
X188355106Y-61204788D01*
X188355109Y-61204786D01*
X188480048Y-61032820D01*
X188480047Y-61032820D01*
X188480051Y-61032816D01*
X188576557Y-60843412D01*
X188642246Y-60641243D01*
X188675500Y-60431287D01*
X188675500Y-60218713D01*
X188642246Y-60008757D01*
X188576557Y-59806588D01*
X188480051Y-59617184D01*
X188480049Y-59617181D01*
X188480048Y-59617179D01*
X188355109Y-59445213D01*
X188241569Y-59331673D01*
X188208084Y-59270350D01*
X188213068Y-59200658D01*
X188254940Y-59144725D01*
X188285915Y-59127810D01*
X188417331Y-59078796D01*
X188532546Y-58992546D01*
X188618796Y-58877331D01*
X188669091Y-58742483D01*
X188675500Y-58682873D01*
X188675499Y-56887128D01*
X188670299Y-56838757D01*
X188669091Y-56827516D01*
X188618797Y-56692671D01*
X188618793Y-56692664D01*
X188532547Y-56577455D01*
X188532544Y-56577452D01*
X188417335Y-56491206D01*
X188417328Y-56491202D01*
X188282482Y-56440908D01*
X188282483Y-56440908D01*
X188222883Y-56434501D01*
X188222881Y-56434500D01*
X188222873Y-56434500D01*
X188222864Y-56434500D01*
X186427129Y-56434500D01*
X186427123Y-56434501D01*
X186367516Y-56440908D01*
X186232671Y-56491202D01*
X186232664Y-56491206D01*
X186117455Y-56577452D01*
X186117452Y-56577455D01*
X186031206Y-56692664D01*
X186031202Y-56692671D01*
X185980908Y-56827517D01*
X185974501Y-56887116D01*
X185974501Y-56887123D01*
X185974500Y-56887135D01*
X182325499Y-56887135D01*
X182325499Y-56887128D01*
X182320580Y-56841369D01*
X182319091Y-56827516D01*
X182268797Y-56692671D01*
X182268793Y-56692664D01*
X182182547Y-56577455D01*
X182182544Y-56577452D01*
X182067335Y-56491206D01*
X182067328Y-56491202D01*
X181932482Y-56440908D01*
X181932483Y-56440908D01*
X181872883Y-56434501D01*
X181872881Y-56434500D01*
X181872873Y-56434500D01*
X181872864Y-56434500D01*
X180077129Y-56434500D01*
X180077123Y-56434501D01*
X180017516Y-56440908D01*
X179882671Y-56491202D01*
X179882664Y-56491206D01*
X179767455Y-56577452D01*
X179767452Y-56577455D01*
X179681206Y-56692664D01*
X179681202Y-56692671D01*
X179630908Y-56827517D01*
X179624501Y-56887116D01*
X179624501Y-56887123D01*
X179624500Y-56887135D01*
X175975499Y-56887135D01*
X175975499Y-56887128D01*
X175970580Y-56841369D01*
X175969091Y-56827516D01*
X175918797Y-56692671D01*
X175918793Y-56692664D01*
X175832547Y-56577455D01*
X175832544Y-56577452D01*
X175717335Y-56491206D01*
X175717328Y-56491202D01*
X175582482Y-56440908D01*
X175582483Y-56440908D01*
X175522883Y-56434501D01*
X175522881Y-56434500D01*
X175522873Y-56434500D01*
X175522864Y-56434500D01*
X173727129Y-56434500D01*
X173727123Y-56434501D01*
X173667516Y-56440908D01*
X173532671Y-56491202D01*
X173532664Y-56491206D01*
X173417455Y-56577452D01*
X173417452Y-56577455D01*
X173331206Y-56692664D01*
X173331202Y-56692671D01*
X173280908Y-56827517D01*
X173274501Y-56887116D01*
X173274501Y-56887123D01*
X173274500Y-56887135D01*
X168355499Y-56887135D01*
X168355499Y-56887128D01*
X168350580Y-56841369D01*
X168349091Y-56827516D01*
X168298797Y-56692671D01*
X168298793Y-56692664D01*
X168212547Y-56577455D01*
X168212544Y-56577452D01*
X168097335Y-56491206D01*
X168097328Y-56491202D01*
X167962482Y-56440908D01*
X167962483Y-56440908D01*
X167902883Y-56434501D01*
X167902881Y-56434500D01*
X167902873Y-56434500D01*
X167902864Y-56434500D01*
X166107129Y-56434500D01*
X166107123Y-56434501D01*
X166047516Y-56440908D01*
X165912671Y-56491202D01*
X165912664Y-56491206D01*
X165797455Y-56577452D01*
X165797452Y-56577455D01*
X165711206Y-56692664D01*
X165711202Y-56692671D01*
X165660908Y-56827517D01*
X165654501Y-56887116D01*
X165654501Y-56887123D01*
X165654500Y-56887135D01*
X160735499Y-56887135D01*
X160735499Y-56887128D01*
X160730580Y-56841369D01*
X160729091Y-56827516D01*
X160678797Y-56692671D01*
X160678793Y-56692664D01*
X160592547Y-56577455D01*
X160592544Y-56577452D01*
X160477335Y-56491206D01*
X160477328Y-56491202D01*
X160342482Y-56440908D01*
X160342483Y-56440908D01*
X160282883Y-56434501D01*
X160282881Y-56434500D01*
X160282873Y-56434500D01*
X160282864Y-56434500D01*
X158487129Y-56434500D01*
X158487123Y-56434501D01*
X158427516Y-56440908D01*
X158292671Y-56491202D01*
X158292664Y-56491206D01*
X158177455Y-56577452D01*
X158177452Y-56577455D01*
X158091206Y-56692664D01*
X158091202Y-56692671D01*
X158040908Y-56827517D01*
X158034501Y-56887116D01*
X158034501Y-56887123D01*
X158034500Y-56887135D01*
X153115499Y-56887135D01*
X153115499Y-56887128D01*
X153110580Y-56841369D01*
X153109091Y-56827516D01*
X153058797Y-56692671D01*
X153058793Y-56692664D01*
X152972547Y-56577455D01*
X152972544Y-56577452D01*
X152857335Y-56491206D01*
X152857328Y-56491202D01*
X152722482Y-56440908D01*
X152722483Y-56440908D01*
X152662883Y-56434501D01*
X152662881Y-56434500D01*
X152662873Y-56434500D01*
X152662864Y-56434500D01*
X150867129Y-56434500D01*
X150867123Y-56434501D01*
X150807516Y-56440908D01*
X150672671Y-56491202D01*
X150672664Y-56491206D01*
X150557455Y-56577452D01*
X150557452Y-56577455D01*
X150471206Y-56692664D01*
X150471202Y-56692671D01*
X150420908Y-56827517D01*
X150414501Y-56887116D01*
X150414501Y-56887123D01*
X150414500Y-56887135D01*
X103924993Y-56887135D01*
X103952505Y-56830005D01*
X103952505Y-56830004D01*
X103953703Y-56827516D01*
X103966999Y-56799907D01*
X104056048Y-56545419D01*
X104116044Y-56282560D01*
X104146232Y-56014637D01*
X104146232Y-55745019D01*
X104146231Y-55745014D01*
X104146231Y-55745012D01*
X104144044Y-55725595D01*
X104142871Y-55715186D01*
X194099500Y-55715186D01*
X194099500Y-55984813D01*
X194129686Y-56252719D01*
X194129688Y-56252731D01*
X194189684Y-56515594D01*
X194189687Y-56515602D01*
X194278734Y-56770082D01*
X194395714Y-57012994D01*
X194395716Y-57012997D01*
X194539162Y-57241289D01*
X194707266Y-57452085D01*
X194897915Y-57642734D01*
X195108711Y-57810838D01*
X195337003Y-57954284D01*
X195579921Y-58071267D01*
X195771049Y-58138145D01*
X195834397Y-58160312D01*
X195834405Y-58160315D01*
X195834408Y-58160315D01*
X195834409Y-58160316D01*
X196097268Y-58220312D01*
X196365187Y-58250499D01*
X196365188Y-58250500D01*
X196365191Y-58250500D01*
X196634812Y-58250500D01*
X196634812Y-58250499D01*
X196902732Y-58220312D01*
X197165591Y-58160316D01*
X197420079Y-58071267D01*
X197662997Y-57954284D01*
X197891289Y-57810838D01*
X198102085Y-57642734D01*
X198292734Y-57452085D01*
X198460838Y-57241289D01*
X198604284Y-57012997D01*
X198721267Y-56770079D01*
X198810316Y-56515591D01*
X198870312Y-56252732D01*
X198900500Y-55984809D01*
X198900500Y-55715191D01*
X198870312Y-55447268D01*
X198810316Y-55184409D01*
X198721267Y-54929921D01*
X198604284Y-54687003D01*
X198460838Y-54458711D01*
X198292734Y-54247915D01*
X198102085Y-54057266D01*
X197891289Y-53889162D01*
X197662997Y-53745716D01*
X197662994Y-53745714D01*
X197420082Y-53628734D01*
X197165602Y-53539687D01*
X197165594Y-53539684D01*
X196968446Y-53494687D01*
X196902732Y-53479688D01*
X196902728Y-53479687D01*
X196902719Y-53479686D01*
X196634813Y-53449500D01*
X196634809Y-53449500D01*
X196365191Y-53449500D01*
X196365186Y-53449500D01*
X196097280Y-53479686D01*
X196097268Y-53479688D01*
X195834405Y-53539684D01*
X195834397Y-53539687D01*
X195579917Y-53628734D01*
X195337005Y-53745714D01*
X195108712Y-53889161D01*
X194897915Y-54057265D01*
X194707265Y-54247915D01*
X194539161Y-54458712D01*
X194395714Y-54687005D01*
X194278734Y-54929917D01*
X194189687Y-55184397D01*
X194189684Y-55184405D01*
X194129688Y-55447268D01*
X194129686Y-55447280D01*
X194099500Y-55715186D01*
X104142871Y-55715186D01*
X104116045Y-55477108D01*
X104116044Y-55477096D01*
X104056048Y-55214237D01*
X103966999Y-54959749D01*
X103850016Y-54716831D01*
X103706570Y-54488539D01*
X103538466Y-54277743D01*
X103347817Y-54087094D01*
X103137021Y-53918990D01*
X102908729Y-53775544D01*
X102908726Y-53775542D01*
X102665814Y-53658562D01*
X102411334Y-53569515D01*
X102411326Y-53569512D01*
X102214178Y-53524515D01*
X102148464Y-53509516D01*
X102148460Y-53509515D01*
X102148451Y-53509514D01*
X101880545Y-53479328D01*
X101880541Y-53479328D01*
X101610923Y-53479328D01*
X101610918Y-53479328D01*
X101343012Y-53509514D01*
X101343000Y-53509516D01*
X101080137Y-53569512D01*
X101080129Y-53569515D01*
X100825649Y-53658562D01*
X100582737Y-53775542D01*
X100354444Y-53918989D01*
X100143647Y-54087093D01*
X99952997Y-54277743D01*
X99784893Y-54488540D01*
X99641446Y-54716833D01*
X99524466Y-54959745D01*
X99435419Y-55214225D01*
X99435416Y-55214233D01*
X99375420Y-55477096D01*
X99375418Y-55477108D01*
X99345232Y-55745014D01*
X92873415Y-55745014D01*
X92873579Y-55738441D01*
X92882768Y-55370844D01*
X92883238Y-55362717D01*
X92935268Y-54790358D01*
X92936264Y-54782337D01*
X93025737Y-54214623D01*
X93027261Y-54206662D01*
X93153785Y-53646076D01*
X93155834Y-53638209D01*
X93158638Y-53628734D01*
X93318874Y-53087109D01*
X93321436Y-53079394D01*
X93354489Y-52989767D01*
X93520276Y-52540206D01*
X93523338Y-52532676D01*
X93606288Y-52346411D01*
X93757128Y-52007697D01*
X93760677Y-52000385D01*
X94028420Y-51491857D01*
X94032420Y-51484830D01*
X94332967Y-50994940D01*
X94337412Y-50988202D01*
X94669448Y-50519102D01*
X94674364Y-50512621D01*
X95036437Y-50066349D01*
X95041752Y-50060219D01*
X95432366Y-49638626D01*
X95438044Y-49632887D01*
X95855476Y-49237835D01*
X95861531Y-49232470D01*
X96303982Y-48865661D01*
X96310384Y-48860699D01*
X96775950Y-48523711D01*
X96782657Y-48519184D01*
X97269310Y-48213485D01*
X97276323Y-48209394D01*
X97781992Y-47936281D01*
X97789255Y-47932661D01*
X98311770Y-47693309D01*
X98319180Y-47690204D01*
X98856317Y-47485637D01*
X98863974Y-47483006D01*
X99413305Y-47314144D01*
X99421119Y-47312019D01*
X99980384Y-47179557D01*
X99988310Y-47177953D01*
X100555029Y-47082477D01*
X100563093Y-47081390D01*
X101134833Y-47023308D01*
X101142923Y-47022754D01*
X101719382Y-47002235D01*
X101723644Y-47002159D01*
X102325549Y-47002157D01*
X102461545Y-47002157D01*
X102461550Y-47002155D01*
X196440018Y-47001599D01*
X196645939Y-47001599D01*
X196651933Y-47001743D01*
G37*
%TD.AperFunction*%
%TD*%
M02*
