%TF.GenerationSoftware,KiCad,Pcbnew,9.0.4*%
%TF.CreationDate,2025-11-20T23:01:34-05:00*%
%TF.ProjectId,Hand_System_Rev_1,48616e64-5f53-4797-9374-656d5f526576,rev?*%
%TF.SameCoordinates,Original*%
%TF.FileFunction,Paste,Top*%
%TF.FilePolarity,Positive*%
%FSLAX46Y46*%
G04 Gerber Fmt 4.6, Leading zero omitted, Abs format (unit mm)*
G04 Created by KiCad (PCBNEW 9.0.4) date 2025-11-20 23:01:34*
%MOMM*%
%LPD*%
G01*
G04 APERTURE LIST*
G04 Aperture macros list*
%AMRoundRect*
0 Rectangle with rounded corners*
0 $1 Rounding radius*
0 $2 $3 $4 $5 $6 $7 $8 $9 X,Y pos of 4 corners*
0 Add a 4 corners polygon primitive as box body*
4,1,4,$2,$3,$4,$5,$6,$7,$8,$9,$2,$3,0*
0 Add four circle primitives for the rounded corners*
1,1,$1+$1,$2,$3*
1,1,$1+$1,$4,$5*
1,1,$1+$1,$6,$7*
1,1,$1+$1,$8,$9*
0 Add four rect primitives between the rounded corners*
20,1,$1+$1,$2,$3,$4,$5,0*
20,1,$1+$1,$4,$5,$6,$7,0*
20,1,$1+$1,$6,$7,$8,$9,0*
20,1,$1+$1,$8,$9,$2,$3,0*%
G04 Aperture macros list end*
%ADD10C,0.010000*%
%ADD11RoundRect,0.250000X-0.450000X0.262500X-0.450000X-0.262500X0.450000X-0.262500X0.450000X0.262500X0*%
%ADD12RoundRect,0.250000X-0.475000X0.250000X-0.475000X-0.250000X0.475000X-0.250000X0.475000X0.250000X0*%
%ADD13RoundRect,0.250000X0.475000X-0.250000X0.475000X0.250000X-0.475000X0.250000X-0.475000X-0.250000X0*%
%ADD14RoundRect,0.027500X-0.082500X0.352500X-0.082500X-0.352500X0.082500X-0.352500X0.082500X0.352500X0*%
%ADD15RoundRect,0.250000X0.450000X-0.262500X0.450000X0.262500X-0.450000X0.262500X-0.450000X-0.262500X0*%
%ADD16RoundRect,0.250000X-0.250000X-0.475000X0.250000X-0.475000X0.250000X0.475000X-0.250000X0.475000X0*%
%ADD17RoundRect,0.250000X0.250000X0.475000X-0.250000X0.475000X-0.250000X-0.475000X0.250000X-0.475000X0*%
G04 APERTURE END LIST*
D10*
%TO.C,U5*%
X174128000Y-118165000D02*
X173258000Y-118165000D01*
X173258000Y-117595000D01*
X174128000Y-117595000D01*
X174128000Y-118165000D01*
G36*
X174128000Y-118165000D02*
G01*
X173258000Y-118165000D01*
X173258000Y-117595000D01*
X174128000Y-117595000D01*
X174128000Y-118165000D01*
G37*
X174128000Y-118925000D02*
X173258000Y-118925000D01*
X173258000Y-118355000D01*
X174128000Y-118355000D01*
X174128000Y-118925000D01*
G36*
X174128000Y-118925000D02*
G01*
X173258000Y-118925000D01*
X173258000Y-118355000D01*
X174128000Y-118355000D01*
X174128000Y-118925000D01*
G37*
X175188000Y-118165000D02*
X174318000Y-118165000D01*
X174318000Y-117595000D01*
X175188000Y-117595000D01*
X175188000Y-118165000D01*
G36*
X175188000Y-118165000D02*
G01*
X174318000Y-118165000D01*
X174318000Y-117595000D01*
X175188000Y-117595000D01*
X175188000Y-118165000D01*
G37*
X175188000Y-118925000D02*
X174318000Y-118925000D01*
X174318000Y-118355000D01*
X175188000Y-118355000D01*
X175188000Y-118925000D01*
G36*
X175188000Y-118925000D02*
G01*
X174318000Y-118925000D01*
X174318000Y-118355000D01*
X175188000Y-118355000D01*
X175188000Y-118925000D01*
G37*
%TD*%
D11*
%TO.C,R3*%
X159385000Y-52347500D03*
X159385000Y-50522500D03*
%TD*%
%TO.C,R8*%
X187325000Y-50522500D03*
X187325000Y-52347500D03*
%TD*%
%TO.C,R7*%
X180975000Y-50522500D03*
X180975000Y-52347500D03*
%TD*%
%TO.C,R6*%
X167005000Y-50522500D03*
X167005000Y-52347500D03*
%TD*%
%TO.C,R5*%
X174625000Y-50522500D03*
X174625000Y-52347500D03*
%TD*%
%TO.C,R4*%
X151765000Y-50522500D03*
X151765000Y-52347500D03*
%TD*%
D12*
%TO.C,C7*%
X168482000Y-114448000D03*
X168482000Y-116348000D03*
%TD*%
D13*
%TO.C,C5*%
X180674000Y-117364000D03*
X180674000Y-115464000D03*
%TD*%
D14*
%TO.C,U5*%
X175423000Y-116775000D03*
X175023000Y-116775000D03*
X174623000Y-116775000D03*
X174223000Y-116775000D03*
X173823000Y-116775000D03*
X173423000Y-116775000D03*
X173023000Y-116775000D03*
X173023000Y-119745000D03*
X173423000Y-119745000D03*
X173823000Y-119745000D03*
X174223000Y-119745000D03*
X174623000Y-119745000D03*
X175023000Y-119745000D03*
X175423000Y-119745000D03*
%TD*%
D15*
%TO.C,R2*%
X185246000Y-117430000D03*
X185246000Y-115605000D03*
%TD*%
%TO.C,R1*%
X179150000Y-121898500D03*
X179150000Y-120073500D03*
%TD*%
D16*
%TO.C,C4*%
X173054000Y-124542000D03*
X174954000Y-124542000D03*
%TD*%
D13*
%TO.C,C2*%
X116666000Y-107712000D03*
X116666000Y-105812000D03*
%TD*%
D16*
%TO.C,C6*%
X172800000Y-112900000D03*
X174700000Y-112900000D03*
%TD*%
D17*
%TO.C,C3*%
X175020000Y-127082000D03*
X173120000Y-127082000D03*
%TD*%
D13*
%TO.C,C1*%
X114158000Y-107712000D03*
X114158000Y-105812000D03*
%TD*%
M02*
