M48
; DRILL file {KiCad 8.0.9} date 2025-04-13T06:26:46-0400
; FORMAT={-:-/ absolute / inch / decimal}
; #@! TF.CreationDate,2025-04-13T06:26:46-04:00
; #@! TF.GenerationSoftware,Kicad,Pcbnew,8.0.9
; #@! TF.FileFunction,Plated,1,2,PTH
FMAT,2
INCH
; #@! TA.AperFunction,Plated,PTH,ComponentDrill
T1C0.0236
; #@! TA.AperFunction,Plated,PTH,ComponentDrill
T2C0.0300
; #@! TA.AperFunction,Plated,PTH,ComponentDrill
T3C0.0315
; #@! TA.AperFunction,Plated,PTH,ComponentDrill
T4C0.0394
; #@! TA.AperFunction,Plated,PTH,ComponentDrill
T5C0.0402
%
G90
G05
T1
X3.5657Y-4.2215
X3.6247Y-4.2215
T2
X5.5132Y-3.4331
X5.5132Y-4.4331
X5.6132Y-3.4331
X5.6132Y-4.4331
X5.7132Y-3.4331
X5.7132Y-4.4331
X5.8132Y-3.4331
X5.8132Y-4.4331
X5.9132Y-3.4331
X5.9132Y-4.4331
X6.0132Y-3.4331
X6.0132Y-4.4331
X6.1132Y-3.4331
X6.1132Y-4.4331
X6.2132Y-3.4331
X6.2132Y-4.4331
X6.3132Y-3.4331
X6.3132Y-4.4331
X6.4132Y-3.4331
X6.4132Y-4.4331
X6.5132Y-3.4331
X6.5132Y-4.4331
X6.6132Y-3.4331
X6.6132Y-4.4331
X6.7132Y-3.4331
X6.7132Y-4.4331
X6.8132Y-3.4331
X6.8132Y-4.4331
X6.9132Y-3.4331
X6.9132Y-4.4331
T3
X4.0248Y-3.0565
X4.0248Y-3.1565
X4.0248Y-3.2565
X4.0248Y-3.3565
X4.0248Y-3.4565
X4.0248Y-3.5565
X4.0248Y-3.6565
X4.0248Y-3.7565
X4.5248Y-3.0565
X4.5248Y-3.1565
X4.5248Y-3.2565
X4.5248Y-3.3565
X4.5248Y-3.4565
X4.5248Y-3.5565
X4.5248Y-3.6565
X4.5248Y-3.7565
T4
X3.2921Y-3.2581
X3.2921Y-3.3581
X3.2921Y-3.4581
X3.2921Y-3.5581
X3.8819Y-2.6388
X3.9819Y-2.6388
X4.0266Y-4.9118
X4.0266Y-5.6118
X4.0819Y-2.6388
X4.3754Y-2.6388
X4.4754Y-2.6388
X4.5754Y-2.6388
X4.8688Y-2.6388
X4.9688Y-2.6388
X5.0688Y-2.6388
X5.3623Y-2.6388
X5.4623Y-2.6388
X5.5623Y-2.6388
X5.6266Y-4.9118
X5.6266Y-5.6118
X5.8557Y-2.6388
X5.9557Y-2.6388
X6.0557Y-2.6388
X6.3492Y-2.6388
X6.4492Y-2.6388
X6.5492Y-2.6388
X7.0411Y-4.6606
X7.0411Y-4.7606
X7.0411Y-4.8606
X7.0411Y-4.9606
X7.2189Y-3.0049
X7.2189Y-3.1585
X7.3189Y-3.0049
X7.3189Y-3.1585
T5
G00X3.4587Y-4.6476
M15
G01X3.4587Y-4.7657
M16
G05
G00X3.6626Y-4.6476
M15
G01X3.6626Y-4.7657
M16
G05
M30
