%TF.GenerationSoftware,KiCad,Pcbnew,8.0.9*%
%TF.CreationDate,2025-04-13T06:29:52-04:00*%
%TF.ProjectId,NathanHuang_Sp25_1,4e617468-616e-4487-9561-6e675f537032,rev?*%
%TF.SameCoordinates,Original*%
%TF.FileFunction,Copper,L1,Top*%
%TF.FilePolarity,Positive*%
%FSLAX46Y46*%
G04 Gerber Fmt 4.6, Leading zero omitted, Abs format (unit mm)*
G04 Created by KiCad (PCBNEW 8.0.9) date 2025-04-13 06:29:52*
%MOMM*%
%LPD*%
G01*
G04 APERTURE LIST*
%TA.AperFunction,ComponentPad*%
%ADD10R,1.700000X1.700000*%
%TD*%
%TA.AperFunction,ComponentPad*%
%ADD11O,1.700000X1.700000*%
%TD*%
%TA.AperFunction,ComponentPad*%
%ADD12R,1.600000X1.600000*%
%TD*%
%TA.AperFunction,ComponentPad*%
%ADD13O,1.600000X1.600000*%
%TD*%
%TA.AperFunction,ComponentPad*%
%ADD14C,1.524000*%
%TD*%
%TA.AperFunction,ComponentPad*%
%ADD15R,1.200000X1.200000*%
%TD*%
%TA.AperFunction,ComponentPad*%
%ADD16C,1.200000*%
%TD*%
%TA.AperFunction,ComponentPad*%
%ADD17R,2.020000X5.020000*%
%TD*%
%TA.AperFunction,ComponentPad*%
%ADD18O,2.020000X5.020000*%
%TD*%
%TA.AperFunction,ComponentPad*%
%ADD19R,2.540000X2.540000*%
%TD*%
%TA.AperFunction,ComponentPad*%
%ADD20C,2.540000*%
%TD*%
%TA.AperFunction,Conductor*%
%ADD21C,0.200000*%
%TD*%
G04 APERTURE END LIST*
D10*
%TO.P,M2,1,-*%
%TO.N,/THUMB_2*%
X111134000Y-67025000D03*
D11*
%TO.P,M2,2,+*%
%TO.N,7.2V*%
X113674000Y-67025000D03*
%TO.P,M2,3,PWM*%
%TO.N,GND*%
X116214000Y-67025000D03*
%TD*%
D12*
%TO.P,U3,1,GND*%
%TO.N,GND*%
X102230000Y-77635000D03*
D13*
%TO.P,U3,2,VDD*%
%TO.N,+3V3*%
X102230000Y-80175000D03*
%TO.P,U3,3,1B*%
%TO.N,Net-(U3-1B)*%
X102230000Y-82715000D03*
%TO.P,U3,4,1A*%
%TO.N,Net-(U3-1A)*%
X102230000Y-85255000D03*
%TO.P,U3,5,2A*%
%TO.N,Net-(M7--)*%
X102230000Y-87795000D03*
%TO.P,U3,6,2B*%
%TO.N,Net-(U3-2B)*%
X102230000Y-90335000D03*
%TO.P,U3,7,GND*%
%TO.N,GND*%
X102230000Y-92875000D03*
%TO.P,U3,8,VMOT*%
%TO.N,+12V*%
X102230000Y-95415000D03*
%TO.P,U3,9,~{ENABLE}*%
%TO.N,GND*%
X114930000Y-95415000D03*
%TO.P,U3,10,MS1*%
X114930000Y-92875000D03*
%TO.P,U3,11,MS2*%
X114930000Y-90335000D03*
%TO.P,U3,12,MS3*%
X114930000Y-87795000D03*
%TO.P,U3,13,~{RESET}*%
%TO.N,unconnected-(U3-~{RESET}-Pad13)*%
X114930000Y-85255000D03*
%TO.P,U3,14,~{SLEEP}*%
%TO.N,unconnected-(U3-~{SLEEP}-Pad14)*%
X114930000Y-82715000D03*
%TO.P,U3,15,STEP*%
%TO.N,/STEP_PIN*%
X114930000Y-80175000D03*
%TO.P,U3,16,DIR*%
%TO.N,/DIR_PIN*%
X114930000Y-77635000D03*
%TD*%
D14*
%TO.P,U1,1,EN*%
%TO.N,+3V3*%
X140035000Y-112600000D03*
%TO.P,U1,2,VP*%
%TO.N,unconnected-(U1-VP-Pad2)*%
X142575000Y-112600000D03*
%TO.P,U1,3,VN*%
%TO.N,unconnected-(U1-VN-Pad3)*%
X145115000Y-112600000D03*
%TO.P,U1,4,G34*%
%TO.N,/STEP_PIN*%
X147655000Y-112600000D03*
%TO.P,U1,5,G35*%
%TO.N,/DIR_PIN*%
X150195000Y-112600000D03*
%TO.P,U1,6,G32*%
%TO.N,unconnected-(U1-G32-Pad6)*%
X152735000Y-112600000D03*
%TO.P,U1,7,G33*%
%TO.N,unconnected-(U1-G33-Pad7)*%
X155275000Y-112600000D03*
%TO.P,U1,8,G25*%
%TO.N,unconnected-(U1-G25-Pad8)*%
X157815000Y-112600000D03*
%TO.P,U1,9,G26*%
%TO.N,unconnected-(U1-G26-Pad9)*%
X160355000Y-112600000D03*
%TO.P,U1,10,G27*%
%TO.N,unconnected-(U1-G27-Pad10)*%
X162895000Y-112600000D03*
%TO.P,U1,11,G14*%
%TO.N,unconnected-(U1-G14-Pad11)*%
X165435000Y-112600000D03*
%TO.P,U1,12,G12*%
%TO.N,/CW*%
X167975000Y-112600000D03*
%TO.P,U1,13,G13*%
%TO.N,/DT*%
X170515000Y-112600000D03*
%TO.P,U1,14,GND*%
%TO.N,GND*%
X173055000Y-112600000D03*
%TO.P,U1,15,5V*%
%TO.N,unconnected-(U1-5V-Pad15)*%
X175595000Y-112600000D03*
%TO.P,U1,16,G23*%
%TO.N,/THUMB_1*%
X140035000Y-87200000D03*
%TO.P,U1,17,G22*%
%TO.N,/THUMB_2*%
X142575000Y-87200000D03*
%TO.P,U1,18,TX0*%
%TO.N,unconnected-(U1-TX0-Pad18)*%
X145115000Y-87200000D03*
%TO.P,U1,19,RX0*%
%TO.N,unconnected-(U1-RX0-Pad19)*%
X147655000Y-87200000D03*
%TO.P,U1,20,G21*%
%TO.N,/INDEX*%
X150195000Y-87200000D03*
%TO.P,U1,21,G19*%
%TO.N,/MIDDLE*%
X152735000Y-87200000D03*
%TO.P,U1,22,G18*%
%TO.N,/RING*%
X155275000Y-87200000D03*
%TO.P,U1,23,D5*%
%TO.N,unconnected-(U1-D5-Pad23)*%
X157815000Y-87200000D03*
%TO.P,U1,24,TX2*%
%TO.N,unconnected-(U1-TX2-Pad24)*%
X160355000Y-87200000D03*
%TO.P,U1,25,RX2*%
%TO.N,unconnected-(U1-RX2-Pad25)*%
X162895000Y-87200000D03*
%TO.P,U1,26,G4*%
%TO.N,/PINKIE*%
X165435000Y-87200000D03*
%TO.P,U1,27,G2*%
%TO.N,/LIMIT_1*%
X167975000Y-87200000D03*
%TO.P,U1,28,G15*%
%TO.N,/LIMIT_2*%
X170515000Y-87200000D03*
%TO.P,U1,29,GND*%
%TO.N,GND*%
X173055000Y-87200000D03*
%TO.P,U1,30,3V3*%
%TO.N,+3V3*%
X175595000Y-87200000D03*
%TD*%
D10*
%TO.P,SW1,1,A*%
%TO.N,/LIMIT_1*%
X183360000Y-76325000D03*
D11*
%TO.P,SW1,2,B*%
%TO.N,+3V3*%
X185900000Y-76325000D03*
%TD*%
D10*
%TO.P,U4,1,GND*%
%TO.N,GND*%
X178845000Y-126000000D03*
D11*
%TO.P,U4,2,VCC*%
%TO.N,+3V3*%
X178845000Y-123460000D03*
%TO.P,U4,3,CW*%
%TO.N,/CW*%
X178845000Y-120920000D03*
%TO.P,U4,4,DT*%
%TO.N,/DT*%
X178845000Y-118380000D03*
%TD*%
D10*
%TO.P,M1,1,-*%
%TO.N,/THUMB_1*%
X98600000Y-67025000D03*
D11*
%TO.P,M1,2,+*%
%TO.N,7.2V*%
X101140000Y-67025000D03*
%TO.P,M1,3,PWM*%
%TO.N,GND*%
X103680000Y-67025000D03*
%TD*%
D15*
%TO.P,C1,1*%
%TO.N,+12V*%
X92067600Y-107225000D03*
D16*
%TO.P,C1,2*%
%TO.N,GND*%
X90567600Y-107225000D03*
%TD*%
D10*
%TO.P,SW2,1,A*%
%TO.N,/LIMIT_2*%
X183360000Y-80225000D03*
D11*
%TO.P,SW2,2,B*%
%TO.N,+3V3*%
X185900000Y-80225000D03*
%TD*%
D17*
%TO.P,J1,1*%
%TO.N,+12V*%
X93030000Y-119550000D03*
D18*
%TO.P,J1,2*%
%TO.N,GND*%
X87850000Y-119550000D03*
%TD*%
D19*
%TO.P,U2,1,Vin*%
%TO.N,+12V*%
X102275000Y-124760000D03*
D20*
%TO.P,U2,2,GND*%
%TO.N,GND*%
X102275000Y-142540000D03*
%TO.P,U2,3,GND*%
X142915000Y-142540000D03*
%TO.P,U2,4,Vout*%
%TO.N,7.2V*%
X142915000Y-124760000D03*
%TD*%
D10*
%TO.P,M5,1,-*%
%TO.N,/RING*%
X148736000Y-67025000D03*
D11*
%TO.P,M5,2,+*%
%TO.N,7.2V*%
X151276000Y-67025000D03*
%TO.P,M5,3,PWM*%
%TO.N,GND*%
X153816000Y-67025000D03*
%TD*%
D10*
%TO.P,M6,1,-*%
%TO.N,/PINKIE*%
X161270000Y-67025000D03*
D11*
%TO.P,M6,2,+*%
%TO.N,7.2V*%
X163810000Y-67025000D03*
%TO.P,M6,3,PWM*%
%TO.N,GND*%
X166350000Y-67025000D03*
%TD*%
D10*
%TO.P,M3,1,-*%
%TO.N,/INDEX*%
X123668000Y-67025000D03*
D11*
%TO.P,M3,2,+*%
%TO.N,7.2V*%
X126208000Y-67025000D03*
%TO.P,M3,3,PWM*%
%TO.N,GND*%
X128748000Y-67025000D03*
%TD*%
D10*
%TO.P,M4,1,-*%
%TO.N,/MIDDLE*%
X136202000Y-67025000D03*
D11*
%TO.P,M4,2,+*%
%TO.N,7.2V*%
X138742000Y-67025000D03*
%TO.P,M4,3,PWM*%
%TO.N,GND*%
X141282000Y-67025000D03*
%TD*%
D10*
%TO.P,M7,1*%
%TO.N,Net-(U3-2B)*%
X83620000Y-90375000D03*
D11*
%TO.P,M7,2,-*%
%TO.N,Net-(M7--)*%
X83620000Y-87835000D03*
%TO.P,M7,3*%
%TO.N,Net-(U3-1A)*%
X83620000Y-85295000D03*
%TO.P,M7,4*%
%TO.N,Net-(U3-1B)*%
X83620000Y-82755000D03*
%TD*%
D21*
%TO.N,Net-(U3-2B)*%
X102190000Y-90375000D02*
X102230000Y-90335000D01*
X83620000Y-90375000D02*
X102190000Y-90375000D01*
%TO.N,Net-(U3-1A)*%
X83620000Y-85295000D02*
X102190000Y-85295000D01*
X102190000Y-85295000D02*
X102230000Y-85255000D01*
%TO.N,Net-(U3-1B)*%
X83620000Y-82755000D02*
X102190000Y-82755000D01*
X102190000Y-82755000D02*
X102230000Y-82715000D01*
%TO.N,Net-(M7--)*%
X83660000Y-87795000D02*
X83620000Y-87835000D01*
X102230000Y-87795000D02*
X83660000Y-87795000D01*
%TO.N,/DIR_PIN*%
X149133000Y-111538000D02*
X148833000Y-111538000D01*
X150195000Y-112600000D02*
X149133000Y-111538000D01*
X148833000Y-111538000D02*
X114930000Y-77635000D01*
%TO.N,/LIMIT_1*%
X178850000Y-76325000D02*
X183360000Y-76325000D01*
X167975000Y-87200000D02*
X178850000Y-76325000D01*
%TO.N,/LIMIT_2*%
X177490000Y-80225000D02*
X183360000Y-80225000D01*
X170515000Y-87200000D02*
X177490000Y-80225000D01*
X170845000Y-87200000D02*
X170850000Y-87195000D01*
X170515000Y-87200000D02*
X170845000Y-87200000D01*
%TO.N,+12V*%
X92067600Y-107225000D02*
X92067600Y-118587600D01*
X92067600Y-118587600D02*
X93030000Y-119550000D01*
%TO.N,/STEP_PIN*%
X147655000Y-112600000D02*
X115230000Y-80175000D01*
X115230000Y-80175000D02*
X114930000Y-80175000D01*
%TO.N,/INDEX*%
X123668000Y-67025000D02*
X123920000Y-67025000D01*
X123920000Y-67025000D02*
X141345000Y-84450000D01*
X148745000Y-84450000D02*
X150195000Y-85900000D01*
X150195000Y-85900000D02*
X150195000Y-87200000D01*
X141345000Y-84450000D02*
X148745000Y-84450000D01*
%TO.N,7.2V*%
X113674000Y-67025000D02*
X112524000Y-65875000D01*
X150126000Y-65875000D02*
X139892000Y-65875000D01*
X138742000Y-67025000D02*
X137592000Y-65875000D01*
X125058000Y-65875000D02*
X114824000Y-65875000D01*
X151276000Y-67025000D02*
X150126000Y-65875000D01*
X152426000Y-65875000D02*
X151276000Y-67025000D01*
X102290000Y-65875000D02*
X101140000Y-67025000D01*
X126208000Y-67025000D02*
X125058000Y-65875000D01*
X137592000Y-65875000D02*
X127358000Y-65875000D01*
X114824000Y-65875000D02*
X113674000Y-67025000D01*
X162660000Y-65875000D02*
X152426000Y-65875000D01*
X139892000Y-65875000D02*
X138742000Y-67025000D01*
X163810000Y-67025000D02*
X162660000Y-65875000D01*
X127358000Y-65875000D02*
X126208000Y-67025000D01*
X112524000Y-65875000D02*
X102290000Y-65875000D01*
%TO.N,/MIDDLE*%
X136202000Y-67025000D02*
X136202000Y-70667000D01*
X136202000Y-70667000D02*
X152735000Y-87200000D01*
%TO.N,/RING*%
X148736000Y-80661000D02*
X155275000Y-87200000D01*
X148736000Y-67025000D02*
X148736000Y-80661000D01*
%TO.N,/PINKIE*%
X161270000Y-83035000D02*
X165435000Y-87200000D01*
X161270000Y-67025000D02*
X161270000Y-83035000D01*
%TO.N,/THUMB_1*%
X140035000Y-87200000D02*
X137420000Y-87200000D01*
X123020000Y-72800000D02*
X104375000Y-72800000D01*
X104375000Y-72800000D02*
X98600000Y-67025000D01*
X137420000Y-87200000D02*
X123020000Y-72800000D01*
%TO.N,/THUMB_2*%
X123570000Y-72150000D02*
X137570000Y-86150000D01*
X137570000Y-86150000D02*
X137582000Y-86138000D01*
X141513000Y-86138000D02*
X142575000Y-87200000D01*
X137582000Y-86138000D02*
X141513000Y-86138000D01*
X116259000Y-72150000D02*
X123570000Y-72150000D01*
X111134000Y-67025000D02*
X116259000Y-72150000D01*
%TO.N,+3V3*%
X150895000Y-123460000D02*
X140035000Y-112600000D01*
X82470000Y-82278654D02*
X82470000Y-92525000D01*
X84573654Y-80175000D02*
X82470000Y-82278654D01*
X82470000Y-92525000D02*
X102545000Y-112600000D01*
X178845000Y-123460000D02*
X150895000Y-123460000D01*
X175595000Y-87200000D02*
X178925000Y-87200000D01*
X102545000Y-112600000D02*
X140035000Y-112600000D01*
X102230000Y-80175000D02*
X84573654Y-80175000D01*
X185900000Y-80225000D02*
X185900000Y-76325000D01*
X178925000Y-87200000D02*
X185900000Y-80225000D01*
%TO.N,/DT*%
X170515000Y-112600000D02*
X176295000Y-118380000D01*
X176295000Y-118380000D02*
X178845000Y-118380000D01*
%TO.N,/CW*%
X167975000Y-112600000D02*
X176295000Y-120920000D01*
X176295000Y-120920000D02*
X178845000Y-120920000D01*
%TD*%
M02*
