M48
; DRILL file {KiCad 9.0.4} date 2025-10-04T11:34:04-0400
; FORMAT={-:-/ absolute / metric / decimal}
; #@! TF.CreationDate,2025-10-04T11:34:04-04:00
; #@! TF.GenerationSoftware,Kicad,Pcbnew,9.0.4
; #@! TF.FileFunction,Plated,1,2,PTH
FMAT,2
METRIC
; #@! TA.AperFunction,Plated,PTH,ViaDrill
T1C0.500
; #@! TA.AperFunction,Plated,PTH,ComponentDrill
T2C0.600
; #@! TA.AperFunction,Plated,PTH,ComponentDrill
T3C0.762
; #@! TA.AperFunction,Plated,PTH,ComponentDrill
T4C0.800
; #@! TA.AperFunction,Plated,PTH,ComponentDrill
T5C1.000
; #@! TA.AperFunction,Plated,PTH,ComponentDrill
T6C1.020
%
G90
G05
T1
X124.3Y-69.525
X124.35Y-63.95
T2
X92.623Y-124.7
X94.123Y-124.7
T3
X140.565Y-87.25
X140.565Y-112.65
X143.105Y-87.25
X143.105Y-112.65
X145.645Y-87.25
X145.645Y-112.65
X148.185Y-87.25
X148.185Y-112.65
X150.725Y-87.25
X150.725Y-112.65
X153.265Y-87.25
X153.265Y-112.65
X155.805Y-87.25
X155.805Y-112.65
X158.345Y-87.25
X158.345Y-112.65
X160.885Y-87.25
X160.885Y-112.65
X163.425Y-87.25
X163.425Y-112.65
X165.965Y-87.25
X165.965Y-112.65
X168.505Y-87.25
X168.505Y-112.65
X171.045Y-87.25
X171.045Y-112.65
X173.585Y-87.25
X173.585Y-112.65
X176.125Y-87.25
X176.125Y-112.65
T4
X102.23Y-77.635
X102.23Y-80.175
X102.23Y-82.715
X102.23Y-85.255
X102.23Y-87.795
X102.23Y-90.335
X102.23Y-92.875
X102.23Y-95.415
X114.93Y-77.635
X114.93Y-80.175
X114.93Y-82.715
X114.93Y-85.255
X114.93Y-87.795
X114.93Y-90.335
X114.93Y-92.875
X114.93Y-95.415
T5
X83.62Y-82.755
X83.62Y-85.295
X83.62Y-87.835
X83.62Y-90.375
X98.6Y-67.025
X101.14Y-67.025
X102.275Y-124.76
X102.275Y-142.54
X103.68Y-67.025
X111.449Y-67.025
X113.989Y-67.025
X116.529Y-67.025
X124.298Y-67.025
X126.838Y-67.025
X129.378Y-67.025
X136.707Y-67.025
X139.247Y-67.025
X141.787Y-67.025
X142.915Y-124.76
X142.915Y-142.54
X149.115Y-67.025
X151.655Y-67.025
X154.195Y-67.025
X161.524Y-67.025
X164.064Y-67.025
X166.604Y-67.025
X183.36Y-76.325
X183.36Y-80.225
X185.9Y-76.325
X185.9Y-80.225
X185.9Y-120.21
X185.9Y-122.75
X185.9Y-125.29
X185.9Y-127.83
T6
G00X89.105Y-109.35
M15
G01X89.105Y-112.35
M16
G05
G00X94.285Y-109.35
M15
G01X94.285Y-112.35
M16
G05
M30
