%TF.GenerationSoftware,KiCad,Pcbnew,8.0.9*%
%TF.CreationDate,2025-04-13T06:29:52-04:00*%
%TF.ProjectId,NathanHuang_Sp25_1,4e617468-616e-4487-9561-6e675f537032,rev?*%
%TF.SameCoordinates,Original*%
%TF.FileFunction,Legend,Top*%
%TF.FilePolarity,Positive*%
%FSLAX46Y46*%
G04 Gerber Fmt 4.6, Leading zero omitted, Abs format (unit mm)*
G04 Created by KiCad (PCBNEW 8.0.9) date 2025-04-13 06:29:52*
%MOMM*%
%LPD*%
G01*
G04 APERTURE LIST*
%ADD10C,0.300000*%
%ADD11C,0.150000*%
%ADD12C,0.120000*%
G04 APERTURE END LIST*
D10*
X108535225Y-62150828D02*
X109392368Y-62150828D01*
X108963796Y-63650828D02*
X108963796Y-62150828D01*
X109892367Y-63650828D02*
X109892367Y-62150828D01*
X109892367Y-62865114D02*
X110749510Y-62865114D01*
X110749510Y-63650828D02*
X110749510Y-62150828D01*
X111463796Y-62150828D02*
X111463796Y-63365114D01*
X111463796Y-63365114D02*
X111535225Y-63507971D01*
X111535225Y-63507971D02*
X111606654Y-63579400D01*
X111606654Y-63579400D02*
X111749511Y-63650828D01*
X111749511Y-63650828D02*
X112035225Y-63650828D01*
X112035225Y-63650828D02*
X112178082Y-63579400D01*
X112178082Y-63579400D02*
X112249511Y-63507971D01*
X112249511Y-63507971D02*
X112320939Y-63365114D01*
X112320939Y-63365114D02*
X112320939Y-62150828D01*
X113035225Y-63650828D02*
X113035225Y-62150828D01*
X113035225Y-62150828D02*
X113535225Y-63222257D01*
X113535225Y-63222257D02*
X114035225Y-62150828D01*
X114035225Y-62150828D02*
X114035225Y-63650828D01*
X115249511Y-62865114D02*
X115463797Y-62936542D01*
X115463797Y-62936542D02*
X115535226Y-63007971D01*
X115535226Y-63007971D02*
X115606654Y-63150828D01*
X115606654Y-63150828D02*
X115606654Y-63365114D01*
X115606654Y-63365114D02*
X115535226Y-63507971D01*
X115535226Y-63507971D02*
X115463797Y-63579400D01*
X115463797Y-63579400D02*
X115320940Y-63650828D01*
X115320940Y-63650828D02*
X114749511Y-63650828D01*
X114749511Y-63650828D02*
X114749511Y-62150828D01*
X114749511Y-62150828D02*
X115249511Y-62150828D01*
X115249511Y-62150828D02*
X115392369Y-62222257D01*
X115392369Y-62222257D02*
X115463797Y-62293685D01*
X115463797Y-62293685D02*
X115535226Y-62436542D01*
X115535226Y-62436542D02*
X115535226Y-62579400D01*
X115535226Y-62579400D02*
X115463797Y-62722257D01*
X115463797Y-62722257D02*
X115392369Y-62793685D01*
X115392369Y-62793685D02*
X115249511Y-62865114D01*
X115249511Y-62865114D02*
X114749511Y-62865114D01*
X115892369Y-63793685D02*
X117035226Y-63793685D01*
X117320940Y-62293685D02*
X117392368Y-62222257D01*
X117392368Y-62222257D02*
X117535226Y-62150828D01*
X117535226Y-62150828D02*
X117892368Y-62150828D01*
X117892368Y-62150828D02*
X118035226Y-62222257D01*
X118035226Y-62222257D02*
X118106654Y-62293685D01*
X118106654Y-62293685D02*
X118178083Y-62436542D01*
X118178083Y-62436542D02*
X118178083Y-62579400D01*
X118178083Y-62579400D02*
X118106654Y-62793685D01*
X118106654Y-62793685D02*
X117249511Y-63650828D01*
X117249511Y-63650828D02*
X118178083Y-63650828D01*
X96810225Y-62150828D02*
X97667368Y-62150828D01*
X97238796Y-63650828D02*
X97238796Y-62150828D01*
X98167367Y-63650828D02*
X98167367Y-62150828D01*
X98167367Y-62865114D02*
X99024510Y-62865114D01*
X99024510Y-63650828D02*
X99024510Y-62150828D01*
X99738796Y-62150828D02*
X99738796Y-63365114D01*
X99738796Y-63365114D02*
X99810225Y-63507971D01*
X99810225Y-63507971D02*
X99881654Y-63579400D01*
X99881654Y-63579400D02*
X100024511Y-63650828D01*
X100024511Y-63650828D02*
X100310225Y-63650828D01*
X100310225Y-63650828D02*
X100453082Y-63579400D01*
X100453082Y-63579400D02*
X100524511Y-63507971D01*
X100524511Y-63507971D02*
X100595939Y-63365114D01*
X100595939Y-63365114D02*
X100595939Y-62150828D01*
X101310225Y-63650828D02*
X101310225Y-62150828D01*
X101310225Y-62150828D02*
X101810225Y-63222257D01*
X101810225Y-63222257D02*
X102310225Y-62150828D01*
X102310225Y-62150828D02*
X102310225Y-63650828D01*
X103524511Y-62865114D02*
X103738797Y-62936542D01*
X103738797Y-62936542D02*
X103810226Y-63007971D01*
X103810226Y-63007971D02*
X103881654Y-63150828D01*
X103881654Y-63150828D02*
X103881654Y-63365114D01*
X103881654Y-63365114D02*
X103810226Y-63507971D01*
X103810226Y-63507971D02*
X103738797Y-63579400D01*
X103738797Y-63579400D02*
X103595940Y-63650828D01*
X103595940Y-63650828D02*
X103024511Y-63650828D01*
X103024511Y-63650828D02*
X103024511Y-62150828D01*
X103024511Y-62150828D02*
X103524511Y-62150828D01*
X103524511Y-62150828D02*
X103667369Y-62222257D01*
X103667369Y-62222257D02*
X103738797Y-62293685D01*
X103738797Y-62293685D02*
X103810226Y-62436542D01*
X103810226Y-62436542D02*
X103810226Y-62579400D01*
X103810226Y-62579400D02*
X103738797Y-62722257D01*
X103738797Y-62722257D02*
X103667369Y-62793685D01*
X103667369Y-62793685D02*
X103524511Y-62865114D01*
X103524511Y-62865114D02*
X103024511Y-62865114D01*
X104167369Y-63793685D02*
X105310226Y-63793685D01*
X106453083Y-63650828D02*
X105595940Y-63650828D01*
X106024511Y-63650828D02*
X106024511Y-62150828D01*
X106024511Y-62150828D02*
X105881654Y-62365114D01*
X105881654Y-62365114D02*
X105738797Y-62507971D01*
X105738797Y-62507971D02*
X105595940Y-62579400D01*
X121474510Y-63650828D02*
X121474510Y-62150828D01*
X122188796Y-63650828D02*
X122188796Y-62150828D01*
X122188796Y-62150828D02*
X123045939Y-63650828D01*
X123045939Y-63650828D02*
X123045939Y-62150828D01*
X123760225Y-63650828D02*
X123760225Y-62150828D01*
X123760225Y-62150828D02*
X124117368Y-62150828D01*
X124117368Y-62150828D02*
X124331654Y-62222257D01*
X124331654Y-62222257D02*
X124474511Y-62365114D01*
X124474511Y-62365114D02*
X124545940Y-62507971D01*
X124545940Y-62507971D02*
X124617368Y-62793685D01*
X124617368Y-62793685D02*
X124617368Y-63007971D01*
X124617368Y-63007971D02*
X124545940Y-63293685D01*
X124545940Y-63293685D02*
X124474511Y-63436542D01*
X124474511Y-63436542D02*
X124331654Y-63579400D01*
X124331654Y-63579400D02*
X124117368Y-63650828D01*
X124117368Y-63650828D02*
X123760225Y-63650828D01*
X125260225Y-62865114D02*
X125760225Y-62865114D01*
X125974511Y-63650828D02*
X125260225Y-63650828D01*
X125260225Y-63650828D02*
X125260225Y-62150828D01*
X125260225Y-62150828D02*
X125974511Y-62150828D01*
X126474511Y-62150828D02*
X127474511Y-63650828D01*
X127474511Y-62150828D02*
X126474511Y-63650828D01*
X134374510Y-63650828D02*
X134374510Y-62150828D01*
X134374510Y-62150828D02*
X134874510Y-63222257D01*
X134874510Y-63222257D02*
X135374510Y-62150828D01*
X135374510Y-62150828D02*
X135374510Y-63650828D01*
X136088796Y-63650828D02*
X136088796Y-62150828D01*
X136803082Y-63650828D02*
X136803082Y-62150828D01*
X136803082Y-62150828D02*
X137160225Y-62150828D01*
X137160225Y-62150828D02*
X137374511Y-62222257D01*
X137374511Y-62222257D02*
X137517368Y-62365114D01*
X137517368Y-62365114D02*
X137588797Y-62507971D01*
X137588797Y-62507971D02*
X137660225Y-62793685D01*
X137660225Y-62793685D02*
X137660225Y-63007971D01*
X137660225Y-63007971D02*
X137588797Y-63293685D01*
X137588797Y-63293685D02*
X137517368Y-63436542D01*
X137517368Y-63436542D02*
X137374511Y-63579400D01*
X137374511Y-63579400D02*
X137160225Y-63650828D01*
X137160225Y-63650828D02*
X136803082Y-63650828D01*
X138303082Y-63650828D02*
X138303082Y-62150828D01*
X138303082Y-62150828D02*
X138660225Y-62150828D01*
X138660225Y-62150828D02*
X138874511Y-62222257D01*
X138874511Y-62222257D02*
X139017368Y-62365114D01*
X139017368Y-62365114D02*
X139088797Y-62507971D01*
X139088797Y-62507971D02*
X139160225Y-62793685D01*
X139160225Y-62793685D02*
X139160225Y-63007971D01*
X139160225Y-63007971D02*
X139088797Y-63293685D01*
X139088797Y-63293685D02*
X139017368Y-63436542D01*
X139017368Y-63436542D02*
X138874511Y-63579400D01*
X138874511Y-63579400D02*
X138660225Y-63650828D01*
X138660225Y-63650828D02*
X138303082Y-63650828D01*
X140517368Y-63650828D02*
X139803082Y-63650828D01*
X139803082Y-63650828D02*
X139803082Y-62150828D01*
X141017368Y-62865114D02*
X141517368Y-62865114D01*
X141731654Y-63650828D02*
X141017368Y-63650828D01*
X141017368Y-63650828D02*
X141017368Y-62150828D01*
X141017368Y-62150828D02*
X141731654Y-62150828D01*
X148156653Y-63650828D02*
X147656653Y-62936542D01*
X147299510Y-63650828D02*
X147299510Y-62150828D01*
X147299510Y-62150828D02*
X147870939Y-62150828D01*
X147870939Y-62150828D02*
X148013796Y-62222257D01*
X148013796Y-62222257D02*
X148085225Y-62293685D01*
X148085225Y-62293685D02*
X148156653Y-62436542D01*
X148156653Y-62436542D02*
X148156653Y-62650828D01*
X148156653Y-62650828D02*
X148085225Y-62793685D01*
X148085225Y-62793685D02*
X148013796Y-62865114D01*
X148013796Y-62865114D02*
X147870939Y-62936542D01*
X147870939Y-62936542D02*
X147299510Y-62936542D01*
X148799510Y-63650828D02*
X148799510Y-62150828D01*
X149513796Y-63650828D02*
X149513796Y-62150828D01*
X149513796Y-62150828D02*
X150370939Y-63650828D01*
X150370939Y-63650828D02*
X150370939Y-62150828D01*
X151870940Y-62222257D02*
X151728083Y-62150828D01*
X151728083Y-62150828D02*
X151513797Y-62150828D01*
X151513797Y-62150828D02*
X151299511Y-62222257D01*
X151299511Y-62222257D02*
X151156654Y-62365114D01*
X151156654Y-62365114D02*
X151085225Y-62507971D01*
X151085225Y-62507971D02*
X151013797Y-62793685D01*
X151013797Y-62793685D02*
X151013797Y-63007971D01*
X151013797Y-63007971D02*
X151085225Y-63293685D01*
X151085225Y-63293685D02*
X151156654Y-63436542D01*
X151156654Y-63436542D02*
X151299511Y-63579400D01*
X151299511Y-63579400D02*
X151513797Y-63650828D01*
X151513797Y-63650828D02*
X151656654Y-63650828D01*
X151656654Y-63650828D02*
X151870940Y-63579400D01*
X151870940Y-63579400D02*
X151942368Y-63507971D01*
X151942368Y-63507971D02*
X151942368Y-63007971D01*
X151942368Y-63007971D02*
X151656654Y-63007971D01*
X160624510Y-63650828D02*
X160624510Y-62150828D01*
X160624510Y-62150828D02*
X161195939Y-62150828D01*
X161195939Y-62150828D02*
X161338796Y-62222257D01*
X161338796Y-62222257D02*
X161410225Y-62293685D01*
X161410225Y-62293685D02*
X161481653Y-62436542D01*
X161481653Y-62436542D02*
X161481653Y-62650828D01*
X161481653Y-62650828D02*
X161410225Y-62793685D01*
X161410225Y-62793685D02*
X161338796Y-62865114D01*
X161338796Y-62865114D02*
X161195939Y-62936542D01*
X161195939Y-62936542D02*
X160624510Y-62936542D01*
X162124510Y-63650828D02*
X162124510Y-62150828D01*
X162838796Y-63650828D02*
X162838796Y-62150828D01*
X162838796Y-62150828D02*
X163695939Y-63650828D01*
X163695939Y-63650828D02*
X163695939Y-62150828D01*
X164410225Y-63650828D02*
X164410225Y-62150828D01*
X165267368Y-63650828D02*
X164624511Y-62793685D01*
X165267368Y-62150828D02*
X164410225Y-63007971D01*
X165910225Y-63650828D02*
X165910225Y-62150828D01*
X166624511Y-62865114D02*
X167124511Y-62865114D01*
X167338797Y-63650828D02*
X166624511Y-63650828D01*
X166624511Y-63650828D02*
X166624511Y-62150828D01*
X166624511Y-62150828D02*
X167338797Y-62150828D01*
D11*
X109258819Y-67834523D02*
X108258819Y-67834523D01*
X108258819Y-67834523D02*
X108973104Y-67501190D01*
X108973104Y-67501190D02*
X108258819Y-67167857D01*
X108258819Y-67167857D02*
X109258819Y-67167857D01*
X108354057Y-66739285D02*
X108306438Y-66691666D01*
X108306438Y-66691666D02*
X108258819Y-66596428D01*
X108258819Y-66596428D02*
X108258819Y-66358333D01*
X108258819Y-66358333D02*
X108306438Y-66263095D01*
X108306438Y-66263095D02*
X108354057Y-66215476D01*
X108354057Y-66215476D02*
X108449295Y-66167857D01*
X108449295Y-66167857D02*
X108544533Y-66167857D01*
X108544533Y-66167857D02*
X108687390Y-66215476D01*
X108687390Y-66215476D02*
X109258819Y-66786904D01*
X109258819Y-66786904D02*
X109258819Y-66167857D01*
X178458095Y-131304819D02*
X178458095Y-130304819D01*
X178458095Y-130781009D02*
X179029523Y-130781009D01*
X179029523Y-131304819D02*
X179029523Y-130304819D01*
X179934285Y-130638152D02*
X179934285Y-131304819D01*
X179696190Y-130257200D02*
X179458095Y-130971485D01*
X179458095Y-130971485D02*
X180077142Y-130971485D01*
X107818095Y-74549819D02*
X107818095Y-75359342D01*
X107818095Y-75359342D02*
X107865714Y-75454580D01*
X107865714Y-75454580D02*
X107913333Y-75502200D01*
X107913333Y-75502200D02*
X108008571Y-75549819D01*
X108008571Y-75549819D02*
X108199047Y-75549819D01*
X108199047Y-75549819D02*
X108294285Y-75502200D01*
X108294285Y-75502200D02*
X108341904Y-75454580D01*
X108341904Y-75454580D02*
X108389523Y-75359342D01*
X108389523Y-75359342D02*
X108389523Y-74549819D01*
X108770476Y-74549819D02*
X109389523Y-74549819D01*
X109389523Y-74549819D02*
X109056190Y-74930771D01*
X109056190Y-74930771D02*
X109199047Y-74930771D01*
X109199047Y-74930771D02*
X109294285Y-74978390D01*
X109294285Y-74978390D02*
X109341904Y-75026009D01*
X109341904Y-75026009D02*
X109389523Y-75121247D01*
X109389523Y-75121247D02*
X109389523Y-75359342D01*
X109389523Y-75359342D02*
X109341904Y-75454580D01*
X109341904Y-75454580D02*
X109294285Y-75502200D01*
X109294285Y-75502200D02*
X109199047Y-75549819D01*
X109199047Y-75549819D02*
X108913333Y-75549819D01*
X108913333Y-75549819D02*
X108818095Y-75502200D01*
X108818095Y-75502200D02*
X108770476Y-75454580D01*
X178458095Y-61304819D02*
X178458095Y-60304819D01*
X178458095Y-60781009D02*
X179029523Y-60781009D01*
X179029523Y-61304819D02*
X179029523Y-60304819D01*
X179410476Y-60304819D02*
X180029523Y-60304819D01*
X180029523Y-60304819D02*
X179696190Y-60685771D01*
X179696190Y-60685771D02*
X179839047Y-60685771D01*
X179839047Y-60685771D02*
X179934285Y-60733390D01*
X179934285Y-60733390D02*
X179981904Y-60781009D01*
X179981904Y-60781009D02*
X180029523Y-60876247D01*
X180029523Y-60876247D02*
X180029523Y-61114342D01*
X180029523Y-61114342D02*
X179981904Y-61209580D01*
X179981904Y-61209580D02*
X179934285Y-61257200D01*
X179934285Y-61257200D02*
X179839047Y-61304819D01*
X179839047Y-61304819D02*
X179553333Y-61304819D01*
X179553333Y-61304819D02*
X179458095Y-61257200D01*
X179458095Y-61257200D02*
X179410476Y-61209580D01*
X186479819Y-99391904D02*
X187289342Y-99391904D01*
X187289342Y-99391904D02*
X187384580Y-99344285D01*
X187384580Y-99344285D02*
X187432200Y-99296666D01*
X187432200Y-99296666D02*
X187479819Y-99201428D01*
X187479819Y-99201428D02*
X187479819Y-99010952D01*
X187479819Y-99010952D02*
X187432200Y-98915714D01*
X187432200Y-98915714D02*
X187384580Y-98868095D01*
X187384580Y-98868095D02*
X187289342Y-98820476D01*
X187289342Y-98820476D02*
X186479819Y-98820476D01*
X187479819Y-97820476D02*
X187479819Y-98391904D01*
X187479819Y-98106190D02*
X186479819Y-98106190D01*
X186479819Y-98106190D02*
X186622676Y-98201428D01*
X186622676Y-98201428D02*
X186717914Y-98296666D01*
X186717914Y-98296666D02*
X186765533Y-98391904D01*
X174256009Y-103804761D02*
X174256009Y-103471428D01*
X174779819Y-103328571D02*
X174779819Y-103804761D01*
X174779819Y-103804761D02*
X173779819Y-103804761D01*
X173779819Y-103804761D02*
X173779819Y-103328571D01*
X174732200Y-102947618D02*
X174779819Y-102804761D01*
X174779819Y-102804761D02*
X174779819Y-102566666D01*
X174779819Y-102566666D02*
X174732200Y-102471428D01*
X174732200Y-102471428D02*
X174684580Y-102423809D01*
X174684580Y-102423809D02*
X174589342Y-102376190D01*
X174589342Y-102376190D02*
X174494104Y-102376190D01*
X174494104Y-102376190D02*
X174398866Y-102423809D01*
X174398866Y-102423809D02*
X174351247Y-102471428D01*
X174351247Y-102471428D02*
X174303628Y-102566666D01*
X174303628Y-102566666D02*
X174256009Y-102757142D01*
X174256009Y-102757142D02*
X174208390Y-102852380D01*
X174208390Y-102852380D02*
X174160771Y-102899999D01*
X174160771Y-102899999D02*
X174065533Y-102947618D01*
X174065533Y-102947618D02*
X173970295Y-102947618D01*
X173970295Y-102947618D02*
X173875057Y-102899999D01*
X173875057Y-102899999D02*
X173827438Y-102852380D01*
X173827438Y-102852380D02*
X173779819Y-102757142D01*
X173779819Y-102757142D02*
X173779819Y-102519047D01*
X173779819Y-102519047D02*
X173827438Y-102376190D01*
X174779819Y-101947618D02*
X173779819Y-101947618D01*
X173779819Y-101947618D02*
X173779819Y-101566666D01*
X173779819Y-101566666D02*
X173827438Y-101471428D01*
X173827438Y-101471428D02*
X173875057Y-101423809D01*
X173875057Y-101423809D02*
X173970295Y-101376190D01*
X173970295Y-101376190D02*
X174113152Y-101376190D01*
X174113152Y-101376190D02*
X174208390Y-101423809D01*
X174208390Y-101423809D02*
X174256009Y-101471428D01*
X174256009Y-101471428D02*
X174303628Y-101566666D01*
X174303628Y-101566666D02*
X174303628Y-101947618D01*
X173779819Y-101042856D02*
X173779819Y-100423809D01*
X173779819Y-100423809D02*
X174160771Y-100757142D01*
X174160771Y-100757142D02*
X174160771Y-100614285D01*
X174160771Y-100614285D02*
X174208390Y-100519047D01*
X174208390Y-100519047D02*
X174256009Y-100471428D01*
X174256009Y-100471428D02*
X174351247Y-100423809D01*
X174351247Y-100423809D02*
X174589342Y-100423809D01*
X174589342Y-100423809D02*
X174684580Y-100471428D01*
X174684580Y-100471428D02*
X174732200Y-100519047D01*
X174732200Y-100519047D02*
X174779819Y-100614285D01*
X174779819Y-100614285D02*
X174779819Y-100899999D01*
X174779819Y-100899999D02*
X174732200Y-100995237D01*
X174732200Y-100995237D02*
X174684580Y-101042856D01*
X173875057Y-100042856D02*
X173827438Y-99995237D01*
X173827438Y-99995237D02*
X173779819Y-99899999D01*
X173779819Y-99899999D02*
X173779819Y-99661904D01*
X173779819Y-99661904D02*
X173827438Y-99566666D01*
X173827438Y-99566666D02*
X173875057Y-99519047D01*
X173875057Y-99519047D02*
X173970295Y-99471428D01*
X173970295Y-99471428D02*
X174065533Y-99471428D01*
X174065533Y-99471428D02*
X174208390Y-99519047D01*
X174208390Y-99519047D02*
X174779819Y-100090475D01*
X174779819Y-100090475D02*
X174779819Y-99471428D01*
X174779819Y-98280951D02*
X173779819Y-98280951D01*
X173779819Y-98280951D02*
X173779819Y-98042856D01*
X173779819Y-98042856D02*
X173827438Y-97899999D01*
X173827438Y-97899999D02*
X173922676Y-97804761D01*
X173922676Y-97804761D02*
X174017914Y-97757142D01*
X174017914Y-97757142D02*
X174208390Y-97709523D01*
X174208390Y-97709523D02*
X174351247Y-97709523D01*
X174351247Y-97709523D02*
X174541723Y-97757142D01*
X174541723Y-97757142D02*
X174636961Y-97804761D01*
X174636961Y-97804761D02*
X174732200Y-97899999D01*
X174732200Y-97899999D02*
X174779819Y-98042856D01*
X174779819Y-98042856D02*
X174779819Y-98280951D01*
X174256009Y-97280951D02*
X174256009Y-96947618D01*
X174779819Y-96804761D02*
X174779819Y-97280951D01*
X174779819Y-97280951D02*
X173779819Y-97280951D01*
X173779819Y-97280951D02*
X173779819Y-96804761D01*
X173779819Y-96519046D02*
X174779819Y-96185713D01*
X174779819Y-96185713D02*
X173779819Y-95852380D01*
X181437200Y-77658332D02*
X181484819Y-77515475D01*
X181484819Y-77515475D02*
X181484819Y-77277380D01*
X181484819Y-77277380D02*
X181437200Y-77182142D01*
X181437200Y-77182142D02*
X181389580Y-77134523D01*
X181389580Y-77134523D02*
X181294342Y-77086904D01*
X181294342Y-77086904D02*
X181199104Y-77086904D01*
X181199104Y-77086904D02*
X181103866Y-77134523D01*
X181103866Y-77134523D02*
X181056247Y-77182142D01*
X181056247Y-77182142D02*
X181008628Y-77277380D01*
X181008628Y-77277380D02*
X180961009Y-77467856D01*
X180961009Y-77467856D02*
X180913390Y-77563094D01*
X180913390Y-77563094D02*
X180865771Y-77610713D01*
X180865771Y-77610713D02*
X180770533Y-77658332D01*
X180770533Y-77658332D02*
X180675295Y-77658332D01*
X180675295Y-77658332D02*
X180580057Y-77610713D01*
X180580057Y-77610713D02*
X180532438Y-77563094D01*
X180532438Y-77563094D02*
X180484819Y-77467856D01*
X180484819Y-77467856D02*
X180484819Y-77229761D01*
X180484819Y-77229761D02*
X180532438Y-77086904D01*
X180484819Y-76753570D02*
X181484819Y-76515475D01*
X181484819Y-76515475D02*
X180770533Y-76324999D01*
X180770533Y-76324999D02*
X181484819Y-76134523D01*
X181484819Y-76134523D02*
X180484819Y-75896428D01*
X181484819Y-74991666D02*
X181484819Y-75563094D01*
X181484819Y-75277380D02*
X180484819Y-75277380D01*
X180484819Y-75277380D02*
X180627676Y-75372618D01*
X180627676Y-75372618D02*
X180722914Y-75467856D01*
X180722914Y-75467856D02*
X180770533Y-75563094D01*
X178083095Y-127784819D02*
X178083095Y-128594342D01*
X178083095Y-128594342D02*
X178130714Y-128689580D01*
X178130714Y-128689580D02*
X178178333Y-128737200D01*
X178178333Y-128737200D02*
X178273571Y-128784819D01*
X178273571Y-128784819D02*
X178464047Y-128784819D01*
X178464047Y-128784819D02*
X178559285Y-128737200D01*
X178559285Y-128737200D02*
X178606904Y-128689580D01*
X178606904Y-128689580D02*
X178654523Y-128594342D01*
X178654523Y-128594342D02*
X178654523Y-127784819D01*
X179559285Y-128118152D02*
X179559285Y-128784819D01*
X179321190Y-127737200D02*
X179083095Y-128451485D01*
X179083095Y-128451485D02*
X179702142Y-128451485D01*
X96724819Y-67834523D02*
X95724819Y-67834523D01*
X95724819Y-67834523D02*
X96439104Y-67501190D01*
X96439104Y-67501190D02*
X95724819Y-67167857D01*
X95724819Y-67167857D02*
X96724819Y-67167857D01*
X96724819Y-66167857D02*
X96724819Y-66739285D01*
X96724819Y-66453571D02*
X95724819Y-66453571D01*
X95724819Y-66453571D02*
X95867676Y-66548809D01*
X95867676Y-66548809D02*
X95962914Y-66644047D01*
X95962914Y-66644047D02*
X96010533Y-66739285D01*
X91150933Y-110834580D02*
X91103314Y-110882200D01*
X91103314Y-110882200D02*
X90960457Y-110929819D01*
X90960457Y-110929819D02*
X90865219Y-110929819D01*
X90865219Y-110929819D02*
X90722362Y-110882200D01*
X90722362Y-110882200D02*
X90627124Y-110786961D01*
X90627124Y-110786961D02*
X90579505Y-110691723D01*
X90579505Y-110691723D02*
X90531886Y-110501247D01*
X90531886Y-110501247D02*
X90531886Y-110358390D01*
X90531886Y-110358390D02*
X90579505Y-110167914D01*
X90579505Y-110167914D02*
X90627124Y-110072676D01*
X90627124Y-110072676D02*
X90722362Y-109977438D01*
X90722362Y-109977438D02*
X90865219Y-109929819D01*
X90865219Y-109929819D02*
X90960457Y-109929819D01*
X90960457Y-109929819D02*
X91103314Y-109977438D01*
X91103314Y-109977438D02*
X91150933Y-110025057D01*
X92103314Y-110929819D02*
X91531886Y-110929819D01*
X91817600Y-110929819D02*
X91817600Y-109929819D01*
X91817600Y-109929819D02*
X91722362Y-110072676D01*
X91722362Y-110072676D02*
X91627124Y-110167914D01*
X91627124Y-110167914D02*
X91531886Y-110215533D01*
X181437200Y-81558332D02*
X181484819Y-81415475D01*
X181484819Y-81415475D02*
X181484819Y-81177380D01*
X181484819Y-81177380D02*
X181437200Y-81082142D01*
X181437200Y-81082142D02*
X181389580Y-81034523D01*
X181389580Y-81034523D02*
X181294342Y-80986904D01*
X181294342Y-80986904D02*
X181199104Y-80986904D01*
X181199104Y-80986904D02*
X181103866Y-81034523D01*
X181103866Y-81034523D02*
X181056247Y-81082142D01*
X181056247Y-81082142D02*
X181008628Y-81177380D01*
X181008628Y-81177380D02*
X180961009Y-81367856D01*
X180961009Y-81367856D02*
X180913390Y-81463094D01*
X180913390Y-81463094D02*
X180865771Y-81510713D01*
X180865771Y-81510713D02*
X180770533Y-81558332D01*
X180770533Y-81558332D02*
X180675295Y-81558332D01*
X180675295Y-81558332D02*
X180580057Y-81510713D01*
X180580057Y-81510713D02*
X180532438Y-81463094D01*
X180532438Y-81463094D02*
X180484819Y-81367856D01*
X180484819Y-81367856D02*
X180484819Y-81129761D01*
X180484819Y-81129761D02*
X180532438Y-80986904D01*
X180484819Y-80653570D02*
X181484819Y-80415475D01*
X181484819Y-80415475D02*
X180770533Y-80224999D01*
X180770533Y-80224999D02*
X181484819Y-80034523D01*
X181484819Y-80034523D02*
X180484819Y-79796428D01*
X180580057Y-79463094D02*
X180532438Y-79415475D01*
X180532438Y-79415475D02*
X180484819Y-79320237D01*
X180484819Y-79320237D02*
X180484819Y-79082142D01*
X180484819Y-79082142D02*
X180532438Y-78986904D01*
X180532438Y-78986904D02*
X180580057Y-78939285D01*
X180580057Y-78939285D02*
X180675295Y-78891666D01*
X180675295Y-78891666D02*
X180770533Y-78891666D01*
X180770533Y-78891666D02*
X180913390Y-78939285D01*
X180913390Y-78939285D02*
X181484819Y-79510713D01*
X181484819Y-79510713D02*
X181484819Y-78891666D01*
X81896666Y-112004819D02*
X81896666Y-112719104D01*
X81896666Y-112719104D02*
X81849047Y-112861961D01*
X81849047Y-112861961D02*
X81753809Y-112957200D01*
X81753809Y-112957200D02*
X81610952Y-113004819D01*
X81610952Y-113004819D02*
X81515714Y-113004819D01*
X82896666Y-113004819D02*
X82325238Y-113004819D01*
X82610952Y-113004819D02*
X82610952Y-112004819D01*
X82610952Y-112004819D02*
X82515714Y-112147676D01*
X82515714Y-112147676D02*
X82420476Y-112242914D01*
X82420476Y-112242914D02*
X82325238Y-112290533D01*
X123103095Y-120404819D02*
X123103095Y-121214342D01*
X123103095Y-121214342D02*
X123150714Y-121309580D01*
X123150714Y-121309580D02*
X123198333Y-121357200D01*
X123198333Y-121357200D02*
X123293571Y-121404819D01*
X123293571Y-121404819D02*
X123484047Y-121404819D01*
X123484047Y-121404819D02*
X123579285Y-121357200D01*
X123579285Y-121357200D02*
X123626904Y-121309580D01*
X123626904Y-121309580D02*
X123674523Y-121214342D01*
X123674523Y-121214342D02*
X123674523Y-120404819D01*
X124103095Y-120500057D02*
X124150714Y-120452438D01*
X124150714Y-120452438D02*
X124245952Y-120404819D01*
X124245952Y-120404819D02*
X124484047Y-120404819D01*
X124484047Y-120404819D02*
X124579285Y-120452438D01*
X124579285Y-120452438D02*
X124626904Y-120500057D01*
X124626904Y-120500057D02*
X124674523Y-120595295D01*
X124674523Y-120595295D02*
X124674523Y-120690533D01*
X124674523Y-120690533D02*
X124626904Y-120833390D01*
X124626904Y-120833390D02*
X124055476Y-121404819D01*
X124055476Y-121404819D02*
X124674523Y-121404819D01*
X83908095Y-131304819D02*
X83908095Y-130304819D01*
X83908095Y-130781009D02*
X84479523Y-130781009D01*
X84479523Y-131304819D02*
X84479523Y-130304819D01*
X85479523Y-131304819D02*
X84908095Y-131304819D01*
X85193809Y-131304819D02*
X85193809Y-130304819D01*
X85193809Y-130304819D02*
X85098571Y-130447676D01*
X85098571Y-130447676D02*
X85003333Y-130542914D01*
X85003333Y-130542914D02*
X84908095Y-130590533D01*
X146860819Y-67834523D02*
X145860819Y-67834523D01*
X145860819Y-67834523D02*
X146575104Y-67501190D01*
X146575104Y-67501190D02*
X145860819Y-67167857D01*
X145860819Y-67167857D02*
X146860819Y-67167857D01*
X145860819Y-66215476D02*
X145860819Y-66691666D01*
X145860819Y-66691666D02*
X146337009Y-66739285D01*
X146337009Y-66739285D02*
X146289390Y-66691666D01*
X146289390Y-66691666D02*
X146241771Y-66596428D01*
X146241771Y-66596428D02*
X146241771Y-66358333D01*
X146241771Y-66358333D02*
X146289390Y-66263095D01*
X146289390Y-66263095D02*
X146337009Y-66215476D01*
X146337009Y-66215476D02*
X146432247Y-66167857D01*
X146432247Y-66167857D02*
X146670342Y-66167857D01*
X146670342Y-66167857D02*
X146765580Y-66215476D01*
X146765580Y-66215476D02*
X146813200Y-66263095D01*
X146813200Y-66263095D02*
X146860819Y-66358333D01*
X146860819Y-66358333D02*
X146860819Y-66596428D01*
X146860819Y-66596428D02*
X146813200Y-66691666D01*
X146813200Y-66691666D02*
X146765580Y-66739285D01*
X159394819Y-67834523D02*
X158394819Y-67834523D01*
X158394819Y-67834523D02*
X159109104Y-67501190D01*
X159109104Y-67501190D02*
X158394819Y-67167857D01*
X158394819Y-67167857D02*
X159394819Y-67167857D01*
X158394819Y-66263095D02*
X158394819Y-66453571D01*
X158394819Y-66453571D02*
X158442438Y-66548809D01*
X158442438Y-66548809D02*
X158490057Y-66596428D01*
X158490057Y-66596428D02*
X158632914Y-66691666D01*
X158632914Y-66691666D02*
X158823390Y-66739285D01*
X158823390Y-66739285D02*
X159204342Y-66739285D01*
X159204342Y-66739285D02*
X159299580Y-66691666D01*
X159299580Y-66691666D02*
X159347200Y-66644047D01*
X159347200Y-66644047D02*
X159394819Y-66548809D01*
X159394819Y-66548809D02*
X159394819Y-66358333D01*
X159394819Y-66358333D02*
X159347200Y-66263095D01*
X159347200Y-66263095D02*
X159299580Y-66215476D01*
X159299580Y-66215476D02*
X159204342Y-66167857D01*
X159204342Y-66167857D02*
X158966247Y-66167857D01*
X158966247Y-66167857D02*
X158871009Y-66215476D01*
X158871009Y-66215476D02*
X158823390Y-66263095D01*
X158823390Y-66263095D02*
X158775771Y-66358333D01*
X158775771Y-66358333D02*
X158775771Y-66548809D01*
X158775771Y-66548809D02*
X158823390Y-66644047D01*
X158823390Y-66644047D02*
X158871009Y-66691666D01*
X158871009Y-66691666D02*
X158966247Y-66739285D01*
X121792819Y-67834523D02*
X120792819Y-67834523D01*
X120792819Y-67834523D02*
X121507104Y-67501190D01*
X121507104Y-67501190D02*
X120792819Y-67167857D01*
X120792819Y-67167857D02*
X121792819Y-67167857D01*
X120792819Y-66786904D02*
X120792819Y-66167857D01*
X120792819Y-66167857D02*
X121173771Y-66501190D01*
X121173771Y-66501190D02*
X121173771Y-66358333D01*
X121173771Y-66358333D02*
X121221390Y-66263095D01*
X121221390Y-66263095D02*
X121269009Y-66215476D01*
X121269009Y-66215476D02*
X121364247Y-66167857D01*
X121364247Y-66167857D02*
X121602342Y-66167857D01*
X121602342Y-66167857D02*
X121697580Y-66215476D01*
X121697580Y-66215476D02*
X121745200Y-66263095D01*
X121745200Y-66263095D02*
X121792819Y-66358333D01*
X121792819Y-66358333D02*
X121792819Y-66644047D01*
X121792819Y-66644047D02*
X121745200Y-66739285D01*
X121745200Y-66739285D02*
X121697580Y-66786904D01*
X134326819Y-67834523D02*
X133326819Y-67834523D01*
X133326819Y-67834523D02*
X134041104Y-67501190D01*
X134041104Y-67501190D02*
X133326819Y-67167857D01*
X133326819Y-67167857D02*
X134326819Y-67167857D01*
X133660152Y-66263095D02*
X134326819Y-66263095D01*
X133279200Y-66501190D02*
X133993485Y-66739285D01*
X133993485Y-66739285D02*
X133993485Y-66120238D01*
X82810476Y-93159819D02*
X82810476Y-92159819D01*
X82810476Y-92159819D02*
X83143809Y-92874104D01*
X83143809Y-92874104D02*
X83477142Y-92159819D01*
X83477142Y-92159819D02*
X83477142Y-93159819D01*
X83858095Y-92159819D02*
X84524761Y-92159819D01*
X84524761Y-92159819D02*
X84096190Y-93159819D01*
X83908095Y-61304819D02*
X83908095Y-60304819D01*
X83908095Y-60781009D02*
X84479523Y-60781009D01*
X84479523Y-61304819D02*
X84479523Y-60304819D01*
X84908095Y-60400057D02*
X84955714Y-60352438D01*
X84955714Y-60352438D02*
X85050952Y-60304819D01*
X85050952Y-60304819D02*
X85289047Y-60304819D01*
X85289047Y-60304819D02*
X85384285Y-60352438D01*
X85384285Y-60352438D02*
X85431904Y-60400057D01*
X85431904Y-60400057D02*
X85479523Y-60495295D01*
X85479523Y-60495295D02*
X85479523Y-60590533D01*
X85479523Y-60590533D02*
X85431904Y-60733390D01*
X85431904Y-60733390D02*
X84860476Y-61304819D01*
X84860476Y-61304819D02*
X85479523Y-61304819D01*
D12*
%TO.C,M2*%
X109804000Y-68355000D02*
X109804000Y-67025000D01*
X111134000Y-68355000D02*
X109804000Y-68355000D01*
X112404000Y-65695000D02*
X117544000Y-65695000D01*
X112404000Y-68355000D02*
X112404000Y-65695000D01*
X112404000Y-68355000D02*
X117544000Y-68355000D01*
X117544000Y-68355000D02*
X117544000Y-65695000D01*
%TO.C,U3*%
X100830000Y-76235000D02*
X100830000Y-77635000D01*
X100830000Y-78905000D02*
X100830000Y-96815000D01*
X100830000Y-96815000D02*
X116330000Y-96815000D01*
X102230000Y-76235000D02*
X100830000Y-76235000D01*
X103500000Y-76235000D02*
X103500000Y-78905000D01*
X103500000Y-78905000D02*
X100830000Y-78905000D01*
X103500000Y-78905000D02*
X103500000Y-96815000D01*
X113660000Y-76235000D02*
X113660000Y-96815000D01*
X116330000Y-76235000D02*
X103500000Y-76235000D01*
X116330000Y-96815000D02*
X116330000Y-76235000D01*
D11*
%TO.C,U1*%
X134955000Y-85295000D02*
X134955000Y-114505000D01*
X134955000Y-114505000D02*
X135590000Y-114505000D01*
X135590000Y-85295000D02*
X134955000Y-85295000D01*
X178135000Y-94820000D02*
X183215000Y-94820000D01*
X178135000Y-104980000D02*
X178135000Y-94820000D01*
X180040000Y-114505000D02*
X135590000Y-114505000D01*
X180040000Y-114505000D02*
X187660000Y-114505000D01*
X183215000Y-94820000D02*
X183215000Y-104980000D01*
X183215000Y-104980000D02*
X178135000Y-104980000D01*
X187660000Y-85295000D02*
X135590000Y-85295000D01*
X187660000Y-114505000D02*
X187660000Y-85295000D01*
D12*
%TO.C,SW1*%
X182030000Y-77655000D02*
X182030000Y-76325000D01*
X183360000Y-77655000D02*
X182030000Y-77655000D01*
X184630000Y-74995000D02*
X187230000Y-74995000D01*
X184630000Y-77655000D02*
X184630000Y-74995000D01*
X184630000Y-77655000D02*
X187230000Y-77655000D01*
X187230000Y-77655000D02*
X187230000Y-74995000D01*
%TO.C,U4*%
X177515000Y-124730000D02*
X177515000Y-117050000D01*
X180175000Y-117050000D02*
X177515000Y-117050000D01*
X180175000Y-124730000D02*
X177515000Y-124730000D01*
X180175000Y-124730000D02*
X180175000Y-117050000D01*
X180175000Y-126000000D02*
X180175000Y-127330000D01*
X180175000Y-127330000D02*
X178845000Y-127330000D01*
%TO.C,M1*%
X97270000Y-68355000D02*
X97270000Y-67025000D01*
X98600000Y-68355000D02*
X97270000Y-68355000D01*
X99870000Y-65695000D02*
X105010000Y-65695000D01*
X99870000Y-68355000D02*
X99870000Y-65695000D01*
X99870000Y-68355000D02*
X105010000Y-68355000D01*
X105010000Y-68355000D02*
X105010000Y-65695000D01*
%TO.C,C1*%
X89236600Y-107595000D02*
X89236600Y-106855000D01*
X89276600Y-107762000D02*
X89276600Y-106688000D01*
X89316600Y-107889000D02*
X89316600Y-106561000D01*
X89356600Y-107993000D02*
X89356600Y-106457000D01*
X89396600Y-108084000D02*
X89396600Y-106366000D01*
X89436600Y-108165000D02*
X89436600Y-106285000D01*
X89476600Y-108238000D02*
X89476600Y-106212000D01*
X89516600Y-108305000D02*
X89516600Y-106145000D01*
X89556600Y-108367000D02*
X89556600Y-106083000D01*
X89596600Y-108425000D02*
X89596600Y-106025000D01*
X89636600Y-108479000D02*
X89636600Y-105971000D01*
X89676600Y-108529000D02*
X89676600Y-105921000D01*
X89716600Y-108576000D02*
X89716600Y-105874000D01*
X89756600Y-106385000D02*
X89756600Y-105829000D01*
X89756600Y-108621000D02*
X89756600Y-108065000D01*
X89796600Y-106385000D02*
X89796600Y-105787000D01*
X89796600Y-108663000D02*
X89796600Y-108065000D01*
X89836600Y-106385000D02*
X89836600Y-105747000D01*
X89836600Y-108703000D02*
X89836600Y-108065000D01*
X89876600Y-106385000D02*
X89876600Y-105709000D01*
X89876600Y-108741000D02*
X89876600Y-108065000D01*
X89916600Y-106385000D02*
X89916600Y-105673000D01*
X89916600Y-108777000D02*
X89916600Y-108065000D01*
X89956600Y-106385000D02*
X89956600Y-105638000D01*
X89956600Y-108812000D02*
X89956600Y-108065000D01*
X89996600Y-106385000D02*
X89996600Y-105606000D01*
X89996600Y-108844000D02*
X89996600Y-108065000D01*
X90036600Y-106385000D02*
X90036600Y-105575000D01*
X90036600Y-108875000D02*
X90036600Y-108065000D01*
X90076600Y-106385000D02*
X90076600Y-105545000D01*
X90076600Y-108905000D02*
X90076600Y-108065000D01*
X90116600Y-106385000D02*
X90116600Y-105517000D01*
X90116600Y-108933000D02*
X90116600Y-108065000D01*
X90156600Y-106385000D02*
X90156600Y-105490000D01*
X90156600Y-108960000D02*
X90156600Y-108065000D01*
X90196600Y-106385000D02*
X90196600Y-105465000D01*
X90196600Y-108985000D02*
X90196600Y-108065000D01*
X90236600Y-106385000D02*
X90236600Y-105440000D01*
X90236600Y-109010000D02*
X90236600Y-108065000D01*
X90276600Y-106385000D02*
X90276600Y-105417000D01*
X90276600Y-109033000D02*
X90276600Y-108065000D01*
X90316600Y-106385000D02*
X90316600Y-105395000D01*
X90316600Y-109055000D02*
X90316600Y-108065000D01*
X90356600Y-106385000D02*
X90356600Y-105374000D01*
X90356600Y-109076000D02*
X90356600Y-108065000D01*
X90396600Y-106385000D02*
X90396600Y-105355000D01*
X90396600Y-109095000D02*
X90396600Y-108065000D01*
X90436600Y-106385000D02*
X90436600Y-105336000D01*
X90436600Y-109114000D02*
X90436600Y-108065000D01*
X90476600Y-106385000D02*
X90476600Y-105318000D01*
X90476600Y-109132000D02*
X90476600Y-108065000D01*
X90516600Y-106385000D02*
X90516600Y-105301000D01*
X90516600Y-109149000D02*
X90516600Y-108065000D01*
X90556600Y-106385000D02*
X90556600Y-105285000D01*
X90556600Y-109165000D02*
X90556600Y-108065000D01*
X90596600Y-106385000D02*
X90596600Y-105271000D01*
X90596600Y-109179000D02*
X90596600Y-108065000D01*
X90637600Y-106385000D02*
X90637600Y-105257000D01*
X90637600Y-109193000D02*
X90637600Y-108065000D01*
X90677600Y-106385000D02*
X90677600Y-105243000D01*
X90677600Y-109207000D02*
X90677600Y-108065000D01*
X90717600Y-106385000D02*
X90717600Y-105231000D01*
X90717600Y-109219000D02*
X90717600Y-108065000D01*
X90757600Y-106385000D02*
X90757600Y-105220000D01*
X90757600Y-109230000D02*
X90757600Y-108065000D01*
X90797600Y-106385000D02*
X90797600Y-105209000D01*
X90797600Y-109241000D02*
X90797600Y-108065000D01*
X90837600Y-106385000D02*
X90837600Y-105200000D01*
X90837600Y-109250000D02*
X90837600Y-108065000D01*
X90877600Y-106385000D02*
X90877600Y-105191000D01*
X90877600Y-109259000D02*
X90877600Y-108065000D01*
X90917600Y-106385000D02*
X90917600Y-105183000D01*
X90917600Y-109267000D02*
X90917600Y-108065000D01*
X90957600Y-106385000D02*
X90957600Y-105175000D01*
X90957600Y-109275000D02*
X90957600Y-108065000D01*
X90997600Y-106385000D02*
X90997600Y-105169000D01*
X90997600Y-109281000D02*
X90997600Y-108065000D01*
X91037600Y-106385000D02*
X91037600Y-105163000D01*
X91037600Y-109287000D02*
X91037600Y-108065000D01*
X91077600Y-106385000D02*
X91077600Y-105158000D01*
X91077600Y-109292000D02*
X91077600Y-108065000D01*
X91117600Y-106385000D02*
X91117600Y-105154000D01*
X91117600Y-109296000D02*
X91117600Y-108065000D01*
X91157600Y-106385000D02*
X91157600Y-105151000D01*
X91157600Y-109299000D02*
X91157600Y-108065000D01*
X91197600Y-106385000D02*
X91197600Y-105148000D01*
X91197600Y-109302000D02*
X91197600Y-108065000D01*
X91237600Y-106385000D02*
X91237600Y-105146000D01*
X91237600Y-109304000D02*
X91237600Y-108065000D01*
X91277600Y-106385000D02*
X91277600Y-105145000D01*
X91277600Y-109305000D02*
X91277600Y-108065000D01*
X91317600Y-106385000D02*
X91317600Y-105145000D01*
X91317600Y-109305000D02*
X91317600Y-108065000D01*
X93387401Y-108620000D02*
X93387401Y-108220000D01*
X93587401Y-108420000D02*
X93187401Y-108420000D01*
X93437600Y-107225000D02*
G75*
G02*
X89197600Y-107225000I-2120000J0D01*
G01*
X89197600Y-107225000D02*
G75*
G02*
X93437600Y-107225000I2120000J0D01*
G01*
%TO.C,SW2*%
X182030000Y-81555000D02*
X182030000Y-80225000D01*
X183360000Y-81555000D02*
X182030000Y-81555000D01*
X184630000Y-78895000D02*
X187230000Y-78895000D01*
X184630000Y-81555000D02*
X184630000Y-78895000D01*
X184630000Y-81555000D02*
X187230000Y-81555000D01*
X187230000Y-81555000D02*
X187230000Y-78895000D01*
%TO.C,J1*%
X74480000Y-124495000D02*
X88480000Y-124495000D01*
X88480000Y-114605000D02*
X74480000Y-114605000D01*
X88480000Y-115810000D02*
X88480000Y-114605000D01*
X88480000Y-123290000D02*
X94250000Y-123290000D01*
X88480000Y-124495000D02*
X88480000Y-123290000D01*
X94250000Y-115810000D02*
X88480000Y-115810000D01*
X94250000Y-123290000D02*
X94250000Y-115810000D01*
%TO.C,U2*%
X100720000Y-122925000D02*
X100720000Y-144375000D01*
X100720000Y-144375000D02*
X144470000Y-144375000D01*
X100725000Y-123180000D02*
X102025000Y-123180000D01*
X100725000Y-126335000D02*
X103855000Y-126340000D01*
X100725000Y-140960000D02*
X103855000Y-140960000D01*
X100725000Y-144120000D02*
X103855000Y-144120000D01*
X103855000Y-126030000D02*
X103855000Y-126340000D01*
X103855000Y-140960000D02*
X103855000Y-144120000D01*
X111024233Y-125764149D02*
X111024233Y-125925687D01*
X111025233Y-124397610D02*
X112675233Y-124106671D01*
X111025233Y-133749106D02*
X111025233Y-124397610D01*
X111025233Y-133749106D02*
X111102797Y-133826670D01*
X111102797Y-133826670D02*
X121107670Y-133826670D01*
X111306636Y-141318217D02*
X111756636Y-141318217D01*
X111306636Y-143068217D02*
X111306636Y-141318217D01*
X111756636Y-143068217D02*
X111306636Y-143068217D01*
X111756636Y-143343217D02*
X111756636Y-141043217D01*
X111856636Y-140943217D02*
X115456636Y-140943217D01*
X112285233Y-138456670D02*
X112285233Y-133826670D01*
X112285233Y-138456670D02*
X113125233Y-138456670D01*
X112675233Y-124106671D02*
X119535233Y-124106671D01*
X113125233Y-138456670D02*
X113125233Y-133826670D01*
X113985233Y-138456670D02*
X113985233Y-133826670D01*
X113985233Y-138456670D02*
X114825233Y-138456670D01*
X114686358Y-141043217D02*
X114686358Y-143343217D01*
X114825233Y-138456670D02*
X114825233Y-133826670D01*
X115456636Y-143443217D02*
X111856636Y-143443217D01*
X115556636Y-141043217D02*
X115556636Y-143343217D01*
X115556636Y-141318217D02*
X116006636Y-141318217D01*
X115557636Y-141554696D02*
X115557636Y-141460144D01*
X115685233Y-138456670D02*
X115685233Y-133826670D01*
X115685233Y-138456670D02*
X116525233Y-138456670D01*
X116006636Y-141318217D02*
X116006636Y-143068217D01*
X116006636Y-143068217D02*
X115556636Y-143068217D01*
X116525233Y-138456670D02*
X116525233Y-133826670D01*
X117385233Y-138456670D02*
X117385233Y-133826670D01*
X117385233Y-138456670D02*
X118225233Y-138456670D01*
X118225233Y-138456670D02*
X118225233Y-133826670D01*
X119085233Y-138456670D02*
X119085233Y-133826670D01*
X119085233Y-138456670D02*
X119925233Y-138456670D01*
X119535233Y-124106671D02*
X121185233Y-124397610D01*
X119925233Y-138456670D02*
X119925233Y-133826670D01*
X121107670Y-133826670D02*
X121185233Y-133749106D01*
X121185233Y-125186670D02*
X111025233Y-125186670D01*
X121185233Y-133749106D02*
X121185233Y-124397610D01*
X122742397Y-132345796D02*
X122742397Y-142045796D01*
X124242397Y-143545796D02*
X133942397Y-143545796D01*
X125574783Y-128342294D02*
X125574783Y-123442295D01*
X125624783Y-123392295D02*
X135524783Y-123392295D01*
X126611385Y-124710900D02*
X126635553Y-124742295D01*
X126623594Y-124767294D02*
X126599147Y-124762062D01*
X126623594Y-124767294D02*
X126630764Y-124736075D01*
X126623594Y-124767294D02*
X126635553Y-124742295D01*
X126635553Y-125242294D02*
X128714014Y-125242294D01*
X128714014Y-124742295D02*
X126635553Y-124742295D01*
X133942397Y-130845796D02*
X124242397Y-130845796D01*
X134133978Y-123391295D02*
X134089106Y-123391295D01*
X134217312Y-123391295D02*
X134183357Y-123391295D01*
X135442397Y-142045796D02*
X135442397Y-132345796D01*
X135524783Y-128392294D02*
X125624783Y-128392294D01*
X135574783Y-123442295D02*
X135574783Y-128342294D01*
X138923681Y-124460296D02*
X139723681Y-124460296D01*
X138923681Y-125740295D02*
X138923681Y-124140296D01*
X139723681Y-124140296D02*
X138923681Y-124140296D01*
X139723681Y-124140296D02*
X139723681Y-125740295D01*
X139723681Y-125420295D02*
X138923681Y-125420295D01*
X139723681Y-125740295D02*
X138923681Y-125740295D01*
X141335000Y-123180000D02*
X144450000Y-123180000D01*
X141335000Y-126340000D02*
X141335000Y-123180000D01*
X141335000Y-126340000D02*
X144495000Y-126340000D01*
X141335000Y-140960000D02*
X144450000Y-140960000D01*
X141335000Y-144120000D02*
X141335000Y-140960000D01*
X141335000Y-144120000D02*
X144450000Y-144120000D01*
X144470000Y-122925000D02*
X100720000Y-122925000D01*
X144470000Y-144375000D02*
X144470000Y-122925000D01*
X111756636Y-141043217D02*
G75*
G02*
X111856636Y-140943236I99964J17D01*
G01*
X111856636Y-143443217D02*
G75*
G02*
X111756583Y-143343217I-36J100017D01*
G01*
X115456636Y-140943217D02*
G75*
G02*
X115556583Y-141043217I-36J-99983D01*
G01*
X115556636Y-143343217D02*
G75*
G02*
X115456636Y-143443236I-100036J17D01*
G01*
X122742397Y-132345796D02*
G75*
G02*
X124242397Y-130845797I1500003J-4D01*
G01*
X124056131Y-134226010D02*
G75*
G02*
X124090249Y-134360200I-52931J-84890D01*
G01*
X124056132Y-134226011D02*
G75*
G02*
X126122611Y-132159531I793628J1272851D01*
G01*
X124090217Y-140031409D02*
G75*
G02*
X124056118Y-140165560I-87017J-49291D01*
G01*
X124090218Y-140031410D02*
G75*
G02*
X124090221Y-134360185I5002182J2835610D01*
G01*
X124242397Y-143545796D02*
G75*
G02*
X122742404Y-142045796I3J1499996D01*
G01*
X125574783Y-123442295D02*
G75*
G02*
X125624783Y-123392283I50017J-5D01*
G01*
X125624783Y-128392294D02*
G75*
G02*
X125574806Y-128342294I17J49994D01*
G01*
X126122611Y-142232062D02*
G75*
G02*
X124056137Y-140165590I-1272811J793662D01*
G01*
X126122611Y-142232062D02*
G75*
G02*
X126256799Y-142197947I84889J-52938D01*
G01*
X126256783Y-132193617D02*
G75*
G02*
X126122641Y-132159512I-49283J87017D01*
G01*
X126256784Y-132193617D02*
G75*
G02*
X131928011Y-132193617I2835614J-5002178D01*
G01*
X126599148Y-125222527D02*
G75*
G02*
X126611385Y-125273690I1075652J230227D01*
G01*
X131928011Y-142197976D02*
G75*
G02*
X126256783Y-142197976I-2835614J5002180D01*
G01*
X131928011Y-142197976D02*
G75*
G02*
X132062162Y-142232075I49289J-87024D01*
G01*
X132062183Y-132159531D02*
G75*
G02*
X131927998Y-132193641I-84883J52931D01*
G01*
X132062183Y-132159531D02*
G75*
G02*
X134128667Y-134226018I1272817J-793669D01*
G01*
X133942397Y-130845796D02*
G75*
G02*
X135442404Y-132345796I3J-1500004D01*
G01*
X134094576Y-134360183D02*
G75*
G02*
X134094579Y-140031412I-5002176J-2835617D01*
G01*
X134094577Y-134360184D02*
G75*
G02*
X134128680Y-134226039I87023J49284D01*
G01*
X134128662Y-140165582D02*
G75*
G02*
X132062182Y-142232062I-793622J-1272858D01*
G01*
X134128663Y-140165583D02*
G75*
G02*
X134094555Y-140031398I52937J84883D01*
G01*
X135442397Y-142045796D02*
G75*
G02*
X133942397Y-143545797I-1499997J-4D01*
G01*
X135524783Y-123392295D02*
G75*
G02*
X135574805Y-123442295I17J-50005D01*
G01*
X135574783Y-128342294D02*
G75*
G02*
X135524783Y-128392283I-49983J-6D01*
G01*
X108921666Y-133717418D02*
G75*
G02*
X100921666Y-133717418I-4000000J0D01*
G01*
X100921666Y-133717418D02*
G75*
G02*
X108921666Y-133717418I4000000J0D01*
G01*
X108953999Y-125395000D02*
G75*
G02*
X105756001Y-125395000I-1598999J0D01*
G01*
X105756001Y-125395000D02*
G75*
G02*
X108953999Y-125395000I1598999J0D01*
G01*
X112323179Y-132914594D02*
G75*
G02*
X111573179Y-132914594I-375000J0D01*
G01*
X111573179Y-132914594D02*
G75*
G02*
X112323179Y-132914594I375000J0D01*
G01*
X134342397Y-137195796D02*
G75*
G02*
X123842397Y-137195796I-5250000J0D01*
G01*
X123842397Y-137195796D02*
G75*
G02*
X134342397Y-137195796I5250000J0D01*
G01*
X139434000Y-141905000D02*
G75*
G02*
X136236000Y-141905000I-1599000J0D01*
G01*
X136236000Y-141905000D02*
G75*
G02*
X139434000Y-141905000I1599000J0D01*
G01*
X144304307Y-134215206D02*
G75*
G02*
X136304307Y-134215206I-4000000J0D01*
G01*
X136304307Y-134215206D02*
G75*
G02*
X144304307Y-134215206I4000000J0D01*
G01*
%TO.C,M5*%
X147406000Y-68355000D02*
X147406000Y-67025000D01*
X148736000Y-68355000D02*
X147406000Y-68355000D01*
X150006000Y-65695000D02*
X155146000Y-65695000D01*
X150006000Y-68355000D02*
X150006000Y-65695000D01*
X150006000Y-68355000D02*
X155146000Y-68355000D01*
X155146000Y-68355000D02*
X155146000Y-65695000D01*
%TO.C,M6*%
X159940000Y-68355000D02*
X159940000Y-67025000D01*
X161270000Y-68355000D02*
X159940000Y-68355000D01*
X162540000Y-65695000D02*
X167680000Y-65695000D01*
X162540000Y-68355000D02*
X162540000Y-65695000D01*
X162540000Y-68355000D02*
X167680000Y-68355000D01*
X167680000Y-68355000D02*
X167680000Y-65695000D01*
%TO.C,M3*%
X122338000Y-68355000D02*
X122338000Y-67025000D01*
X123668000Y-68355000D02*
X122338000Y-68355000D01*
X124938000Y-65695000D02*
X130078000Y-65695000D01*
X124938000Y-68355000D02*
X124938000Y-65695000D01*
X124938000Y-68355000D02*
X130078000Y-68355000D01*
X130078000Y-68355000D02*
X130078000Y-65695000D01*
%TO.C,M4*%
X134872000Y-68355000D02*
X134872000Y-67025000D01*
X136202000Y-68355000D02*
X134872000Y-68355000D01*
X137472000Y-65695000D02*
X142612000Y-65695000D01*
X137472000Y-68355000D02*
X137472000Y-65695000D01*
X137472000Y-68355000D02*
X142612000Y-68355000D01*
X142612000Y-68355000D02*
X142612000Y-65695000D01*
%TO.C,M7*%
X82290000Y-89105000D02*
X82290000Y-81425000D01*
X84950000Y-81425000D02*
X82290000Y-81425000D01*
X84950000Y-89105000D02*
X82290000Y-89105000D01*
X84950000Y-89105000D02*
X84950000Y-81425000D01*
X84950000Y-90375000D02*
X84950000Y-91705000D01*
X84950000Y-91705000D02*
X83620000Y-91705000D01*
%TD*%
M02*
