%TF.GenerationSoftware,KiCad,Pcbnew,8.0.9*%
%TF.CreationDate,2025-04-13T06:29:53-04:00*%
%TF.ProjectId,NathanHuang_Sp25_1,4e617468-616e-4487-9561-6e675f537032,rev?*%
%TF.SameCoordinates,Original*%
%TF.FileFunction,Soldermask,Top*%
%TF.FilePolarity,Negative*%
%FSLAX46Y46*%
G04 Gerber Fmt 4.6, Leading zero omitted, Abs format (unit mm)*
G04 Created by KiCad (PCBNEW 8.0.9) date 2025-04-13 06:29:53*
%MOMM*%
%LPD*%
G01*
G04 APERTURE LIST*
%ADD10R,1.700000X1.700000*%
%ADD11O,1.700000X1.700000*%
%ADD12C,5.300000*%
%ADD13R,1.600000X1.600000*%
%ADD14O,1.600000X1.600000*%
%ADD15C,1.524000*%
%ADD16R,1.200000X1.200000*%
%ADD17C,1.200000*%
%ADD18R,2.020000X5.020000*%
%ADD19O,2.020000X5.020000*%
%ADD20R,2.540000X2.540000*%
%ADD21C,2.540000*%
G04 APERTURE END LIST*
D10*
%TO.C,M2*%
X111134000Y-67025000D03*
D11*
X113674000Y-67025000D03*
X116214000Y-67025000D03*
%TD*%
D12*
%TO.C,H4*%
X179220000Y-137150000D03*
%TD*%
D13*
%TO.C,U3*%
X102230000Y-77635000D03*
D14*
X102230000Y-80175000D03*
X102230000Y-82715000D03*
X102230000Y-85255000D03*
X102230000Y-87795000D03*
X102230000Y-90335000D03*
X102230000Y-92875000D03*
X102230000Y-95415000D03*
X114930000Y-95415000D03*
X114930000Y-92875000D03*
X114930000Y-90335000D03*
X114930000Y-87795000D03*
X114930000Y-85255000D03*
X114930000Y-82715000D03*
X114930000Y-80175000D03*
X114930000Y-77635000D03*
%TD*%
D12*
%TO.C,H3*%
X179220000Y-67150000D03*
%TD*%
D15*
%TO.C,U1*%
X140035000Y-112600000D03*
X142575000Y-112600000D03*
X145115000Y-112600000D03*
X147655000Y-112600000D03*
X150195000Y-112600000D03*
X152735000Y-112600000D03*
X155275000Y-112600000D03*
X157815000Y-112600000D03*
X160355000Y-112600000D03*
X162895000Y-112600000D03*
X165435000Y-112600000D03*
X167975000Y-112600000D03*
X170515000Y-112600000D03*
X173055000Y-112600000D03*
X175595000Y-112600000D03*
X140035000Y-87200000D03*
X142575000Y-87200000D03*
X145115000Y-87200000D03*
X147655000Y-87200000D03*
X150195000Y-87200000D03*
X152735000Y-87200000D03*
X155275000Y-87200000D03*
X157815000Y-87200000D03*
X160355000Y-87200000D03*
X162895000Y-87200000D03*
X165435000Y-87200000D03*
X167975000Y-87200000D03*
X170515000Y-87200000D03*
X173055000Y-87200000D03*
X175595000Y-87200000D03*
%TD*%
D10*
%TO.C,SW1*%
X183360000Y-76325000D03*
D11*
X185900000Y-76325000D03*
%TD*%
D10*
%TO.C,U4*%
X178845000Y-126000000D03*
D11*
X178845000Y-123460000D03*
X178845000Y-120920000D03*
X178845000Y-118380000D03*
%TD*%
D10*
%TO.C,M1*%
X98600000Y-67025000D03*
D11*
X101140000Y-67025000D03*
X103680000Y-67025000D03*
%TD*%
D16*
%TO.C,C1*%
X92067600Y-107225000D03*
D17*
X90567600Y-107225000D03*
%TD*%
D10*
%TO.C,SW2*%
X183360000Y-80225000D03*
D11*
X185900000Y-80225000D03*
%TD*%
D18*
%TO.C,J1*%
X93030000Y-119550000D03*
D19*
X87850000Y-119550000D03*
%TD*%
D20*
%TO.C,U2*%
X102275000Y-124760000D03*
D21*
X102275000Y-142540000D03*
X142915000Y-142540000D03*
X142915000Y-124760000D03*
%TD*%
D12*
%TO.C,H1*%
X84670000Y-137150000D03*
%TD*%
D10*
%TO.C,M5*%
X148736000Y-67025000D03*
D11*
X151276000Y-67025000D03*
X153816000Y-67025000D03*
%TD*%
D10*
%TO.C,M6*%
X161270000Y-67025000D03*
D11*
X163810000Y-67025000D03*
X166350000Y-67025000D03*
%TD*%
D10*
%TO.C,M3*%
X123668000Y-67025000D03*
D11*
X126208000Y-67025000D03*
X128748000Y-67025000D03*
%TD*%
D10*
%TO.C,M4*%
X136202000Y-67025000D03*
D11*
X138742000Y-67025000D03*
X141282000Y-67025000D03*
%TD*%
D10*
%TO.C,M7*%
X83620000Y-90375000D03*
D11*
X83620000Y-87835000D03*
X83620000Y-85295000D03*
X83620000Y-82755000D03*
%TD*%
D12*
%TO.C,H2*%
X84670000Y-67150000D03*
%TD*%
M02*
