%TF.GenerationSoftware,KiCad,Pcbnew,8.0.9*%
%TF.CreationDate,2025-04-13T06:29:52-04:00*%
%TF.ProjectId,NathanHuang_Sp25_1,4e617468-616e-4487-9561-6e675f537032,rev?*%
%TF.SameCoordinates,Original*%
%TF.FileFunction,Copper,L2,Bot*%
%TF.FilePolarity,Positive*%
%FSLAX46Y46*%
G04 Gerber Fmt 4.6, Leading zero omitted, Abs format (unit mm)*
G04 Created by KiCad (PCBNEW 8.0.9) date 2025-04-13 06:29:52*
%MOMM*%
%LPD*%
G01*
G04 APERTURE LIST*
%TA.AperFunction,ComponentPad*%
%ADD10R,1.700000X1.700000*%
%TD*%
%TA.AperFunction,ComponentPad*%
%ADD11O,1.700000X1.700000*%
%TD*%
%TA.AperFunction,ComponentPad*%
%ADD12R,1.600000X1.600000*%
%TD*%
%TA.AperFunction,ComponentPad*%
%ADD13O,1.600000X1.600000*%
%TD*%
%TA.AperFunction,ComponentPad*%
%ADD14C,1.524000*%
%TD*%
%TA.AperFunction,ComponentPad*%
%ADD15R,1.200000X1.200000*%
%TD*%
%TA.AperFunction,ComponentPad*%
%ADD16C,1.200000*%
%TD*%
%TA.AperFunction,ComponentPad*%
%ADD17R,2.020000X5.020000*%
%TD*%
%TA.AperFunction,ComponentPad*%
%ADD18O,2.020000X5.020000*%
%TD*%
%TA.AperFunction,ComponentPad*%
%ADD19R,2.540000X2.540000*%
%TD*%
%TA.AperFunction,ComponentPad*%
%ADD20C,2.540000*%
%TD*%
%TA.AperFunction,Conductor*%
%ADD21C,0.200000*%
%TD*%
G04 APERTURE END LIST*
D10*
%TO.P,M2,1,-*%
%TO.N,/THUMB_2*%
X111134000Y-67025000D03*
D11*
%TO.P,M2,2,+*%
%TO.N,7.2V*%
X113674000Y-67025000D03*
%TO.P,M2,3,PWM*%
%TO.N,GND*%
X116214000Y-67025000D03*
%TD*%
D12*
%TO.P,U3,1,GND*%
%TO.N,GND*%
X102230000Y-77635000D03*
D13*
%TO.P,U3,2,VDD*%
%TO.N,+3V3*%
X102230000Y-80175000D03*
%TO.P,U3,3,1B*%
%TO.N,Net-(U3-1B)*%
X102230000Y-82715000D03*
%TO.P,U3,4,1A*%
%TO.N,Net-(U3-1A)*%
X102230000Y-85255000D03*
%TO.P,U3,5,2A*%
%TO.N,Net-(M7--)*%
X102230000Y-87795000D03*
%TO.P,U3,6,2B*%
%TO.N,Net-(U3-2B)*%
X102230000Y-90335000D03*
%TO.P,U3,7,GND*%
%TO.N,GND*%
X102230000Y-92875000D03*
%TO.P,U3,8,VMOT*%
%TO.N,+12V*%
X102230000Y-95415000D03*
%TO.P,U3,9,~{ENABLE}*%
%TO.N,GND*%
X114930000Y-95415000D03*
%TO.P,U3,10,MS1*%
X114930000Y-92875000D03*
%TO.P,U3,11,MS2*%
X114930000Y-90335000D03*
%TO.P,U3,12,MS3*%
X114930000Y-87795000D03*
%TO.P,U3,13,~{RESET}*%
%TO.N,unconnected-(U3-~{RESET}-Pad13)*%
X114930000Y-85255000D03*
%TO.P,U3,14,~{SLEEP}*%
%TO.N,unconnected-(U3-~{SLEEP}-Pad14)*%
X114930000Y-82715000D03*
%TO.P,U3,15,STEP*%
%TO.N,/STEP_PIN*%
X114930000Y-80175000D03*
%TO.P,U3,16,DIR*%
%TO.N,/DIR_PIN*%
X114930000Y-77635000D03*
%TD*%
D14*
%TO.P,U1,1,EN*%
%TO.N,+3V3*%
X140035000Y-112600000D03*
%TO.P,U1,2,VP*%
%TO.N,unconnected-(U1-VP-Pad2)*%
X142575000Y-112600000D03*
%TO.P,U1,3,VN*%
%TO.N,unconnected-(U1-VN-Pad3)*%
X145115000Y-112600000D03*
%TO.P,U1,4,G34*%
%TO.N,/STEP_PIN*%
X147655000Y-112600000D03*
%TO.P,U1,5,G35*%
%TO.N,/DIR_PIN*%
X150195000Y-112600000D03*
%TO.P,U1,6,G32*%
%TO.N,unconnected-(U1-G32-Pad6)*%
X152735000Y-112600000D03*
%TO.P,U1,7,G33*%
%TO.N,unconnected-(U1-G33-Pad7)*%
X155275000Y-112600000D03*
%TO.P,U1,8,G25*%
%TO.N,unconnected-(U1-G25-Pad8)*%
X157815000Y-112600000D03*
%TO.P,U1,9,G26*%
%TO.N,unconnected-(U1-G26-Pad9)*%
X160355000Y-112600000D03*
%TO.P,U1,10,G27*%
%TO.N,unconnected-(U1-G27-Pad10)*%
X162895000Y-112600000D03*
%TO.P,U1,11,G14*%
%TO.N,unconnected-(U1-G14-Pad11)*%
X165435000Y-112600000D03*
%TO.P,U1,12,G12*%
%TO.N,/CW*%
X167975000Y-112600000D03*
%TO.P,U1,13,G13*%
%TO.N,/DT*%
X170515000Y-112600000D03*
%TO.P,U1,14,GND*%
%TO.N,GND*%
X173055000Y-112600000D03*
%TO.P,U1,15,5V*%
%TO.N,unconnected-(U1-5V-Pad15)*%
X175595000Y-112600000D03*
%TO.P,U1,16,G23*%
%TO.N,/THUMB_1*%
X140035000Y-87200000D03*
%TO.P,U1,17,G22*%
%TO.N,/THUMB_2*%
X142575000Y-87200000D03*
%TO.P,U1,18,TX0*%
%TO.N,unconnected-(U1-TX0-Pad18)*%
X145115000Y-87200000D03*
%TO.P,U1,19,RX0*%
%TO.N,unconnected-(U1-RX0-Pad19)*%
X147655000Y-87200000D03*
%TO.P,U1,20,G21*%
%TO.N,/INDEX*%
X150195000Y-87200000D03*
%TO.P,U1,21,G19*%
%TO.N,/MIDDLE*%
X152735000Y-87200000D03*
%TO.P,U1,22,G18*%
%TO.N,/RING*%
X155275000Y-87200000D03*
%TO.P,U1,23,D5*%
%TO.N,unconnected-(U1-D5-Pad23)*%
X157815000Y-87200000D03*
%TO.P,U1,24,TX2*%
%TO.N,unconnected-(U1-TX2-Pad24)*%
X160355000Y-87200000D03*
%TO.P,U1,25,RX2*%
%TO.N,unconnected-(U1-RX2-Pad25)*%
X162895000Y-87200000D03*
%TO.P,U1,26,G4*%
%TO.N,/PINKIE*%
X165435000Y-87200000D03*
%TO.P,U1,27,G2*%
%TO.N,/LIMIT_1*%
X167975000Y-87200000D03*
%TO.P,U1,28,G15*%
%TO.N,/LIMIT_2*%
X170515000Y-87200000D03*
%TO.P,U1,29,GND*%
%TO.N,GND*%
X173055000Y-87200000D03*
%TO.P,U1,30,3V3*%
%TO.N,+3V3*%
X175595000Y-87200000D03*
%TD*%
D10*
%TO.P,SW1,1,A*%
%TO.N,/LIMIT_1*%
X183360000Y-76325000D03*
D11*
%TO.P,SW1,2,B*%
%TO.N,+3V3*%
X185900000Y-76325000D03*
%TD*%
D10*
%TO.P,U4,1,GND*%
%TO.N,GND*%
X178845000Y-126000000D03*
D11*
%TO.P,U4,2,VCC*%
%TO.N,+3V3*%
X178845000Y-123460000D03*
%TO.P,U4,3,CW*%
%TO.N,/CW*%
X178845000Y-120920000D03*
%TO.P,U4,4,DT*%
%TO.N,/DT*%
X178845000Y-118380000D03*
%TD*%
D10*
%TO.P,M1,1,-*%
%TO.N,/THUMB_1*%
X98600000Y-67025000D03*
D11*
%TO.P,M1,2,+*%
%TO.N,7.2V*%
X101140000Y-67025000D03*
%TO.P,M1,3,PWM*%
%TO.N,GND*%
X103680000Y-67025000D03*
%TD*%
D15*
%TO.P,C1,1*%
%TO.N,+12V*%
X92067600Y-107225000D03*
D16*
%TO.P,C1,2*%
%TO.N,GND*%
X90567600Y-107225000D03*
%TD*%
D10*
%TO.P,SW2,1,A*%
%TO.N,/LIMIT_2*%
X183360000Y-80225000D03*
D11*
%TO.P,SW2,2,B*%
%TO.N,+3V3*%
X185900000Y-80225000D03*
%TD*%
D17*
%TO.P,J1,1*%
%TO.N,+12V*%
X93030000Y-119550000D03*
D18*
%TO.P,J1,2*%
%TO.N,GND*%
X87850000Y-119550000D03*
%TD*%
D19*
%TO.P,U2,1,Vin*%
%TO.N,+12V*%
X102275000Y-124760000D03*
D20*
%TO.P,U2,2,GND*%
%TO.N,GND*%
X102275000Y-142540000D03*
%TO.P,U2,3,GND*%
X142915000Y-142540000D03*
%TO.P,U2,4,Vout*%
%TO.N,7.2V*%
X142915000Y-124760000D03*
%TD*%
D10*
%TO.P,M5,1,-*%
%TO.N,/RING*%
X148736000Y-67025000D03*
D11*
%TO.P,M5,2,+*%
%TO.N,7.2V*%
X151276000Y-67025000D03*
%TO.P,M5,3,PWM*%
%TO.N,GND*%
X153816000Y-67025000D03*
%TD*%
D10*
%TO.P,M6,1,-*%
%TO.N,/PINKIE*%
X161270000Y-67025000D03*
D11*
%TO.P,M6,2,+*%
%TO.N,7.2V*%
X163810000Y-67025000D03*
%TO.P,M6,3,PWM*%
%TO.N,GND*%
X166350000Y-67025000D03*
%TD*%
D10*
%TO.P,M3,1,-*%
%TO.N,/INDEX*%
X123668000Y-67025000D03*
D11*
%TO.P,M3,2,+*%
%TO.N,7.2V*%
X126208000Y-67025000D03*
%TO.P,M3,3,PWM*%
%TO.N,GND*%
X128748000Y-67025000D03*
%TD*%
D10*
%TO.P,M4,1,-*%
%TO.N,/MIDDLE*%
X136202000Y-67025000D03*
D11*
%TO.P,M4,2,+*%
%TO.N,7.2V*%
X138742000Y-67025000D03*
%TO.P,M4,3,PWM*%
%TO.N,GND*%
X141282000Y-67025000D03*
%TD*%
D10*
%TO.P,M7,1*%
%TO.N,Net-(U3-2B)*%
X83620000Y-90375000D03*
D11*
%TO.P,M7,2,-*%
%TO.N,Net-(M7--)*%
X83620000Y-87835000D03*
%TO.P,M7,3*%
%TO.N,Net-(U3-1A)*%
X83620000Y-85295000D03*
%TO.P,M7,4*%
%TO.N,Net-(U3-1B)*%
X83620000Y-82755000D03*
%TD*%
D21*
%TO.N,GND*%
X170670000Y-66975000D02*
X169520000Y-68125000D01*
X169520000Y-68125000D02*
X159286000Y-68125000D01*
X159286000Y-68125000D02*
X158136000Y-66975000D01*
%TD*%
%TA.AperFunction,Conductor*%
%TO.N,GND*%
G36*
X115180000Y-95099314D02*
G01*
X115175606Y-95094920D01*
X115084394Y-95042259D01*
X114982661Y-95015000D01*
X114877339Y-95015000D01*
X114775606Y-95042259D01*
X114684394Y-95094920D01*
X114680000Y-95099314D01*
X114680000Y-93190686D01*
X114684394Y-93195080D01*
X114775606Y-93247741D01*
X114877339Y-93275000D01*
X114982661Y-93275000D01*
X115084394Y-93247741D01*
X115175606Y-93195080D01*
X115180000Y-93190686D01*
X115180000Y-95099314D01*
G37*
%TD.AperFunction*%
%TA.AperFunction,Conductor*%
G36*
X115180000Y-92559314D02*
G01*
X115175606Y-92554920D01*
X115084394Y-92502259D01*
X114982661Y-92475000D01*
X114877339Y-92475000D01*
X114775606Y-92502259D01*
X114684394Y-92554920D01*
X114680000Y-92559314D01*
X114680000Y-90650686D01*
X114684394Y-90655080D01*
X114775606Y-90707741D01*
X114877339Y-90735000D01*
X114982661Y-90735000D01*
X115084394Y-90707741D01*
X115175606Y-90655080D01*
X115180000Y-90650686D01*
X115180000Y-92559314D01*
G37*
%TD.AperFunction*%
%TA.AperFunction,Conductor*%
G36*
X115180000Y-90019314D02*
G01*
X115175606Y-90014920D01*
X115084394Y-89962259D01*
X114982661Y-89935000D01*
X114877339Y-89935000D01*
X114775606Y-89962259D01*
X114684394Y-90014920D01*
X114680000Y-90019314D01*
X114680000Y-88110686D01*
X114684394Y-88115080D01*
X114775606Y-88167741D01*
X114877339Y-88195000D01*
X114982661Y-88195000D01*
X115084394Y-88167741D01*
X115175606Y-88115080D01*
X115180000Y-88110686D01*
X115180000Y-90019314D01*
G37*
%TD.AperFunction*%
%TA.AperFunction,Conductor*%
G36*
X187608363Y-55320185D02*
G01*
X187629005Y-55336819D01*
X191263181Y-58970994D01*
X191296666Y-59032317D01*
X191299500Y-59058675D01*
X191299500Y-143341324D01*
X191279815Y-143408363D01*
X191263181Y-143429005D01*
X187629005Y-147063181D01*
X187567682Y-147096666D01*
X187541324Y-147099500D01*
X73808675Y-147099500D01*
X73741636Y-147079815D01*
X73720994Y-147063181D01*
X70086819Y-143429005D01*
X70053334Y-143367682D01*
X70050500Y-143341324D01*
X70050500Y-142539995D01*
X100500037Y-142539995D01*
X100500037Y-142540004D01*
X100519860Y-142804535D01*
X100519861Y-142804540D01*
X100578890Y-143063166D01*
X100578896Y-143063185D01*
X100675814Y-143310128D01*
X100675813Y-143310128D01*
X100808456Y-143539871D01*
X100858641Y-143602803D01*
X101792037Y-142669408D01*
X101809075Y-142732993D01*
X101874901Y-142847007D01*
X101967993Y-142940099D01*
X102082007Y-143005925D01*
X102145591Y-143022962D01*
X101211438Y-143957113D01*
X101387518Y-144077162D01*
X101387526Y-144077167D01*
X101626530Y-144192264D01*
X101626528Y-144192264D01*
X101880025Y-144270458D01*
X101880031Y-144270459D01*
X102142351Y-144309999D01*
X102142358Y-144310000D01*
X102407642Y-144310000D01*
X102407648Y-144309999D01*
X102669968Y-144270459D01*
X102669974Y-144270458D01*
X102923470Y-144192264D01*
X103162474Y-144077167D01*
X103162484Y-144077160D01*
X103338560Y-143957113D01*
X102404408Y-143022962D01*
X102467993Y-143005925D01*
X102582007Y-142940099D01*
X102675099Y-142847007D01*
X102740925Y-142732993D01*
X102757962Y-142669408D01*
X103691357Y-143602803D01*
X103741542Y-143539871D01*
X103874185Y-143310128D01*
X103971103Y-143063185D01*
X103971109Y-143063166D01*
X104030138Y-142804540D01*
X104030139Y-142804535D01*
X104049963Y-142540004D01*
X104049963Y-142539995D01*
X141140037Y-142539995D01*
X141140037Y-142540004D01*
X141159860Y-142804535D01*
X141159861Y-142804540D01*
X141218890Y-143063166D01*
X141218896Y-143063185D01*
X141315814Y-143310128D01*
X141315813Y-143310128D01*
X141448456Y-143539871D01*
X141498641Y-143602803D01*
X142432037Y-142669408D01*
X142449075Y-142732993D01*
X142514901Y-142847007D01*
X142607993Y-142940099D01*
X142722007Y-143005925D01*
X142785591Y-143022962D01*
X141851438Y-143957113D01*
X142027518Y-144077162D01*
X142027526Y-144077167D01*
X142266530Y-144192264D01*
X142266528Y-144192264D01*
X142520025Y-144270458D01*
X142520031Y-144270459D01*
X142782351Y-144309999D01*
X142782358Y-144310000D01*
X143047642Y-144310000D01*
X143047648Y-144309999D01*
X143309968Y-144270459D01*
X143309974Y-144270458D01*
X143563470Y-144192264D01*
X143802474Y-144077167D01*
X143802484Y-144077160D01*
X143978560Y-143957113D01*
X143044408Y-143022962D01*
X143107993Y-143005925D01*
X143222007Y-142940099D01*
X143315099Y-142847007D01*
X143380925Y-142732993D01*
X143397962Y-142669408D01*
X144331357Y-143602803D01*
X144381542Y-143539871D01*
X144514185Y-143310128D01*
X144611103Y-143063185D01*
X144611109Y-143063166D01*
X144670138Y-142804540D01*
X144670139Y-142804535D01*
X144689963Y-142540004D01*
X144689963Y-142539995D01*
X144670139Y-142275464D01*
X144670138Y-142275459D01*
X144611109Y-142016833D01*
X144611103Y-142016814D01*
X144514185Y-141769871D01*
X144514186Y-141769871D01*
X144381543Y-141540128D01*
X144331356Y-141477196D01*
X143397962Y-142410590D01*
X143380925Y-142347007D01*
X143315099Y-142232993D01*
X143222007Y-142139901D01*
X143107993Y-142074075D01*
X143044409Y-142057037D01*
X143978560Y-141122885D01*
X143802475Y-141002833D01*
X143802474Y-141002832D01*
X143563469Y-140887735D01*
X143563471Y-140887735D01*
X143309974Y-140809541D01*
X143309968Y-140809540D01*
X143047648Y-140770000D01*
X142782351Y-140770000D01*
X142520031Y-140809540D01*
X142520025Y-140809541D01*
X142266529Y-140887735D01*
X142027524Y-141002834D01*
X142027511Y-141002841D01*
X141851438Y-141122884D01*
X142785591Y-142057037D01*
X142722007Y-142074075D01*
X142607993Y-142139901D01*
X142514901Y-142232993D01*
X142449075Y-142347007D01*
X142432037Y-142410591D01*
X141498642Y-141477196D01*
X141448457Y-141540127D01*
X141315814Y-141769871D01*
X141218896Y-142016814D01*
X141218890Y-142016833D01*
X141159861Y-142275459D01*
X141159860Y-142275464D01*
X141140037Y-142539995D01*
X104049963Y-142539995D01*
X104030139Y-142275464D01*
X104030138Y-142275459D01*
X103971109Y-142016833D01*
X103971103Y-142016814D01*
X103874185Y-141769871D01*
X103874186Y-141769871D01*
X103741543Y-141540128D01*
X103691356Y-141477196D01*
X102757962Y-142410590D01*
X102740925Y-142347007D01*
X102675099Y-142232993D01*
X102582007Y-142139901D01*
X102467993Y-142074075D01*
X102404409Y-142057037D01*
X103338560Y-141122885D01*
X103162475Y-141002833D01*
X103162474Y-141002832D01*
X102923469Y-140887735D01*
X102923471Y-140887735D01*
X102669974Y-140809541D01*
X102669968Y-140809540D01*
X102407648Y-140770000D01*
X102142351Y-140770000D01*
X101880031Y-140809540D01*
X101880025Y-140809541D01*
X101626529Y-140887735D01*
X101387524Y-141002834D01*
X101387511Y-141002841D01*
X101211438Y-141122884D01*
X102145591Y-142057037D01*
X102082007Y-142074075D01*
X101967993Y-142139901D01*
X101874901Y-142232993D01*
X101809075Y-142347007D01*
X101792037Y-142410591D01*
X100858642Y-141477196D01*
X100808457Y-141540127D01*
X100675814Y-141769871D01*
X100578896Y-142016814D01*
X100578890Y-142016833D01*
X100519861Y-142275459D01*
X100519860Y-142275464D01*
X100500037Y-142539995D01*
X70050500Y-142539995D01*
X70050500Y-136987106D01*
X81769500Y-136987106D01*
X81769500Y-137312893D01*
X81805974Y-137636604D01*
X81805976Y-137636620D01*
X81878467Y-137954226D01*
X81878471Y-137954238D01*
X81986066Y-138261725D01*
X82127413Y-138555234D01*
X82127415Y-138555237D01*
X82300739Y-138831081D01*
X82503857Y-139085783D01*
X82734217Y-139316143D01*
X82988919Y-139519261D01*
X83264763Y-139692585D01*
X83558278Y-139833935D01*
X83789217Y-139914744D01*
X83865761Y-139941528D01*
X83865773Y-139941532D01*
X84183383Y-140014024D01*
X84507106Y-140050499D01*
X84507107Y-140050500D01*
X84507111Y-140050500D01*
X84832893Y-140050500D01*
X84832893Y-140050499D01*
X85156617Y-140014024D01*
X85474227Y-139941532D01*
X85781722Y-139833935D01*
X86075237Y-139692585D01*
X86351081Y-139519261D01*
X86605783Y-139316143D01*
X86836143Y-139085783D01*
X87039261Y-138831081D01*
X87212585Y-138555237D01*
X87353935Y-138261722D01*
X87461532Y-137954227D01*
X87534024Y-137636617D01*
X87570500Y-137312889D01*
X87570500Y-136987111D01*
X87570499Y-136987106D01*
X176319500Y-136987106D01*
X176319500Y-137312893D01*
X176355974Y-137636604D01*
X176355976Y-137636620D01*
X176428467Y-137954226D01*
X176428471Y-137954238D01*
X176536066Y-138261725D01*
X176677413Y-138555234D01*
X176677415Y-138555237D01*
X176850739Y-138831081D01*
X177053857Y-139085783D01*
X177284217Y-139316143D01*
X177538919Y-139519261D01*
X177814763Y-139692585D01*
X178108278Y-139833935D01*
X178339217Y-139914744D01*
X178415761Y-139941528D01*
X178415773Y-139941532D01*
X178733383Y-140014024D01*
X179057106Y-140050499D01*
X179057107Y-140050500D01*
X179057111Y-140050500D01*
X179382893Y-140050500D01*
X179382893Y-140050499D01*
X179706617Y-140014024D01*
X180024227Y-139941532D01*
X180331722Y-139833935D01*
X180625237Y-139692585D01*
X180901081Y-139519261D01*
X181155783Y-139316143D01*
X181386143Y-139085783D01*
X181589261Y-138831081D01*
X181762585Y-138555237D01*
X181903935Y-138261722D01*
X182011532Y-137954227D01*
X182084024Y-137636617D01*
X182120500Y-137312889D01*
X182120500Y-136987111D01*
X182084024Y-136663383D01*
X182011532Y-136345773D01*
X181903935Y-136038278D01*
X181762585Y-135744763D01*
X181589261Y-135468919D01*
X181386143Y-135214217D01*
X181155783Y-134983857D01*
X180901081Y-134780739D01*
X180625237Y-134607415D01*
X180625234Y-134607413D01*
X180331725Y-134466066D01*
X180024238Y-134358471D01*
X180024226Y-134358467D01*
X179706620Y-134285976D01*
X179706604Y-134285974D01*
X179382893Y-134249500D01*
X179382889Y-134249500D01*
X179057111Y-134249500D01*
X179057107Y-134249500D01*
X178733395Y-134285974D01*
X178733379Y-134285976D01*
X178415773Y-134358467D01*
X178415761Y-134358471D01*
X178108274Y-134466066D01*
X177814765Y-134607413D01*
X177538920Y-134780738D01*
X177284217Y-134983856D01*
X177053856Y-135214217D01*
X176850738Y-135468920D01*
X176677413Y-135744765D01*
X176536066Y-136038274D01*
X176428471Y-136345761D01*
X176428467Y-136345773D01*
X176355976Y-136663379D01*
X176355974Y-136663395D01*
X176319500Y-136987106D01*
X87570499Y-136987106D01*
X87534024Y-136663383D01*
X87461532Y-136345773D01*
X87353935Y-136038278D01*
X87212585Y-135744763D01*
X87039261Y-135468919D01*
X86836143Y-135214217D01*
X86605783Y-134983857D01*
X86351081Y-134780739D01*
X86075237Y-134607415D01*
X86075234Y-134607413D01*
X85781725Y-134466066D01*
X85474238Y-134358471D01*
X85474226Y-134358467D01*
X85156620Y-134285976D01*
X85156604Y-134285974D01*
X84832893Y-134249500D01*
X84832889Y-134249500D01*
X84507111Y-134249500D01*
X84507107Y-134249500D01*
X84183395Y-134285974D01*
X84183379Y-134285976D01*
X83865773Y-134358467D01*
X83865761Y-134358471D01*
X83558274Y-134466066D01*
X83264765Y-134607413D01*
X82988920Y-134780738D01*
X82734217Y-134983856D01*
X82503856Y-135214217D01*
X82300738Y-135468920D01*
X82127413Y-135744765D01*
X81986066Y-136038274D01*
X81878471Y-136345761D01*
X81878467Y-136345773D01*
X81805976Y-136663379D01*
X81805974Y-136663395D01*
X81769500Y-136987106D01*
X70050500Y-136987106D01*
X70050500Y-110484108D01*
X73859500Y-110484108D01*
X73859500Y-128615891D01*
X73893608Y-128743187D01*
X73926554Y-128800250D01*
X73959500Y-128857314D01*
X74052686Y-128950500D01*
X74166814Y-129016392D01*
X74294108Y-129050500D01*
X74294110Y-129050500D01*
X74425890Y-129050500D01*
X74425892Y-129050500D01*
X74553186Y-129016392D01*
X74667314Y-128950500D01*
X74760500Y-128857314D01*
X74826392Y-128743186D01*
X74860500Y-128615892D01*
X74860500Y-123442135D01*
X100504500Y-123442135D01*
X100504500Y-126077870D01*
X100504501Y-126077876D01*
X100510908Y-126137483D01*
X100561202Y-126272328D01*
X100561206Y-126272335D01*
X100647452Y-126387544D01*
X100647455Y-126387547D01*
X100762664Y-126473793D01*
X100762671Y-126473797D01*
X100897517Y-126524091D01*
X100897516Y-126524091D01*
X100904444Y-126524835D01*
X100957127Y-126530500D01*
X103592872Y-126530499D01*
X103652483Y-126524091D01*
X103787331Y-126473796D01*
X103902546Y-126387546D01*
X103988796Y-126272331D01*
X104039091Y-126137483D01*
X104045500Y-126077873D01*
X104045499Y-124759995D01*
X141139535Y-124759995D01*
X141139535Y-124760004D01*
X141159363Y-125024609D01*
X141159364Y-125024614D01*
X141218410Y-125283313D01*
X141218412Y-125283322D01*
X141218414Y-125283327D01*
X141315361Y-125530345D01*
X141448042Y-125760155D01*
X141613492Y-125967623D01*
X141808016Y-126148114D01*
X142027268Y-126297598D01*
X142266350Y-126412734D01*
X142519922Y-126490950D01*
X142519923Y-126490950D01*
X142519926Y-126490951D01*
X142782311Y-126530499D01*
X142782316Y-126530499D01*
X142782319Y-126530500D01*
X142782320Y-126530500D01*
X143047680Y-126530500D01*
X143047681Y-126530500D01*
X143047688Y-126530499D01*
X143310073Y-126490951D01*
X143310074Y-126490950D01*
X143310078Y-126490950D01*
X143563650Y-126412734D01*
X143802733Y-126297598D01*
X144021984Y-126148114D01*
X144216508Y-125967623D01*
X144381958Y-125760155D01*
X144514639Y-125530345D01*
X144611586Y-125283327D01*
X144670635Y-125024619D01*
X144679381Y-124907913D01*
X144690465Y-124760004D01*
X144690465Y-124759995D01*
X144670636Y-124495390D01*
X144670635Y-124495385D01*
X144670635Y-124495381D01*
X144611586Y-124236673D01*
X144514639Y-123989655D01*
X144381958Y-123759845D01*
X144216508Y-123552377D01*
X144021984Y-123371886D01*
X143802733Y-123222402D01*
X143802732Y-123222401D01*
X143802725Y-123222397D01*
X143563655Y-123107268D01*
X143563636Y-123107261D01*
X143310083Y-123029051D01*
X143310073Y-123029048D01*
X143047688Y-122989500D01*
X143047681Y-122989500D01*
X142782319Y-122989500D01*
X142782311Y-122989500D01*
X142519926Y-123029048D01*
X142519916Y-123029051D01*
X142266363Y-123107261D01*
X142266344Y-123107268D01*
X142027276Y-123222397D01*
X142027274Y-123222398D01*
X141808015Y-123371886D01*
X141613494Y-123552375D01*
X141613492Y-123552377D01*
X141448042Y-123759845D01*
X141315361Y-123989654D01*
X141218416Y-124236667D01*
X141218410Y-124236686D01*
X141159364Y-124495385D01*
X141159363Y-124495390D01*
X141139535Y-124759995D01*
X104045499Y-124759995D01*
X104045499Y-123442128D01*
X104039091Y-123382517D01*
X103988796Y-123247669D01*
X103988795Y-123247668D01*
X103988793Y-123247664D01*
X103902547Y-123132455D01*
X103902544Y-123132452D01*
X103787335Y-123046206D01*
X103787328Y-123046202D01*
X103652482Y-122995908D01*
X103652483Y-122995908D01*
X103592883Y-122989501D01*
X103592881Y-122989500D01*
X103592873Y-122989500D01*
X103592864Y-122989500D01*
X100957129Y-122989500D01*
X100957123Y-122989501D01*
X100897516Y-122995908D01*
X100762671Y-123046202D01*
X100762664Y-123046206D01*
X100647455Y-123132452D01*
X100647452Y-123132455D01*
X100561206Y-123247664D01*
X100561202Y-123247671D01*
X100510908Y-123382517D01*
X100504501Y-123442116D01*
X100504501Y-123442123D01*
X100504500Y-123442135D01*
X74860500Y-123442135D01*
X74860500Y-117931154D01*
X86340000Y-117931154D01*
X86340000Y-119300000D01*
X87340000Y-119300000D01*
X87340000Y-119800000D01*
X86340000Y-119800000D01*
X86340000Y-121168845D01*
X86377181Y-121403593D01*
X86377181Y-121403596D01*
X86450629Y-121629641D01*
X86558532Y-121841412D01*
X86698239Y-122033700D01*
X86698239Y-122033701D01*
X86866298Y-122201760D01*
X87058587Y-122341467D01*
X87270358Y-122449370D01*
X87496406Y-122522818D01*
X87600000Y-122539226D01*
X87600000Y-121494560D01*
X87653147Y-121525245D01*
X87782857Y-121560000D01*
X87917143Y-121560000D01*
X88046853Y-121525245D01*
X88100000Y-121494560D01*
X88100000Y-122539225D01*
X88203593Y-122522818D01*
X88429641Y-122449370D01*
X88641412Y-122341467D01*
X88833700Y-122201760D01*
X88833701Y-122201760D01*
X89001760Y-122033701D01*
X89001760Y-122033700D01*
X89141467Y-121841412D01*
X89249370Y-121629641D01*
X89322818Y-121403596D01*
X89322818Y-121403593D01*
X89360000Y-121168845D01*
X89360000Y-119800000D01*
X88360000Y-119800000D01*
X88360000Y-119300000D01*
X89360000Y-119300000D01*
X89360000Y-117931154D01*
X89322818Y-117696406D01*
X89322818Y-117696403D01*
X89249370Y-117470358D01*
X89141467Y-117258587D01*
X89001760Y-117066299D01*
X89001760Y-117066298D01*
X88927597Y-116992135D01*
X91519500Y-116992135D01*
X91519500Y-122107870D01*
X91519501Y-122107876D01*
X91525908Y-122167483D01*
X91576202Y-122302328D01*
X91576206Y-122302335D01*
X91662452Y-122417544D01*
X91662455Y-122417547D01*
X91777664Y-122503793D01*
X91777671Y-122503797D01*
X91912517Y-122554091D01*
X91912516Y-122554091D01*
X91919444Y-122554835D01*
X91972127Y-122560500D01*
X94087872Y-122560499D01*
X94147483Y-122554091D01*
X94282331Y-122503796D01*
X94397546Y-122417546D01*
X94483796Y-122302331D01*
X94534091Y-122167483D01*
X94540500Y-122107873D01*
X94540499Y-118379999D01*
X177489341Y-118379999D01*
X177489341Y-118380000D01*
X177509936Y-118615403D01*
X177509938Y-118615413D01*
X177571094Y-118843655D01*
X177571096Y-118843659D01*
X177571097Y-118843663D01*
X177670965Y-119057830D01*
X177670967Y-119057834D01*
X177806501Y-119251395D01*
X177806506Y-119251402D01*
X177973597Y-119418493D01*
X177973603Y-119418498D01*
X178159158Y-119548425D01*
X178202783Y-119603002D01*
X178209977Y-119672500D01*
X178178454Y-119734855D01*
X178159158Y-119751575D01*
X177973597Y-119881505D01*
X177806505Y-120048597D01*
X177670965Y-120242169D01*
X177670964Y-120242171D01*
X177571098Y-120456335D01*
X177571094Y-120456344D01*
X177509938Y-120684586D01*
X177509936Y-120684596D01*
X177489341Y-120919999D01*
X177489341Y-120920000D01*
X177509936Y-121155403D01*
X177509938Y-121155413D01*
X177571094Y-121383655D01*
X177571096Y-121383659D01*
X177571097Y-121383663D01*
X177580391Y-121403593D01*
X177670965Y-121597830D01*
X177670967Y-121597834D01*
X177806501Y-121791395D01*
X177806506Y-121791402D01*
X177973597Y-121958493D01*
X177973603Y-121958498D01*
X178159158Y-122088425D01*
X178202783Y-122143002D01*
X178209977Y-122212500D01*
X178178454Y-122274855D01*
X178159158Y-122291575D01*
X177973597Y-122421505D01*
X177806505Y-122588597D01*
X177670965Y-122782169D01*
X177670964Y-122782171D01*
X177571098Y-122996335D01*
X177571094Y-122996344D01*
X177509938Y-123224586D01*
X177509936Y-123224596D01*
X177489341Y-123459999D01*
X177489341Y-123460000D01*
X177509936Y-123695403D01*
X177509938Y-123695413D01*
X177571094Y-123923655D01*
X177571096Y-123923659D01*
X177571097Y-123923663D01*
X177601870Y-123989655D01*
X177670965Y-124137830D01*
X177670967Y-124137834D01*
X177779281Y-124292521D01*
X177806501Y-124331396D01*
X177806506Y-124331402D01*
X177928818Y-124453714D01*
X177962303Y-124515037D01*
X177957319Y-124584729D01*
X177915447Y-124640662D01*
X177884471Y-124657577D01*
X177752912Y-124706646D01*
X177752906Y-124706649D01*
X177637812Y-124792809D01*
X177637809Y-124792812D01*
X177551649Y-124907906D01*
X177551645Y-124907913D01*
X177501403Y-125042620D01*
X177501401Y-125042627D01*
X177495000Y-125102155D01*
X177495000Y-125750000D01*
X178411988Y-125750000D01*
X178379075Y-125807007D01*
X178345000Y-125934174D01*
X178345000Y-126065826D01*
X178379075Y-126192993D01*
X178411988Y-126250000D01*
X177495000Y-126250000D01*
X177495000Y-126897844D01*
X177501401Y-126957372D01*
X177501403Y-126957379D01*
X177551645Y-127092086D01*
X177551649Y-127092093D01*
X177637809Y-127207187D01*
X177637812Y-127207190D01*
X177752906Y-127293350D01*
X177752913Y-127293354D01*
X177887620Y-127343596D01*
X177887627Y-127343598D01*
X177947155Y-127349999D01*
X177947172Y-127350000D01*
X178595000Y-127350000D01*
X178595000Y-126433012D01*
X178652007Y-126465925D01*
X178779174Y-126500000D01*
X178910826Y-126500000D01*
X179037993Y-126465925D01*
X179095000Y-126433012D01*
X179095000Y-127350000D01*
X179742828Y-127350000D01*
X179742844Y-127349999D01*
X179802372Y-127343598D01*
X179802379Y-127343596D01*
X179937086Y-127293354D01*
X179937093Y-127293350D01*
X180052187Y-127207190D01*
X180052190Y-127207187D01*
X180138350Y-127092093D01*
X180138354Y-127092086D01*
X180188596Y-126957379D01*
X180188598Y-126957372D01*
X180194999Y-126897844D01*
X180195000Y-126897827D01*
X180195000Y-126250000D01*
X179278012Y-126250000D01*
X179310925Y-126192993D01*
X179345000Y-126065826D01*
X179345000Y-125934174D01*
X179310925Y-125807007D01*
X179278012Y-125750000D01*
X180195000Y-125750000D01*
X180195000Y-125102172D01*
X180194999Y-125102155D01*
X180188598Y-125042627D01*
X180188596Y-125042620D01*
X180138354Y-124907913D01*
X180138350Y-124907906D01*
X180052190Y-124792812D01*
X180052187Y-124792809D01*
X179937093Y-124706649D01*
X179937088Y-124706646D01*
X179805528Y-124657577D01*
X179749595Y-124615705D01*
X179725178Y-124550241D01*
X179740030Y-124481968D01*
X179761175Y-124453720D01*
X179883495Y-124331401D01*
X180019035Y-124137830D01*
X180118903Y-123923663D01*
X180180063Y-123695408D01*
X180200659Y-123460000D01*
X180199095Y-123442129D01*
X180182082Y-123247669D01*
X180180063Y-123224592D01*
X180118903Y-122996337D01*
X180019035Y-122782171D01*
X179883495Y-122588599D01*
X179883494Y-122588597D01*
X179716402Y-122421506D01*
X179716396Y-122421501D01*
X179530842Y-122291575D01*
X179487217Y-122236998D01*
X179480023Y-122167500D01*
X179511546Y-122105145D01*
X179530842Y-122088425D01*
X179608997Y-122033700D01*
X179716401Y-121958495D01*
X179883495Y-121791401D01*
X180019035Y-121597830D01*
X180118903Y-121383663D01*
X180180063Y-121155408D01*
X180200659Y-120920000D01*
X180180063Y-120684592D01*
X180118903Y-120456337D01*
X180019035Y-120242171D01*
X179883495Y-120048599D01*
X179883494Y-120048597D01*
X179716402Y-119881506D01*
X179716396Y-119881501D01*
X179530842Y-119751575D01*
X179487217Y-119696998D01*
X179480023Y-119627500D01*
X179511546Y-119565145D01*
X179530842Y-119548425D01*
X179553026Y-119532891D01*
X179716401Y-119418495D01*
X179883495Y-119251401D01*
X180019035Y-119057830D01*
X180118903Y-118843663D01*
X180180063Y-118615408D01*
X180200659Y-118380000D01*
X180180063Y-118144592D01*
X180118903Y-117916337D01*
X180019035Y-117702171D01*
X180014999Y-117696406D01*
X179883494Y-117508597D01*
X179716402Y-117341506D01*
X179716395Y-117341501D01*
X179522834Y-117205967D01*
X179522830Y-117205965D01*
X179522828Y-117205964D01*
X179308663Y-117106097D01*
X179308659Y-117106096D01*
X179308655Y-117106094D01*
X179080413Y-117044938D01*
X179080403Y-117044936D01*
X178845001Y-117024341D01*
X178844999Y-117024341D01*
X178609596Y-117044936D01*
X178609586Y-117044938D01*
X178381344Y-117106094D01*
X178381335Y-117106098D01*
X178167171Y-117205964D01*
X178167169Y-117205965D01*
X177973597Y-117341505D01*
X177806505Y-117508597D01*
X177670965Y-117702169D01*
X177670964Y-117702171D01*
X177571098Y-117916335D01*
X177571094Y-117916344D01*
X177509938Y-118144586D01*
X177509936Y-118144596D01*
X177489341Y-118379999D01*
X94540499Y-118379999D01*
X94540499Y-116992128D01*
X94534091Y-116932517D01*
X94483796Y-116797669D01*
X94483795Y-116797668D01*
X94483793Y-116797664D01*
X94397547Y-116682455D01*
X94397544Y-116682452D01*
X94282335Y-116596206D01*
X94282328Y-116596202D01*
X94147482Y-116545908D01*
X94147483Y-116545908D01*
X94087883Y-116539501D01*
X94087881Y-116539500D01*
X94087873Y-116539500D01*
X94087864Y-116539500D01*
X91972129Y-116539500D01*
X91972123Y-116539501D01*
X91912516Y-116545908D01*
X91777671Y-116596202D01*
X91777664Y-116596206D01*
X91662455Y-116682452D01*
X91662452Y-116682455D01*
X91576206Y-116797664D01*
X91576202Y-116797671D01*
X91525908Y-116932517D01*
X91519501Y-116992116D01*
X91519501Y-116992123D01*
X91519500Y-116992135D01*
X88927597Y-116992135D01*
X88833701Y-116898239D01*
X88641412Y-116758532D01*
X88429641Y-116650629D01*
X88203589Y-116577180D01*
X88203590Y-116577180D01*
X88100000Y-116560773D01*
X88100000Y-117605439D01*
X88046853Y-117574755D01*
X87917143Y-117540000D01*
X87782857Y-117540000D01*
X87653147Y-117574755D01*
X87600000Y-117605439D01*
X87600000Y-116560773D01*
X87496410Y-116577180D01*
X87270358Y-116650629D01*
X87058587Y-116758532D01*
X86866299Y-116898239D01*
X86866298Y-116898239D01*
X86698239Y-117066298D01*
X86698239Y-117066299D01*
X86558532Y-117258587D01*
X86450629Y-117470358D01*
X86377181Y-117696403D01*
X86377181Y-117696406D01*
X86340000Y-117931154D01*
X74860500Y-117931154D01*
X74860500Y-112599997D01*
X138767677Y-112599997D01*
X138767677Y-112600002D01*
X138786929Y-112820062D01*
X138786930Y-112820070D01*
X138844104Y-113033445D01*
X138844105Y-113033447D01*
X138844106Y-113033450D01*
X138877106Y-113104218D01*
X138937466Y-113233662D01*
X138937468Y-113233666D01*
X139064170Y-113414615D01*
X139064175Y-113414621D01*
X139220378Y-113570824D01*
X139220384Y-113570829D01*
X139401333Y-113697531D01*
X139401335Y-113697532D01*
X139401338Y-113697534D01*
X139601550Y-113790894D01*
X139814932Y-113848070D01*
X139972123Y-113861822D01*
X140034998Y-113867323D01*
X140035000Y-113867323D01*
X140035002Y-113867323D01*
X140090017Y-113862509D01*
X140255068Y-113848070D01*
X140468450Y-113790894D01*
X140668662Y-113697534D01*
X140849620Y-113570826D01*
X141005826Y-113414620D01*
X141132534Y-113233662D01*
X141192618Y-113104811D01*
X141238790Y-113052371D01*
X141305983Y-113033219D01*
X141372865Y-113053435D01*
X141417382Y-113104811D01*
X141477464Y-113233658D01*
X141477468Y-113233666D01*
X141604170Y-113414615D01*
X141604175Y-113414621D01*
X141760378Y-113570824D01*
X141760384Y-113570829D01*
X141941333Y-113697531D01*
X141941335Y-113697532D01*
X141941338Y-113697534D01*
X142141550Y-113790894D01*
X142354932Y-113848070D01*
X142512123Y-113861822D01*
X142574998Y-113867323D01*
X142575000Y-113867323D01*
X142575002Y-113867323D01*
X142630017Y-113862509D01*
X142795068Y-113848070D01*
X143008450Y-113790894D01*
X143208662Y-113697534D01*
X143389620Y-113570826D01*
X143545826Y-113414620D01*
X143672534Y-113233662D01*
X143732618Y-113104811D01*
X143778790Y-113052371D01*
X143845983Y-113033219D01*
X143912865Y-113053435D01*
X143957382Y-113104811D01*
X144017464Y-113233658D01*
X144017468Y-113233666D01*
X144144170Y-113414615D01*
X144144175Y-113414621D01*
X144300378Y-113570824D01*
X144300384Y-113570829D01*
X144481333Y-113697531D01*
X144481335Y-113697532D01*
X144481338Y-113697534D01*
X144681550Y-113790894D01*
X144894932Y-113848070D01*
X145052123Y-113861822D01*
X145114998Y-113867323D01*
X145115000Y-113867323D01*
X145115002Y-113867323D01*
X145170017Y-113862509D01*
X145335068Y-113848070D01*
X145548450Y-113790894D01*
X145748662Y-113697534D01*
X145929620Y-113570826D01*
X146085826Y-113414620D01*
X146212534Y-113233662D01*
X146272618Y-113104811D01*
X146318790Y-113052371D01*
X146385983Y-113033219D01*
X146452865Y-113053435D01*
X146497382Y-113104811D01*
X146557464Y-113233658D01*
X146557468Y-113233666D01*
X146684170Y-113414615D01*
X146684175Y-113414621D01*
X146840378Y-113570824D01*
X146840384Y-113570829D01*
X147021333Y-113697531D01*
X147021335Y-113697532D01*
X147021338Y-113697534D01*
X147221550Y-113790894D01*
X147434932Y-113848070D01*
X147592123Y-113861822D01*
X147654998Y-113867323D01*
X147655000Y-113867323D01*
X147655002Y-113867323D01*
X147710017Y-113862509D01*
X147875068Y-113848070D01*
X148088450Y-113790894D01*
X148288662Y-113697534D01*
X148469620Y-113570826D01*
X148625826Y-113414620D01*
X148752534Y-113233662D01*
X148812618Y-113104811D01*
X148858790Y-113052371D01*
X148925983Y-113033219D01*
X148992865Y-113053435D01*
X149037382Y-113104811D01*
X149097464Y-113233658D01*
X149097468Y-113233666D01*
X149224170Y-113414615D01*
X149224175Y-113414621D01*
X149380378Y-113570824D01*
X149380384Y-113570829D01*
X149561333Y-113697531D01*
X149561335Y-113697532D01*
X149561338Y-113697534D01*
X149761550Y-113790894D01*
X149974932Y-113848070D01*
X150132123Y-113861822D01*
X150194998Y-113867323D01*
X150195000Y-113867323D01*
X150195002Y-113867323D01*
X150250017Y-113862509D01*
X150415068Y-113848070D01*
X150628450Y-113790894D01*
X150828662Y-113697534D01*
X151009620Y-113570826D01*
X151165826Y-113414620D01*
X151292534Y-113233662D01*
X151352618Y-113104811D01*
X151398790Y-113052371D01*
X151465983Y-113033219D01*
X151532865Y-113053435D01*
X151577382Y-113104811D01*
X151637464Y-113233658D01*
X151637468Y-113233666D01*
X151764170Y-113414615D01*
X151764175Y-113414621D01*
X151920378Y-113570824D01*
X151920384Y-113570829D01*
X152101333Y-113697531D01*
X152101335Y-113697532D01*
X152101338Y-113697534D01*
X152301550Y-113790894D01*
X152514932Y-113848070D01*
X152672123Y-113861822D01*
X152734998Y-113867323D01*
X152735000Y-113867323D01*
X152735002Y-113867323D01*
X152790017Y-113862509D01*
X152955068Y-113848070D01*
X153168450Y-113790894D01*
X153368662Y-113697534D01*
X153549620Y-113570826D01*
X153705826Y-113414620D01*
X153832534Y-113233662D01*
X153892618Y-113104811D01*
X153938790Y-113052371D01*
X154005983Y-113033219D01*
X154072865Y-113053435D01*
X154117382Y-113104811D01*
X154177464Y-113233658D01*
X154177468Y-113233666D01*
X154304170Y-113414615D01*
X154304175Y-113414621D01*
X154460378Y-113570824D01*
X154460384Y-113570829D01*
X154641333Y-113697531D01*
X154641335Y-113697532D01*
X154641338Y-113697534D01*
X154841550Y-113790894D01*
X155054932Y-113848070D01*
X155212123Y-113861822D01*
X155274998Y-113867323D01*
X155275000Y-113867323D01*
X155275002Y-113867323D01*
X155330017Y-113862509D01*
X155495068Y-113848070D01*
X155708450Y-113790894D01*
X155908662Y-113697534D01*
X156089620Y-113570826D01*
X156245826Y-113414620D01*
X156372534Y-113233662D01*
X156432618Y-113104811D01*
X156478790Y-113052371D01*
X156545983Y-113033219D01*
X156612865Y-113053435D01*
X156657382Y-113104811D01*
X156717464Y-113233658D01*
X156717468Y-113233666D01*
X156844170Y-113414615D01*
X156844175Y-113414621D01*
X157000378Y-113570824D01*
X157000384Y-113570829D01*
X157181333Y-113697531D01*
X157181335Y-113697532D01*
X157181338Y-113697534D01*
X157381550Y-113790894D01*
X157594932Y-113848070D01*
X157752123Y-113861822D01*
X157814998Y-113867323D01*
X157815000Y-113867323D01*
X157815002Y-113867323D01*
X157870017Y-113862509D01*
X158035068Y-113848070D01*
X158248450Y-113790894D01*
X158448662Y-113697534D01*
X158629620Y-113570826D01*
X158785826Y-113414620D01*
X158912534Y-113233662D01*
X158972618Y-113104811D01*
X159018790Y-113052371D01*
X159085983Y-113033219D01*
X159152865Y-113053435D01*
X159197382Y-113104811D01*
X159257464Y-113233658D01*
X159257468Y-113233666D01*
X159384170Y-113414615D01*
X159384175Y-113414621D01*
X159540378Y-113570824D01*
X159540384Y-113570829D01*
X159721333Y-113697531D01*
X159721335Y-113697532D01*
X159721338Y-113697534D01*
X159921550Y-113790894D01*
X160134932Y-113848070D01*
X160292123Y-113861822D01*
X160354998Y-113867323D01*
X160355000Y-113867323D01*
X160355002Y-113867323D01*
X160410017Y-113862509D01*
X160575068Y-113848070D01*
X160788450Y-113790894D01*
X160988662Y-113697534D01*
X161169620Y-113570826D01*
X161325826Y-113414620D01*
X161452534Y-113233662D01*
X161512618Y-113104811D01*
X161558790Y-113052371D01*
X161625983Y-113033219D01*
X161692865Y-113053435D01*
X161737382Y-113104811D01*
X161797464Y-113233658D01*
X161797468Y-113233666D01*
X161924170Y-113414615D01*
X161924175Y-113414621D01*
X162080378Y-113570824D01*
X162080384Y-113570829D01*
X162261333Y-113697531D01*
X162261335Y-113697532D01*
X162261338Y-113697534D01*
X162461550Y-113790894D01*
X162674932Y-113848070D01*
X162832123Y-113861822D01*
X162894998Y-113867323D01*
X162895000Y-113867323D01*
X162895002Y-113867323D01*
X162950017Y-113862509D01*
X163115068Y-113848070D01*
X163328450Y-113790894D01*
X163528662Y-113697534D01*
X163709620Y-113570826D01*
X163865826Y-113414620D01*
X163992534Y-113233662D01*
X164052618Y-113104811D01*
X164098790Y-113052371D01*
X164165983Y-113033219D01*
X164232865Y-113053435D01*
X164277382Y-113104811D01*
X164337464Y-113233658D01*
X164337468Y-113233666D01*
X164464170Y-113414615D01*
X164464175Y-113414621D01*
X164620378Y-113570824D01*
X164620384Y-113570829D01*
X164801333Y-113697531D01*
X164801335Y-113697532D01*
X164801338Y-113697534D01*
X165001550Y-113790894D01*
X165214932Y-113848070D01*
X165372123Y-113861822D01*
X165434998Y-113867323D01*
X165435000Y-113867323D01*
X165435002Y-113867323D01*
X165490017Y-113862509D01*
X165655068Y-113848070D01*
X165868450Y-113790894D01*
X166068662Y-113697534D01*
X166249620Y-113570826D01*
X166405826Y-113414620D01*
X166532534Y-113233662D01*
X166592618Y-113104811D01*
X166638790Y-113052371D01*
X166705983Y-113033219D01*
X166772865Y-113053435D01*
X166817382Y-113104811D01*
X166877464Y-113233658D01*
X166877468Y-113233666D01*
X167004170Y-113414615D01*
X167004175Y-113414621D01*
X167160378Y-113570824D01*
X167160384Y-113570829D01*
X167341333Y-113697531D01*
X167341335Y-113697532D01*
X167341338Y-113697534D01*
X167541550Y-113790894D01*
X167754932Y-113848070D01*
X167912123Y-113861822D01*
X167974998Y-113867323D01*
X167975000Y-113867323D01*
X167975002Y-113867323D01*
X168030017Y-113862509D01*
X168195068Y-113848070D01*
X168408450Y-113790894D01*
X168608662Y-113697534D01*
X168789620Y-113570826D01*
X168945826Y-113414620D01*
X169072534Y-113233662D01*
X169132618Y-113104811D01*
X169178790Y-113052371D01*
X169245983Y-113033219D01*
X169312865Y-113053435D01*
X169357382Y-113104811D01*
X169417464Y-113233658D01*
X169417468Y-113233666D01*
X169544170Y-113414615D01*
X169544175Y-113414621D01*
X169700378Y-113570824D01*
X169700384Y-113570829D01*
X169881333Y-113697531D01*
X169881335Y-113697532D01*
X169881338Y-113697534D01*
X170081550Y-113790894D01*
X170294932Y-113848070D01*
X170452123Y-113861822D01*
X170514998Y-113867323D01*
X170515000Y-113867323D01*
X170515002Y-113867323D01*
X170570017Y-113862509D01*
X170735068Y-113848070D01*
X170948450Y-113790894D01*
X171148662Y-113697534D01*
X171329620Y-113570826D01*
X171485826Y-113414620D01*
X171612534Y-113233662D01*
X171672894Y-113104218D01*
X171719066Y-113051779D01*
X171786259Y-113032627D01*
X171853141Y-113052843D01*
X171897658Y-113104219D01*
X171957898Y-113233405D01*
X171957901Y-113233411D01*
X172003258Y-113298187D01*
X172003258Y-113298188D01*
X172674000Y-112627446D01*
X172674000Y-112650160D01*
X172699964Y-112747061D01*
X172750124Y-112833940D01*
X172821060Y-112904876D01*
X172907939Y-112955036D01*
X173004840Y-112981000D01*
X173027553Y-112981000D01*
X172356810Y-113651740D01*
X172421590Y-113697099D01*
X172421592Y-113697100D01*
X172621715Y-113790419D01*
X172621729Y-113790424D01*
X172835013Y-113847573D01*
X172835023Y-113847575D01*
X173054999Y-113866821D01*
X173055001Y-113866821D01*
X173274976Y-113847575D01*
X173274986Y-113847573D01*
X173488270Y-113790424D01*
X173488284Y-113790419D01*
X173688407Y-113697100D01*
X173688417Y-113697094D01*
X173753188Y-113651741D01*
X173082448Y-112981000D01*
X173105160Y-112981000D01*
X173202061Y-112955036D01*
X173288940Y-112904876D01*
X173359876Y-112833940D01*
X173410036Y-112747061D01*
X173436000Y-112650160D01*
X173436000Y-112627447D01*
X174106741Y-113298188D01*
X174152094Y-113233417D01*
X174152095Y-113233416D01*
X174212340Y-113104219D01*
X174258512Y-113051780D01*
X174325706Y-113032627D01*
X174392587Y-113052842D01*
X174437105Y-113104218D01*
X174497466Y-113233662D01*
X174497468Y-113233666D01*
X174624170Y-113414615D01*
X174624175Y-113414621D01*
X174780378Y-113570824D01*
X174780384Y-113570829D01*
X174961333Y-113697531D01*
X174961335Y-113697532D01*
X174961338Y-113697534D01*
X175161550Y-113790894D01*
X175374932Y-113848070D01*
X175532123Y-113861822D01*
X175594998Y-113867323D01*
X175595000Y-113867323D01*
X175595002Y-113867323D01*
X175650017Y-113862509D01*
X175815068Y-113848070D01*
X176028450Y-113790894D01*
X176228662Y-113697534D01*
X176409620Y-113570826D01*
X176565826Y-113414620D01*
X176692534Y-113233662D01*
X176785894Y-113033450D01*
X176843070Y-112820068D01*
X176862323Y-112600000D01*
X176843070Y-112379932D01*
X176785894Y-112166550D01*
X176692534Y-111966339D01*
X176565826Y-111785380D01*
X176409620Y-111629174D01*
X176409616Y-111629171D01*
X176409615Y-111629170D01*
X176228666Y-111502468D01*
X176228662Y-111502466D01*
X176228660Y-111502465D01*
X176028450Y-111409106D01*
X176028447Y-111409105D01*
X176028445Y-111409104D01*
X175815070Y-111351930D01*
X175815062Y-111351929D01*
X175595002Y-111332677D01*
X175594998Y-111332677D01*
X175374937Y-111351929D01*
X175374929Y-111351930D01*
X175161554Y-111409104D01*
X175161548Y-111409107D01*
X174961340Y-111502465D01*
X174961338Y-111502466D01*
X174780377Y-111629175D01*
X174624175Y-111785377D01*
X174497467Y-111966337D01*
X174437105Y-112095782D01*
X174390932Y-112148221D01*
X174323738Y-112167372D01*
X174256857Y-112147156D01*
X174212341Y-112095780D01*
X174152098Y-111966589D01*
X174152097Y-111966587D01*
X174106741Y-111901811D01*
X174106740Y-111901810D01*
X173436000Y-112572551D01*
X173436000Y-112549840D01*
X173410036Y-112452939D01*
X173359876Y-112366060D01*
X173288940Y-112295124D01*
X173202061Y-112244964D01*
X173105160Y-112219000D01*
X173082447Y-112219000D01*
X173753188Y-111548258D01*
X173688411Y-111502901D01*
X173688405Y-111502898D01*
X173488284Y-111409580D01*
X173488270Y-111409575D01*
X173274986Y-111352426D01*
X173274976Y-111352424D01*
X173055001Y-111333179D01*
X173054999Y-111333179D01*
X172835023Y-111352424D01*
X172835013Y-111352426D01*
X172621729Y-111409575D01*
X172621720Y-111409579D01*
X172421590Y-111502901D01*
X172356811Y-111548258D01*
X173027554Y-112219000D01*
X173004840Y-112219000D01*
X172907939Y-112244964D01*
X172821060Y-112295124D01*
X172750124Y-112366060D01*
X172699964Y-112452939D01*
X172674000Y-112549840D01*
X172674000Y-112572553D01*
X172003258Y-111901811D01*
X171957901Y-111966590D01*
X171897658Y-112095781D01*
X171851485Y-112148220D01*
X171784292Y-112167372D01*
X171717411Y-112147156D01*
X171672894Y-112095781D01*
X171612651Y-111966590D01*
X171612534Y-111966339D01*
X171485826Y-111785380D01*
X171329620Y-111629174D01*
X171329616Y-111629171D01*
X171329615Y-111629170D01*
X171148666Y-111502468D01*
X171148662Y-111502466D01*
X171148660Y-111502465D01*
X170948450Y-111409106D01*
X170948447Y-111409105D01*
X170948445Y-111409104D01*
X170735070Y-111351930D01*
X170735062Y-111351929D01*
X170515002Y-111332677D01*
X170514998Y-111332677D01*
X170294937Y-111351929D01*
X170294929Y-111351930D01*
X170081554Y-111409104D01*
X170081548Y-111409107D01*
X169881340Y-111502465D01*
X169881338Y-111502466D01*
X169700377Y-111629175D01*
X169544175Y-111785377D01*
X169417466Y-111966338D01*
X169417465Y-111966340D01*
X169357382Y-112095189D01*
X169311209Y-112147628D01*
X169244016Y-112166780D01*
X169177135Y-112146564D01*
X169132618Y-112095189D01*
X169072651Y-111966590D01*
X169072534Y-111966339D01*
X168945826Y-111785380D01*
X168789620Y-111629174D01*
X168789616Y-111629171D01*
X168789615Y-111629170D01*
X168608666Y-111502468D01*
X168608662Y-111502466D01*
X168608660Y-111502465D01*
X168408450Y-111409106D01*
X168408447Y-111409105D01*
X168408445Y-111409104D01*
X168195070Y-111351930D01*
X168195062Y-111351929D01*
X167975002Y-111332677D01*
X167974998Y-111332677D01*
X167754937Y-111351929D01*
X167754929Y-111351930D01*
X167541554Y-111409104D01*
X167541548Y-111409107D01*
X167341340Y-111502465D01*
X167341338Y-111502466D01*
X167160377Y-111629175D01*
X167004175Y-111785377D01*
X166877466Y-111966338D01*
X166877465Y-111966340D01*
X166817382Y-112095189D01*
X166771209Y-112147628D01*
X166704016Y-112166780D01*
X166637135Y-112146564D01*
X166592618Y-112095189D01*
X166532651Y-111966590D01*
X166532534Y-111966339D01*
X166405826Y-111785380D01*
X166249620Y-111629174D01*
X166249616Y-111629171D01*
X166249615Y-111629170D01*
X166068666Y-111502468D01*
X166068662Y-111502466D01*
X166068660Y-111502465D01*
X165868450Y-111409106D01*
X165868447Y-111409105D01*
X165868445Y-111409104D01*
X165655070Y-111351930D01*
X165655062Y-111351929D01*
X165435002Y-111332677D01*
X165434998Y-111332677D01*
X165214937Y-111351929D01*
X165214929Y-111351930D01*
X165001554Y-111409104D01*
X165001548Y-111409107D01*
X164801340Y-111502465D01*
X164801338Y-111502466D01*
X164620377Y-111629175D01*
X164464175Y-111785377D01*
X164337466Y-111966338D01*
X164337465Y-111966340D01*
X164277382Y-112095189D01*
X164231209Y-112147628D01*
X164164016Y-112166780D01*
X164097135Y-112146564D01*
X164052618Y-112095189D01*
X163992651Y-111966590D01*
X163992534Y-111966339D01*
X163865826Y-111785380D01*
X163709620Y-111629174D01*
X163709616Y-111629171D01*
X163709615Y-111629170D01*
X163528666Y-111502468D01*
X163528662Y-111502466D01*
X163528660Y-111502465D01*
X163328450Y-111409106D01*
X163328447Y-111409105D01*
X163328445Y-111409104D01*
X163115070Y-111351930D01*
X163115062Y-111351929D01*
X162895002Y-111332677D01*
X162894998Y-111332677D01*
X162674937Y-111351929D01*
X162674929Y-111351930D01*
X162461554Y-111409104D01*
X162461548Y-111409107D01*
X162261340Y-111502465D01*
X162261338Y-111502466D01*
X162080377Y-111629175D01*
X161924175Y-111785377D01*
X161797466Y-111966338D01*
X161797465Y-111966340D01*
X161737382Y-112095189D01*
X161691209Y-112147628D01*
X161624016Y-112166780D01*
X161557135Y-112146564D01*
X161512618Y-112095189D01*
X161452651Y-111966590D01*
X161452534Y-111966339D01*
X161325826Y-111785380D01*
X161169620Y-111629174D01*
X161169616Y-111629171D01*
X161169615Y-111629170D01*
X160988666Y-111502468D01*
X160988662Y-111502466D01*
X160988660Y-111502465D01*
X160788450Y-111409106D01*
X160788447Y-111409105D01*
X160788445Y-111409104D01*
X160575070Y-111351930D01*
X160575062Y-111351929D01*
X160355002Y-111332677D01*
X160354998Y-111332677D01*
X160134937Y-111351929D01*
X160134929Y-111351930D01*
X159921554Y-111409104D01*
X159921548Y-111409107D01*
X159721340Y-111502465D01*
X159721338Y-111502466D01*
X159540377Y-111629175D01*
X159384175Y-111785377D01*
X159257466Y-111966338D01*
X159257465Y-111966340D01*
X159197382Y-112095189D01*
X159151209Y-112147628D01*
X159084016Y-112166780D01*
X159017135Y-112146564D01*
X158972618Y-112095189D01*
X158912651Y-111966590D01*
X158912534Y-111966339D01*
X158785826Y-111785380D01*
X158629620Y-111629174D01*
X158629616Y-111629171D01*
X158629615Y-111629170D01*
X158448666Y-111502468D01*
X158448662Y-111502466D01*
X158448660Y-111502465D01*
X158248450Y-111409106D01*
X158248447Y-111409105D01*
X158248445Y-111409104D01*
X158035070Y-111351930D01*
X158035062Y-111351929D01*
X157815002Y-111332677D01*
X157814998Y-111332677D01*
X157594937Y-111351929D01*
X157594929Y-111351930D01*
X157381554Y-111409104D01*
X157381548Y-111409107D01*
X157181340Y-111502465D01*
X157181338Y-111502466D01*
X157000377Y-111629175D01*
X156844175Y-111785377D01*
X156717466Y-111966338D01*
X156717465Y-111966340D01*
X156657382Y-112095189D01*
X156611209Y-112147628D01*
X156544016Y-112166780D01*
X156477135Y-112146564D01*
X156432618Y-112095189D01*
X156372651Y-111966590D01*
X156372534Y-111966339D01*
X156245826Y-111785380D01*
X156089620Y-111629174D01*
X156089616Y-111629171D01*
X156089615Y-111629170D01*
X155908666Y-111502468D01*
X155908662Y-111502466D01*
X155908660Y-111502465D01*
X155708450Y-111409106D01*
X155708447Y-111409105D01*
X155708445Y-111409104D01*
X155495070Y-111351930D01*
X155495062Y-111351929D01*
X155275002Y-111332677D01*
X155274998Y-111332677D01*
X155054937Y-111351929D01*
X155054929Y-111351930D01*
X154841554Y-111409104D01*
X154841548Y-111409107D01*
X154641340Y-111502465D01*
X154641338Y-111502466D01*
X154460377Y-111629175D01*
X154304175Y-111785377D01*
X154177466Y-111966338D01*
X154177465Y-111966340D01*
X154117382Y-112095189D01*
X154071209Y-112147628D01*
X154004016Y-112166780D01*
X153937135Y-112146564D01*
X153892618Y-112095189D01*
X153832651Y-111966590D01*
X153832534Y-111966339D01*
X153705826Y-111785380D01*
X153549620Y-111629174D01*
X153549616Y-111629171D01*
X153549615Y-111629170D01*
X153368666Y-111502468D01*
X153368662Y-111502466D01*
X153368660Y-111502465D01*
X153168450Y-111409106D01*
X153168447Y-111409105D01*
X153168445Y-111409104D01*
X152955070Y-111351930D01*
X152955062Y-111351929D01*
X152735002Y-111332677D01*
X152734998Y-111332677D01*
X152514937Y-111351929D01*
X152514929Y-111351930D01*
X152301554Y-111409104D01*
X152301548Y-111409107D01*
X152101340Y-111502465D01*
X152101338Y-111502466D01*
X151920377Y-111629175D01*
X151764175Y-111785377D01*
X151637466Y-111966338D01*
X151637465Y-111966340D01*
X151577382Y-112095189D01*
X151531209Y-112147628D01*
X151464016Y-112166780D01*
X151397135Y-112146564D01*
X151352618Y-112095189D01*
X151292651Y-111966590D01*
X151292534Y-111966339D01*
X151165826Y-111785380D01*
X151009620Y-111629174D01*
X151009616Y-111629171D01*
X151009615Y-111629170D01*
X150828666Y-111502468D01*
X150828662Y-111502466D01*
X150828660Y-111502465D01*
X150628450Y-111409106D01*
X150628447Y-111409105D01*
X150628445Y-111409104D01*
X150415070Y-111351930D01*
X150415062Y-111351929D01*
X150195002Y-111332677D01*
X150194998Y-111332677D01*
X149974937Y-111351929D01*
X149974929Y-111351930D01*
X149761554Y-111409104D01*
X149761548Y-111409107D01*
X149561340Y-111502465D01*
X149561338Y-111502466D01*
X149380377Y-111629175D01*
X149224175Y-111785377D01*
X149097466Y-111966338D01*
X149097465Y-111966340D01*
X149037382Y-112095189D01*
X148991209Y-112147628D01*
X148924016Y-112166780D01*
X148857135Y-112146564D01*
X148812618Y-112095189D01*
X148752651Y-111966590D01*
X148752534Y-111966339D01*
X148625826Y-111785380D01*
X148469620Y-111629174D01*
X148469616Y-111629171D01*
X148469615Y-111629170D01*
X148288666Y-111502468D01*
X148288662Y-111502466D01*
X148288660Y-111502465D01*
X148088450Y-111409106D01*
X148088447Y-111409105D01*
X148088445Y-111409104D01*
X147875070Y-111351930D01*
X147875062Y-111351929D01*
X147655002Y-111332677D01*
X147654998Y-111332677D01*
X147434937Y-111351929D01*
X147434929Y-111351930D01*
X147221554Y-111409104D01*
X147221548Y-111409107D01*
X147021340Y-111502465D01*
X147021338Y-111502466D01*
X146840377Y-111629175D01*
X146684175Y-111785377D01*
X146557466Y-111966338D01*
X146557465Y-111966340D01*
X146497382Y-112095189D01*
X146451209Y-112147628D01*
X146384016Y-112166780D01*
X146317135Y-112146564D01*
X146272618Y-112095189D01*
X146212651Y-111966590D01*
X146212534Y-111966339D01*
X146085826Y-111785380D01*
X145929620Y-111629174D01*
X145929616Y-111629171D01*
X145929615Y-111629170D01*
X145748666Y-111502468D01*
X145748662Y-111502466D01*
X145748660Y-111502465D01*
X145548450Y-111409106D01*
X145548447Y-111409105D01*
X145548445Y-111409104D01*
X145335070Y-111351930D01*
X145335062Y-111351929D01*
X145115002Y-111332677D01*
X145114998Y-111332677D01*
X144894937Y-111351929D01*
X144894929Y-111351930D01*
X144681554Y-111409104D01*
X144681548Y-111409107D01*
X144481340Y-111502465D01*
X144481338Y-111502466D01*
X144300377Y-111629175D01*
X144144175Y-111785377D01*
X144017466Y-111966338D01*
X144017465Y-111966340D01*
X143957382Y-112095189D01*
X143911209Y-112147628D01*
X143844016Y-112166780D01*
X143777135Y-112146564D01*
X143732618Y-112095189D01*
X143672651Y-111966590D01*
X143672534Y-111966339D01*
X143545826Y-111785380D01*
X143389620Y-111629174D01*
X143389616Y-111629171D01*
X143389615Y-111629170D01*
X143208666Y-111502468D01*
X143208662Y-111502466D01*
X143208660Y-111502465D01*
X143008450Y-111409106D01*
X143008447Y-111409105D01*
X143008445Y-111409104D01*
X142795070Y-111351930D01*
X142795062Y-111351929D01*
X142575002Y-111332677D01*
X142574998Y-111332677D01*
X142354937Y-111351929D01*
X142354929Y-111351930D01*
X142141554Y-111409104D01*
X142141548Y-111409107D01*
X141941340Y-111502465D01*
X141941338Y-111502466D01*
X141760377Y-111629175D01*
X141604175Y-111785377D01*
X141477466Y-111966338D01*
X141477465Y-111966340D01*
X141417382Y-112095189D01*
X141371209Y-112147628D01*
X141304016Y-112166780D01*
X141237135Y-112146564D01*
X141192618Y-112095189D01*
X141132651Y-111966590D01*
X141132534Y-111966339D01*
X141005826Y-111785380D01*
X140849620Y-111629174D01*
X140849616Y-111629171D01*
X140849615Y-111629170D01*
X140668666Y-111502468D01*
X140668662Y-111502466D01*
X140668660Y-111502465D01*
X140468450Y-111409106D01*
X140468447Y-111409105D01*
X140468445Y-111409104D01*
X140255070Y-111351930D01*
X140255062Y-111351929D01*
X140035002Y-111332677D01*
X140034998Y-111332677D01*
X139814937Y-111351929D01*
X139814929Y-111351930D01*
X139601554Y-111409104D01*
X139601548Y-111409107D01*
X139401340Y-111502465D01*
X139401338Y-111502466D01*
X139220377Y-111629175D01*
X139064175Y-111785377D01*
X138937466Y-111966338D01*
X138937465Y-111966340D01*
X138844107Y-112166548D01*
X138844104Y-112166554D01*
X138786930Y-112379929D01*
X138786929Y-112379937D01*
X138767677Y-112599997D01*
X74860500Y-112599997D01*
X74860500Y-110484108D01*
X74826392Y-110356814D01*
X74760500Y-110242686D01*
X74667314Y-110149500D01*
X74610250Y-110116554D01*
X74553187Y-110083608D01*
X74489539Y-110066554D01*
X74425892Y-110049500D01*
X74294108Y-110049500D01*
X74166812Y-110083608D01*
X74052686Y-110149500D01*
X74052683Y-110149502D01*
X73959502Y-110242683D01*
X73959500Y-110242686D01*
X73893608Y-110356812D01*
X73859500Y-110484108D01*
X70050500Y-110484108D01*
X70050500Y-107224999D01*
X89462887Y-107224999D01*
X89462887Y-107225000D01*
X89481696Y-107427989D01*
X89481697Y-107427992D01*
X89537483Y-107624063D01*
X89537486Y-107624069D01*
X89628351Y-107806551D01*
X89630133Y-107808911D01*
X90214046Y-107225000D01*
X89630133Y-106641087D01*
X89628355Y-106643442D01*
X89628354Y-106643443D01*
X89537486Y-106825930D01*
X89537483Y-106825936D01*
X89481697Y-107022007D01*
X89481696Y-107022010D01*
X89462887Y-107224999D01*
X70050500Y-107224999D01*
X70050500Y-106290758D01*
X89986911Y-106290758D01*
X90626298Y-106930145D01*
X90607096Y-106925000D01*
X90528104Y-106925000D01*
X90451804Y-106945444D01*
X90383395Y-106984940D01*
X90327540Y-107040795D01*
X90288044Y-107109204D01*
X90267600Y-107185504D01*
X90267600Y-107264496D01*
X90288044Y-107340796D01*
X90327540Y-107409205D01*
X90383395Y-107465060D01*
X90451804Y-107504556D01*
X90528104Y-107525000D01*
X90607096Y-107525000D01*
X90626296Y-107519855D01*
X89986911Y-108159240D01*
X90075185Y-108213897D01*
X90265278Y-108287539D01*
X90465672Y-108325000D01*
X90669528Y-108325000D01*
X90869926Y-108287538D01*
X91056502Y-108215259D01*
X91126125Y-108209396D01*
X91175605Y-108231617D01*
X91225265Y-108268793D01*
X91225268Y-108268795D01*
X91225271Y-108268797D01*
X91360117Y-108319091D01*
X91360116Y-108319091D01*
X91367044Y-108319835D01*
X91419727Y-108325500D01*
X92715472Y-108325499D01*
X92775083Y-108319091D01*
X92909931Y-108268796D01*
X93025146Y-108182546D01*
X93111396Y-108067331D01*
X93161691Y-107932483D01*
X93168100Y-107872873D01*
X93168099Y-106577128D01*
X93161691Y-106517517D01*
X93111396Y-106382669D01*
X93111395Y-106382668D01*
X93111393Y-106382664D01*
X93025147Y-106267455D01*
X93025144Y-106267452D01*
X92909935Y-106181206D01*
X92909928Y-106181202D01*
X92775082Y-106130908D01*
X92775083Y-106130908D01*
X92715483Y-106124501D01*
X92715481Y-106124500D01*
X92715473Y-106124500D01*
X92715464Y-106124500D01*
X91419729Y-106124500D01*
X91419723Y-106124501D01*
X91360116Y-106130908D01*
X91225271Y-106181202D01*
X91225265Y-106181205D01*
X91175604Y-106218381D01*
X91110139Y-106242797D01*
X91056502Y-106234740D01*
X90869924Y-106162460D01*
X90669528Y-106125000D01*
X90465672Y-106125000D01*
X90265278Y-106162460D01*
X90075188Y-106236100D01*
X90075181Y-106236104D01*
X89986912Y-106290757D01*
X89986911Y-106290758D01*
X70050500Y-106290758D01*
X70050500Y-82754999D01*
X82264341Y-82754999D01*
X82264341Y-82755000D01*
X82284936Y-82990403D01*
X82284938Y-82990413D01*
X82346094Y-83218655D01*
X82346096Y-83218659D01*
X82346097Y-83218663D01*
X82415609Y-83367732D01*
X82445965Y-83432830D01*
X82445967Y-83432834D01*
X82581501Y-83626395D01*
X82581506Y-83626402D01*
X82748597Y-83793493D01*
X82748603Y-83793498D01*
X82934158Y-83923425D01*
X82977783Y-83978002D01*
X82984977Y-84047500D01*
X82953454Y-84109855D01*
X82934158Y-84126575D01*
X82748597Y-84256505D01*
X82581505Y-84423597D01*
X82445965Y-84617169D01*
X82445964Y-84617171D01*
X82346098Y-84831335D01*
X82346094Y-84831344D01*
X82284938Y-85059586D01*
X82284936Y-85059596D01*
X82264341Y-85294999D01*
X82264341Y-85295000D01*
X82284936Y-85530403D01*
X82284938Y-85530413D01*
X82346094Y-85758655D01*
X82346096Y-85758659D01*
X82346097Y-85758663D01*
X82436450Y-85952426D01*
X82445965Y-85972830D01*
X82445967Y-85972834D01*
X82581501Y-86166395D01*
X82581506Y-86166402D01*
X82748597Y-86333493D01*
X82748603Y-86333498D01*
X82934158Y-86463425D01*
X82977783Y-86518002D01*
X82984977Y-86587500D01*
X82953454Y-86649855D01*
X82934158Y-86666575D01*
X82748597Y-86796505D01*
X82581505Y-86963597D01*
X82445965Y-87157169D01*
X82445964Y-87157171D01*
X82346098Y-87371335D01*
X82346094Y-87371344D01*
X82284938Y-87599586D01*
X82284936Y-87599596D01*
X82264341Y-87834999D01*
X82264341Y-87835000D01*
X82284936Y-88070403D01*
X82284938Y-88070413D01*
X82346094Y-88298655D01*
X82346096Y-88298659D01*
X82346097Y-88298663D01*
X82415767Y-88448070D01*
X82445965Y-88512830D01*
X82445967Y-88512834D01*
X82530908Y-88634141D01*
X82581501Y-88706396D01*
X82581506Y-88706402D01*
X82703430Y-88828326D01*
X82736915Y-88889649D01*
X82731931Y-88959341D01*
X82690059Y-89015274D01*
X82659083Y-89032189D01*
X82527669Y-89081203D01*
X82527664Y-89081206D01*
X82412455Y-89167452D01*
X82412452Y-89167455D01*
X82326206Y-89282664D01*
X82326202Y-89282671D01*
X82275908Y-89417517D01*
X82269501Y-89477116D01*
X82269501Y-89477123D01*
X82269500Y-89477135D01*
X82269500Y-91272870D01*
X82269501Y-91272876D01*
X82275908Y-91332483D01*
X82326202Y-91467328D01*
X82326206Y-91467335D01*
X82412452Y-91582544D01*
X82412455Y-91582547D01*
X82527664Y-91668793D01*
X82527671Y-91668797D01*
X82662517Y-91719091D01*
X82662516Y-91719091D01*
X82669444Y-91719835D01*
X82722127Y-91725500D01*
X84517872Y-91725499D01*
X84577483Y-91719091D01*
X84712331Y-91668796D01*
X84827546Y-91582546D01*
X84913796Y-91467331D01*
X84964091Y-91332483D01*
X84970500Y-91272873D01*
X84970499Y-89477128D01*
X84964091Y-89417517D01*
X84913796Y-89282669D01*
X84913795Y-89282668D01*
X84913793Y-89282664D01*
X84827547Y-89167455D01*
X84827544Y-89167452D01*
X84712335Y-89081206D01*
X84712328Y-89081202D01*
X84580917Y-89032189D01*
X84524983Y-88990318D01*
X84500566Y-88924853D01*
X84515418Y-88856580D01*
X84536563Y-88828332D01*
X84658495Y-88706401D01*
X84794035Y-88512830D01*
X84893903Y-88298663D01*
X84955063Y-88070408D01*
X84975659Y-87835000D01*
X84975519Y-87833405D01*
X84959722Y-87652842D01*
X84955063Y-87599592D01*
X84893903Y-87371337D01*
X84794035Y-87157171D01*
X84783775Y-87142517D01*
X84658494Y-86963597D01*
X84491402Y-86796506D01*
X84491396Y-86796501D01*
X84305842Y-86666575D01*
X84262217Y-86611998D01*
X84255023Y-86542500D01*
X84286546Y-86480145D01*
X84305842Y-86463425D01*
X84417033Y-86385568D01*
X84491401Y-86333495D01*
X84658495Y-86166401D01*
X84794035Y-85972830D01*
X84893903Y-85758663D01*
X84955063Y-85530408D01*
X84975659Y-85295000D01*
X84955063Y-85059592D01*
X84893903Y-84831337D01*
X84794035Y-84617171D01*
X84783600Y-84602267D01*
X84658494Y-84423597D01*
X84491402Y-84256506D01*
X84491396Y-84256501D01*
X84305842Y-84126575D01*
X84262217Y-84071998D01*
X84255023Y-84002500D01*
X84286546Y-83940145D01*
X84305842Y-83923425D01*
X84417033Y-83845568D01*
X84491401Y-83793495D01*
X84658495Y-83626401D01*
X84794035Y-83432830D01*
X84893903Y-83218663D01*
X84955063Y-82990408D01*
X84975659Y-82755000D01*
X84955063Y-82519592D01*
X84893903Y-82291337D01*
X84794035Y-82077171D01*
X84783600Y-82062267D01*
X84658494Y-81883597D01*
X84491402Y-81716506D01*
X84491395Y-81716501D01*
X84489184Y-81714953D01*
X84452521Y-81689281D01*
X84297834Y-81580967D01*
X84297830Y-81580965D01*
X84272366Y-81569091D01*
X84083663Y-81481097D01*
X84083659Y-81481096D01*
X84083655Y-81481094D01*
X83855413Y-81419938D01*
X83855403Y-81419936D01*
X83620001Y-81399341D01*
X83619999Y-81399341D01*
X83384596Y-81419936D01*
X83384586Y-81419938D01*
X83156344Y-81481094D01*
X83156335Y-81481098D01*
X82942171Y-81580964D01*
X82942169Y-81580965D01*
X82748597Y-81716505D01*
X82581505Y-81883597D01*
X82445965Y-82077169D01*
X82445964Y-82077171D01*
X82346098Y-82291335D01*
X82346094Y-82291344D01*
X82284938Y-82519586D01*
X82284936Y-82519596D01*
X82264341Y-82754999D01*
X70050500Y-82754999D01*
X70050500Y-80174998D01*
X100924532Y-80174998D01*
X100924532Y-80175001D01*
X100944364Y-80401686D01*
X100944366Y-80401697D01*
X101003258Y-80621488D01*
X101003261Y-80621497D01*
X101099431Y-80827732D01*
X101099432Y-80827734D01*
X101229954Y-81014141D01*
X101390858Y-81175045D01*
X101390861Y-81175047D01*
X101577266Y-81305568D01*
X101635275Y-81332618D01*
X101687714Y-81378791D01*
X101706866Y-81445984D01*
X101686650Y-81512865D01*
X101635275Y-81557381D01*
X101629525Y-81560063D01*
X101577267Y-81584431D01*
X101577265Y-81584432D01*
X101390858Y-81714954D01*
X101229954Y-81875858D01*
X101099432Y-82062265D01*
X101099431Y-82062267D01*
X101003261Y-82268502D01*
X101003258Y-82268511D01*
X100944366Y-82488302D01*
X100944364Y-82488313D01*
X100924532Y-82714998D01*
X100924532Y-82715001D01*
X100944364Y-82941686D01*
X100944366Y-82941697D01*
X101003258Y-83161488D01*
X101003261Y-83161497D01*
X101099431Y-83367732D01*
X101099432Y-83367734D01*
X101229954Y-83554141D01*
X101390858Y-83715045D01*
X101390861Y-83715047D01*
X101577266Y-83845568D01*
X101635275Y-83872618D01*
X101687714Y-83918791D01*
X101706866Y-83985984D01*
X101686650Y-84052865D01*
X101635275Y-84097382D01*
X101577267Y-84124431D01*
X101577265Y-84124432D01*
X101390858Y-84254954D01*
X101229954Y-84415858D01*
X101099432Y-84602265D01*
X101099431Y-84602267D01*
X101003261Y-84808502D01*
X101003258Y-84808511D01*
X100944366Y-85028302D01*
X100944364Y-85028313D01*
X100924532Y-85254998D01*
X100924532Y-85255001D01*
X100944364Y-85481686D01*
X100944366Y-85481697D01*
X101003258Y-85701488D01*
X101003261Y-85701497D01*
X101099431Y-85907732D01*
X101099432Y-85907734D01*
X101229954Y-86094141D01*
X101390858Y-86255045D01*
X101390861Y-86255047D01*
X101577266Y-86385568D01*
X101635275Y-86412618D01*
X101687714Y-86458791D01*
X101706866Y-86525984D01*
X101686650Y-86592865D01*
X101635275Y-86637382D01*
X101577267Y-86664431D01*
X101577265Y-86664432D01*
X101390858Y-86794954D01*
X101229954Y-86955858D01*
X101099432Y-87142265D01*
X101099431Y-87142267D01*
X101003261Y-87348502D01*
X101003258Y-87348511D01*
X100944366Y-87568302D01*
X100944364Y-87568313D01*
X100924532Y-87794998D01*
X100924532Y-87795001D01*
X100944364Y-88021686D01*
X100944366Y-88021697D01*
X101003258Y-88241488D01*
X101003261Y-88241497D01*
X101099431Y-88447732D01*
X101099432Y-88447734D01*
X101229954Y-88634141D01*
X101390858Y-88795045D01*
X101390861Y-88795047D01*
X101577266Y-88925568D01*
X101635275Y-88952618D01*
X101687714Y-88998791D01*
X101706866Y-89065984D01*
X101686650Y-89132865D01*
X101635275Y-89177382D01*
X101577267Y-89204431D01*
X101577265Y-89204432D01*
X101390858Y-89334954D01*
X101229954Y-89495858D01*
X101099432Y-89682265D01*
X101099431Y-89682267D01*
X101003261Y-89888502D01*
X101003258Y-89888511D01*
X100944366Y-90108302D01*
X100944364Y-90108313D01*
X100924532Y-90334998D01*
X100924532Y-90335001D01*
X100944364Y-90561686D01*
X100944366Y-90561697D01*
X101003258Y-90781488D01*
X101003261Y-90781497D01*
X101099431Y-90987732D01*
X101099432Y-90987734D01*
X101229954Y-91174141D01*
X101390858Y-91335045D01*
X101390861Y-91335047D01*
X101577266Y-91465568D01*
X101635865Y-91492893D01*
X101688305Y-91539065D01*
X101707457Y-91606258D01*
X101687242Y-91673139D01*
X101635867Y-91717657D01*
X101577515Y-91744867D01*
X101391179Y-91875342D01*
X101230342Y-92036179D01*
X101099865Y-92222517D01*
X101003734Y-92428673D01*
X101003730Y-92428682D01*
X100951127Y-92624999D01*
X100951128Y-92625000D01*
X101914314Y-92625000D01*
X101909920Y-92629394D01*
X101857259Y-92720606D01*
X101830000Y-92822339D01*
X101830000Y-92927661D01*
X101857259Y-93029394D01*
X101909920Y-93120606D01*
X101914314Y-93125000D01*
X100951128Y-93125000D01*
X101003730Y-93321317D01*
X101003734Y-93321326D01*
X101099865Y-93527482D01*
X101230342Y-93713820D01*
X101391179Y-93874657D01*
X101577518Y-94005134D01*
X101577520Y-94005135D01*
X101635865Y-94032342D01*
X101688305Y-94078514D01*
X101707457Y-94145707D01*
X101687242Y-94212589D01*
X101635867Y-94257105D01*
X101635275Y-94257382D01*
X101577264Y-94284433D01*
X101390858Y-94414954D01*
X101229954Y-94575858D01*
X101099432Y-94762265D01*
X101099431Y-94762267D01*
X101003261Y-94968502D01*
X101003258Y-94968511D01*
X100944366Y-95188302D01*
X100944364Y-95188313D01*
X100924532Y-95414998D01*
X100924532Y-95415001D01*
X100944364Y-95641686D01*
X100944366Y-95641697D01*
X101003258Y-95861488D01*
X101003261Y-95861497D01*
X101099431Y-96067732D01*
X101099432Y-96067734D01*
X101229954Y-96254141D01*
X101390858Y-96415045D01*
X101390861Y-96415047D01*
X101577266Y-96545568D01*
X101783504Y-96641739D01*
X102003308Y-96700635D01*
X102165230Y-96714801D01*
X102229998Y-96720468D01*
X102230000Y-96720468D01*
X102230002Y-96720468D01*
X102286673Y-96715509D01*
X102456692Y-96700635D01*
X102676496Y-96641739D01*
X102882734Y-96545568D01*
X103069139Y-96415047D01*
X103230047Y-96254139D01*
X103360568Y-96067734D01*
X103456739Y-95861496D01*
X103515635Y-95641692D01*
X103535468Y-95415000D01*
X103515635Y-95188308D01*
X103456739Y-94968504D01*
X103360568Y-94762266D01*
X103230047Y-94575861D01*
X103230045Y-94575858D01*
X103069141Y-94414954D01*
X102882734Y-94284432D01*
X102882732Y-94284431D01*
X102824725Y-94257382D01*
X102824132Y-94257105D01*
X102771694Y-94210934D01*
X102752542Y-94143740D01*
X102772758Y-94076859D01*
X102824134Y-94032341D01*
X102882484Y-94005132D01*
X103068820Y-93874657D01*
X103229657Y-93713820D01*
X103360134Y-93527482D01*
X103456265Y-93321326D01*
X103456269Y-93321317D01*
X103508872Y-93125000D01*
X102545686Y-93125000D01*
X102550080Y-93120606D01*
X102602741Y-93029394D01*
X102630000Y-92927661D01*
X102630000Y-92822339D01*
X102602741Y-92720606D01*
X102550080Y-92629394D01*
X102545686Y-92625000D01*
X103508872Y-92625000D01*
X103508872Y-92624999D01*
X103456269Y-92428682D01*
X103456265Y-92428673D01*
X103360134Y-92222517D01*
X103229657Y-92036179D01*
X103068820Y-91875342D01*
X102882482Y-91744865D01*
X102824133Y-91717657D01*
X102771694Y-91671484D01*
X102752542Y-91604291D01*
X102772758Y-91537410D01*
X102824129Y-91492895D01*
X102882734Y-91465568D01*
X103069139Y-91335047D01*
X103230047Y-91174139D01*
X103360568Y-90987734D01*
X103456739Y-90781496D01*
X103515635Y-90561692D01*
X103535468Y-90335000D01*
X103515635Y-90108308D01*
X103456739Y-89888504D01*
X103360568Y-89682266D01*
X103230047Y-89495861D01*
X103230045Y-89495858D01*
X103069141Y-89334954D01*
X102882734Y-89204432D01*
X102882728Y-89204429D01*
X102824725Y-89177382D01*
X102772285Y-89131210D01*
X102753133Y-89064017D01*
X102773348Y-88997135D01*
X102824725Y-88952618D01*
X102882734Y-88925568D01*
X103069139Y-88795047D01*
X103230047Y-88634139D01*
X103360568Y-88447734D01*
X103456739Y-88241496D01*
X103515635Y-88021692D01*
X103535468Y-87795000D01*
X103515635Y-87568308D01*
X103456739Y-87348504D01*
X103360568Y-87142266D01*
X103230047Y-86955861D01*
X103230045Y-86955858D01*
X103069141Y-86794954D01*
X102882734Y-86664432D01*
X102882728Y-86664429D01*
X102824725Y-86637382D01*
X102772285Y-86591210D01*
X102753133Y-86524017D01*
X102773348Y-86457135D01*
X102824725Y-86412618D01*
X102882734Y-86385568D01*
X103069139Y-86255047D01*
X103230047Y-86094139D01*
X103360568Y-85907734D01*
X103456739Y-85701496D01*
X103515635Y-85481692D01*
X103535468Y-85255000D01*
X103515635Y-85028308D01*
X103456739Y-84808504D01*
X103360568Y-84602266D01*
X103230047Y-84415861D01*
X103230045Y-84415858D01*
X103069141Y-84254954D01*
X102882734Y-84124432D01*
X102882728Y-84124429D01*
X102824725Y-84097382D01*
X102772285Y-84051210D01*
X102753133Y-83984017D01*
X102773348Y-83917135D01*
X102824725Y-83872618D01*
X102882734Y-83845568D01*
X103069139Y-83715047D01*
X103230047Y-83554139D01*
X103360568Y-83367734D01*
X103456739Y-83161496D01*
X103515635Y-82941692D01*
X103535468Y-82715000D01*
X103515635Y-82488308D01*
X103456739Y-82268504D01*
X103360568Y-82062266D01*
X103230047Y-81875861D01*
X103230045Y-81875858D01*
X103069141Y-81714954D01*
X102882734Y-81584432D01*
X102882728Y-81584429D01*
X102849835Y-81569091D01*
X102824724Y-81557381D01*
X102772285Y-81511210D01*
X102753133Y-81444017D01*
X102773348Y-81377135D01*
X102824725Y-81332618D01*
X102882734Y-81305568D01*
X103069139Y-81175047D01*
X103230047Y-81014139D01*
X103360568Y-80827734D01*
X103456739Y-80621496D01*
X103515635Y-80401692D01*
X103535468Y-80175000D01*
X103515635Y-79948308D01*
X103456739Y-79728504D01*
X103360568Y-79522266D01*
X103230047Y-79335861D01*
X103230045Y-79335858D01*
X103069143Y-79174956D01*
X103043912Y-79157289D01*
X103000287Y-79102712D01*
X102993095Y-79033213D01*
X103024617Y-78970859D01*
X103084847Y-78935445D01*
X103101781Y-78932424D01*
X103137380Y-78928596D01*
X103272086Y-78878354D01*
X103272093Y-78878350D01*
X103387187Y-78792190D01*
X103387190Y-78792187D01*
X103473350Y-78677093D01*
X103473354Y-78677086D01*
X103523596Y-78542379D01*
X103523598Y-78542372D01*
X103529999Y-78482844D01*
X103530000Y-78482827D01*
X103530000Y-77885000D01*
X102545686Y-77885000D01*
X102550080Y-77880606D01*
X102602741Y-77789394D01*
X102630000Y-77687661D01*
X102630000Y-77634998D01*
X113624532Y-77634998D01*
X113624532Y-77635001D01*
X113644364Y-77861686D01*
X113644366Y-77861697D01*
X113703258Y-78081488D01*
X113703261Y-78081497D01*
X113799431Y-78287732D01*
X113799432Y-78287734D01*
X113929954Y-78474141D01*
X114090858Y-78635045D01*
X114090861Y-78635047D01*
X114277266Y-78765568D01*
X114334357Y-78792190D01*
X114335275Y-78792618D01*
X114387714Y-78838791D01*
X114406866Y-78905984D01*
X114386650Y-78972865D01*
X114335275Y-79017381D01*
X114335118Y-79017455D01*
X114277267Y-79044431D01*
X114277265Y-79044432D01*
X114090858Y-79174954D01*
X113929954Y-79335858D01*
X113799432Y-79522265D01*
X113799431Y-79522267D01*
X113703261Y-79728502D01*
X113703258Y-79728511D01*
X113644366Y-79948302D01*
X113644364Y-79948313D01*
X113624532Y-80174998D01*
X113624532Y-80175001D01*
X113644364Y-80401686D01*
X113644366Y-80401697D01*
X113703258Y-80621488D01*
X113703261Y-80621497D01*
X113799431Y-80827732D01*
X113799432Y-80827734D01*
X113929954Y-81014141D01*
X114090858Y-81175045D01*
X114090861Y-81175047D01*
X114277266Y-81305568D01*
X114335275Y-81332618D01*
X114387714Y-81378791D01*
X114406866Y-81445984D01*
X114386650Y-81512865D01*
X114335275Y-81557381D01*
X114329525Y-81560063D01*
X114277267Y-81584431D01*
X114277265Y-81584432D01*
X114090858Y-81714954D01*
X113929954Y-81875858D01*
X113799432Y-82062265D01*
X113799431Y-82062267D01*
X113703261Y-82268502D01*
X113703258Y-82268511D01*
X113644366Y-82488302D01*
X113644364Y-82488313D01*
X113624532Y-82714998D01*
X113624532Y-82715001D01*
X113644364Y-82941686D01*
X113644366Y-82941697D01*
X113703258Y-83161488D01*
X113703261Y-83161497D01*
X113799431Y-83367732D01*
X113799432Y-83367734D01*
X113929954Y-83554141D01*
X114090858Y-83715045D01*
X114090861Y-83715047D01*
X114277266Y-83845568D01*
X114335275Y-83872618D01*
X114387714Y-83918791D01*
X114406866Y-83985984D01*
X114386650Y-84052865D01*
X114335275Y-84097382D01*
X114277267Y-84124431D01*
X114277265Y-84124432D01*
X114090858Y-84254954D01*
X113929954Y-84415858D01*
X113799432Y-84602265D01*
X113799431Y-84602267D01*
X113703261Y-84808502D01*
X113703258Y-84808511D01*
X113644366Y-85028302D01*
X113644364Y-85028313D01*
X113624532Y-85254998D01*
X113624532Y-85255001D01*
X113644364Y-85481686D01*
X113644366Y-85481697D01*
X113703258Y-85701488D01*
X113703261Y-85701497D01*
X113799431Y-85907732D01*
X113799432Y-85907734D01*
X113929954Y-86094141D01*
X114090858Y-86255045D01*
X114090861Y-86255047D01*
X114277266Y-86385568D01*
X114335865Y-86412893D01*
X114388305Y-86459065D01*
X114407457Y-86526258D01*
X114387242Y-86593139D01*
X114335867Y-86637657D01*
X114277515Y-86664867D01*
X114091179Y-86795342D01*
X113930342Y-86956179D01*
X113799865Y-87142517D01*
X113703734Y-87348673D01*
X113703730Y-87348682D01*
X113651127Y-87544999D01*
X113651128Y-87545000D01*
X114614314Y-87545000D01*
X114609920Y-87549394D01*
X114557259Y-87640606D01*
X114530000Y-87742339D01*
X114530000Y-87847661D01*
X114557259Y-87949394D01*
X114609920Y-88040606D01*
X114614314Y-88045000D01*
X113651128Y-88045000D01*
X113703730Y-88241317D01*
X113703734Y-88241326D01*
X113799865Y-88447482D01*
X113930342Y-88633820D01*
X114091179Y-88794657D01*
X114277517Y-88925134D01*
X114336457Y-88952618D01*
X114388896Y-88998790D01*
X114408048Y-89065984D01*
X114387832Y-89132865D01*
X114336457Y-89177382D01*
X114277517Y-89204865D01*
X114091179Y-89335342D01*
X113930342Y-89496179D01*
X113799865Y-89682517D01*
X113703734Y-89888673D01*
X113703730Y-89888682D01*
X113651127Y-90084999D01*
X113651128Y-90085000D01*
X114614314Y-90085000D01*
X114609920Y-90089394D01*
X114557259Y-90180606D01*
X114530000Y-90282339D01*
X114530000Y-90387661D01*
X114557259Y-90489394D01*
X114609920Y-90580606D01*
X114614314Y-90585000D01*
X113651128Y-90585000D01*
X113703730Y-90781317D01*
X113703734Y-90781326D01*
X113799865Y-90987482D01*
X113930342Y-91173820D01*
X114091179Y-91334657D01*
X114277517Y-91465134D01*
X114336457Y-91492618D01*
X114388896Y-91538790D01*
X114408048Y-91605984D01*
X114387832Y-91672865D01*
X114336457Y-91717382D01*
X114277517Y-91744865D01*
X114091179Y-91875342D01*
X113930342Y-92036179D01*
X113799865Y-92222517D01*
X113703734Y-92428673D01*
X113703730Y-92428682D01*
X113651127Y-92624999D01*
X113651128Y-92625000D01*
X114614314Y-92625000D01*
X114609920Y-92629394D01*
X114557259Y-92720606D01*
X114530000Y-92822339D01*
X114530000Y-92927661D01*
X114557259Y-93029394D01*
X114609920Y-93120606D01*
X114614314Y-93125000D01*
X113651128Y-93125000D01*
X113703730Y-93321317D01*
X113703734Y-93321326D01*
X113799865Y-93527482D01*
X113930342Y-93713820D01*
X114091179Y-93874657D01*
X114277517Y-94005134D01*
X114336457Y-94032618D01*
X114388896Y-94078790D01*
X114408048Y-94145984D01*
X114387832Y-94212865D01*
X114336457Y-94257382D01*
X114277517Y-94284865D01*
X114091179Y-94415342D01*
X113930342Y-94576179D01*
X113799865Y-94762517D01*
X113703734Y-94968673D01*
X113703730Y-94968682D01*
X113651127Y-95164999D01*
X113651128Y-95165000D01*
X114614314Y-95165000D01*
X114609920Y-95169394D01*
X114557259Y-95260606D01*
X114530000Y-95362339D01*
X114530000Y-95467661D01*
X114557259Y-95569394D01*
X114609920Y-95660606D01*
X114614314Y-95665000D01*
X113651128Y-95665000D01*
X113703730Y-95861317D01*
X113703734Y-95861326D01*
X113799865Y-96067482D01*
X113930342Y-96253820D01*
X114091179Y-96414657D01*
X114277517Y-96545134D01*
X114483673Y-96641265D01*
X114483682Y-96641269D01*
X114679999Y-96693872D01*
X114680000Y-96693871D01*
X114680000Y-95730686D01*
X114684394Y-95735080D01*
X114775606Y-95787741D01*
X114877339Y-95815000D01*
X114982661Y-95815000D01*
X115084394Y-95787741D01*
X115175606Y-95735080D01*
X115180000Y-95730686D01*
X115180000Y-96693872D01*
X115376317Y-96641269D01*
X115376326Y-96641265D01*
X115582482Y-96545134D01*
X115768820Y-96414657D01*
X115929657Y-96253820D01*
X116060134Y-96067482D01*
X116156265Y-95861326D01*
X116156269Y-95861317D01*
X116208872Y-95665000D01*
X115245686Y-95665000D01*
X115250080Y-95660606D01*
X115302741Y-95569394D01*
X115330000Y-95467661D01*
X115330000Y-95362339D01*
X115302741Y-95260606D01*
X115250080Y-95169394D01*
X115245686Y-95165000D01*
X116208872Y-95165000D01*
X116208872Y-95164999D01*
X116156269Y-94968682D01*
X116156265Y-94968673D01*
X116060134Y-94762517D01*
X115929657Y-94576179D01*
X115768820Y-94415342D01*
X115582481Y-94284865D01*
X115582479Y-94284864D01*
X115523543Y-94257382D01*
X115471103Y-94211210D01*
X115451951Y-94144017D01*
X115472166Y-94077136D01*
X115523543Y-94032618D01*
X115582479Y-94005135D01*
X115582481Y-94005134D01*
X115768820Y-93874657D01*
X115929657Y-93713820D01*
X116060134Y-93527482D01*
X116156265Y-93321326D01*
X116156269Y-93321317D01*
X116208872Y-93125000D01*
X115245686Y-93125000D01*
X115250080Y-93120606D01*
X115302741Y-93029394D01*
X115330000Y-92927661D01*
X115330000Y-92822339D01*
X115302741Y-92720606D01*
X115250080Y-92629394D01*
X115245686Y-92625000D01*
X116208872Y-92625000D01*
X116208872Y-92624999D01*
X116156269Y-92428682D01*
X116156265Y-92428673D01*
X116060134Y-92222517D01*
X115929657Y-92036179D01*
X115768820Y-91875342D01*
X115582481Y-91744865D01*
X115582479Y-91744864D01*
X115523543Y-91717382D01*
X115471103Y-91671210D01*
X115451951Y-91604017D01*
X115472166Y-91537136D01*
X115523543Y-91492618D01*
X115582479Y-91465135D01*
X115582481Y-91465134D01*
X115768820Y-91334657D01*
X115929657Y-91173820D01*
X116060134Y-90987482D01*
X116156265Y-90781326D01*
X116156269Y-90781317D01*
X116208872Y-90585000D01*
X115245686Y-90585000D01*
X115250080Y-90580606D01*
X115302741Y-90489394D01*
X115330000Y-90387661D01*
X115330000Y-90282339D01*
X115302741Y-90180606D01*
X115250080Y-90089394D01*
X115245686Y-90085000D01*
X116208872Y-90085000D01*
X116208872Y-90084999D01*
X116156269Y-89888682D01*
X116156265Y-89888673D01*
X116060134Y-89682517D01*
X115929657Y-89496179D01*
X115768820Y-89335342D01*
X115582481Y-89204865D01*
X115582479Y-89204864D01*
X115523543Y-89177382D01*
X115471103Y-89131210D01*
X115451951Y-89064017D01*
X115472166Y-88997136D01*
X115523543Y-88952618D01*
X115582479Y-88925135D01*
X115582481Y-88925134D01*
X115768820Y-88794657D01*
X115929657Y-88633820D01*
X116060134Y-88447482D01*
X116156265Y-88241326D01*
X116156269Y-88241317D01*
X116208872Y-88045000D01*
X115245686Y-88045000D01*
X115250080Y-88040606D01*
X115302741Y-87949394D01*
X115330000Y-87847661D01*
X115330000Y-87742339D01*
X115302741Y-87640606D01*
X115250080Y-87549394D01*
X115245686Y-87545000D01*
X116208872Y-87545000D01*
X116208872Y-87544999D01*
X116156269Y-87348682D01*
X116156265Y-87348673D01*
X116086937Y-87199997D01*
X138767677Y-87199997D01*
X138767677Y-87200002D01*
X138786929Y-87420062D01*
X138786930Y-87420070D01*
X138844104Y-87633445D01*
X138844105Y-87633447D01*
X138844106Y-87633450D01*
X138877106Y-87704218D01*
X138937466Y-87833662D01*
X138937468Y-87833666D01*
X139064170Y-88014615D01*
X139064175Y-88014621D01*
X139220378Y-88170824D01*
X139220384Y-88170829D01*
X139401333Y-88297531D01*
X139401335Y-88297532D01*
X139401338Y-88297534D01*
X139601550Y-88390894D01*
X139814932Y-88448070D01*
X139972123Y-88461822D01*
X140034998Y-88467323D01*
X140035000Y-88467323D01*
X140035002Y-88467323D01*
X140090017Y-88462509D01*
X140255068Y-88448070D01*
X140468450Y-88390894D01*
X140668662Y-88297534D01*
X140849620Y-88170826D01*
X141005826Y-88014620D01*
X141132534Y-87833662D01*
X141192618Y-87704811D01*
X141238790Y-87652371D01*
X141305983Y-87633219D01*
X141372865Y-87653435D01*
X141417382Y-87704811D01*
X141477464Y-87833658D01*
X141477468Y-87833666D01*
X141604170Y-88014615D01*
X141604175Y-88014621D01*
X141760378Y-88170824D01*
X141760384Y-88170829D01*
X141941333Y-88297531D01*
X141941335Y-88297532D01*
X141941338Y-88297534D01*
X142141550Y-88390894D01*
X142354932Y-88448070D01*
X142512123Y-88461822D01*
X142574998Y-88467323D01*
X142575000Y-88467323D01*
X142575002Y-88467323D01*
X142630017Y-88462509D01*
X142795068Y-88448070D01*
X143008450Y-88390894D01*
X143208662Y-88297534D01*
X143389620Y-88170826D01*
X143545826Y-88014620D01*
X143672534Y-87833662D01*
X143732618Y-87704811D01*
X143778790Y-87652371D01*
X143845983Y-87633219D01*
X143912865Y-87653435D01*
X143957382Y-87704811D01*
X144017464Y-87833658D01*
X144017468Y-87833666D01*
X144144170Y-88014615D01*
X144144175Y-88014621D01*
X144300378Y-88170824D01*
X144300384Y-88170829D01*
X144481333Y-88297531D01*
X144481335Y-88297532D01*
X144481338Y-88297534D01*
X144681550Y-88390894D01*
X144894932Y-88448070D01*
X145052123Y-88461822D01*
X145114998Y-88467323D01*
X145115000Y-88467323D01*
X145115002Y-88467323D01*
X145170017Y-88462509D01*
X145335068Y-88448070D01*
X145548450Y-88390894D01*
X145748662Y-88297534D01*
X145929620Y-88170826D01*
X146085826Y-88014620D01*
X146212534Y-87833662D01*
X146272618Y-87704811D01*
X146318790Y-87652371D01*
X146385983Y-87633219D01*
X146452865Y-87653435D01*
X146497382Y-87704811D01*
X146557464Y-87833658D01*
X146557468Y-87833666D01*
X146684170Y-88014615D01*
X146684175Y-88014621D01*
X146840378Y-88170824D01*
X146840384Y-88170829D01*
X147021333Y-88297531D01*
X147021335Y-88297532D01*
X147021338Y-88297534D01*
X147221550Y-88390894D01*
X147434932Y-88448070D01*
X147592123Y-88461822D01*
X147654998Y-88467323D01*
X147655000Y-88467323D01*
X147655002Y-88467323D01*
X147710017Y-88462509D01*
X147875068Y-88448070D01*
X148088450Y-88390894D01*
X148288662Y-88297534D01*
X148469620Y-88170826D01*
X148625826Y-88014620D01*
X148752534Y-87833662D01*
X148812618Y-87704811D01*
X148858790Y-87652371D01*
X148925983Y-87633219D01*
X148992865Y-87653435D01*
X149037382Y-87704811D01*
X149097464Y-87833658D01*
X149097468Y-87833666D01*
X149224170Y-88014615D01*
X149224175Y-88014621D01*
X149380378Y-88170824D01*
X149380384Y-88170829D01*
X149561333Y-88297531D01*
X149561335Y-88297532D01*
X149561338Y-88297534D01*
X149761550Y-88390894D01*
X149974932Y-88448070D01*
X150132123Y-88461822D01*
X150194998Y-88467323D01*
X150195000Y-88467323D01*
X150195002Y-88467323D01*
X150250017Y-88462509D01*
X150415068Y-88448070D01*
X150628450Y-88390894D01*
X150828662Y-88297534D01*
X151009620Y-88170826D01*
X151165826Y-88014620D01*
X151292534Y-87833662D01*
X151352618Y-87704811D01*
X151398790Y-87652371D01*
X151465983Y-87633219D01*
X151532865Y-87653435D01*
X151577382Y-87704811D01*
X151637464Y-87833658D01*
X151637468Y-87833666D01*
X151764170Y-88014615D01*
X151764175Y-88014621D01*
X151920378Y-88170824D01*
X151920384Y-88170829D01*
X152101333Y-88297531D01*
X152101335Y-88297532D01*
X152101338Y-88297534D01*
X152301550Y-88390894D01*
X152514932Y-88448070D01*
X152672123Y-88461822D01*
X152734998Y-88467323D01*
X152735000Y-88467323D01*
X152735002Y-88467323D01*
X152790017Y-88462509D01*
X152955068Y-88448070D01*
X153168450Y-88390894D01*
X153368662Y-88297534D01*
X153549620Y-88170826D01*
X153705826Y-88014620D01*
X153832534Y-87833662D01*
X153892618Y-87704811D01*
X153938790Y-87652371D01*
X154005983Y-87633219D01*
X154072865Y-87653435D01*
X154117382Y-87704811D01*
X154177464Y-87833658D01*
X154177468Y-87833666D01*
X154304170Y-88014615D01*
X154304175Y-88014621D01*
X154460378Y-88170824D01*
X154460384Y-88170829D01*
X154641333Y-88297531D01*
X154641335Y-88297532D01*
X154641338Y-88297534D01*
X154841550Y-88390894D01*
X155054932Y-88448070D01*
X155212123Y-88461822D01*
X155274998Y-88467323D01*
X155275000Y-88467323D01*
X155275002Y-88467323D01*
X155330017Y-88462509D01*
X155495068Y-88448070D01*
X155708450Y-88390894D01*
X155908662Y-88297534D01*
X156089620Y-88170826D01*
X156245826Y-88014620D01*
X156372534Y-87833662D01*
X156432618Y-87704811D01*
X156478790Y-87652371D01*
X156545983Y-87633219D01*
X156612865Y-87653435D01*
X156657382Y-87704811D01*
X156717464Y-87833658D01*
X156717468Y-87833666D01*
X156844170Y-88014615D01*
X156844175Y-88014621D01*
X157000378Y-88170824D01*
X157000384Y-88170829D01*
X157181333Y-88297531D01*
X157181335Y-88297532D01*
X157181338Y-88297534D01*
X157381550Y-88390894D01*
X157594932Y-88448070D01*
X157752123Y-88461822D01*
X157814998Y-88467323D01*
X157815000Y-88467323D01*
X157815002Y-88467323D01*
X157870017Y-88462509D01*
X158035068Y-88448070D01*
X158248450Y-88390894D01*
X158448662Y-88297534D01*
X158629620Y-88170826D01*
X158785826Y-88014620D01*
X158912534Y-87833662D01*
X158972618Y-87704811D01*
X159018790Y-87652371D01*
X159085983Y-87633219D01*
X159152865Y-87653435D01*
X159197382Y-87704811D01*
X159257464Y-87833658D01*
X159257468Y-87833666D01*
X159384170Y-88014615D01*
X159384175Y-88014621D01*
X159540378Y-88170824D01*
X159540384Y-88170829D01*
X159721333Y-88297531D01*
X159721335Y-88297532D01*
X159721338Y-88297534D01*
X159921550Y-88390894D01*
X160134932Y-88448070D01*
X160292123Y-88461822D01*
X160354998Y-88467323D01*
X160355000Y-88467323D01*
X160355002Y-88467323D01*
X160410017Y-88462509D01*
X160575068Y-88448070D01*
X160788450Y-88390894D01*
X160988662Y-88297534D01*
X161169620Y-88170826D01*
X161325826Y-88014620D01*
X161452534Y-87833662D01*
X161512618Y-87704811D01*
X161558790Y-87652371D01*
X161625983Y-87633219D01*
X161692865Y-87653435D01*
X161737382Y-87704811D01*
X161797464Y-87833658D01*
X161797468Y-87833666D01*
X161924170Y-88014615D01*
X161924175Y-88014621D01*
X162080378Y-88170824D01*
X162080384Y-88170829D01*
X162261333Y-88297531D01*
X162261335Y-88297532D01*
X162261338Y-88297534D01*
X162461550Y-88390894D01*
X162674932Y-88448070D01*
X162832123Y-88461822D01*
X162894998Y-88467323D01*
X162895000Y-88467323D01*
X162895002Y-88467323D01*
X162950017Y-88462509D01*
X163115068Y-88448070D01*
X163328450Y-88390894D01*
X163528662Y-88297534D01*
X163709620Y-88170826D01*
X163865826Y-88014620D01*
X163992534Y-87833662D01*
X164052618Y-87704811D01*
X164098790Y-87652371D01*
X164165983Y-87633219D01*
X164232865Y-87653435D01*
X164277382Y-87704811D01*
X164337464Y-87833658D01*
X164337468Y-87833666D01*
X164464170Y-88014615D01*
X164464175Y-88014621D01*
X164620378Y-88170824D01*
X164620384Y-88170829D01*
X164801333Y-88297531D01*
X164801335Y-88297532D01*
X164801338Y-88297534D01*
X165001550Y-88390894D01*
X165214932Y-88448070D01*
X165372123Y-88461822D01*
X165434998Y-88467323D01*
X165435000Y-88467323D01*
X165435002Y-88467323D01*
X165490017Y-88462509D01*
X165655068Y-88448070D01*
X165868450Y-88390894D01*
X166068662Y-88297534D01*
X166249620Y-88170826D01*
X166405826Y-88014620D01*
X166532534Y-87833662D01*
X166592618Y-87704811D01*
X166638790Y-87652371D01*
X166705983Y-87633219D01*
X166772865Y-87653435D01*
X166817382Y-87704811D01*
X166877464Y-87833658D01*
X166877468Y-87833666D01*
X167004170Y-88014615D01*
X167004175Y-88014621D01*
X167160378Y-88170824D01*
X167160384Y-88170829D01*
X167341333Y-88297531D01*
X167341335Y-88297532D01*
X167341338Y-88297534D01*
X167541550Y-88390894D01*
X167754932Y-88448070D01*
X167912123Y-88461822D01*
X167974998Y-88467323D01*
X167975000Y-88467323D01*
X167975002Y-88467323D01*
X168030017Y-88462509D01*
X168195068Y-88448070D01*
X168408450Y-88390894D01*
X168608662Y-88297534D01*
X168789620Y-88170826D01*
X168945826Y-88014620D01*
X169072534Y-87833662D01*
X169132618Y-87704811D01*
X169178790Y-87652371D01*
X169245983Y-87633219D01*
X169312865Y-87653435D01*
X169357382Y-87704811D01*
X169417464Y-87833658D01*
X169417468Y-87833666D01*
X169544170Y-88014615D01*
X169544175Y-88014621D01*
X169700378Y-88170824D01*
X169700384Y-88170829D01*
X169881333Y-88297531D01*
X169881335Y-88297532D01*
X169881338Y-88297534D01*
X170081550Y-88390894D01*
X170294932Y-88448070D01*
X170452123Y-88461822D01*
X170514998Y-88467323D01*
X170515000Y-88467323D01*
X170515002Y-88467323D01*
X170570017Y-88462509D01*
X170735068Y-88448070D01*
X170948450Y-88390894D01*
X171148662Y-88297534D01*
X171329620Y-88170826D01*
X171485826Y-88014620D01*
X171612534Y-87833662D01*
X171672894Y-87704218D01*
X171719066Y-87651779D01*
X171786259Y-87632627D01*
X171853141Y-87652843D01*
X171897658Y-87704219D01*
X171957898Y-87833405D01*
X171957901Y-87833411D01*
X172003258Y-87898187D01*
X172003258Y-87898188D01*
X172674000Y-87227446D01*
X172674000Y-87250160D01*
X172699964Y-87347061D01*
X172750124Y-87433940D01*
X172821060Y-87504876D01*
X172907939Y-87555036D01*
X173004840Y-87581000D01*
X173027553Y-87581000D01*
X172356810Y-88251740D01*
X172421590Y-88297099D01*
X172421592Y-88297100D01*
X172621715Y-88390419D01*
X172621729Y-88390424D01*
X172835013Y-88447573D01*
X172835023Y-88447575D01*
X173054999Y-88466821D01*
X173055001Y-88466821D01*
X173274976Y-88447575D01*
X173274986Y-88447573D01*
X173488270Y-88390424D01*
X173488284Y-88390419D01*
X173688407Y-88297100D01*
X173688417Y-88297094D01*
X173753188Y-88251741D01*
X173082448Y-87581000D01*
X173105160Y-87581000D01*
X173202061Y-87555036D01*
X173288940Y-87504876D01*
X173359876Y-87433940D01*
X173410036Y-87347061D01*
X173436000Y-87250160D01*
X173436000Y-87227447D01*
X174106741Y-87898188D01*
X174152094Y-87833417D01*
X174152095Y-87833416D01*
X174212340Y-87704219D01*
X174258512Y-87651780D01*
X174325706Y-87632627D01*
X174392587Y-87652842D01*
X174437105Y-87704218D01*
X174497466Y-87833662D01*
X174497468Y-87833666D01*
X174624170Y-88014615D01*
X174624175Y-88014621D01*
X174780378Y-88170824D01*
X174780384Y-88170829D01*
X174961333Y-88297531D01*
X174961335Y-88297532D01*
X174961338Y-88297534D01*
X175161550Y-88390894D01*
X175374932Y-88448070D01*
X175532123Y-88461822D01*
X175594998Y-88467323D01*
X175595000Y-88467323D01*
X175595002Y-88467323D01*
X175650017Y-88462509D01*
X175815068Y-88448070D01*
X176028450Y-88390894D01*
X176228662Y-88297534D01*
X176409620Y-88170826D01*
X176565826Y-88014620D01*
X176692534Y-87833662D01*
X176785894Y-87633450D01*
X176843070Y-87420068D01*
X176862323Y-87200000D01*
X176843070Y-86979932D01*
X176785894Y-86766550D01*
X176692534Y-86566339D01*
X176565957Y-86385567D01*
X176565827Y-86385381D01*
X176513939Y-86333493D01*
X176409620Y-86229174D01*
X176409616Y-86229171D01*
X176409615Y-86229170D01*
X176228666Y-86102468D01*
X176228662Y-86102466D01*
X176210805Y-86094139D01*
X176028450Y-86009106D01*
X176028447Y-86009105D01*
X176028445Y-86009104D01*
X175815070Y-85951930D01*
X175815062Y-85951929D01*
X175595002Y-85932677D01*
X175594998Y-85932677D01*
X175374937Y-85951929D01*
X175374929Y-85951930D01*
X175161554Y-86009104D01*
X175161548Y-86009107D01*
X174961340Y-86102465D01*
X174961338Y-86102466D01*
X174780377Y-86229175D01*
X174624175Y-86385377D01*
X174497467Y-86566337D01*
X174437105Y-86695782D01*
X174390932Y-86748221D01*
X174323738Y-86767372D01*
X174256857Y-86747156D01*
X174212341Y-86695780D01*
X174152098Y-86566589D01*
X174152097Y-86566587D01*
X174106741Y-86501811D01*
X174106740Y-86501810D01*
X173436000Y-87172551D01*
X173436000Y-87149840D01*
X173410036Y-87052939D01*
X173359876Y-86966060D01*
X173288940Y-86895124D01*
X173202061Y-86844964D01*
X173105160Y-86819000D01*
X173082447Y-86819000D01*
X173753188Y-86148258D01*
X173688411Y-86102901D01*
X173688405Y-86102898D01*
X173488284Y-86009580D01*
X173488270Y-86009575D01*
X173274986Y-85952426D01*
X173274976Y-85952424D01*
X173055001Y-85933179D01*
X173054999Y-85933179D01*
X172835023Y-85952424D01*
X172835013Y-85952426D01*
X172621729Y-86009575D01*
X172621720Y-86009579D01*
X172421590Y-86102901D01*
X172356811Y-86148258D01*
X173027554Y-86819000D01*
X173004840Y-86819000D01*
X172907939Y-86844964D01*
X172821060Y-86895124D01*
X172750124Y-86966060D01*
X172699964Y-87052939D01*
X172674000Y-87149840D01*
X172674000Y-87172553D01*
X172003258Y-86501811D01*
X171957901Y-86566590D01*
X171897658Y-86695781D01*
X171851485Y-86748220D01*
X171784292Y-86767372D01*
X171717411Y-86747156D01*
X171672894Y-86695781D01*
X171624259Y-86591484D01*
X171612534Y-86566339D01*
X171485957Y-86385567D01*
X171485827Y-86385381D01*
X171433939Y-86333493D01*
X171329620Y-86229174D01*
X171329616Y-86229171D01*
X171329615Y-86229170D01*
X171148666Y-86102468D01*
X171148662Y-86102466D01*
X171130805Y-86094139D01*
X170948450Y-86009106D01*
X170948447Y-86009105D01*
X170948445Y-86009104D01*
X170735070Y-85951930D01*
X170735062Y-85951929D01*
X170515002Y-85932677D01*
X170514998Y-85932677D01*
X170294937Y-85951929D01*
X170294929Y-85951930D01*
X170081554Y-86009104D01*
X170081548Y-86009107D01*
X169881340Y-86102465D01*
X169881338Y-86102466D01*
X169700377Y-86229175D01*
X169544175Y-86385377D01*
X169417466Y-86566338D01*
X169417465Y-86566340D01*
X169357382Y-86695189D01*
X169311209Y-86747628D01*
X169244016Y-86766780D01*
X169177135Y-86746564D01*
X169132618Y-86695189D01*
X169084259Y-86591484D01*
X169072534Y-86566339D01*
X168945957Y-86385567D01*
X168945827Y-86385381D01*
X168893939Y-86333493D01*
X168789620Y-86229174D01*
X168789616Y-86229171D01*
X168789615Y-86229170D01*
X168608666Y-86102468D01*
X168608662Y-86102466D01*
X168590805Y-86094139D01*
X168408450Y-86009106D01*
X168408447Y-86009105D01*
X168408445Y-86009104D01*
X168195070Y-85951930D01*
X168195062Y-85951929D01*
X167975002Y-85932677D01*
X167974998Y-85932677D01*
X167754937Y-85951929D01*
X167754929Y-85951930D01*
X167541554Y-86009104D01*
X167541548Y-86009107D01*
X167341340Y-86102465D01*
X167341338Y-86102466D01*
X167160377Y-86229175D01*
X167004175Y-86385377D01*
X166877466Y-86566338D01*
X166877465Y-86566340D01*
X166817382Y-86695189D01*
X166771209Y-86747628D01*
X166704016Y-86766780D01*
X166637135Y-86746564D01*
X166592618Y-86695189D01*
X166544259Y-86591484D01*
X166532534Y-86566339D01*
X166405957Y-86385567D01*
X166405827Y-86385381D01*
X166353939Y-86333493D01*
X166249620Y-86229174D01*
X166249616Y-86229171D01*
X166249615Y-86229170D01*
X166068666Y-86102468D01*
X166068662Y-86102466D01*
X166050805Y-86094139D01*
X165868450Y-86009106D01*
X165868447Y-86009105D01*
X165868445Y-86009104D01*
X165655070Y-85951930D01*
X165655062Y-85951929D01*
X165435002Y-85932677D01*
X165434998Y-85932677D01*
X165214937Y-85951929D01*
X165214929Y-85951930D01*
X165001554Y-86009104D01*
X165001548Y-86009107D01*
X164801340Y-86102465D01*
X164801338Y-86102466D01*
X164620377Y-86229175D01*
X164464175Y-86385377D01*
X164337466Y-86566338D01*
X164337465Y-86566340D01*
X164277382Y-86695189D01*
X164231209Y-86747628D01*
X164164016Y-86766780D01*
X164097135Y-86746564D01*
X164052618Y-86695189D01*
X164004259Y-86591484D01*
X163992534Y-86566339D01*
X163865957Y-86385567D01*
X163865827Y-86385381D01*
X163813939Y-86333493D01*
X163709620Y-86229174D01*
X163709616Y-86229171D01*
X163709615Y-86229170D01*
X163528666Y-86102468D01*
X163528662Y-86102466D01*
X163510805Y-86094139D01*
X163328450Y-86009106D01*
X163328447Y-86009105D01*
X163328445Y-86009104D01*
X163115070Y-85951930D01*
X163115062Y-85951929D01*
X162895002Y-85932677D01*
X162894998Y-85932677D01*
X162674937Y-85951929D01*
X162674929Y-85951930D01*
X162461554Y-86009104D01*
X162461548Y-86009107D01*
X162261340Y-86102465D01*
X162261338Y-86102466D01*
X162080377Y-86229175D01*
X161924175Y-86385377D01*
X161797466Y-86566338D01*
X161797465Y-86566340D01*
X161737382Y-86695189D01*
X161691209Y-86747628D01*
X161624016Y-86766780D01*
X161557135Y-86746564D01*
X161512618Y-86695189D01*
X161464259Y-86591484D01*
X161452534Y-86566339D01*
X161325957Y-86385567D01*
X161325827Y-86385381D01*
X161273939Y-86333493D01*
X161169620Y-86229174D01*
X161169616Y-86229171D01*
X161169615Y-86229170D01*
X160988666Y-86102468D01*
X160988662Y-86102466D01*
X160970805Y-86094139D01*
X160788450Y-86009106D01*
X160788447Y-86009105D01*
X160788445Y-86009104D01*
X160575070Y-85951930D01*
X160575062Y-85951929D01*
X160355002Y-85932677D01*
X160354998Y-85932677D01*
X160134937Y-85951929D01*
X160134929Y-85951930D01*
X159921554Y-86009104D01*
X159921548Y-86009107D01*
X159721340Y-86102465D01*
X159721338Y-86102466D01*
X159540377Y-86229175D01*
X159384175Y-86385377D01*
X159257466Y-86566338D01*
X159257465Y-86566340D01*
X159197382Y-86695189D01*
X159151209Y-86747628D01*
X159084016Y-86766780D01*
X159017135Y-86746564D01*
X158972618Y-86695189D01*
X158924259Y-86591484D01*
X158912534Y-86566339D01*
X158785957Y-86385567D01*
X158785827Y-86385381D01*
X158733939Y-86333493D01*
X158629620Y-86229174D01*
X158629616Y-86229171D01*
X158629615Y-86229170D01*
X158448666Y-86102468D01*
X158448662Y-86102466D01*
X158430805Y-86094139D01*
X158248450Y-86009106D01*
X158248447Y-86009105D01*
X158248445Y-86009104D01*
X158035070Y-85951930D01*
X158035062Y-85951929D01*
X157815002Y-85932677D01*
X157814998Y-85932677D01*
X157594937Y-85951929D01*
X157594929Y-85951930D01*
X157381554Y-86009104D01*
X157381548Y-86009107D01*
X157181340Y-86102465D01*
X157181338Y-86102466D01*
X157000377Y-86229175D01*
X156844175Y-86385377D01*
X156717466Y-86566338D01*
X156717465Y-86566340D01*
X156657382Y-86695189D01*
X156611209Y-86747628D01*
X156544016Y-86766780D01*
X156477135Y-86746564D01*
X156432618Y-86695189D01*
X156384259Y-86591484D01*
X156372534Y-86566339D01*
X156245957Y-86385567D01*
X156245827Y-86385381D01*
X156193939Y-86333493D01*
X156089620Y-86229174D01*
X156089616Y-86229171D01*
X156089615Y-86229170D01*
X155908666Y-86102468D01*
X155908662Y-86102466D01*
X155890805Y-86094139D01*
X155708450Y-86009106D01*
X155708447Y-86009105D01*
X155708445Y-86009104D01*
X155495070Y-85951930D01*
X155495062Y-85951929D01*
X155275002Y-85932677D01*
X155274998Y-85932677D01*
X155054937Y-85951929D01*
X155054929Y-85951930D01*
X154841554Y-86009104D01*
X154841548Y-86009107D01*
X154641340Y-86102465D01*
X154641338Y-86102466D01*
X154460377Y-86229175D01*
X154304175Y-86385377D01*
X154177466Y-86566338D01*
X154177465Y-86566340D01*
X154117382Y-86695189D01*
X154071209Y-86747628D01*
X154004016Y-86766780D01*
X153937135Y-86746564D01*
X153892618Y-86695189D01*
X153844259Y-86591484D01*
X153832534Y-86566339D01*
X153705957Y-86385567D01*
X153705827Y-86385381D01*
X153653939Y-86333493D01*
X153549620Y-86229174D01*
X153549616Y-86229171D01*
X153549615Y-86229170D01*
X153368666Y-86102468D01*
X153368662Y-86102466D01*
X153350805Y-86094139D01*
X153168450Y-86009106D01*
X153168447Y-86009105D01*
X153168445Y-86009104D01*
X152955070Y-85951930D01*
X152955062Y-85951929D01*
X152735002Y-85932677D01*
X152734998Y-85932677D01*
X152514937Y-85951929D01*
X152514929Y-85951930D01*
X152301554Y-86009104D01*
X152301548Y-86009107D01*
X152101340Y-86102465D01*
X152101338Y-86102466D01*
X151920377Y-86229175D01*
X151764175Y-86385377D01*
X151637466Y-86566338D01*
X151637465Y-86566340D01*
X151577382Y-86695189D01*
X151531209Y-86747628D01*
X151464016Y-86766780D01*
X151397135Y-86746564D01*
X151352618Y-86695189D01*
X151304259Y-86591484D01*
X151292534Y-86566339D01*
X151165957Y-86385567D01*
X151165827Y-86385381D01*
X151113939Y-86333493D01*
X151009620Y-86229174D01*
X151009616Y-86229171D01*
X151009615Y-86229170D01*
X150828666Y-86102468D01*
X150828662Y-86102466D01*
X150810805Y-86094139D01*
X150628450Y-86009106D01*
X150628447Y-86009105D01*
X150628445Y-86009104D01*
X150415070Y-85951930D01*
X150415062Y-85951929D01*
X150195002Y-85932677D01*
X150194998Y-85932677D01*
X149974937Y-85951929D01*
X149974929Y-85951930D01*
X149761554Y-86009104D01*
X149761548Y-86009107D01*
X149561340Y-86102465D01*
X149561338Y-86102466D01*
X149380377Y-86229175D01*
X149224175Y-86385377D01*
X149097466Y-86566338D01*
X149097465Y-86566340D01*
X149037382Y-86695189D01*
X148991209Y-86747628D01*
X148924016Y-86766780D01*
X148857135Y-86746564D01*
X148812618Y-86695189D01*
X148764259Y-86591484D01*
X148752534Y-86566339D01*
X148625957Y-86385567D01*
X148625827Y-86385381D01*
X148573939Y-86333493D01*
X148469620Y-86229174D01*
X148469616Y-86229171D01*
X148469615Y-86229170D01*
X148288666Y-86102468D01*
X148288662Y-86102466D01*
X148270805Y-86094139D01*
X148088450Y-86009106D01*
X148088447Y-86009105D01*
X148088445Y-86009104D01*
X147875070Y-85951930D01*
X147875062Y-85951929D01*
X147655002Y-85932677D01*
X147654998Y-85932677D01*
X147434937Y-85951929D01*
X147434929Y-85951930D01*
X147221554Y-86009104D01*
X147221548Y-86009107D01*
X147021340Y-86102465D01*
X147021338Y-86102466D01*
X146840377Y-86229175D01*
X146684175Y-86385377D01*
X146557466Y-86566338D01*
X146557465Y-86566340D01*
X146497382Y-86695189D01*
X146451209Y-86747628D01*
X146384016Y-86766780D01*
X146317135Y-86746564D01*
X146272618Y-86695189D01*
X146224259Y-86591484D01*
X146212534Y-86566339D01*
X146085957Y-86385567D01*
X146085827Y-86385381D01*
X146033939Y-86333493D01*
X145929620Y-86229174D01*
X145929616Y-86229171D01*
X145929615Y-86229170D01*
X145748666Y-86102468D01*
X145748662Y-86102466D01*
X145730805Y-86094139D01*
X145548450Y-86009106D01*
X145548447Y-86009105D01*
X145548445Y-86009104D01*
X145335070Y-85951930D01*
X145335062Y-85951929D01*
X145115002Y-85932677D01*
X145114998Y-85932677D01*
X144894937Y-85951929D01*
X144894929Y-85951930D01*
X144681554Y-86009104D01*
X144681548Y-86009107D01*
X144481340Y-86102465D01*
X144481338Y-86102466D01*
X144300377Y-86229175D01*
X144144175Y-86385377D01*
X144017466Y-86566338D01*
X144017465Y-86566340D01*
X143957382Y-86695189D01*
X143911209Y-86747628D01*
X143844016Y-86766780D01*
X143777135Y-86746564D01*
X143732618Y-86695189D01*
X143684259Y-86591484D01*
X143672534Y-86566339D01*
X143545957Y-86385567D01*
X143545827Y-86385381D01*
X143493939Y-86333493D01*
X143389620Y-86229174D01*
X143389616Y-86229171D01*
X143389615Y-86229170D01*
X143208666Y-86102468D01*
X143208662Y-86102466D01*
X143190805Y-86094139D01*
X143008450Y-86009106D01*
X143008447Y-86009105D01*
X143008445Y-86009104D01*
X142795070Y-85951930D01*
X142795062Y-85951929D01*
X142575002Y-85932677D01*
X142574998Y-85932677D01*
X142354937Y-85951929D01*
X142354929Y-85951930D01*
X142141554Y-86009104D01*
X142141548Y-86009107D01*
X141941340Y-86102465D01*
X141941338Y-86102466D01*
X141760377Y-86229175D01*
X141604175Y-86385377D01*
X141477466Y-86566338D01*
X141477465Y-86566340D01*
X141417382Y-86695189D01*
X141371209Y-86747628D01*
X141304016Y-86766780D01*
X141237135Y-86746564D01*
X141192618Y-86695189D01*
X141144259Y-86591484D01*
X141132534Y-86566339D01*
X141005957Y-86385567D01*
X141005827Y-86385381D01*
X140953939Y-86333493D01*
X140849620Y-86229174D01*
X140849616Y-86229171D01*
X140849615Y-86229170D01*
X140668666Y-86102468D01*
X140668662Y-86102466D01*
X140650805Y-86094139D01*
X140468450Y-86009106D01*
X140468447Y-86009105D01*
X140468445Y-86009104D01*
X140255070Y-85951930D01*
X140255062Y-85951929D01*
X140035002Y-85932677D01*
X140034998Y-85932677D01*
X139814937Y-85951929D01*
X139814929Y-85951930D01*
X139601554Y-86009104D01*
X139601548Y-86009107D01*
X139401340Y-86102465D01*
X139401338Y-86102466D01*
X139220377Y-86229175D01*
X139064175Y-86385377D01*
X138937466Y-86566338D01*
X138937465Y-86566340D01*
X138844107Y-86766548D01*
X138844104Y-86766554D01*
X138786930Y-86979929D01*
X138786929Y-86979937D01*
X138767677Y-87199997D01*
X116086937Y-87199997D01*
X116060134Y-87142517D01*
X115929657Y-86956179D01*
X115768820Y-86795342D01*
X115582482Y-86664865D01*
X115524133Y-86637657D01*
X115471694Y-86591484D01*
X115452542Y-86524291D01*
X115472758Y-86457410D01*
X115524129Y-86412895D01*
X115582734Y-86385568D01*
X115769139Y-86255047D01*
X115930047Y-86094139D01*
X116060568Y-85907734D01*
X116156739Y-85701496D01*
X116215635Y-85481692D01*
X116235468Y-85255000D01*
X116215635Y-85028308D01*
X116156739Y-84808504D01*
X116060568Y-84602266D01*
X115930047Y-84415861D01*
X115930045Y-84415858D01*
X115769141Y-84254954D01*
X115582734Y-84124432D01*
X115582728Y-84124429D01*
X115524725Y-84097382D01*
X115472285Y-84051210D01*
X115453133Y-83984017D01*
X115473348Y-83917135D01*
X115524725Y-83872618D01*
X115582734Y-83845568D01*
X115769139Y-83715047D01*
X115930047Y-83554139D01*
X116060568Y-83367734D01*
X116156739Y-83161496D01*
X116215635Y-82941692D01*
X116235468Y-82715000D01*
X116215635Y-82488308D01*
X116156739Y-82268504D01*
X116060568Y-82062266D01*
X115930047Y-81875861D01*
X115930045Y-81875858D01*
X115769141Y-81714954D01*
X115582734Y-81584432D01*
X115582728Y-81584429D01*
X115549835Y-81569091D01*
X115524724Y-81557381D01*
X115472285Y-81511210D01*
X115453133Y-81444017D01*
X115473348Y-81377135D01*
X115524725Y-81332618D01*
X115582734Y-81305568D01*
X115769139Y-81175047D01*
X115930047Y-81014139D01*
X116060568Y-80827734D01*
X116156739Y-80621496D01*
X116215635Y-80401692D01*
X116235468Y-80175000D01*
X116215635Y-79948308D01*
X116156739Y-79728504D01*
X116060568Y-79522266D01*
X115930047Y-79335861D01*
X115930045Y-79335858D01*
X115921322Y-79327135D01*
X182009500Y-79327135D01*
X182009500Y-81122870D01*
X182009501Y-81122876D01*
X182015908Y-81182483D01*
X182066202Y-81317328D01*
X182066206Y-81317335D01*
X182152452Y-81432544D01*
X182152455Y-81432547D01*
X182267664Y-81518793D01*
X182267671Y-81518797D01*
X182402517Y-81569091D01*
X182402516Y-81569091D01*
X182409444Y-81569835D01*
X182462127Y-81575500D01*
X184257872Y-81575499D01*
X184317483Y-81569091D01*
X184452331Y-81518796D01*
X184567546Y-81432546D01*
X184653796Y-81317331D01*
X184702810Y-81185916D01*
X184744681Y-81129984D01*
X184810145Y-81105566D01*
X184878418Y-81120417D01*
X184906673Y-81141569D01*
X185028599Y-81263495D01*
X185125384Y-81331265D01*
X185222165Y-81399032D01*
X185222167Y-81399033D01*
X185222170Y-81399035D01*
X185436337Y-81498903D01*
X185664592Y-81560063D01*
X185841034Y-81575500D01*
X185899999Y-81580659D01*
X185900000Y-81580659D01*
X185900001Y-81580659D01*
X185958966Y-81575500D01*
X186135408Y-81560063D01*
X186363663Y-81498903D01*
X186577830Y-81399035D01*
X186771401Y-81263495D01*
X186938495Y-81096401D01*
X187074035Y-80902830D01*
X187173903Y-80688663D01*
X187235063Y-80460408D01*
X187255659Y-80225000D01*
X187235063Y-79989592D01*
X187173903Y-79761337D01*
X187074035Y-79547171D01*
X187056598Y-79522267D01*
X186938494Y-79353597D01*
X186771402Y-79186506D01*
X186771395Y-79186501D01*
X186577834Y-79050967D01*
X186577830Y-79050965D01*
X186563818Y-79044431D01*
X186363663Y-78951097D01*
X186363659Y-78951096D01*
X186363655Y-78951094D01*
X186135413Y-78889938D01*
X186135403Y-78889936D01*
X185900001Y-78869341D01*
X185899999Y-78869341D01*
X185664596Y-78889936D01*
X185664586Y-78889938D01*
X185436344Y-78951094D01*
X185436335Y-78951098D01*
X185222171Y-79050964D01*
X185222169Y-79050965D01*
X185028600Y-79186503D01*
X184906673Y-79308430D01*
X184845350Y-79341914D01*
X184775658Y-79336930D01*
X184719725Y-79295058D01*
X184702810Y-79264081D01*
X184653797Y-79132671D01*
X184653793Y-79132664D01*
X184567547Y-79017455D01*
X184567544Y-79017452D01*
X184452335Y-78931206D01*
X184452328Y-78931202D01*
X184317482Y-78880908D01*
X184317483Y-78880908D01*
X184257883Y-78874501D01*
X184257881Y-78874500D01*
X184257873Y-78874500D01*
X184257864Y-78874500D01*
X182462129Y-78874500D01*
X182462123Y-78874501D01*
X182402516Y-78880908D01*
X182267671Y-78931202D01*
X182267664Y-78931206D01*
X182152455Y-79017452D01*
X182152452Y-79017455D01*
X182066206Y-79132664D01*
X182066202Y-79132671D01*
X182015908Y-79267517D01*
X182009501Y-79327116D01*
X182009500Y-79327135D01*
X115921322Y-79327135D01*
X115769141Y-79174954D01*
X115582734Y-79044432D01*
X115582728Y-79044429D01*
X115524882Y-79017455D01*
X115524724Y-79017381D01*
X115472285Y-78971210D01*
X115453133Y-78904017D01*
X115473348Y-78837135D01*
X115524725Y-78792618D01*
X115525643Y-78792190D01*
X115582734Y-78765568D01*
X115769139Y-78635047D01*
X115930047Y-78474139D01*
X116060568Y-78287734D01*
X116156739Y-78081496D01*
X116215635Y-77861692D01*
X116235468Y-77635000D01*
X116234050Y-77618797D01*
X116229801Y-77570230D01*
X116215635Y-77408308D01*
X116169198Y-77235000D01*
X116156741Y-77188511D01*
X116156738Y-77188502D01*
X116060568Y-76982267D01*
X116060567Y-76982265D01*
X115930045Y-76795858D01*
X115769141Y-76634954D01*
X115582734Y-76504432D01*
X115582732Y-76504431D01*
X115376497Y-76408261D01*
X115376488Y-76408258D01*
X115156697Y-76349366D01*
X115156693Y-76349365D01*
X115156692Y-76349365D01*
X115156691Y-76349364D01*
X115156686Y-76349364D01*
X114930002Y-76329532D01*
X114929998Y-76329532D01*
X114703313Y-76349364D01*
X114703302Y-76349366D01*
X114483511Y-76408258D01*
X114483502Y-76408261D01*
X114277267Y-76504431D01*
X114277265Y-76504432D01*
X114090858Y-76634954D01*
X113929954Y-76795858D01*
X113799432Y-76982265D01*
X113799431Y-76982267D01*
X113703261Y-77188502D01*
X113703258Y-77188511D01*
X113644366Y-77408302D01*
X113644364Y-77408313D01*
X113624532Y-77634998D01*
X102630000Y-77634998D01*
X102630000Y-77582339D01*
X102602741Y-77480606D01*
X102550080Y-77389394D01*
X102545686Y-77385000D01*
X103530000Y-77385000D01*
X103530000Y-76787172D01*
X103529999Y-76787155D01*
X103523598Y-76727627D01*
X103523596Y-76727620D01*
X103473354Y-76592913D01*
X103473350Y-76592906D01*
X103387190Y-76477812D01*
X103387187Y-76477809D01*
X103272093Y-76391649D01*
X103272086Y-76391645D01*
X103137379Y-76341403D01*
X103137372Y-76341401D01*
X103077844Y-76335000D01*
X102480000Y-76335000D01*
X102480000Y-77319314D01*
X102475606Y-77314920D01*
X102384394Y-77262259D01*
X102282661Y-77235000D01*
X102177339Y-77235000D01*
X102075606Y-77262259D01*
X101984394Y-77314920D01*
X101980000Y-77319314D01*
X101980000Y-76335000D01*
X101382155Y-76335000D01*
X101322627Y-76341401D01*
X101322620Y-76341403D01*
X101187913Y-76391645D01*
X101187906Y-76391649D01*
X101072812Y-76477809D01*
X101072809Y-76477812D01*
X100986649Y-76592906D01*
X100986645Y-76592913D01*
X100936403Y-76727620D01*
X100936401Y-76727627D01*
X100930000Y-76787155D01*
X100930000Y-77385000D01*
X101914314Y-77385000D01*
X101909920Y-77389394D01*
X101857259Y-77480606D01*
X101830000Y-77582339D01*
X101830000Y-77687661D01*
X101857259Y-77789394D01*
X101909920Y-77880606D01*
X101914314Y-77885000D01*
X100930000Y-77885000D01*
X100930000Y-78482844D01*
X100936401Y-78542372D01*
X100936403Y-78542379D01*
X100986645Y-78677086D01*
X100986649Y-78677093D01*
X101072809Y-78792187D01*
X101072812Y-78792190D01*
X101187906Y-78878350D01*
X101187913Y-78878354D01*
X101322620Y-78928596D01*
X101322627Y-78928598D01*
X101358218Y-78932425D01*
X101422769Y-78959163D01*
X101462618Y-79016555D01*
X101465111Y-79086380D01*
X101429459Y-79146469D01*
X101416088Y-79157287D01*
X101390861Y-79174951D01*
X101229954Y-79335858D01*
X101099432Y-79522265D01*
X101099431Y-79522267D01*
X101003261Y-79728502D01*
X101003258Y-79728511D01*
X100944366Y-79948302D01*
X100944364Y-79948313D01*
X100924532Y-80174998D01*
X70050500Y-80174998D01*
X70050500Y-75427135D01*
X182009500Y-75427135D01*
X182009500Y-77222870D01*
X182009501Y-77222876D01*
X182015908Y-77282483D01*
X182066202Y-77417328D01*
X182066206Y-77417335D01*
X182152452Y-77532544D01*
X182152455Y-77532547D01*
X182267664Y-77618793D01*
X182267671Y-77618797D01*
X182402517Y-77669091D01*
X182402516Y-77669091D01*
X182409444Y-77669835D01*
X182462127Y-77675500D01*
X184257872Y-77675499D01*
X184317483Y-77669091D01*
X184452331Y-77618796D01*
X184567546Y-77532546D01*
X184653796Y-77417331D01*
X184702810Y-77285916D01*
X184744681Y-77229984D01*
X184810145Y-77205566D01*
X184878418Y-77220417D01*
X184906673Y-77241569D01*
X185028599Y-77363495D01*
X185125384Y-77431265D01*
X185222165Y-77499032D01*
X185222167Y-77499033D01*
X185222170Y-77499035D01*
X185436337Y-77598903D01*
X185664592Y-77660063D01*
X185841034Y-77675500D01*
X185899999Y-77680659D01*
X185900000Y-77680659D01*
X185900001Y-77680659D01*
X185958966Y-77675500D01*
X186135408Y-77660063D01*
X186363663Y-77598903D01*
X186577830Y-77499035D01*
X186771401Y-77363495D01*
X186938495Y-77196401D01*
X187074035Y-77002830D01*
X187173903Y-76788663D01*
X187235063Y-76560408D01*
X187255659Y-76325000D01*
X187235063Y-76089592D01*
X187173903Y-75861337D01*
X187074035Y-75647171D01*
X186938495Y-75453599D01*
X186938494Y-75453597D01*
X186771402Y-75286506D01*
X186771395Y-75286501D01*
X186577834Y-75150967D01*
X186577830Y-75150965D01*
X186577828Y-75150964D01*
X186363663Y-75051097D01*
X186363659Y-75051096D01*
X186363655Y-75051094D01*
X186135413Y-74989938D01*
X186135403Y-74989936D01*
X185900001Y-74969341D01*
X185899999Y-74969341D01*
X185664596Y-74989936D01*
X185664586Y-74989938D01*
X185436344Y-75051094D01*
X185436335Y-75051098D01*
X185222171Y-75150964D01*
X185222169Y-75150965D01*
X185028600Y-75286503D01*
X184906673Y-75408430D01*
X184845350Y-75441914D01*
X184775658Y-75436930D01*
X184719725Y-75395058D01*
X184702810Y-75364081D01*
X184653797Y-75232671D01*
X184653793Y-75232664D01*
X184567547Y-75117455D01*
X184567544Y-75117452D01*
X184452335Y-75031206D01*
X184452328Y-75031202D01*
X184317482Y-74980908D01*
X184317483Y-74980908D01*
X184257883Y-74974501D01*
X184257881Y-74974500D01*
X184257873Y-74974500D01*
X184257864Y-74974500D01*
X182462129Y-74974500D01*
X182462123Y-74974501D01*
X182402516Y-74980908D01*
X182267671Y-75031202D01*
X182267664Y-75031206D01*
X182152455Y-75117452D01*
X182152452Y-75117455D01*
X182066206Y-75232664D01*
X182066202Y-75232671D01*
X182015908Y-75367517D01*
X182009501Y-75427116D01*
X182009500Y-75427135D01*
X70050500Y-75427135D01*
X70050500Y-66987106D01*
X81769500Y-66987106D01*
X81769500Y-67312893D01*
X81805974Y-67636604D01*
X81805976Y-67636620D01*
X81878467Y-67954226D01*
X81878471Y-67954238D01*
X81986066Y-68261725D01*
X82127413Y-68555234D01*
X82127415Y-68555237D01*
X82300739Y-68831081D01*
X82503857Y-69085783D01*
X82734217Y-69316143D01*
X82988919Y-69519261D01*
X83264763Y-69692585D01*
X83558278Y-69833935D01*
X83789217Y-69914744D01*
X83865761Y-69941528D01*
X83865773Y-69941532D01*
X84183383Y-70014024D01*
X84507106Y-70050499D01*
X84507107Y-70050500D01*
X84507111Y-70050500D01*
X84832893Y-70050500D01*
X84832893Y-70050499D01*
X85156617Y-70014024D01*
X85474227Y-69941532D01*
X85781722Y-69833935D01*
X86075237Y-69692585D01*
X86351081Y-69519261D01*
X86605783Y-69316143D01*
X86836143Y-69085783D01*
X87039261Y-68831081D01*
X87212585Y-68555237D01*
X87353935Y-68261722D01*
X87461532Y-67954227D01*
X87534024Y-67636617D01*
X87570500Y-67312889D01*
X87570500Y-66987111D01*
X87534024Y-66663383D01*
X87461532Y-66345773D01*
X87385027Y-66127135D01*
X97249500Y-66127135D01*
X97249500Y-67922870D01*
X97249501Y-67922876D01*
X97255908Y-67982483D01*
X97306202Y-68117328D01*
X97306206Y-68117335D01*
X97392452Y-68232544D01*
X97392455Y-68232547D01*
X97507664Y-68318793D01*
X97507671Y-68318797D01*
X97642517Y-68369091D01*
X97642516Y-68369091D01*
X97649444Y-68369835D01*
X97702127Y-68375500D01*
X99497872Y-68375499D01*
X99557483Y-68369091D01*
X99692331Y-68318796D01*
X99807546Y-68232546D01*
X99893796Y-68117331D01*
X99942810Y-67985916D01*
X99984681Y-67929984D01*
X100050145Y-67905566D01*
X100118418Y-67920417D01*
X100146673Y-67941569D01*
X100268599Y-68063495D01*
X100365384Y-68131265D01*
X100462165Y-68199032D01*
X100462167Y-68199033D01*
X100462170Y-68199035D01*
X100676337Y-68298903D01*
X100904592Y-68360063D01*
X101081034Y-68375500D01*
X101139999Y-68380659D01*
X101140000Y-68380659D01*
X101140001Y-68380659D01*
X101198966Y-68375500D01*
X101375408Y-68360063D01*
X101603663Y-68298903D01*
X101817830Y-68199035D01*
X102011401Y-68063495D01*
X102178495Y-67896401D01*
X102308730Y-67710405D01*
X102363307Y-67666781D01*
X102432805Y-67659587D01*
X102495160Y-67691110D01*
X102511879Y-67710405D01*
X102641890Y-67896078D01*
X102808917Y-68063105D01*
X103002421Y-68198600D01*
X103216507Y-68298429D01*
X103216516Y-68298433D01*
X103430000Y-68355634D01*
X103430000Y-67458012D01*
X103487007Y-67490925D01*
X103614174Y-67525000D01*
X103745826Y-67525000D01*
X103872993Y-67490925D01*
X103930000Y-67458012D01*
X103930000Y-68355633D01*
X104143483Y-68298433D01*
X104143492Y-68298429D01*
X104357578Y-68198600D01*
X104551082Y-68063105D01*
X104718105Y-67896082D01*
X104853600Y-67702578D01*
X104953429Y-67488492D01*
X104953432Y-67488486D01*
X105010636Y-67275000D01*
X104113012Y-67275000D01*
X104145925Y-67217993D01*
X104180000Y-67090826D01*
X104180000Y-66959174D01*
X104145925Y-66832007D01*
X104113012Y-66775000D01*
X105010636Y-66775000D01*
X105010635Y-66774999D01*
X104953432Y-66561513D01*
X104953429Y-66561507D01*
X104853600Y-66347422D01*
X104853599Y-66347420D01*
X104718113Y-66153926D01*
X104718108Y-66153920D01*
X104691323Y-66127135D01*
X109783500Y-66127135D01*
X109783500Y-67922870D01*
X109783501Y-67922876D01*
X109789908Y-67982483D01*
X109840202Y-68117328D01*
X109840206Y-68117335D01*
X109926452Y-68232544D01*
X109926455Y-68232547D01*
X110041664Y-68318793D01*
X110041671Y-68318797D01*
X110176517Y-68369091D01*
X110176516Y-68369091D01*
X110183444Y-68369835D01*
X110236127Y-68375500D01*
X112031872Y-68375499D01*
X112091483Y-68369091D01*
X112226331Y-68318796D01*
X112341546Y-68232546D01*
X112427796Y-68117331D01*
X112476810Y-67985916D01*
X112518681Y-67929984D01*
X112584145Y-67905566D01*
X112652418Y-67920417D01*
X112680673Y-67941569D01*
X112802599Y-68063495D01*
X112899384Y-68131265D01*
X112996165Y-68199032D01*
X112996167Y-68199033D01*
X112996170Y-68199035D01*
X113210337Y-68298903D01*
X113438592Y-68360063D01*
X113615034Y-68375500D01*
X113673999Y-68380659D01*
X113674000Y-68380659D01*
X113674001Y-68380659D01*
X113732966Y-68375500D01*
X113909408Y-68360063D01*
X114137663Y-68298903D01*
X114351830Y-68199035D01*
X114545401Y-68063495D01*
X114712495Y-67896401D01*
X114842730Y-67710405D01*
X114897307Y-67666781D01*
X114966805Y-67659587D01*
X115029160Y-67691110D01*
X115045879Y-67710405D01*
X115175890Y-67896078D01*
X115342917Y-68063105D01*
X115536421Y-68198600D01*
X115750507Y-68298429D01*
X115750516Y-68298433D01*
X115964000Y-68355634D01*
X115964000Y-67458012D01*
X116021007Y-67490925D01*
X116148174Y-67525000D01*
X116279826Y-67525000D01*
X116406993Y-67490925D01*
X116464000Y-67458012D01*
X116464000Y-68355633D01*
X116677483Y-68298433D01*
X116677492Y-68298429D01*
X116891578Y-68198600D01*
X117085082Y-68063105D01*
X117252105Y-67896082D01*
X117387600Y-67702578D01*
X117487429Y-67488492D01*
X117487432Y-67488486D01*
X117544636Y-67275000D01*
X116647012Y-67275000D01*
X116679925Y-67217993D01*
X116714000Y-67090826D01*
X116714000Y-66959174D01*
X116679925Y-66832007D01*
X116647012Y-66775000D01*
X117544636Y-66775000D01*
X117544635Y-66774999D01*
X117487432Y-66561513D01*
X117487429Y-66561507D01*
X117387600Y-66347422D01*
X117387599Y-66347420D01*
X117252113Y-66153926D01*
X117252108Y-66153920D01*
X117225323Y-66127135D01*
X122317500Y-66127135D01*
X122317500Y-67922870D01*
X122317501Y-67922876D01*
X122323908Y-67982483D01*
X122374202Y-68117328D01*
X122374206Y-68117335D01*
X122460452Y-68232544D01*
X122460455Y-68232547D01*
X122575664Y-68318793D01*
X122575671Y-68318797D01*
X122710517Y-68369091D01*
X122710516Y-68369091D01*
X122717444Y-68369835D01*
X122770127Y-68375500D01*
X124565872Y-68375499D01*
X124625483Y-68369091D01*
X124760331Y-68318796D01*
X124875546Y-68232546D01*
X124961796Y-68117331D01*
X125010810Y-67985916D01*
X125052681Y-67929984D01*
X125118145Y-67905566D01*
X125186418Y-67920417D01*
X125214673Y-67941569D01*
X125336599Y-68063495D01*
X125433384Y-68131265D01*
X125530165Y-68199032D01*
X125530167Y-68199033D01*
X125530170Y-68199035D01*
X125744337Y-68298903D01*
X125972592Y-68360063D01*
X126149034Y-68375500D01*
X126207999Y-68380659D01*
X126208000Y-68380659D01*
X126208001Y-68380659D01*
X126266966Y-68375500D01*
X126443408Y-68360063D01*
X126671663Y-68298903D01*
X126885830Y-68199035D01*
X127079401Y-68063495D01*
X127246495Y-67896401D01*
X127376730Y-67710405D01*
X127431307Y-67666781D01*
X127500805Y-67659587D01*
X127563160Y-67691110D01*
X127579879Y-67710405D01*
X127709890Y-67896078D01*
X127876917Y-68063105D01*
X128070421Y-68198600D01*
X128284507Y-68298429D01*
X128284516Y-68298433D01*
X128498000Y-68355634D01*
X128498000Y-67458012D01*
X128555007Y-67490925D01*
X128682174Y-67525000D01*
X128813826Y-67525000D01*
X128940993Y-67490925D01*
X128998000Y-67458012D01*
X128998000Y-68355633D01*
X129211483Y-68298433D01*
X129211492Y-68298429D01*
X129425578Y-68198600D01*
X129619082Y-68063105D01*
X129786105Y-67896082D01*
X129921600Y-67702578D01*
X130021429Y-67488492D01*
X130021432Y-67488486D01*
X130078636Y-67275000D01*
X129181012Y-67275000D01*
X129213925Y-67217993D01*
X129248000Y-67090826D01*
X129248000Y-66959174D01*
X129213925Y-66832007D01*
X129181012Y-66775000D01*
X130078636Y-66775000D01*
X130078635Y-66774999D01*
X130021432Y-66561513D01*
X130021429Y-66561507D01*
X129921600Y-66347422D01*
X129921599Y-66347420D01*
X129786113Y-66153926D01*
X129786108Y-66153920D01*
X129759323Y-66127135D01*
X134851500Y-66127135D01*
X134851500Y-67922870D01*
X134851501Y-67922876D01*
X134857908Y-67982483D01*
X134908202Y-68117328D01*
X134908206Y-68117335D01*
X134994452Y-68232544D01*
X134994455Y-68232547D01*
X135109664Y-68318793D01*
X135109671Y-68318797D01*
X135244517Y-68369091D01*
X135244516Y-68369091D01*
X135251444Y-68369835D01*
X135304127Y-68375500D01*
X137099872Y-68375499D01*
X137159483Y-68369091D01*
X137294331Y-68318796D01*
X137409546Y-68232546D01*
X137495796Y-68117331D01*
X137544810Y-67985916D01*
X137586681Y-67929984D01*
X137652145Y-67905566D01*
X137720418Y-67920417D01*
X137748673Y-67941569D01*
X137870599Y-68063495D01*
X137967384Y-68131265D01*
X138064165Y-68199032D01*
X138064167Y-68199033D01*
X138064170Y-68199035D01*
X138278337Y-68298903D01*
X138506592Y-68360063D01*
X138683034Y-68375500D01*
X138741999Y-68380659D01*
X138742000Y-68380659D01*
X138742001Y-68380659D01*
X138800966Y-68375500D01*
X138977408Y-68360063D01*
X139205663Y-68298903D01*
X139419830Y-68199035D01*
X139613401Y-68063495D01*
X139780495Y-67896401D01*
X139910730Y-67710405D01*
X139965307Y-67666781D01*
X140034805Y-67659587D01*
X140097160Y-67691110D01*
X140113879Y-67710405D01*
X140243890Y-67896078D01*
X140410917Y-68063105D01*
X140604421Y-68198600D01*
X140818507Y-68298429D01*
X140818516Y-68298433D01*
X141032000Y-68355634D01*
X141032000Y-67458012D01*
X141089007Y-67490925D01*
X141216174Y-67525000D01*
X141347826Y-67525000D01*
X141474993Y-67490925D01*
X141532000Y-67458012D01*
X141532000Y-68355634D01*
X141745483Y-68298433D01*
X141745492Y-68298429D01*
X141959578Y-68198600D01*
X142153082Y-68063105D01*
X142320105Y-67896082D01*
X142455600Y-67702578D01*
X142555429Y-67488492D01*
X142555432Y-67488486D01*
X142612636Y-67275000D01*
X141715012Y-67275000D01*
X141747925Y-67217993D01*
X141782000Y-67090826D01*
X141782000Y-66959174D01*
X141747925Y-66832007D01*
X141715012Y-66775000D01*
X142612636Y-66775000D01*
X142612635Y-66774999D01*
X142555432Y-66561513D01*
X142555429Y-66561507D01*
X142455600Y-66347422D01*
X142455599Y-66347420D01*
X142320113Y-66153926D01*
X142320108Y-66153920D01*
X142293323Y-66127135D01*
X147385500Y-66127135D01*
X147385500Y-67922870D01*
X147385501Y-67922876D01*
X147391908Y-67982483D01*
X147442202Y-68117328D01*
X147442206Y-68117335D01*
X147528452Y-68232544D01*
X147528455Y-68232547D01*
X147643664Y-68318793D01*
X147643671Y-68318797D01*
X147778517Y-68369091D01*
X147778516Y-68369091D01*
X147785444Y-68369835D01*
X147838127Y-68375500D01*
X149633872Y-68375499D01*
X149693483Y-68369091D01*
X149828331Y-68318796D01*
X149943546Y-68232546D01*
X150029796Y-68117331D01*
X150078810Y-67985916D01*
X150120681Y-67929984D01*
X150186145Y-67905566D01*
X150254418Y-67920417D01*
X150282673Y-67941569D01*
X150404599Y-68063495D01*
X150501384Y-68131265D01*
X150598165Y-68199032D01*
X150598167Y-68199033D01*
X150598170Y-68199035D01*
X150812337Y-68298903D01*
X151040592Y-68360063D01*
X151217034Y-68375500D01*
X151275999Y-68380659D01*
X151276000Y-68380659D01*
X151276001Y-68380659D01*
X151334966Y-68375500D01*
X151511408Y-68360063D01*
X151739663Y-68298903D01*
X151953830Y-68199035D01*
X152147401Y-68063495D01*
X152314495Y-67896401D01*
X152444730Y-67710405D01*
X152499307Y-67666781D01*
X152568805Y-67659587D01*
X152631160Y-67691110D01*
X152647879Y-67710405D01*
X152777890Y-67896078D01*
X152944917Y-68063105D01*
X153138421Y-68198600D01*
X153352507Y-68298429D01*
X153352516Y-68298433D01*
X153566000Y-68355634D01*
X153566000Y-67458012D01*
X153623007Y-67490925D01*
X153750174Y-67525000D01*
X153881826Y-67525000D01*
X154008993Y-67490925D01*
X154066000Y-67458012D01*
X154066000Y-68355633D01*
X154279483Y-68298433D01*
X154279492Y-68298429D01*
X154493578Y-68198600D01*
X154687082Y-68063105D01*
X154854105Y-67896082D01*
X154989600Y-67702578D01*
X155089429Y-67488492D01*
X155089432Y-67488486D01*
X155146636Y-67275000D01*
X154249012Y-67275000D01*
X154281925Y-67217993D01*
X154316000Y-67090826D01*
X154316000Y-66959174D01*
X154281925Y-66832007D01*
X154249012Y-66775000D01*
X155146636Y-66775000D01*
X155146635Y-66774999D01*
X155089432Y-66561513D01*
X155089429Y-66561507D01*
X154989600Y-66347422D01*
X154989599Y-66347420D01*
X154854113Y-66153926D01*
X154854108Y-66153920D01*
X154827323Y-66127135D01*
X159919500Y-66127135D01*
X159919500Y-67922870D01*
X159919501Y-67922876D01*
X159925908Y-67982483D01*
X159976202Y-68117328D01*
X159976206Y-68117335D01*
X160062452Y-68232544D01*
X160062455Y-68232547D01*
X160177664Y-68318793D01*
X160177671Y-68318797D01*
X160312517Y-68369091D01*
X160312516Y-68369091D01*
X160319444Y-68369835D01*
X160372127Y-68375500D01*
X162167872Y-68375499D01*
X162227483Y-68369091D01*
X162362331Y-68318796D01*
X162477546Y-68232546D01*
X162563796Y-68117331D01*
X162612810Y-67985916D01*
X162654681Y-67929984D01*
X162720145Y-67905566D01*
X162788418Y-67920417D01*
X162816673Y-67941569D01*
X162938599Y-68063495D01*
X163035384Y-68131265D01*
X163132165Y-68199032D01*
X163132167Y-68199033D01*
X163132170Y-68199035D01*
X163346337Y-68298903D01*
X163574592Y-68360063D01*
X163751034Y-68375500D01*
X163809999Y-68380659D01*
X163810000Y-68380659D01*
X163810001Y-68380659D01*
X163868966Y-68375500D01*
X164045408Y-68360063D01*
X164273663Y-68298903D01*
X164487830Y-68199035D01*
X164681401Y-68063495D01*
X164848495Y-67896401D01*
X164978730Y-67710405D01*
X165033307Y-67666781D01*
X165102805Y-67659587D01*
X165165160Y-67691110D01*
X165181879Y-67710405D01*
X165311890Y-67896078D01*
X165478917Y-68063105D01*
X165672421Y-68198600D01*
X165886507Y-68298429D01*
X165886516Y-68298433D01*
X166100000Y-68355634D01*
X166100000Y-67458012D01*
X166157007Y-67490925D01*
X166284174Y-67525000D01*
X166415826Y-67525000D01*
X166542993Y-67490925D01*
X166600000Y-67458012D01*
X166600000Y-68355633D01*
X166813483Y-68298433D01*
X166813492Y-68298429D01*
X167027578Y-68198600D01*
X167221082Y-68063105D01*
X167388105Y-67896082D01*
X167523600Y-67702578D01*
X167623429Y-67488492D01*
X167623432Y-67488486D01*
X167680636Y-67275000D01*
X166783012Y-67275000D01*
X166815925Y-67217993D01*
X166850000Y-67090826D01*
X166850000Y-66987106D01*
X176319500Y-66987106D01*
X176319500Y-67312893D01*
X176355974Y-67636604D01*
X176355976Y-67636620D01*
X176428467Y-67954226D01*
X176428471Y-67954238D01*
X176536066Y-68261725D01*
X176677413Y-68555234D01*
X176677415Y-68555237D01*
X176850739Y-68831081D01*
X177053857Y-69085783D01*
X177284217Y-69316143D01*
X177538919Y-69519261D01*
X177814763Y-69692585D01*
X178108278Y-69833935D01*
X178339217Y-69914744D01*
X178415761Y-69941528D01*
X178415773Y-69941532D01*
X178733383Y-70014024D01*
X179057106Y-70050499D01*
X179057107Y-70050500D01*
X179057111Y-70050500D01*
X179382893Y-70050500D01*
X179382893Y-70050499D01*
X179706617Y-70014024D01*
X180024227Y-69941532D01*
X180331722Y-69833935D01*
X180625237Y-69692585D01*
X180901081Y-69519261D01*
X181155783Y-69316143D01*
X181386143Y-69085783D01*
X181589261Y-68831081D01*
X181762585Y-68555237D01*
X181903935Y-68261722D01*
X182011532Y-67954227D01*
X182084024Y-67636617D01*
X182120500Y-67312889D01*
X182120500Y-66987111D01*
X182084024Y-66663383D01*
X182011532Y-66345773D01*
X181903935Y-66038278D01*
X181762585Y-65744763D01*
X181589261Y-65468919D01*
X181386143Y-65214217D01*
X181155783Y-64983857D01*
X180901081Y-64780739D01*
X180625237Y-64607415D01*
X180625234Y-64607413D01*
X180331725Y-64466066D01*
X180024238Y-64358471D01*
X180024226Y-64358467D01*
X179706620Y-64285976D01*
X179706604Y-64285974D01*
X179382893Y-64249500D01*
X179382889Y-64249500D01*
X179057111Y-64249500D01*
X179057107Y-64249500D01*
X178733395Y-64285974D01*
X178733379Y-64285976D01*
X178415773Y-64358467D01*
X178415761Y-64358471D01*
X178108274Y-64466066D01*
X177814765Y-64607413D01*
X177538920Y-64780738D01*
X177284217Y-64983856D01*
X177053856Y-65214217D01*
X176850738Y-65468920D01*
X176677413Y-65744765D01*
X176536066Y-66038274D01*
X176428471Y-66345761D01*
X176428467Y-66345773D01*
X176355976Y-66663379D01*
X176355974Y-66663395D01*
X176319500Y-66987106D01*
X166850000Y-66987106D01*
X166850000Y-66959174D01*
X166815925Y-66832007D01*
X166783012Y-66775000D01*
X167680636Y-66775000D01*
X167680635Y-66774999D01*
X167623432Y-66561513D01*
X167623429Y-66561507D01*
X167523600Y-66347422D01*
X167523599Y-66347420D01*
X167388113Y-66153926D01*
X167388108Y-66153920D01*
X167221082Y-65986894D01*
X167027578Y-65851399D01*
X166813492Y-65751570D01*
X166813486Y-65751567D01*
X166600000Y-65694364D01*
X166600000Y-66591988D01*
X166542993Y-66559075D01*
X166415826Y-66525000D01*
X166284174Y-66525000D01*
X166157007Y-66559075D01*
X166100000Y-66591988D01*
X166100000Y-65694364D01*
X166099999Y-65694364D01*
X165886513Y-65751567D01*
X165886507Y-65751570D01*
X165672422Y-65851399D01*
X165672420Y-65851400D01*
X165478926Y-65986886D01*
X165478920Y-65986891D01*
X165311891Y-66153920D01*
X165311890Y-66153922D01*
X165181880Y-66339595D01*
X165127303Y-66383219D01*
X165057804Y-66390412D01*
X164995450Y-66358890D01*
X164978730Y-66339594D01*
X164848494Y-66153597D01*
X164681402Y-65986506D01*
X164681395Y-65986501D01*
X164487834Y-65850967D01*
X164487830Y-65850965D01*
X164487828Y-65850964D01*
X164273663Y-65751097D01*
X164273659Y-65751096D01*
X164273655Y-65751094D01*
X164045413Y-65689938D01*
X164045403Y-65689936D01*
X163810001Y-65669341D01*
X163809999Y-65669341D01*
X163574596Y-65689936D01*
X163574586Y-65689938D01*
X163346344Y-65751094D01*
X163346335Y-65751098D01*
X163132171Y-65850964D01*
X163132169Y-65850965D01*
X162938600Y-65986503D01*
X162816673Y-66108430D01*
X162755350Y-66141914D01*
X162685658Y-66136930D01*
X162629725Y-66095058D01*
X162612810Y-66064081D01*
X162563797Y-65932671D01*
X162563793Y-65932664D01*
X162477547Y-65817455D01*
X162477544Y-65817452D01*
X162362335Y-65731206D01*
X162362328Y-65731202D01*
X162227482Y-65680908D01*
X162227483Y-65680908D01*
X162167883Y-65674501D01*
X162167881Y-65674500D01*
X162167873Y-65674500D01*
X162167864Y-65674500D01*
X160372129Y-65674500D01*
X160372123Y-65674501D01*
X160312516Y-65680908D01*
X160177671Y-65731202D01*
X160177664Y-65731206D01*
X160062455Y-65817452D01*
X160062452Y-65817455D01*
X159976206Y-65932664D01*
X159976202Y-65932671D01*
X159925908Y-66067517D01*
X159919501Y-66127116D01*
X159919500Y-66127135D01*
X154827323Y-66127135D01*
X154687082Y-65986894D01*
X154493578Y-65851399D01*
X154279492Y-65751570D01*
X154279486Y-65751567D01*
X154066000Y-65694364D01*
X154066000Y-66591988D01*
X154008993Y-66559075D01*
X153881826Y-66525000D01*
X153750174Y-66525000D01*
X153623007Y-66559075D01*
X153566000Y-66591988D01*
X153566000Y-65694364D01*
X153565999Y-65694364D01*
X153352513Y-65751567D01*
X153352507Y-65751570D01*
X153138422Y-65851399D01*
X153138420Y-65851400D01*
X152944926Y-65986886D01*
X152944920Y-65986891D01*
X152777891Y-66153920D01*
X152777890Y-66153922D01*
X152647880Y-66339595D01*
X152593303Y-66383219D01*
X152523804Y-66390412D01*
X152461450Y-66358890D01*
X152444730Y-66339594D01*
X152314494Y-66153597D01*
X152147402Y-65986506D01*
X152147395Y-65986501D01*
X151953834Y-65850967D01*
X151953830Y-65850965D01*
X151953828Y-65850964D01*
X151739663Y-65751097D01*
X151739659Y-65751096D01*
X151739655Y-65751094D01*
X151511413Y-65689938D01*
X151511403Y-65689936D01*
X151276001Y-65669341D01*
X151275999Y-65669341D01*
X151040596Y-65689936D01*
X151040586Y-65689938D01*
X150812344Y-65751094D01*
X150812335Y-65751098D01*
X150598171Y-65850964D01*
X150598169Y-65850965D01*
X150404600Y-65986503D01*
X150282673Y-66108430D01*
X150221350Y-66141914D01*
X150151658Y-66136930D01*
X150095725Y-66095058D01*
X150078810Y-66064081D01*
X150029797Y-65932671D01*
X150029793Y-65932664D01*
X149943547Y-65817455D01*
X149943544Y-65817452D01*
X149828335Y-65731206D01*
X149828328Y-65731202D01*
X149693482Y-65680908D01*
X149693483Y-65680908D01*
X149633883Y-65674501D01*
X149633881Y-65674500D01*
X149633873Y-65674500D01*
X149633864Y-65674500D01*
X147838129Y-65674500D01*
X147838123Y-65674501D01*
X147778516Y-65680908D01*
X147643671Y-65731202D01*
X147643664Y-65731206D01*
X147528455Y-65817452D01*
X147528452Y-65817455D01*
X147442206Y-65932664D01*
X147442202Y-65932671D01*
X147391908Y-66067517D01*
X147385501Y-66127116D01*
X147385500Y-66127135D01*
X142293323Y-66127135D01*
X142153082Y-65986894D01*
X141959578Y-65851399D01*
X141745492Y-65751570D01*
X141745486Y-65751567D01*
X141532000Y-65694364D01*
X141532000Y-66591988D01*
X141474993Y-66559075D01*
X141347826Y-66525000D01*
X141216174Y-66525000D01*
X141089007Y-66559075D01*
X141032000Y-66591988D01*
X141032000Y-65694364D01*
X141031999Y-65694364D01*
X140818513Y-65751567D01*
X140818507Y-65751570D01*
X140604422Y-65851399D01*
X140604420Y-65851400D01*
X140410926Y-65986886D01*
X140410920Y-65986891D01*
X140243891Y-66153920D01*
X140243890Y-66153922D01*
X140113880Y-66339595D01*
X140059303Y-66383219D01*
X139989804Y-66390412D01*
X139927450Y-66358890D01*
X139910730Y-66339594D01*
X139780494Y-66153597D01*
X139613402Y-65986506D01*
X139613395Y-65986501D01*
X139419834Y-65850967D01*
X139419830Y-65850965D01*
X139419828Y-65850964D01*
X139205663Y-65751097D01*
X139205659Y-65751096D01*
X139205655Y-65751094D01*
X138977413Y-65689938D01*
X138977403Y-65689936D01*
X138742001Y-65669341D01*
X138741999Y-65669341D01*
X138506596Y-65689936D01*
X138506586Y-65689938D01*
X138278344Y-65751094D01*
X138278335Y-65751098D01*
X138064171Y-65850964D01*
X138064169Y-65850965D01*
X137870600Y-65986503D01*
X137748673Y-66108430D01*
X137687350Y-66141914D01*
X137617658Y-66136930D01*
X137561725Y-66095058D01*
X137544810Y-66064081D01*
X137495797Y-65932671D01*
X137495793Y-65932664D01*
X137409547Y-65817455D01*
X137409544Y-65817452D01*
X137294335Y-65731206D01*
X137294328Y-65731202D01*
X137159482Y-65680908D01*
X137159483Y-65680908D01*
X137099883Y-65674501D01*
X137099881Y-65674500D01*
X137099873Y-65674500D01*
X137099864Y-65674500D01*
X135304129Y-65674500D01*
X135304123Y-65674501D01*
X135244516Y-65680908D01*
X135109671Y-65731202D01*
X135109664Y-65731206D01*
X134994455Y-65817452D01*
X134994452Y-65817455D01*
X134908206Y-65932664D01*
X134908202Y-65932671D01*
X134857908Y-66067517D01*
X134851501Y-66127116D01*
X134851500Y-66127135D01*
X129759323Y-66127135D01*
X129619082Y-65986894D01*
X129425578Y-65851399D01*
X129211492Y-65751570D01*
X129211486Y-65751567D01*
X128998000Y-65694364D01*
X128998000Y-66591988D01*
X128940993Y-66559075D01*
X128813826Y-66525000D01*
X128682174Y-66525000D01*
X128555007Y-66559075D01*
X128498000Y-66591988D01*
X128498000Y-65694364D01*
X128497999Y-65694364D01*
X128284513Y-65751567D01*
X128284507Y-65751570D01*
X128070422Y-65851399D01*
X128070420Y-65851400D01*
X127876926Y-65986886D01*
X127876920Y-65986891D01*
X127709891Y-66153920D01*
X127709890Y-66153922D01*
X127579880Y-66339595D01*
X127525303Y-66383219D01*
X127455804Y-66390412D01*
X127393450Y-66358890D01*
X127376730Y-66339594D01*
X127246494Y-66153597D01*
X127079402Y-65986506D01*
X127079395Y-65986501D01*
X126885834Y-65850967D01*
X126885830Y-65850965D01*
X126885828Y-65850964D01*
X126671663Y-65751097D01*
X126671659Y-65751096D01*
X126671655Y-65751094D01*
X126443413Y-65689938D01*
X126443403Y-65689936D01*
X126208001Y-65669341D01*
X126207999Y-65669341D01*
X125972596Y-65689936D01*
X125972586Y-65689938D01*
X125744344Y-65751094D01*
X125744335Y-65751098D01*
X125530171Y-65850964D01*
X125530169Y-65850965D01*
X125336600Y-65986503D01*
X125214673Y-66108430D01*
X125153350Y-66141914D01*
X125083658Y-66136930D01*
X125027725Y-66095058D01*
X125010810Y-66064081D01*
X124961797Y-65932671D01*
X124961793Y-65932664D01*
X124875547Y-65817455D01*
X124875544Y-65817452D01*
X124760335Y-65731206D01*
X124760328Y-65731202D01*
X124625482Y-65680908D01*
X124625483Y-65680908D01*
X124565883Y-65674501D01*
X124565881Y-65674500D01*
X124565873Y-65674500D01*
X124565864Y-65674500D01*
X122770129Y-65674500D01*
X122770123Y-65674501D01*
X122710516Y-65680908D01*
X122575671Y-65731202D01*
X122575664Y-65731206D01*
X122460455Y-65817452D01*
X122460452Y-65817455D01*
X122374206Y-65932664D01*
X122374202Y-65932671D01*
X122323908Y-66067517D01*
X122317501Y-66127116D01*
X122317500Y-66127135D01*
X117225323Y-66127135D01*
X117085082Y-65986894D01*
X116891578Y-65851399D01*
X116677492Y-65751570D01*
X116677486Y-65751567D01*
X116464000Y-65694364D01*
X116464000Y-66591988D01*
X116406993Y-66559075D01*
X116279826Y-66525000D01*
X116148174Y-66525000D01*
X116021007Y-66559075D01*
X115964000Y-66591988D01*
X115964000Y-65694364D01*
X115963999Y-65694364D01*
X115750513Y-65751567D01*
X115750507Y-65751570D01*
X115536422Y-65851399D01*
X115536420Y-65851400D01*
X115342926Y-65986886D01*
X115342920Y-65986891D01*
X115175891Y-66153920D01*
X115175890Y-66153922D01*
X115045880Y-66339595D01*
X114991303Y-66383219D01*
X114921804Y-66390412D01*
X114859450Y-66358890D01*
X114842730Y-66339594D01*
X114712494Y-66153597D01*
X114545402Y-65986506D01*
X114545395Y-65986501D01*
X114351834Y-65850967D01*
X114351830Y-65850965D01*
X114351828Y-65850964D01*
X114137663Y-65751097D01*
X114137659Y-65751096D01*
X114137655Y-65751094D01*
X113909413Y-65689938D01*
X113909403Y-65689936D01*
X113674001Y-65669341D01*
X113673999Y-65669341D01*
X113438596Y-65689936D01*
X113438586Y-65689938D01*
X113210344Y-65751094D01*
X113210335Y-65751098D01*
X112996171Y-65850964D01*
X112996169Y-65850965D01*
X112802600Y-65986503D01*
X112680673Y-66108430D01*
X112619350Y-66141914D01*
X112549658Y-66136930D01*
X112493725Y-66095058D01*
X112476810Y-66064081D01*
X112427797Y-65932671D01*
X112427793Y-65932664D01*
X112341547Y-65817455D01*
X112341544Y-65817452D01*
X112226335Y-65731206D01*
X112226328Y-65731202D01*
X112091482Y-65680908D01*
X112091483Y-65680908D01*
X112031883Y-65674501D01*
X112031881Y-65674500D01*
X112031873Y-65674500D01*
X112031864Y-65674500D01*
X110236129Y-65674500D01*
X110236123Y-65674501D01*
X110176516Y-65680908D01*
X110041671Y-65731202D01*
X110041664Y-65731206D01*
X109926455Y-65817452D01*
X109926452Y-65817455D01*
X109840206Y-65932664D01*
X109840202Y-65932671D01*
X109789908Y-66067517D01*
X109783501Y-66127116D01*
X109783500Y-66127135D01*
X104691323Y-66127135D01*
X104551082Y-65986894D01*
X104357578Y-65851399D01*
X104143492Y-65751570D01*
X104143486Y-65751567D01*
X103930000Y-65694364D01*
X103930000Y-66591988D01*
X103872993Y-66559075D01*
X103745826Y-66525000D01*
X103614174Y-66525000D01*
X103487007Y-66559075D01*
X103430000Y-66591988D01*
X103430000Y-65694364D01*
X103429999Y-65694364D01*
X103216513Y-65751567D01*
X103216507Y-65751570D01*
X103002422Y-65851399D01*
X103002420Y-65851400D01*
X102808926Y-65986886D01*
X102808920Y-65986891D01*
X102641891Y-66153920D01*
X102641890Y-66153922D01*
X102511880Y-66339595D01*
X102457303Y-66383219D01*
X102387804Y-66390412D01*
X102325450Y-66358890D01*
X102308730Y-66339594D01*
X102178494Y-66153597D01*
X102011402Y-65986506D01*
X102011395Y-65986501D01*
X101817834Y-65850967D01*
X101817830Y-65850965D01*
X101817828Y-65850964D01*
X101603663Y-65751097D01*
X101603659Y-65751096D01*
X101603655Y-65751094D01*
X101375413Y-65689938D01*
X101375403Y-65689936D01*
X101140001Y-65669341D01*
X101139999Y-65669341D01*
X100904596Y-65689936D01*
X100904586Y-65689938D01*
X100676344Y-65751094D01*
X100676335Y-65751098D01*
X100462171Y-65850964D01*
X100462169Y-65850965D01*
X100268600Y-65986503D01*
X100146673Y-66108430D01*
X100085350Y-66141914D01*
X100015658Y-66136930D01*
X99959725Y-66095058D01*
X99942810Y-66064081D01*
X99893797Y-65932671D01*
X99893793Y-65932664D01*
X99807547Y-65817455D01*
X99807544Y-65817452D01*
X99692335Y-65731206D01*
X99692328Y-65731202D01*
X99557482Y-65680908D01*
X99557483Y-65680908D01*
X99497883Y-65674501D01*
X99497881Y-65674500D01*
X99497873Y-65674500D01*
X99497864Y-65674500D01*
X97702129Y-65674500D01*
X97702123Y-65674501D01*
X97642516Y-65680908D01*
X97507671Y-65731202D01*
X97507664Y-65731206D01*
X97392455Y-65817452D01*
X97392452Y-65817455D01*
X97306206Y-65932664D01*
X97306202Y-65932671D01*
X97255908Y-66067517D01*
X97249501Y-66127116D01*
X97249500Y-66127135D01*
X87385027Y-66127135D01*
X87353935Y-66038278D01*
X87212585Y-65744763D01*
X87039261Y-65468919D01*
X86836143Y-65214217D01*
X86605783Y-64983857D01*
X86351081Y-64780739D01*
X86075237Y-64607415D01*
X86075234Y-64607413D01*
X85781725Y-64466066D01*
X85474238Y-64358471D01*
X85474226Y-64358467D01*
X85156620Y-64285976D01*
X85156604Y-64285974D01*
X84832893Y-64249500D01*
X84832889Y-64249500D01*
X84507111Y-64249500D01*
X84507107Y-64249500D01*
X84183395Y-64285974D01*
X84183379Y-64285976D01*
X83865773Y-64358467D01*
X83865761Y-64358471D01*
X83558274Y-64466066D01*
X83264765Y-64607413D01*
X82988920Y-64780738D01*
X82734217Y-64983856D01*
X82503856Y-65214217D01*
X82300738Y-65468920D01*
X82127413Y-65744765D01*
X81986066Y-66038274D01*
X81878471Y-66345761D01*
X81878467Y-66345773D01*
X81805976Y-66663379D01*
X81805974Y-66663395D01*
X81769500Y-66987106D01*
X70050500Y-66987106D01*
X70050500Y-59058675D01*
X70070185Y-58991636D01*
X70086819Y-58970994D01*
X73720994Y-55336819D01*
X73782317Y-55303334D01*
X73808675Y-55300500D01*
X187541324Y-55300500D01*
X187608363Y-55320185D01*
G37*
%TD.AperFunction*%
%TD*%
M02*
