%TF.GenerationSoftware,KiCad,Pcbnew,8.0.9*%
%TF.CreationDate,2025-04-18T23:28:22-04:00*%
%TF.ProjectId,NathanHuang_Sp25_1,4e617468-616e-4487-9561-6e675f537032,rev?*%
%TF.SameCoordinates,Original*%
%TF.FileFunction,Soldermask,Bot*%
%TF.FilePolarity,Negative*%
%FSLAX46Y46*%
G04 Gerber Fmt 4.6, Leading zero omitted, Abs format (unit mm)*
G04 Created by KiCad (PCBNEW 8.0.9) date 2025-04-18 23:28:22*
%MOMM*%
%LPD*%
G01*
G04 APERTURE LIST*
%ADD10R,1.700000X1.700000*%
%ADD11O,1.700000X1.700000*%
%ADD12C,5.300000*%
%ADD13R,1.600000X1.600000*%
%ADD14O,1.600000X1.600000*%
%ADD15C,1.524000*%
%ADD16R,1.200000X1.200000*%
%ADD17C,1.200000*%
%ADD18R,2.020000X5.020000*%
%ADD19O,2.020000X5.020000*%
%ADD20R,2.540000X2.540000*%
%ADD21C,2.540000*%
G04 APERTURE END LIST*
D10*
%TO.C,M2*%
X111449142Y-67025000D03*
D11*
X113989142Y-67025000D03*
X116529142Y-67025000D03*
%TD*%
D12*
%TO.C,H4*%
X179220000Y-137150000D03*
%TD*%
D13*
%TO.C,U3*%
X102230000Y-77635000D03*
D14*
X102230000Y-80175000D03*
X102230000Y-82715000D03*
X102230000Y-85255000D03*
X102230000Y-87795000D03*
X102230000Y-90335000D03*
X102230000Y-92875000D03*
X102230000Y-95415000D03*
X114930000Y-95415000D03*
X114930000Y-92875000D03*
X114930000Y-90335000D03*
X114930000Y-87795000D03*
X114930000Y-85255000D03*
X114930000Y-82715000D03*
X114930000Y-80175000D03*
X114930000Y-77635000D03*
%TD*%
D12*
%TO.C,H3*%
X179220000Y-67150000D03*
%TD*%
D15*
%TO.C,U1*%
X140565000Y-112650000D03*
X143105000Y-112650000D03*
X145645000Y-112650000D03*
X148185000Y-112650000D03*
X150725000Y-112650000D03*
X153265000Y-112650000D03*
X155805000Y-112650000D03*
X158345000Y-112650000D03*
X160885000Y-112650000D03*
X163425000Y-112650000D03*
X165965000Y-112650000D03*
X168505000Y-112650000D03*
X171045000Y-112650000D03*
X173585000Y-112650000D03*
X176125000Y-112650000D03*
X140565000Y-87250000D03*
X143105000Y-87250000D03*
X145645000Y-87250000D03*
X148185000Y-87250000D03*
X150725000Y-87250000D03*
X153265000Y-87250000D03*
X155805000Y-87250000D03*
X158345000Y-87250000D03*
X160885000Y-87250000D03*
X163425000Y-87250000D03*
X165965000Y-87250000D03*
X168505000Y-87250000D03*
X171045000Y-87250000D03*
X173585000Y-87250000D03*
X176125000Y-87250000D03*
%TD*%
D10*
%TO.C,SW1*%
X183360000Y-76325000D03*
D11*
X185900000Y-76325000D03*
%TD*%
D10*
%TO.C,U4*%
X185900000Y-127830000D03*
D11*
X185900000Y-125290000D03*
X185900000Y-122750000D03*
X185900000Y-120210000D03*
%TD*%
D10*
%TO.C,M1*%
X98600000Y-67025000D03*
D11*
X101140000Y-67025000D03*
X103680000Y-67025000D03*
%TD*%
D16*
%TO.C,C1*%
X94122600Y-124700000D03*
D17*
X92622600Y-124700000D03*
%TD*%
D10*
%TO.C,SW2*%
X183360000Y-80225000D03*
D11*
X185900000Y-80225000D03*
%TD*%
D18*
%TO.C,J1*%
X94285000Y-110850000D03*
D19*
X89105000Y-110850000D03*
%TD*%
D20*
%TO.C,U2*%
X102275000Y-124760000D03*
D21*
X102275000Y-142540000D03*
X142915000Y-142540000D03*
X142915000Y-124760000D03*
%TD*%
D12*
%TO.C,H1*%
X84670000Y-137150000D03*
%TD*%
D10*
%TO.C,M5*%
X149115140Y-67025000D03*
D11*
X151655140Y-67025000D03*
X154195140Y-67025000D03*
%TD*%
D10*
%TO.C,M6*%
X161523572Y-67025000D03*
D11*
X164063572Y-67025000D03*
X166603572Y-67025000D03*
%TD*%
D10*
%TO.C,M3*%
X124298284Y-67025000D03*
D11*
X126838284Y-67025000D03*
X129378284Y-67025000D03*
%TD*%
D10*
%TO.C,M4*%
X136706712Y-67025000D03*
D11*
X139246712Y-67025000D03*
X141786712Y-67025000D03*
%TD*%
D10*
%TO.C,M7*%
X83620000Y-90375000D03*
D11*
X83620000Y-87835000D03*
X83620000Y-85295000D03*
X83620000Y-82755000D03*
%TD*%
D12*
%TO.C,H2*%
X84670000Y-67150000D03*
%TD*%
M02*
