M48
; DRILL file {KiCad 8.0.9} date 2025-04-18T23:28:26-0400
; FORMAT={-:-/ absolute / inch / decimal}
; #@! TF.CreationDate,2025-04-18T23:28:26-04:00
; #@! TF.GenerationSoftware,Kicad,Pcbnew,8.0.9
; #@! TF.FileFunction,Plated,1,2,PTH
FMAT,2
INCH
; #@! TA.AperFunction,Plated,PTH,ViaDrill
T1C0.0197
; #@! TA.AperFunction,Plated,PTH,ComponentDrill
T2C0.0236
; #@! TA.AperFunction,Plated,PTH,ComponentDrill
T3C0.0300
; #@! TA.AperFunction,Plated,PTH,ComponentDrill
T4C0.0315
; #@! TA.AperFunction,Plated,PTH,ComponentDrill
T5C0.0394
; #@! TA.AperFunction,Plated,PTH,ComponentDrill
T6C0.0402
%
G90
G05
T1
X4.8937Y-2.7372
X4.8957Y-2.5177
T2
X3.6466Y-4.9094
X3.7056Y-4.9094
T3
X5.5341Y-3.435
X5.5341Y-4.435
X5.6341Y-3.435
X5.6341Y-4.435
X5.7341Y-3.435
X5.7341Y-4.435
X5.8341Y-3.435
X5.8341Y-4.435
X5.9341Y-3.435
X5.9341Y-4.435
X6.0341Y-3.435
X6.0341Y-4.435
X6.1341Y-3.435
X6.1341Y-4.435
X6.2341Y-3.435
X6.2341Y-4.435
X6.3341Y-3.435
X6.3341Y-4.435
X6.4341Y-3.435
X6.4341Y-4.435
X6.5341Y-3.435
X6.5341Y-4.435
X6.6341Y-3.435
X6.6341Y-4.435
X6.7341Y-3.435
X6.7341Y-4.435
X6.8341Y-3.435
X6.8341Y-4.435
X6.9341Y-3.435
X6.9341Y-4.435
T4
X4.0248Y-3.0565
X4.0248Y-3.1565
X4.0248Y-3.2565
X4.0248Y-3.3565
X4.0248Y-3.4565
X4.0248Y-3.5565
X4.0248Y-3.6565
X4.0248Y-3.7565
X4.5248Y-3.0565
X4.5248Y-3.1565
X4.5248Y-3.2565
X4.5248Y-3.3565
X4.5248Y-3.4565
X4.5248Y-3.5565
X4.5248Y-3.6565
X4.5248Y-3.7565
T5
X3.2921Y-3.2581
X3.2921Y-3.3581
X3.2921Y-3.4581
X3.2921Y-3.5581
X3.8819Y-2.6388
X3.9819Y-2.6388
X4.0266Y-4.9118
X4.0266Y-5.6118
X4.0819Y-2.6388
X4.3878Y-2.6388
X4.4878Y-2.6388
X4.5878Y-2.6388
X4.8936Y-2.6388
X4.9936Y-2.6388
X5.0936Y-2.6388
X5.3822Y-2.6388
X5.4822Y-2.6388
X5.5822Y-2.6388
X5.6266Y-4.9118
X5.6266Y-5.6118
X5.8707Y-2.6388
X5.9707Y-2.6388
X6.0707Y-2.6388
X6.3592Y-2.6388
X6.4592Y-2.6388
X6.5592Y-2.6388
X7.2189Y-3.0049
X7.2189Y-3.1585
X7.3189Y-3.0049
X7.3189Y-3.1585
X7.3189Y-4.7327
X7.3189Y-4.8327
X7.3189Y-4.9327
X7.3189Y-5.0327
T6
G00X3.5081Y-4.3051
M15
G01X3.5081Y-4.4232
M16
G05
G00X3.712Y-4.3051
M15
G01X3.712Y-4.4232
M16
G05
M30
