%TF.GenerationSoftware,KiCad,Pcbnew,9.0.4*%
%TF.CreationDate,2025-11-20T23:01:34-05:00*%
%TF.ProjectId,Hand_System_Rev_1,48616e64-5f53-4797-9374-656d5f526576,rev?*%
%TF.SameCoordinates,Original*%
%TF.FileFunction,Soldermask,Top*%
%TF.FilePolarity,Negative*%
%FSLAX46Y46*%
G04 Gerber Fmt 4.6, Leading zero omitted, Abs format (unit mm)*
G04 Created by KiCad (PCBNEW 9.0.4) date 2025-11-20 23:01:34*
%MOMM*%
%LPD*%
G01*
G04 APERTURE LIST*
G04 Aperture macros list*
%AMRoundRect*
0 Rectangle with rounded corners*
0 $1 Rounding radius*
0 $2 $3 $4 $5 $6 $7 $8 $9 X,Y pos of 4 corners*
0 Add a 4 corners polygon primitive as box body*
4,1,4,$2,$3,$4,$5,$6,$7,$8,$9,$2,$3,0*
0 Add four circle primitives for the rounded corners*
1,1,$1+$1,$2,$3*
1,1,$1+$1,$4,$5*
1,1,$1+$1,$6,$7*
1,1,$1+$1,$8,$9*
0 Add four rect primitives between the rounded corners*
20,1,$1+$1,$2,$3,$4,$5,0*
20,1,$1+$1,$4,$5,$6,$7,0*
20,1,$1+$1,$6,$7,$8,$9,0*
20,1,$1+$1,$8,$9,$2,$3,0*%
G04 Aperture macros list end*
%ADD10R,1.700000X1.700000*%
%ADD11C,1.700000*%
%ADD12RoundRect,0.250000X-0.450000X0.262500X-0.450000X-0.262500X0.450000X-0.262500X0.450000X0.262500X0*%
%ADD13RoundRect,0.250000X-0.475000X0.250000X-0.475000X-0.250000X0.475000X-0.250000X0.475000X0.250000X0*%
%ADD14R,2.020000X5.020000*%
%ADD15O,2.020000X5.020000*%
%ADD16C,4.300000*%
%ADD17RoundRect,0.250000X0.475000X-0.250000X0.475000X0.250000X-0.475000X0.250000X-0.475000X-0.250000X0*%
%ADD18RoundRect,0.027500X-0.082500X0.352500X-0.082500X-0.352500X0.082500X-0.352500X0.082500X0.352500X0*%
%ADD19R,2.300000X1.700000*%
%ADD20RoundRect,0.250000X0.450000X-0.262500X0.450000X0.262500X-0.450000X0.262500X-0.450000X-0.262500X0*%
%ADD21R,1.600000X1.600000*%
%ADD22O,1.600000X1.600000*%
%ADD23RoundRect,0.250000X-0.250000X0.250000X-0.250000X-0.250000X0.250000X-0.250000X0.250000X0.250000X0*%
%ADD24C,1.000000*%
%ADD25RoundRect,0.250000X-0.250000X-0.475000X0.250000X-0.475000X0.250000X0.475000X-0.250000X0.475000X0*%
%ADD26RoundRect,0.102000X-0.765000X0.765000X-0.765000X-0.765000X0.765000X-0.765000X0.765000X0.765000X0*%
%ADD27C,1.734000*%
%ADD28R,2.540000X2.540000*%
%ADD29C,2.540000*%
%ADD30RoundRect,0.250000X0.250000X0.475000X-0.250000X0.475000X-0.250000X-0.475000X0.250000X-0.475000X0*%
G04 APERTURE END LIST*
D10*
%TO.C,M5*%
X151765000Y-57785000D03*
D11*
X151765000Y-60325000D03*
X151765000Y-62865000D03*
%TD*%
D12*
%TO.C,R3*%
X159385000Y-52347500D03*
X159385000Y-50522500D03*
%TD*%
D10*
%TO.C,M4*%
X159385000Y-57785000D03*
D11*
X159385000Y-60325000D03*
X159385000Y-62865000D03*
%TD*%
D12*
%TO.C,R8*%
X187325000Y-50522500D03*
X187325000Y-52347500D03*
%TD*%
%TO.C,R7*%
X180975000Y-50522500D03*
X180975000Y-52347500D03*
%TD*%
%TO.C,R6*%
X167005000Y-50522500D03*
X167005000Y-52347500D03*
%TD*%
%TO.C,R5*%
X174625000Y-50522500D03*
X174625000Y-52347500D03*
%TD*%
%TO.C,R4*%
X151765000Y-50522500D03*
X151765000Y-52347500D03*
%TD*%
D13*
%TO.C,C7*%
X168482000Y-114448000D03*
X168482000Y-116348000D03*
%TD*%
D10*
%TO.C,U4*%
X184992000Y-107524000D03*
D11*
X187532000Y-107524000D03*
X190072000Y-107524000D03*
X192612000Y-107524000D03*
%TD*%
D14*
%TO.C,J1*%
X111468000Y-99020000D03*
D15*
X106288000Y-99020000D03*
%TD*%
D16*
%TO.C,H4*%
X196750000Y-128000000D03*
%TD*%
D17*
%TO.C,C5*%
X180674000Y-117364000D03*
X180674000Y-115464000D03*
%TD*%
D16*
%TO.C,H1*%
X196500000Y-55850000D03*
%TD*%
D18*
%TO.C,U5*%
X175423000Y-116775000D03*
X175023000Y-116775000D03*
X174623000Y-116775000D03*
X174223000Y-116775000D03*
X173823000Y-116775000D03*
X173423000Y-116775000D03*
X173023000Y-116775000D03*
X173023000Y-119745000D03*
X173423000Y-119745000D03*
X173823000Y-119745000D03*
X174223000Y-119745000D03*
X174623000Y-119745000D03*
X175023000Y-119745000D03*
X175423000Y-119745000D03*
D19*
X174223000Y-118260000D03*
%TD*%
D20*
%TO.C,R2*%
X185246000Y-117430000D03*
X185246000Y-115605000D03*
%TD*%
D21*
%TO.C,U3*%
X133684000Y-106000000D03*
D22*
X133684000Y-108540000D03*
X133684000Y-111080000D03*
X133684000Y-113620000D03*
X133684000Y-116160000D03*
X133684000Y-118700000D03*
X133684000Y-121240000D03*
X133684000Y-123780000D03*
X146384000Y-123780000D03*
X146384000Y-121240000D03*
X146384000Y-118700000D03*
X146384000Y-116160000D03*
X146384000Y-113620000D03*
X146384000Y-111080000D03*
X146384000Y-108540000D03*
X146384000Y-106000000D03*
%TD*%
D10*
%TO.C,M3*%
X167005000Y-57785000D03*
D11*
X167005000Y-60325000D03*
X167005000Y-62865000D03*
%TD*%
D20*
%TO.C,R1*%
X179150000Y-121898500D03*
X179150000Y-120073500D03*
%TD*%
D10*
%TO.C,M7*%
X125556000Y-118700000D03*
D11*
X125556000Y-116160000D03*
X125556000Y-113620000D03*
X125556000Y-111080000D03*
%TD*%
D10*
%TO.C,M1*%
X187325000Y-57785000D03*
D11*
X187325000Y-60325000D03*
X187325000Y-62865000D03*
%TD*%
D23*
%TO.C,MK1*%
X195406000Y-113620000D03*
D24*
X195406000Y-115520000D03*
%TD*%
D25*
%TO.C,C4*%
X173054000Y-124542000D03*
X174954000Y-124542000D03*
%TD*%
D10*
%TO.C,M2*%
X180975000Y-57785000D03*
D11*
X180975000Y-60325000D03*
X180975000Y-62865000D03*
%TD*%
D10*
%TO.C,M6*%
X174625000Y-57785000D03*
D11*
X174625000Y-60325000D03*
X174625000Y-62865000D03*
%TD*%
D17*
%TO.C,C2*%
X116666000Y-107712000D03*
X116666000Y-105812000D03*
%TD*%
D16*
%TO.C,H3*%
X101680000Y-127590000D03*
%TD*%
D26*
%TO.C,U1*%
X192104000Y-75774000D03*
D27*
X189564000Y-75774000D03*
X187024000Y-75774000D03*
X184484000Y-75774000D03*
X181944000Y-75774000D03*
X179404000Y-75774000D03*
X176864000Y-75774000D03*
X174324000Y-75774000D03*
X171784000Y-75774000D03*
X169244000Y-75774000D03*
X166704000Y-75774000D03*
X164164000Y-75774000D03*
X161624000Y-75774000D03*
X159084000Y-75774000D03*
X156544000Y-75774000D03*
X154004000Y-75774000D03*
X151464000Y-75774000D03*
X148924000Y-75774000D03*
X146384000Y-75774000D03*
X146384000Y-101174000D03*
X148924000Y-101174000D03*
X151464000Y-101174000D03*
X154004000Y-101174000D03*
X156544000Y-101174000D03*
X159084000Y-101174000D03*
X161624000Y-101174000D03*
X164164000Y-101174000D03*
X166704000Y-101174000D03*
X169244000Y-101174000D03*
X171784000Y-101174000D03*
X174324000Y-101174000D03*
X176864000Y-101174000D03*
X179404000Y-101174000D03*
X181944000Y-101174000D03*
X184484000Y-101174000D03*
X187024000Y-101174000D03*
X189564000Y-101174000D03*
X192104000Y-101174000D03*
%TD*%
D28*
%TO.C,U2*%
X99950000Y-66270000D03*
D29*
X99950000Y-84050000D03*
X140590000Y-84050000D03*
X140590000Y-66270000D03*
%TD*%
D16*
%TO.C,H2*%
X101745732Y-55879828D03*
%TD*%
D25*
%TO.C,C6*%
X172800000Y-112900000D03*
X174700000Y-112900000D03*
%TD*%
D30*
%TO.C,C3*%
X175020000Y-127082000D03*
X173120000Y-127082000D03*
%TD*%
D17*
%TO.C,C1*%
X114158000Y-107712000D03*
X114158000Y-105812000D03*
%TD*%
M02*
