M48
; DRILL file {KiCad 9.0.4} date 2025-12-11T18:30:28-0500
; FORMAT={-:-/ absolute / metric / decimal}
; #@! TF.CreationDate,2025-12-11T18:30:28-05:00
; #@! TF.GenerationSoftware,Kicad,Pcbnew,9.0.4
; #@! TF.FileFunction,Plated,1,2,PTH
FMAT,2
METRIC
; #@! TA.AperFunction,Plated,PTH,ViaDrill
T1C0.300
; #@! TA.AperFunction,Plated,PTH,ComponentDrill
T2C0.650
; #@! TA.AperFunction,Plated,PTH,ComponentDrill
T3C0.800
; #@! TA.AperFunction,Plated,PTH,ComponentDrill
T4C1.000
; #@! TA.AperFunction,Plated,PTH,ComponentDrill
T5C1.020
%
G90
G05
T1
X171.784Y-115.398
X173.816Y-122.6
X178.134Y-108.54
T2
X195.406Y-113.62
X195.406Y-115.52
T3
X133.684Y-106.0
X133.684Y-108.54
X133.684Y-111.08
X133.684Y-113.62
X133.684Y-116.16
X133.684Y-118.7
X133.684Y-121.24
X133.684Y-123.78
X146.384Y-106.0
X146.384Y-108.54
X146.384Y-111.08
X146.384Y-113.62
X146.384Y-116.16
X146.384Y-118.7
X146.384Y-121.24
X146.384Y-123.78
T4
X99.95Y-66.27
X99.95Y-84.05
X125.556Y-111.08
X125.556Y-113.62
X125.556Y-116.16
X125.556Y-118.7
X140.59Y-66.27
X140.59Y-84.05
X151.765Y-57.785
X151.765Y-60.325
X151.765Y-62.865
X159.385Y-57.785
X159.385Y-60.325
X159.385Y-62.865
X167.005Y-57.785
X167.005Y-60.325
X167.005Y-62.865
X174.625Y-57.785
X174.625Y-60.325
X174.625Y-62.865
X180.975Y-57.785
X180.975Y-60.325
X180.975Y-62.865
X184.992Y-107.524
X187.325Y-57.785
X187.325Y-60.325
X187.325Y-62.865
X187.532Y-107.524
X190.072Y-107.524
X192.612Y-107.524
T5
X146.384Y-75.774
X146.384Y-101.174
X148.924Y-75.774
X148.924Y-101.174
X151.464Y-75.774
X151.464Y-101.174
X154.004Y-75.774
X154.004Y-101.174
X156.544Y-75.774
X156.544Y-101.174
X159.084Y-75.774
X159.084Y-101.174
X161.624Y-75.774
X161.624Y-101.174
X164.164Y-75.774
X164.164Y-101.174
X166.704Y-75.774
X166.704Y-101.174
X169.244Y-75.774
X169.244Y-101.174
X171.784Y-75.774
X171.784Y-101.174
X174.324Y-75.774
X174.324Y-101.174
X176.864Y-75.774
X176.864Y-101.174
X179.404Y-75.774
X179.404Y-101.174
X181.944Y-75.774
X181.944Y-101.174
X184.484Y-75.774
X184.484Y-101.174
X187.024Y-75.774
X187.024Y-101.174
X189.564Y-75.774
X189.564Y-101.174
X192.104Y-75.774
X192.104Y-101.174
T5
G00X106.288Y-97.52
M15
G01X106.288Y-100.52
M16
G05
G00X111.468Y-97.52
M15
G01X111.468Y-100.52
M16
G05
M30
