%TF.GenerationSoftware,KiCad,Pcbnew,9.0.4*%
%TF.CreationDate,2025-11-20T23:00:25-05:00*%
%TF.ProjectId,Hand_System_Rev_1,48616e64-5f53-4797-9374-656d5f526576,rev?*%
%TF.SameCoordinates,Original*%
%TF.FileFunction,Plated,1,2,PTH,Mixed*%
%TF.FilePolarity,Positive*%
%FSLAX46Y46*%
G04 Gerber Fmt 4.6, Leading zero omitted, Abs format (unit mm)*
G04 Created by KiCad (PCBNEW 9.0.4) date 2025-11-20 23:00:25*
%MOMM*%
%LPD*%
G01*
G04 APERTURE LIST*
%TA.AperFunction,ViaDrill*%
%ADD10C,0.300000*%
%TD*%
%TA.AperFunction,ComponentDrill*%
%ADD11C,0.650000*%
%TD*%
%TA.AperFunction,ComponentDrill*%
%ADD12C,0.800000*%
%TD*%
%TA.AperFunction,ComponentDrill*%
%ADD13C,1.000000*%
%TD*%
G04 aperture for slot hole*
%TA.AperFunction,ComponentDrill*%
%ADD14C,1.020000*%
%TD*%
%TA.AperFunction,ComponentDrill*%
%ADD15C,1.020000*%
%TD*%
G04 APERTURE END LIST*
D10*
X171784000Y-115398000D03*
X173816000Y-122600000D03*
X178134000Y-108540000D03*
D11*
%TO.C,MK1*%
X195406000Y-113620000D03*
X195406000Y-115520000D03*
D12*
%TO.C,U3*%
X133684000Y-106000000D03*
X133684000Y-108540000D03*
X133684000Y-111080000D03*
X133684000Y-113620000D03*
X133684000Y-116160000D03*
X133684000Y-118700000D03*
X133684000Y-121240000D03*
X133684000Y-123780000D03*
X146384000Y-106000000D03*
X146384000Y-108540000D03*
X146384000Y-111080000D03*
X146384000Y-113620000D03*
X146384000Y-116160000D03*
X146384000Y-118700000D03*
X146384000Y-121240000D03*
X146384000Y-123780000D03*
D13*
%TO.C,U2*%
X99950000Y-66270000D03*
X99950000Y-84050000D03*
%TO.C,M7*%
X125556000Y-111080000D03*
X125556000Y-113620000D03*
X125556000Y-116160000D03*
X125556000Y-118700000D03*
%TO.C,U2*%
X140590000Y-66270000D03*
X140590000Y-84050000D03*
%TO.C,M5*%
X151765000Y-57785000D03*
X151765000Y-60325000D03*
X151765000Y-62865000D03*
%TO.C,M4*%
X159385000Y-57785000D03*
X159385000Y-60325000D03*
X159385000Y-62865000D03*
%TO.C,M3*%
X167005000Y-57785000D03*
X167005000Y-60325000D03*
X167005000Y-62865000D03*
%TO.C,M6*%
X174625000Y-57785000D03*
X174625000Y-60325000D03*
X174625000Y-62865000D03*
%TO.C,M2*%
X180975000Y-57785000D03*
X180975000Y-60325000D03*
X180975000Y-62865000D03*
%TO.C,U4*%
X184992000Y-107524000D03*
%TO.C,M1*%
X187325000Y-57785000D03*
X187325000Y-60325000D03*
X187325000Y-62865000D03*
%TO.C,U4*%
X187532000Y-107524000D03*
X190072000Y-107524000D03*
X192612000Y-107524000D03*
D14*
%TO.C,J1*%
X106288000Y-100520000D02*
X106288000Y-97520000D01*
X111468000Y-100520000D02*
X111468000Y-97520000D01*
D15*
%TO.C,U1*%
X146384000Y-75774000D03*
X146384000Y-101174000D03*
X148924000Y-75774000D03*
X148924000Y-101174000D03*
X151464000Y-75774000D03*
X151464000Y-101174000D03*
X154004000Y-75774000D03*
X154004000Y-101174000D03*
X156544000Y-75774000D03*
X156544000Y-101174000D03*
X159084000Y-75774000D03*
X159084000Y-101174000D03*
X161624000Y-75774000D03*
X161624000Y-101174000D03*
X164164000Y-75774000D03*
X164164000Y-101174000D03*
X166704000Y-75774000D03*
X166704000Y-101174000D03*
X169244000Y-75774000D03*
X169244000Y-101174000D03*
X171784000Y-75774000D03*
X171784000Y-101174000D03*
X174324000Y-75774000D03*
X174324000Y-101174000D03*
X176864000Y-75774000D03*
X176864000Y-101174000D03*
X179404000Y-75774000D03*
X179404000Y-101174000D03*
X181944000Y-75774000D03*
X181944000Y-101174000D03*
X184484000Y-75774000D03*
X184484000Y-101174000D03*
X187024000Y-75774000D03*
X187024000Y-101174000D03*
X189564000Y-75774000D03*
X189564000Y-101174000D03*
X192104000Y-75774000D03*
X192104000Y-101174000D03*
M02*
