%TF.GenerationSoftware,KiCad,Pcbnew,9.0.4*%
%TF.CreationDate,2025-11-20T23:01:34-05:00*%
%TF.ProjectId,Hand_System_Rev_1,48616e64-5f53-4797-9374-656d5f526576,rev?*%
%TF.SameCoordinates,Original*%
%TF.FileFunction,Legend,Top*%
%TF.FilePolarity,Positive*%
%FSLAX46Y46*%
G04 Gerber Fmt 4.6, Leading zero omitted, Abs format (unit mm)*
G04 Created by KiCad (PCBNEW 9.0.4) date 2025-11-20 23:01:34*
%MOMM*%
%LPD*%
G01*
G04 APERTURE LIST*
%ADD10C,0.100000*%
%ADD11C,0.150000*%
%ADD12C,0.080000*%
%ADD13C,0.120000*%
%ADD14C,0.127000*%
%ADD15C,0.200000*%
G04 APERTURE END LIST*
D10*
X110158884Y-135127419D02*
X110158884Y-134127419D01*
X110158884Y-134127419D02*
X110539836Y-134127419D01*
X110539836Y-134127419D02*
X110635074Y-134175038D01*
X110635074Y-134175038D02*
X110682693Y-134222657D01*
X110682693Y-134222657D02*
X110730312Y-134317895D01*
X110730312Y-134317895D02*
X110730312Y-134460752D01*
X110730312Y-134460752D02*
X110682693Y-134555990D01*
X110682693Y-134555990D02*
X110635074Y-134603609D01*
X110635074Y-134603609D02*
X110539836Y-134651228D01*
X110539836Y-134651228D02*
X110158884Y-134651228D01*
X111587455Y-134460752D02*
X111587455Y-135127419D01*
X111158884Y-134460752D02*
X111158884Y-134984561D01*
X111158884Y-134984561D02*
X111206503Y-135079800D01*
X111206503Y-135079800D02*
X111301741Y-135127419D01*
X111301741Y-135127419D02*
X111444598Y-135127419D01*
X111444598Y-135127419D02*
X111539836Y-135079800D01*
X111539836Y-135079800D02*
X111587455Y-135032180D01*
X112063646Y-135127419D02*
X112063646Y-134460752D01*
X112063646Y-134651228D02*
X112111265Y-134555990D01*
X112111265Y-134555990D02*
X112158884Y-134508371D01*
X112158884Y-134508371D02*
X112254122Y-134460752D01*
X112254122Y-134460752D02*
X112349360Y-134460752D01*
X113111265Y-135127419D02*
X113111265Y-134127419D01*
X113111265Y-135079800D02*
X113016027Y-135127419D01*
X113016027Y-135127419D02*
X112825551Y-135127419D01*
X112825551Y-135127419D02*
X112730313Y-135079800D01*
X112730313Y-135079800D02*
X112682694Y-135032180D01*
X112682694Y-135032180D02*
X112635075Y-134936942D01*
X112635075Y-134936942D02*
X112635075Y-134651228D01*
X112635075Y-134651228D02*
X112682694Y-134555990D01*
X112682694Y-134555990D02*
X112730313Y-134508371D01*
X112730313Y-134508371D02*
X112825551Y-134460752D01*
X112825551Y-134460752D02*
X113016027Y-134460752D01*
X113016027Y-134460752D02*
X113111265Y-134508371D01*
X114016027Y-134460752D02*
X114016027Y-135127419D01*
X113587456Y-134460752D02*
X113587456Y-134984561D01*
X113587456Y-134984561D02*
X113635075Y-135079800D01*
X113635075Y-135079800D02*
X113730313Y-135127419D01*
X113730313Y-135127419D02*
X113873170Y-135127419D01*
X113873170Y-135127419D02*
X113968408Y-135079800D01*
X113968408Y-135079800D02*
X114016027Y-135032180D01*
X114873170Y-135079800D02*
X114777932Y-135127419D01*
X114777932Y-135127419D02*
X114587456Y-135127419D01*
X114587456Y-135127419D02*
X114492218Y-135079800D01*
X114492218Y-135079800D02*
X114444599Y-134984561D01*
X114444599Y-134984561D02*
X114444599Y-134603609D01*
X114444599Y-134603609D02*
X114492218Y-134508371D01*
X114492218Y-134508371D02*
X114587456Y-134460752D01*
X114587456Y-134460752D02*
X114777932Y-134460752D01*
X114777932Y-134460752D02*
X114873170Y-134508371D01*
X114873170Y-134508371D02*
X114920789Y-134603609D01*
X114920789Y-134603609D02*
X114920789Y-134698847D01*
X114920789Y-134698847D02*
X114444599Y-134794085D01*
X116063647Y-134841704D02*
X116539837Y-134841704D01*
X115968409Y-135127419D02*
X116301742Y-134127419D01*
X116301742Y-134127419D02*
X116635075Y-135127419D01*
X117396980Y-134460752D02*
X117396980Y-135127419D01*
X116968409Y-134460752D02*
X116968409Y-134984561D01*
X116968409Y-134984561D02*
X117016028Y-135079800D01*
X117016028Y-135079800D02*
X117111266Y-135127419D01*
X117111266Y-135127419D02*
X117254123Y-135127419D01*
X117254123Y-135127419D02*
X117349361Y-135079800D01*
X117349361Y-135079800D02*
X117396980Y-135032180D01*
X117730314Y-134460752D02*
X118111266Y-134460752D01*
X117873171Y-134127419D02*
X117873171Y-134984561D01*
X117873171Y-134984561D02*
X117920790Y-135079800D01*
X117920790Y-135079800D02*
X118016028Y-135127419D01*
X118016028Y-135127419D02*
X118111266Y-135127419D01*
X118587457Y-135127419D02*
X118492219Y-135079800D01*
X118492219Y-135079800D02*
X118444600Y-135032180D01*
X118444600Y-135032180D02*
X118396981Y-134936942D01*
X118396981Y-134936942D02*
X118396981Y-134651228D01*
X118396981Y-134651228D02*
X118444600Y-134555990D01*
X118444600Y-134555990D02*
X118492219Y-134508371D01*
X118492219Y-134508371D02*
X118587457Y-134460752D01*
X118587457Y-134460752D02*
X118730314Y-134460752D01*
X118730314Y-134460752D02*
X118825552Y-134508371D01*
X118825552Y-134508371D02*
X118873171Y-134555990D01*
X118873171Y-134555990D02*
X118920790Y-134651228D01*
X118920790Y-134651228D02*
X118920790Y-134936942D01*
X118920790Y-134936942D02*
X118873171Y-135032180D01*
X118873171Y-135032180D02*
X118825552Y-135079800D01*
X118825552Y-135079800D02*
X118730314Y-135127419D01*
X118730314Y-135127419D02*
X118587457Y-135127419D01*
X119349362Y-134460752D02*
X119349362Y-135127419D01*
X119349362Y-134555990D02*
X119396981Y-134508371D01*
X119396981Y-134508371D02*
X119492219Y-134460752D01*
X119492219Y-134460752D02*
X119635076Y-134460752D01*
X119635076Y-134460752D02*
X119730314Y-134508371D01*
X119730314Y-134508371D02*
X119777933Y-134603609D01*
X119777933Y-134603609D02*
X119777933Y-135127419D01*
X120396981Y-135127419D02*
X120301743Y-135079800D01*
X120301743Y-135079800D02*
X120254124Y-135032180D01*
X120254124Y-135032180D02*
X120206505Y-134936942D01*
X120206505Y-134936942D02*
X120206505Y-134651228D01*
X120206505Y-134651228D02*
X120254124Y-134555990D01*
X120254124Y-134555990D02*
X120301743Y-134508371D01*
X120301743Y-134508371D02*
X120396981Y-134460752D01*
X120396981Y-134460752D02*
X120539838Y-134460752D01*
X120539838Y-134460752D02*
X120635076Y-134508371D01*
X120635076Y-134508371D02*
X120682695Y-134555990D01*
X120682695Y-134555990D02*
X120730314Y-134651228D01*
X120730314Y-134651228D02*
X120730314Y-134936942D01*
X120730314Y-134936942D02*
X120682695Y-135032180D01*
X120682695Y-135032180D02*
X120635076Y-135079800D01*
X120635076Y-135079800D02*
X120539838Y-135127419D01*
X120539838Y-135127419D02*
X120396981Y-135127419D01*
X121158886Y-135127419D02*
X121158886Y-134460752D01*
X121158886Y-134555990D02*
X121206505Y-134508371D01*
X121206505Y-134508371D02*
X121301743Y-134460752D01*
X121301743Y-134460752D02*
X121444600Y-134460752D01*
X121444600Y-134460752D02*
X121539838Y-134508371D01*
X121539838Y-134508371D02*
X121587457Y-134603609D01*
X121587457Y-134603609D02*
X121587457Y-135127419D01*
X121587457Y-134603609D02*
X121635076Y-134508371D01*
X121635076Y-134508371D02*
X121730314Y-134460752D01*
X121730314Y-134460752D02*
X121873171Y-134460752D01*
X121873171Y-134460752D02*
X121968410Y-134508371D01*
X121968410Y-134508371D02*
X122016029Y-134603609D01*
X122016029Y-134603609D02*
X122016029Y-135127419D01*
X122635076Y-135127419D02*
X122539838Y-135079800D01*
X122539838Y-135079800D02*
X122492219Y-135032180D01*
X122492219Y-135032180D02*
X122444600Y-134936942D01*
X122444600Y-134936942D02*
X122444600Y-134651228D01*
X122444600Y-134651228D02*
X122492219Y-134555990D01*
X122492219Y-134555990D02*
X122539838Y-134508371D01*
X122539838Y-134508371D02*
X122635076Y-134460752D01*
X122635076Y-134460752D02*
X122777933Y-134460752D01*
X122777933Y-134460752D02*
X122873171Y-134508371D01*
X122873171Y-134508371D02*
X122920790Y-134555990D01*
X122920790Y-134555990D02*
X122968409Y-134651228D01*
X122968409Y-134651228D02*
X122968409Y-134936942D01*
X122968409Y-134936942D02*
X122920790Y-135032180D01*
X122920790Y-135032180D02*
X122873171Y-135079800D01*
X122873171Y-135079800D02*
X122777933Y-135127419D01*
X122777933Y-135127419D02*
X122635076Y-135127419D01*
X123825552Y-134460752D02*
X123825552Y-135127419D01*
X123396981Y-134460752D02*
X123396981Y-134984561D01*
X123396981Y-134984561D02*
X123444600Y-135079800D01*
X123444600Y-135079800D02*
X123539838Y-135127419D01*
X123539838Y-135127419D02*
X123682695Y-135127419D01*
X123682695Y-135127419D02*
X123777933Y-135079800D01*
X123777933Y-135079800D02*
X123825552Y-135032180D01*
X124254124Y-135079800D02*
X124349362Y-135127419D01*
X124349362Y-135127419D02*
X124539838Y-135127419D01*
X124539838Y-135127419D02*
X124635076Y-135079800D01*
X124635076Y-135079800D02*
X124682695Y-134984561D01*
X124682695Y-134984561D02*
X124682695Y-134936942D01*
X124682695Y-134936942D02*
X124635076Y-134841704D01*
X124635076Y-134841704D02*
X124539838Y-134794085D01*
X124539838Y-134794085D02*
X124396981Y-134794085D01*
X124396981Y-134794085D02*
X124301743Y-134746466D01*
X124301743Y-134746466D02*
X124254124Y-134651228D01*
X124254124Y-134651228D02*
X124254124Y-134603609D01*
X124254124Y-134603609D02*
X124301743Y-134508371D01*
X124301743Y-134508371D02*
X124396981Y-134460752D01*
X124396981Y-134460752D02*
X124539838Y-134460752D01*
X124539838Y-134460752D02*
X124635076Y-134508371D01*
X126444600Y-135127419D02*
X126111267Y-134651228D01*
X125873172Y-135127419D02*
X125873172Y-134127419D01*
X125873172Y-134127419D02*
X126254124Y-134127419D01*
X126254124Y-134127419D02*
X126349362Y-134175038D01*
X126349362Y-134175038D02*
X126396981Y-134222657D01*
X126396981Y-134222657D02*
X126444600Y-134317895D01*
X126444600Y-134317895D02*
X126444600Y-134460752D01*
X126444600Y-134460752D02*
X126396981Y-134555990D01*
X126396981Y-134555990D02*
X126349362Y-134603609D01*
X126349362Y-134603609D02*
X126254124Y-134651228D01*
X126254124Y-134651228D02*
X125873172Y-134651228D01*
X127016029Y-135127419D02*
X126920791Y-135079800D01*
X126920791Y-135079800D02*
X126873172Y-135032180D01*
X126873172Y-135032180D02*
X126825553Y-134936942D01*
X126825553Y-134936942D02*
X126825553Y-134651228D01*
X126825553Y-134651228D02*
X126873172Y-134555990D01*
X126873172Y-134555990D02*
X126920791Y-134508371D01*
X126920791Y-134508371D02*
X127016029Y-134460752D01*
X127016029Y-134460752D02*
X127158886Y-134460752D01*
X127158886Y-134460752D02*
X127254124Y-134508371D01*
X127254124Y-134508371D02*
X127301743Y-134555990D01*
X127301743Y-134555990D02*
X127349362Y-134651228D01*
X127349362Y-134651228D02*
X127349362Y-134936942D01*
X127349362Y-134936942D02*
X127301743Y-135032180D01*
X127301743Y-135032180D02*
X127254124Y-135079800D01*
X127254124Y-135079800D02*
X127158886Y-135127419D01*
X127158886Y-135127419D02*
X127016029Y-135127419D01*
X127777934Y-135127419D02*
X127777934Y-134127419D01*
X127777934Y-134508371D02*
X127873172Y-134460752D01*
X127873172Y-134460752D02*
X128063648Y-134460752D01*
X128063648Y-134460752D02*
X128158886Y-134508371D01*
X128158886Y-134508371D02*
X128206505Y-134555990D01*
X128206505Y-134555990D02*
X128254124Y-134651228D01*
X128254124Y-134651228D02*
X128254124Y-134936942D01*
X128254124Y-134936942D02*
X128206505Y-135032180D01*
X128206505Y-135032180D02*
X128158886Y-135079800D01*
X128158886Y-135079800D02*
X128063648Y-135127419D01*
X128063648Y-135127419D02*
X127873172Y-135127419D01*
X127873172Y-135127419D02*
X127777934Y-135079800D01*
X128825553Y-135127419D02*
X128730315Y-135079800D01*
X128730315Y-135079800D02*
X128682696Y-135032180D01*
X128682696Y-135032180D02*
X128635077Y-134936942D01*
X128635077Y-134936942D02*
X128635077Y-134651228D01*
X128635077Y-134651228D02*
X128682696Y-134555990D01*
X128682696Y-134555990D02*
X128730315Y-134508371D01*
X128730315Y-134508371D02*
X128825553Y-134460752D01*
X128825553Y-134460752D02*
X128968410Y-134460752D01*
X128968410Y-134460752D02*
X129063648Y-134508371D01*
X129063648Y-134508371D02*
X129111267Y-134555990D01*
X129111267Y-134555990D02*
X129158886Y-134651228D01*
X129158886Y-134651228D02*
X129158886Y-134936942D01*
X129158886Y-134936942D02*
X129111267Y-135032180D01*
X129111267Y-135032180D02*
X129063648Y-135079800D01*
X129063648Y-135079800D02*
X128968410Y-135127419D01*
X128968410Y-135127419D02*
X128825553Y-135127419D01*
X129444601Y-134460752D02*
X129825553Y-134460752D01*
X129587458Y-134127419D02*
X129587458Y-134984561D01*
X129587458Y-134984561D02*
X129635077Y-135079800D01*
X129635077Y-135079800D02*
X129730315Y-135127419D01*
X129730315Y-135127419D02*
X129825553Y-135127419D01*
X130158887Y-135127419D02*
X130158887Y-134460752D01*
X130158887Y-134127419D02*
X130111268Y-134175038D01*
X130111268Y-134175038D02*
X130158887Y-134222657D01*
X130158887Y-134222657D02*
X130206506Y-134175038D01*
X130206506Y-134175038D02*
X130158887Y-134127419D01*
X130158887Y-134127419D02*
X130158887Y-134222657D01*
X131063648Y-135079800D02*
X130968410Y-135127419D01*
X130968410Y-135127419D02*
X130777934Y-135127419D01*
X130777934Y-135127419D02*
X130682696Y-135079800D01*
X130682696Y-135079800D02*
X130635077Y-135032180D01*
X130635077Y-135032180D02*
X130587458Y-134936942D01*
X130587458Y-134936942D02*
X130587458Y-134651228D01*
X130587458Y-134651228D02*
X130635077Y-134555990D01*
X130635077Y-134555990D02*
X130682696Y-134508371D01*
X130682696Y-134508371D02*
X130777934Y-134460752D01*
X130777934Y-134460752D02*
X130968410Y-134460752D01*
X130968410Y-134460752D02*
X131063648Y-134508371D01*
X131444601Y-135079800D02*
X131539839Y-135127419D01*
X131539839Y-135127419D02*
X131730315Y-135127419D01*
X131730315Y-135127419D02*
X131825553Y-135079800D01*
X131825553Y-135079800D02*
X131873172Y-134984561D01*
X131873172Y-134984561D02*
X131873172Y-134936942D01*
X131873172Y-134936942D02*
X131825553Y-134841704D01*
X131825553Y-134841704D02*
X131730315Y-134794085D01*
X131730315Y-134794085D02*
X131587458Y-134794085D01*
X131587458Y-134794085D02*
X131492220Y-134746466D01*
X131492220Y-134746466D02*
X131444601Y-134651228D01*
X131444601Y-134651228D02*
X131444601Y-134603609D01*
X131444601Y-134603609D02*
X131492220Y-134508371D01*
X131492220Y-134508371D02*
X131587458Y-134460752D01*
X131587458Y-134460752D02*
X131730315Y-134460752D01*
X131730315Y-134460752D02*
X131825553Y-134508371D01*
X133635077Y-135032180D02*
X133587458Y-135079800D01*
X133587458Y-135079800D02*
X133444601Y-135127419D01*
X133444601Y-135127419D02*
X133349363Y-135127419D01*
X133349363Y-135127419D02*
X133206506Y-135079800D01*
X133206506Y-135079800D02*
X133111268Y-134984561D01*
X133111268Y-134984561D02*
X133063649Y-134889323D01*
X133063649Y-134889323D02*
X133016030Y-134698847D01*
X133016030Y-134698847D02*
X133016030Y-134555990D01*
X133016030Y-134555990D02*
X133063649Y-134365514D01*
X133063649Y-134365514D02*
X133111268Y-134270276D01*
X133111268Y-134270276D02*
X133206506Y-134175038D01*
X133206506Y-134175038D02*
X133349363Y-134127419D01*
X133349363Y-134127419D02*
X133444601Y-134127419D01*
X133444601Y-134127419D02*
X133587458Y-134175038D01*
X133587458Y-134175038D02*
X133635077Y-134222657D01*
X134206506Y-135127419D02*
X134111268Y-135079800D01*
X134111268Y-135079800D02*
X134063649Y-134984561D01*
X134063649Y-134984561D02*
X134063649Y-134127419D01*
X135016030Y-134460752D02*
X135016030Y-135127419D01*
X134587459Y-134460752D02*
X134587459Y-134984561D01*
X134587459Y-134984561D02*
X134635078Y-135079800D01*
X134635078Y-135079800D02*
X134730316Y-135127419D01*
X134730316Y-135127419D02*
X134873173Y-135127419D01*
X134873173Y-135127419D02*
X134968411Y-135079800D01*
X134968411Y-135079800D02*
X135016030Y-135032180D01*
X135492221Y-135127419D02*
X135492221Y-134127419D01*
X135492221Y-134508371D02*
X135587459Y-134460752D01*
X135587459Y-134460752D02*
X135777935Y-134460752D01*
X135777935Y-134460752D02*
X135873173Y-134508371D01*
X135873173Y-134508371D02*
X135920792Y-134555990D01*
X135920792Y-134555990D02*
X135968411Y-134651228D01*
X135968411Y-134651228D02*
X135968411Y-134936942D01*
X135968411Y-134936942D02*
X135920792Y-135032180D01*
X135920792Y-135032180D02*
X135873173Y-135079800D01*
X135873173Y-135079800D02*
X135777935Y-135127419D01*
X135777935Y-135127419D02*
X135587459Y-135127419D01*
X135587459Y-135127419D02*
X135492221Y-135079800D01*
X137158888Y-135127419D02*
X137158888Y-134127419D01*
X137158888Y-134127419D02*
X137539840Y-134127419D01*
X137539840Y-134127419D02*
X137635078Y-134175038D01*
X137635078Y-134175038D02*
X137682697Y-134222657D01*
X137682697Y-134222657D02*
X137730316Y-134317895D01*
X137730316Y-134317895D02*
X137730316Y-134460752D01*
X137730316Y-134460752D02*
X137682697Y-134555990D01*
X137682697Y-134555990D02*
X137635078Y-134603609D01*
X137635078Y-134603609D02*
X137539840Y-134651228D01*
X137539840Y-134651228D02*
X137158888Y-134651228D01*
X138158888Y-135127419D02*
X138158888Y-134460752D01*
X138158888Y-134127419D02*
X138111269Y-134175038D01*
X138111269Y-134175038D02*
X138158888Y-134222657D01*
X138158888Y-134222657D02*
X138206507Y-134175038D01*
X138206507Y-134175038D02*
X138158888Y-134127419D01*
X138158888Y-134127419D02*
X138158888Y-134222657D01*
X139063649Y-135127419D02*
X139063649Y-134603609D01*
X139063649Y-134603609D02*
X139016030Y-134508371D01*
X139016030Y-134508371D02*
X138920792Y-134460752D01*
X138920792Y-134460752D02*
X138730316Y-134460752D01*
X138730316Y-134460752D02*
X138635078Y-134508371D01*
X139063649Y-135079800D02*
X138968411Y-135127419D01*
X138968411Y-135127419D02*
X138730316Y-135127419D01*
X138730316Y-135127419D02*
X138635078Y-135079800D01*
X138635078Y-135079800D02*
X138587459Y-134984561D01*
X138587459Y-134984561D02*
X138587459Y-134889323D01*
X138587459Y-134889323D02*
X138635078Y-134794085D01*
X138635078Y-134794085D02*
X138730316Y-134746466D01*
X138730316Y-134746466D02*
X138968411Y-134746466D01*
X138968411Y-134746466D02*
X139063649Y-134698847D01*
X139539840Y-134460752D02*
X139539840Y-135127419D01*
X139539840Y-134555990D02*
X139587459Y-134508371D01*
X139587459Y-134508371D02*
X139682697Y-134460752D01*
X139682697Y-134460752D02*
X139825554Y-134460752D01*
X139825554Y-134460752D02*
X139920792Y-134508371D01*
X139920792Y-134508371D02*
X139968411Y-134603609D01*
X139968411Y-134603609D02*
X139968411Y-135127419D01*
X140587459Y-135127419D02*
X140492221Y-135079800D01*
X140492221Y-135079800D02*
X140444602Y-135032180D01*
X140444602Y-135032180D02*
X140396983Y-134936942D01*
X140396983Y-134936942D02*
X140396983Y-134651228D01*
X140396983Y-134651228D02*
X140444602Y-134555990D01*
X140444602Y-134555990D02*
X140492221Y-134508371D01*
X140492221Y-134508371D02*
X140587459Y-134460752D01*
X140587459Y-134460752D02*
X140730316Y-134460752D01*
X140730316Y-134460752D02*
X140825554Y-134508371D01*
X140825554Y-134508371D02*
X140873173Y-134555990D01*
X140873173Y-134555990D02*
X140920792Y-134651228D01*
X140920792Y-134651228D02*
X140920792Y-134936942D01*
X140920792Y-134936942D02*
X140873173Y-135032180D01*
X140873173Y-135032180D02*
X140825554Y-135079800D01*
X140825554Y-135079800D02*
X140730316Y-135127419D01*
X140730316Y-135127419D02*
X140587459Y-135127419D01*
X142111269Y-135127419D02*
X142111269Y-134127419D01*
X142111269Y-134603609D02*
X142682697Y-134603609D01*
X142682697Y-135127419D02*
X142682697Y-134127419D01*
X143587459Y-135127419D02*
X143587459Y-134603609D01*
X143587459Y-134603609D02*
X143539840Y-134508371D01*
X143539840Y-134508371D02*
X143444602Y-134460752D01*
X143444602Y-134460752D02*
X143254126Y-134460752D01*
X143254126Y-134460752D02*
X143158888Y-134508371D01*
X143587459Y-135079800D02*
X143492221Y-135127419D01*
X143492221Y-135127419D02*
X143254126Y-135127419D01*
X143254126Y-135127419D02*
X143158888Y-135079800D01*
X143158888Y-135079800D02*
X143111269Y-134984561D01*
X143111269Y-134984561D02*
X143111269Y-134889323D01*
X143111269Y-134889323D02*
X143158888Y-134794085D01*
X143158888Y-134794085D02*
X143254126Y-134746466D01*
X143254126Y-134746466D02*
X143492221Y-134746466D01*
X143492221Y-134746466D02*
X143587459Y-134698847D01*
X144063650Y-134460752D02*
X144063650Y-135127419D01*
X144063650Y-134555990D02*
X144111269Y-134508371D01*
X144111269Y-134508371D02*
X144206507Y-134460752D01*
X144206507Y-134460752D02*
X144349364Y-134460752D01*
X144349364Y-134460752D02*
X144444602Y-134508371D01*
X144444602Y-134508371D02*
X144492221Y-134603609D01*
X144492221Y-134603609D02*
X144492221Y-135127419D01*
X145396983Y-135127419D02*
X145396983Y-134127419D01*
X145396983Y-135079800D02*
X145301745Y-135127419D01*
X145301745Y-135127419D02*
X145111269Y-135127419D01*
X145111269Y-135127419D02*
X145016031Y-135079800D01*
X145016031Y-135079800D02*
X144968412Y-135032180D01*
X144968412Y-135032180D02*
X144920793Y-134936942D01*
X144920793Y-134936942D02*
X144920793Y-134651228D01*
X144920793Y-134651228D02*
X144968412Y-134555990D01*
X144968412Y-134555990D02*
X145016031Y-134508371D01*
X145016031Y-134508371D02*
X145111269Y-134460752D01*
X145111269Y-134460752D02*
X145301745Y-134460752D01*
X145301745Y-134460752D02*
X145396983Y-134508371D01*
D11*
X147780476Y-58239819D02*
X147780476Y-57239819D01*
X147780476Y-57239819D02*
X148113809Y-57954104D01*
X148113809Y-57954104D02*
X148447142Y-57239819D01*
X148447142Y-57239819D02*
X148447142Y-58239819D01*
X149399523Y-57239819D02*
X148923333Y-57239819D01*
X148923333Y-57239819D02*
X148875714Y-57716009D01*
X148875714Y-57716009D02*
X148923333Y-57668390D01*
X148923333Y-57668390D02*
X149018571Y-57620771D01*
X149018571Y-57620771D02*
X149256666Y-57620771D01*
X149256666Y-57620771D02*
X149351904Y-57668390D01*
X149351904Y-57668390D02*
X149399523Y-57716009D01*
X149399523Y-57716009D02*
X149447142Y-57811247D01*
X149447142Y-57811247D02*
X149447142Y-58049342D01*
X149447142Y-58049342D02*
X149399523Y-58144580D01*
X149399523Y-58144580D02*
X149351904Y-58192200D01*
X149351904Y-58192200D02*
X149256666Y-58239819D01*
X149256666Y-58239819D02*
X149018571Y-58239819D01*
X149018571Y-58239819D02*
X148923333Y-58192200D01*
X148923333Y-58192200D02*
X148875714Y-58144580D01*
X159218333Y-48714819D02*
X158885000Y-48238628D01*
X158646905Y-48714819D02*
X158646905Y-47714819D01*
X158646905Y-47714819D02*
X159027857Y-47714819D01*
X159027857Y-47714819D02*
X159123095Y-47762438D01*
X159123095Y-47762438D02*
X159170714Y-47810057D01*
X159170714Y-47810057D02*
X159218333Y-47905295D01*
X159218333Y-47905295D02*
X159218333Y-48048152D01*
X159218333Y-48048152D02*
X159170714Y-48143390D01*
X159170714Y-48143390D02*
X159123095Y-48191009D01*
X159123095Y-48191009D02*
X159027857Y-48238628D01*
X159027857Y-48238628D02*
X158646905Y-48238628D01*
X159551667Y-47714819D02*
X160170714Y-47714819D01*
X160170714Y-47714819D02*
X159837381Y-48095771D01*
X159837381Y-48095771D02*
X159980238Y-48095771D01*
X159980238Y-48095771D02*
X160075476Y-48143390D01*
X160075476Y-48143390D02*
X160123095Y-48191009D01*
X160123095Y-48191009D02*
X160170714Y-48286247D01*
X160170714Y-48286247D02*
X160170714Y-48524342D01*
X160170714Y-48524342D02*
X160123095Y-48619580D01*
X160123095Y-48619580D02*
X160075476Y-48667200D01*
X160075476Y-48667200D02*
X159980238Y-48714819D01*
X159980238Y-48714819D02*
X159694524Y-48714819D01*
X159694524Y-48714819D02*
X159599286Y-48667200D01*
X159599286Y-48667200D02*
X159551667Y-48619580D01*
X156035476Y-58239819D02*
X156035476Y-57239819D01*
X156035476Y-57239819D02*
X156368809Y-57954104D01*
X156368809Y-57954104D02*
X156702142Y-57239819D01*
X156702142Y-57239819D02*
X156702142Y-58239819D01*
X157606904Y-57573152D02*
X157606904Y-58239819D01*
X157368809Y-57192200D02*
X157130714Y-57906485D01*
X157130714Y-57906485D02*
X157749761Y-57906485D01*
X187158333Y-48714819D02*
X186825000Y-48238628D01*
X186586905Y-48714819D02*
X186586905Y-47714819D01*
X186586905Y-47714819D02*
X186967857Y-47714819D01*
X186967857Y-47714819D02*
X187063095Y-47762438D01*
X187063095Y-47762438D02*
X187110714Y-47810057D01*
X187110714Y-47810057D02*
X187158333Y-47905295D01*
X187158333Y-47905295D02*
X187158333Y-48048152D01*
X187158333Y-48048152D02*
X187110714Y-48143390D01*
X187110714Y-48143390D02*
X187063095Y-48191009D01*
X187063095Y-48191009D02*
X186967857Y-48238628D01*
X186967857Y-48238628D02*
X186586905Y-48238628D01*
X187729762Y-48143390D02*
X187634524Y-48095771D01*
X187634524Y-48095771D02*
X187586905Y-48048152D01*
X187586905Y-48048152D02*
X187539286Y-47952914D01*
X187539286Y-47952914D02*
X187539286Y-47905295D01*
X187539286Y-47905295D02*
X187586905Y-47810057D01*
X187586905Y-47810057D02*
X187634524Y-47762438D01*
X187634524Y-47762438D02*
X187729762Y-47714819D01*
X187729762Y-47714819D02*
X187920238Y-47714819D01*
X187920238Y-47714819D02*
X188015476Y-47762438D01*
X188015476Y-47762438D02*
X188063095Y-47810057D01*
X188063095Y-47810057D02*
X188110714Y-47905295D01*
X188110714Y-47905295D02*
X188110714Y-47952914D01*
X188110714Y-47952914D02*
X188063095Y-48048152D01*
X188063095Y-48048152D02*
X188015476Y-48095771D01*
X188015476Y-48095771D02*
X187920238Y-48143390D01*
X187920238Y-48143390D02*
X187729762Y-48143390D01*
X187729762Y-48143390D02*
X187634524Y-48191009D01*
X187634524Y-48191009D02*
X187586905Y-48238628D01*
X187586905Y-48238628D02*
X187539286Y-48333866D01*
X187539286Y-48333866D02*
X187539286Y-48524342D01*
X187539286Y-48524342D02*
X187586905Y-48619580D01*
X187586905Y-48619580D02*
X187634524Y-48667200D01*
X187634524Y-48667200D02*
X187729762Y-48714819D01*
X187729762Y-48714819D02*
X187920238Y-48714819D01*
X187920238Y-48714819D02*
X188015476Y-48667200D01*
X188015476Y-48667200D02*
X188063095Y-48619580D01*
X188063095Y-48619580D02*
X188110714Y-48524342D01*
X188110714Y-48524342D02*
X188110714Y-48333866D01*
X188110714Y-48333866D02*
X188063095Y-48238628D01*
X188063095Y-48238628D02*
X188015476Y-48191009D01*
X188015476Y-48191009D02*
X187920238Y-48143390D01*
X180808333Y-48714819D02*
X180475000Y-48238628D01*
X180236905Y-48714819D02*
X180236905Y-47714819D01*
X180236905Y-47714819D02*
X180617857Y-47714819D01*
X180617857Y-47714819D02*
X180713095Y-47762438D01*
X180713095Y-47762438D02*
X180760714Y-47810057D01*
X180760714Y-47810057D02*
X180808333Y-47905295D01*
X180808333Y-47905295D02*
X180808333Y-48048152D01*
X180808333Y-48048152D02*
X180760714Y-48143390D01*
X180760714Y-48143390D02*
X180713095Y-48191009D01*
X180713095Y-48191009D02*
X180617857Y-48238628D01*
X180617857Y-48238628D02*
X180236905Y-48238628D01*
X181141667Y-47714819D02*
X181808333Y-47714819D01*
X181808333Y-47714819D02*
X181379762Y-48714819D01*
X166838333Y-48714819D02*
X166505000Y-48238628D01*
X166266905Y-48714819D02*
X166266905Y-47714819D01*
X166266905Y-47714819D02*
X166647857Y-47714819D01*
X166647857Y-47714819D02*
X166743095Y-47762438D01*
X166743095Y-47762438D02*
X166790714Y-47810057D01*
X166790714Y-47810057D02*
X166838333Y-47905295D01*
X166838333Y-47905295D02*
X166838333Y-48048152D01*
X166838333Y-48048152D02*
X166790714Y-48143390D01*
X166790714Y-48143390D02*
X166743095Y-48191009D01*
X166743095Y-48191009D02*
X166647857Y-48238628D01*
X166647857Y-48238628D02*
X166266905Y-48238628D01*
X167695476Y-47714819D02*
X167505000Y-47714819D01*
X167505000Y-47714819D02*
X167409762Y-47762438D01*
X167409762Y-47762438D02*
X167362143Y-47810057D01*
X167362143Y-47810057D02*
X167266905Y-47952914D01*
X167266905Y-47952914D02*
X167219286Y-48143390D01*
X167219286Y-48143390D02*
X167219286Y-48524342D01*
X167219286Y-48524342D02*
X167266905Y-48619580D01*
X167266905Y-48619580D02*
X167314524Y-48667200D01*
X167314524Y-48667200D02*
X167409762Y-48714819D01*
X167409762Y-48714819D02*
X167600238Y-48714819D01*
X167600238Y-48714819D02*
X167695476Y-48667200D01*
X167695476Y-48667200D02*
X167743095Y-48619580D01*
X167743095Y-48619580D02*
X167790714Y-48524342D01*
X167790714Y-48524342D02*
X167790714Y-48286247D01*
X167790714Y-48286247D02*
X167743095Y-48191009D01*
X167743095Y-48191009D02*
X167695476Y-48143390D01*
X167695476Y-48143390D02*
X167600238Y-48095771D01*
X167600238Y-48095771D02*
X167409762Y-48095771D01*
X167409762Y-48095771D02*
X167314524Y-48143390D01*
X167314524Y-48143390D02*
X167266905Y-48191009D01*
X167266905Y-48191009D02*
X167219286Y-48286247D01*
X174458333Y-48714819D02*
X174125000Y-48238628D01*
X173886905Y-48714819D02*
X173886905Y-47714819D01*
X173886905Y-47714819D02*
X174267857Y-47714819D01*
X174267857Y-47714819D02*
X174363095Y-47762438D01*
X174363095Y-47762438D02*
X174410714Y-47810057D01*
X174410714Y-47810057D02*
X174458333Y-47905295D01*
X174458333Y-47905295D02*
X174458333Y-48048152D01*
X174458333Y-48048152D02*
X174410714Y-48143390D01*
X174410714Y-48143390D02*
X174363095Y-48191009D01*
X174363095Y-48191009D02*
X174267857Y-48238628D01*
X174267857Y-48238628D02*
X173886905Y-48238628D01*
X175363095Y-47714819D02*
X174886905Y-47714819D01*
X174886905Y-47714819D02*
X174839286Y-48191009D01*
X174839286Y-48191009D02*
X174886905Y-48143390D01*
X174886905Y-48143390D02*
X174982143Y-48095771D01*
X174982143Y-48095771D02*
X175220238Y-48095771D01*
X175220238Y-48095771D02*
X175315476Y-48143390D01*
X175315476Y-48143390D02*
X175363095Y-48191009D01*
X175363095Y-48191009D02*
X175410714Y-48286247D01*
X175410714Y-48286247D02*
X175410714Y-48524342D01*
X175410714Y-48524342D02*
X175363095Y-48619580D01*
X175363095Y-48619580D02*
X175315476Y-48667200D01*
X175315476Y-48667200D02*
X175220238Y-48714819D01*
X175220238Y-48714819D02*
X174982143Y-48714819D01*
X174982143Y-48714819D02*
X174886905Y-48667200D01*
X174886905Y-48667200D02*
X174839286Y-48619580D01*
X151598333Y-48714819D02*
X151265000Y-48238628D01*
X151026905Y-48714819D02*
X151026905Y-47714819D01*
X151026905Y-47714819D02*
X151407857Y-47714819D01*
X151407857Y-47714819D02*
X151503095Y-47762438D01*
X151503095Y-47762438D02*
X151550714Y-47810057D01*
X151550714Y-47810057D02*
X151598333Y-47905295D01*
X151598333Y-47905295D02*
X151598333Y-48048152D01*
X151598333Y-48048152D02*
X151550714Y-48143390D01*
X151550714Y-48143390D02*
X151503095Y-48191009D01*
X151503095Y-48191009D02*
X151407857Y-48238628D01*
X151407857Y-48238628D02*
X151026905Y-48238628D01*
X152455476Y-48048152D02*
X152455476Y-48714819D01*
X152217381Y-47667200D02*
X151979286Y-48381485D01*
X151979286Y-48381485D02*
X152598333Y-48381485D01*
X165568333Y-117834580D02*
X165520714Y-117882200D01*
X165520714Y-117882200D02*
X165377857Y-117929819D01*
X165377857Y-117929819D02*
X165282619Y-117929819D01*
X165282619Y-117929819D02*
X165139762Y-117882200D01*
X165139762Y-117882200D02*
X165044524Y-117786961D01*
X165044524Y-117786961D02*
X164996905Y-117691723D01*
X164996905Y-117691723D02*
X164949286Y-117501247D01*
X164949286Y-117501247D02*
X164949286Y-117358390D01*
X164949286Y-117358390D02*
X164996905Y-117167914D01*
X164996905Y-117167914D02*
X165044524Y-117072676D01*
X165044524Y-117072676D02*
X165139762Y-116977438D01*
X165139762Y-116977438D02*
X165282619Y-116929819D01*
X165282619Y-116929819D02*
X165377857Y-116929819D01*
X165377857Y-116929819D02*
X165520714Y-116977438D01*
X165520714Y-116977438D02*
X165568333Y-117025057D01*
X165901667Y-116929819D02*
X166568333Y-116929819D01*
X166568333Y-116929819D02*
X166139762Y-117929819D01*
X183388095Y-104229819D02*
X183388095Y-105039342D01*
X183388095Y-105039342D02*
X183435714Y-105134580D01*
X183435714Y-105134580D02*
X183483333Y-105182200D01*
X183483333Y-105182200D02*
X183578571Y-105229819D01*
X183578571Y-105229819D02*
X183769047Y-105229819D01*
X183769047Y-105229819D02*
X183864285Y-105182200D01*
X183864285Y-105182200D02*
X183911904Y-105134580D01*
X183911904Y-105134580D02*
X183959523Y-105039342D01*
X183959523Y-105039342D02*
X183959523Y-104229819D01*
X184864285Y-104563152D02*
X184864285Y-105229819D01*
X184626190Y-104182200D02*
X184388095Y-104896485D01*
X184388095Y-104896485D02*
X185007142Y-104896485D01*
X100334666Y-91474819D02*
X100334666Y-92189104D01*
X100334666Y-92189104D02*
X100287047Y-92331961D01*
X100287047Y-92331961D02*
X100191809Y-92427200D01*
X100191809Y-92427200D02*
X100048952Y-92474819D01*
X100048952Y-92474819D02*
X99953714Y-92474819D01*
X101334666Y-92474819D02*
X100763238Y-92474819D01*
X101048952Y-92474819D02*
X101048952Y-91474819D01*
X101048952Y-91474819D02*
X100953714Y-91617676D01*
X100953714Y-91617676D02*
X100858476Y-91712914D01*
X100858476Y-91712914D02*
X100763238Y-91760533D01*
X195988095Y-123204819D02*
X195988095Y-122204819D01*
X195988095Y-122681009D02*
X196559523Y-122681009D01*
X196559523Y-123204819D02*
X196559523Y-122204819D01*
X197464285Y-122538152D02*
X197464285Y-123204819D01*
X197226190Y-122157200D02*
X196988095Y-122871485D01*
X196988095Y-122871485D02*
X197607142Y-122871485D01*
X181059580Y-113216666D02*
X181107200Y-113264285D01*
X181107200Y-113264285D02*
X181154819Y-113407142D01*
X181154819Y-113407142D02*
X181154819Y-113502380D01*
X181154819Y-113502380D02*
X181107200Y-113645237D01*
X181107200Y-113645237D02*
X181011961Y-113740475D01*
X181011961Y-113740475D02*
X180916723Y-113788094D01*
X180916723Y-113788094D02*
X180726247Y-113835713D01*
X180726247Y-113835713D02*
X180583390Y-113835713D01*
X180583390Y-113835713D02*
X180392914Y-113788094D01*
X180392914Y-113788094D02*
X180297676Y-113740475D01*
X180297676Y-113740475D02*
X180202438Y-113645237D01*
X180202438Y-113645237D02*
X180154819Y-113502380D01*
X180154819Y-113502380D02*
X180154819Y-113407142D01*
X180154819Y-113407142D02*
X180202438Y-113264285D01*
X180202438Y-113264285D02*
X180250057Y-113216666D01*
X180154819Y-112311904D02*
X180154819Y-112788094D01*
X180154819Y-112788094D02*
X180631009Y-112835713D01*
X180631009Y-112835713D02*
X180583390Y-112788094D01*
X180583390Y-112788094D02*
X180535771Y-112692856D01*
X180535771Y-112692856D02*
X180535771Y-112454761D01*
X180535771Y-112454761D02*
X180583390Y-112359523D01*
X180583390Y-112359523D02*
X180631009Y-112311904D01*
X180631009Y-112311904D02*
X180726247Y-112264285D01*
X180726247Y-112264285D02*
X180964342Y-112264285D01*
X180964342Y-112264285D02*
X181059580Y-112311904D01*
X181059580Y-112311904D02*
X181107200Y-112359523D01*
X181107200Y-112359523D02*
X181154819Y-112454761D01*
X181154819Y-112454761D02*
X181154819Y-112692856D01*
X181154819Y-112692856D02*
X181107200Y-112788094D01*
X181107200Y-112788094D02*
X181059580Y-112835713D01*
X195738095Y-51054819D02*
X195738095Y-50054819D01*
X195738095Y-50531009D02*
X196309523Y-50531009D01*
X196309523Y-51054819D02*
X196309523Y-50054819D01*
X197309523Y-51054819D02*
X196738095Y-51054819D01*
X197023809Y-51054819D02*
X197023809Y-50054819D01*
X197023809Y-50054819D02*
X196928571Y-50197676D01*
X196928571Y-50197676D02*
X196833333Y-50292914D01*
X196833333Y-50292914D02*
X196738095Y-50340533D01*
D12*
X169936190Y-119838878D02*
X169936190Y-120097925D01*
X169936190Y-120097925D02*
X169951428Y-120128401D01*
X169951428Y-120128401D02*
X169966666Y-120143640D01*
X169966666Y-120143640D02*
X169997142Y-120158878D01*
X169997142Y-120158878D02*
X170058095Y-120158878D01*
X170058095Y-120158878D02*
X170088571Y-120143640D01*
X170088571Y-120143640D02*
X170103809Y-120128401D01*
X170103809Y-120128401D02*
X170119047Y-120097925D01*
X170119047Y-120097925D02*
X170119047Y-119838878D01*
X170423809Y-119838878D02*
X170271428Y-119838878D01*
X170271428Y-119838878D02*
X170256190Y-119991259D01*
X170256190Y-119991259D02*
X170271428Y-119976020D01*
X170271428Y-119976020D02*
X170301904Y-119960782D01*
X170301904Y-119960782D02*
X170378095Y-119960782D01*
X170378095Y-119960782D02*
X170408571Y-119976020D01*
X170408571Y-119976020D02*
X170423809Y-119991259D01*
X170423809Y-119991259D02*
X170439047Y-120021735D01*
X170439047Y-120021735D02*
X170439047Y-120097925D01*
X170439047Y-120097925D02*
X170423809Y-120128401D01*
X170423809Y-120128401D02*
X170408571Y-120143640D01*
X170408571Y-120143640D02*
X170378095Y-120158878D01*
X170378095Y-120158878D02*
X170301904Y-120158878D01*
X170301904Y-120158878D02*
X170271428Y-120143640D01*
X170271428Y-120143640D02*
X170256190Y-120128401D01*
D11*
X186435819Y-120016666D02*
X185959628Y-120349999D01*
X186435819Y-120588094D02*
X185435819Y-120588094D01*
X185435819Y-120588094D02*
X185435819Y-120207142D01*
X185435819Y-120207142D02*
X185483438Y-120111904D01*
X185483438Y-120111904D02*
X185531057Y-120064285D01*
X185531057Y-120064285D02*
X185626295Y-120016666D01*
X185626295Y-120016666D02*
X185769152Y-120016666D01*
X185769152Y-120016666D02*
X185864390Y-120064285D01*
X185864390Y-120064285D02*
X185912009Y-120111904D01*
X185912009Y-120111904D02*
X185959628Y-120207142D01*
X185959628Y-120207142D02*
X185959628Y-120588094D01*
X185531057Y-119635713D02*
X185483438Y-119588094D01*
X185483438Y-119588094D02*
X185435819Y-119492856D01*
X185435819Y-119492856D02*
X185435819Y-119254761D01*
X185435819Y-119254761D02*
X185483438Y-119159523D01*
X185483438Y-119159523D02*
X185531057Y-119111904D01*
X185531057Y-119111904D02*
X185626295Y-119064285D01*
X185626295Y-119064285D02*
X185721533Y-119064285D01*
X185721533Y-119064285D02*
X185864390Y-119111904D01*
X185864390Y-119111904D02*
X186435819Y-119683332D01*
X186435819Y-119683332D02*
X186435819Y-119064285D01*
X139272095Y-111214819D02*
X139272095Y-112024342D01*
X139272095Y-112024342D02*
X139319714Y-112119580D01*
X139319714Y-112119580D02*
X139367333Y-112167200D01*
X139367333Y-112167200D02*
X139462571Y-112214819D01*
X139462571Y-112214819D02*
X139653047Y-112214819D01*
X139653047Y-112214819D02*
X139748285Y-112167200D01*
X139748285Y-112167200D02*
X139795904Y-112119580D01*
X139795904Y-112119580D02*
X139843523Y-112024342D01*
X139843523Y-112024342D02*
X139843523Y-111214819D01*
X140224476Y-111214819D02*
X140843523Y-111214819D01*
X140843523Y-111214819D02*
X140510190Y-111595771D01*
X140510190Y-111595771D02*
X140653047Y-111595771D01*
X140653047Y-111595771D02*
X140748285Y-111643390D01*
X140748285Y-111643390D02*
X140795904Y-111691009D01*
X140795904Y-111691009D02*
X140843523Y-111786247D01*
X140843523Y-111786247D02*
X140843523Y-112024342D01*
X140843523Y-112024342D02*
X140795904Y-112119580D01*
X140795904Y-112119580D02*
X140748285Y-112167200D01*
X140748285Y-112167200D02*
X140653047Y-112214819D01*
X140653047Y-112214819D02*
X140367333Y-112214819D01*
X140367333Y-112214819D02*
X140272095Y-112167200D01*
X140272095Y-112167200D02*
X140224476Y-112119580D01*
X163020476Y-58239819D02*
X163020476Y-57239819D01*
X163020476Y-57239819D02*
X163353809Y-57954104D01*
X163353809Y-57954104D02*
X163687142Y-57239819D01*
X163687142Y-57239819D02*
X163687142Y-58239819D01*
X164068095Y-57239819D02*
X164687142Y-57239819D01*
X164687142Y-57239819D02*
X164353809Y-57620771D01*
X164353809Y-57620771D02*
X164496666Y-57620771D01*
X164496666Y-57620771D02*
X164591904Y-57668390D01*
X164591904Y-57668390D02*
X164639523Y-57716009D01*
X164639523Y-57716009D02*
X164687142Y-57811247D01*
X164687142Y-57811247D02*
X164687142Y-58049342D01*
X164687142Y-58049342D02*
X164639523Y-58144580D01*
X164639523Y-58144580D02*
X164591904Y-58192200D01*
X164591904Y-58192200D02*
X164496666Y-58239819D01*
X164496666Y-58239819D02*
X164210952Y-58239819D01*
X164210952Y-58239819D02*
X164115714Y-58192200D01*
X164115714Y-58192200D02*
X164068095Y-58144580D01*
X183983333Y-124914819D02*
X183650000Y-124438628D01*
X183411905Y-124914819D02*
X183411905Y-123914819D01*
X183411905Y-123914819D02*
X183792857Y-123914819D01*
X183792857Y-123914819D02*
X183888095Y-123962438D01*
X183888095Y-123962438D02*
X183935714Y-124010057D01*
X183935714Y-124010057D02*
X183983333Y-124105295D01*
X183983333Y-124105295D02*
X183983333Y-124248152D01*
X183983333Y-124248152D02*
X183935714Y-124343390D01*
X183935714Y-124343390D02*
X183888095Y-124391009D01*
X183888095Y-124391009D02*
X183792857Y-124438628D01*
X183792857Y-124438628D02*
X183411905Y-124438628D01*
X184935714Y-124914819D02*
X184364286Y-124914819D01*
X184650000Y-124914819D02*
X184650000Y-123914819D01*
X184650000Y-123914819D02*
X184554762Y-124057676D01*
X184554762Y-124057676D02*
X184459524Y-124152914D01*
X184459524Y-124152914D02*
X184364286Y-124200533D01*
X124746476Y-121534819D02*
X124746476Y-120534819D01*
X124746476Y-120534819D02*
X125079809Y-121249104D01*
X125079809Y-121249104D02*
X125413142Y-120534819D01*
X125413142Y-120534819D02*
X125413142Y-121534819D01*
X125794095Y-120534819D02*
X126460761Y-120534819D01*
X126460761Y-120534819D02*
X126032190Y-121534819D01*
X183975476Y-58239819D02*
X183975476Y-57239819D01*
X183975476Y-57239819D02*
X184308809Y-57954104D01*
X184308809Y-57954104D02*
X184642142Y-57239819D01*
X184642142Y-57239819D02*
X184642142Y-58239819D01*
X185642142Y-58239819D02*
X185070714Y-58239819D01*
X185356428Y-58239819D02*
X185356428Y-57239819D01*
X185356428Y-57239819D02*
X185261190Y-57382676D01*
X185261190Y-57382676D02*
X185165952Y-57477914D01*
X185165952Y-57477914D02*
X185070714Y-57525533D01*
X198860819Y-115879523D02*
X197860819Y-115879523D01*
X197860819Y-115879523D02*
X198575104Y-115546190D01*
X198575104Y-115546190D02*
X197860819Y-115212857D01*
X197860819Y-115212857D02*
X198860819Y-115212857D01*
X198860819Y-114736666D02*
X197860819Y-114736666D01*
X198860819Y-114165238D02*
X198289390Y-114593809D01*
X197860819Y-114165238D02*
X198432247Y-114736666D01*
X198860819Y-113212857D02*
X198860819Y-113784285D01*
X198860819Y-113498571D02*
X197860819Y-113498571D01*
X197860819Y-113498571D02*
X198003676Y-113593809D01*
X198003676Y-113593809D02*
X198098914Y-113689047D01*
X198098914Y-113689047D02*
X198146533Y-113784285D01*
X167473333Y-123221580D02*
X167425714Y-123269200D01*
X167425714Y-123269200D02*
X167282857Y-123316819D01*
X167282857Y-123316819D02*
X167187619Y-123316819D01*
X167187619Y-123316819D02*
X167044762Y-123269200D01*
X167044762Y-123269200D02*
X166949524Y-123173961D01*
X166949524Y-123173961D02*
X166901905Y-123078723D01*
X166901905Y-123078723D02*
X166854286Y-122888247D01*
X166854286Y-122888247D02*
X166854286Y-122745390D01*
X166854286Y-122745390D02*
X166901905Y-122554914D01*
X166901905Y-122554914D02*
X166949524Y-122459676D01*
X166949524Y-122459676D02*
X167044762Y-122364438D01*
X167044762Y-122364438D02*
X167187619Y-122316819D01*
X167187619Y-122316819D02*
X167282857Y-122316819D01*
X167282857Y-122316819D02*
X167425714Y-122364438D01*
X167425714Y-122364438D02*
X167473333Y-122412057D01*
X168330476Y-122650152D02*
X168330476Y-123316819D01*
X168092381Y-122269200D02*
X167854286Y-122983485D01*
X167854286Y-122983485D02*
X168473333Y-122983485D01*
X177625476Y-58239819D02*
X177625476Y-57239819D01*
X177625476Y-57239819D02*
X177958809Y-57954104D01*
X177958809Y-57954104D02*
X178292142Y-57239819D01*
X178292142Y-57239819D02*
X178292142Y-58239819D01*
X178720714Y-57335057D02*
X178768333Y-57287438D01*
X178768333Y-57287438D02*
X178863571Y-57239819D01*
X178863571Y-57239819D02*
X179101666Y-57239819D01*
X179101666Y-57239819D02*
X179196904Y-57287438D01*
X179196904Y-57287438D02*
X179244523Y-57335057D01*
X179244523Y-57335057D02*
X179292142Y-57430295D01*
X179292142Y-57430295D02*
X179292142Y-57525533D01*
X179292142Y-57525533D02*
X179244523Y-57668390D01*
X179244523Y-57668390D02*
X178673095Y-58239819D01*
X178673095Y-58239819D02*
X179292142Y-58239819D01*
X170640476Y-58239819D02*
X170640476Y-57239819D01*
X170640476Y-57239819D02*
X170973809Y-57954104D01*
X170973809Y-57954104D02*
X171307142Y-57239819D01*
X171307142Y-57239819D02*
X171307142Y-58239819D01*
X172211904Y-57239819D02*
X172021428Y-57239819D01*
X172021428Y-57239819D02*
X171926190Y-57287438D01*
X171926190Y-57287438D02*
X171878571Y-57335057D01*
X171878571Y-57335057D02*
X171783333Y-57477914D01*
X171783333Y-57477914D02*
X171735714Y-57668390D01*
X171735714Y-57668390D02*
X171735714Y-58049342D01*
X171735714Y-58049342D02*
X171783333Y-58144580D01*
X171783333Y-58144580D02*
X171830952Y-58192200D01*
X171830952Y-58192200D02*
X171926190Y-58239819D01*
X171926190Y-58239819D02*
X172116666Y-58239819D01*
X172116666Y-58239819D02*
X172211904Y-58192200D01*
X172211904Y-58192200D02*
X172259523Y-58144580D01*
X172259523Y-58144580D02*
X172307142Y-58049342D01*
X172307142Y-58049342D02*
X172307142Y-57811247D01*
X172307142Y-57811247D02*
X172259523Y-57716009D01*
X172259523Y-57716009D02*
X172211904Y-57668390D01*
X172211904Y-57668390D02*
X172116666Y-57620771D01*
X172116666Y-57620771D02*
X171926190Y-57620771D01*
X171926190Y-57620771D02*
X171830952Y-57668390D01*
X171830952Y-57668390D02*
X171783333Y-57716009D01*
X171783333Y-57716009D02*
X171735714Y-57811247D01*
X116499333Y-104229580D02*
X116451714Y-104277200D01*
X116451714Y-104277200D02*
X116308857Y-104324819D01*
X116308857Y-104324819D02*
X116213619Y-104324819D01*
X116213619Y-104324819D02*
X116070762Y-104277200D01*
X116070762Y-104277200D02*
X115975524Y-104181961D01*
X115975524Y-104181961D02*
X115927905Y-104086723D01*
X115927905Y-104086723D02*
X115880286Y-103896247D01*
X115880286Y-103896247D02*
X115880286Y-103753390D01*
X115880286Y-103753390D02*
X115927905Y-103562914D01*
X115927905Y-103562914D02*
X115975524Y-103467676D01*
X115975524Y-103467676D02*
X116070762Y-103372438D01*
X116070762Y-103372438D02*
X116213619Y-103324819D01*
X116213619Y-103324819D02*
X116308857Y-103324819D01*
X116308857Y-103324819D02*
X116451714Y-103372438D01*
X116451714Y-103372438D02*
X116499333Y-103420057D01*
X116880286Y-103420057D02*
X116927905Y-103372438D01*
X116927905Y-103372438D02*
X117023143Y-103324819D01*
X117023143Y-103324819D02*
X117261238Y-103324819D01*
X117261238Y-103324819D02*
X117356476Y-103372438D01*
X117356476Y-103372438D02*
X117404095Y-103420057D01*
X117404095Y-103420057D02*
X117451714Y-103515295D01*
X117451714Y-103515295D02*
X117451714Y-103610533D01*
X117451714Y-103610533D02*
X117404095Y-103753390D01*
X117404095Y-103753390D02*
X116832667Y-104324819D01*
X116832667Y-104324819D02*
X117451714Y-104324819D01*
X100918095Y-122794819D02*
X100918095Y-121794819D01*
X100918095Y-122271009D02*
X101489523Y-122271009D01*
X101489523Y-122794819D02*
X101489523Y-121794819D01*
X101870476Y-121794819D02*
X102489523Y-121794819D01*
X102489523Y-121794819D02*
X102156190Y-122175771D01*
X102156190Y-122175771D02*
X102299047Y-122175771D01*
X102299047Y-122175771D02*
X102394285Y-122223390D01*
X102394285Y-122223390D02*
X102441904Y-122271009D01*
X102441904Y-122271009D02*
X102489523Y-122366247D01*
X102489523Y-122366247D02*
X102489523Y-122604342D01*
X102489523Y-122604342D02*
X102441904Y-122699580D01*
X102441904Y-122699580D02*
X102394285Y-122747200D01*
X102394285Y-122747200D02*
X102299047Y-122794819D01*
X102299047Y-122794819D02*
X102013333Y-122794819D01*
X102013333Y-122794819D02*
X101918095Y-122747200D01*
X101918095Y-122747200D02*
X101870476Y-122699580D01*
X200458819Y-78440904D02*
X201268342Y-78440904D01*
X201268342Y-78440904D02*
X201363580Y-78393285D01*
X201363580Y-78393285D02*
X201411200Y-78345666D01*
X201411200Y-78345666D02*
X201458819Y-78250428D01*
X201458819Y-78250428D02*
X201458819Y-78059952D01*
X201458819Y-78059952D02*
X201411200Y-77964714D01*
X201411200Y-77964714D02*
X201363580Y-77917095D01*
X201363580Y-77917095D02*
X201268342Y-77869476D01*
X201268342Y-77869476D02*
X200458819Y-77869476D01*
X201458819Y-76869476D02*
X201458819Y-77440904D01*
X201458819Y-77155190D02*
X200458819Y-77155190D01*
X200458819Y-77155190D02*
X200601676Y-77250428D01*
X200601676Y-77250428D02*
X200696914Y-77345666D01*
X200696914Y-77345666D02*
X200744533Y-77440904D01*
X120778095Y-61914819D02*
X120778095Y-62724342D01*
X120778095Y-62724342D02*
X120825714Y-62819580D01*
X120825714Y-62819580D02*
X120873333Y-62867200D01*
X120873333Y-62867200D02*
X120968571Y-62914819D01*
X120968571Y-62914819D02*
X121159047Y-62914819D01*
X121159047Y-62914819D02*
X121254285Y-62867200D01*
X121254285Y-62867200D02*
X121301904Y-62819580D01*
X121301904Y-62819580D02*
X121349523Y-62724342D01*
X121349523Y-62724342D02*
X121349523Y-61914819D01*
X121778095Y-62010057D02*
X121825714Y-61962438D01*
X121825714Y-61962438D02*
X121920952Y-61914819D01*
X121920952Y-61914819D02*
X122159047Y-61914819D01*
X122159047Y-61914819D02*
X122254285Y-61962438D01*
X122254285Y-61962438D02*
X122301904Y-62010057D01*
X122301904Y-62010057D02*
X122349523Y-62105295D01*
X122349523Y-62105295D02*
X122349523Y-62200533D01*
X122349523Y-62200533D02*
X122301904Y-62343390D01*
X122301904Y-62343390D02*
X121730476Y-62914819D01*
X121730476Y-62914819D02*
X122349523Y-62914819D01*
X100983827Y-51084647D02*
X100983827Y-50084647D01*
X100983827Y-50560837D02*
X101555255Y-50560837D01*
X101555255Y-51084647D02*
X101555255Y-50084647D01*
X101983827Y-50179885D02*
X102031446Y-50132266D01*
X102031446Y-50132266D02*
X102126684Y-50084647D01*
X102126684Y-50084647D02*
X102364779Y-50084647D01*
X102364779Y-50084647D02*
X102460017Y-50132266D01*
X102460017Y-50132266D02*
X102507636Y-50179885D01*
X102507636Y-50179885D02*
X102555255Y-50275123D01*
X102555255Y-50275123D02*
X102555255Y-50370361D01*
X102555255Y-50370361D02*
X102507636Y-50513218D01*
X102507636Y-50513218D02*
X101936208Y-51084647D01*
X101936208Y-51084647D02*
X102555255Y-51084647D01*
X173329333Y-110563580D02*
X173281714Y-110611200D01*
X173281714Y-110611200D02*
X173138857Y-110658819D01*
X173138857Y-110658819D02*
X173043619Y-110658819D01*
X173043619Y-110658819D02*
X172900762Y-110611200D01*
X172900762Y-110611200D02*
X172805524Y-110515961D01*
X172805524Y-110515961D02*
X172757905Y-110420723D01*
X172757905Y-110420723D02*
X172710286Y-110230247D01*
X172710286Y-110230247D02*
X172710286Y-110087390D01*
X172710286Y-110087390D02*
X172757905Y-109896914D01*
X172757905Y-109896914D02*
X172805524Y-109801676D01*
X172805524Y-109801676D02*
X172900762Y-109706438D01*
X172900762Y-109706438D02*
X173043619Y-109658819D01*
X173043619Y-109658819D02*
X173138857Y-109658819D01*
X173138857Y-109658819D02*
X173281714Y-109706438D01*
X173281714Y-109706438D02*
X173329333Y-109754057D01*
X174186476Y-109658819D02*
X173996000Y-109658819D01*
X173996000Y-109658819D02*
X173900762Y-109706438D01*
X173900762Y-109706438D02*
X173853143Y-109754057D01*
X173853143Y-109754057D02*
X173757905Y-109896914D01*
X173757905Y-109896914D02*
X173710286Y-110087390D01*
X173710286Y-110087390D02*
X173710286Y-110468342D01*
X173710286Y-110468342D02*
X173757905Y-110563580D01*
X173757905Y-110563580D02*
X173805524Y-110611200D01*
X173805524Y-110611200D02*
X173900762Y-110658819D01*
X173900762Y-110658819D02*
X174091238Y-110658819D01*
X174091238Y-110658819D02*
X174186476Y-110611200D01*
X174186476Y-110611200D02*
X174234095Y-110563580D01*
X174234095Y-110563580D02*
X174281714Y-110468342D01*
X174281714Y-110468342D02*
X174281714Y-110230247D01*
X174281714Y-110230247D02*
X174234095Y-110135009D01*
X174234095Y-110135009D02*
X174186476Y-110087390D01*
X174186476Y-110087390D02*
X174091238Y-110039771D01*
X174091238Y-110039771D02*
X173900762Y-110039771D01*
X173900762Y-110039771D02*
X173805524Y-110087390D01*
X173805524Y-110087390D02*
X173757905Y-110135009D01*
X173757905Y-110135009D02*
X173710286Y-110230247D01*
X173823333Y-129899580D02*
X173775714Y-129947200D01*
X173775714Y-129947200D02*
X173632857Y-129994819D01*
X173632857Y-129994819D02*
X173537619Y-129994819D01*
X173537619Y-129994819D02*
X173394762Y-129947200D01*
X173394762Y-129947200D02*
X173299524Y-129851961D01*
X173299524Y-129851961D02*
X173251905Y-129756723D01*
X173251905Y-129756723D02*
X173204286Y-129566247D01*
X173204286Y-129566247D02*
X173204286Y-129423390D01*
X173204286Y-129423390D02*
X173251905Y-129232914D01*
X173251905Y-129232914D02*
X173299524Y-129137676D01*
X173299524Y-129137676D02*
X173394762Y-129042438D01*
X173394762Y-129042438D02*
X173537619Y-128994819D01*
X173537619Y-128994819D02*
X173632857Y-128994819D01*
X173632857Y-128994819D02*
X173775714Y-129042438D01*
X173775714Y-129042438D02*
X173823333Y-129090057D01*
X174156667Y-128994819D02*
X174775714Y-128994819D01*
X174775714Y-128994819D02*
X174442381Y-129375771D01*
X174442381Y-129375771D02*
X174585238Y-129375771D01*
X174585238Y-129375771D02*
X174680476Y-129423390D01*
X174680476Y-129423390D02*
X174728095Y-129471009D01*
X174728095Y-129471009D02*
X174775714Y-129566247D01*
X174775714Y-129566247D02*
X174775714Y-129804342D01*
X174775714Y-129804342D02*
X174728095Y-129899580D01*
X174728095Y-129899580D02*
X174680476Y-129947200D01*
X174680476Y-129947200D02*
X174585238Y-129994819D01*
X174585238Y-129994819D02*
X174299524Y-129994819D01*
X174299524Y-129994819D02*
X174204286Y-129947200D01*
X174204286Y-129947200D02*
X174156667Y-129899580D01*
X113366333Y-104179580D02*
X113318714Y-104227200D01*
X113318714Y-104227200D02*
X113175857Y-104274819D01*
X113175857Y-104274819D02*
X113080619Y-104274819D01*
X113080619Y-104274819D02*
X112937762Y-104227200D01*
X112937762Y-104227200D02*
X112842524Y-104131961D01*
X112842524Y-104131961D02*
X112794905Y-104036723D01*
X112794905Y-104036723D02*
X112747286Y-103846247D01*
X112747286Y-103846247D02*
X112747286Y-103703390D01*
X112747286Y-103703390D02*
X112794905Y-103512914D01*
X112794905Y-103512914D02*
X112842524Y-103417676D01*
X112842524Y-103417676D02*
X112937762Y-103322438D01*
X112937762Y-103322438D02*
X113080619Y-103274819D01*
X113080619Y-103274819D02*
X113175857Y-103274819D01*
X113175857Y-103274819D02*
X113318714Y-103322438D01*
X113318714Y-103322438D02*
X113366333Y-103370057D01*
X114318714Y-104274819D02*
X113747286Y-104274819D01*
X114033000Y-104274819D02*
X114033000Y-103274819D01*
X114033000Y-103274819D02*
X113937762Y-103417676D01*
X113937762Y-103417676D02*
X113842524Y-103512914D01*
X113842524Y-103512914D02*
X113747286Y-103560533D01*
D13*
%TO.C,M5*%
X153145000Y-59055000D02*
X153145000Y-64245000D01*
X150385000Y-64245000D02*
X153145000Y-64245000D01*
X150385000Y-59055000D02*
X153145000Y-59055000D01*
X150385000Y-59055000D02*
X150385000Y-64245000D01*
X150385000Y-57785000D02*
X150385000Y-56405000D01*
X150385000Y-56405000D02*
X151765000Y-56405000D01*
%TO.C,R3*%
X158650000Y-51207936D02*
X158650000Y-51662064D01*
X160120000Y-51207936D02*
X160120000Y-51662064D01*
%TO.C,M4*%
X160765000Y-59055000D02*
X160765000Y-64245000D01*
X158005000Y-64245000D02*
X160765000Y-64245000D01*
X158005000Y-59055000D02*
X160765000Y-59055000D01*
X158005000Y-59055000D02*
X158005000Y-64245000D01*
X158005000Y-57785000D02*
X158005000Y-56405000D01*
X158005000Y-56405000D02*
X159385000Y-56405000D01*
%TO.C,R8*%
X188060000Y-51207936D02*
X188060000Y-51662064D01*
X186590000Y-51207936D02*
X186590000Y-51662064D01*
%TO.C,R7*%
X181710000Y-51207936D02*
X181710000Y-51662064D01*
X180240000Y-51207936D02*
X180240000Y-51662064D01*
%TO.C,R6*%
X167740000Y-51207936D02*
X167740000Y-51662064D01*
X166270000Y-51207936D02*
X166270000Y-51662064D01*
%TO.C,R5*%
X175360000Y-51207936D02*
X175360000Y-51662064D01*
X173890000Y-51207936D02*
X173890000Y-51662064D01*
%TO.C,R4*%
X152500000Y-51207936D02*
X152500000Y-51662064D01*
X151030000Y-51207936D02*
X151030000Y-51662064D01*
%TO.C,C7*%
X167747000Y-115136748D02*
X167747000Y-115659252D01*
X169217000Y-115136748D02*
X169217000Y-115659252D01*
%TO.C,U4*%
X183612000Y-108904000D02*
X183612000Y-107524000D01*
X184992000Y-108904000D02*
X183612000Y-108904000D01*
X186262000Y-106144000D02*
X193992000Y-106144000D01*
X186262000Y-108904000D02*
X186262000Y-106144000D01*
X186262000Y-108904000D02*
X193992000Y-108904000D01*
X193992000Y-108904000D02*
X193992000Y-106144000D01*
%TO.C,J1*%
X92918000Y-103965000D02*
X106918000Y-103965000D01*
X106918000Y-94075000D02*
X92918000Y-94075000D01*
X106918000Y-95280000D02*
X106918000Y-94075000D01*
X106918000Y-102760000D02*
X112688000Y-102760000D01*
X106918000Y-103965000D02*
X106918000Y-102760000D01*
X112688000Y-95280000D02*
X106918000Y-95280000D01*
X112688000Y-102760000D02*
X112688000Y-95280000D01*
%TO.C,C5*%
X179939000Y-116675252D02*
X179939000Y-116152748D01*
X181409000Y-116675252D02*
X181409000Y-116152748D01*
D14*
%TO.C,U5*%
X172673000Y-116710000D02*
X172673000Y-119810000D01*
X175773000Y-116710000D02*
X175773000Y-119810000D01*
D15*
X175523000Y-115760000D02*
G75*
G02*
X175323000Y-115760000I-100000J0D01*
G01*
X175323000Y-115760000D02*
G75*
G02*
X175523000Y-115760000I100000J0D01*
G01*
D13*
%TO.C,R2*%
X184511000Y-116744564D02*
X184511000Y-116290436D01*
X185981000Y-116744564D02*
X185981000Y-116290436D01*
%TO.C,U3*%
X132284000Y-104600000D02*
X132284000Y-106000000D01*
X132284000Y-107270000D02*
X132284000Y-125180000D01*
X132284000Y-125180000D02*
X147784000Y-125180000D01*
X133684000Y-104600000D02*
X132284000Y-104600000D01*
X134954000Y-104600000D02*
X134954000Y-107270000D01*
X134954000Y-107270000D02*
X132284000Y-107270000D01*
X134954000Y-107270000D02*
X134954000Y-125180000D01*
X145114000Y-104600000D02*
X145114000Y-125180000D01*
X147784000Y-104600000D02*
X134954000Y-104600000D01*
X147784000Y-125180000D02*
X147784000Y-104600000D01*
%TO.C,M3*%
X168385000Y-59055000D02*
X168385000Y-64245000D01*
X165625000Y-64245000D02*
X168385000Y-64245000D01*
X165625000Y-59055000D02*
X168385000Y-59055000D01*
X165625000Y-59055000D02*
X165625000Y-64245000D01*
X165625000Y-57785000D02*
X165625000Y-56405000D01*
X165625000Y-56405000D02*
X167005000Y-56405000D01*
%TO.C,R1*%
X178415000Y-121213064D02*
X178415000Y-120758936D01*
X179885000Y-121213064D02*
X179885000Y-120758936D01*
%TO.C,M7*%
X124176000Y-117430000D02*
X124176000Y-109700000D01*
X126936000Y-109700000D02*
X124176000Y-109700000D01*
X126936000Y-117430000D02*
X124176000Y-117430000D01*
X126936000Y-117430000D02*
X126936000Y-109700000D01*
X126936000Y-118700000D02*
X126936000Y-120080000D01*
X126936000Y-120080000D02*
X125556000Y-120080000D01*
%TO.C,M1*%
X188705000Y-59055000D02*
X188705000Y-64245000D01*
X185945000Y-64245000D02*
X188705000Y-64245000D01*
X185945000Y-59055000D02*
X188705000Y-59055000D01*
X185945000Y-59055000D02*
X185945000Y-64245000D01*
X185945000Y-57785000D02*
X185945000Y-56405000D01*
X185945000Y-56405000D02*
X187325000Y-56405000D01*
%TO.C,MK1*%
X196306000Y-117920000D02*
X196306000Y-117620000D01*
X196306000Y-117920000D02*
X196306000Y-118220000D01*
X196606000Y-117920000D02*
X196006000Y-117920000D01*
X197516000Y-114570000D02*
G75*
G02*
X191296000Y-114570000I-3110000J0D01*
G01*
X191296000Y-114570000D02*
G75*
G02*
X197516000Y-114570000I3110000J0D01*
G01*
%TO.C,C4*%
X173742748Y-123807000D02*
X174265252Y-123807000D01*
X173742748Y-125277000D02*
X174265252Y-125277000D01*
%TO.C,M2*%
X182355000Y-59055000D02*
X182355000Y-64245000D01*
X179595000Y-64245000D02*
X182355000Y-64245000D01*
X179595000Y-59055000D02*
X182355000Y-59055000D01*
X179595000Y-59055000D02*
X179595000Y-64245000D01*
X179595000Y-57785000D02*
X179595000Y-56405000D01*
X179595000Y-56405000D02*
X180975000Y-56405000D01*
%TO.C,M6*%
X176005000Y-59055000D02*
X176005000Y-64245000D01*
X173245000Y-64245000D02*
X176005000Y-64245000D01*
X173245000Y-59055000D02*
X176005000Y-59055000D01*
X173245000Y-59055000D02*
X173245000Y-64245000D01*
X173245000Y-57785000D02*
X173245000Y-56405000D01*
X173245000Y-56405000D02*
X174625000Y-56405000D01*
%TO.C,C2*%
X115931000Y-107023252D02*
X115931000Y-106500748D01*
X117401000Y-107023252D02*
X117401000Y-106500748D01*
D14*
%TO.C,U1*%
X144254000Y-84404000D02*
X144254000Y-92534000D01*
X144254000Y-92534000D02*
X145154000Y-92534000D01*
X145154000Y-74524000D02*
X145154000Y-84404000D01*
X145154000Y-84404000D02*
X144254000Y-84404000D01*
X145154000Y-92534000D02*
X145154000Y-102424000D01*
X145154000Y-102424000D02*
X193354000Y-102424000D01*
X193354000Y-74524000D02*
X145154000Y-74524000D01*
X193354000Y-79474000D02*
X193354000Y-74524000D01*
X193354000Y-79474000D02*
X199554000Y-79474000D01*
X193354000Y-102424000D02*
X193354000Y-97474000D01*
X199554000Y-79474000D02*
X199554000Y-97474000D01*
X199554000Y-97474000D02*
X193354000Y-97474000D01*
D15*
X192324000Y-73904000D02*
G75*
G02*
X192124000Y-73904000I-100000J0D01*
G01*
X192124000Y-73904000D02*
G75*
G02*
X192324000Y-73904000I100000J0D01*
G01*
D13*
%TO.C,U2*%
X98395000Y-64435000D02*
X98395000Y-85885000D01*
X98395000Y-85885000D02*
X142145000Y-85885000D01*
X98400000Y-64690000D02*
X99700000Y-64690000D01*
X98400000Y-67845000D02*
X101530000Y-67850000D01*
X98400000Y-82470000D02*
X101530000Y-82470000D01*
X98400000Y-85630000D02*
X101530000Y-85630000D01*
X101530000Y-67540000D02*
X101530000Y-67850000D01*
X101530000Y-82470000D02*
X101530000Y-85630000D01*
X108699233Y-67274149D02*
X108699233Y-67435687D01*
X108700233Y-65907610D02*
X110350233Y-65616671D01*
X108700233Y-75259106D02*
X108700233Y-65907610D01*
X108700233Y-75259106D02*
X108777797Y-75336670D01*
X108777797Y-75336670D02*
X118782670Y-75336670D01*
X108981636Y-82828217D02*
X109431636Y-82828217D01*
X108981636Y-84578217D02*
X108981636Y-82828217D01*
X109431636Y-84578217D02*
X108981636Y-84578217D01*
X109431636Y-84853217D02*
X109431636Y-82553217D01*
X109531636Y-82453217D02*
X113131636Y-82453217D01*
X109960233Y-79966670D02*
X109960233Y-75336670D01*
X109960233Y-79966670D02*
X110800233Y-79966670D01*
X110350233Y-65616671D02*
X117210233Y-65616671D01*
X110800233Y-79966670D02*
X110800233Y-75336670D01*
X111660233Y-79966670D02*
X111660233Y-75336670D01*
X111660233Y-79966670D02*
X112500233Y-79966670D01*
X112361358Y-82553217D02*
X112361358Y-84853217D01*
X112500233Y-79966670D02*
X112500233Y-75336670D01*
X113131636Y-84953217D02*
X109531636Y-84953217D01*
X113231636Y-82553217D02*
X113231636Y-84853217D01*
X113231636Y-82828217D02*
X113681636Y-82828217D01*
X113232636Y-83064696D02*
X113232636Y-82970144D01*
X113360233Y-79966670D02*
X113360233Y-75336670D01*
X113360233Y-79966670D02*
X114200233Y-79966670D01*
X113681636Y-82828217D02*
X113681636Y-84578217D01*
X113681636Y-84578217D02*
X113231636Y-84578217D01*
X114200233Y-79966670D02*
X114200233Y-75336670D01*
X115060233Y-79966670D02*
X115060233Y-75336670D01*
X115060233Y-79966670D02*
X115900233Y-79966670D01*
X115900233Y-79966670D02*
X115900233Y-75336670D01*
X116760233Y-79966670D02*
X116760233Y-75336670D01*
X116760233Y-79966670D02*
X117600233Y-79966670D01*
X117210233Y-65616671D02*
X118860233Y-65907610D01*
X117600233Y-79966670D02*
X117600233Y-75336670D01*
X118782670Y-75336670D02*
X118860233Y-75259106D01*
X118860233Y-66696670D02*
X108700233Y-66696670D01*
X118860233Y-75259106D02*
X118860233Y-65907610D01*
X120417397Y-73855796D02*
X120417397Y-83555796D01*
X121917397Y-85055796D02*
X131617397Y-85055796D01*
X123249783Y-69852294D02*
X123249783Y-64952295D01*
X123299783Y-64902295D02*
X133199783Y-64902295D01*
X124286385Y-66220900D02*
X124310553Y-66252295D01*
X124298594Y-66277294D02*
X124274147Y-66272062D01*
X124298594Y-66277294D02*
X124305764Y-66246075D01*
X124298594Y-66277294D02*
X124310553Y-66252295D01*
X124310553Y-66752294D02*
X126389014Y-66752294D01*
X126389014Y-66252295D02*
X124310553Y-66252295D01*
X131617397Y-72355796D02*
X121917397Y-72355796D01*
X131808978Y-64901295D02*
X131764106Y-64901295D01*
X131892312Y-64901295D02*
X131858357Y-64901295D01*
X133117397Y-83555796D02*
X133117397Y-73855796D01*
X133199783Y-69902294D02*
X123299783Y-69902294D01*
X133249783Y-64952295D02*
X133249783Y-69852294D01*
X136598681Y-65970296D02*
X137398681Y-65970296D01*
X136598681Y-67250295D02*
X136598681Y-65650296D01*
X137398681Y-65650296D02*
X136598681Y-65650296D01*
X137398681Y-65650296D02*
X137398681Y-67250295D01*
X137398681Y-66930295D02*
X136598681Y-66930295D01*
X137398681Y-67250295D02*
X136598681Y-67250295D01*
X139010000Y-64690000D02*
X142125000Y-64690000D01*
X139010000Y-67850000D02*
X139010000Y-64690000D01*
X139010000Y-67850000D02*
X142170000Y-67850000D01*
X139010000Y-82470000D02*
X142125000Y-82470000D01*
X139010000Y-85630000D02*
X139010000Y-82470000D01*
X139010000Y-85630000D02*
X142125000Y-85630000D01*
X142145000Y-64435000D02*
X98395000Y-64435000D01*
X142145000Y-85885000D02*
X142145000Y-64435000D01*
X109431636Y-82553217D02*
G75*
G02*
X109531636Y-82453236I99964J17D01*
G01*
X109531636Y-84953217D02*
G75*
G02*
X109431583Y-84853217I-36J100017D01*
G01*
X113131636Y-82453217D02*
G75*
G02*
X113231583Y-82553217I-36J-99983D01*
G01*
X113231636Y-84853217D02*
G75*
G02*
X113131636Y-84953236I-100036J17D01*
G01*
X120417397Y-73855796D02*
G75*
G02*
X121917397Y-72355797I1500003J-4D01*
G01*
X121731131Y-75736010D02*
G75*
G02*
X121765249Y-75870200I-52931J-84890D01*
G01*
X121731132Y-75736011D02*
G75*
G02*
X123797611Y-73669531I793628J1272851D01*
G01*
X121765217Y-81541409D02*
G75*
G02*
X121731118Y-81675560I-87017J-49291D01*
G01*
X121765218Y-81541410D02*
G75*
G02*
X121765221Y-75870185I5002182J2835610D01*
G01*
X121917397Y-85055796D02*
G75*
G02*
X120417404Y-83555796I3J1499996D01*
G01*
X123249783Y-64952295D02*
G75*
G02*
X123299783Y-64902283I50017J-5D01*
G01*
X123299783Y-69902294D02*
G75*
G02*
X123249806Y-69852294I17J49994D01*
G01*
X123797611Y-83742062D02*
G75*
G02*
X121731137Y-81675590I-1272811J793662D01*
G01*
X123797611Y-83742062D02*
G75*
G02*
X123931799Y-83707947I84889J-52938D01*
G01*
X123931783Y-73703617D02*
G75*
G02*
X123797641Y-73669512I-49283J87017D01*
G01*
X123931784Y-73703617D02*
G75*
G02*
X129603011Y-73703617I2835614J-5002178D01*
G01*
X124274148Y-66732527D02*
G75*
G02*
X124286385Y-66783690I1075652J230227D01*
G01*
X129603011Y-83707976D02*
G75*
G02*
X123931783Y-83707976I-2835614J5002180D01*
G01*
X129603011Y-83707976D02*
G75*
G02*
X129737162Y-83742075I49289J-87024D01*
G01*
X129737183Y-73669531D02*
G75*
G02*
X129602998Y-73703641I-84883J52931D01*
G01*
X129737183Y-73669531D02*
G75*
G02*
X131803667Y-75736018I1272817J-793669D01*
G01*
X131617397Y-72355796D02*
G75*
G02*
X133117404Y-73855796I3J-1500004D01*
G01*
X131769576Y-75870183D02*
G75*
G02*
X131769579Y-81541412I-5002176J-2835617D01*
G01*
X131769577Y-75870184D02*
G75*
G02*
X131803680Y-75736039I87023J49284D01*
G01*
X131803662Y-81675582D02*
G75*
G02*
X129737182Y-83742062I-793622J-1272858D01*
G01*
X131803663Y-81675583D02*
G75*
G02*
X131769555Y-81541398I52937J84883D01*
G01*
X133117397Y-83555796D02*
G75*
G02*
X131617397Y-85055797I-1499997J-4D01*
G01*
X133199783Y-64902295D02*
G75*
G02*
X133249805Y-64952295I17J-50005D01*
G01*
X133249783Y-69852294D02*
G75*
G02*
X133199783Y-69902283I-49983J-6D01*
G01*
X106596666Y-75227418D02*
G75*
G02*
X98596666Y-75227418I-4000000J0D01*
G01*
X98596666Y-75227418D02*
G75*
G02*
X106596666Y-75227418I4000000J0D01*
G01*
X106628999Y-66905000D02*
G75*
G02*
X103431001Y-66905000I-1598999J0D01*
G01*
X103431001Y-66905000D02*
G75*
G02*
X106628999Y-66905000I1598999J0D01*
G01*
X109998179Y-74424594D02*
G75*
G02*
X109248179Y-74424594I-375000J0D01*
G01*
X109248179Y-74424594D02*
G75*
G02*
X109998179Y-74424594I375000J0D01*
G01*
X132017397Y-78705796D02*
G75*
G02*
X121517397Y-78705796I-5250000J0D01*
G01*
X121517397Y-78705796D02*
G75*
G02*
X132017397Y-78705796I5250000J0D01*
G01*
X137109000Y-83415000D02*
G75*
G02*
X133911000Y-83415000I-1599000J0D01*
G01*
X133911000Y-83415000D02*
G75*
G02*
X137109000Y-83415000I1599000J0D01*
G01*
X141979307Y-75725206D02*
G75*
G02*
X133979307Y-75725206I-4000000J0D01*
G01*
X133979307Y-75725206D02*
G75*
G02*
X141979307Y-75725206I4000000J0D01*
G01*
%TO.C,C6*%
X173488748Y-112165000D02*
X174011252Y-112165000D01*
X173488748Y-113635000D02*
X174011252Y-113635000D01*
%TO.C,C3*%
X174331252Y-126347000D02*
X173808748Y-126347000D01*
X174331252Y-127817000D02*
X173808748Y-127817000D01*
%TO.C,C1*%
X113423000Y-107023252D02*
X113423000Y-106500748D01*
X114893000Y-107023252D02*
X114893000Y-106500748D01*
%TD*%
M02*
